<svg width="120" height="120" viewBox="0 0 120 120" fill="none" xmlns="http://www.w3.org/2000/svg">
<circle cx="60" cy="60" r="60" fill="#E7EFF3"/>
<path fill-rule="evenodd" clip-rule="evenodd" d="M82.5176 21.4656C79.2647 23.8002 76.0117 26.1349 72.7587 28.3681C68.3793 31.4689 63.9998 34.6321 59.6692 37.76C58.4711 38.6253 57.2768 39.488 56.0872 40.3459C55.3756 40.8534 54.8673 40.9549 54.2574 40.2444C53.3425 39.2801 52.4022 38.3665 51.4619 37.4529C50.5216 36.5394 49.5813 35.6258 48.6664 34.6615C48.1581 34.154 47.6498 34.0524 46.9382 34.357C42.567 36.5901 39.1107 39.7368 36.2644 43.6956C36.0611 43.8986 35.8578 44.2031 35.6545 44.5076L35.6544 44.5077C34.9815 43.6257 34.3259 42.7785 33.6806 41.9445C32.7662 40.7627 31.8722 39.6074 30.9783 38.4172C30.0405 37.1882 29.1366 35.9592 28.2469 34.7497L28.2469 34.7496C27.5935 33.8613 26.9478 32.9835 26.3021 32.1238C25.7939 31.4133 25.6922 30.9057 26.4038 30.1952C34.2313 21.5671 43.8885 16.4917 55.4773 15.2737C64.6263 14.2586 73.3686 16.0857 81.5011 20.4505C81.6536 20.552 81.806 20.6281 81.9585 20.7043C82.111 20.7804 82.2635 20.8565 82.416 20.958C82.416 21.2626 82.416 21.3641 82.5176 21.4656ZM42.1419 86.3567C42.9442 85.7531 43.7613 85.1383 44.6005 84.5014C44.3845 84.3576 44.1939 84.2265 44.0153 84.1036L44.0151 84.1035L44.015 84.1034C43.6895 83.8795 43.4038 83.6829 43.0757 83.4863C39.4161 80.7457 36.4681 77.3959 34.3333 73.3356C33.9267 72.6251 34.0284 72.1176 34.6383 71.5085C36.773 69.4784 38.8061 67.3468 40.8391 65.2153L40.8392 65.2152L40.8393 65.2151C40.9881 65.0665 41.0825 64.9179 41.2021 64.7294C41.2459 64.6605 41.2931 64.5861 41.3475 64.5045C37.9929 60.089 34.6129 55.6734 31.2328 51.2578C27.8528 46.8423 24.4727 42.4268 21.1181 38.0112C21.0585 38.0409 21.0077 38.062 20.9656 38.0794C20.864 38.1214 20.8131 38.1425 20.8131 38.2142C20.7623 38.3157 20.6861 38.4426 20.6098 38.5695C20.5336 38.6964 20.4573 38.8233 20.4065 38.9248C15.527 48.1619 13.9006 57.9066 15.7304 68.1588C17.5602 78.3095 22.4396 86.8361 30.1654 93.7385C30.9787 94.4491 31.487 94.4491 32.1986 93.8401C33.0626 93.1803 33.9267 92.5458 34.7908 91.9114C35.6548 91.277 36.5189 90.6426 37.383 89.9828C38.9487 88.7592 40.5144 87.5812 42.1412 86.3572L42.1418 86.3568L42.1419 86.3567ZM94.5081 88.8592C91.1552 84.3952 87.8024 79.9313 84.5512 75.5688C84.3987 75.6703 84.297 75.7211 84.2462 75.7464C84.2201 75.7595 84.2074 75.7658 84.2081 75.7689C84.2088 75.7718 84.2215 75.7718 84.2462 75.7718C84.1954 75.8733 84.1191 75.9748 84.0429 76.0763C83.9666 76.1778 83.8904 76.2794 83.8396 76.3809C81.3998 79.9336 78.2485 82.8773 74.4873 85.0089C74.2122 85.1616 73.9728 85.2979 73.7626 85.4175L73.7626 85.4176C72.9363 85.8881 72.5613 86.1016 72.2393 86.0396C71.9718 85.988 71.7409 85.7461 71.3182 85.3031L71.3181 85.303C71.0881 85.0621 70.8014 84.7616 70.421 84.3999C69.4426 83.4743 68.4642 82.5227 67.4725 81.5582L67.472 81.5577L67.4706 81.5564C66.5054 80.6175 65.5275 79.6665 64.525 78.7155C59.0767 82.75 53.6652 86.7844 48.224 90.841L48.2113 90.8504C44.6212 93.527 41.0182 96.2132 37.383 98.9154C47.6502 104.6 58.2224 106.325 69.4045 103.991C79.4684 101.859 87.8041 96.7838 94.5134 88.8662L94.5081 88.8592ZM93.0902 74.5537C95.0217 77.0914 96.9531 79.6291 99.0879 82.3698C99.3929 81.6592 99.6978 81.1517 100.003 80.7457C103.459 73.9447 105.187 66.7377 104.984 59.1247C104.476 46.0303 99.2912 35.169 89.6339 26.4394C88.9223 25.7289 88.4141 25.9319 87.8041 26.4394C85.8727 27.9113 83.9412 29.3577 82.0098 30.8042C80.0783 32.2507 78.1469 33.6972 76.2154 35.169C76.124 35.2603 76.0121 35.3515 75.8889 35.452C75.7379 35.575 75.57 35.7119 75.4022 35.8796C75.6628 36.0097 75.8817 36.1816 76.0857 36.3417C76.1998 36.4313 76.3093 36.5173 76.4187 36.5901C80.3833 39.4323 83.4329 42.9851 85.6694 47.2484C86.076 47.9589 85.8727 48.4664 85.3644 48.974C84.3986 49.9383 83.4583 50.9027 82.5179 51.867C81.5777 52.8313 80.6374 53.7956 79.6717 54.7599C78.9601 55.4704 78.9601 55.978 79.57 56.79C82.7687 60.9067 85.9177 65.0731 89.0517 69.2196C90.3997 71.0032 91.745 72.783 93.0902 74.5537Z" fill="#231815"/>
</svg>
