<svg width="120" height="120" viewBox="0 0 120 120" fill="none" xmlns="http://www.w3.org/2000/svg">
<circle cx="60" cy="60" r="60" fill="url(#paint0_linear_107_23529)"/>
<path fill-rule="evenodd" clip-rule="evenodd" d="M101.765 59.2088C101.075 59.2088 100.507 59.7768 100.507 60.4664C100.507 61.3995 100.487 62.2717 100.426 63.1033C100.243 64.8478 99.6754 66.3893 98.9047 67.1804C98.215 67.9512 97.0182 68.0121 96.2475 67.3021C96.2326 67.2872 96.2164 67.2723 96.2 67.2571C96.1493 67.2102 96.0955 67.1605 96.0649 67.0993C94.8681 65.7605 94.503 62.7991 94.7667 60.5881C94.8276 59.8985 94.3002 59.29 93.6105 59.2494C92.9615 59.1885 92.3732 59.6551 92.2718 60.3041C92.1501 61.4603 92.1501 62.6165 92.2718 63.7524C92.2718 63.8538 92.2515 63.9553 92.2312 64.0567C91.6836 68.4177 89.8174 69.3305 88.357 69.3305C87.8905 69.3102 87.4239 69.2291 86.998 69.0668L87.0791 68.9857C88.4787 67.4035 89.3306 65.3346 89.3306 63.4887C89.3306 62.292 88.9858 61.2575 88.3164 60.507C87.789 59.8985 86.8357 59.1885 85.1724 59.1885C83.7931 59.1885 82.5355 59.8985 81.8256 61.0749C80.7099 62.8194 80.6085 65.3954 81.5619 67.505C81.8256 68.0526 82.1501 68.58 82.5558 69.0263C82.0284 69.2088 81.4807 69.3102 80.9128 69.3305C79.1481 69.3305 76.6126 67.1804 75.1521 65.6185C76.7546 64.3407 78.1744 62.8599 79.3509 61.1764C79.7566 60.6084 79.6146 59.8376 79.0466 59.4319C78.4787 59.0263 77.7079 59.1682 77.3022 59.7362C76.1258 61.44 74.645 62.9208 72.9615 64.1378V60.4664C72.9412 59.7768 72.3529 59.2291 71.6633 59.2697C71.0142 59.2899 70.4868 59.8173 70.4665 60.4664L70.4462 67.8092C70.426 67.7889 70.5679 71.3183 70.7505 71.4806H70.7708C70.9533 71.6632 71.1967 71.7646 71.4402 71.8052C71.5213 71.8254 71.6227 71.8254 71.7038 71.8254C72.3935 71.8254 72.9615 71.2575 72.9615 70.5678V66.8762C74.3408 68.4177 77.7282 71.8254 80.9128 71.8254C82.2718 71.8254 83.6308 71.4806 84.8073 70.8112C85.9026 71.4401 87.1197 71.7849 88.3773 71.8254C90.7708 71.8254 92.6166 70.507 93.7322 68.1338C93.8742 68.3569 94.0365 68.5597 94.2191 68.7626C95.0507 69.7362 96.2677 70.2839 97.5456 70.2839C97.7688 70.2839 98.3164 70.2027 98.5598 69.9593C98.4254 70.0938 98.3266 70.4242 98.2398 70.7145L98.2398 70.7146C98.1956 70.8622 98.1546 70.9995 98.1136 71.0952L97.5659 72.2514C97.1805 73.0222 96.7546 73.7524 96.2677 74.4624C95.3144 75.9025 94.1785 77.2413 92.9006 78.3975C90.0811 80.9329 86.6937 82.3528 83.002 83.0222C81.075 83.367 79.1075 83.4684 77.1602 83.3467C75.1521 83.225 73.1643 82.9411 71.1967 82.5151C67.2211 81.6835 63.286 80.3447 59.3915 78.8234C57.1399 77.9512 54.8884 76.9979 52.6369 76.0242C53.8134 74.9289 54.9696 73.793 56.0649 72.6165C57.6268 70.9329 59.1075 69.1885 60.4665 67.3427C61.8661 65.4766 63.1237 63.509 64.2393 61.4603C65.3955 59.3508 66.3489 57.1398 67.0791 54.868C67.8499 52.4745 68.2961 49.9999 68.4178 47.4847C68.4584 46.1865 68.3976 44.868 68.2353 43.5699C68.0527 42.2514 67.7688 40.9735 67.3428 39.7159C66.5314 37.2413 65.3347 34.9086 63.7728 32.8194C62.1501 30.6287 60.0811 28.8031 57.7079 27.4644C55.3144 26.1256 52.6775 25.3143 49.9391 25.0912C49.2698 25.0303 48.6207 24.9897 47.9716 24.9897C47.6471 24.9897 47.3225 24.9897 46.998 25.01L46.5111 25.0303C46.3653 25.0303 46.2194 25.0467 46.0588 25.0648L46.004 25.0709C44.6653 25.1723 43.3266 25.4157 42.0284 25.7808C39.4726 26.5313 37.0791 27.7281 34.9493 29.3508C32.9412 30.8924 31.1562 32.6774 29.6349 34.7058C28.8844 35.6794 28.215 36.6936 27.5862 37.7484C27.2617 38.2758 26.9777 38.8031 26.6937 39.3508C26.5517 39.6145 26.4097 39.8985 26.2677 40.1824L26.0649 40.6287L25.9635 40.8518L25.8418 41.1358C24.9493 43.2453 25.9635 45.6794 28.073 46.5719C30.1217 47.4238 32.4746 46.5313 33.428 44.5232L33.5294 44.3204L33.6308 44.1175L33.7728 43.8336C33.8235 43.7321 33.8742 43.6358 33.9249 43.5394L33.925 43.5393C33.9757 43.443 34.0264 43.3467 34.0771 43.2453C34.2799 42.8396 34.5233 42.4542 34.7667 42.0689C35.2535 41.2981 35.7606 40.5273 36.3286 39.8173C37.4036 38.4177 38.641 37.1601 40.0406 36.0851C41.3387 35.0912 42.7992 34.3609 44.361 33.8944C45.1116 33.6713 45.9026 33.5496 46.6734 33.4887C46.7241 33.4887 46.7748 33.4837 46.8256 33.4786C46.8763 33.4735 46.927 33.4684 46.9777 33.4684L47.3022 33.4482C47.3691 33.4482 47.4382 33.446 47.508 33.4437C47.65 33.4392 47.7951 33.4346 47.931 33.4482C48.357 33.4482 48.7627 33.4684 49.1684 33.509C50.7302 33.6307 52.2312 34.077 53.5903 34.8275C54.9493 35.5983 56.146 36.6327 57.0791 37.8701C58.0933 39.2291 58.8641 40.7301 59.3915 42.3325C59.6552 43.1033 59.8377 43.9147 59.9594 44.7261C60.0811 45.5577 60.1217 46.3893 60.1014 47.221C60.0406 48.9857 59.7363 50.7504 59.2089 52.434C58.641 54.2392 57.931 55.9634 57.0385 57.6267C55.1724 61.0952 52.8803 64.3204 50.2231 67.2413C48.5193 69.148 46.6734 70.933 44.7262 72.576C43.7322 72.15 42.718 71.724 41.6836 71.3183C39.574 70.4461 37.4239 69.7159 35.2333 69.1074C34.0162 68.7828 32.7992 68.5597 31.5416 68.4177C30.8316 68.3569 30.142 68.3366 29.432 68.3569C28.6207 68.3975 27.8296 68.5394 27.0385 68.7626C26.146 69.0263 25.2941 69.4522 24.5436 70.0202C23.7728 70.6084 23.1237 71.3183 22.6166 72.1297C22.1704 72.8396 21.8256 73.6307 21.5821 74.4421C21.3793 75.152 21.217 75.862 21.1359 76.6125C21.0548 77.2818 21.0142 77.9309 20.9939 78.6003C20.9736 79.3305 21.0345 80.0607 21.1359 80.791C21.2576 81.6429 21.501 82.4542 21.8458 83.2453C22.2312 84.1581 22.7992 84.9897 23.5091 85.6794C24.2393 86.3893 25.0913 86.937 26.0243 87.3224C26.8357 87.6469 27.7079 87.8701 28.5801 87.9512C30.0203 88.0729 31.4807 87.9918 32.9006 87.6672C35.4969 87.1196 37.7282 86.1865 39.8377 85.1317C41.9067 84.077 43.8945 82.8802 45.8012 81.5618C46.3083 81.2169 46.8154 80.8518 47.3225 80.4664C50.6288 81.7849 53.9757 83.1033 57.4239 84.2798C61.5619 85.6997 65.8215 86.937 70.2637 87.6672C72.5152 88.0526 74.787 88.2555 77.0588 88.2757C79.3915 88.296 81.7038 88.0526 83.9757 87.5252C88.6207 86.4705 92.7992 83.9553 95.9229 80.365C97.4239 78.6409 98.7018 76.7342 99.7566 74.7058C100.669 72.9411 101.501 71.1358 102.049 69.1682C102.557 67.3287 102.764 65.3193 102.96 63.4131L102.96 63.413L102.982 63.2048C103.043 62.6977 103.063 62.1703 103.063 61.6632C103.083 61.2575 103.083 60.8518 103.083 60.4258C103.022 59.797 102.475 59.2291 101.765 59.2088ZM84.7464 67.7687C84.361 67.4035 84.0365 66.9776 83.8134 66.4908C83.2049 65.1723 83.2454 63.4684 83.9148 62.4543C84.1582 62.008 84.645 61.724 85.1521 61.724C85.7201 61.724 86.146 61.8863 86.4097 62.1703C86.7343 62.5557 86.7951 63.1033 86.7951 63.509C86.7951 65.294 85.9229 66.7545 84.7464 67.7687ZM29.6349 80.7301C30.2028 80.7301 30.7708 80.6693 31.3185 80.5678C33.9554 80.1013 36.288 78.6206 38.5193 77.2007C38.2556 77.079 36.0446 76.3285 35.4158 76.1256C34.1176 75.6794 32.7586 75.3549 31.3996 75.152C31.3793 75.1494 31.3588 75.1467 31.3384 75.144C30.419 75.0237 29.3548 74.8844 28.6207 75.6185C28.073 76.2271 27.7079 76.9979 27.6065 77.8092C27.4442 78.9046 28.0122 80.7301 29.6349 80.7301Z" fill="white"/>
<defs>
<linearGradient id="paint0_linear_107_23529" x1="255.998" y1="226.399" x2="230.097" y2="-140.275" gradientUnits="userSpaceOnUse">
<stop offset="0.3" stop-color="#17936F"/>
<stop offset="0.41" stop-color="#14A073"/>
<stop offset="0.63" stop-color="#0BC27E"/>
<stop offset="0.79" stop-color="#04E087"/>
</linearGradient>
</defs>
</svg>
