<svg width="120" height="120" viewBox="0 0 120 120" fill="none" xmlns="http://www.w3.org/2000/svg">
<circle cx="60" cy="60" r="60" fill="#EDF0F4"/>
<ellipse cx="60.173" cy="59.7855" rx="40.6504" ry="19.4228" transform="rotate(-70.7 60.173 59.7855)" fill="#5FBCD3"/>
<ellipse cx="60.1538" cy="59.7991" rx="40.6504" ry="19.4228" transform="rotate(-37 60.1538 59.7991)" fill="#2C89A0"/>
<ellipse cx="61.9156" cy="58.7369" rx="40.6504" ry="19.4228" transform="rotate(-5.7 61.9156 58.7369)" fill="#164450"/>
<path fill-rule="evenodd" clip-rule="evenodd" d="M64.7893 60.558C65.1175 63.8122 67.4488 65.4325 71.7832 65.4188C74.3404 65.446 76.8664 64.8549 79.1462 63.696V68.6183C76.5619 69.7532 73.4376 70.3206 69.7732 70.3206C65.3294 70.3206 62.0478 69.0217 59.9285 66.4238H59.8054C57.481 69.0217 54.4934 70.3206 50.8426 70.3206C48.0943 70.3206 45.9476 69.719 44.4026 68.5158C42.8575 67.3125 42.085 65.6444 42.085 63.5114C42.085 61.392 42.8848 59.6897 44.4846 58.4044C46.0844 57.1191 48.3678 56.3808 51.3349 56.1894L57.6929 55.7382C57.6929 52.9625 56.1684 51.5747 53.1192 51.5747C50.2479 51.5747 47.4038 52.354 44.5872 53.9128V48.7648C47.4934 47.5548 50.607 46.9209 53.755 46.8984C57.6246 46.8984 60.3045 47.8692 61.7949 49.8108H61.8974C64.0961 47.8652 66.8229 46.616 69.7322 46.2216C73.0958 45.6678 77.3413 45.7089 79.3718 47.6368C80.5162 48.7451 81.2594 50.2026 81.4843 51.7798C81.7264 53.6041 81.206 55.4475 80.0455 56.8758C78.885 58.3041 77.1871 59.1909 75.3519 59.3274L64.7893 60.558ZM57.6727 60.7425V59.7581L53.8169 60.0452C50.7677 60.264 49.2432 61.2211 49.2432 62.9166C49.255 63.6378 49.6238 64.3063 50.2276 64.7009C50.8703 65.1795 51.7112 65.4256 52.7503 65.4393C54.1724 65.4393 55.3482 65.0017 56.278 64.1266C57.2078 63.2516 57.6727 62.1235 57.6727 60.7425ZM65.4248 56.9482L65.4863 55.9637C65.5684 54.5964 66.1016 53.4957 67.0861 52.6617C68.0706 51.8276 69.2738 51.4379 70.6958 51.4926C71.7213 51.5473 72.5417 51.8208 73.157 52.313C73.7461 52.738 74.0784 53.4335 74.0389 54.1589C73.9432 55.8543 72.3708 56.7431 69.3217 56.8251L65.4248 56.9482Z" fill="white"/>
</svg>
