<svg width="120" height="120" viewBox="0 0 120 120" fill="none" xmlns="http://www.w3.org/2000/svg">
<circle cx="60" cy="60" r="60" fill="#EDF0F4"/>
<path d="M29.0428 92.7056C28.9756 92.0341 28.5055 86.957 33.3676 80.2282C37.7059 74.2243 48.236 70.2621 57.7587 67.0117L58.6049 66.7297C65.0115 64.5404 74.0776 60.4439 76.1729 58.4561L82.7675 65.4134C78.4696 69.4831 66.1129 74.2914 61.7209 75.7957L60.8613 76.0912C56.2678 77.6627 44.0454 81.8264 41.1443 85.8557C38.4581 89.5761 38.5924 92.6652 38.5924 92.692L29.0428 92.7056Z" fill="url(#paint0_linear_107_22924)"/>
<path d="M73.7961 93.0144H64.2062C64.2062 89.1194 62.89 85.8418 61.8423 83.196C61.6946 82.8334 61.5603 82.484 61.426 82.1482C60.8484 80.6577 58.4308 77.058 56.4967 74.1837C55.4088 72.5585 54.2671 70.8796 53.3404 69.3888C53.0315 68.9052 52.7091 68.4083 52.3868 67.8979C49.5125 63.479 45.5771 57.4216 45.5771 48.3421C45.5771 43.1576 47.6053 37.9732 51.1511 34.105L58.2159 40.5923C56.3087 42.6741 55.167 45.5752 55.167 48.3421C55.167 54.5741 57.8398 58.6975 60.4321 62.6732C60.7947 63.2238 61.1439 63.7611 61.4663 64.2849C62.3259 65.6549 63.3735 67.1995 64.4749 68.8381C67.0134 72.6257 69.4175 76.1984 70.3846 78.6832C70.5055 78.9919 70.6263 79.3146 70.7607 79.6504C71.956 82.6855 73.7961 87.2794 73.7961 93.0144Z" fill="url(#paint1_linear_107_22924)"/>
<path d="M82.7673 65.3998L76.1725 58.4425C78.7243 56.0249 80.5244 53.9162 80.5244 48.6646C80.5244 41.2102 74.3727 36.6033 68.6779 36.6033C64.1381 36.6033 60.6192 37.9465 58.2015 40.579L51.1367 34.0917C54.105 30.8548 59.5581 27 68.6913 27C74.7488 27 80.3229 29.4713 84.379 33.944C88.0322 37.9867 90.1408 43.3458 90.1408 48.6511C90.114 57.2605 86.5815 61.7868 82.7673 65.3998Z" fill="url(#paint2_linear_107_22924)"/>
<defs>
<linearGradient id="paint0_linear_107_22924" x1="29" y1="58.4561" x2="29" y2="92.7056" gradientUnits="userSpaceOnUse">
<stop stop-color="#4D4D4D"/>
<stop offset="1" stop-color="#8F8F8F"/>
</linearGradient>
<linearGradient id="paint1_linear_107_22924" x1="45.5771" y1="34.105" x2="45.5771" y2="93.0144" gradientUnits="userSpaceOnUse">
<stop stop-color="#393939"/>
<stop offset="1" stop-color="#B8B8B8"/>
</linearGradient>
<linearGradient id="paint2_linear_107_22924" x1="51.1367" y1="27" x2="51.1367" y2="65.3998" gradientUnits="userSpaceOnUse">
<stop stop-color="#FF21B3"/>
<stop offset="1" stop-color="#FF21B3"/>
</linearGradient>
</defs>
</svg>
