<svg width="120" height="120" viewBox="0 0 120 120" fill="none" xmlns="http://www.w3.org/2000/svg">
<circle cx="60" cy="60" r="60" fill="#EDF0F4"/>
<path fill-rule="evenodd" clip-rule="evenodd" d="M74.4369 33.4913C73.5789 33.2545 72.7457 32.9356 71.9488 32.5391C71.7645 32.4777 71.3652 32.2627 72.6246 31.9248C73.7427 31.6248 74.4977 32.027 74.9969 32.293L74.997 32.293C75.06 32.3266 75.119 32.358 75.1741 32.3855C75.512 32.5391 75.1741 33.0613 74.9283 33.3378C74.7987 33.4649 74.6159 33.5221 74.4369 33.4913ZM64.7611 33.1535C64.4847 33.1535 64.3925 33.4913 64.3925 33.4913C64.2696 33.7064 65.6212 33.7678 65.8669 33.7678C66.1126 33.7678 66.2048 33.307 65.9898 33.1535C65.8376 33.0448 65.4238 33.0899 65.097 33.1256C64.962 33.1403 64.8419 33.1535 64.7611 33.1535ZM32.4471 51.9521C32.4471 51.9521 31.7099 51.9828 31.8328 51.1227C31.9557 50.2627 32.9386 49.2183 33.5222 48.819C34.1058 48.4197 34.413 48.1125 34.413 47.4982C34.413 47.0734 34.8388 46.7074 35.1727 46.4204C35.3217 46.2923 35.4524 46.18 35.5188 46.0852C35.7338 45.778 36.5324 45.3787 36.4096 45.9009C36.3622 46.1023 36.2874 46.258 36.2133 46.4121C36.0954 46.6575 35.9795 46.8988 35.9795 47.3139C35.9795 47.9896 36.1024 48.4504 36.4403 47.7439C36.7782 47.0374 38.8669 43.7507 40.9864 42.0306C43.1058 40.3105 45.9318 38.406 46.3004 38.3446C46.669 38.2832 46.884 38.5289 46.884 38.9282C46.884 39.1835 46.4698 39.4387 46.0425 39.702C45.8014 39.8506 45.5562 40.0017 45.3789 40.1569C45.3336 40.1965 45.2416 40.2727 45.1103 40.3814C43.8156 41.4539 38.7086 45.6844 37.1468 49.0033C36.7944 49.4934 36.393 49.9462 35.9488 50.3548C35.6656 50.5934 35.4981 50.8826 35.3094 51.2084C35.1093 51.5538 34.8854 51.9404 34.4744 52.3514C34.049 52.7768 33.8589 53.211 33.7138 53.5424C33.5865 53.8332 33.4938 54.0449 33.3072 54.1023C32.9079 54.2251 32.3857 53.7337 32.6929 52.6893C32.9152 51.9334 33.4754 51.3867 34.0241 50.8512L34.0242 50.8512C34.2336 50.6468 34.4413 50.4441 34.628 50.232C35.3038 49.464 35.5495 48.7883 35.3652 48.7883C35.1809 48.7883 34.198 49.0033 33.9215 49.7712C33.8398 49.9983 33.7822 50.1878 33.7329 50.3499C33.6155 50.7363 33.5452 50.9678 33.3072 51.1842C33.165 51.3154 33.0424 51.4544 32.9336 51.5776C32.7368 51.8006 32.5856 51.9719 32.4471 51.9521ZM47.0376 38.2524C47.0623 38.0911 47.1661 37.9528 47.314 37.8838C48.1126 37.4538 50.1092 36.9623 50.1092 36.9623C49.3909 37.3777 48.6938 37.8288 48.0205 38.3139C47.7133 38.5903 47.2833 38.7746 47.099 38.5289C47.0498 38.4456 47.0283 38.3488 47.0376 38.2524Z" fill="black"/>
<path fill-rule="evenodd" clip-rule="evenodd" d="M59.9693 34.075C61.3515 33.7679 66.0819 33.0614 73.4539 35.918C73.4539 35.918 73.6996 36.133 73.3925 36.5324C73.2817 36.7542 73.0568 36.8962 72.8089 36.901C72.8089 36.901 72.1331 36.6552 70.5358 36.0409C68.9386 35.4266 66.2662 35.1194 65.2218 35.1501C64.5961 35.1685 63.8271 35.0546 62.9675 34.9273C62.3924 34.8421 61.7768 34.7509 61.1365 34.6894C60.7302 34.664 60.3283 34.5919 59.9386 34.4743C59.8558 34.4383 59.8049 34.3538 59.8118 34.2637C59.8187 34.1737 59.8819 34.098 59.9693 34.075ZM33.6758 55.4846C34.0751 55.9146 34.3515 55.4846 34.3515 55.4846C34.8954 55.0826 35.603 53.9708 36.0401 53.284C36.1709 53.0786 36.2774 52.9112 36.3481 52.8122C36.6553 52.3822 38.4061 49.9556 38.959 49.2798C39.0853 49.1255 39.1571 48.984 39.2443 48.8122C39.5389 48.2315 40.0094 47.3043 43.3515 44.3651C47.6826 40.5562 52.5358 36.5938 58.4949 36.3788C64.4539 36.1638 71.3345 40.4641 71.3345 40.4641C71.7323 40.2852 71.9108 39.8184 71.7338 39.4197C65.0068 35.2423 59.5085 34.8122 56.8362 35.3344C54.1638 35.8566 51.645 37.2388 49.802 38.2832C47.9891 39.3105 44.4523 42.1509 42.4077 43.7929L42.3072 43.8737C40.5229 45.3706 38.9429 47.0952 37.6075 49.0033C37.0853 49.8634 35.1502 52.9351 34.4744 53.5494C33.7986 54.1638 33.2764 55.0545 33.6758 55.4846Z" fill="black"/>
<path fill-rule="evenodd" clip-rule="evenodd" d="M67.6484 32.877C67.564 32.9071 67.5076 32.987 67.5076 33.0767C67.5076 33.1663 67.564 33.2463 67.6484 33.2763C68.168 33.5086 68.7151 33.6737 69.2764 33.7678C70.1365 33.8292 72.4709 34.5664 73.5767 35.1501C74.2832 35.5187 74.6518 34.2286 74.1911 34.075C74.0575 34.0255 73.8912 33.9633 73.7035 33.893L73.7035 33.893L73.7034 33.893C72.7261 33.5272 71.1691 32.9444 70.6279 32.8156C70.0443 32.662 68.5085 32.5699 67.6484 32.877ZM72.686 37.546C72.686 37.546 72.9624 38.5289 72.0409 38.5903C71.5871 38.6206 70.4478 38.0846 69.2359 37.5145C67.987 36.9269 66.661 36.3031 65.9283 36.2252C64.4846 36.0716 65.4675 35.1501 67.3412 35.6723C69.215 36.1944 72.686 37.546 72.686 37.546ZM69.6282 41.5262C67.6158 40.3639 62.7472 37.5522 54.901 38.6211C54.2076 38.7051 53.6148 39.1628 53.162 39.5125C52.9528 39.674 52.7735 39.8125 52.6279 39.8804C51.7269 40.3084 50.8638 40.8119 50.0477 41.3856C48.3975 42.5666 46.8648 43.9038 45.4709 45.3787C44.0887 46.9146 42.3378 50.1091 41.9385 50.9077C41.5392 51.7064 39.9726 53.4572 39.5426 53.918C39.1126 54.3787 38.0375 56.7132 37.331 58.3719C36.6245 60.0306 35.703 59.8156 35.8566 58.5562C36.0102 57.2968 38.5597 53.7951 39.1433 53.0886C39.7269 52.3821 42.8907 47.8054 43.0443 47.406C43.1979 47.0067 42.7372 46.9146 42.3378 47.406C42.1732 47.6086 41.7372 48.255 41.2384 48.9942C40.5273 50.0482 39.6887 51.2911 39.3276 51.7064C38.7133 52.4129 35.9795 56.8975 35.9795 56.8975C35.9795 56.8975 35.6109 57.8804 35.0273 57.5733C34.4436 57.2661 34.6279 56.4982 35.3037 55.6688C35.6055 55.2985 36.8078 53.5619 38.079 51.726C39.6543 49.4509 41.3352 47.0231 41.5392 46.8531C41.6714 46.743 41.9222 46.6367 42.2306 46.5061C42.782 46.2725 43.5174 45.961 44.0887 45.4095C44.3995 45.1094 44.714 44.7383 45.04 44.3536C45.6486 43.6355 46.2975 42.8699 47.0375 42.4299C47.278 42.2869 47.6039 42.0076 48.0218 41.6495C49.5782 40.3157 52.4112 37.8879 56.8668 37.331C62.5187 36.6245 68.6006 39.0818 71.0887 41.1705C71.0887 41.1705 71.273 41.877 70.6279 41.9999C70.493 42.0256 70.1605 41.8336 69.6282 41.5262Z" fill="black"/>
<path d="M43.9966 48.604C43.9966 48.604 46.3925 44.9795 48.942 43.2286C51.4915 41.4778 52.9659 40.2491 53.7645 39.9419C54.5631 39.6348 57.2969 38.2218 63.5017 39.6348C69.7065 41.0477 70.4437 43.075 70.1672 43.4743C69.8908 43.8737 68.9078 43.2593 67.4949 42.4914C66.0819 41.7235 63.4096 40.5255 61.2594 40.587C59.1092 40.6484 54.8703 42.1228 54.5939 42.3685C54.3174 42.6143 54.2867 41.8771 55.0239 41.7235C55.7611 41.5699 56.2218 40.9863 56.6826 40.9249C57.1433 40.8634 57.8191 40.7098 57.8191 40.3412C57.8191 39.9726 56.2833 40.0341 55.5154 40.3412C54.7474 40.6484 51.7679 42.3378 51.215 42.645C50.6621 42.9522 49.9249 43.1672 49.802 43.6279C49.6792 44.0887 48.7577 45.1638 48.2969 45.4095C47.8362 45.6552 45.5324 47.4675 45.2867 47.8976C45.0689 48.4004 44.5376 48.6913 43.9966 48.604Z" fill="black"/>
<path fill-rule="evenodd" clip-rule="evenodd" d="M52.6587 44.3346C51.9522 44.8568 52.3208 44.9489 52.3208 44.9489C53.3643 45.1637 53.7945 44.888 54.99 44.1216L54.9932 44.1196C56.1911 43.3516 59.1092 42.2458 61.9966 42.338C64.4348 42.4158 67.793 44.684 68.8898 45.4248C69.0918 45.5612 69.2171 45.6458 69.2457 45.6554C69.43 45.7168 69.9215 44.5496 69.2457 43.966C68.57 43.3824 64.6997 41.4165 61.3515 41.2322C58.0034 41.0479 53.3652 43.8124 52.6587 44.3346ZM50.355 45.2254C49.0649 46.2083 48.7577 45.7476 48.7577 45.7476C48.7798 45.4378 50.0448 44.6501 50.8427 44.1532C51.1526 43.9602 51.392 43.8111 51.4608 43.751C51.7065 43.5359 52.0444 44.0274 51.9215 44.0274C51.8561 44.0274 51.782 44.0884 51.5322 44.2937C51.3129 44.4741 50.9582 44.7658 50.355 45.2254Z" fill="black"/>
<path d="M56.0682 44.7646C55.9976 44.7452 55.9443 44.687 55.9312 44.615C55.9181 44.5429 55.9475 44.4697 56.0068 44.4267C57.9973 43.0852 60.4469 42.6086 62.7952 43.1059C66.942 43.9966 68.6621 45.9625 68.7542 46.4233C68.8464 46.884 68.6928 47.9591 68.0785 47.7441C67.4641 47.5291 65.4675 44.4881 62.2423 44.2117C59.1399 43.9352 58.4334 45.3175 56.0682 44.7646Z" fill="black"/>
<path fill-rule="evenodd" clip-rule="evenodd" d="M60.3379 45.5016L59.9693 45.3787C59.9079 45.348 59.9386 45.2866 59.9693 45.2866C60.4915 45.1637 62.2423 44.8258 63.8396 45.4095C64.9753 45.8785 66.0006 46.5795 66.8499 47.4675C66.8801 47.4973 66.8861 47.544 66.8642 47.5805C66.8423 47.617 66.7983 47.6337 66.7577 47.6211L60.3379 45.5016ZM37.9761 61.1671C37.9761 61.1671 37.7918 61.7508 37.2697 61.3207C36.7978 60.9322 37.0282 60.343 37.213 59.8704L37.213 59.8703L37.213 59.8702C37.2327 59.8198 37.2519 59.7708 37.2697 59.7235C37.454 59.232 38.8669 56.3446 39.2048 56.0067C39.5427 55.6689 40.8021 54.1637 40.8021 53.8258C40.8021 53.488 41.14 54.7781 39.8499 56.7439C39.2154 57.7591 39.0396 58.3893 38.8615 59.0278C38.6947 59.6259 38.5258 60.2313 37.9761 61.1671ZM38.5598 63.1023C38.8976 63.5016 39.0819 63.1023 39.0819 63.1023C39.4679 62.4825 39.7871 61.8235 40.0342 61.1364C40.5063 59.97 40.4762 58.6278 40.4661 58.1769C40.465 58.129 40.4642 58.0913 40.4642 58.0648C40.4642 57.7883 40.4335 56.8361 40.157 57.2661C40.0072 57.4992 39.7762 58.2375 39.5324 59.0165C39.3264 59.6749 39.1113 60.3624 38.9284 60.7985C38.529 61.7508 38.2219 62.703 38.5598 63.1023ZM40.6792 64.976C40.6792 64.976 40.3106 65.5904 39.8499 64.8532C39.5302 64.3465 39.5302 63.7011 39.8499 63.1944C39.9243 63.0605 40.0132 62.7822 40.099 62.5134C40.1902 62.2277 40.278 61.9528 40.3413 61.8736C40.4642 61.72 40.6178 62.0886 40.6792 62.5494C40.7122 62.7968 40.8072 63.062 40.8881 63.2878C40.9578 63.4824 41.0171 63.6478 41.0171 63.7474C41.0171 63.9624 40.9557 64.6689 40.6792 64.976ZM41.3243 65.2218C41.4307 65.3721 41.5136 65.5378 41.57 65.7132C41.6073 65.8749 41.6073 66.043 41.57 66.2047C41.5086 66.5119 41.2628 66.8497 41.2321 66.5733C41.2181 66.4476 41.1407 66.3537 41.0633 66.2598C40.9704 66.1471 40.8775 66.0343 40.8942 65.8668C40.9249 65.5596 41.2321 65.1603 41.3243 65.2218ZM42.5222 56.4982C42.828 54.7744 43.568 53.157 44.6724 51.7985C46.454 49.7098 47.2833 49.3719 47.2833 49.3719C47.2833 49.3719 47.529 49.3105 47.4062 49.802C47.3298 50.1074 46.9449 50.6621 46.6276 51.1193L46.6276 51.1193L46.6276 51.1193C46.4344 51.3977 46.2663 51.64 46.2082 51.7678C46.1341 51.9309 45.8381 52.2729 45.5518 52.6038C45.2448 52.9585 44.9488 53.3005 44.9488 53.3958C44.9488 53.5031 45.1155 53.4959 45.2668 53.4893C45.3754 53.4846 45.4761 53.4802 45.5017 53.5187C45.5092 53.5299 45.5189 53.5415 45.5297 53.5544C45.6081 53.6483 45.7447 53.8119 45.5017 54.3787C45.4428 54.5163 45.3476 54.7278 45.2339 54.9802C44.8144 55.912 44.1436 57.4016 44.1195 57.7883C44.0888 58.2798 42.4915 61.9658 42.3379 61.9658C42.1843 61.9658 41.8464 61.9351 41.8772 60.7985C41.9079 59.662 43.5973 55.3924 44.058 54.6859C44.1307 54.5745 44.1927 54.4806 44.2448 54.4017C44.4255 54.1281 44.4877 54.0338 44.4667 54.0084C44.4557 53.9951 44.4216 54.0007 44.3696 54.0094L44.3652 54.0101C44.1809 54.0409 43.0444 55.2695 42.8908 56.1296C42.7372 56.9897 42.5222 56.4982 42.5222 56.4982ZM45.5017 57.174C46.3925 57.2354 46.8226 56.2218 46.8226 56.2218C46.8226 56.2218 47.4062 53.9794 47.4983 53.3037C47.5738 52.7498 48.2889 51.3708 48.7305 50.5191C48.8278 50.3316 48.9118 50.1696 48.9727 50.0477C49.115 49.7632 49.3117 49.5223 49.4803 49.3157C49.7122 49.0316 49.891 48.8126 49.8021 48.6347C49.6485 48.3276 48.727 48.6962 48.3891 49.0033C48.0512 49.3105 46.3925 52.9658 46.1775 53.918C46.1109 54.2128 45.9354 54.6313 45.7512 55.0705C45.3405 56.0497 44.8868 57.1316 45.5017 57.174Z" fill="black"/>
<path d="M45.9624 58.3721C46.0209 58.2217 46.0144 58.0537 45.9445 57.9082C45.8747 57.7628 45.7477 57.6527 45.5938 57.6042C45.0102 57.3584 44.9795 57.5427 44.703 58.0035C44.4266 58.4642 42.645 62.7646 42.645 63.4096C42.645 64.0547 42.8293 65.2526 43.0443 65.4369C43.2594 65.6212 43.4744 65.2833 43.4744 64.8226C43.5473 64.2563 43.782 63.7231 44.1501 63.2868C44.5207 62.7723 44.6547 62.1244 44.5187 61.5052C44.3959 60.768 45.5631 59.57 45.5631 59.57C45.5681 60.4317 45.5271 61.293 45.4402 62.1502C45.3174 62.9182 44.5187 63.5325 44.3344 63.8704C44.1501 64.2083 44.058 65.5291 43.9044 65.9284C43.7517 66.4151 43.7201 66.9318 43.8123 67.4335C43.9044 67.8328 44.1501 68.8158 44.3037 68.1093C44.4573 67.4028 45.0102 65.3141 45.1638 65.3448C45.3174 65.3755 45.2867 67.6485 45.1945 68.1093C45.1024 68.57 44.9795 70.8124 44.9795 71.0888C44.9795 71.3653 44.1501 72.6246 43.9966 73.0854C43.843 73.5461 42.9215 75.2356 42.9215 75.3277C42.9215 75.4199 43.843 75.3277 44.4266 74.867C44.8733 74.4784 45.14 73.9227 45.1638 73.3311C45.1638 72.9625 45.1024 72.0717 45.3174 71.5496C45.5324 71.0274 46.0853 69.7987 46.1774 69.3072C46.2544 68.049 46.2544 66.7873 46.1774 65.5291C46.116 64.8226 46.2696 61.8431 46.4846 61.2287C46.6996 60.6144 46.7303 60.3072 46.8839 60.3072C47.0375 60.3072 46.9454 62.181 46.8839 62.7646C46.8225 63.3482 46.6689 65.2526 46.6689 65.5291C46.4062 67.8775 46.7774 70.2533 47.744 72.4096C47.744 72.4096 47.8976 73.0854 48.6348 72.6246C49.372 72.1639 48.2969 70.1059 48.1126 69.5223C47.9283 68.9386 47.314 65.8977 47.529 65.4676C47.744 65.0376 48.9727 69.7066 49.0034 70.1673C49.0341 70.6281 49.1877 72.0717 49.4334 72.1025C49.6791 72.1332 50.6928 71.5188 50.6928 71.396C50.6916 71.0686 50.5955 70.7485 50.4164 70.4745C50.1399 70.0137 48.6655 66.2356 48.389 63.1025C48.1126 59.9694 48.6041 54.6246 48.8498 54.0717C49.0955 53.5188 50.232 51.0001 50.5085 50.6008C50.785 50.2014 51.5836 48.5427 51.7372 48.4813C51.8908 48.4199 52.0443 48.4199 52.0443 48.6042C51.8565 49.2416 51.6309 49.8673 51.3686 50.4779C51.1843 51.0001 50.2013 52.5666 50.017 53.0888C49.4556 54.7483 49.1047 56.4716 48.9727 58.2185C48.6962 60.983 49.3413 65.652 49.5256 66.5735C49.7099 67.495 50.8771 70.6281 51.5222 70.9045C52.1672 71.181 52.7201 70.3516 52.628 70.198C52.5358 70.0444 51.1843 67.5871 50.8771 66.5735C50.5699 65.5598 50.017 63.1332 50.1092 62.5803C50.2013 62.0274 50.9078 67.1878 53.3344 69.8909C53.3344 69.8909 53.6416 70.0752 54.1945 69.7066C54.7474 69.338 54.7167 69.0308 54.1945 68.4472C53.6723 67.8636 51.8908 64.4233 51.645 63.5325C51.3993 62.6417 50.3242 59.6929 50.2628 59.6008C50.1451 58.5562 50.1865 57.4998 50.3856 56.4677C50.6621 55.1775 51.0614 53.3653 51.0921 52.8738C51.1228 52.3823 51.9215 51.2765 52.1058 51.0308C52.2901 50.7851 52.7201 49.6178 52.9351 48.7885C53.1501 47.9591 53.5802 47.4062 53.2116 47.3448C52.843 47.2833 51.4914 47.4984 51.2457 47.7748C51 48.0513 50.017 48.6349 47.9283 53.396C47.9283 53.396 47.3447 54.5018 47.3447 55.1468C47.3443 55.9822 47.087 56.7972 46.6075 57.4813C46.4324 57.8052 46.2156 58.1047 45.9624 58.3721Z" fill="black"/>
<path fill-rule="evenodd" clip-rule="evenodd" d="M55.6382 47.4061C55.7611 47.5289 55.3004 48.0818 55.3004 48.0818C55.3004 48.0818 54.2867 50.3242 54.041 50.7235C53.7952 51.1842 52.2594 54.348 52.5973 55.6381C52.8901 56.7562 52.7677 57.9203 52.6698 58.8507C52.6548 58.9939 52.6403 59.1316 52.628 59.2627C52.5358 60.2457 53.8567 63.2559 54.1024 63.6552C54.3481 64.0545 56.2526 67.4948 56.2526 67.4948L57.0205 68.3856C57.0205 68.3856 56.0376 69.5221 55.0239 68.3856C54.0103 67.2491 51.7065 61.8736 51.3379 59.232C51.074 57.5511 51.0948 55.8378 51.3993 54.1637C51.4561 53.9082 51.7754 53.2131 52.1266 52.4483C52.5353 51.5583 52.9873 50.574 53.1195 50.0784C53.4697 49.0501 53.9663 48.0777 54.5939 47.191C54.8396 46.8839 55.5154 47.2832 55.6382 47.4061ZM46.0356 71.0928C46.1567 71.0063 46.3072 70.9717 46.4539 70.9965C47.0376 70.9965 47.2219 71.7644 47.2219 72.2866C47.1835 72.8469 46.9561 73.3776 46.5768 73.7917C46.2389 74.191 45.5324 74.3753 45.4403 74.3139C45.39 74.2804 45.477 74.0361 45.5715 73.7713C45.6499 73.5512 45.7335 73.3168 45.7475 73.1774C45.7258 72.6033 45.7463 72.0284 45.8089 71.4573C45.833 71.3104 45.9146 71.1793 46.0356 71.0928Z" fill="black"/>
<path d="M54.471 54.8395C54.4933 54.3475 54.5864 53.8612 54.7474 53.3958C54.9624 52.7814 55.2082 51.7678 54.7474 51.5221C54.2867 51.2763 53.488 51.4606 53.488 53.1808C53.488 54.9009 53.0887 56.8668 53.488 59.447C53.8873 62.0272 55.8225 66.5733 58.4027 68.9077C60.9829 71.2422 60.5222 70.4436 61.7815 71.5801C63.0409 72.7166 69.43 73.9146 71.2116 73.6995C72.9931 73.4845 73.4539 72.6244 73.546 72.3173C73.6382 72.0101 73.3925 71.4879 73.1467 71.7337C72.901 71.9794 71.5802 73.1774 67.2491 72.2251C62.9181 71.2729 61.7815 70.1978 61.5358 69.9828C61.2901 69.7678 58.8634 67.2797 58.587 67.034C58.3105 66.7883 55.5153 62.9794 55.5153 62.4265C55.5153 61.8736 59.1399 68.7849 63.9624 70.6279C68.785 72.4709 70.5665 72.1637 71.488 71.8565C72.4095 71.5494 73.3617 71.2729 73.3617 70.935C73.3617 70.5971 73.331 69.9521 73.0239 69.9521C72.7167 69.9521 70.9044 71.0272 70.0443 70.935C69.1843 70.8429 67.9249 70.29 66.7576 70.29C65.5904 70.29 63.1331 68.8463 62.5187 68.2627C61.9044 67.6791 58.6484 66.0204 55.5153 59.2934C55.4846 59.3241 54.3174 55.8531 54.471 54.8395Z" fill="black"/>
<path d="M62.9489 72.8089C62.9489 72.8089 61.6588 71.9488 61.413 71.9796C61.1673 72.0103 61.198 72.4403 61.2287 72.9011C61.2594 73.3618 61.4437 73.8533 61.7509 73.9147C62.0581 73.9762 62.8874 73.7919 63.0717 73.9147C64.5536 74.6617 66.1754 75.0907 67.8328 75.1741C70.3209 75.2663 70.8123 75.3584 71.5188 75.297C72.2253 75.2355 73.4233 74.8055 73.5154 74.5291C73.6076 74.2526 73.5461 73.3925 73.3004 73.3925C73.0547 73.3925 72.7782 74.6212 68.0786 74.0683C63.4403 73.454 62.9489 72.8089 62.9489 72.8089Z" fill="black"/>
<path d="M63.5631 74.7133C63.5631 74.7133 62.6109 74.0375 62.3344 74.314C62.058 74.5904 61.9966 75.4198 62.9488 75.6348C63.901 75.8498 66.0512 76.4642 66.5426 76.5563C67.5056 76.7361 68.4814 76.8388 69.4607 76.8635C70.5051 76.8635 71.5495 76.372 71.9795 76.372C72.4095 76.372 73.6996 76.372 73.7611 76.0956C73.7679 75.7715 73.7159 75.4488 73.6075 75.1433C73.5768 75.0205 73.2082 75.0512 72.9624 75.1741C72.1702 75.4875 71.3462 75.7141 70.5051 75.8498C69.095 75.9328 67.68 75.8295 66.2969 75.5427C65.3686 75.3259 64.4554 75.0489 63.5631 74.7133Z" fill="black"/>
<path d="M72.8088 77.3855C72.8088 77.3855 70.843 78.7371 65.3754 77.877C59.9078 77.0169 61.3208 74.8668 61.4437 74.9589C61.5665 75.0511 62.0273 75.6961 62.3652 75.819C62.703 75.9419 66.7884 77.2934 67.9249 77.3241C69.0614 77.3548 70.5358 77.2934 71.1809 77.0784C71.8259 76.8634 72.686 76.3105 73.0239 76.7712C73.3617 77.1705 72.8088 77.3855 72.8088 77.3855Z" fill="black"/>
<path d="M62.1502 77.4472C62.1502 77.4472 61.6587 77.1093 61.6587 77.4472C61.7075 77.9398 62.0104 78.3709 62.4573 78.5837C62.8864 78.7998 63.3591 78.9154 63.8396 78.9216C64.4207 78.968 64.9857 79.1354 65.4983 79.4131C65.959 79.6281 67.587 80.2731 70.413 79.7509C73.2389 79.2288 73.9454 78.553 74.0682 78.3687C74.1606 78.0894 74.1606 77.7879 74.0682 77.5086C74.0068 77.2015 73.7918 77.0786 73.5461 77.3243C73.3003 77.5701 71.6416 79.0445 67.587 78.768C63.5324 78.4916 62.1502 77.4472 62.1502 77.4472Z" fill="black"/>
<path d="M64.9147 79.6587C64.9147 79.6587 64.5768 79.1673 63.6553 79.413C62.7338 79.6587 66.0205 81.4096 66.2048 81.5632C66.3891 81.7167 66.6041 81.8089 67.4028 81.7167C68.2014 81.6246 70.4744 81.5017 71.2731 81.3174C72.0717 81.1331 73.669 80.6724 74.1604 80.058C74.6519 79.4437 74.4676 79.0444 74.0069 79.1058C73.5461 79.1673 70.7202 80.9181 67.8942 80.6724C65.0683 80.4266 64.9147 79.6587 64.9147 79.6587Z" fill="black"/>
<path fill-rule="evenodd" clip-rule="evenodd" d="M58.1877 47.7748C58.037 47.9984 57.8618 48.2044 57.6655 48.3892C57.1433 49.0035 56.4675 50.7544 56.4061 51.1844C56.3447 51.6144 56.529 52.8124 56.7133 53.5496C56.7956 53.879 56.9639 54.8341 57.1467 55.8722C57.373 57.157 57.6217 58.5689 57.7576 59.0786C57.9009 59.616 58.3262 60.498 58.6681 61.207C58.9125 61.7139 59.1143 62.1323 59.1399 62.2731C59.2013 62.611 61.9658 65.4677 62.3344 65.6213C62.4748 65.6797 62.9002 66.0411 63.4327 66.4934C64.2984 67.2287 65.4469 68.2043 66.1126 68.5086C67.1877 69.0001 70.4129 69.5837 71.0273 69.6144C71.6416 69.6452 71.2116 70.0445 71.2116 70.0445C68.2637 70.6417 65.2029 69.899 62.8566 68.0172C56.8361 63.2868 55.7303 58.8943 55.2389 54.6247C54.7474 50.3551 56.3139 47.2834 56.7747 47.1912C57.2354 47.0991 58.1877 47.6827 58.1877 47.7748ZM67.5255 82.454C67.4641 82.1776 68.8464 82.1469 68.8464 82.1469C70.7663 82.3742 73.1226 81.1264 74.0697 80.6249C74.2742 80.5166 74.413 80.4431 74.4675 80.4267C74.7747 80.3346 74.8976 80.826 74.8976 81.2561C74.8976 81.5685 74.5896 81.7025 74.1503 81.8938C73.9848 81.9659 73.8007 82.046 73.6075 82.1469C73.0369 82.4446 70.6831 82.8625 69.475 83.077C69.1873 83.128 68.9645 83.1676 68.8464 83.1912C68.2956 83.2441 67.7696 82.9506 67.5255 82.454ZM70.075 84.0206C70.075 83.867 71.5802 83.3755 71.5802 83.3755C72.0716 83.3448 74.1604 82.2083 74.3754 82.0854C74.5803 81.9924 74.8155 81.9924 75.0204 82.0854C75.2078 82.4218 75.2831 82.8091 75.2354 83.1912C75.1909 83.4584 74.4846 83.6288 73.8887 83.7725C73.6626 83.827 73.4524 83.8777 73.3003 83.9284C73.0776 84.0027 72.7703 84.1616 72.4504 84.3269C71.9761 84.5722 71.4744 84.8316 71.1808 84.8499C70.6894 84.8806 70.075 84.1742 70.075 84.0206ZM73.0238 85.71C72.6845 85.8751 72.2881 85.8751 71.9488 85.71C71.3651 85.4335 71.5802 85.0957 72.0716 84.8499C72.3762 84.6976 72.846 84.5099 73.2396 84.3527C73.4811 84.2562 73.694 84.1711 73.8225 84.1127C74.1604 83.9591 75.0819 83.6213 75.2354 83.7441C75.3973 83.9134 75.5043 84.1275 75.5426 84.3585C75.5426 84.512 73.0238 85.71 73.0238 85.71ZM72.9317 86.4779C72.9317 86.6008 73.8532 87.0923 73.8532 87.0923C74.2218 87.1537 76.2184 86.6315 76.2184 86.1707C76.2184 85.71 75.7269 85.2492 75.7269 85.2492C75.7269 85.2492 73.8532 86.0172 73.5767 86.0172C73.2981 86.053 73.056 86.226 72.9317 86.4779ZM76.2184 88.1059C75.9545 88.1558 75.6836 88.1558 75.4197 88.1059C75.2726 88.0569 75.0993 87.9208 74.9509 87.8042C74.8205 87.7018 74.7093 87.6144 74.6518 87.6144C74.529 87.6144 74.9283 87.3687 75.2354 87.338C75.4251 87.319 75.6966 87.2415 75.9201 87.1778L75.9201 87.1777C76.0586 87.1382 76.1786 87.104 76.2491 87.0923C76.4334 87.0615 76.6791 87.3073 76.6791 87.6144C76.6791 87.9216 76.2184 88.1059 76.2184 88.1059Z" fill="black"/>
<path d="M59.785 48.8498C59.785 48.8498 60.3379 48.6962 60.3686 48.5119C60.3993 48.3276 60.3071 47.8976 59.5699 47.7747C58.8327 47.6519 58.1263 48.1741 57.6348 49.4949C57.1433 50.8157 57.3583 53.6109 58.0034 55.3311C58.6484 57.0512 58.2798 58.4334 59.4778 60.7372C60.6757 63.041 60.645 63.041 61.1058 63.4096C61.5665 63.7782 63.7781 65.9283 64.116 66.2662C64.4539 66.6041 66.4198 67.8942 66.7884 67.8942C67.157 67.8942 67.3413 67.2799 67.3106 66.9727C67.2798 66.6655 67.2491 66.5119 66.7269 66.4812C66.2048 66.4505 65.4676 65.5904 65.4676 65.5904C65.4676 65.5904 62.6723 62.9488 62.4573 62.8259C62.2423 62.7031 59.9693 60.1229 59.9693 59.8157C59.9693 59.5085 60 59.0785 60.1843 59.3242C60.3686 59.57 61.6894 61.4744 62.5495 62.273C63.4095 63.0717 66.1433 65.3754 66.7884 65.6519C67.4334 65.9283 67.7406 65.959 67.802 65.4369C67.8635 64.9147 68.1706 64.6689 68.4471 64.8225C68.7235 64.9761 70.7815 66.1741 71.4266 66.0819C72.0716 65.9898 73.0239 65.0375 73.331 65.099C73.6382 65.1604 72.7781 66.1126 72.5017 66.2662C72.2252 66.4198 72.7167 66.7577 72.8088 66.8191C73.1574 67.0083 73.5871 66.9592 73.8839 66.6962C74.3754 66.2662 74.4368 65.6826 74.099 64.9147C73.7611 64.1468 73.6689 62.8567 73.5768 62.6109C73.4846 62.3652 73.3618 61.9966 73.116 62.6109C72.8703 63.2253 72.4095 64.4846 70.8123 64.5461C68.917 64.7007 67.0272 64.1902 65.4676 63.1024C63.5017 61.8123 61.1365 60.0307 59.2935 54.7782C57.4505 49.5256 59.785 48.8498 59.785 48.8498Z" fill="black"/>
<path fill-rule="evenodd" clip-rule="evenodd" d="M72.8703 60.0308C72.7039 59.9513 72.5052 59.9886 72.3789 60.123C72.2867 60.2765 72.1639 59.5701 72.3482 58.8943C72.5325 58.2185 72.3789 57.2049 72.1639 57.2663C72.1219 57.2783 72.0248 57.3887 71.8821 57.5511C71.294 58.2201 69.9302 59.7714 68.4471 58.9557C66.6041 57.9421 64.3004 55.0547 63.6553 53.7646C63.5971 53.6482 63.5377 53.5304 63.4778 53.4116L63.4778 53.4116C62.8737 52.2135 62.2227 50.9225 62.3345 50.14C62.3345 50.14 62.4267 49.4643 62.4574 49.28C62.4881 49.0957 62.0888 48.3585 61.5973 48.5428C61.1058 48.7271 59.9079 49.4028 59.7543 49.8943C59.7192 50.0066 59.6665 50.1172 59.609 50.238C59.4147 50.6459 59.1654 51.1693 59.355 52.2595C59.5438 53.3453 60.0229 54.667 60.3601 55.5972C60.4617 55.8774 60.5504 56.1221 60.6144 56.3141C60.8908 57.1434 61.7509 59.0172 62.6724 59.8465C63.5939 60.6759 65.4062 62.3039 66.2048 62.6725C66.3381 62.734 66.4961 62.8203 66.6771 62.9191L66.6771 62.9191C67.5809 63.4126 69.0568 64.2184 70.8738 63.809C73.0546 63.3175 73.0854 61.1366 73.0854 60.9216C73.0648 60.6146 72.9921 60.3134 72.8703 60.0308ZM63.001 58.9599L63.001 58.9598L63.001 58.9598C62.646 58.4249 62.0835 57.5772 61.9966 57.512C62.58 57.9453 63.1247 58.4283 63.6246 58.9557C64.2389 59.6622 64.7918 60.4916 64.7918 60.7373C64.7918 60.7373 63.3789 59.5086 63.2867 59.3858C63.2597 59.3497 63.1482 59.1817 63.001 58.9599ZM67.2001 61.0628C67.6561 61.403 68.344 61.9162 69.7372 61.966C71.4574 62.0274 71.8874 61.1673 71.7953 61.0445C71.7031 60.9216 71.3652 60.9216 71.0581 61.0445C71.0381 61.0525 71.0142 61.0628 70.9864 61.0748C70.5882 61.2471 69.4002 61.7611 67.6485 60.5837C65.7748 59.3243 63.6553 57.0206 63.4096 56.4984C63.3598 56.3925 63.2442 56.1969 63.0922 55.9395C62.4946 54.9278 61.3333 52.9616 61.3823 51.7373C61.3144 51.4136 61.2733 51.0848 61.2594 50.7544C61.2594 50.5701 60.6758 50.8772 60.768 51.2458C60.8601 51.6144 61.7509 54.7783 62.0888 55.4233C62.4267 56.0684 63.2253 56.9591 64.2389 58.0035C64.6467 58.4236 65.0842 58.9232 65.4916 59.3884C66.097 60.0797 66.6359 60.6949 66.9113 60.8602C66.9989 60.9127 67.0931 60.983 67.2001 61.0628Z" fill="black"/>
<path fill-rule="evenodd" clip-rule="evenodd" d="M71.9489 55.7919C71.8426 55.7919 71.6863 55.9008 71.5291 56.0105C71.2772 56.1862 71.0226 56.3637 70.9659 56.099C70.9217 55.8926 71.019 55.573 71.1321 55.2013C71.2547 54.7985 71.3959 54.3347 71.3959 53.8874C71.3959 53.0274 71.2116 51.3994 70.8123 50.6007C70.413 49.8021 70.0137 49.0956 69.3072 49.5256C68.6626 49.918 68.913 50.2337 69.1952 50.5893C69.2222 50.6234 69.2496 50.6579 69.2765 50.6929C69.3005 50.7241 69.3274 50.7584 69.3565 50.7955C69.6992 51.2326 70.3516 52.0647 70.3516 53.0274C70.3516 54.0717 70.198 55.4233 69.7987 55.5154C69.3994 55.6076 68.4471 55.3004 67.5871 54.6246C66.6684 53.9366 65.8149 53.1654 65.0376 52.3209C64.7611 51.9216 64.2082 51.0001 64.3618 50.8465C64.5154 50.6929 64.7611 50.6315 65.0069 51.0615C65.2526 51.4915 66.4506 52.7509 66.7577 53.0581C67.2711 53.5713 67.8148 54.0534 68.3857 54.5018C68.429 54.5306 68.4736 54.5621 68.5191 54.5941C68.8609 54.835 69.2548 55.1126 69.5529 54.6246C69.8908 54.0717 69.9523 52.7509 69.6758 52.2594C69.5981 52.1213 69.5059 51.9541 69.41 51.7802L69.4099 51.7801L69.4099 51.7801C69.1646 51.3354 68.8954 50.8475 68.785 50.6929L68.7737 50.6769C68.6193 50.4603 68.373 50.1145 67.8635 50.3243C67.3413 50.5393 67.3721 50.9693 67.5564 51.1229C67.5834 51.1455 67.6244 51.1773 67.6749 51.2165L67.6749 51.2165C67.9678 51.444 68.579 51.9188 68.6314 52.2594C68.6426 52.3319 68.6578 52.4145 68.6734 52.4991C68.7436 52.8808 68.8214 53.3039 68.57 53.0274C68.4557 52.9016 68.2732 52.6694 68.0781 52.421C67.7491 52.0024 67.3842 51.5379 67.2492 51.4608C67.0342 51.3379 65.5598 50.4164 65.5598 50.4164C65.5598 50.4164 63.7782 49.6792 63.6553 49.4949C63.5325 49.3106 63.1639 49.2799 63.4403 50.3243C63.4899 50.5117 63.5366 50.706 63.5841 50.9043L63.5841 50.9043L63.5841 50.9043C63.8017 51.8108 64.0389 52.7989 64.669 53.5803C65.0995 54.0785 65.4143 54.6659 65.5905 55.3004C65.7441 55.7611 67.2799 58.0342 69.2458 58.5257C71.0448 58.9754 71.7891 57.1101 71.9731 56.6489C71.9902 56.6061 72.0025 56.5754 72.0103 56.5598C72.1024 56.3755 72.2253 55.7919 71.9489 55.7919ZM70.0751 57.1741C70.0349 57.4757 69.6527 57.3694 69.29 57.2685C69.0985 57.2152 68.9124 57.1635 68.785 57.1741C68.4164 57.2048 67.7407 56.5905 67.3106 56.099C66.8806 55.6076 66.5427 55.0854 66.6656 55.0239C66.7256 54.994 66.888 55.1396 67.1029 55.3324C67.3283 55.5344 67.6112 55.7882 67.8942 55.9454L67.9849 55.9959L67.9849 55.9959C68.5256 56.2974 69.2107 56.6793 69.6758 56.6212C70.1673 56.5598 70.0751 57.1741 70.0751 57.1741ZM73.884 67.5257C73.884 67.3414 74.2833 66.8806 74.2833 66.8806C74.6125 66.8046 74.6286 67.1252 74.6413 67.3778C74.644 67.4317 74.6465 67.4825 74.6519 67.5257C74.6826 67.7714 74.6826 67.9557 74.4676 68.1093C74.2526 68.2629 74.099 68.1707 74.099 67.9864C74.099 67.8943 74.0453 67.8251 73.9915 67.756C73.9378 67.6869 73.884 67.6178 73.884 67.5257ZM74.6826 68.5086C74.6826 68.5086 74.2833 68.7543 74.2833 69.0615C74.2678 69.3172 74.2678 69.5737 74.2833 69.8294C74.3206 69.9331 74.4189 70.0023 74.5291 70.0023C74.6392 70.0023 74.7376 69.9331 74.7748 69.8294C74.7976 69.7839 74.8214 69.7415 74.8443 69.7007L74.8443 69.7007C74.9451 69.5215 75.0285 69.3732 74.9284 69.1229C74.8807 69.0276 74.87 68.8816 74.8605 68.7509C74.8454 68.5447 74.8331 68.3769 74.6826 68.5086ZM74.4676 71.6724C74.4369 71.8874 74.9898 71.4881 74.9898 71.4881L75.0318 71.4631C75.3157 71.2943 75.4978 71.1861 75.2048 70.6588C74.9894 70.271 74.925 70.3365 74.8423 70.4208C74.807 70.4567 74.7684 70.496 74.7134 70.5052C74.5673 70.5295 74.5177 71.1134 74.4881 71.4616L74.4881 71.4617L74.4881 71.4618C74.4804 71.5529 74.474 71.6278 74.4676 71.6724ZM75.4506 72.1946C75.4506 72.1946 75.6041 71.611 75.1741 71.9796C74.9939 72.134 74.8676 72.2022 74.784 72.2473C74.6681 72.3099 74.6341 72.3283 74.6519 72.471C74.6826 72.7168 74.7748 73.1468 75.0205 73.0854C75.048 73.0762 75.081 73.0705 75.1165 73.0643C75.3194 73.0289 75.6074 72.9787 75.4506 72.1946ZM75.0512 74.1605C74.9898 73.7611 75.6963 73.4233 75.6963 73.4233C75.853 73.3253 75.8598 73.5273 75.8681 73.7741C75.8728 73.9143 75.8779 74.0688 75.9113 74.1912C76.0035 74.5291 75.7577 74.9591 75.6041 74.9591C75.4506 74.9591 75.1127 74.5598 75.0512 74.1605Z" fill="black"/>
<path fill-rule="evenodd" clip-rule="evenodd" d="M21.3584 60C21.3584 38.6589 38.6588 21.3584 60 21.3584C70.2492 21.356 80.0793 25.4263 87.3265 32.6736C94.5737 39.9208 98.6441 49.7509 98.6417 60C98.6417 81.3412 81.3412 98.6417 60 98.6417C38.6588 98.6417 21.3584 81.3412 21.3584 60ZM23.9079 60C23.9164 79.9247 40.0754 96.07 60 96.0615C69.5692 96.0607 78.7457 92.2569 85.5093 85.4876C92.2728 78.7183 96.0688 69.5385 96.0615 59.9693C96.053 40.0447 79.894 23.8994 59.9693 23.9079C40.0447 23.9164 23.8994 40.0754 23.9079 60Z" fill="black"/>
<path fill-rule="evenodd" clip-rule="evenodd" d="M15 60C15 35.1472 35.1472 15 60 15C84.8521 15.0017 104.998 35.1479 105 60C105 84.8528 84.8528 105 60 105C35.1472 105 15 84.8528 15 60ZM19.2082 60C19.2082 82.5287 37.4713 100.792 60 100.792C82.5245 100.782 100.782 82.5245 100.792 60C100.792 37.4713 82.5287 19.2082 60 19.2082C37.4713 19.2082 19.2082 37.4713 19.2082 60Z" fill="#151515"/>
</svg>
