<svg width="120" height="120" viewBox="0 0 120 120" fill="none" xmlns="http://www.w3.org/2000/svg">
<circle cx="60.0001" cy="60.0001" r="58.0645" fill="#F2E3EE"/>
<circle cx="60" cy="60" r="60" fill="#D9327C"/>
<path fill-rule="evenodd" clip-rule="evenodd" d="M57.6775 31.645C57.1937 32.0321 56.613 32.7095 56.2259 33.9675C55.8388 35.2256 53.7098 41.4192 51.0001 49.1611H69.0969C66.3872 41.4192 64.2582 35.2256 63.8711 33.9675C63.484 32.7095 62.9033 32.0321 62.4195 31.645C61.9356 31.2579 61.2582 30.9675 60.0001 30.9675C58.742 30.9675 58.1614 31.2579 57.6775 31.645ZM30.9679 49.1611H43.2582C46.2582 40.3546 48.8711 32.9998 49.2582 31.645C50.0324 29.3224 51.2904 27.2901 53.2259 25.8385C55.1614 24.3869 57.484 23.7095 59.9033 23.7095C62.3227 23.7095 64.6453 24.2901 66.5808 25.8385C68.5162 27.2901 69.7743 29.3224 70.5485 31.645C71.0324 32.9998 73.5485 40.2579 76.5485 49.1611H89.0324C91.0646 49.1611 92.7098 50.8062 92.7098 52.8385C92.7098 54.8708 91.0646 56.5159 89.0324 56.5159H79.2582H71.613H48.484H40.8388H30.9679C28.9356 56.5159 27.3872 54.8708 27.3872 52.8385C27.3872 50.8062 29.0324 49.1611 30.9679 49.1611ZM30.9679 63.6772C28.9356 63.6772 27.3872 65.3224 27.3872 67.3546C27.3872 69.3869 29.0324 71.0321 30.9679 71.0321H35.8066L33.8711 76.645L31.9356 82.2579L31.1614 84.3869C30.484 86.3224 31.5485 88.3546 33.3872 89.0321C35.3227 89.7095 37.3549 88.645 38.0324 86.8062L38.8066 84.6772L40.742 79.0643C41.5162 76.7417 42.484 74.0321 43.5485 71.0321H76.6453C77.613 73.9353 78.5808 76.7417 79.4517 79.0643L81.3872 84.6772L82.1614 86.8062C82.8388 88.7417 84.8711 89.7095 86.8066 89.0321C88.742 88.3546 89.7098 86.3224 89.0324 84.3869L88.2582 82.2579L86.3227 76.645L84.3872 71.0321H89.2259C91.2582 71.0321 92.9033 69.3869 92.9033 67.3546C92.9033 65.3224 91.2582 63.6772 89.2259 63.6772H81.8711H74.2259H46.1614H38.5162H30.9679ZM85.4517 85.4514L88.8388 84.2901C88.8388 84.2901 88.8388 84.2901 85.4517 85.4514ZM85.4517 85.4514C82.0646 86.6127 82.0646 86.6127 82.0646 86.6127L85.4517 85.4514ZM34.6453 85.4514L38.0324 86.6127C38.0324 86.6127 38.0324 86.6127 34.6453 85.4514ZM34.6453 85.4514C31.2582 84.2901 31.2582 84.2901 31.2582 84.2901L34.6453 85.4514Z" fill="white"/>
</svg>
