<svg width="120" height="120" viewBox="0 0 120 120" fill="none" xmlns="http://www.w3.org/2000/svg">
<rect width="120" height="120" rx="60" fill="#1E1E1E"/>
<path opacity="0.4" d="M94.1352 72.5306C96.2143 76.098 96.2233 80.5057 94.1588 84.0816C92.0943 87.6575 88.2726 89.8536 84.1436 89.8368C80.0145 89.8199 76.2109 87.5928 74.1756 84.0002L50.0196 42.1634C46.852 36.6517 48.7523 29.6157 54.264 26.4482C59.7757 23.2806 66.8116 25.1809 69.9792 30.6926L94.1352 72.5306Z" fill="#4BDB4B"/>
<path opacity="0.8" d="M45.8292 84.0001C42.6409 89.468 35.6364 91.3365 30.1482 88.1832C24.6601 85.0299 22.7467 78.0376 25.8648 72.5293L50.0184 30.6937C52.0449 27.0829 55.8544 24.8385 59.995 24.8161C64.1355 24.7937 67.9691 26.9967 70.0345 30.5855C72.0999 34.1742 72.0788 38.5957 69.9792 42.1645L45.8292 84.0001Z" fill="#4BDB4B"/>
<path d="M69.9108 30.5774C69.7776 30.3506 69.6336 30.1334 69.4872 29.9186C69.4164 29.8154 69.3492 29.7098 69.2748 29.609C69.132 29.4134 68.9784 29.2286 68.8248 29.045C68.7312 28.9322 68.6412 28.817 68.5428 28.7078C68.4036 28.5542 68.2572 28.4114 68.112 28.2662C67.9668 28.121 67.8576 28.0094 67.7232 27.887C67.5888 27.7646 67.4616 27.6662 67.3296 27.557C67.164 27.4202 66.9996 27.2822 66.8244 27.1538C66.7044 27.065 66.5784 26.9846 66.4548 26.9018C66.2604 26.7698 66.0648 26.639 65.8548 26.5178C65.8116 26.4926 65.7732 26.4626 65.7348 26.4374C65.6436 26.3846 65.5476 26.345 65.454 26.2946C65.2596 26.1902 65.064 26.0882 64.866 25.9958C64.6992 25.9166 64.5288 25.8458 64.3572 25.7762C64.1856 25.7066 64.0224 25.6406 63.8532 25.5806C63.654 25.5102 63.454 25.4454 63.2532 25.3862C63.1044 25.3418 62.9568 25.2998 62.8068 25.2662C62.592 25.2122 62.3748 25.1654 62.1576 25.1234C62.01 25.0958 61.8612 25.0694 61.7136 25.0466C61.5012 25.0154 61.2888 24.9902 61.074 24.9698C60.9092 24.9538 60.7448 24.9418 60.5808 24.9338C60.388 24.9242 60.1948 24.9194 60.0012 24.9194C59.8104 24.9194 59.6208 24.9194 59.43 24.9338C59.2632 24.9422 59.0952 24.9542 58.9272 24.9698C58.7172 24.9902 58.506 25.0142 58.2972 25.0466C58.146 25.0694 57.9948 25.0958 57.8448 25.1246C57.6288 25.1654 57.4148 25.2122 57.2028 25.265C57.0504 25.3034 56.8992 25.3466 56.748 25.391C56.548 25.4502 56.348 25.5142 56.148 25.583C55.9752 25.6442 55.8036 25.7126 55.6332 25.7822C55.4628 25.8518 55.2996 25.9202 55.1364 25.997C54.9336 26.0918 54.7332 26.1962 54.5364 26.303C54.4464 26.3522 54.354 26.3906 54.2652 26.4422C54.2232 26.4662 54.186 26.495 54.1452 26.519C53.934 26.639 53.7312 26.7782 53.532 26.9138C53.412 26.993 53.292 27.0698 53.1804 27.1538C52.9968 27.2894 52.8204 27.4334 52.6476 27.5786C52.5276 27.6794 52.4076 27.7766 52.2876 27.8834C52.14 28.0166 52.002 28.1582 51.8628 28.2974C51.7236 28.4366 51.5892 28.5602 51.4692 28.697C51.3492 28.8338 51.252 28.9538 51.144 29.0834C51.0072 29.2502 50.868 29.417 50.7396 29.5922C50.6484 29.7122 50.5668 29.843 50.4816 29.969C50.352 30.1598 50.2236 30.353 50.1048 30.5546C47.9873 34.1232 47.9561 38.5558 50.0232 42.1538L60.0036 59.441L69.9828 42.1538C72.0455 38.5637 72.018 34.1416 69.9108 30.5774Z" fill="#4BDB4B"/>
</svg>
