<svg width="120" height="120" viewBox="0 0 120 120" fill="none" xmlns="http://www.w3.org/2000/svg">
<path fill-rule="evenodd" clip-rule="evenodd" d="M60 120C27 120 0 93.0006 0 59.7012C0.3 26.7019 27 -0.297518 60.3 0.00247602C93.3 0.30247 120 27.0019 120 60.6012C119.7 93.3006 93 120 60 120Z" fill="#EDF0F4"/>
<path fill-rule="evenodd" clip-rule="evenodd" d="M43.112 35.8932C47.7075 31.4072 53.8348 29 60.2904 29C66.7459 29 72.8732 31.4072 77.4687 36.0026C82.0642 40.3793 84.5807 46.2877 84.5807 52.6339V90.9295H36V52.6339C36 46.2877 38.5166 40.3793 43.112 35.8932ZM76.5934 36.7685C72.3261 32.5013 66.4177 30.2036 60.2904 30.2036C54.0537 30.2036 48.2546 32.5013 43.9874 36.7685C39.6107 41.0358 37.2036 46.616 37.2036 52.6339V89.7259H83.3772V52.6339C83.3772 46.616 80.97 41.0358 76.5934 36.7685Z" fill="#070001"/>
<path fill-rule="evenodd" clip-rule="evenodd" d="M73.4903 37.879L74.5845 38.9732C78.3046 42.8027 80.493 47.8359 80.493 53.3067V86.6786H40.2278V53.1973C40.2278 47.8359 42.3067 42.8027 46.1363 38.9732C49.8565 35.1436 54.999 33.0647 60.3604 33.0647C65.2841 33.0647 69.8796 34.7059 73.4903 37.879ZM62.3299 85.5844C64.4088 85.5844 66.4877 85.2562 68.3478 84.5997C68.7854 84.4903 69.1137 84.3808 69.4419 84.2714V58.8869C69.4419 51.7748 65.1747 47.3982 61.6734 44.991C57.7344 42.2556 53.1389 41.0521 49.747 40.7238C49.2 40.6144 48.6529 40.6144 48.2152 40.6144C44.9327 44.2251 43.0727 48.8206 43.0727 53.7443V66.3272C43.0727 70.485 44.3857 74.5334 46.9022 77.8159C47.1211 78.1441 47.4493 78.5818 47.7776 78.91V85.5844H62.3299Z" fill="#070001"/>
<path fill-rule="evenodd" clip-rule="evenodd" d="M61.7828 44.9911C57.8438 42.3652 53.2483 41.0522 49.8564 40.7239C49.5677 40.7239 49.2789 40.6934 49.0062 40.6646C48.7623 40.6389 48.5313 40.6145 48.3246 40.6145C45.0421 44.2252 43.1821 48.8207 43.1821 53.7444V66.3273C43.1821 70.4851 44.4951 74.5335 47.0116 77.816C47.1758 77.9801 47.3125 78.1716 47.4493 78.363C47.5861 78.5545 47.7228 78.746 47.887 78.9101V85.5845H62.4393C64.5182 85.5845 66.4877 85.2563 68.4572 84.5998C68.8948 84.4903 69.2231 84.3809 69.6608 84.1621V58.7776C69.5513 51.6655 65.2841 47.3983 61.7828 44.9911ZM48.9811 84.3809V80.1137C50.9506 81.9738 53.2483 83.5056 55.7649 84.3809H48.9811ZM62.3299 84.3809C64.4088 84.3809 66.4877 84.0527 68.3478 83.3962H68.2383V58.7776C68.2383 47.3983 56.312 42.1463 48.6529 41.8181C45.8081 45.1006 44.1668 49.3678 44.1668 53.7444V66.2179C44.1668 70.0474 45.3704 73.7676 47.6681 76.8312C47.9964 77.3783 48.434 77.9254 48.8717 78.363L49.5282 79.0195C53.0295 82.5209 57.5156 84.3809 62.3299 84.3809Z" fill="#070001"/>
<path d="M55.6916 69.7464C55.3633 69.7464 55.0351 69.4182 55.0351 69.0899V57.9295C55.0351 54.9753 57.4422 52.5681 60.3965 52.5681C63.3507 52.5681 65.7579 54.9753 65.7579 57.9295C65.7579 58.2578 65.4296 58.586 65.1014 58.586C64.7731 58.586 64.4449 58.2578 64.4449 57.9295C64.4449 55.7412 62.5848 53.8811 60.3965 53.8811C58.2082 53.8811 56.3481 55.7412 56.3481 57.9295V69.0899C56.3481 69.4182 56.0198 69.7464 55.6916 69.7464Z" fill="#070001"/>
<path d="M62.366 61.1026C62.0377 61.1026 61.7095 60.7743 61.7095 60.4461C61.7095 59.6802 61.1624 59.1331 60.3965 59.1331C59.6306 59.1331 59.0835 59.6802 59.0835 60.4461C59.0835 60.7743 58.7553 61.1026 58.427 61.1026C58.0988 61.1026 57.7705 60.7743 57.7705 60.4461C57.7705 58.9143 58.9741 57.7107 60.5059 57.7107C62.0377 57.7107 63.2413 58.9143 63.2413 60.4461C63.0225 60.7743 62.6942 61.1026 62.366 61.1026Z" fill="#070001"/>
<path d="M55.6916 69.7465C53.7221 69.7465 52.0809 68.1052 52.0809 66.1357C52.0809 65.8075 52.4091 65.4792 52.7374 65.4792C53.0656 65.4792 53.3939 65.8075 53.3939 66.1357C53.3939 67.3393 54.3786 68.3241 55.5822 68.3241C56.7858 68.3241 57.7705 67.3393 57.7705 66.1357C57.7705 65.8075 58.0988 65.4792 58.427 65.4792C58.7553 65.4792 59.0835 65.8075 59.0835 66.1357C59.1929 68.1052 57.6611 69.7465 55.6916 69.7465Z" fill="#070001"/>
<path d="M51.862 62.1967C51.6432 62.1967 51.5338 62.0873 51.4244 61.9779L48.4701 59.0237V61.5402C48.4701 61.8685 48.1419 62.1967 47.8136 62.1967C47.4854 62.1967 47.0477 61.8685 47.0477 61.4308V57.3824C47.0477 57.0542 47.2666 56.8353 47.4854 56.7259C47.8136 56.6165 48.0325 56.6165 48.2513 56.8353L51.2055 59.7896V58.0389C51.2055 57.7107 51.5338 57.3824 51.862 57.3824C52.1903 57.3824 52.5185 57.7107 52.5185 58.0389V61.4308C52.5185 61.7591 52.2997 61.9779 52.0809 62.0873C52.0809 62.1967 51.9715 62.1967 51.862 62.1967Z" fill="#070001"/>
<path d="M55.5822 58.6954C55.2539 58.6954 54.9257 58.3672 54.9257 58.0389C54.9257 57.9295 54.9257 55.1941 53.0656 55.1941C52.7374 55.1941 52.4091 54.8658 52.4091 54.5376C52.4091 54.2094 52.7374 53.8811 53.0656 53.8811C55.5822 53.8811 56.2387 56.6165 56.2387 58.0389C56.2387 58.3672 55.9104 58.6954 55.5822 58.6954Z" fill="#070001"/>
</svg>
