<svg width="120" height="120" viewBox="0 0 120 120" fill="none" xmlns="http://www.w3.org/2000/svg">
<path fill-rule="evenodd" clip-rule="evenodd" d="M60 0C93.132 0 120 26.868 120 60C120 93.132 93.132 120 60 120C26.868 120 0 93.132 0 60C0 26.868 26.868 0 60 0Z" fill="#1E1E1E"/>
<path d="M60.9002 85.08C41.7122 85.08 26.1602 79.536 26.1602 72.108C26.1602 68.232 30.3962 64.74 37.1762 62.28C42.4682 65.676 51.3482 67.416 61.4162 67.416C71.2442 67.416 79.9322 65.292 85.2722 62.04C91.6682 64.476 95.6402 67.872 95.6402 71.616C95.6402 79.056 80.0882 85.08 60.9002 85.08Z" fill="white"/>
<path d="M61.1042 65.7482C46.5602 65.7482 34.7642 61.1882 34.7642 55.5602C34.7642 52.4402 38.4002 49.6442 44.1002 47.7842C48.1682 49.9082 54.2642 51.2642 61.1042 51.2642C67.9442 51.2642 74.0402 49.9082 78.1082 47.7842C83.8202 49.6562 87.4442 52.4402 87.4442 55.5602C87.4562 61.1882 75.6602 65.7482 61.1042 65.7482Z" fill="white"/>
<path d="M61.008 49.572C49.764 49.572 40.644 45.804 40.644 41.172C40.644 36.54 49.764 32.772 61.008 32.772C72.252 32.772 81.372 36.54 81.372 41.172C81.372 45.804 72.252 49.572 61.008 49.572Z" fill="white"/>
</svg>
