<svg width="120" height="120" viewBox="0 0 120 120" fill="none" xmlns="http://www.w3.org/2000/svg">
<path d="M119.986 60.0024C119.986 93.1333 93.1237 119.995 59.9784 120C26.8571 120 -0.00479762 93.1333 2.57257e-06 59.9976C-0.00959781 26.8619 26.8523 0 59.988 0C93.1237 0 119.986 26.8667 119.986 60.0024Z" fill="#EAB300"/>
<path fill-rule="evenodd" clip-rule="evenodd" d="M83.5953 45.304C82.8225 37.2685 75.8862 34.5756 67.1211 33.8076V22.6567H60.3384V33.51C58.5575 33.51 56.7335 33.5436 54.9238 33.582V22.6567H48.1411L48.1363 33.798L48.0636 33.7994H48.0636C46.6198 33.8277 45.1994 33.8556 43.8162 33.8556V33.822L34.4606 33.8172V41.0655C34.4606 41.0655 39.472 40.9695 39.3856 41.0607C42.1361 41.0607 43.0289 42.6543 43.2881 44.032V56.7333C43.4801 56.7333 43.725 56.7429 44.0034 56.7813H43.2881L43.2833 74.5756C43.1633 75.4396 42.6545 76.8173 40.7344 76.8221C40.8208 76.8989 35.8046 76.8221 35.8046 76.8221L34.4558 84.9248H43.2881C44.2841 84.9248 45.2712 84.9354 46.2473 84.9459H46.2474L46.2499 84.9459C46.8819 84.9527 47.5093 84.9595 48.1315 84.9632L48.1363 96.2389H54.9142V85.0832C56.7719 85.1216 58.5719 85.136 60.3336 85.136L60.3288 96.2389H67.1115V84.9872C78.5167 84.3344 86.5091 81.4591 87.4979 70.7451C88.2995 62.1191 84.2434 58.2646 77.7679 56.7093C81.7089 54.7124 84.1714 51.1843 83.5953 45.304ZM74.1006 69.4106C74.1006 77.1484 61.9312 76.9731 56.3806 76.8931C55.8881 76.8861 55.4478 76.8797 55.0726 76.8797V61.9367C55.5415 61.9377 56.1122 61.9249 56.7592 61.9103C62.4647 61.7822 74.1006 61.521 74.1006 69.4106ZM56.2072 55.1184C60.8517 55.1918 70.942 55.3511 70.942 48.333C70.9464 41.1501 61.223 41.4074 56.4693 41.5332C55.9336 41.5474 55.461 41.5599 55.0726 41.5599V55.106C55.3963 55.1056 55.7785 55.1117 56.2072 55.1184Z" fill="white"/>
<path d="M43.2977 56.4355H44.3058V57.1796H43.2977V56.4355Z" fill="white"/>
</svg>
