<svg width="120" height="120" viewBox="0 0 120 120" fill="none" xmlns="http://www.w3.org/2000/svg">
<path d="M118.205 74.5143C110.192 106.657 77.6357 126.219 45.4887 118.204C13.3552 110.19 -6.20649 77.6324 1.81046 45.4918C9.82038 13.3451 42.3762 -6.21803 74.5132 1.79541C106.658 9.80884 126.218 42.3702 118.204 74.5149L118.205 74.5143H118.205Z" fill="#F7931A"/>
<path fill-rule="evenodd" clip-rule="evenodd" d="M86.4642 51.4517C87.6584 43.467 81.5794 39.1749 73.2668 36.3117L75.9635 25.4957L69.3795 23.8551L66.7544 34.3863C65.0235 33.9546 63.2459 33.5479 61.4792 33.1446L64.1234 22.5439L57.5435 20.9033L54.8454 31.7158C53.413 31.3896 52.0062 31.0673 50.6413 30.7277L50.6489 30.6937L41.5694 28.4264L39.818 35.4585C39.818 35.4585 44.7028 36.5783 44.5998 36.6472C47.266 37.3126 47.7481 39.0775 47.6681 40.4765L44.5963 52.7984C44.7799 52.845 45.018 52.9125 45.2808 53.0181L45.0898 52.9704L45.0896 52.9703C44.9272 52.9297 44.7583 52.8874 44.5849 52.8459L40.2793 70.1072C39.9535 70.9172 39.1264 72.1328 37.2624 71.6712C37.3284 71.7668 32.477 70.477 32.477 70.477L29.2082 78.0135L37.7762 80.1495C38.7144 80.3848 39.6416 80.6264 40.5593 80.8657L40.5611 80.8662C41.2019 81.0332 41.8382 81.1991 42.4704 81.3607L39.7458 92.3007L46.3222 93.9413L49.0204 83.1174C50.817 83.6051 52.5605 84.055 54.2673 84.4791L51.5783 95.2519L58.1626 96.8925L60.8868 85.973C72.114 88.0978 80.5559 87.2411 84.1092 77.0862C86.9724 68.9103 83.9667 64.1945 78.0601 61.1192C82.3621 60.127 85.6025 57.2975 86.4665 51.4526L86.4645 51.4511L86.4642 51.4517ZM71.4212 72.5457C69.5544 80.0469 57.8131 76.9457 52.441 75.5268C51.9578 75.3992 51.5261 75.2852 51.1577 75.1937L54.7732 60.7001C55.2221 60.8122 55.7706 60.9353 56.3921 61.0747L56.3922 61.0747C61.9489 62.3218 73.3339 64.8768 71.4215 72.5457H71.4212ZM57.5068 54.348C61.9855 55.5433 71.7559 58.1508 73.4575 51.3332H73.458C75.1955 44.3605 65.7004 42.2583 61.063 41.2316C60.5413 41.1161 60.0811 41.0142 59.7052 40.9205L56.4273 54.0653C56.7368 54.1425 57.1 54.2394 57.5068 54.348Z" fill="white"/>
</svg>
