<svg width="120" height="120" viewBox="0 0 120 120" fill="none" xmlns="http://www.w3.org/2000/svg">
<path d="M118.191 74.5143C110.178 106.657 77.6222 126.219 45.4752 118.204C13.3417 110.19 -6.22004 77.6324 1.79691 45.4918C9.80683 13.3451 42.3626 -6.21803 74.4997 1.79541C106.644 9.80884 126.205 42.3702 118.191 74.5149L118.191 74.5143H118.191Z" fill="url(#paint0_linear_107_17424)"/>
<path fill-rule="evenodd" clip-rule="evenodd" d="M86.4506 51.4517C87.6448 43.467 81.5658 39.1749 73.2533 36.3117L75.9499 25.4957L69.3659 23.8551L66.7408 34.3863C65.0099 33.9546 63.2324 33.5479 61.4657 33.1446L64.1099 22.5439L57.5299 20.9033L54.8318 31.7158C53.3995 31.3896 51.9926 31.0673 50.6277 30.7277L50.6354 30.6937L41.5559 28.4264L39.8044 35.4585C39.8044 35.4585 44.6892 36.5783 44.5863 36.6472C47.2524 37.3126 47.7346 39.0775 47.6545 40.4765L44.5828 52.7984C44.7663 52.845 45.0045 52.9125 45.2673 53.0181L45.0763 52.9704L45.0761 52.9703C44.9136 52.9297 44.7447 52.8874 44.5713 52.8459L40.2658 70.1072C39.9399 70.9172 39.1129 72.1328 37.2488 71.6712C37.3148 71.7668 32.4635 70.477 32.4635 70.477L29.1946 78.0135L37.7627 80.1495C38.7009 80.3848 39.628 80.6264 40.5457 80.8657L40.5476 80.8662C41.1884 81.0332 41.8246 81.1991 42.4568 81.3607L39.7323 92.3007L46.3087 93.9413L49.0068 83.1174C50.8034 83.6051 52.5469 84.055 54.2538 84.4791L51.5647 95.2519L58.149 96.8925L60.8733 85.973C72.1004 88.0978 80.5423 87.2411 84.0956 77.0862C86.9589 68.9103 83.9531 64.1945 78.0466 61.1192C82.3486 60.127 85.589 57.2975 86.453 51.4526L86.4509 51.4511L86.4506 51.4517ZM71.4077 72.5457C69.5409 80.0469 57.7995 76.9457 52.4275 75.5268C51.9442 75.3992 51.5125 75.2852 51.1442 75.1937L54.7597 60.7001C55.2086 60.8122 55.7571 60.9353 56.3785 61.0747L56.3786 61.0747C61.9354 62.3218 73.3204 64.8768 71.408 72.5457H71.4077ZM57.4932 54.348C61.972 55.5433 71.7423 58.1508 73.4439 51.3332H73.4445C75.182 44.3605 65.6869 42.2583 61.0494 41.2316C60.5277 41.1161 60.0675 41.0142 59.6917 40.9205L56.4137 54.0653C56.7232 54.1425 57.0864 54.2394 57.4932 54.348Z" fill="white"/>
<defs>
<linearGradient id="paint0_linear_107_17424" x1="0" y1="0" x2="0" y2="120" gradientUnits="userSpaceOnUse">
<stop stop-color="#FCC538"/>
<stop offset="1" stop-color="#F7931A"/>
</linearGradient>
</defs>
</svg>
