<svg width="120" height="120" viewBox="0 0 120 120" fill="none" xmlns="http://www.w3.org/2000/svg">
<path d="M118.191 74.5143C110.178 106.657 77.6222 126.219 45.4752 118.204C13.3417 110.19 -6.22004 77.6324 1.79691 45.4918C9.80683 13.3451 42.3626 -6.21803 74.4997 1.79541C106.644 9.80884 126.205 42.3702 118.191 74.5149L118.191 74.5143H118.191Z" fill="#F7931A"/>
<path fill-rule="evenodd" clip-rule="evenodd" d="M77.9023 38.1724C74.9442 30.6603 67.5336 29.9828 58.903 31.6594L55.8304 20.9442L49.3082 22.8154L52.3004 33.2483C50.5856 33.7399 48.8428 34.2763 47.1112 34.8105L44.1007 24.3079L37.5821 26.1771L40.6516 36.89C39.2481 37.3237 37.8686 37.748 36.5168 38.1364L36.5064 38.1031L27.5096 40.6793L29.5089 47.645C29.5089 47.645 34.2991 46.1723 34.2444 46.2835C36.8861 45.5267 38.1861 46.8141 38.8163 48.0656L42.317 60.2726C42.4993 60.2212 42.7393 60.1605 43.0196 60.1206L42.8304 60.1748L42.8302 60.1749C42.6692 60.2209 42.5018 60.2687 42.3309 60.3195L47.2328 77.4209C47.3556 78.2854 47.2472 79.7516 45.402 80.2839C45.507 80.3337 40.6607 81.6424 40.6607 81.6424L41.5981 89.8036L50.0862 87.3694C51.0163 87.104 51.9401 86.8498 52.8545 86.5981L52.8563 86.5976C53.4948 86.4219 54.1287 86.2474 54.757 86.0713L57.8675 96.9079L64.3831 95.0404L61.3078 84.3176C63.1076 83.8417 64.8425 83.3595 66.5327 82.8734L69.5903 93.5475L76.1128 91.6761L73.0123 80.8574C83.7977 77.084 90.6803 72.1211 88.6801 61.55C87.0718 53.0379 82.1108 50.4567 75.4579 50.7467C78.6875 47.7365 80.079 43.6658 77.9048 38.172L77.9022 38.1717L77.9023 38.1724ZM75.4218 63.9618C77.5556 71.3914 65.8367 74.5764 60.475 76.0337C59.9926 76.1648 59.5618 76.2819 59.197 76.3868L55.0813 62.0272C55.5261 61.8998 56.0627 61.7322 56.6706 61.5422L56.6707 61.5422C62.1065 59.8438 73.2437 56.364 75.422 63.9617L75.4218 63.9618ZM54.2726 55.1594C58.749 53.9551 68.5141 51.3281 66.5789 44.5731L66.5794 44.5728C64.5978 37.6656 55.3236 40.5926 50.7942 42.0221C50.2846 42.1829 49.8351 42.3248 49.4628 42.4316L53.1964 55.4543C53.503 55.3664 53.866 55.2687 54.2726 55.1594Z" fill="white"/>
</svg>
