<svg width="120" height="120" viewBox="0 0 120 120" fill="none" xmlns="http://www.w3.org/2000/svg">
<circle cx="60" cy="60" r="60" fill="#EDF0F4"/>
<path fill-rule="evenodd" clip-rule="evenodd" d="M72.5996 32L82.7002 37.2998L92.5996 50.7002L60.2998 87.4004L28 50.7002L38.0996 37.4004L47.7002 32H72.5996ZM49.4004 44L45.9004 58.5L51 67.3441V67.6H51.1475L60.2002 83.2998L74.5 58.0996L70.7002 44H49.4004ZM51.1475 67.6H55.5V71H58.2V68H60.1L60.2 71H62.7V67.7H65.1C66.0144 67.7088 66.9136 67.4667 67.7 67C69.6 65.7 70.2 62.9 69.4 60.8C68.8559 59.4154 67.8245 58.2773 66.5 57.6C67.3168 57.3189 67.9727 56.6994 68.3 55.9C68.5 55.3 68.5 54.8 68.4 54.2C68.4 54.2 68.3 53.3 68 52.5C67.4 51.2 65.4 50 62.6 49.7V46.5H60.1V49.7H58.2V46.5H55.6V49.7H51.5V51.8C52.4084 51.9069 53.2184 52.4224 53.7 53.2C53.9915 53.6373 54.0706 54.0215 54.1307 54.3138L54.1308 54.3139C54.1531 54.4226 54.1729 54.5187 54.2 54.6L54.4 62.6C54.4 63.6 54 64.5 53.2 65C52.3667 65.5 51.5333 65.375 51.163 65.3194L51.1629 65.3194C51.0889 65.3083 51.0333 65.3 51 65.3V67.3441L51.1475 67.6ZM56.2998 80.5996L43.7002 58.9004L33.4004 53.5996L56.2998 80.5996ZM76.5996 59L63.7998 80.5L87.2998 53.5996L76.5996 59ZM61.5996 52.9004C62.7996 52.9004 63.7998 53.8 63.7998 55C63.7998 56.1999 62.9001 57.2001 61.7002 57.2002H58.4004V52.9004H61.5996ZM30.7998 49.7998L44.0996 56.5L47 44L38.7998 39.5L30.7998 49.7998ZM72.5996 44L76.7002 56.5L89.2998 50.0996L81.9004 39.5L72.5996 44ZM41.4004 38.2002L48.4004 41.9004H71.7002L79.7002 38.0996L71.7998 34H48.5L41.4004 38.2002ZM58.6 64.7H62.4C63.8 64.6 64.8 63.5 64.7 62.2C64.6 61.1 63.6 60.1 62.4 60H58.6V64.7Z" fill="#FCC339"/>
</svg>
