<svg width="120" height="120" viewBox="0 0 120 120" fill="none" xmlns="http://www.w3.org/2000/svg">
<circle cx="60" cy="60" r="60" fill="#EDF0F4"/>
<circle cx="60" cy="60" r="50" fill="#FB2EA3"/>
<path fill-rule="evenodd" clip-rule="evenodd" d="M80.8834 53.4586C80.178 58.2675 77.5334 60.5952 74.0249 61.4097C78.8417 63.9379 81.2967 67.8195 78.9598 74.5425C76.0604 82.8947 69.1739 83.5964 60.0157 81.8514L57.7876 90.8333L52.4176 89.483L54.6116 80.6234C53.1802 80.2651 51.7526 79.8912 50.3293 79.5018L48.1291 88.4053L42.7622 87.0582L44.9873 78.0576C44.4533 77.9203 43.916 77.7791 43.3745 77.6368C42.6429 77.4446 41.9039 77.2504 41.1556 77.0613L34.1665 75.3069L36.8328 69.1039C36.8328 69.1039 40.792 70.1691 40.736 70.0876C42.2588 70.4667 42.9331 69.4673 43.2004 68.8032L46.712 54.6052L47.2807 54.7462C47.0983 54.6743 46.9115 54.6146 46.7213 54.5676L49.2261 44.4329C49.2913 43.28 48.8998 41.8326 46.7244 41.2812C46.8083 41.2249 42.8212 40.3038 42.8212 40.3038L44.2507 34.5206L51.6593 36.3846L51.6531 36.416C52.7656 36.6916 53.9155 36.9579 55.0839 37.2274L57.2872 28.3333L62.6572 29.6804L60.5005 38.4022L60.8328 38.4788L60.8329 38.4788C62.1625 38.7855 63.4992 39.0938 64.8015 39.4235L66.9457 30.7612L72.3157 32.1083L70.1155 41.0056C76.8995 43.3614 81.8592 46.8921 80.8834 53.4586ZM68.6086 70.8083C70.1733 64.5041 60.8895 62.4019 56.3534 61.3747L56.3533 61.3746C55.8446 61.2594 55.3955 61.1578 55.0282 61.0652L52.0791 72.9856C52.3801 73.061 52.733 73.1549 53.1279 73.2601L53.1285 73.2603L53.1288 73.2603L53.1289 73.2604L53.1289 73.2604C57.5136 74.4281 67.0895 76.9781 68.6117 70.8083H68.6086ZM60.1688 45.0546C63.9557 45.901 71.6889 47.6295 70.2709 53.3614C68.8823 58.9752 60.8985 56.822 57.2506 55.8382C56.9226 55.7497 56.6297 55.6707 56.3798 55.6077L59.0524 44.7963C59.3611 44.8741 59.7395 44.9587 60.1686 45.0546L60.1688 45.0546ZM85.9023 77.2618C85.3763 77.1909 84.844 77.334 84.423 77.6597C84.0192 78.0088 83.7452 78.4861 83.6461 79.0131C83.5824 79.3061 83.5614 79.6068 83.584 79.9059C83.6106 80.2467 83.7194 80.5758 83.9009 80.8646C84.0874 81.1779 84.3857 81.4724 84.7897 81.748C85.1937 82.0206 85.7531 82.2399 86.4678 82.4059C86.8532 82.4999 87.251 82.5438 87.6581 82.5406C88.0683 82.5406 88.4474 82.4749 88.7954 82.3433C89.5443 82.0768 90.099 81.4331 90.256 80.6484C90.4041 80.0929 90.3258 79.5007 90.0385 79.0037C89.7526 78.5212 89.2833 78.1515 88.6276 77.8947L89.1062 75.8082C90.2871 76.2875 91.1137 76.9736 91.5923 77.8602C92.0709 78.7499 92.1703 79.8057 91.8906 81.0275C91.7491 81.7051 91.4686 82.3453 91.0671 82.9072C90.3373 83.91 89.2111 84.5434 87.9813 84.6428C87.3127 84.7037 86.6388 84.654 85.9862 84.4955C85.3148 84.3445 84.6703 84.0909 84.075 83.7437C83.5261 83.4267 83.0471 83.0003 82.6672 82.4905C82.2977 81.984 82.045 81.4007 81.9276 80.7831C81.8022 80.0745 81.8287 79.3471 82.0053 78.6497C82.1242 78.1201 82.3156 77.6098 82.574 77.1334C82.8257 76.6697 83.1334 76.2781 83.5032 75.9586C83.8699 75.639 84.2925 75.4072 84.7711 75.2631C85.2528 75.1158 85.7873 75.0876 86.3808 75.1722L85.9023 77.2618ZM93.432 72.5814C93.8372 71.9982 94.1215 71.3386 94.268 70.6421C94.4395 69.9518 94.4712 69.2336 94.3612 68.5306C94.2462 67.8821 94.0194 67.3026 93.6775 66.7919C93.3357 66.2812 92.8882 65.8489 92.3288 65.4918C91.7347 65.1236 91.0834 64.8588 90.4021 64.7086C89.6873 64.5425 89.0037 64.4955 88.3511 64.5676C87.7256 64.6306 87.1201 64.8248 86.5735 65.1378C86.0421 65.4448 85.5884 65.8677 85.203 66.4003C84.7979 66.9835 84.5136 67.643 84.3671 68.3395C84.196 69.0289 84.1643 69.7459 84.2739 70.4479C84.376 71.071 84.6091 71.6649 84.9575 72.1898C85.3125 72.7121 85.7719 73.1539 86.3062 73.4868C86.8937 73.8548 87.5389 74.1196 88.2143 74.27C88.8923 74.4353 89.5931 74.4841 90.2871 74.4141C90.9126 74.3511 91.5181 74.1569 92.0647 73.8439C92.593 73.5338 93.0498 73.114 93.432 72.5814ZM86.1136 61.8765L86.5642 59.9185L88.379 60.3414L88.3884 60.3038C88.1349 60.1723 87.9099 59.9912 87.7264 59.7712C87.3047 59.2769 87.0253 58.6756 86.9184 58.0325C86.8664 57.7077 86.8769 57.3758 86.9495 57.0551C87.0058 56.7907 87.0848 56.5318 87.1857 56.2812L89.1839 56.7449C89.1257 56.8888 89.0708 57.034 89.0192 57.1804C88.967 57.3249 88.9234 57.4724 88.8887 57.6221C88.7147 58.3185 88.8658 59.0569 89.2989 59.6271C89.541 59.9424 89.8405 60.2082 90.1815 60.4103C90.5513 60.639 90.9957 60.8145 91.5177 60.9366L95.9865 61.9767L95.5079 64.0632L86.1136 61.8765ZM94.2866 55.1096C93.923 55.1315 93.5594 55.1033 93.199 55.0156L93.1958 55.0187L94.7901 48.0576C94.1064 47.8101 93.4165 47.6973 92.7142 47.7223C92.0423 47.7376 91.3801 47.8867 90.7657 48.1609C90.1649 48.4383 89.6314 48.8446 89.2025 49.3514C88.7449 49.8982 88.4279 50.5503 88.2796 51.2499C88.1211 51.9611 88.1056 52.6252 88.2454 53.2455C88.3758 53.8557 88.6309 54.4319 88.9943 54.9373C89.3676 55.449 89.8337 55.8849 90.3679 56.2217C91.5363 56.9344 92.8974 57.2587 94.2587 57.149C95.5073 57.0665 96.653 56.4223 97.3787 55.3947C97.7516 54.8777 98.0251 54.2449 98.196 53.4993C98.311 52.9855 98.3545 52.478 98.3234 51.9767C98.2586 50.456 97.3517 49.101 95.9772 48.4711L95.5266 50.4479C95.9609 50.7027 96.3036 51.0899 96.5055 51.5538C96.6841 52.0577 96.7026 52.6052 96.5583 53.1202C96.4793 53.5126 96.3136 53.882 96.0735 54.201C95.8608 54.4734 95.5899 54.694 95.2811 54.8464C94.9697 54.9983 94.6319 55.0877 94.2866 55.1096ZM92.6334 70.2631C92.8416 69.4473 92.6212 68.5808 92.0491 67.9667C91.7774 67.6679 91.4555 67.4197 91.0982 67.2336C90.3567 66.8403 89.5273 66.6461 88.6898 66.6697C88.2879 66.6775 87.8909 66.7592 87.5182 66.9109C86.7406 67.2133 86.1698 67.895 86.0048 68.7186C85.7945 69.5313 86.0101 70.396 86.5766 71.0118C86.8345 71.3063 87.1515 71.5475 87.5275 71.7449C88.2696 72.1366 89.0986 72.3307 89.936 72.3088C90.3386 72.2988 90.7362 72.2171 91.1106 72.0676C91.8911 71.7684 92.4656 71.0877 92.6334 70.2631ZM91.9559 49.8182C92.2861 49.7726 92.6211 49.7758 92.9503 49.8276L91.8347 54.7023C91.1816 54.5288 90.6117 54.1254 90.2281 53.5651C90.054 53.2988 89.9391 53.0012 89.8769 52.6722C89.7631 51.9838 89.9313 51.2784 90.343 50.7173C90.7407 50.2134 91.3211 49.8898 91.9559 49.8182Z" fill="white"/>
</svg>
