<svg width="120" height="120" viewBox="0 0 120 120" fill="none" xmlns="http://www.w3.org/2000/svg">
<circle cx="60" cy="60" r="60" fill="#EDF0F4"/>
<path d="M68.9946 23.1453C65.2414 22.2469 61.2725 22.0578 59.124 22.0105C58.134 21.9869 57.5429 22.0105 57.5429 22.0105H35.4139C28.0465 22.0105 22 28.0481 22 35.4629V58.6942C22 58.907 22 59.0961 22.0236 59.3118C22.0236 59.5246 22 59.7137 22 59.9265C22 80.8616 38.91 97.8189 59.786 97.8189C80.662 97.8189 97.572 80.8616 97.572 59.9265C97.5956 42.1654 85.4081 27.2679 68.9946 23.1453Z" fill="#4C66FF"/>
<path fill-rule="evenodd" clip-rule="evenodd" d="M46.0411 38.1846C46.0411 35.912 44.2 34.0649 41.9333 34.0649H41.9303C39.6636 34.0649 37.8225 35.909 37.8225 38.1846V51.0932C37.8233 52.1946 38.262 53.2506 39.042 54.0283C39.8219 54.8061 40.8791 55.2418 41.9806 55.2394C43.6955 55.2398 45.2339 54.1852 45.852 52.5856C48.9938 46.1563 56.1563 42.7451 63.1282 44.3575C70.1001 45.9699 75.0375 52.1795 75.0375 59.3354C75.0375 66.4913 70.1001 72.7009 63.1282 74.3133C56.1563 75.9257 48.9938 72.5145 45.852 66.0852C45.8376 66.051 45.8232 66.016 45.8086 65.9804C45.7513 65.8409 45.6909 65.694 45.6155 65.5621C44.9063 64.2855 43.538 63.4314 41.9806 63.4314C39.6873 63.4314 37.8225 65.2784 37.8225 67.5776C37.8405 68.4232 38.1033 69.2455 38.5791 69.9448C43.0151 78.7645 52.4698 83.8935 62.2818 82.803C72.0939 81.7125 80.1918 74.6328 82.5831 65.0543C84.9744 55.4759 81.1543 45.4208 73.0061 39.8465C64.8579 34.2722 54.102 34.3554 46.0411 40.0553V38.1846ZM66.0453 59.3324C66.0453 55.8305 63.2112 53.0082 59.7387 53.0082C56.2427 53.0082 53.4322 55.8541 53.4322 59.3324C53.4435 62.8136 56.2576 65.6356 59.7387 65.6567C63.2348 65.6567 66.0453 62.8167 66.0453 59.3324Z" fill="white"/>
</svg>
