<svg width="120" height="120" viewBox="0 0 120 120" fill="none" xmlns="http://www.w3.org/2000/svg">
<circle cx="60" cy="60" r="60" fill="#1B2B57"/>
<path d="M69.4417 65.7948L60.3839 71.0648L69.4417 54.1021V65.7948Z" fill="#DF3121"/>
<path d="M59.5605 74.688V53.7727L83.6048 37.7981L70.5946 21L96.1211 39.939L70.5946 63.8186V55.749L59.5605 74.688Z" fill="#EFBF43"/>
<path d="M59.5605 98.5678V79.1347L95.1329 44.3857L59.5605 98.5678Z" fill="#EFBF43"/>
<path d="M49.6793 65.7948L58.7371 71.0648L49.6793 54.1021V65.7948Z" fill="#DF3121"/>
<path d="M59.5605 74.688V53.7727L35.5162 37.7981L48.5265 21L23 39.939L48.5265 63.8186V55.749L59.5605 74.688Z" fill="#F8D749"/>
<path d="M59.5605 98.5678V79.1347L23.9882 44.3857L59.5605 98.5678Z" fill="#F8D749"/>
<path fill-rule="evenodd" clip-rule="evenodd" d="M63.3871 47.4759C65.4829 46.4033 65.6605 46.0387 64.8472 44.4738C64.0281 42.8977 61.3954 39.8637 60.3714 39.3156C59.6326 38.9204 59.5522 38.9571 58.1471 40.3333C56.4815 41.9653 54.4124 44.9136 54.4124 45.6556C54.4124 45.931 54.6518 46.3729 54.944 46.6377C56.9676 48.4687 60.7195 48.8414 63.3871 47.4759ZM53.5507 44.1483C53.5599 43.1937 54.5236 41.2246 56.1475 38.8417L57.5786 36.7421L56.5931 35.8772C54.6356 34.1584 53.8186 34.4081 52.6568 37.0795C51.8289 38.9826 51.7597 41.5403 52.4846 43.4249C53.0474 44.8876 53.5403 45.2221 53.5507 44.1483ZM67.1529 43.5696C68.0234 41.652 67.9246 38.704 66.9233 36.7265C65.6825 34.2756 65.0985 34.1685 62.9892 36.0042L62.1612 36.725L63.3506 38.4201C64.6802 40.316 66.2764 43.5192 66.2767 44.293C66.277 45.1127 66.5573 44.8815 67.1529 43.5696ZM61.1088 34.0993C61.8025 33.7845 62.6961 33.5189 63.094 33.509C63.8114 33.4911 63.8104 33.487 62.9491 33.0096C62.3555 32.6803 61.3944 32.5278 59.9106 32.5278C58.4271 32.5278 57.4656 32.6803 56.8721 33.0096C56.0075 33.4891 56.0068 33.4911 56.7275 33.5241C57.2815 33.5496 58.7054 34.0701 59.8068 34.6503C59.8289 34.6621 60.4152 34.4142 61.1088 34.0993Z" fill="#F5BB43"/>
</svg>
