<svg width="120" height="120" viewBox="0 0 120 120" fill="none" xmlns="http://www.w3.org/2000/svg">
<circle cx="60" cy="60" r="60" fill="#EDF0F4"/>
<path fill-rule="evenodd" clip-rule="evenodd" d="M67.9818 27.8957C62.706 26.7099 57.1572 26.6785 51.8911 27.9391C44.8871 29.5757 38.4431 33.4707 33.7054 38.8721C29.839 43.2492 27.0949 48.6097 25.8326 54.3123C24.7997 58.9039 24.7369 63.7075 25.5937 68.3303C26.7811 74.8695 29.9356 81.0107 34.4681 85.865C34.5268 85.8727 34.6166 85.8838 34.7046 85.8946L34.7059 85.8948L34.7071 85.8949L34.7099 85.8953C34.7864 85.9047 34.8611 85.9139 34.9122 85.9206C36.8816 86.1084 38.851 86.2508 40.8276 86.2773C42.7633 86.3206 44.694 86.1929 46.6249 86.0554C46.0794 84.8985 45.5701 83.7272 45.0874 82.5438C45.0657 82.4835 45.0175 82.3654 44.9933 82.3051C42.1213 82.5003 39.2347 82.4328 36.3675 82.187C34.053 79.4223 32.1125 76.3108 30.8841 72.9122C32.0957 70.2899 33.4641 67.7374 35.0618 65.3271C37.2701 68.0242 39.7223 70.519 42.3699 72.7894C43.9797 74.115 45.6232 75.4044 47.3729 76.5398C47.5153 76.6458 47.8001 76.8554 47.9425 76.9592C48.0537 78.2654 48.8596 79.49 50.0398 80.0781C51.0946 80.6372 52.3833 80.5986 53.4599 80.119C53.8362 80.2948 54.2128 80.4709 54.5894 80.654C56.3754 81.5121 58.2193 82.2568 60.0897 82.9174C63.3357 84.0598 66.6929 84.872 70.0912 85.4119C68.8313 87.8849 67.3687 90.2517 65.7613 92.5151L66.1765 92.4235C67.9866 92.0523 69.7605 91.5195 71.4838 90.8495C72.1943 89.6808 72.8294 88.4707 73.4644 87.2607C73.7094 86.7938 73.9544 86.327 74.2037 85.8626C76.9123 86.1014 79.6299 86.0423 82.3461 85.9832H82.3462H82.3462H82.3463H82.3463C83.3597 85.9612 84.373 85.9392 85.3855 85.9326C89.0854 82.1508 91.7932 77.4099 93.4006 72.3724L93.3138 72.1795C92.5317 70.3647 91.6629 68.5906 90.7434 66.8408C90.408 68.6944 89.9904 70.5405 89.3364 72.312C88.1054 75.8191 86.2108 79.0802 83.8311 81.9315C81.1571 82.1797 78.4708 82.24 75.7869 82.117C77.0468 78.8126 78.0122 75.3997 78.647 71.9217L78.6822 71.7057C78.8638 70.5919 79.0455 69.4775 79.1611 68.3568C79.272 67.4843 79.3373 66.6094 79.3953 65.7322L79.4065 65.5952L79.4304 65.2986L79.4306 65.296C79.4417 65.1578 79.4526 65.0227 79.4603 64.9294C80.7564 63.8376 81.2439 61.895 80.5078 60.3525C80.3945 60.0251 80.168 59.7602 79.9455 59.5C79.5895 59.0837 79.2438 58.6794 79.3879 58.0505C79.272 56.0453 78.9969 54.0544 78.6735 52.0756C78.0389 48.6456 77.1121 45.2738 75.8763 42.0128C78.6109 41.8994 81.3549 41.9404 84.075 42.2441C86.2326 44.9386 87.9824 47.9491 89.2035 51.179C89.9349 49.4893 90.5695 47.7636 91.1465 46.0136C89.7489 43.3213 88.0162 40.805 85.984 38.5492L85.7886 38.5371C85.4074 38.5023 85.0265 38.465 84.6456 38.4277C83.3673 38.3026 82.0895 38.1775 80.8046 38.1442C78.6277 38.0164 76.4459 38.1177 74.2737 38.2454C73.458 36.5799 72.6157 34.929 71.6527 33.3429C70.5763 31.5184 69.3624 29.783 68.1096 28.0765C68.076 28.0307 68.0131 27.9415 67.9818 27.8957ZM49.381 32.7331C51.1935 32.039 53.093 31.5907 55.002 31.2629C58.5619 30.7133 62.2088 30.735 65.7516 31.3906C67.4363 33.6924 68.899 36.146 70.1998 38.6817C66.8064 39.2457 63.4516 40.0676 60.1862 41.145C59.7802 41.3059 59.3726 41.4639 58.965 41.622C57.5531 42.1694 56.1397 42.7175 54.7801 43.389C54.6062 43.467 54.4334 43.5459 54.2608 43.6247L54.2596 43.6253C54.1449 43.6776 54.0304 43.7298 53.916 43.7817C52.2218 42.6634 49.7214 43.1841 48.6328 44.9001C48.1767 45.5606 47.9787 46.3631 47.974 47.1585C47.7109 47.3513 47.4455 47.537 47.1751 47.7154L47.1775 47.7563C45.8169 48.5824 44.5708 49.5787 43.3267 50.5732C42.9555 50.87 42.5844 51.1667 42.2106 51.4586C39.6498 53.7144 37.2219 56.1489 35.0642 58.805C33.452 56.3611 32.045 53.7845 30.8527 51.1139C32.0329 47.7876 33.884 44.6881 36.1575 41.9837C37.4101 40.4291 38.8775 39.0626 40.4029 37.7803C43.1108 35.6496 46.1276 33.8876 49.381 32.7331ZM66.1476 43.442C64.2119 43.9095 62.3053 44.4952 60.442 45.1918L60.5193 45.2232C59.3387 45.5441 58.2118 46.0594 57.0883 46.5731L57.0883 46.5731C56.634 46.7808 56.1802 46.9883 55.7237 47.1826C55.591 48.2624 55.1396 49.3424 54.2563 50.0221C53.0954 50.9956 51.3673 51.1428 50.0327 50.4413C48.4471 51.5043 46.8733 52.5985 45.435 53.8592C43.789 55.1583 42.2661 56.6116 40.8156 58.1229C39.6064 59.3738 38.4865 60.7067 37.4053 62.0661C38.5927 63.5606 39.8261 65.021 41.1752 66.3733L41.1679 66.4045C42.6136 67.8266 44.0738 69.2414 45.6739 70.4925C46.9386 71.5505 48.2829 72.5074 49.6417 73.4353C50.8436 72.6399 52.4824 72.5869 53.7229 73.3244C54.9852 74.0332 55.7019 75.4768 55.6584 76.9036C57.2007 77.6316 58.7551 78.3354 60.3599 78.9115C62.2521 79.6248 64.1901 80.2177 66.1547 80.6975C68.0036 81.1555 69.8811 81.4832 71.7662 81.7531C72.5021 79.9357 73.1635 78.087 73.6849 76.1951L73.7114 76.183C74.2375 74.2019 74.7058 72.2037 75.0195 70.1766C75.2705 68.6365 75.425 67.0842 75.5553 65.5273C74.5561 65.091 73.7234 64.2618 73.3686 63.223C72.6542 61.3502 73.6993 59.1014 75.5506 58.3711C75.4297 56.79 75.2729 55.2113 75.0051 53.6494C74.7058 51.6247 74.2278 49.6315 73.692 47.66C73.1635 45.8691 72.5577 44.1049 71.8675 42.3717C69.944 42.6345 68.0301 42.9672 66.1476 43.442ZM29.325 67.3977C28.7312 63.8691 28.7361 60.2536 29.3057 56.7226C30.329 58.5495 31.4271 60.3307 32.6049 62.0637C31.4416 63.799 30.3193 65.5609 29.325 67.3977Z" fill="#874FA9"/>
<path opacity="0.19" d="M68.1098 28.0764C68.467 27.939 68.8242 28.1342 69.1717 28.2065C72.0775 29.026 74.9398 30.1323 77.5031 31.74C76.5786 32.774 75.2826 33.3646 74.2857 34.3213C73.4315 33.943 72.6157 33.3525 71.6527 33.3428C70.5763 31.5182 69.3624 29.7828 68.1098 28.0764Z" fill="#874FA9"/>
<path opacity="0.2" d="M49.381 32.7332C51.1935 32.0391 53.093 31.5907 55.002 31.2629C53.4116 33.6153 51.8139 35.9871 50.612 38.5684C53.5129 39.0336 56.3754 39.7253 59.1653 40.6485C59.5298 40.7594 59.8652 40.9378 60.1862 41.1451C58.3738 41.8633 56.5322 42.5236 54.7801 43.389C52.8564 42.8757 50.8966 42.478 48.92 42.2345C48.2273 43.9095 47.5879 45.6184 47.1366 47.3731L47.1751 47.7155L47.1775 47.7564C45.4108 48.829 43.8373 50.1885 42.2106 51.4587C42.674 48.1444 43.8228 44.9798 44.8437 41.8103C41.9475 41.6367 39.0441 41.7091 36.1575 41.9838C37.4101 40.4292 38.8775 39.0626 40.4029 37.7804C42.4326 37.9008 44.472 37.8719 46.5018 38.0359C47.4309 36.2523 48.365 34.471 49.381 32.7332Z" fill="#874FA9"/>
<path opacity="0.16" d="M77.5031 31.7401L77.544 31.6919C80.3703 33.3501 82.9648 35.4013 85.2334 37.7633C85.4434 37.9997 85.7112 38.214 85.7886 38.537C84.128 38.3853 82.4723 38.1875 80.8046 38.1442C79.8972 38.1345 79.2093 37.5222 78.5408 36.9921C77.2086 35.9726 75.746 35.141 74.2857 34.3215C75.2826 33.3645 76.5786 32.7741 77.5031 31.7401Z" fill="#874FA9"/>
<path opacity="0.16" d="M60.442 45.1917C62.3053 44.4952 64.2119 43.9094 66.1476 43.4419C67.8612 44.3506 69.5892 45.2399 71.2183 46.3005C70.2336 47.2717 68.9666 47.8767 67.9527 48.8168C65.5877 47.4044 63.0703 46.2643 60.5193 45.2231L60.442 45.1917Z" fill="#874FA9"/>
<path opacity="0.16" d="M40.8156 58.1228C42.2661 56.6115 43.789 55.1582 45.435 53.8589C45.6498 54.5315 45.4881 55.2304 45.4036 55.9101C44.8099 60.7548 44.9789 65.6694 45.6739 70.4921C44.0738 69.2413 42.6136 67.8265 41.168 66.4044L41.1752 66.373C41.3514 65.9078 41.2741 65.4089 41.2597 64.927C41.1173 62.6347 41.1535 60.3354 41.279 58.0407C41.1631 58.0625 40.9314 58.1034 40.8156 58.1228V58.1228Z" fill="#874FA9"/>
<path opacity="0.07" d="M89.2037 51.179C89.9349 49.4893 90.5695 47.7635 91.1465 46.0137C92.8939 49.3327 94.0161 52.9747 94.5737 56.6791C94.4722 57.1203 94.5881 57.7468 94.1006 57.9855C93.0966 58.6363 92.1842 59.4485 91.0788 59.9281C90.9726 59.0002 90.9388 58.0506 90.654 57.1515C89.8866 58.1324 89.3846 59.287 88.6726 60.3043C88.3299 60.9092 87.7169 61.4562 87.7964 62.2107C87.2003 63.1267 86.2108 63.611 85.2864 64.1244C83.7031 65.3705 81.9751 66.424 80.4354 67.7254C80.0467 68.0001 79.5954 68.1664 79.1611 68.3569C79.272 67.4843 79.3373 66.6094 79.3953 65.7322C80.7973 64.7175 81.893 63.3001 82.8198 61.8565C82.1031 60.8368 81.1883 59.9764 80.4595 58.964C81.3572 58.0529 82.7306 57.6481 83.3171 56.4477C83.9976 57.1057 84.5746 57.8578 85.1707 58.5905C86.7852 56.279 88.0017 53.7218 89.2037 51.179Z" fill="#874FA9"/>
<path opacity="0.07" d="M48.3047 80.1021C48.5654 80.6805 48.7052 81.3337 49.13 81.8206C50.9763 81.5845 52.8179 81.2398 54.5894 80.654C56.3754 81.5121 58.2193 82.2569 60.0897 82.9172C59.8629 83.0811 59.619 83.2112 59.356 83.3054C56.5949 84.2645 53.7471 84.9563 50.8725 85.4867C50.8292 86.3519 51.6425 87.0219 51.8837 87.8414C50.8581 88.5573 49.7165 89.119 48.8476 90.0395C47.9619 88.796 47.3609 87.386 46.6249 86.0554C46.0794 84.8985 45.5701 83.7272 45.0875 82.5436C46.0891 81.6301 47.4285 81.1553 48.3047 80.1021V80.1021Z" fill="#874FA9"/>
<path opacity="0.14" d="M71.2184 46.3003C72.0799 46.6812 72.7363 47.5345 73.6922 47.6597C74.228 49.6314 74.7058 51.6246 75.0051 53.6493C72.7171 51.9475 70.4243 50.2484 67.9528 48.8168C68.9666 47.8766 70.2336 47.2717 71.2184 46.3003V46.3003Z" fill="#874FA9"/>
<path opacity="0.1" d="M78.6736 52.0754C79.0887 52.2562 79.4916 52.4781 79.8126 52.8058C81.0145 53.9868 82.2382 55.151 83.3171 56.4477C82.7307 57.6481 81.3573 58.053 80.4595 58.964C80.1433 58.6146 79.7716 58.3182 79.3879 58.0506C79.272 56.0453 78.9969 54.0544 78.6736 52.0754Z" fill="#874FA9"/>
<path opacity="0.04" d="M94.5737 56.679C95.1021 59.1302 95.0297 61.6948 94.9283 64.199C94.6099 66.8889 94.3033 69.6414 93.3138 72.1794C92.5317 70.3646 91.6629 68.5905 90.7434 66.8407C90.408 68.6941 89.9905 70.5404 89.3364 72.3119C88.3661 70.9937 87.8135 69.4341 87 68.0241C87.9944 67.2746 89.0563 66.5996 90.1449 66.0044C90.2847 66.1007 90.5648 66.2935 90.7023 66.39C91.1801 64.2882 91.0715 62.0804 91.0788 59.928C92.1842 59.4484 93.0964 58.6362 94.1006 57.9854C94.5881 57.7467 94.4722 57.1202 94.5737 56.679V56.679Z" fill="#874FA9"/>
<path opacity="0.05" d="M87.7964 62.2107C88.7644 63.3484 89.4859 64.6716 90.1449 66.0045C89.0563 66.5998 87.9944 67.2748 87 68.0243C86.4497 67.1349 85.9622 66.1974 85.284 65.3972C84.1497 66.1685 83.5054 67.4411 82.4965 68.3522C81.2077 69.5356 80.1482 70.9962 78.647 71.9217C78.8401 70.736 79.0378 69.55 79.1611 68.3569C79.5954 68.1664 80.0467 68.0001 80.4354 67.7254C81.9751 66.424 83.7031 65.3705 85.2864 64.1244C86.2108 63.611 87.2003 63.1267 87.7964 62.2107V62.2107Z" fill="#874FA9"/>
<path opacity="0.05" d="M51.8838 87.8413C52.4486 88.5428 52.8058 89.3841 53.3222 90.1191C53.8268 90.9483 54.4638 91.6978 54.879 92.5777C52.7237 92.6331 50.5661 92.5704 48.4109 92.6283C47.3344 92.6089 46.2507 92.7126 45.1815 92.5439C45.546 92.3752 45.867 92.1294 46.1421 91.8377C46.6055 91.3146 47.4574 91.2568 47.7398 90.5601C48.1888 90.7385 48.6522 90.8686 49.1277 90.9555C49.0456 90.6469 48.9588 90.3384 48.8476 90.0396C49.7165 89.1188 50.8581 88.5572 51.8838 87.8413V87.8413Z" fill="#874FA9"/>
<path opacity="0.06" d="M64.5691 76.9662C68.3438 75.1874 71.7783 72.7844 75.0195 70.1765C74.7056 72.2036 74.2375 74.2017 73.7114 76.1829L73.6849 76.195C72.3406 76.7637 71.252 77.764 69.9753 78.451C68.7324 79.2535 67.3131 79.7742 66.1547 80.6974C64.1901 80.2176 62.2521 79.6247 60.3599 78.9112C61.7501 78.2341 63.2175 77.7207 64.5691 76.9662Z" fill="#874FA9"/>
<path opacity="0.11" d="M42.3699 72.7896C43.9797 74.1151 45.6233 75.4045 47.3731 76.5399C47.2717 76.7904 47.262 77.0412 47.3417 77.2943C47.6289 78.2414 47.9522 79.1766 48.3047 80.1021C47.4285 81.1554 46.0891 81.6302 45.0875 82.5439C45.0657 82.4836 45.0175 82.3655 44.9933 82.3052C43.9676 79.5887 43.0746 76.8169 42.4495 73.9801C42.3771 73.5873 42.3771 73.1847 42.3699 72.7896V72.7896Z" fill="#874FA9"/>
<path opacity="0.08" d="M34.9122 85.9207C36.8816 86.1085 38.851 86.2507 40.8276 86.2774C41.7713 87.2824 42.9925 87.9524 44.1462 88.6851C45.2877 89.4107 46.5065 90.0084 47.7398 90.5603C47.4574 91.257 46.6055 91.3148 46.1421 91.8378C45.867 92.1295 45.546 92.3754 45.1815 92.544C44.2934 92.5947 43.3039 92.756 42.5243 92.2185C39.7778 90.6351 37.1881 88.7261 35.0159 86.4123C34.9894 86.2893 34.9387 86.0435 34.9122 85.9207Z" fill="#874FA9"/>
</svg>
