<svg width="120" height="120" viewBox="0 0 120 120" fill="none" xmlns="http://www.w3.org/2000/svg">
<circle cx="60" cy="60" r="60" fill="#EDF0F4"/>
<g opacity="0.8">
<path fill-rule="evenodd" clip-rule="evenodd" d="M68.2884 54.8354L49.2407 35.7877L38.6221 38.6297L52.131 25L68.2884 54.8354ZM51.712 65.1646L70.7597 84.2123L81.3703 81.3703L67.8694 95L51.712 65.1646ZM35.7877 70.7597L48.0006 44.8688L29.3071 63.5704L25 67.8694L38.6297 81.3703L35.7877 70.7597ZM65.165 68.2879L84.2208 49.2322L81.3707 38.6216L95.0004 52.1305L65.165 68.2879Z" fill="#040000"/>
</g>
<g opacity="0.8">
<path fill-rule="evenodd" clip-rule="evenodd" d="M56.43 29.3071L75.1235 47.9925L68.2884 54.8354L52.131 25L56.43 29.3071ZM67.8695 95L44.877 71.9994L51.7121 65.1646L67.8695 95ZM54.8358 51.712L48.001 44.8688L35.7881 70.7597L54.8358 51.712ZM95.0004 52.1306L71.9998 75.1231L65.165 68.288L95.0004 52.1306Z" fill="#323333"/>
</g>
<g opacity="0.8">
<path fill-rule="evenodd" clip-rule="evenodd" d="M67.8691 25L89.2678 30.7319L74.1408 36.6896L67.8691 25ZM25 52.1306L30.74 30.7319L36.6896 45.8512L25 52.1306ZM95 67.8694L89.2681 89.2681L83.3107 74.141L95 67.8694ZM30.74 89.26L52.1306 95L45.8593 83.3027L30.74 89.26Z" fill="#555555"/>
</g>
<g opacity="0.8">
<path fill-rule="evenodd" clip-rule="evenodd" d="M52.1306 25L38.6216 38.6297L36.6896 45.8512L30.74 30.7319L52.1306 25ZM67.8691 95.0001L81.37 81.3704L83.3104 74.1411L89.2678 89.2681L67.8691 95.0001ZM38.6297 81.3703L25 67.8694L30.74 89.26L45.8593 83.3027L38.6297 81.3703ZM94.9996 52.1306L81.3699 38.6216L74.1406 36.6896L89.2676 30.7319L94.9996 52.1306Z" fill="#323333"/>
</g>
<g opacity="0.8">
<path fill-rule="evenodd" clip-rule="evenodd" d="M65.165 27.7132L67.8698 25L74.1415 36.6896L65.165 27.7132ZM25 52.1306L36.6896 45.8512L27.7132 54.8354L25 52.1306ZM95 67.8694L83.3107 74.1411L92.2868 65.1646L95 67.8694ZM52.1306 95L54.8354 92.2868L45.8593 83.3027L52.1306 95Z" fill="#040000"/>
</g>
</svg>
