<svg width="120" height="120" viewBox="0 0 120 120" fill="none" xmlns="http://www.w3.org/2000/svg">
<circle cx="60" cy="60" r="60" fill="#EDF0F4"/>
<path d="M41.9315 59.6948C41.7608 62.66 44.0434 65.1985 47.0086 65.3692C47.1152 65.3692 47.2219 65.3692 47.3286 65.3692C50.3151 65.3692 52.7256 62.9586 52.7043 59.9721C52.7043 56.9856 50.2938 54.575 47.3072 54.5963C44.4487 54.5963 42.0808 56.8362 41.9315 59.6948Z" fill="#0033AD"/>
<path d="M21.8364 58.308C20.8764 58.244 20.0445 58.9907 20.0018 59.9506C19.9591 60.9106 20.6844 61.7425 21.6444 61.7852C22.6043 61.8492 23.415 61.1026 23.479 60.1426C23.543 59.1827 22.7963 58.372 21.8364 58.308Z" fill="#0033AD"/>
<path d="M41.5902 28.4217C42.4435 27.9951 42.7848 26.9285 42.3581 26.0752C41.9315 25.2219 40.8649 24.8806 40.0116 25.3072C39.1583 25.7339 38.817 26.7791 39.2436 27.6324C39.6703 28.5071 40.7155 28.8697 41.5902 28.4217C41.5902 28.4217 41.5688 28.4217 41.5902 28.4217Z" fill="#0033AD"/>
<path d="M47.0512 37.9571C48.3738 37.2958 48.9071 35.6746 48.2458 34.352C47.5845 33.0294 45.9633 32.4961 44.6407 33.1574C43.3181 33.8187 42.7848 35.4399 43.4461 36.7625C44.1074 38.0851 45.7286 38.6184 47.0512 37.9571Z" fill="#0033AD"/>
<path d="M28.6627 44.5062C29.6867 45.1675 31.052 44.8902 31.7346 43.8662C32.3959 42.8423 32.1186 41.477 31.0946 40.7944C30.0707 40.1331 28.7054 40.4104 28.0228 41.4343C27.3401 42.4583 27.6388 43.8449 28.6627 44.5062Z" fill="#0033AD"/>
<path d="M31.9266 57.3483C30.4333 57.2629 29.1747 58.3936 29.0894 59.8868C29.004 61.3801 30.1347 62.6387 31.6279 62.724C33.1212 62.8094 34.3798 61.6788 34.4651 60.1855C34.5505 58.7136 33.4198 57.4336 31.9266 57.3483Z" fill="#0033AD"/>
<path d="M28.9614 75.4167C27.8734 75.9713 27.4255 77.2939 27.9801 78.4032C28.5347 79.4911 29.8574 79.9391 30.9666 79.3845C32.0546 78.8298 32.5026 77.5072 31.9479 76.3979C31.3933 75.31 30.0493 74.862 28.9614 75.4167Z" fill="#0033AD"/>
<path d="M39.4142 51.7807C40.8862 52.7406 42.8488 52.3353 43.7874 50.8634C44.7473 49.3914 44.342 47.4289 42.8701 46.4902C41.3981 45.5303 39.4356 45.9356 38.4969 47.4075C37.537 48.8581 37.9423 50.8207 39.4142 51.7807Z" fill="#0033AD"/>
<path d="M72.5861 37.744C73.8234 38.5547 75.5087 38.2134 76.3193 36.9761C77.1299 35.7388 76.7886 34.0535 75.5513 33.2429C74.3141 32.4323 72.6288 32.7736 71.8182 34.0109C70.9862 35.2695 71.3275 36.9334 72.5861 37.744Z" fill="#0033AD"/>
<path d="M78.0899 28.251C78.9005 28.7843 79.9671 28.5496 80.5004 27.739C81.0337 26.9284 80.7991 25.8617 79.9884 25.3284C79.1778 24.7951 78.1112 25.0298 77.5779 25.8191C77.0659 26.6297 77.3006 27.7177 78.0899 28.251Z" fill="#0033AD"/>
<path d="M72.9914 54.5539C70.0262 54.3832 67.4664 56.6658 67.317 59.631C67.1464 62.5962 69.4289 65.1561 72.3941 65.3054C72.5008 65.3054 72.6075 65.3054 72.6928 65.3054C75.658 65.3054 78.0685 62.8949 78.0685 59.9083C78.0899 57.0711 75.85 54.7032 72.9914 54.5539Z" fill="#0033AD"/>
<path d="M48.8218 51.3964C49.7391 53.2096 51.5951 54.3616 53.643 54.3616C56.6082 54.3616 59.0187 51.951 59.0187 48.9645C59.0187 48.1325 58.8267 47.3006 58.4428 46.5326C57.0988 43.8661 53.8563 42.7994 51.2111 44.1434C48.5445 45.5087 47.4779 48.7512 48.8218 51.3964Z" fill="#0033AD"/>
<path d="M91.0386 44.5063C92.1266 43.9516 92.5532 42.6077 91.9986 41.5197C91.4439 40.4318 90.1 40.0051 89.0121 40.5598C87.9241 41.1144 87.4975 42.437 88.0308 43.525C88.6067 44.6129 89.9293 45.0609 91.0386 44.5063Z" fill="#0033AD"/>
<path d="M77.3859 46.213C75.8287 47.0023 75.1887 48.9009 75.978 50.4581C76.7673 52.0154 78.6659 52.6554 80.2231 51.8661C81.7804 51.0768 82.4204 49.1782 81.6311 47.6209C80.8418 46.0637 78.9432 45.445 77.3859 46.213Z" fill="#0033AD"/>
<path d="M59.7867 27.4403C61.0026 27.5043 62.0479 26.5657 62.1332 25.3497C62.2185 24.1338 61.2586 23.0885 60.0426 23.0032C58.8267 22.9392 57.7814 23.8564 57.6961 25.0724C57.6321 26.3097 58.5707 27.355 59.7867 27.4403Z" fill="#0033AD"/>
<path d="M59.7653 41.3701C61.5146 41.4768 63.0079 40.1328 63.0932 38.3836C63.1999 36.6343 61.8559 35.1411 60.1067 35.0557C58.3574 34.9491 56.8641 36.293 56.7788 38.0423C56.6935 39.7915 58.0161 41.2848 59.7653 41.3701Z" fill="#0033AD"/>
<path d="M42.6141 73.7104C44.1714 72.9211 44.8114 71.0225 44.0221 69.4653C43.2328 67.908 41.3342 67.268 39.7769 68.0573C38.2196 68.8466 37.5797 70.7452 38.369 72.3025C39.1583 73.8597 41.0569 74.4997 42.6141 73.7104Z" fill="#0033AD"/>
<path d="M61.8133 45.9993C60.192 48.4952 60.8746 51.823 63.3705 53.4443C65.8664 55.0655 69.1943 54.3829 70.8155 51.887C72.4368 49.3911 71.7542 46.0633 69.2583 44.442C68.3836 43.866 67.3597 43.5674 66.3144 43.5674C64.5012 43.5674 62.8159 44.4847 61.8133 45.9993Z" fill="#0033AD"/>
<path d="M71.1782 68.5263C69.8342 65.8597 66.5917 64.7931 63.9465 66.137C61.2799 67.481 60.2133 70.7235 61.5573 73.3687C62.9012 76.0353 66.1437 77.1019 68.7889 75.7579C71.4342 74.4353 72.5221 71.2355 71.1995 68.5689C71.1995 68.5476 71.1995 68.5476 71.1782 68.5263Z" fill="#0033AD"/>
<path d="M80.5857 68.1426C79.1138 67.1826 77.1512 67.5879 76.2126 69.0599C75.2526 70.5318 75.6579 72.4944 77.1299 73.433C78.6018 74.393 80.5644 73.9876 81.503 72.5157C82.463 71.0651 82.0577 69.1025 80.5857 68.1426Z" fill="#0033AD"/>
<path d="M90.9106 60.0576C90.996 58.5643 89.8653 57.3057 88.3721 57.2203C86.8788 57.135 85.6202 58.2656 85.5349 59.7589C85.4495 61.2522 86.5801 62.5108 88.0734 62.5961C89.5454 62.6814 90.8253 61.5295 90.9106 60.0576Z" fill="#0033AD"/>
<path d="M98.3556 58.1376C97.3956 58.0736 96.5637 58.8203 96.521 59.7802C96.4784 60.7402 97.2037 61.5721 98.1636 61.6148C99.1236 61.6788 99.9342 60.9322 99.9982 59.9722C100.041 59.0122 99.3156 58.2016 98.3556 58.1376Z" fill="#0033AD"/>
<path d="M91.3373 75.4169C90.3133 74.7556 88.9481 75.0329 88.2654 76.0569C87.6041 77.0808 87.8814 78.4461 88.9054 79.1287C89.9294 79.7901 91.2946 79.5127 91.9773 78.4888C92.6599 77.4648 92.3612 76.0782 91.3373 75.4169Z" fill="#0033AD"/>
<path d="M41.8888 91.6722C41.0782 91.1389 40.0116 91.3735 39.4783 92.1628C38.945 92.9735 39.1796 94.0401 39.9689 94.5734C40.7795 95.1067 41.8462 94.872 42.3795 94.0827C42.9341 93.2934 42.6995 92.2055 41.8888 91.6722Z" fill="#0033AD"/>
<path d="M78.4098 91.5016C77.5565 91.9282 77.2152 92.9949 77.6419 93.8482C78.0685 94.7015 79.1351 95.0428 79.9884 94.6161C80.8417 94.1895 81.183 93.1442 80.7564 92.2909C80.3297 91.4163 79.2845 91.0536 78.4098 91.5016C78.4312 91.5016 78.4098 91.5016 78.4098 91.5016Z" fill="#0033AD"/>
<path d="M58.1867 73.9238C59.808 71.4279 59.1254 68.1 56.6295 66.4574C54.1336 64.8362 50.8057 65.5188 49.1631 68.0147C47.5205 70.5106 48.2245 73.8384 50.7204 75.481C51.595 76.057 52.619 76.3557 53.6643 76.3557C55.4989 76.377 57.1841 75.4597 58.1867 73.9238Z" fill="#0033AD"/>
<path d="M47.4139 82.179C46.1766 81.3683 44.4914 81.7096 43.6807 82.9469C42.8701 84.1842 43.2114 85.8695 44.4487 86.6801C45.686 87.4907 47.3712 87.1494 48.1819 85.9121C49.0138 84.6748 48.6725 82.9896 47.4139 82.179Z" fill="#0033AD"/>
<path d="M59.9787 92.4826C58.7627 92.4186 57.7174 93.3572 57.6321 94.5732C57.5468 95.7891 58.5067 96.8344 59.7227 96.9197C60.9386 96.9837 61.9839 96.0664 62.0692 94.8505C62.1332 93.6132 61.1946 92.5679 59.9787 92.4826Z" fill="#0033AD"/>
<path d="M60 78.5528C58.2507 78.4461 56.7575 79.7901 56.6721 81.5393C56.5655 83.2886 57.9094 84.7819 59.6587 84.8672C61.4079 84.9525 62.9012 83.6299 62.9865 81.8807C63.0932 80.1527 61.7492 78.6381 60 78.5528Z" fill="#0033AD"/>
<path d="M72.9488 81.966C71.6262 82.6487 71.0928 84.2699 71.7755 85.5925C72.4581 86.9152 74.0794 87.4485 75.402 86.7658C76.7246 86.1045 77.2579 84.4833 76.5966 83.1607C75.914 81.838 74.2927 81.2834 72.9488 81.966Z" fill="#0033AD"/>
</svg>
