<svg width="120" height="120" viewBox="0 0 120 120" fill="none" xmlns="http://www.w3.org/2000/svg">
<circle cx="60" cy="60" r="60" fill="#EDF0F4"/>
<path fill-rule="evenodd" clip-rule="evenodd" d="M94.1679 37.0548C94.6751 36.8181 95.2161 37.3929 94.9118 37.9339L90.1779 46.0491C88.6225 48.6866 85.7822 50.3772 82.6714 50.3772H46.0177C44.8004 50.3772 43.5831 50.4787 42.4334 50.783C41.9262 50.8844 41.5543 50.3772 41.791 49.9038L44.5637 45.2376C46.7616 41.3829 50.853 39.0159 55.3163 39.0159H79.1886C82.9081 38.9483 90.2456 38.6778 94.1679 37.0548ZM85.2745 54.6714C85.7479 54.6714 86.0184 55.1786 85.7817 55.5843L81.9608 62.1441C80.4054 64.7816 77.5651 66.4723 74.4543 66.4723H37.8006C36.5833 66.4723 35.366 66.5737 34.2163 66.878H34.1149C33.6415 66.878 33.371 66.3708 33.6077 65.9651L38.2401 57.9513C39.2883 56.1592 41.1819 55.0771 43.2783 55.0771H81.6227C82.84 55.0771 84.0573 54.9757 85.2069 54.6714H85.2745ZM77.126 71.612C77.3289 71.1386 76.9231 70.6314 76.4159 70.7329C75.3339 71.0372 74.218 71.2739 73.0346 71.2739H34.5211C32.4247 71.2739 30.5311 72.3559 29.4829 74.148L25.0872 81.6884C24.8505 82.0942 25.121 82.6014 25.5944 82.6014L63.8711 82.4999C68.1654 82.4999 72.1554 80.2006 74.2857 76.515L77.126 71.612Z" fill="#35C480"/>
</svg>
