<svg width="120" height="120" viewBox="0 0 120 120" fill="none" xmlns="http://www.w3.org/2000/svg">
<path fill-rule="evenodd" clip-rule="evenodd" d="M60 0C26.88 0 0 26.88 0 60C0 93.12 26.88 120 60 120C93.12 120 120 93.12 120 60C120 26.88 93.12 0 60 0Z" fill="black"/>
<path d="M40.1979 48.3012L61.4277 25L70.1693 48.3643" stroke="white" stroke-width="2" stroke-linecap="round" stroke-linejoin="round"/>
<path d="M69.8727 81.6008L57.4694 95.1565L48.7278 71.771" stroke="white" stroke-width="2" stroke-linecap="round" stroke-linejoin="round"/>
<path d="M78.8899 71.771L69.8731 81.6008" stroke="white" stroke-width="2"/>
<path d="M70.1263 48.3643H85.366L94.1077 71.7707H63.9247L55.183 48.3643H25L33.7416 71.7707H48.7273" stroke="white" stroke-width="2" stroke-linecap="round" stroke-linejoin="round"/>
<path d="M70.1487 48.3643L48.7073 71.7707" stroke="white" stroke-width="2"/>
</svg>
