<svg width="16" height="16" viewBox="0 0 16 16" fill="none" xmlns="http://www.w3.org/2000/svg">
<path d="M6.00004 14.6666H10C13.3334 14.6666 14.6667 13.3333 14.6667 9.99992V5.99992C14.6667 2.66659 13.3334 1.33325 10 1.33325H6.00004C2.66671 1.33325 1.33337 2.66659 1.33337 5.99992V9.99992C1.33337 13.3333 2.66671 14.6666 6.00004 14.6666Z" stroke="CurrentColor" stroke-linecap="round" stroke-linejoin="round"/>
<path d="M10.3333 12.3334C11.0667 12.3334 11.6667 11.7334 11.6667 11.0001V5.00008C11.6667 4.26675 11.0667 3.66675 10.3333 3.66675C9.6 3.66675 9 4.26675 9 5.00008V11.0001C9 11.7334 9.59333 12.3334 10.3333 12.3334Z" stroke="CurrentColor" stroke-linecap="round" stroke-linejoin="round"/>
<path d="M5.66671 12.3333C6.40004 12.3333 7.00004 11.7333 7.00004 10.9999V8.66659C7.00004 7.93325 6.40004 7.33325 5.66671 7.33325C4.93337 7.33325 4.33337 7.93325 4.33337 8.66659V10.9999C4.33337 11.7333 4.92671 12.3333 5.66671 12.3333Z" stroke="CurrentColor" stroke-linecap="round" stroke-linejoin="round"/>
</svg>
