<svg width="120" height="120" viewBox="0 0 120 120" fill="none" xmlns="http://www.w3.org/2000/svg">
<circle cx="60" cy="60" r="60" fill="#000D17"/>
<path d="M71.5399 68.2965C69.3413 72.4636 64.984 75.3058 59.9592 75.3058C52.7244 75.3058 46.8596 69.4179 46.8596 62.1548C46.8596 54.8918 52.7244 49.0039 59.9592 49.0039C64.984 49.0039 69.3413 51.8462 71.5399 56.0133H85.177C82.441 44.5643 72.2043 36.0439 59.9592 36.0439C45.6221 36.0439 34 47.7118 34 62.1038C34 76.4966 45.6221 88.1633 59.9592 88.1633C72.1671 88.1633 82.3786 79.6936 85.1512 68.2965H71.5399Z" fill="#FFB0C2"/>
<path d="M80.4833 46.2124C83.411 43.815 85.2808 40.1642 85.2808 36.0755C85.2808 28.8539 79.4493 23 72.2559 23C65.0619 23 59.2305 28.8539 59.2305 36.0755V36.0854C59.4723 36.0788 59.7144 36.075 59.9578 36.075C68.3186 36.075 75.7432 40.0477 80.4833 46.2124Z" fill="#CC91F0"/>
<path d="M72.2647 49.1657C75.3855 49.1651 78.2498 48.0638 80.4927 46.2265C75.7535 40.0622 68.3292 36.0902 59.9678 36.0913C59.7246 36.091 59.4825 36.0947 59.2412 36.1015C59.2454 43.3184 65.0746 49.1663 72.2647 49.1657Z" fill="#CC66B8"/>
</svg>
