<svg width="14" height="14" viewBox="0 0 14 14" fill="none" xmlns="http://www.w3.org/2000/svg">
<path d="M1.53033 0.469668C1.23744 0.176777 0.762558 0.176777 0.469668 0.469668C0.176777 0.762558 0.176777 1.23744 0.469668 1.53033L5.9393 7L0.469668 12.4697C0.176777 12.7626 0.176777 13.2374 0.469668 13.5303C0.762558 13.8232 1.23744 13.8232 1.53033 13.5303L7 8.0607L12.4697 13.5303C12.7626 13.8232 13.2374 13.8232 13.5303 13.5303C13.8232 13.2374 13.8232 12.7626 13.5303 12.4697L8.0607 7L13.5303 1.53033C13.8232 1.23744 13.8232 0.762558 13.5303 0.469668C13.2374 0.176777 12.7626 0.176777 12.4697 0.469668L7 5.9393L1.53033 0.469668Z" fill="CurrentColor"/>
</svg>
