<svg width="120" height="120" viewBox="0 0 120 120" fill="none" xmlns="http://www.w3.org/2000/svg">
<path d="M60 120C93.138 120 120 93.138 120 60C120 26.862 93.138 0 60 0C26.862 0 0 26.862 0 60C0 93.138 26.862 120 60 120Z" fill="#EDF0F4"/>
<path d="M60.5 15C85.5459 15 106 35.2711 106 60.124C106 84.9769 85.5459 105.248 60.5 105.248C35.315 105.248 15 85.1157 15 60.124C15 35.1322 35.315 15 60.5 15Z" fill="#32407B"/>
<path d="M60.5 21.7686C81.8931 21.7686 99.2314 38.8927 99.2314 60.0543C99.2314 81.2159 81.7533 98.4793 60.5 98.4793C39.1068 98.4793 21.7686 81.2159 21.7686 60.0543C21.7686 38.8927 39.1068 21.7686 60.5 21.7686Z" fill="#32407B"/>
<path fill-rule="evenodd" clip-rule="evenodd" d="M21.0166 60.124C21.0166 81.6958 38.7353 99.2315 60.5001 99.2315C82.1253 99.2315 99.9835 81.6958 99.9835 60.124C99.9835 38.5523 82.2648 21.0166 60.5001 21.0166C38.7353 21.0166 21.0166 38.5523 21.0166 60.124ZM22.8303 60.124C22.8303 39.5265 39.712 22.6867 60.5001 22.6867C81.2882 22.6867 98.1698 39.5265 98.1698 60.124C98.1698 80.7215 81.2882 97.5614 60.5001 97.5614C39.712 97.5614 22.8303 80.7215 22.8303 60.124Z" fill="white"/>
<path fill-rule="evenodd" clip-rule="evenodd" d="M43.6647 75.1652H77.1955C77.7544 75.1652 78.0338 74.7528 78.1735 74.3403V45.4707C78.1735 40.6591 74.1219 36.8098 69.232 36.8098H51.768C46.7383 36.8098 42.8264 40.6591 42.8264 45.4707V74.3403C42.8264 74.7528 43.2456 75.1652 43.6647 75.1652ZM76.3573 73.5155H44.6427V45.6082C44.6427 41.7589 47.856 38.597 51.768 38.597H69.232C73.1439 38.597 76.3573 41.7589 76.3573 45.6082V73.5155Z" fill="white"/>
<path fill-rule="evenodd" clip-rule="evenodd" d="M55.5097 43.7072H65.5673C66.1184 43.7072 66.394 43.299 66.394 42.8909C66.394 42.4827 65.9806 42.0745 65.5673 42.0745H55.5097C55.0964 42.0745 54.6831 42.4827 54.6831 42.8909C54.6831 43.299 55.0964 43.7072 55.5097 43.7072ZM51.7898 70.512C49.8609 70.512 48.3454 69.0153 48.3454 67.1103C48.3454 65.2054 49.8609 63.7087 51.7898 63.7087C53.7186 63.7087 55.2342 65.2054 55.2342 67.1103C55.2342 69.0153 53.5808 70.512 51.7898 70.512ZM51.7898 65.3415C50.8253 65.3415 49.9987 66.1579 49.9987 67.1103C49.9987 68.0628 50.8253 68.8792 51.7898 68.8792C52.7542 68.8792 53.5808 68.0628 53.5808 67.1103C53.4431 66.0218 52.7542 65.3415 51.7898 65.3415ZM65.9806 67.1103C65.9806 69.0153 67.4962 70.512 69.425 70.512C71.3539 70.512 72.8694 69.0153 72.8694 67.1103C72.8694 65.2054 71.3539 63.7087 69.425 63.7087C67.4962 63.7087 65.9806 65.2054 65.9806 67.1103ZM69.425 65.3415C68.4606 65.3415 67.6339 66.1579 67.6339 67.1103C67.6339 68.0628 68.4606 68.8792 69.425 68.8792C70.3895 68.8792 71.2161 68.0628 71.2161 67.1103C71.2161 66.0218 70.3895 65.3415 69.425 65.3415ZM76.5894 83.4381C76.3138 83.4381 76.0383 83.302 75.9005 83.166L70.5272 75.6824C70.2517 75.2742 70.3895 74.866 70.8028 74.5939C71.2161 74.3218 71.6294 74.4578 71.905 74.866L77.2782 82.3496C77.5538 82.7578 77.416 83.166 77.0027 83.4381H76.5894ZM43.9366 83.302C44.2121 83.4381 44.3499 83.4381 44.4877 83.4381C44.7632 83.4381 45.0388 83.302 45.0388 83.0299L50.412 75.5464C50.6876 75.2742 50.412 74.73 50.1365 74.4578C49.8609 74.1857 49.3098 74.3218 49.0343 74.73L43.661 82.2135C43.5232 82.4856 43.5232 83.0299 43.9366 83.302Z" fill="white"/>
<path fill-rule="evenodd" clip-rule="evenodd" d="M77.35 50.5006H44.4023C43.9905 50.5006 43.5786 50.0862 43.5786 49.6718C43.5786 49.2574 43.9905 48.843 44.4023 48.843H77.35C77.7618 48.843 78.1737 49.2574 78.1737 49.6718C78.1737 50.0862 77.8991 50.5006 77.35 50.5006ZM46.3243 82.686C46.187 82.686 46.0497 82.686 45.7751 82.5479C45.3633 82.2716 45.3633 81.7191 45.5006 81.4428L49.4817 75.7793C49.7563 75.3649 50.3054 75.2267 50.58 75.503C50.8546 75.7793 51.1291 76.3318 50.8546 76.6081L46.8734 82.2716C46.8734 82.5479 46.5988 82.686 46.3243 82.686ZM44.4023 61.137H77.35C77.8991 61.137 78.1737 60.7226 78.1737 60.3082C78.1737 59.8938 77.7618 59.4794 77.35 59.4794H44.4023C43.9905 59.4794 43.5786 59.8938 43.5786 60.3082C43.5786 60.7226 43.9905 61.137 44.4023 61.137Z" fill="white"/>
<path fill-rule="evenodd" clip-rule="evenodd" d="M56.1737 60.3192C56.3106 60.5928 56.4476 60.5928 56.7214 60.5928C56.9953 60.5928 57.1322 60.456 57.2691 60.3192L64.9369 51.7006C65.3477 51.427 65.2108 50.8798 64.9369 50.6062C64.6631 50.1958 64.1154 50.3326 63.8415 50.6062L56.1737 59.2247C55.7629 59.4983 55.8999 60.0456 56.1737 60.3192ZM51.2444 60.3192C51.3813 60.5928 51.5182 60.5928 51.7921 60.5928C51.929 60.5928 52.2029 60.456 52.2029 60.3192L56.0368 56.0783C56.4476 55.8047 56.3106 55.2575 56.0368 54.9839C55.7629 54.5735 55.2152 54.7103 54.9414 54.9839L51.1075 59.2247C50.8336 59.4983 50.8336 60.0456 51.2444 60.3192ZM72.4678 78.3771H48.5059C48.0951 78.3771 47.6843 77.9667 47.6843 77.5563C47.6843 77.1459 48.0951 76.7355 48.5059 76.7355H72.4678C72.8786 76.7355 73.2894 77.1459 73.2894 77.5563C73.2894 77.9667 73.0155 78.3771 72.4678 78.3771ZM45.9043 81.9339H75.0694C75.6171 81.9339 76.0279 81.5235 75.8909 81.1131C75.8909 80.7027 75.4802 80.2923 75.0694 80.2923H45.9043C45.4935 80.2923 45.0828 80.7027 45.0828 81.1131C45.0828 81.5235 45.4935 81.9339 45.9043 81.9339Z" fill="white"/>
<path fill-rule="evenodd" clip-rule="evenodd" d="M26.281 60.124C26.281 78.8486 41.4758 93.967 60.2621 93.967C78.9103 93.967 93.967 78.8486 93.967 60.124C93.967 41.3994 78.7722 26.281 60.124 26.281C41.4758 26.281 26.281 41.5381 26.281 60.124ZM28.0768 60.124C28.0768 42.3703 42.4428 27.9454 60.2621 27.9454C77.9433 27.9454 92.4475 42.3703 92.4475 60.124C92.4475 77.8777 77.9433 92.3025 60.2621 92.3025C42.5809 92.3025 28.0768 77.8777 28.0768 60.124Z" fill="white"/>
</svg>
