<svg width="120" height="120" viewBox="0 0 120 120" fill="none" xmlns="http://www.w3.org/2000/svg">
<path d="M60 120C93.138 120 120 93.138 120 60C120 26.862 93.138 0 60 0C26.862 0 0 26.862 0 60C0 93.138 26.862 120 60 120Z" fill="#070A0E"/>
<path fill-rule="evenodd" clip-rule="evenodd" d="M34.662 80.1182C32.868 79.0202 31.77 77.0702 31.77 74.9702V63.2462C31.77 61.8542 32.904 60.7262 34.296 60.7322C34.74 60.7322 35.178 60.8522 35.562 61.0742L62.016 76.5002C63.564 77.4002 64.518 79.0562 64.518 80.8502V92.9942C64.524 94.6622 63.174 96.0182 61.506 96.0182C60.948 96.0182 60.396 95.8622 59.922 95.5742L34.662 80.1182ZM74.094 57.8642C75.642 58.7642 76.59 60.4262 76.596 62.2142V86.8622C76.596 87.5882 76.206 88.2602 75.57 88.6142L69.78 91.8722C69.708 91.9142 69.63 91.9442 69.546 91.9682V78.2822C69.546 76.5122 68.616 74.8682 67.092 73.9562L43.86 60.0602V44.6102C43.86 43.2182 44.994 42.0902 46.386 42.0962C46.83 42.0962 47.268 42.2162 47.652 42.4382L74.094 57.8642ZM85.674 39.6602C87.228 40.5602 88.182 42.2222 88.182 44.0162V80.0162C88.176 80.7542 87.768 81.4322 87.12 81.7862L81.63 84.7502V59.6882C81.63 57.9182 80.7 56.2802 79.188 55.3682L55.44 41.1242V26.4722C55.44 26.0282 55.56 25.5902 55.776 25.2062C56.478 24.0062 58.02 23.5982 59.22 24.2942L85.674 39.6602Z" fill="#00D395"/>
</svg>
