<svg width="120" height="120" viewBox="0 0 120 120" fill="none" xmlns="http://www.w3.org/2000/svg">
<circle cx="60" cy="60" r="60" fill="black"/>
<path d="M60.1114 16.4942C59.5606 15.2555 61.5526 14.3772 62.1034 15.5558C75.0514 37.7472 87.9994 59.9499 100.947 82.1751C100.257 82.1751 99.593 81.9498 98.929 81.8447L64.3709 74.9906C63.239 74.9343 62.99 73.1138 64.0954 72.8436L77.6546 69.1275C77.9818 69.045 78.2549 68.8215 78.3994 68.518C78.5439 68.2145 78.5447 67.8626 78.4016 67.5585L60.1114 16.4642V16.4905V16.4942Z" fill="white"/>
<path d="M58.1232 16.6069C58.2477 16.7871 58.3571 16.9823 58.4514 17.185C62.5486 28.7461 66.7514 40.3073 70.8184 51.8684C71.1806 52.8294 69.8224 53.6289 69.1584 52.9119C65.6724 49.2784 62.3524 45.5361 58.923 41.9026C58.3684 41.4071 57.5648 41.7374 57.2064 42.2592L21.573 83.9093C21.158 84.3485 20.7996 85.0091 20.1054 85.0917C19.6074 85.0917 19.2754 84.7051 19 84.3222V83.6841C32.0574 61.3351 45.0997 38.9785 58.1232 16.6069Z" fill="white"/>
<path d="M47.2198 56.2714C47.8838 56.08 48.7666 56.5454 48.5478 57.3449C47.1632 62.1346 45.6994 66.8979 44.2582 71.6575C44.0394 72.2656 44.5902 72.8136 45.1712 72.8436C63.8198 76.5597 82.4684 80.4109 101.113 84.127C101.475 84.1833 101.724 84.4573 102 84.6788V85.4483L101.472 86.0001H22.3198C30.6198 76.0905 38.8934 66.1247 47.2198 56.2714Z" fill="white"/>
</svg>
