<svg width="120" height="120" viewBox="0 0 120 120" fill="none" xmlns="http://www.w3.org/2000/svg">
<circle cx="60" cy="60" r="60" fill="#2E3148"/>
<circle cx="60" cy="59.9999" r="34.8149" fill="#1B1E36"/>
<path fill-rule="evenodd" clip-rule="evenodd" d="M48.3951 60.1241C48.3951 31.146 53.6467 7.65479 60.1234 7.65479C66.6 7.65479 71.8517 31.146 71.8517 60.1241C71.8517 89.1021 66.6 112.593 60.1234 112.593C53.6467 112.593 48.3951 89.1021 48.3951 60.1241ZM59.4518 109.879C59.4518 109.879 60.1925 110.62 60.9331 109.632C60.9331 109.632 64.4122 106.667 66.8962 92.5932C66.8962 92.5932 70.1232 74.0748 69.6293 57.5316C69.6293 57.5316 70.1232 38.5193 64.669 18.2724C64.669 18.2724 62.8219 11.7463 60.6197 10.1858C60.2531 9.92509 59.7521 9.96559 59.4322 10.2818C57.9144 11.7828 53.4542 18.5436 51.0024 47.1631C51.0024 47.1631 49.7606 83.2125 54.9778 100.002C54.9778 100.002 56.4691 106.423 59.4518 109.879Z" fill="#6F7390"/>
<path fill-rule="evenodd" clip-rule="evenodd" d="M54.2745 49.9484C79.4222 35.5282 102.41 28.3925 105.635 34.0124C108.857 39.6298 91.1179 55.8764 65.9702 70.2965C40.8225 84.7167 17.8325 91.85 14.6102 86.2325C11.388 80.6151 29.1269 64.3685 54.2745 49.9484ZM16.6296 84.2914C16.6296 84.2914 16.3507 85.3061 17.5853 85.4616H17.5857C17.5857 85.4616 21.887 87.0048 35.3313 82.1602C35.3313 82.1602 53.0001 75.7479 67.104 67.0839C67.104 67.0839 83.8421 58.0493 98.6798 43.237C98.6798 43.237 103.433 38.389 103.68 35.701C103.727 35.2519 103.443 34.8345 103.008 34.7132C100.956 34.1482 92.867 33.637 66.8251 45.7532C66.8251 45.7532 34.9358 62.6151 22.9632 75.4964C22.9632 75.4964 18.144 79.9853 16.6296 84.2914Z" fill="#6F7390"/>
<path fill-rule="evenodd" clip-rule="evenodd" d="M66.0168 49.9653C91.0762 64.494 108.77 80.8149 105.521 86.4199C102.274 92.0349 79.3181 84.8104 54.2443 70.2818C29.1706 55.7532 11.4792 39.4418 14.7259 33.8272C17.9726 28.2127 40.9574 35.4367 66.0168 49.9653ZM17.4125 34.5808C17.4125 34.5808 16.3992 34.8549 16.8792 35.993L16.8826 36.0055C16.8826 36.0055 17.7043 40.4968 28.6426 49.7066C28.6426 49.7066 43.0378 61.7882 57.5957 69.64C57.5957 69.64 73.7981 79.5928 94.0574 85.025C94.0574 85.025 100.631 86.6992 103.085 85.5756C103.495 85.3895 103.712 84.935 103.598 84.4989C103.057 82.4397 99.4478 75.1855 75.912 58.7162C75.912 58.7162 45.3432 39.568 28.2 35.6642C28.2 35.6642 21.8986 33.7336 17.4125 34.5808Z" fill="#6F7390"/>
<circle cx="60" cy="59.9999" r="6.1728" fill="#B7B9C8"/>
<ellipse cx="85.3085" cy="36.296" rx="3.58032" ry="3.70368" fill="#B7B9C8"/>
<ellipse cx="26.543" cy="48.8887" rx="3.58032" ry="3.70368" fill="#B7B9C8"/>
<ellipse cx="52.716" cy="94.3209" rx="3.58032" ry="3.70368" fill="#B7B9C8"/>
</svg>
