<svg width="120" height="120" viewBox="0 0 120 120" fill="none" xmlns="http://www.w3.org/2000/svg">
<path d="M60 0C93.1371 0 120 26.8629 120 60C120 93.1371 93.1371 120 60 120C26.8629 120 0 93.1371 0 60C0 26.8629 26.8629 0 60 0Z" fill="#00467A"/>
<path d="M26.1463 52.1689C24.9429 52.1689 24.408 52.7038 24.408 53.7735C24.408 53.7735 24.408 77.8524 24.408 81.3289C24.408 82.5324 24.9429 82.9335 26.1463 82.9335C39.3909 83.0672 55.5737 71.2969 68.952 62.0672V30.2295C55.7109 39.3255 39.1234 52.3026 26.1463 52.1689Z" fill="url(#paint0_linear_107_21631)"/>
<path d="M95.8389 64.608C97.0423 64.608 97.5771 64.0731 97.5771 63.0034C97.5771 63.0034 97.5771 38.9246 97.5771 35.448C97.5771 34.2446 97.0423 33.8434 95.8389 33.8434C82.4606 33.7097 66.4114 45.48 53.0331 54.7097V86.4137C66.2777 77.3177 82.8651 64.3406 95.8389 64.608Z" fill="url(#paint1_linear_107_21631)"/>
<path d="M68.952 62.0675V43.8755C63.4663 47.3521 57.984 51.0995 52.8994 54.5761V72.7681C58.5188 69.2915 63.8708 65.5441 68.952 62.0675Z" fill="#194AAD"/>
<defs>
<linearGradient id="paint0_linear_107_21631" x1="69.4309" y1="74.3988" x2="58.6925" y2="30.9291" gradientUnits="userSpaceOnUse">
<stop offset="0.1" stop-color="#194AAD"/>
<stop offset="0.5" stop-color="#248FCB"/>
<stop offset="0.8" stop-color="#2BBFDF"/>
</linearGradient>
<linearGradient id="paint1_linear_107_21631" x1="55.4764" y1="24.8462" x2="41.3428" y2="82.3853" gradientUnits="userSpaceOnUse">
<stop offset="0.1" stop-color="#194AAD"/>
<stop offset="0.5" stop-color="#248FCB"/>
<stop offset="0.8" stop-color="#2BBFDF"/>
</linearGradient>
</defs>
</svg>
