<svg width="120" height="120" viewBox="0 0 120 120" fill="none" xmlns="http://www.w3.org/2000/svg">
<circle cx="60" cy="60" r="60" fill="#0648B3"/>
<path fill-rule="evenodd" clip-rule="evenodd" d="M74.243 12.3981C70.1009 11.0973 65.7255 10.3252 61.1961 10.1538L60.892 12.0581C65.3021 12.2054 69.6951 12.9555 73.9371 14.3126L74.243 12.3981ZM35.1028 16.3601C34.6866 16.0452 34.1683 15.8584 33.6061 15.8584H33.606C32.235 15.8584 31.1237 16.9697 31.1237 18.3407C31.1237 18.4952 31.1379 18.6463 31.1649 18.793C18.0251 27.775 9.40027 42.8756 9.40027 59.9938C9.40027 78.717 19.7185 95.028 34.9767 103.558L35.2983 101.544C31.7471 99.4912 28.4009 96.9488 25.3629 93.9109C6.6319 75.1798 6.6319 44.8072 25.3629 26.0761C27.5031 23.9358 29.7955 22.0407 32.205 20.3898C32.6039 20.663 33.0861 20.823 33.606 20.823C34.9772 20.823 36.0886 19.7116 36.0886 18.3406C36.0886 18.2272 36.0809 18.1158 36.0661 18.0064C40.6099 15.4923 45.4753 13.7712 50.4592 12.8441L50.7797 10.838C45.1793 11.7999 39.8991 13.6971 35.1028 16.3601ZM26.2519 86.9663C27.6228 86.9663 28.7341 88.0775 28.7341 89.4485C28.7341 89.809 28.6572 90.1514 28.5191 90.4604C28.5418 90.4833 28.5642 90.5065 28.5865 90.5296C28.6123 90.5564 28.6382 90.5832 28.6647 90.6096C30.964 92.9089 33.4586 94.8925 36.0933 96.5665L35.7661 98.6153C32.6104 96.69 29.71 94.3876 27.1254 91.7727C26.8538 91.8749 26.5595 91.9309 26.252 91.9309C24.8808 91.9309 23.7695 90.8196 23.7695 89.4485C23.7695 89.0415 23.8676 88.6575 24.0411 88.3186C17.8029 80.5682 14.0695 70.7172 14.0695 59.9938C14.0695 38.2061 29.4811 20.0202 49.9973 15.7382L49.6723 17.7731C41.9734 19.5167 34.6585 23.3838 28.6647 29.3776C12.8874 45.1547 11.8347 70.0809 25.5019 87.0815C25.7385 87.0068 25.9904 86.9661 26.2519 86.9661V86.9663ZM82.3847 96.6213C81.9714 96.3139 81.4591 96.1317 80.9043 96.1317H80.9041C79.5333 96.1317 78.4219 97.2432 78.4219 98.6143C78.4219 98.6889 78.4255 98.7629 78.4318 98.8361C75.4726 100.295 72.3814 101.395 69.2229 102.137L68.8971 104.176C72.5567 103.383 76.0502 102.146 79.3202 100.525C79.7501 100.882 80.3021 101.096 80.9041 101.096C82.2754 101.096 83.3866 99.9851 83.3866 98.6141C83.3866 98.4934 83.3778 98.3746 83.3612 98.2585C96.0561 90.2541 104.492 76.1109 104.492 59.9936C104.492 51.7771 102.298 44.0738 98.4674 37.4345C98.7646 37.0253 98.94 36.522 98.94 35.9774C98.94 34.6063 97.8287 33.4951 96.4577 33.4951C96.2841 33.4951 96.1146 33.5129 95.9512 33.5468C92.4924 28.7598 88.1193 24.6771 83.0877 21.5544L82.7596 23.6084C85.2871 25.2419 87.6824 27.1637 89.8964 29.3777C91.5519 31.0332 93.0438 32.7902 94.374 34.6277C94.1217 35.0162 93.9752 35.4798 93.9752 35.9776C93.9752 37.3485 95.0865 38.4599 96.4577 38.4599C96.5861 38.4599 96.7122 38.4501 96.8354 38.4314C106.349 54.9781 104.037 76.4687 89.8964 90.6096C87.573 92.9331 85.0507 94.9368 82.3847 96.6213ZM67.5263 80.2996C67.4233 81.5758 66.3553 82.5796 65.0524 82.5796C64.2355 82.5796 63.5111 82.1851 63.0587 81.5764C50.6426 83.6762 37.4133 74.5356 37.4133 59.9939C37.4133 47.9174 47.2041 38.1264 59.2806 38.1264C78.6986 38.1264 88.4853 61.7144 74.743 75.456C72.5441 77.6549 70.0926 79.2485 67.5264 80.2997L67.5263 80.2996ZM66.9294 78.4724C66.4743 77.947 65.8022 77.6147 65.0524 77.6147L65.0525 77.6146C63.8143 77.6146 62.788 78.5211 62.6007 79.7065C51.3091 81.5383 39.3276 73.2153 39.3276 59.9938C39.3276 42.272 60.8528 33.3475 73.3898 45.8844C81.1817 53.6759 81.1817 66.3113 73.3898 74.1028C71.4189 76.0736 69.2258 77.5132 66.9294 78.4724ZM64.8389 65.5521C69.7801 60.6109 66.2596 52.1327 59.2806 52.1327C54.9394 52.1327 51.4195 55.6526 51.4195 59.9938C51.4195 66.9725 59.8977 70.4933 64.8389 65.5521ZM29.5412 39.2053C29.7017 39.2053 29.8587 39.2206 30.0107 39.2498C34.4683 32.9722 40.8946 28.1902 48.3899 25.8048L48.0493 27.9366C43.3812 29.5679 38.9979 32.2494 35.2672 35.9801C33.9059 37.3414 32.6867 38.7905 31.6049 40.3077C31.8694 40.7022 32.0237 41.177 32.0237 41.6877C32.0237 43.0585 30.9124 44.1699 29.5413 44.1699C29.437 44.1699 29.3342 44.1634 29.2331 44.1509C22.4673 56.9738 24.4785 73.2178 35.2672 84.0066C36.0631 84.8024 36.8894 85.5494 37.7411 86.2497L37.395 88.4167C28.8885 81.8572 23.4069 71.5662 23.4069 59.9936C23.4069 53.9259 24.9143 48.2109 27.5737 43.2012C27.251 42.7823 27.0591 42.2575 27.0591 41.6878C27.0591 40.3166 28.1704 39.2052 29.5413 39.2052L29.5412 39.2053ZM22.3722 71.4084C23.6634 71.4965 24.6834 72.5714 24.6834 73.885C24.6834 74.5713 24.4048 75.1925 23.9547 75.6418C25.8275 79.8745 28.497 83.8396 31.9658 87.3084C33.519 88.8616 35.1733 90.2524 36.9048 91.4858L36.57 93.5824C30.2961 89.332 25.277 83.3698 22.1815 76.367C20.8194 76.3564 19.7189 75.2493 19.7189 73.885C19.7189 73.1457 20.0419 72.4821 20.5546 72.0274C19.3741 68.2256 18.7381 64.184 18.7381 59.9939C18.7381 41.0815 31.6874 25.1948 49.2029 20.7142L48.8713 22.7896C42.68 24.5152 36.8344 27.8105 31.9658 32.679C21.4856 43.1592 18.2894 58.1651 22.3722 71.4084ZM108.883 54.7057C109.879 55.0283 110.599 55.9638 110.599 57.0676C110.599 58.0683 110.008 58.9305 109.155 59.3234C109.157 59.5466 109.16 59.7697 109.16 59.9938C109.16 84.5281 91.4473 104.925 68.1119 109.094L68.4331 107.083C77.5066 105.328 86.1713 100.937 93.1977 93.9111C102.717 84.3922 107.395 71.8666 107.239 59.3901C106.301 59.0353 105.635 58.1296 105.635 57.0676C105.635 56.1108 106.176 55.2805 106.969 54.8661C105.846 44.3508 101.257 34.1357 93.1976 26.0762C90.2434 23.1221 86.9991 20.6349 83.5571 18.6127L83.8795 16.5941C97.5261 24.3453 107.158 38.3463 108.882 54.7056L108.883 54.7057ZM86.0039 68.18C86.0039 67.3975 85.6417 66.6998 85.0759 66.2448H85.076C85.5601 64.24 85.8169 62.1467 85.8169 59.9936C85.8169 57.6855 85.5216 55.4464 84.9678 53.3113L83.3353 54.7247C84.1242 58.3445 84.0894 62.1077 83.2309 65.7147C81.9968 65.8586 81.0391 66.9073 81.0391 68.18C81.0391 68.8813 81.33 69.5146 81.7976 69.966C81.223 71.2642 80.5309 72.523 79.7208 73.726L80.8782 75.4132C81.9354 73.9351 82.8444 72.3441 83.5842 70.6616C84.9263 70.6284 86.0039 69.5302 86.0039 68.18ZM52.1049 48.431C52.6277 48.431 53.1124 48.5926 53.5124 48.8684C55.2391 47.9714 57.2004 47.4637 59.2806 47.4637C70.4059 47.4637 76.0154 60.9785 68.1405 68.8534C60.2656 76.7283 46.7507 71.1191 46.7507 59.9938C46.7507 56.867 47.8964 54.0076 49.7906 51.8125C49.6822 51.5338 49.6225 51.2306 49.6225 50.9135C49.6225 49.5423 50.7338 48.4311 52.1049 48.4311V48.431ZM54.5873 50.9134C54.5873 50.7752 54.5758 50.6399 54.5542 50.508L54.5543 50.5081C58.3613 48.6237 63.2479 48.9478 66.7871 52.4871C70.9324 56.6325 70.9324 63.355 66.7871 67.5003C60.1181 74.1695 48.665 69.4231 48.665 59.9938C48.665 57.286 49.6102 54.9657 51.1143 53.19C51.4178 53.3222 51.7527 53.3956 52.1049 53.3956C53.476 53.3956 54.5873 52.2845 54.5873 50.9134ZM59.2806 42.795C65.8361 42.795 70.9944 46.2144 73.8935 50.9713C73.9765 50.9629 74.0608 50.9585 74.146 50.9585C75.5171 50.9585 76.6285 52.0698 76.6285 53.4409C76.6285 54.1783 76.3066 54.8405 75.7962 55.2952C77.4146 60.8895 76.2942 67.3022 71.4417 72.1547C60.6338 82.9623 42.0821 75.266 42.0821 59.9936C42.0821 50.495 49.7821 42.795 59.2806 42.795ZM90.4854 59.9936C90.4854 56.4836 89.9059 53.1094 88.8372 49.9608L87.2627 51.3242C90.0062 60.208 88.4287 70.1394 82.5275 77.8171L83.6606 79.469C87.9305 74.1306 90.4854 67.3611 90.4854 59.9936ZM59.2806 24.1198C63.76 24.1198 68.0463 24.943 72.0002 26.4428L71.6913 28.3764C67.5152 26.74 63.0808 25.9614 58.6588 26.0417L58.9651 24.1242C58.9938 24.1239 59.0226 24.1234 59.0513 24.1229L59.0912 24.1222C59.1542 24.1211 59.2172 24.1199 59.2805 24.1199L59.2806 24.1198ZM72.7502 21.7454C68.6639 20.3066 64.2778 19.5042 59.7106 19.4565H59.7104L59.4054 21.3669C63.823 21.3815 68.2379 22.1497 72.4426 23.67L72.7502 21.7454ZM60.4546 14.7972C65.0013 14.9134 69.3799 15.7027 73.4975 17.0659L73.1909 18.985C68.9651 17.5554 64.5632 16.7954 60.1497 16.707L60.4546 14.7972ZM74.014 55.9198C72.7041 55.8513 71.6635 54.7678 71.6635 53.441C71.6635 52.8426 71.8752 52.2936 72.2278 51.8649C71.6296 50.9135 70.9165 50.0138 70.0883 49.1855C60.4858 39.5833 43.9963 46.417 43.9963 59.9938C43.9963 73.5703 60.486 80.4037 70.0883 70.8018C74.1189 66.7711 75.4269 61.0491 74.014 55.9198ZM44.6249 107.684C48.7734 108.958 53.1532 109.703 57.6849 109.845H57.685L57.9892 107.941C53.5781 107.822 49.1805 107.098 44.9307 105.769L44.6249 107.684ZM58.4278 105.194C53.8792 105.11 49.4945 104.354 45.3696 103.021L45.6756 101.105C49.9105 102.503 54.318 103.228 58.7328 103.284L58.4278 105.194ZM99.823 59.9938C99.823 46.1442 92.878 33.9187 82.2812 26.6058L81.9452 28.7083C83.5721 29.8895 85.1283 31.2121 86.5952 32.6789C101.68 47.7636 101.68 72.2238 86.5952 87.3084C81.8152 92.0885 76.0934 95.3518 70.0272 97.1021L69.6947 99.1836C87.0387 94.5865 99.823 78.7841 99.823 59.9938ZM59.1721 100.535C54.6026 100.523 50.2112 99.7548 46.1159 98.349L46.4227 96.4282C50.638 97.9123 55.0596 98.6418 59.478 98.6197L59.1722 100.535L59.1721 100.535ZM95.1541 59.9938C95.1541 48.5509 89.7967 38.359 81.4531 31.7909V31.791L81.1042 33.9751C81.8556 34.6063 82.587 35.2736 83.2937 35.9805C96.5553 49.2419 96.5553 70.7458 83.2937 84.007C79.6544 87.6465 75.3936 90.285 70.8537 91.9265L70.5113 94.0718C84.8226 89.3585 95.1541 75.8834 95.1541 59.9938ZM59.8494 95.8605C59.6601 95.864 59.4709 95.8674 59.2806 95.8674C54.916 95.8674 50.7335 95.0877 46.8649 93.6597L47.173 91.7296C51.3622 93.3251 55.8034 94.0607 60.2254 93.9387L59.9186 95.8592H59.9185L59.8494 95.8605ZM53.3338 59.9939C53.3338 54.7107 59.75 52.0529 63.4858 55.7887V55.7885C65.8079 58.1106 65.8079 61.8767 63.4858 64.1989C59.7501 67.9347 53.3338 65.2768 53.3338 59.9939Z" fill="white"/>
</svg>
