<svg width="120" height="120" viewBox="0 0 120 120" fill="none" xmlns="http://www.w3.org/2000/svg">
<circle cx="60" cy="60" r="60" fill="#EDF0F4"/>
<circle cx="60" cy="60" r="45" fill="#0F1529"/>
<path fill-rule="evenodd" clip-rule="evenodd" d="M35.3417 58.1192L35.3413 58.1185L35.4671 57.9602C35.8047 58.0283 36.142 58.0975 36.4793 58.1666C37.2341 58.3215 37.9888 58.4762 38.7462 58.6189C41.1419 59.0684 43.5404 59.1843 45.9277 58.6047C48.9691 57.8669 51.5577 56.2499 53.8668 54.107C56.4498 51.7098 58.4038 48.7867 60.3438 45.8353C61.2132 44.5123 61.4564 43.3759 60.4249 42.0981C60.2998 41.9433 60.1922 41.7733 60.0654 41.5731C60.0023 41.4735 59.9345 41.3664 59.8574 41.25L59.4297 42.0246C57.6714 45.2247 55.7313 48.2948 53.3412 51.0313C51.8485 52.736 50.1908 54.2314 48.178 55.2463C44.9437 56.8775 41.5919 56.7785 38.1982 55.9248C35.5538 55.2633 33.0574 54.1777 30.589 53.0102C30.3248 52.8849 30.0571 52.768 29.7889 52.6509C29.6456 52.5883 29.5021 52.5257 29.359 52.4617L29.25 52.6087C29.2856 52.6799 29.3203 52.7518 29.3549 52.8237C29.4401 53.0003 29.5253 53.177 29.6246 53.3438L32.543 58.3051C33.1084 59.2666 33.6738 60.2282 34.2393 61.1899C37.2745 66.3521 40.3104 71.5154 43.3503 76.6747C43.858 77.5342 44.0618 77.9163 44.3441 77.9875C44.6292 78.0594 44.9942 77.8144 45.8326 77.4238C46.607 77.0648 46.607 77.0422 46.1597 76.2902L36.7558 60.5158C36.2807 59.7188 35.8112 58.919 35.3417 58.1192ZM84.1735 57.8907C84.3303 57.8566 84.5009 57.8196 84.6919 57.7764C84.624 57.9062 84.571 58.0108 84.5262 58.0992C84.4529 58.2438 84.4014 58.3453 84.3425 58.4435C83.8869 59.202 83.4284 59.959 82.9699 60.7162C82.3226 61.7849 81.6752 62.854 81.0354 63.9279C78.992 67.3541 76.9597 70.7861 74.9274 74.218C74.6981 74.6025 74.4549 74.8032 73.9965 74.5629C70.7929 72.9006 67.3125 72.3805 63.821 71.9847C60.0904 71.5623 56.3179 71.7177 52.6336 72.4455C51.9747 72.5737 51.6428 72.6296 51.5478 72.8101C51.4523 72.9919 51.5969 73.2999 51.89 73.9353C52.424 75.0944 52.6224 75.1905 53.7406 74.9954C60.8914 73.7516 67.8185 74.3763 74.4326 77.6612C75.4333 78.156 75.6486 78.0825 76.2245 77.1043C80.9152 69.1408 85.6004 61.1744 90.2856 53.208C90.3802 53.0486 90.4665 52.8821 90.5836 52.6561C90.6326 52.5615 90.687 52.4566 90.7496 52.3373C90.6171 52.3904 90.5198 52.4271 90.4434 52.4558C90.3411 52.4943 90.2766 52.5186 90.2157 52.5493C87.0065 54.1579 83.7331 55.5911 80.1884 56.1905C77.6809 56.6173 75.1846 56.7558 72.7329 55.8116C70.2366 54.8476 68.3441 53.0412 66.5746 51.0567L65.3473 49.6941L64.4388 51.1839C64.0838 51.7663 64.1956 52.2751 64.6625 52.7218C64.9356 52.9851 65.2065 53.2515 65.4774 53.5178C66.1603 54.1893 66.8436 54.8611 67.5641 55.4865C70.0549 57.6407 72.8783 58.9778 76.1658 59.1051C78.6258 59.1983 81.0047 58.7036 83.3668 58.0789C83.616 58.0117 83.8688 57.9568 84.1735 57.8907Z" fill="white"/>
</svg>
