<svg width="120" height="120" viewBox="0 0 120 120" fill="none" xmlns="http://www.w3.org/2000/svg">
<circle cx="60" cy="60" r="60" fill="#2992FB"/>
<path fill-rule="evenodd" clip-rule="evenodd" d="M72.28 46.5699L71.13 47.7199C68.2829 45.3617 64.6969 44.0803 61 44.0999C52.6279 44.1006 45.683 50.5781 45.1 58.9299H43.45C44.0066 49.6529 51.7064 42.4226 61 42.4499C65.1275 42.4711 69.119 43.9277 72.29 46.5699H72.28ZM61 48.2999C64.7801 48.2995 68.3329 50.1056 70.56 53.1599L71.71 51.9999C68.2517 47.3896 62.2313 45.5095 56.7639 47.3322C51.2965 49.155 47.6088 54.2717 47.6088 60.0349C47.6088 65.7981 51.2965 70.9148 56.7639 72.7376C62.2313 74.5603 68.2517 72.6802 71.71 68.0699L70.56 66.9199C67.3188 71.4488 61.347 73.0861 56.2492 70.8435C51.1515 68.6009 48.3232 63.0924 49.4717 57.6428C50.6201 52.1933 55.4308 48.2945 61 48.2999ZM73.61 47.8099L72.45 48.9999C72.83 49.3925 73.1873 49.8065 73.52 50.2399L74.67 48.9999C74.3374 48.5664 73.9801 48.1524 73.6 47.7599L73.61 47.8099ZM43.36 61.1499C43.7719 67.7708 47.8776 73.5952 53.975 76.2084C60.0723 78.8215 67.1215 77.7778 72.2 73.5099L71 72.3599C68.1662 74.7164 64.5957 76.0045 60.91 75.9999C52.5268 76.0037 45.5733 69.5135 45 61.1499H43.36ZM72.44 71.1499L73.59 72.2999C73.9753 71.8882 74.3359 71.4541 74.67 70.9999L73.52 69.8499C73.1873 70.2833 72.8301 70.6973 72.45 71.0899L72.44 71.1499ZM61 79.9399C49.9875 79.9399 41.06 71.0125 41.06 59.9999C41.06 48.9873 49.9875 40.0599 61 40.0599C66.9355 40.0569 72.559 42.7181 76.32 47.3099L77.47 46.1599C71.0403 38.5081 60.1948 36.2784 51.2679 40.7731C42.3411 45.2678 37.6736 55.3084 39.9917 65.0304C42.3097 74.7524 51.0055 81.6067 61 81.5899C67.3774 81.6078 73.4263 78.7632 77.48 73.8399L76.33 72.6899C72.5905 77.3147 66.9474 79.9835 61 79.9399Z" fill="white"/>
</svg>
