<svg width="120" height="120" viewBox="0 0 120 120" fill="none" xmlns="http://www.w3.org/2000/svg">
<path d="M60 0C93.132 0 120 26.868 120 60C120 93.132 93.132 120 60 120C26.868 120 0 93.132 0 60C0 26.868 26.868 0 60 0Z" fill="#1E0B49"/>
<path d="M38.952 48.0002C41.604 43.4882 45.852 40.8122 49.584 40.8842L51.096 38.3282C53.7 33.9002 52.8 28.5002 49.08 26.3162C45.36 24.1322 40.212 25.9802 37.596 30.3842L36.096 32.9402C37.968 36.1682 37.68 41.1602 35.028 45.6962C32.376 50.2322 28.128 52.8842 24.396 52.8122L22.884 55.3682C20.28 59.7962 21.18 65.1962 24.9 67.3802C28.608 69.5642 33.768 67.7282 36.384 63.3122L37.884 60.7562C36.012 57.5282 36.3 52.5122 38.952 48.0002Z" fill="#1E90FF"/>
<path d="M35.04 73.908C32.388 69.396 28.14 66.72 24.408 66.792L22.896 64.236C20.292 59.808 21.192 54.408 24.912 52.224C28.632 50.04 33.78 51.864 36.396 56.292L37.896 58.848C36.024 62.076 36.312 67.068 38.964 71.604C41.628 76.14 45.864 78.792 49.596 78.72L51.108 81.276C53.712 85.704 52.812 91.104 49.092 93.288C45.384 95.472 40.224 93.648 37.608 89.22L36.108 86.664C37.968 83.436 37.68 78.42 35.04 73.908Z" fill="url(#paint0_linear_107_24532)"/>
<path d="M65.244 73.908C62.592 69.396 58.344 66.72 54.612 66.792L53.1 64.236C50.496 59.808 51.396 54.408 55.116 52.224C58.836 50.04 63.984 51.864 66.588 56.292L68.1 58.848C66.228 62.076 66.516 67.068 69.168 71.604C71.832 76.14 76.068 78.792 79.8 78.72L81.312 81.276C83.916 85.704 83.016 91.104 79.296 93.288C75.588 95.472 70.428 93.648 67.812 89.22L66.312 86.664C68.196 83.436 67.92 78.42 65.244 73.908Z" fill="url(#paint1_linear_107_24532)"/>
<path d="M84.132 74.3522C86.784 69.8522 91.032 67.1642 94.764 67.2362L96.276 64.6802C98.88 60.2522 97.98 54.8522 94.26 52.6682C90.54 50.4842 85.392 52.3202 82.776 56.7362L81.276 59.2922C83.148 62.5202 82.86 67.5122 80.208 72.0482C77.544 76.5842 73.308 79.2362 69.576 79.1642L68.064 81.7202C65.46 86.1482 66.36 91.5482 70.08 93.7322C73.8 95.9162 78.948 94.0802 81.564 89.6642L83.064 87.1082C81.168 83.8682 81.48 78.8522 84.132 74.3522Z" fill="url(#paint2_linear_107_24532)"/>
<path d="M44.628 24.6001C39.6 24.6001 35.532 28.7401 35.652 33.7921C35.76 38.5561 39.648 42.4321 44.412 42.5521C49.464 42.6721 53.604 38.6041 53.604 33.5761C53.604 28.6201 49.584 24.6001 44.628 24.6001Z" fill="#1E90FF"/>
<path d="M44.628 77.28C39.6 77.28 35.544 81.42 35.664 86.484C35.784 91.344 39.816 95.256 44.676 95.232C49.608 95.208 53.604 91.212 53.616 86.268C53.616 81.312 49.596 77.28 44.628 77.28Z" fill="#4B0082"/>
<path d="M74.712 24.6001C69.684 24.6001 65.616 28.7401 65.736 33.7921C65.844 38.5561 69.732 42.4321 74.496 42.5521C79.548 42.6721 83.688 38.6041 83.688 33.5761C83.688 28.6201 79.668 24.6001 74.712 24.6001Z" fill="#1E90FF"/>
<path d="M74.712 77.28C69.684 77.28 65.616 81.42 65.736 86.472C65.844 91.332 69.888 95.256 74.748 95.232C79.68 95.208 83.676 91.212 83.688 86.268C83.688 81.312 79.68 77.292 74.712 77.28Z" fill="#4B0082"/>
<path d="M59.46 50.9402C54.432 50.9402 50.364 55.0802 50.484 60.1322C50.592 64.8962 54.48 68.7722 59.244 68.8922C64.296 69.0122 68.436 64.9442 68.436 59.9162C68.436 54.9602 64.416 50.9402 59.46 50.9402Z" fill="#8B008B"/>
<path d="M89.88 50.9402C84.852 50.9402 80.784 55.0682 80.904 60.1322C81.012 64.8962 84.9 68.7842 89.652 68.8922C94.704 69.0122 98.844 64.9562 98.844 59.9282C98.844 54.9602 94.836 50.9522 89.88 50.9402Z" fill="#8B008B"/>
<path d="M29.04 50.9402C24.012 50.9402 19.944 55.0802 20.064 60.1322C20.172 64.8962 24.06 68.7722 28.824 68.8922C33.876 69.0122 38.016 64.9442 38.016 59.9162C38.016 54.9602 33.996 50.9402 29.04 50.9402Z" fill="#1E90FF"/>
<defs>
<linearGradient id="paint0_linear_107_24532" x1="29.5987" y1="71.7812" x2="38.9529" y2="80.2374" gradientUnits="userSpaceOnUse">
<stop offset="0.21" stop-color="#1E90FF"/>
<stop offset="1" stop-color="#4B0082"/>
</linearGradient>
<linearGradient id="paint1_linear_107_24532" x1="60.0604" y1="71.4828" x2="68.8295" y2="79.437" gradientUnits="userSpaceOnUse">
<stop stop-color="#8B008B"/>
<stop offset="1" stop-color="#4B0082"/>
</linearGradient>
<linearGradient id="paint2_linear_107_24532" x1="81.989" y1="63.336" x2="72.6437" y2="70.4222" gradientUnits="userSpaceOnUse">
<stop stop-color="#8B008B"/>
<stop offset="1" stop-color="#4B0082"/>
</linearGradient>
</defs>
</svg>
