<svg width="120" height="120" viewBox="0 0 120 120" fill="none" xmlns="http://www.w3.org/2000/svg">
<path d="M59.9614 120C93.1101 120 119.961 93.1487 119.961 60C119.961 26.8513 93.1101 0 59.9614 0C26.8126 0 0 26.8513 0 60C0 93.1487 26.8513 120 59.9614 120Z" fill="#008CE3"/>
<path d="M69.1179 33.728H45.5506L43.6189 44.6231L64.8681 44.6617C75.3381 44.6617 78.4289 48.4479 78.3517 54.7454C78.313 57.9907 76.9222 63.4383 76.304 65.2155C74.6814 69.9289 71.3974 75.3378 58.9569 75.2992H38.2873L36.3169 86.2329H59.8069C68.0748 86.2329 71.6292 85.267 75.3381 83.5284C83.606 79.7036 88.5513 71.5516 90.5217 60.8884C93.4965 45.0094 89.8262 33.728 69.1179 33.728Z" fill="white"/>
<path d="M35.4281 54.5137C29.2466 54.5137 28.358 58.5317 27.7784 60.9657C27.0057 64.1338 26.7739 65.4473 26.7739 65.4473H50.8821C57.0637 65.4473 57.9523 61.4293 58.5318 58.9953C59.3045 55.8273 59.5363 54.5137 59.5363 54.5137H35.4281Z" fill="white"/>
</svg>
