<svg width="120" height="120" viewBox="0 0 120 120" fill="none" xmlns="http://www.w3.org/2000/svg">
<circle cx="60" cy="60" r="60" fill="#2A2463"/>
<path fill-rule="evenodd" clip-rule="evenodd" d="M50.8797 119.311C49.0106 109.751 48.9342 99.9212 52.6258 91.8201C56.0205 84.3711 59.9718 78.5915 63.4783 73.4632C71.2576 62.0848 76.8485 53.9079 69.3173 37.7998C67.281 33.4447 65.1715 29.427 63.1881 25.6503C58.2242 16.1983 54.0535 8.25604 53.8163 0.314767C55.8492 0.10664 57.9122 0 60 0C93.1369 0 120 26.8629 120 59.9999C120 93.1368 93.1369 120 60 120C56.8995 120 53.8535 119.765 50.8797 119.311Z" fill="#954C5D"/>
<path fill-rule="evenodd" clip-rule="evenodd" d="M54.5349 0.245531C55.1657 8.28813 57.8305 17.0934 64.4613 24.447C81.1533 42.9596 90.8649 54.1886 90.8649 70.5771C90.8649 83.9388 79.1636 106.38 58.0637 119.969C58.7065 119.99 59.3517 120 60 120C93.1369 120 119.999 93.1368 119.999 59.9999C119.999 26.8629 93.1369 0 60 0C58.1578 0 56.3349 0.0830223 54.5349 0.245531Z" fill="#ED7B69"/>
<path fill-rule="evenodd" clip-rule="evenodd" d="M112.069 89.8327C112.212 88.3099 112.328 86.7465 112.413 85.144C113.619 62.462 100.629 48.6054 89.7631 37.0147C86.9627 34.0273 84.3029 31.1904 82.0641 28.3918C76.6192 21.5857 72.9329 10.5791 70.6832 0.947754C98.7234 5.98684 120 30.5084 120 59.9993C120 70.8593 117.115 81.0452 112.069 89.8327Z" fill="#EC877B"/>
</svg>
