<svg width="120" height="120" viewBox="0 0 120 120" fill="none" xmlns="http://www.w3.org/2000/svg">
<circle cx="60" cy="60" r="60" fill="#3C80F1"/>
<path d="M60 15C39.5772 15.0149 23.0224 31.546 23 51.9449C23.0187 53.9367 23.2427 55.921 23.6646 57.8681C23.7082 58.0552 23.8426 58.2081 24.0227 58.2755C24.2027 58.343 24.4046 58.316 24.5606 58.2037C25.9741 57.1926 27.6684 56.6476 29.4069 56.6446C29.577 56.6503 29.7407 56.5794 29.8528 56.4515C29.9649 56.3236 30.0137 56.1521 29.9856 55.9844C29.7397 54.6656 29.6123 53.3275 29.6047 51.986C29.6047 35.2177 43.2115 21.6244 59.9963 21.6244C76.781 21.6244 90.3878 35.2177 90.3878 51.986C90.3878 68.7333 68.942 90.1245 61.2657 97.6776C60.5628 98.3666 59.4372 98.3666 58.7343 97.6776C55.4845 94.5092 52.3307 91.244 49.2771 87.8865H49.1278C46.1909 87.5981 43.3078 86.9079 40.5591 85.835L40.0514 85.6299C39.8091 85.5183 39.5217 85.5904 39.361 85.8031C39.2002 86.0158 39.2094 86.3116 39.383 86.5139C44.1357 92.1877 49.1791 97.6121 54.4929 102.765C57.5513 105.745 62.4301 105.745 65.4884 102.765C79.004 89.427 97 69.6956 97 51.9449C96.9776 31.5422 80.4228 15.0149 60 15" fill="white"/>
<path fill-rule="evenodd" clip-rule="evenodd" d="M81.4869 49.9494C81.7668 51.2639 81.928 52.6008 81.9685 53.9441H81.976C81.977 54.0344 81.9795 54.1282 81.9819 54.2227C81.9884 54.4719 81.995 54.725 81.976 54.9251V55.8613C81.9536 56.4954 81.92 57.0959 81.8677 57.7599C81.6855 60.4083 81.074 63.0096 80.0569 65.4622C78.9841 67.8705 77.5487 70.1007 75.8006 72.0753L75.7596 72.0417C72.5911 75.7764 68.5756 78.701 64.0473 80.5721C59.5009 82.506 54.5446 83.2801 49.6243 82.825C47.1458 82.5811 44.7125 81.9987 42.3924 81.0943C40.0808 80.1887 37.901 78.9781 35.9108 77.4949C32.052 74.5578 28.8542 70.8433 26.5246 66.5923C25.7532 65.1741 26.123 63.4064 27.3983 62.4155C28.6737 61.4245 30.4796 61.5016 31.6657 62.5976C33.6654 64.4343 36.2092 65.5708 38.9126 65.8351C39.6706 65.906 40.4285 65.8463 41.164 65.6598C41.6565 65.5478 42.104 65.2905 42.4484 64.9213C42.5893 64.751 42.7027 64.5597 42.7844 64.3544C42.8889 64.0784 42.9599 63.7949 42.9972 63.5039C43.0569 63.075 43.0868 62.6423 43.0868 62.2097V37.4802C43.276 34.7331 44.8673 32.2767 47.2983 30.979C48.1682 30.5165 49.1166 30.2181 50.091 30.1062C50.3337 30.054 50.5802 30.054 50.8191 30.054H58.2788C58.6522 30.0913 58.9808 30.0913 59.3205 30.0913C62.019 30.2975 64.6565 30.998 67.1013 32.1576C71.886 34.4065 75.8872 38.0348 78.5896 42.5753C79.953 44.8583 80.9318 47.3495 81.4869 49.9494ZM75.2929 57.2227C75.3414 56.7155 75.3825 56.2045 75.3825 55.6823L75.3787 55.686V54.1717C75.3526 53.2131 75.2406 52.2582 75.0427 51.3183C74.8448 50.3783 74.5685 49.4458 74.2213 48.5507C73.8592 47.648 73.4261 46.7752 72.9332 45.9397C70.9075 42.5415 67.9139 39.8235 64.3347 38.133C62.6173 37.3124 60.7617 36.8163 58.865 36.6671H50.8639C50.2601 36.7473 49.7764 37.2064 49.6654 37.8047V37.9316C49.6637 37.9552 49.6637 37.9788 49.6654 38.0024V62.2097C49.6916 62.9258 49.6729 63.6457 49.5982 64.3544C49.4787 65.2048 49.2585 66.0328 48.9336 66.8273C48.2382 68.5669 46.9892 70.0297 45.3792 70.9899C44.6346 71.4345 43.8333 71.777 42.9972 72.0082C42.0713 72.2655 41.1192 72.411 40.1597 72.4408C43.1306 74.5875 46.6179 75.9092 50.2665 76.2715C54.0952 76.609 57.9479 75.9912 61.4785 74.4737C65.0438 72.9683 68.2313 70.6934 70.8125 67.812L70.7752 67.7784C72.0782 66.3126 73.1535 64.6602 73.96 62.8699C74.7083 61.0723 75.1585 59.1649 75.2929 57.2227Z" fill="white"/>
</svg>
