<svg width="120" height="120" viewBox="0 0 120 120" fill="none" xmlns="http://www.w3.org/2000/svg">
<path fill-rule="evenodd" clip-rule="evenodd" d="M0 59.9999C0 26.863 26.8633 0 60.0003 0C93.1373 0 120 26.863 120 59.9999C120 93.1367 93.1373 120 60.0003 120C26.8633 120 0 93.1367 0 59.9999Z" fill="#278DC1"/>
<path fill-rule="evenodd" clip-rule="evenodd" d="M42.8062 55.3129C38.8383 55.3129 35.6225 52.0969 35.6225 48.1291C35.6225 44.1617 38.8383 40.9456 42.8062 40.9456C46.7735 40.9456 49.9896 44.1617 49.9896 48.1291C49.9896 52.0969 46.7735 55.3129 42.8062 55.3129ZM55.7979 28.2598H50.0038V37.3138C47.9433 35.9396 45.4688 35.1374 42.8062 35.1374C35.6309 35.1374 29.8142 40.9542 29.8142 48.1291C29.8142 55.3044 35.6309 61.1206 42.8062 61.1206C49.9811 61.1206 55.7979 55.3044 55.7979 48.1291C55.7979 48.0909 55.7954 48.0527 55.7951 48.0147H55.7979V28.2598Z" fill="#FFFFFE"/>
<path fill-rule="evenodd" clip-rule="evenodd" d="M77.1944 64.6869C81.1617 64.6869 84.3778 67.9029 84.3778 71.8709C84.3778 75.8381 81.1617 79.0542 77.1944 79.0542C73.2265 79.0542 70.0104 75.8381 70.0104 71.8709C70.0104 67.9029 73.2265 64.6869 77.1944 64.6869ZM64.2021 91.74H69.9968V82.686C72.0573 84.0602 74.5315 84.8624 77.1944 84.8624C84.3691 84.8624 90.1861 79.0456 90.1861 71.8709C90.1861 64.6954 84.3691 58.8792 77.1944 58.8792C70.0189 58.8792 64.2021 64.6954 64.2021 71.8709C64.2021 71.9089 64.2052 71.9471 64.2054 71.9854H64.2021V91.74Z" fill="#FFFFFE"/>
<path fill-rule="evenodd" clip-rule="evenodd" d="M70.4574 37.5065C74.4247 37.5065 77.6414 40.7228 77.6414 44.6903C77.6414 48.6574 74.4247 51.874 70.4574 51.874C66.4901 51.874 63.274 48.6574 63.274 44.6903C63.274 40.7228 66.4901 37.5065 70.4574 37.5065ZM70.5724 31.6985V31.7014C70.5342 31.7009 70.4962 31.6985 70.4574 31.6985C63.2828 31.6985 57.4657 37.5153 57.4657 44.6903C57.4657 51.8655 63.2828 57.6823 70.4574 57.6823C77.6329 57.6823 83.4497 51.8655 83.4497 44.6903C83.4497 42.0277 82.6474 39.5532 81.2734 37.4928H90.3273V31.6985H70.5724Z" fill="#FFFFFE"/>
<path fill-rule="evenodd" clip-rule="evenodd" d="M49.5426 82.4934C45.575 82.4934 42.3592 79.2768 42.3592 75.3096C42.3592 71.3422 45.575 68.1259 49.5426 68.1259C53.5099 68.1259 56.7263 71.3422 56.7263 75.3096C56.7263 79.2768 53.5099 82.4934 49.5426 82.4934ZM49.4276 88.3017V88.2982C49.4661 88.2987 49.5043 88.3017 49.5426 88.3017C56.7178 88.3017 62.534 82.4849 62.534 75.3096C62.534 68.1347 56.7178 62.3179 49.5426 62.3179C42.3676 62.3179 36.5509 68.1347 36.5509 75.3096C36.5509 77.9719 37.3531 80.4465 38.7272 82.5071H29.6727V88.3017H49.4276Z" fill="#FFFFFE"/>
</svg>
