<svg width="120" height="120" viewBox="0 0 120 120" fill="none" xmlns="http://www.w3.org/2000/svg">
<circle cx="60" cy="60" r="60" fill="#EDF0F4"/>
<path opacity="0.25" d="M54.9946 57.1579L46.8775 43.1147L38.6246 28.9315C38.1527 28.1311 37.4983 27.4536 36.7147 26.9543H36.6464C35.8096 27.4388 35.1245 28.1472 34.6682 28.9997L28.5297 39.6357C27.6431 41.152 27.6431 43.0285 28.5297 44.5448L35.896 57.2941C36.4417 58.1802 36.6464 59.2029 36.6464 60.2256C36.6405 61.2496 36.3828 62.2563 35.896 63.1572L28.5979 75.7693C27.7114 77.2855 27.7114 79.162 28.5979 80.6783L34.7365 91.3143C35.2139 92.1326 35.896 92.8823 36.7147 93.3597H36.7847C37.6033 92.8823 38.2172 92.2005 38.6946 91.3826L46.8796 77.2015L54.9946 63.021C56.0174 61.2005 56.0174 58.9785 54.9946 57.1579Z" fill="url(#paint0_linear_107_24604)"/>
<path opacity="0.25" d="M94.1458 56.7489L85.9608 42.6356L77.5714 28.1136C77.1842 27.4552 76.675 26.8767 76.0709 26.4091C75.7297 26.1365 75.3884 26 74.9793 26C70.6821 26 67.7491 26.1365 65.5665 26.1365C65.2256 26.1365 65.0209 26.5456 65.0891 26.8865L67.2034 38.7514C67.2034 38.8879 67.2034 39.024 67.1352 39.1605C66.3166 40.6606 66.3848 42.5012 67.2717 44.0013L74.7746 57.0912C75.3202 58.0456 75.5932 59.0683 75.5932 60.091C75.5932 61.1136 75.3202 62.1363 74.7746 63.0908L67.2034 76.1806C66.3169 77.6807 66.3169 79.5213 67.067 81.0214C67.137 81.1579 67.137 81.294 67.137 81.4305L65.0226 93.2254C64.9526 93.5663 65.1591 93.9754 65.5 93.9754C67.4782 93.9754 64.6814 94.1798 75.1854 94.1798C75.3902 94.1798 75.6628 94.1098 75.8676 94.0433C76.618 93.7707 77.0954 92.8841 77.5045 92.1344L85.8943 77.5442L94.011 63.431C95.306 61.3845 95.306 58.8625 94.1475 56.7489" fill="url(#paint1_linear_107_24604)"/>
<path d="M90.8037 57.158L74.502 28.9316C73.4789 27.1592 71.569 26 69.4547 26H36.8512C35.7599 26 34.7369 26.3409 33.7817 26.8862V26.9544C34.5653 27.4537 35.2198 28.1312 35.6917 28.9316L43.8767 43.1148C44.627 42.7739 45.5136 42.5695 46.3322 42.5695H59.8372C61.9515 42.5695 63.8621 43.6604 64.8844 45.501L71.6369 57.158C72.6599 58.9307 72.6599 61.1805 71.6369 63.0215L64.8844 74.6802C63.8614 76.4529 61.8832 77.6117 59.8372 77.6117H46.4001C45.5519 77.609 44.7142 77.423 43.9446 77.0664L35.7599 91.2476C35.288 92.0479 34.6336 92.7254 33.85 93.2247V93.2947C34.7365 93.84 35.8282 94.1809 36.9194 94.1809H69.5894C71.7038 94.1809 73.6144 93.0899 74.6367 91.2493L90.9392 63.0211C91.895 61.1805 91.895 58.9986 90.8037 57.158Z" fill="url(#paint2_linear_107_24604)"/>
<path d="M51.9933 57.1579L43.8766 43.1147L35.6916 28.9315C35.2197 28.1311 34.5653 27.4536 33.7817 26.9543H33.7148C32.878 27.4388 32.1929 28.1472 31.7366 28.9997L25.6649 39.5675C24.7784 41.0837 24.7784 42.9603 25.6649 44.4765L33.0313 57.2258C33.5769 58.112 33.7817 59.1347 33.7817 60.1574C33.7758 61.1813 33.5181 62.1881 33.0313 63.0889L25.6649 75.7693C24.7784 77.2855 24.7784 79.162 25.6649 80.6783L31.8038 91.3154C32.2812 92.1337 32.9634 92.8833 33.782 93.3607H33.852C34.6707 92.8833 35.2845 92.2016 35.7619 91.3836L43.9452 77.2043L52.0616 63.1593C53.0846 61.1804 53.0846 58.9985 51.9933 57.1579Z" fill="url(#paint3_linear_107_24604)"/>
<defs>
<linearGradient id="paint0_linear_107_24604" x1="27.9266" y1="93.2703" x2="55.7485" y2="93.2703" gradientUnits="userSpaceOnUse">
<stop stop-color="#00BA96"/>
<stop offset="0.52" stop-color="#00D9AF"/>
<stop offset="1" stop-color="#00D9AF"/>
</linearGradient>
<linearGradient id="paint1_linear_107_24604" x1="65.0566" y1="94.1804" x2="95.048" y2="94.1804" gradientUnits="userSpaceOnUse">
<stop stop-color="#008D85"/>
<stop offset="1" stop-color="#00FFE0"/>
</linearGradient>
<linearGradient id="paint2_linear_107_24604" x1="33.7817" y1="94.1801" x2="91.6402" y2="94.1801" gradientUnits="userSpaceOnUse">
<stop stop-color="#008D94"/>
<stop offset="1" stop-color="#00FFE0"/>
</linearGradient>
<linearGradient id="paint3_linear_107_24604" x1="24.9999" y1="93.3609" x2="52.8207" y2="93.3609" gradientUnits="userSpaceOnUse">
<stop stop-color="#00BA96"/>
<stop offset="0.52" stop-color="#00D9AF"/>
<stop offset="1" stop-color="#00FAAF"/>
</linearGradient>
</defs>
</svg>
