<svg width="120" height="120" viewBox="0 0 120 120" fill="none" xmlns="http://www.w3.org/2000/svg">
<circle cx="60" cy="60" r="60" fill="#988430"/>
<circle cx="60" cy="60" r="58.0781" fill="#7A6A2A"/>
<circle cx="60" cy="59.9999" r="56.8544" fill="#BA9F33"/>
<path fill-rule="evenodd" clip-rule="evenodd" d="M26.2329 53.5923C25.8931 53.2819 25.534 52.9709 25.2038 52.6605C24.8736 52.3501 24.5344 52.0391 24.1945 51.7287L23.1846 50.7687C23.0195 50.6035 22.8448 50.4583 22.6796 50.2925C22.5145 50.1472 22.3206 49.9821 22.1555 49.8362C20.8153 48.5645 19.4675 47.2928 18.1459 46.0205C19.5148 47.273 20.855 48.5165 22.224 49.7875L22.6995 50.2637C22.8646 50.4282 23.0393 50.5741 23.2044 50.7392L24.2137 51.6711C24.5536 51.9815 24.8838 52.2925 25.2236 52.6311C25.5635 52.9696 25.8937 53.2813 26.2336 53.5911L26.2329 53.5923ZM8.44668 53.4003C8.44668 53.4003 13.3203 53.9047 15.6992 54.2445C17.9027 54.5555 24.7961 55.6135 24.7961 55.6135L8.44668 53.4003ZM8.44668 53.4003C9.81564 53.5168 11.1846 53.6621 12.5536 53.808C13.2524 53.8759 13.9225 53.9533 14.5926 54.0211L15.6211 54.1383C15.9609 54.1863 16.2912 54.2349 16.631 54.2835L20.7091 54.9338L22.7475 55.2736C23.4176 55.3901 24.0876 55.5168 24.7865 55.6333C24.1164 55.5655 23.4176 55.4682 22.7475 55.3709L20.7091 55.0797L16.631 54.4781C16.2912 54.4295 15.9609 54.361 15.6211 54.313L14.592 54.1946C13.9219 54.1267 13.223 54.0295 12.5529 53.9514C11.184 53.7869 9.815 53.6115 8.44604 53.3984L8.44668 53.4003ZM24.311 56.8832C24.311 56.8832 19.1072 58.2042 17.3497 58.7091C15.6217 59.1847 10.3884 60.777 10.3884 60.777L24.3104 56.8839L24.311 56.8832Z" fill="#CFB66C"/>
<path fill-rule="evenodd" clip-rule="evenodd" d="M24.3104 56.8833C23.1552 57.2231 22.0064 57.5534 20.8345 57.8644L17.3587 58.7963C16.2035 59.1361 15.0547 59.4663 13.9027 59.8062L12.1747 60.2817C11.6019 60.4468 11.0195 60.5921 10.4275 60.7579C10.9997 60.5659 11.5827 60.3694 12.1555 60.2043L13.8835 59.6513C15.0387 59.2916 16.1875 58.9518 17.3395 58.5927C18.5139 58.3015 19.6697 57.9905 20.8441 57.7089C21.9603 57.4273 23.1353 57.1463 24.3104 56.8839V56.8833ZM11.1168 63.9809C11.6889 63.7671 18.2912 60.69 19.8252 59.9713C20.5933 59.6116 22.8256 58.8193 22.8256 58.8193L11.1168 63.9809Z" fill="#CFB66C"/>
<path fill-rule="evenodd" clip-rule="evenodd" d="M11.1169 63.9806C11.6212 63.7886 12.0973 63.5537 12.5825 63.3303L14.0193 62.6603L16.9031 61.2721C17.8631 60.8158 18.7962 60.3121 19.7863 59.8833C20.2913 59.6702 20.7962 59.4955 21.3005 59.3303L22.0685 59.0878C22.3303 59.0199 22.5735 58.9419 22.8365 58.874C21.8765 59.3303 20.866 59.7188 19.9047 60.1649C18.9447 60.6411 17.9629 61.0295 16.9722 61.4564L14.0404 62.7473C13.0561 63.146 12.0961 63.5729 11.1162 63.9806H11.1169ZM11.7569 66.6686C11.7569 66.6686 17.737 63.1639 19.7953 62.0375C20.873 61.4359 24.3585 59.7073 24.3585 59.7073L11.7569 66.6686Z" fill="#CFB66C"/>
<path fill-rule="evenodd" clip-rule="evenodd" d="M11.7574 66.6699C12.7667 66.0485 13.7958 65.4175 14.825 64.7768L16.361 63.8443C16.8851 63.5339 17.3901 63.2427 17.9245 62.9323C18.4486 62.6213 18.9536 62.3109 19.4874 62.0197C19.7415 61.8628 20.0077 61.7265 20.2835 61.612L21.0989 61.2043C22.1766 60.6802 23.2544 60.1458 24.3904 59.6895C23.3613 60.3403 22.3027 60.8939 21.2448 61.4661C20.7206 61.7573 20.1862 62.0197 19.6621 62.3109C19.1379 62.6021 18.633 62.9131 18.0986 63.1947C17.5744 63.5051 17.0694 63.7963 16.5357 64.0779L14.953 64.9419L11.7587 66.6699H11.7574ZM24.3104 60.4754C24.3104 60.4754 20.592 63.3298 19.3882 64.2424C18.1843 65.1551 14.6406 67.7183 14.6406 67.7183L24.3104 60.4754Z" fill="#CFB66C"/>
<path fill-rule="evenodd" clip-rule="evenodd" d="M45.6505 83.4949L43.7478 79.893L44.8544 75.388L52.7475 72.3397L49.3881 65.4469L51.0483 58.4856L54.1651 52.252L63.7964 50.7378L70.8736 43.9902L86.1555 45.1454L89.1552 61.4853L83.3785 82.0581L80.0876 92.709L66.7475 93.2139L60.5536 88.9227L53.3011 85.893L45.6505 83.4949Z" fill="#E2CC85"/>
<path fill-rule="evenodd" clip-rule="evenodd" d="M69.0489 83.3784C69.0489 83.3784 67.2038 84.2232 64.0569 84.0287C63.1462 82.8056 56.768 82.2328 56.768 82.2328C56.768 82.2328 55.9718 81.9903 54.5638 82.5727C53.1468 83.1487 51.8067 83.0776 50.5542 83.388C49.3017 83.6984 48.0582 82.0677 47.0982 81.7279C46.1382 81.3688 44.8652 80.5048 44.8652 80.5048L42.1772 80.2424L36.7795 77.9608L28.2041 69.4175L25.8739 73.0655L25.1552 77.58L27.7478 82.9298L34.7283 89.2888L48.3398 92.7448L56.4076 90.3679L66.5145 86.0959L69.0489 83.3778V83.3784Z" fill="#F1D789"/>
<path fill-rule="evenodd" clip-rule="evenodd" d="M20.6892 53.1845L22.4172 47.9518L24.4761 44.5726L31.1065 44.019L29.1161 49.8251L23.5731 59.6894L25.8739 68.4952L21.7964 70.5336L20.5433 68.6117L19.534 64.204L19.4662 59.2523L20.6892 53.1845Z" fill="#F4ECB4"/>
<path fill-rule="evenodd" clip-rule="evenodd" d="M28.1261 83.0195L26.8544 81.2428C26.8544 81.2428 26.5146 80.398 26.7092 79.6601C26.9012 78.9126 26.8736 78.8639 26.777 78.5823C26.6804 78.3008 25.8644 77.3299 25.913 76.4947C25.961 75.6499 25.8452 75.3683 26.466 74.6988C27.1162 74.0486 26.9223 72.9222 26.9223 72.9222L27.7671 73.4464L27.9591 73.1551C27.9591 73.1551 28.2695 73.3977 28.2695 73.7766C28.3373 73.2524 28.0557 70.8249 28.6964 70.2719C29.337 69.719 30.473 72.864 30.473 72.864L29.7741 68.3007L27.9776 63.6217L24.7834 59.3497L24.5914 54.6406V54.2329C24.5914 54.2329 23.1252 56.4857 22.7175 58.2649C22.4263 59.488 23.1252 60.9734 22.9799 62.7308C22.8628 64.4787 22.7175 64.3424 23.1444 65.0348C23.5712 65.7273 24.6106 67.1513 24.2029 68.1804C23.8439 69.0643 22.6202 68.4428 22.6202 68.4428C22.6202 68.4428 22.3776 69.1609 22.0474 69.4233C21.9309 68.9964 21.8048 68.7244 21.5719 68.4633C21.552 68.6284 21.504 68.8518 21.504 68.8518C21.504 68.8518 21.2903 68.1817 21.0765 67.3369C20.786 66.2112 20.4749 64.7257 20.1933 63.9296C20.0768 64.3859 19.7856 65.774 19.7856 65.774L19.9508 67.9103L20.7469 70.8422L21.5149 72.7622L22.2624 75.1116L22.912 76.6899L23.4362 77.8937L23.8925 80.6028L26.096 82.9324L27.2711 83.4572L28.1248 83.0201L28.1261 83.0195Z" fill="#F3E19D"/>
<path fill-rule="evenodd" clip-rule="evenodd" d="M21.8444 48.9124C21.8444 48.9124 20.2617 51.6004 19.806 54.3102C19.3503 57.0199 18.942 59.8833 19.23 63.5723C19.5212 67.2913 20.0748 69.5723 20.5215 71.2036C21.2895 73.9127 23.2787 77.6798 23.2787 77.6798L23.3465 77.5339C23.0122 76.9001 22.7453 76.233 22.5503 75.5435C22.2879 74.5143 22.1907 73.2913 21.9481 72.7377C21.7343 72.1847 21.3753 71.7086 21.2006 71.0289C21.0355 70.3787 21.0086 69.3495 20.5017 68.5828C20.2879 68.2718 20.0255 67.4564 19.9481 66.6411C19.8508 65.4174 19.9967 64.0484 19.8803 62.9227C19.6665 61.0487 19.5212 59.7771 19.7151 58.7959C19.9091 57.8148 20.9196 55.0295 21.5411 52.8158C21.9487 51.3982 21.7055 50.2039 22.4531 48.9707C23.2006 47.7476 23.6575 46.6699 23.822 45.9223C24.014 45.2427 21.8419 48.9124 21.8419 48.9124H21.8444Z" fill="#F2E8B0"/>
<path fill-rule="evenodd" clip-rule="evenodd" d="M29.3498 47.835C29.3498 47.835 28.5345 48.0782 28.146 48.505C27.7575 48.9127 27.5924 49.2526 27.0682 49.9418C26.5441 50.6311 26.5146 51.1943 26.0871 52.0583C25.6602 52.9031 24.7181 54.1748 24.6017 54.6311C24.4852 55.0874 24.2913 57.2231 24.0487 58.233C23.8349 59.243 24.2913 60.4858 24.2913 60.4858L24.8442 60.3687C24.8442 60.3687 24.8442 61.0874 25.3978 61.5732C25.9508 62.0487 26.0481 59.961 26.0481 59.961L28.1159 52.9806L31.2321 50.8641L31.5719 49.1553L29.3485 47.835H29.3498Z" fill="#F5EEC0"/>
<path fill-rule="evenodd" clip-rule="evenodd" d="M30.864 51.0005C30.864 51.0005 29.3978 51.0972 28.6797 51.622C28.3885 51.8351 28.272 52.0098 27.9616 52.2722C27.3888 52.7477 26.8058 53.1849 26.5248 53.8082C26.2138 54.429 25.8739 55.3711 25.641 57.1477C25.5437 57.8953 25.5437 58.5845 25.4758 59.1868C25.3786 60.0021 25.2333 60.6524 25.3107 61.1068C25.408 62.0386 26.3693 62.5244 26.4627 63.5823L28.4531 62.573L30.327 55.1842L34.3078 52.6882L32.055 50.1641L30.8614 50.9961L30.864 51.0005Z" fill="#E6DB9D"/>
<path fill-rule="evenodd" clip-rule="evenodd" d="M20.3636 100.755C20.3719 100.682 20.3802 100.609 20.3885 100.534C20.6791 98.0379 20.7284 96.146 20.9415 94.9614C21.2519 93.282 21.4656 92.6574 21.417 92.0289C21.3492 91.0196 21.2717 90.2817 21.369 89.5048C21.5143 88.4756 22.5242 87.2526 22.4954 86.4078C22.4756 85.7377 22.1357 85.3012 21.8445 84.8936C21.5533 84.4859 21.3204 84.146 21.3204 84.146C21.3204 84.146 23.3108 82.7771 23.2916 77.2622C23.3322 77.2737 23.3713 77.29 23.408 77.3108L24.3885 80.0968L25.0586 80.9121L27.6314 85.7083L30.9421 88.9224L35.8349 92.2132L38.9031 95.5521L39.2135 104.455L35.2039 109.659L34.5472 110.848C29.3304 108.229 24.5466 104.825 20.3629 100.754L20.3636 100.755Z" fill="#E5CB7A"/>
<path fill-rule="evenodd" clip-rule="evenodd" d="M32.6118 109.272C32.6118 109.272 32.6797 108.165 33.5923 107.446C33.7382 107.689 33.8349 107.923 33.8061 108.097C33.9712 107.806 35.1264 105.942 37.7382 105.456C40.3501 104.981 40.9811 103.078 40.9811 103.078L46.5241 98.0391L52.864 92.2042L60.5728 89.4951L64.1753 88.6112C64.1753 88.6112 64.2432 88.8736 64.1075 89.456C64.7769 89.408 66.2624 89.0682 67.8061 88.5242C68.4275 88.2816 69.0105 88.1844 69.3209 88.505C69.7773 88.9319 69.8451 89.9418 69.8739 90.5434C70.6214 90.3783 71.4854 89.6602 72.1779 89.728C73.2851 89.8445 74.2656 91.1456 75.392 91.1456C76.8774 91.1456 77.5469 90.233 78.5862 89.5143C79.2077 89.0874 80.1005 88.5543 80.6054 88.194C81.8093 87.3101 94.5472 83.417 94.5472 83.417L99.0131 83.7082L99.7318 88.5044L99.3478 101.042C99.3005 101.087 99.2531 101.135 99.2051 101.18L78.8992 111.786L50.752 116.101C44.4469 115.07 38.3624 112.978 32.7577 109.911L32.6137 109.271L32.6118 109.272Z" fill="#D8C173"/>
<path fill-rule="evenodd" clip-rule="evenodd" d="M22.0704 102.349C22.4704 101.513 22.8301 100.813 22.8935 100.563C22.9434 101.067 23.0349 102.174 23.2192 103.35C22.8322 103.021 22.4493 102.687 22.0704 102.349V102.349Z" fill="#F1D789"/>
<path fill-rule="evenodd" clip-rule="evenodd" d="M42.6317 114.148L46.272 113.136L46.5824 113.233C46.5824 113.233 46.7475 113.331 46.7475 113.66C47.2038 113.398 47.5923 113.446 47.8739 113.272C48.0192 113.583 48.1645 114.612 48.8058 114.738C49.4752 114.884 50.1939 114.447 50.9222 113.894C51.6403 113.321 52.4582 112.602 53.0771 112.311C53.3042 112.729 53.5053 113.16 53.6794 113.602C54.4947 112.952 55.9123 110.311 57.9315 110.359C58.5151 108.98 59.4901 107.802 60.736 106.971C62.6099 105.699 63.7843 105.602 65.2506 105.718C65.8329 104.962 66.5506 104.32 67.367 103.825C67.6096 103.923 68.2797 104.33 69.1149 103.942C69.9597 103.554 70.9107 102.049 72.1632 101.855C72.8381 101.762 73.5244 101.906 74.105 102.262C74.105 102.262 77.753 98.6406 80.2701 97.4368C80.1728 97.1456 79.9789 96.0486 82.9299 93.6211C83.095 93.767 82.9786 94.1747 83.095 94.1971C83.143 94.1971 83.863 93.8867 84.7744 93.1872C85.9008 92.343 87.2499 91.4592 88.0653 91.2166C89.6013 90.7603 91.2307 91.6921 91.2307 91.6921C91.3693 91.595 91.5237 91.5226 91.687 91.4784C92.0749 91.4105 92.3565 91.3619 92.5702 91.2864C92.551 91.7913 92.8326 92.6553 92.5702 93.4029C92.8742 93.5738 93.1962 93.7105 93.5302 93.8105C93.3658 94.1696 93.0061 95.0822 92.4045 95.5193C92.9088 95.7619 92.9766 96.0435 93.6954 96.2873C93.4042 96.695 92.9274 97.3945 92.7149 97.8233C92.5011 98.2797 91.7338 100.173 91.3939 100.891C91.0349 101.61 90.5498 102.93 90.3162 103.195C90.0826 103.46 89.2384 104.583 88.5882 105.136C89.1642 104.922 91.5206 104.204 92.5203 103.932C92.2227 104.369 90.7142 106.607 89.264 108.759C75.2171 117.178 58.2262 119.145 42.6272 114.158L42.6317 114.148Z" fill="#E0CD81"/>
<path fill-rule="evenodd" clip-rule="evenodd" d="M31.1041 50.7378C31.1041 50.7378 30.2599 50.7378 30.0948 50.8542C29.9297 50.9707 30.9396 51.2139 31.25 51.3304C31.5604 51.4469 32.2305 51.9806 32.4052 52.4082C32.5703 52.8158 38.473 55.1941 38.473 55.1941L42.6477 54.9803L44.0871 52.9918L41.3492 50.5938L43.2692 44.9336L40.7258 45.3413L34.6093 48.9893L31.5412 50.1643L31.1041 50.7378Z" fill="#DFC57C"/>
<path fill-rule="evenodd" clip-rule="evenodd" d="M40.272 52.612C40.3948 52.8109 40.6143 52.9292 40.848 52.9224C41.712 52.9224 42.5075 53.1362 42.8377 53.5727C43.3913 54.2722 44.9254 56.5051 44.9254 56.5051L48.5952 57.8255L48.832 53.5042L44.8224 50.7183L40.2592 52.3976V52.6114H40.2694L40.272 52.612Z" fill="#E5CC7C"/>
<path fill-rule="evenodd" clip-rule="evenodd" d="M39.5521 54.214C39.5521 54.214 40.2215 54.2626 41.0663 53.9516C41.9111 53.6405 43.2993 52.9711 43.9015 53.2335C44.7457 53.5925 44.5709 54.7189 45.4842 55.7295C46.0372 56.3509 47.0471 56.3317 47.6199 57.0018C48.1927 57.6719 50.1633 57.3609 50.1633 57.3609L50.9108 61.3929L47.9111 65.238L46.93 70.0143H42.8737L39.1681 68.5442L37.3428 64.1282L38.2554 59.6623L39.5521 54.214Z" fill="#D2C281"/>
<path fill-rule="evenodd" clip-rule="evenodd" d="M47.3984 54.4079C47.499 54.4389 47.6035 54.4552 47.7088 54.4565C47.5923 54.5538 47.3491 54.7669 47.4464 55.3205C47.5436 55.8741 47.854 56.573 47.5923 56.9999C47.8012 57.2283 47.9571 57.5002 48.0486 57.796C48.2137 58.2722 48.2624 58.7087 49.3395 58.7771C49.184 58.8728 49.0407 58.9869 48.9126 59.117C48.9126 59.117 49.6601 59.7672 50.039 60.3688C50.4268 60.3522 51.456 60.0322 51.456 60.0322L51.6697 60.1781L52.126 59.9861C52.126 59.9861 51.6992 59.821 52.0096 58.7823C52.3008 57.8696 52.5632 57.9183 52.5856 57.8504C52.608 57.7826 52.7993 56.8213 52.7993 56.4328C52.9446 55.9285 53.0611 54.3944 53.0611 54.3944L52.7507 51.0063L51.0035 49.9477L49.5827 48.5762L48.2425 51.1003L47.36 51.9803L47.2921 54.1647L47.3984 54.4079Z" fill="#E2C270"/>
<path fill-rule="evenodd" clip-rule="evenodd" d="M51.6019 51.5731C51.6019 51.5731 51.9123 52.4563 52.0294 53.1359C52.0707 53.0038 52.0936 52.8666 52.0973 52.7283C52.0973 52.7283 52.3398 54.0684 52.3878 54.622C52.4851 54.6022 52.5798 54.5734 52.6016 54.67C52.6234 54.7667 52.8448 55.8451 52.7936 56.4467C53.1979 55.7797 53.7573 55.2202 54.4243 54.8159C54.8128 54.5727 55.2691 54.311 55.7453 54.2911C56.4928 54.2719 57.0362 54.7673 57.9296 54.7673C60.0845 54.7673 62.0365 53.1846 63.4733 52.6995C64.5312 52.3398 65.4438 52.078 66.0845 51.495C66.3955 51.2332 66.9491 50.6508 67.4534 49.7862C68.1235 48.6342 68.8224 47.6313 69.5219 47.5052C69.2054 47.5634 68.8835 47.5861 68.5619 47.5731C68.5619 47.5731 68.7757 47.3593 69.1379 47.0681C69.5002 46.7769 69.9341 46.4179 70.5549 46.4179C71.6621 46.4179 72.215 46.5823 72.8365 46.5823C73.4579 46.5631 73.817 46.4179 73.817 46.4179C73.817 46.4179 74.4678 46.8742 75.9334 46.8742C77.3997 46.8934 78.3802 47.0195 79.1475 47.0879C79.9149 47.1564 82.487 46.8742 83.225 46.8959C83.7061 46.9145 84.1785 47.0301 84.6138 47.2358L82.2349 40.3238L73.6896 32.855L68.6022 36.4569L60.7763 44.2822L53.2038 47.0879L51.6211 48.8646V51.5731H51.6019Z" fill="#CCB360"/>
<path fill-rule="evenodd" clip-rule="evenodd" d="M68.5927 47.6117C68.5927 47.6117 68.8064 47.3985 69.1648 47.1073C69.5232 46.8161 69.9616 46.4565 70.5824 46.4565C71.689 46.4565 72.2426 46.6216 72.864 46.6216C73.4855 46.6024 73.8445 46.4565 73.8445 46.4565C73.8445 46.4565 74.496 46.9121 75.961 46.9121C77.4272 46.9313 78.4077 47.0574 79.1751 47.1253C79.9424 47.1931 82.5146 46.9121 83.2525 46.9333C83.7335 46.9514 84.2057 47.067 84.6407 47.2731L83.5629 44.1563L82.3111 41.7781L78.7379 37.8651C78.7379 37.8651 74.4499 35.3409 74.4173 35.3217C74.3981 35.3025 72.9319 34.9141 72.9319 34.9141L69.0483 37.2635L65.5245 46.3803L65.4567 48.3003L67.7376 49.3781C68.3104 48.4181 68.9421 47.6501 69.5341 47.5528C68.9997 47.611 68.592 47.611 68.592 47.611L68.5927 47.6117Z" fill="#D5B457"/>
<path fill-rule="evenodd" clip-rule="evenodd" d="M68.544 48.2624C68.2041 48.2816 67.9232 48.2137 67.8451 47.9712C67.5539 47.1558 67.3209 47.0393 67.0771 47.0393C66.8332 47.0393 66.5043 47.5635 66.3091 47.6115C66.1139 47.6595 65.8822 47.0099 65.8822 47.0099L65.6684 46.9126C65.6684 46.9126 64.4159 47.728 63.5328 48.6892C62.6495 49.6505 61.2025 51.2819 60.5523 51.5724C59.902 51.863 57.6684 51.9609 56.9043 52.126C56.1401 52.2912 55.2927 52.8448 55.1763 52.9708C55.0598 53.0969 55.5167 53.2326 55.5846 53.3587C55.6524 53.4752 54.8364 53.4265 54.7686 53.5507C54.7206 53.648 54.9606 54.2009 55.0796 54.4825C55.2879 54.3789 55.5165 54.3226 55.7491 54.3174C56.4966 54.2982 57.0406 54.7936 57.9334 54.7936C60.0889 54.7936 62.0403 53.2108 63.4771 52.7251C64.5356 52.366 65.4483 52.1036 66.0889 51.5212C66.3993 51.2595 66.9529 50.6764 67.4579 49.8124C67.8265 49.2204 68.1862 48.6668 68.5459 48.2592L68.544 48.2624Z" fill="#D2B257"/>
<path fill-rule="evenodd" clip-rule="evenodd" d="M37.632 96.3112C37.632 96.3112 37.44 95.5925 35.6608 93.7384C35.1559 93.2143 34.8455 92.7784 34.5056 92.4668C33.6608 91.67 33.1655 91.4568 32.5639 91.0005C31.2435 90.02 29.8067 90.02 28.7002 88.8162C27.5936 87.6124 26.304 85.3122 25.408 82.9615C24.5248 80.612 24.2816 79.8645 24.2816 79.7967C24.2816 79.7288 24.5248 79.2725 24.8352 79.3404C25.1456 79.4082 25.1456 80.0098 25.2237 80.1557C25.3783 80.3939 25.5537 80.6179 25.7479 80.8252C26.2042 81.35 26.8544 81.9772 27.1847 82.9128C27.1168 82.1167 26.8448 81.2335 26.8448 81.2335C26.8448 81.2335 28.5536 82.3112 30.0096 83.437C31.4759 84.5634 32.0775 84.9519 32.5056 85.67C32.9338 86.388 33.9424 88.2818 34.4256 88.8354C34.9088 89.389 41.5296 91.476 41.5296 91.476L44.6791 93.8242L46.2426 97.2514L45.0189 99.1714L42.6695 99.6764L38.8538 97.9676L37.632 96.3106V96.3112Z" fill="#D2B159"/>
<path fill-rule="evenodd" clip-rule="evenodd" d="M29.1552 84.5048C29.1552 84.5048 29.9513 85.7764 31.8931 86.9803C33.6409 88.0388 36.4076 89.0001 38.8742 89.5729C40.2912 89.9128 41.7088 90.1745 42.9804 90.1944C46.4076 90.2424 48.7667 89.2625 51.6896 88.9419C53.2723 88.7768 55.214 88.6507 57.2332 88.1739C59.8252 87.5524 61.3593 86.8529 63.447 85.8699C64.9612 85.171 66.35 84.6468 67.4758 83.9768C69.0585 83.0449 70.2137 82.0062 71.5539 81.6958C71.3888 82.1521 71.214 82.9675 69.8937 83.8123C70.5926 83.7924 71.5539 83.7444 71.5539 83.7444C71.5539 83.7444 70.622 84.2974 68.9811 85.5403C67.9712 86.3083 66.6316 87.6081 65.2627 88.4721C64.3788 89.0257 63.4175 89.4321 62.7865 89.7636C61.2505 90.6084 60.631 91.0353 59.6217 92.0676C59.9808 92.0484 60.0102 92.0676 60.0102 92.0676C60.0102 92.0676 58.7379 92.2328 57.8259 92.7179C57.6339 92.7179 57.3011 92.65 56.7187 92.8152C56.2624 92.9604 55.6601 93.2913 55.0393 93.4654C54.1555 93.7278 53.8649 93.6113 53.8649 93.6113L54.0102 93.9025C54.0102 93.9025 52.8582 93.8827 52.4742 93.9217C52.542 93.9409 52.5228 93.9704 52.5228 93.9704C52.4554 93.9817 52.3904 94.0046 52.3308 94.0382C52.146 94.1579 51.9428 94.2464 51.7292 94.3C51.6128 94.3192 51.5155 94.3192 51.3696 94.3486C51.4182 94.4651 51.7971 95.1166 51.9718 95.5006C51.8265 95.5979 49.6416 97.2484 49.6416 97.2484C49.7093 97.3551 49.7647 97.4691 49.8067 97.5883C49.8745 97.8014 49.904 98.1124 49.9718 98.2577C50.1363 98.5489 50.2336 98.5976 50.2336 98.5976C50.2336 98.5976 49.9718 98.6462 49.5148 98.7627C49.127 98.86 48.6508 99.0244 47.9788 99.1217C47.7727 99.1485 47.5652 99.1648 47.3574 99.1704C47.4547 99.3841 47.8816 100.199 47.095 101.141C46.3084 102.082 46.0659 102.219 45.8233 102.821C45.7012 102.729 45.5712 102.647 45.4348 102.578C45.1731 102.461 44.8134 102.287 44.6873 102.054C44.6138 102.365 44.5165 102.67 44.3961 102.966C44.1536 103.616 43.7945 104.258 43.7267 104.743C43.4643 104.452 42.9792 103.879 42.3091 103.995C41.639 104.112 41.1052 105.024 40.9888 105.287C40.9888 105.122 40.8723 104.996 40.8435 105.19C40.8236 105.403 40.455 107.636 38.3968 109.442C38.3776 108.985 38.3776 107.975 38.3289 107.646C38.1369 107.838 37.902 108.121 36.5036 108.724C35.1347 109.325 35.3516 109.927 35.3516 109.927C35.3516 109.927 35.2352 108.967 35.9731 107.956C36.7206 106.947 37.1769 106.471 37.1769 106.393C37.1648 106.315 37.1312 106.241 37.0796 106.18C36.9824 106.082 36.7884 105.966 36.7884 105.888C36.9049 105.84 38.0601 105.287 37.9923 104.141C37.9244 103.112 37.488 102.578 37.1769 102.199C37.1289 102.151 37.6339 101.792 37.5654 101.675C37.5168 101.607 36.896 101.151 36.8179 100.907C36.8362 100.762 36.8688 100.619 36.9152 100.48C36.983 100.267 37.0316 100.121 37.0124 99.9755C36.9638 99.7329 36.7014 99.0628 36.624 98.995C36.6918 99.0142 37.1769 98.995 37.1769 98.995C37.1769 98.995 36.7891 98.3736 36.7206 98.0824C36.6521 97.7912 36.5068 97.0238 36.4294 96.8785C36.5945 96.8977 37.0022 96.9265 37.0022 96.8785C37.022 96.7326 36.6432 96.49 36.8102 96.3025C36.9267 96.3217 37.15 96.419 37.3632 96.691C37.2467 96.38 37.0528 95.7784 36.6444 95.5358C36.8364 95.468 37.4892 95.2926 38.062 95.6324C38.6348 95.9723 38.83 96.4478 38.83 96.4478C38.83 96.4478 39.1699 96.7102 39.6947 97.0987C40.2963 97.5742 41.063 98.2507 42.2867 98.7294C42.5491 98.8753 43.2185 98.8753 43.7043 98.778C43.9158 98.7276 44.1186 98.6459 44.3059 98.5355C44.3735 98.4956 44.4452 98.463 44.5196 98.4382C44.4153 98.2287 44.2952 98.0274 44.1606 97.836C44.3257 97.836 44.5196 97.8558 44.5196 97.8558C44.5196 97.8558 44.6361 97.5934 44.112 97.0878C44.2284 96.9713 44.3744 96.8958 44.3744 96.6993C44.2092 96.6801 43.918 96.4376 43.8502 96.3403C43.9468 96.2724 44.0928 96.0491 44.2579 95.9812C44.112 95.8648 43.7529 95.379 43.5878 95.331C43.7455 95.2724 43.8982 95.201 44.0441 95.1172C44.0441 95.1172 43.2288 94.9035 42.9664 94.7288C42.704 94.5368 42.3161 94.2046 42.0832 94.1073C41.84 94.01 41.4131 93.962 41.2384 93.7675C41.4028 93.8161 41.6652 93.7675 41.8598 93.7675C42.0051 93.7675 42.0736 93.7867 42.1216 93.7867C42.1024 93.7188 42.1024 93.5729 42.4812 93.5249C42.6635 93.4974 42.8403 93.4417 43.0054 93.3598C43.0054 93.3598 42.6457 93.3406 42.2374 92.9521C41.8291 92.5636 41.4899 92.2532 41.2569 92.2046C41.0144 92.156 40.558 92.3697 40.2764 92.3499C39.888 92.3019 39.7228 92.1073 39.7228 92.1073C39.7228 92.1073 38.432 92.2238 35.568 90.4766C33.0918 88.9617 32.014 87.6222 32.014 87.6222C31.7823 87.5381 31.5583 87.434 31.3446 87.3112C30.4128 86.826 29.1212 85.8161 29.1603 84.4952L29.1552 84.5048Z" fill="#C2A44D"/>
<path fill-rule="evenodd" clip-rule="evenodd" d="M64.8736 26.2331C65.0982 26.3061 65.2978 26.4407 65.4496 26.6216C65.9059 27.1457 66.1971 28.1358 65.1584 29.1944C65.5661 29.3397 65.7344 29.3864 66.0902 29.3397C65.7312 29.7672 64.9158 30.6798 64.8672 31.476C64.8185 32.1262 65.2262 32.3208 65.2262 32.3208C65.2262 32.3208 64.6048 33.0389 64.576 34.2408C64.8694 33.9098 65.1906 33.6045 65.536 33.3281C66.2547 32.7553 67.2448 32.1051 67.9149 31.6974C67.9058 31.8683 67.9288 32.0394 67.9827 32.2017C67.9827 32.2017 69.2345 31.1726 70.2867 31.6296C70.7622 31.8433 70.5485 32.5128 70.5485 32.5128C70.5485 32.5128 71.1993 32.2702 71.6557 32.7265C72.112 33.1829 72.7571 34.3598 73.088 34.8161C73.2333 35.0299 73.6121 35.4376 74 36.0686C74.5298 36.9521 74.9722 37.8852 75.3209 38.8545C75.3401 38.3496 75.4662 37.5637 76.9037 38.0584C78.3405 38.5633 79.9712 39.6219 81.3401 41.7064C82.7091 43.7909 83.0483 46.1441 83.7376 47.0401C84.4365 47.9041 85.1552 49.3409 85.2038 49.9432C85.2525 50.5454 84.9901 52.4865 86.4269 57.739C86.8345 56.1083 87.456 52.4865 87.456 52.4865L87.7958 49.2923L88.1843 39.4088L77.8637 30.8347L69.7958 24.98L64.5433 25.4849L64.8729 26.2325L64.8736 26.2331Z" fill="#CAA13E"/>
<path fill-rule="evenodd" clip-rule="evenodd" d="M84.0486 40.9414C84.0486 40.9414 83.9027 39.9814 81.4758 38.3494C79.0483 36.7378 77.1552 36.7378 75.408 35.3689C74.0678 34.2911 72.67 31.815 71.76 30.9996C70.8761 30.1938 70.7308 27.8636 70.7308 27.8636L73.7113 25.3676L78.144 18.9606L81.8912 14.8345L83.687 17.3305L86.183 20.2623L87.5712 26.1458L88.0761 34.7577L84.0441 40.942L84.0486 40.9414Z" fill="#B59544"/>
<path fill-rule="evenodd" clip-rule="evenodd" d="M87.0489 51.2638C87.1224 49.9578 86.9611 48.6492 86.5728 47.4001C85.9328 45.4097 84.5344 41.8756 83.8848 40.5521C83.6224 39.0859 83.8169 38.9694 84.0985 38.8043C84.3801 38.6391 85.4387 38.0363 86.0185 35.9211C86.5984 33.8059 88.3974 33.7367 88.3974 33.7367L89.504 32.9214L91.184 37.1249L92.6496 40.9214L93.1059 43.8244L93.4457 46.2999L92.6496 51.5332L88.7181 55.0865L87.0483 51.2638H87.0489Z" fill="#C89D3A"/>
<path fill-rule="evenodd" clip-rule="evenodd" d="M32.1849 109.593V109.485C32.2666 109.434 32.3388 109.369 32.3981 109.293C32.4659 109.196 32.5152 109.08 32.5632 109.051C32.6605 109.002 33.1168 108.859 33.3593 108.905C33.6019 108.951 34.2432 109.215 34.583 109.196C35.2819 109.177 36.0973 108.642 37.3888 108.886C39.3305 109.245 39.7869 110.565 40.9133 111.312C41.6813 111.837 42.4761 111.604 42.5926 111.604H42.8544C42.903 111.604 43.2621 111.196 43.4566 111.216C43.8451 111.235 43.8835 111.556 44.1261 111.575C44.6989 111.643 45.8061 111.284 46.3597 111.43C46.6928 111.534 46.9539 111.795 47.0585 112.128C47.175 112.487 47.0777 112.943 46.7961 113.206C46.1945 113.759 45.6217 114.283 45.5053 114.742C45.6534 114.855 45.7957 114.975 45.9315 115.103C41.1278 113.879 36.5059 112.028 32.1849 109.599V109.593Z" fill="#CEB052"/>
<path fill-rule="evenodd" clip-rule="evenodd" d="M83.8835 90.1943C83.8835 90.1943 85.3978 88.1751 85.9226 87.1748C86.4467 86.1438 84.2624 73.0878 84.2624 73.0878L88.6509 58.7095L88.5338 54.0298C88.5338 54.0298 88.7475 49.7092 89.2525 47.8353C89.8547 48.913 91.7287 50.2142 92.1363 50.9034C92.3283 49.5825 92.9805 46.7966 92.8839 43.8257C93.2429 44.3786 94.1069 49.9422 94.1069 49.9422L94.9709 53.6894L96.0973 57.6702L97.3498 61.8743L98.0973 64.7774L98.5242 65.4762L98.8839 66.6993L99.2237 68.0202L100.204 71.1172L100.78 73.6606L101.237 78.2724C101.336 78.6255 101.407 78.9859 101.45 79.3502C101.469 79.8551 101.382 80.1463 101.382 80.234C101.382 80.3217 101.548 81.3406 101.48 82.1079C101.382 82.8759 101.382 83.4769 100.78 84.0279C100.178 84.579 99.7997 87.8724 99.7997 87.8724L98.7219 87.1543C98.7219 87.1543 98.9357 86.1732 98.4307 85.2804C97.9258 84.3876 96.9453 84.2026 96.3917 84.3486C95.8387 84.465 94.7322 84.6391 94.3725 84.9502C94.0327 85.2606 93.1981 86.2218 92.4307 86.659C91.4707 87.235 89.9066 87.2804 89.072 87.4743C88.2272 87.6663 87.2954 88.2423 86.3143 88.9111C85.545 89.4092 84.7328 89.8375 83.8874 90.1911L83.8835 90.1943Z" fill="#CCA847"/>
<path fill-rule="evenodd" clip-rule="evenodd" d="M83.8835 111.408C83.8835 111.408 83.9475 111.449 84.0711 111.517C90.9687 108.286 97.149 103.705 102.247 98.0453C102.191 96.0805 102.119 94.0664 102.04 93.3202C101.875 91.7374 101.992 90.1259 101.943 89.1941C101.894 88.2622 101.37 84.4658 101.128 83.4853C100.865 82.5048 100.36 82.019 100.283 82.019C100.215 82.0389 99.8067 83.8642 99.8067 84.323C99.8067 84.7819 99.7095 85.8866 99.7095 86.1682C99.6416 86.1483 99.6128 85.9762 99.6128 85.9058C99.5155 86.1483 99.3991 86.5758 99.3504 86.6245C99.3018 86.6731 99.4183 86.2168 99.3504 86.1195C99.2826 86.0222 99.1584 86.0709 99.1853 85.8283C99.1968 85.6845 99.2195 85.5418 99.2531 85.4014C99.2531 85.4014 98.9619 85.8283 98.7488 86.9157C98.5351 87.9934 98.5351 88.0229 98.4576 88.1195C98.3898 88.2366 98.0013 88.6245 97.9815 88.7704C97.9623 89.0322 98.3411 89.2946 98.3699 89.4398C98.3891 89.683 98.0301 90.8088 97.9136 91.3598C97.7971 91.9109 97.8458 92.9906 97.7216 93.5442C97.6243 94.0491 97.5296 94.3403 97.1975 94.5534C97.44 94.6021 97.673 94.6699 97.673 94.6699C97.673 94.6699 98.0128 96.1067 97.1488 97.3304C96.8384 97.7573 96.761 97.9518 96.4307 98.3403C95.7799 99.0584 95.2749 99.8763 95.2263 100.408C95.1927 100.251 95.17 100.092 95.1584 99.932C95.1584 99.932 94.1491 101.107 93.7216 101.777C93.1687 102.641 92.4013 102.592 92.1856 102.806C91.9699 103.02 91.9232 103.408 91.9936 103.719C91.8016 103.767 91.4407 103.835 91.1975 104.583C91.081 104.971 90.7898 105.351 90.3335 105.612C89.8771 105.873 89.3235 105.952 89.0419 106.02C89.2845 106.088 89.3818 106.088 89.4983 106.165C89.353 106.408 88.6829 106.786 87.9354 107.272C87.1879 107.728 86.8282 108.398 86.6439 108.835C86.4519 109.243 86.1683 109.505 85.712 109.554C85.904 109.67 86.1882 109.942 86.3335 110.029C86.1197 110.078 85.7575 110.078 85.1104 110.632C84.4307 111.195 84.1978 111.36 83.8867 111.408L83.8835 111.408Z" fill="#C39D3C"/>
<path fill-rule="evenodd" clip-rule="evenodd" d="M70.3744 115.907C70.7462 115.646 71.1488 115.433 71.5731 115.272C73.0874 114.67 74.6893 114.553 75.3203 114.36C75.9226 114.168 76.3981 113.903 77.1456 113.757C77.1258 113.928 77.1091 114.088 77.0912 114.239C74.8874 114.931 72.6432 115.489 70.3712 115.907H70.3744Z" fill="#D2BA6B"/>
<path fill-rule="evenodd" clip-rule="evenodd" d="M98.304 76.078C98.304 76.078 97.9936 77.7574 97.44 78.816C96.8864 79.8745 96.288 81.3401 96.288 81.3401C96.2917 81.0099 96.3307 80.6809 96.4045 80.359C95.7056 80.7667 94.0064 81.7478 93.5245 82.1843C93.0682 82.592 92.3008 83.3107 92.1069 83.6505C92.5632 82.311 93.0388 81.1072 93.1168 80.5536C92.418 81.0585 89.1552 83.7478 87.4567 85.5244L82.1652 89.806C81.5545 90.1355 80.9257 90.4299 80.2816 90.688C79.3696 91.0758 78.2919 91.406 77.4957 91.7171C77.7095 91.1443 78.0487 90.6387 78.5248 90.1536C79.0298 89.678 80.544 88.0371 80.777 87.2736C80.9908 86.4774 81.0394 86.0019 80.7578 85.3318C80.4954 85.3996 79.8938 85.4291 79.4861 85.5456C79.0784 85.662 78.6413 86.0985 78.6413 86.0985C78.6413 86.0985 78.9517 84.3219 79.6218 82.6425C79.1168 82.6617 78.2528 82.807 78.2528 82.807C78.2528 82.807 79.4567 80.7878 81.5168 79.3804C80.8859 79.5147 80.2685 79.7062 79.6724 79.9526C78.4685 80.4576 77.1482 81.2051 76.1677 81.6128C76.7207 80.8448 80.6042 75.3024 82.9152 70.1369C85.2192 64.9817 86.08 63.6614 86.585 60.8947C86.8468 59.5257 86.777 57.5027 86.8468 55.6908C86.9146 53.8944 87.138 52.2828 86.9927 51.2051C87.5943 51.9526 89.8471 54.0595 89.9245 58.7686C89.9924 63.4771 87.7696 69.8368 85.41 73.2633C85.986 73.4284 87.4784 73.623 89.0119 70.9593C90.5453 68.2956 90.5268 67.552 91.0804 66.4448C91.1482 66.9984 91.1284 67.1923 91.1284 67.1923C91.1284 67.1923 93.362 64.4838 94.4199 61.0758C94.6336 62.542 95.2647 63.8336 94.274 66.5228C93.3908 68.9497 92.2356 69.5424 92.2356 69.5424C92.2356 69.5424 92.8084 69.4451 93.6525 68.9401C93.7984 69.2992 93.7696 69.7081 94.0122 69.8528C94.2548 69.9974 94.585 70.2412 94.6336 70.4742C94.8954 70.0857 95.3031 69.5904 95.4298 69.2217C95.3325 69.9897 95.2647 73.3478 95.6218 75.0566C96.37 74.9888 97.1367 74.9401 97.6608 73.5904C97.3018 74.9113 97.3018 75.7068 97.5444 76.8332C97.9424 76.5619 98.3015 76.0761 98.3015 76.0761L98.304 76.078Z" fill="#C0993A"/>
<path fill-rule="evenodd" clip-rule="evenodd" d="M73.0778 22.5633C73.0778 22.5633 72.3303 22.8737 71.0586 22.8737C69.952 22.8737 70.2624 22.4468 68.5344 22.4468C65.8746 22.4468 56.5831 23.9828 54.9517 23.961C53.8932 23.9418 58.5242 24.4173 58.5242 24.4173L70.3597 24.5825L72.738 24.3905L73.6218 22.5921L73.0778 22.5633Z" fill="#A88F33"/>
<path fill-rule="evenodd" clip-rule="evenodd" d="M42.3885 45.6991C42.3885 45.6991 40.8736 46.8543 40.233 47.7382C39.5923 48.622 39.2525 49.2038 38.5242 49.9225C38.6951 49.929 38.8659 49.9061 39.0291 49.8546C39.0291 49.8546 39.0291 50.0466 38.9126 50.0972C39.1165 50.0744 39.3198 50.145 39.4656 50.2892C39.2518 50.4057 38.6694 50.9887 39.1258 51.678C39.4656 52.2022 40.1843 52.2502 40.1843 52.2502C40.1843 52.2502 40.0192 52.7263 40.7085 52.6777C42.1939 52.6098 43.8541 51.959 44.6208 52.1241C45.3888 52.3161 45.8253 52.3865 46.3686 53.3286C46.9446 54.2604 47.4464 54.4063 47.4464 54.4063C47.4464 54.4063 47.7863 53.5417 47.7088 52.2508C47.9875 51.555 48.1419 50.8157 48.1651 50.0665L47.6602 46.3481L45.4566 43.5615L42.6023 45.1442L42.3885 45.6972V45.6991Z" fill="#E3C571"/>
<path fill-rule="evenodd" clip-rule="evenodd" d="M45.0969 45.1455C45.0969 45.1455 45.3107 45.6504 46.2041 45.6984C46.1068 45.9122 46.1068 45.9416 46.1363 46.1061C46.1555 46.2712 46.1843 46.5138 46.1843 46.5138C46.2826 46.4662 46.3716 46.4011 46.4467 46.3218C46.4953 46.5355 46.398 46.8747 46.4467 47.1179C46.4767 47.2659 46.5255 47.4093 46.592 47.5448C46.6061 47.5116 46.6224 47.4793 46.6406 47.4482C46.6598 47.3995 46.8326 47.9723 47.3107 48.4082C47.3103 48.3412 47.3268 48.2751 47.3587 48.2162C47.366 48.3379 47.4063 48.4554 47.4752 48.556C47.4394 48.539 47.4067 48.516 47.3785 48.4882C47.3785 48.4882 47.4265 50.0242 47.6889 50.8184C47.7328 50.7671 47.7718 50.7118 47.8054 50.6533C47.8054 50.6053 47.7862 51.0808 47.7376 51.4213C47.6697 51.7611 47.7184 52.2367 47.7184 52.2367C47.8934 52.0989 48.0858 51.9846 48.2905 51.8968C48.5817 51.7797 49.0585 51.4207 49.3491 50.6245C49.5176 50.1736 49.6476 49.7092 49.7376 49.2363C49.8314 49.4171 49.8962 49.6114 49.9296 49.8123C49.9494 50.0549 50.4057 49.9288 50.4057 49.9288L50.503 48.8703L51.079 46.4722L51.6032 44.9867L54.1273 41.0552L58.688 37.5429L62.6688 38.4555L66.0275 33.8923L60.2412 30.4165L54.7654 30.9893L49.7958 37.8725L45.8156 44.1157L45.0969 45.1448L45.0969 45.1455Z" fill="#D8B65B"/>
<path fill-rule="evenodd" clip-rule="evenodd" d="M73.7767 35.1844C73.7767 35.1844 73.4368 35.2523 72.4563 35.7604C71.4759 36.2686 70.7962 36.4299 70.4173 37.1774C70.0384 37.9249 70.0096 38.5176 70.0096 38.5176C70.0096 38.5176 70.6797 38.2264 71.0682 38.1291C71.4759 38.0324 71.9322 38.0612 71.8835 38.2264C71.8369 38.3396 71.772 38.4444 71.6915 38.5368C71.6915 38.5368 72.4595 38.5176 72.4391 38.8964C72.4186 39.2753 72.2938 39.6926 72.1485 39.8769C72.0026 40.0689 71.401 40.3531 71.3331 40.5764C71.168 41.0328 71.401 41.052 71.3133 41.4206C71.2455 41.7803 70.9255 42.4792 69.8765 43.7022C68.7987 44.9259 68.3405 45.7899 68.3405 45.7899C68.3405 45.7899 67.8163 44.8094 67.5443 43.9646C67.3523 44.0612 66.3213 44.634 66.3213 44.634L63.9328 36.314L63.9808 35.7604C63.9808 35.7604 64.1946 35.4987 64.2432 35.0129C63.8842 34.8964 63.8355 34.7992 63.3594 34.3435C62.8832 33.8878 62.4954 33.3336 61.6999 32.9547C61.5834 32.7409 61.4375 32.4504 60.8551 32.3332C60.2727 32.2161 59.9232 32.1201 59.9232 32.1201C59.9232 32.1201 60.2336 32.003 60.3795 31.7604C60.0199 31.8091 59.7293 31.9256 58.9427 31.9064C58.1466 31.8865 58.0589 31.8577 57.6224 31.9256C57.1859 31.9934 56.6624 32.188 56.4672 31.5179C56.2535 31.3528 55.7971 31.4987 55.4087 32.0708C55.0202 32.643 54.8845 33.1 54.137 33.3233C54.0844 33.6528 53.969 33.9692 53.7971 34.2552C53.5834 34.6148 53.2435 34.9739 52.7872 35.5076C52.0685 36.3524 52.185 37.7406 51.0394 38.7992C49.8842 39.8571 51.2314 35.8667 51.2314 35.8667L53.0759 31.4507L58.3283 26.3147L66.4839 25.7617L67.28 29.9857L71.2608 31.3547L73.7754 35.1896L73.7767 35.1844Z" fill="#D3AE4D"/>
<path fill-rule="evenodd" clip-rule="evenodd" d="M75.0682 36.1165L71.641 31.1751L69.2429 29.33C69.2429 29.33 67.5341 26.185 67.4176 26.0877C67.3203 26.0199 65.7088 25.8452 64.6797 25.7773L64.8717 26.2529C65.0963 26.3258 65.2959 26.4604 65.4477 26.6413C65.904 27.1655 66.1952 28.1556 65.1565 29.2141C65.5642 29.3594 65.7325 29.4061 66.0883 29.3594C65.7293 29.7869 64.9139 30.6996 64.8653 31.4957C64.8167 32.146 65.2243 32.3399 65.2243 32.3399C65.2243 32.3399 64.6029 33.0586 64.5741 34.2599C64.8676 33.929 65.1887 33.6236 65.5341 33.3473C66.2528 32.7713 67.2429 32.1236 67.913 31.7159C67.9038 31.887 67.9268 32.0583 67.9808 32.2209C67.9808 32.2209 69.2327 31.1917 70.2848 31.6481C70.7603 31.8618 70.5466 32.5319 70.5466 32.5319C70.5466 32.5319 71.1975 32.2893 71.6538 32.7457C72.1101 33.202 72.7603 34.3764 73.0906 34.8333C73.2359 35.0471 73.6147 35.4548 74.0026 36.0852C74.5325 36.9688 74.975 37.9021 75.3235 38.8717C75.3427 38.4833 75.4208 37.9399 76.0915 37.9399L75.072 36.1146L75.0682 36.1165Z" fill="#CAA13E"/>
<path fill-rule="evenodd" clip-rule="evenodd" d="M23.6896 50.1557C23.6896 50.1557 23.447 49.5534 23.6896 48.379C23.9322 47.2046 24.311 46.651 24.4371 44.923C24.5632 43.195 25.6896 41.0395 25.6896 41.0395L28.8058 39.6226L31.0099 40.2242L31.6602 43.1758L28.8736 44.7118C28.8736 44.7118 28.7283 45.3621 27.9418 45.8862C27.1552 46.4104 26.0678 46.8181 25.8061 47.3525C25.6496 47.6797 25.5354 48.0255 25.4662 48.3816C25.4662 48.3816 24.6701 48.2165 24.1946 48.7406C23.6896 49.275 23.7088 49.7506 23.6896 50.1582V50.1557Z" fill="#F4EFC8"/>
<path fill-rule="evenodd" clip-rule="evenodd" d="M29.9808 49.3688C29.9808 49.3688 29.7184 49.534 29.5245 49.9448C29.3325 49.6344 28.8736 47.7893 28.8544 46.1291C28.8352 44.469 28.736 44.0575 29.12 43.4853C29.504 42.9131 31.0099 42.3103 30.7962 41.2799C30.5824 40.2994 29.689 39.8917 28.592 40.1733C27.824 40.3653 27.2525 41.9986 26.4563 42.8139C25.8541 43.4354 25.136 43.3381 24.9421 43.6779C24.6797 44.1343 24.9223 44.5906 24.8448 44.8818C24.825 44.9791 24.5824 45.5032 24.1453 46.1343C23.2621 47.4059 21.7671 49.2024 21.5725 50.8139C21.6403 49.9013 21.5923 49.8821 21.8349 48.8722L21.689 48.6296L22.649 45.484L23.2704 42.892L24.6592 38.5515L27.1053 34.1151L29.4842 31.4546L31.9597 31.6197L32.2509 35.3381L33.6685 42.3192L36.649 45.989L31.872 49.2037L29.9789 49.3688H29.9808Z" fill="#EBCC73"/>
<path fill-rule="evenodd" clip-rule="evenodd" d="M31.4663 50.6882C31.4663 50.6882 31.0586 50.7855 30.9127 50.708C30.7668 50.6306 30.6221 50.5429 30.6701 50.4456C30.7181 50.3483 30.9805 50.1839 30.9805 50.1058C30.9917 49.9591 30.8843 49.8301 30.738 49.8146C30.5146 49.7858 30.4468 49.9311 30.4468 49.9311C30.4468 49.9311 30.233 49.7666 30.0589 49.7391C30.1619 49.7265 30.2656 49.7198 30.3693 49.7192C30.101 49.5977 29.8164 49.516 29.5245 49.4767C29.7671 49.3314 30.2433 48.9039 30.5537 48.9039C30.8641 48.9039 31.0586 48.8559 31.01 48.6907C30.9613 48.5256 30.7188 48.2831 30.457 48.1858C30.5537 48.0693 30.6221 47.8946 30.3892 47.4178C30.146 46.9423 30.2433 46.6216 30.3213 46.5058C30.3892 46.3599 30.6317 46.0981 30.7482 45.933C30.8647 45.7679 30.962 45.5445 31.1559 45.428C31.2532 45.3602 31.5636 45.236 31.8746 45.1176C32.2145 45.0011 32.4961 44.8552 32.69 45.0011C32.9037 45.1464 32.8065 45.341 32.8065 45.341C32.8065 45.341 33.4765 45.0978 34.0781 45.4088C34.6804 45.6994 36.1466 45.8843 36.1466 45.8843L36.6721 46.9429L33.1962 49.9234L31.7594 50.6421L31.4682 50.6901L31.4663 50.6882Z" fill="#E5C66B"/>
<path fill-rule="evenodd" clip-rule="evenodd" d="M36.2912 45.8156C36.2912 45.8156 35.2134 46.5343 34.9708 46.796C35.1161 46.8159 35.3587 46.9132 35.2614 47.0584C35.1449 47.2037 34.446 47.7087 34.0576 48.1848C33.6499 48.6604 33.2614 49.2626 33.1257 49.5538C32.9804 49.8156 31.8732 50.5829 31.495 50.6796C32.2912 50.6796 33.8931 49.6991 34.4947 49.6991C34.4755 49.9903 34.6598 50.3205 34.9996 50.3493C35.3395 50.3781 36.32 50.5631 37.6403 49.7477C38.9606 48.9516 38.5241 48.3589 39.0771 47.9711C40.1356 47.2716 40.5625 46.6501 41.1449 46.2623C41.7273 45.8744 42.0288 45.7861 42.0288 45.7861C42.0288 45.7861 42.048 45.4949 42.2208 45.5244C42.3172 45.5354 42.3995 45.599 42.4345 45.6895C42.4345 45.6895 43.4444 44.9708 44.7385 44.7768C44.7083 44.7633 44.6842 44.7392 44.6707 44.709C44.6707 44.709 44.7673 44.6604 44.7872 44.6117C44.7872 44.6117 44.855 44.5144 44.9036 44.5631C44.9523 44.6117 45.0201 44.9708 45.1174 45.1167C45.3312 45.0194 45.7388 44.1068 45.7388 44.1068L46.72 41.301V38.7378L45.952 38.8837L40.192 41.3298L36.6963 44.9516L36.2886 45.8156H36.2912Z" fill="#E6BD62"/>
<path fill-rule="evenodd" clip-rule="evenodd" d="M52.8736 33.2431C53.1852 33.1675 53.4839 33.0463 53.76 32.8834C53.6436 33.1944 53.6436 33.5343 53.1386 34.2722C52.6336 35.0101 52.6144 35.117 52.2068 35.8837C51.7991 36.6799 51.7504 37.8255 51.362 38.3298C51.5361 38.2452 51.7229 38.1896 51.9149 38.1653C51.9149 38.1653 51.5271 38.5051 51.362 38.8642C51.1968 39.2232 50.9056 39.9707 50.1876 40.4277C49.4695 40.8847 48.5562 41.1752 47.5757 42.253C46.5946 43.3109 45.5853 44.6511 45.0797 45.133C45.3421 44.6767 45.7012 43.764 45.7984 43.1624C45.8957 42.5608 45.7786 41.8415 45.9437 41.0459C46.1088 40.2504 46.1088 39.677 46.9037 38.2882C47.6986 36.8994 49.0592 32.0744 49.0592 32.0744L51.9911 31.1426L52.8749 33.2399L52.8736 33.2431Z" fill="#B6933F"/>
<path fill-rule="evenodd" clip-rule="evenodd" d="M50.7572 31.466C50.7572 31.466 49.874 32.7377 49.6314 33.8641C49.3889 34.9905 49.6116 34.8932 49.4663 35.4468C49.3794 35.7844 49.3794 36.1384 49.4663 36.4759C49.7722 35.9832 50.191 35.5703 50.6881 35.2715C51.5233 34.7671 52.2029 34.4075 52.6081 33.9806C53.0157 33.5243 53.3556 32.7767 54.2388 32.2039C53.8797 32.1553 53.3748 31.9902 53.2788 32.0119C53.6385 31.6043 54.7156 30.9828 55.8029 30.2353C56.8807 29.4673 56.8129 29.1575 58.5607 28.3908C57.9879 28.4881 57.7159 28.3422 57.2397 28.3908C57.4317 27.9831 58.1037 27.7886 58.7757 27.1191C59.4477 26.4497 58.3489 25.459 58.3489 25.459L53.2289 28.5559L50.7533 31.4686L50.7572 31.466Z" fill="#C49937"/>
<path fill-rule="evenodd" clip-rule="evenodd" d="M36.864 29.1553L36.9805 28.2234L38.4467 25.874L39.9808 21.7479V16.1069L39.8643 12.8448L40.1069 10.7085L40.2912 10.0295L40.4858 9.76709L41.7376 10.4173L43.4663 12.7668L43.6314 17.3012L41.9514 24.4564L37.1552 29.6896L36.864 29.1553Z" fill="#DFC068"/>
<path fill-rule="evenodd" clip-rule="evenodd" d="M40.6797 9.50453C40.6797 9.50453 39.9117 9.52437 39.7479 12.7186C39.584 15.9129 39.5047 17.5922 39.3882 19.1749C39.2717 20.7577 39.0004 21.7183 38.864 22.6508C38.7277 23.5833 38.6503 24.8543 38.2138 25.6313C38.0218 25.9903 37.6116 27.1167 36.6503 27.9615C35.5725 28.8933 33.9623 29.5442 33.7184 29.5929C33.2909 29.6895 31.1258 29.9033 30.2426 30.389C29.9322 30.5541 29.3978 30.7481 28.8058 31.3017C27.6308 32.3596 26.0679 34.2527 24.9415 36.5343C23.2135 39.9423 21.4855 49.5634 21.4855 49.5634L21.874 48.9132C21.874 48.9132 21.9226 48.0492 22.7866 46.5343C23.6314 45.0201 23.3888 43.3209 24.5632 40.4178C25.0196 39.3113 25.5924 37.8745 26.2912 36.6508C27.3984 34.6604 28.738 32.9516 30.0877 32.0197C32.2912 30.5055 34.7188 30.1753 34.7188 30.1753L37.3306 28.4473C37.3306 28.4473 37.7869 27.5641 38.3892 26.5541C39.2333 25.1372 40.3092 23.5545 40.544 21.2537C40.9037 17.8457 40.0391 15.6127 40.0877 13.5935C40.1364 11.5743 40.1556 10.0889 40.5639 9.72917C40.9722 9.36949 40.6804 9.50581 40.6804 9.50581L40.6797 9.50453Z" fill="#A88F33"/>
<path fill-rule="evenodd" clip-rule="evenodd" d="M40.6797 24.7473C40.6797 24.7473 41.8317 21.9121 42.3591 19.3975C42.4564 18.8926 42.6503 18.3882 42.6989 17.9806C42.9415 15.6017 43.0093 14.6212 42.6989 13.3201C42.4564 12.3601 41.5245 11.4948 41.0388 10.8241C40.5633 10.1246 40.3399 9.86408 40.4372 9.71688C40.5345 9.56968 40.9127 9.32904 41.2813 9.35784C42.0732 9.38088 42.821 9.72792 43.3498 10.3178C44.0973 11.1818 44.6893 14.1143 44.6893 14.1143L45.3121 17.9838L46.8948 22.8574L40.681 24.7511L40.6797 24.7473Z" fill="#C99E3D"/>
<path fill-rule="evenodd" clip-rule="evenodd" d="M51.5046 21.7965C51.5046 21.7965 51.2908 21.8932 50.903 21.7965C50.9367 22.1197 50.7867 22.4345 50.5145 22.6119C50.1068 22.4468 46.2905 22.777 46.2905 22.777C46.2905 22.777 44.5139 22.466 43.9603 20.1165C43.5724 18.553 44.2515 16.3981 44.0281 14.9805C43.6883 12.8929 43.2128 12.4845 43.1641 11.8349C43.1155 11.1853 43.0668 11.0196 43.0668 10.6119C42.8531 10.5633 42.727 10.4954 42.5139 10.4954C42.4652 10.3034 42.5619 10.1357 42.3488 9.7959C42.4652 9.84454 43.2614 9.94182 44.1932 10.825C44.9612 11.5437 44.9612 11.8055 45.0771 11.9514C45.2224 12.0967 46.3974 13.1034 46.9024 14.1069C47.4073 15.1105 48.3878 18.3105 48.6112 18.8346C48.679 19.0484 48.8249 19.2621 49.1872 19.7473C49.7504 20.4468 50.5753 21.6033 51.5072 21.7953L51.5046 21.7965Z" fill="#B58634"/>
<path fill-rule="evenodd" clip-rule="evenodd" d="M45.2141 12C45.8023 12.9501 46.3306 13.9359 46.7962 14.9517C47.369 16.2426 47.7088 17.3011 48.4276 18.1651C48.0391 17.0394 47.3498 14.8256 46.9421 14.039C46.4858 13.207 45.554 12.311 45.2141 12.0006V12Z" fill="#A88F33"/>
<path fill-rule="evenodd" clip-rule="evenodd" d="M38.6118 27.9616C38.6118 27.9616 37.6313 28.2041 35.8061 29.1654C35.2038 29.4758 34.6317 29.7376 34.0781 29.9808C32.64 30.631 31.0976 31.232 29.8739 31.5635C29.9712 31.68 30.0192 31.728 30.0192 31.728C30.0192 31.728 30.0192 32.2041 30.2816 32.4755C30.1363 32.6214 28.1939 33.9417 28.7673 38.359C29.1552 38.2137 29.6115 38.0192 29.6793 38.0192C29.7965 38.039 29.8253 38.359 29.9705 38.359C30.1158 38.359 30.592 38.167 31.0969 37.5142C31.0777 37.7766 30.7865 40.4173 32.3494 42.1939C32.6406 41.8541 33.3785 40.7277 33.3785 40.7277L33.3977 40.3686C33.3977 40.3686 33.4656 39.1161 33.8739 37.9705C34.2822 36.8249 35.0777 35.9801 35.0777 35.9801L39.232 30.048L38.6105 27.9609L38.6118 27.9616Z" fill="#E6C367"/>
<path fill-rule="evenodd" clip-rule="evenodd" d="M34.7283 36.6722C34.5381 36.8066 34.3286 36.9113 34.1069 36.9826C34.0391 36.74 33.9418 35.9048 34.5146 35.0895C35.1847 34.1084 36.6503 32.8367 37.0579 31.8255C37.3203 31.1746 37.2039 29.5439 39.5341 27.4562C41.8643 25.3685 42.7763 24.6504 42.7763 24.6504L46.5434 22.7573L51.1744 24.5826L48.8736 33.6002L47.0874 37.8242L39.9834 36.4847L34.7277 36.6722H34.7283Z" fill="#DCBA5A"/>
<path fill-rule="evenodd" clip-rule="evenodd" d="M37.4399 34.2232L38.3238 33.1166V32.33C38.3238 32.33 39.3043 32.0676 40.3622 30.9899C41.4201 29.9121 42.8863 27.8443 44.1779 27.9704C45.4694 28.1163 45.5955 30.7761 45.6441 31.5243C45.6927 32.2724 45.8579 33.9704 46.1196 34.8836C46.4108 35.7963 42.974 39.2523 42.974 39.2523L40.6399 41.0289L37.4399 34.2232Z" fill="#E9CE77"/>
<path fill-rule="evenodd" clip-rule="evenodd" d="M40.1747 43.437C40.1747 43.437 40.8934 42.3106 40.3667 42.0681C40.6771 41.3692 41.2499 40.6313 41.2499 40.6313C41.2499 40.6313 41.6576 39.622 42.9779 38.3791C44.2982 37.1362 45.1142 36.3106 45.328 35.4761C45.4597 34.9322 45.5314 34.3755 45.5417 33.8159C45.6845 33.9325 45.8372 34.0364 45.998 34.1263C46.2118 34.2236 47.2211 35.0582 47.0758 36.7382C46.9305 38.4182 46.3078 39.117 46.3078 39.117C46.3078 39.117 45.7062 39.7186 45.2793 40.0297C44.8224 40.3401 44.6579 40.6991 43.8905 40.7286C43.9694 40.6659 44.058 40.6166 44.1529 40.5826C44.1529 40.5826 43.3568 40.486 42.9292 40.8738C42.5017 41.2617 41.5929 42.4566 41.1366 42.8162C40.6803 43.1074 40.1766 43.4377 40.1766 43.4377L40.1747 43.437Z" fill="#CDAE50"/>
<path fill-rule="evenodd" clip-rule="evenodd" d="M72.4563 24.5529C71.3093 24.1349 70.1039 23.8991 68.8839 23.8541C66.8448 23.7862 63.8643 23.9027 60.9421 23.9219C57.7965 23.9411 54.9421 22.8442 50.9811 22.6502C50.3309 22.2617 48.6771 20.5626 43.5149 24.1645C43.8253 24.1453 47.2627 23.3683 48.4563 24.864C49.6602 26.3494 49.3203 28.8736 49.1559 29.4752C48.8448 30.8154 47.8349 32.7667 47.4279 34.1357C47.0208 35.5046 47.1168 36.224 46.8256 37.184C46.5344 38.144 45.8938 38.6208 46.272 39.7274C46.777 39.417 47.04 39.417 47.8835 37.5238C48.7271 35.6307 48.5536 34.281 49.952 32.679C51.321 31.0675 53.6 28.8633 54.4666 28.3098C55.3331 27.7562 62.2138 24.1837 69.4183 27.5917C71.1559 27.4074 72.457 24.5523 72.457 24.5523L72.4563 24.5529Z" fill="#D2A83E"/>
<path fill-rule="evenodd" clip-rule="evenodd" d="M46.4173 23.2321C46.4101 23.1592 46.394 23.0874 46.3693 23.0184C46.3019 22.8764 46.2134 22.7454 46.1069 22.6299C46.1069 22.6299 44.3981 22.3195 43.5341 22.4161C42.0192 22.5812 40.6502 24.4552 40.0096 25.4164C39.3689 26.3777 38.5728 27.8625 37.7088 28.6299C37.7182 28.5551 37.701 28.4794 37.6601 28.4161C37.6601 28.4161 37.7088 28.484 37.6121 28.5812C37.5155 28.6785 37.5149 28.7265 37.5635 28.7732L37.7094 28.9185C37.7574 28.9185 39.0976 28.3163 40.9229 26.6145C42.8646 24.8379 44.3501 23.9265 45.127 23.6142C45.5414 23.4381 45.9745 23.3099 46.4179 23.2321H46.4173Z" fill="#C29637"/>
<path fill-rule="evenodd" clip-rule="evenodd" d="M79.5635 15.9321C79.5635 15.9321 79.2524 16.32 78.864 16.7475C78 17.6601 76.8736 18.6886 75.9123 19.7472C75.0003 20.7571 73.9712 21.5436 72.8153 22.864C71.6595 24.1843 70.3193 25.6499 69.9801 26.0774C69.6697 26.5049 69.4272 27.2038 69.4272 27.5628C69.262 27.4464 69.0681 27.3203 69.0681 27.3203C69.1498 27.4727 69.2474 27.616 69.3593 27.7478C69.6019 28.0876 69.9801 28.5158 70.1747 28.7769C70.4134 29.1093 70.5847 29.4853 70.679 29.8835C70.7955 29.9027 71.543 30.0486 72.4755 28.5145C73.408 26.9804 74.6304 25.3011 74.6304 25.3011L76.5721 22.4172L77.7958 19.9712L79.3318 17.2332L79.5654 15.9321H79.5635Z" fill="#AC8132"/>
<path fill-rule="evenodd" clip-rule="evenodd" d="M81.554 13.9712C81.554 13.9712 80.3789 14.9312 79.9226 15.5072C79.4663 16.0832 78.3866 17.5949 78.3866 17.5949L78.7751 17.5462L80.7463 15.799L81.5143 14.4301L81.5533 13.9738L81.554 13.9712Z" fill="#A88F33"/>
<path fill-rule="evenodd" clip-rule="evenodd" d="M81.1942 91.1262C81.1942 91.1262 81.175 90.33 81.6217 89.8545C82.078 89.3784 83.2332 88.6795 84.3596 86.058C85.486 83.4366 85.6115 82.8446 85.6115 82.8446C85.6115 82.8446 83.5923 84.5726 82.3475 84.9803C82.6387 84.378 82.8038 83.9512 82.9497 83.6401C82.7846 83.4948 82.0857 83.3297 82.0179 83.2523C82.4057 82.8638 82.6195 81.9121 83.406 81.2811C84.416 80.5131 86.2604 79.1934 87.694 78.0171C89.1276 76.8408 91.9462 74.1048 92.3059 73.3086C92.5196 73.619 92.5676 73.8129 92.5676 73.8129C92.5676 73.8129 91.1507 75.658 90.4128 76.8324C89.7619 77.8424 89.8105 78.4152 89.8105 78.4152L91.1507 77.8392C91.1507 77.8392 91.5385 79.276 89.7817 81.4609C90.5497 81.1697 90.8595 81.3444 91.296 81.1012C90.5772 81.5582 89.5872 82.1796 88.6553 83.8878C87.7427 85.5966 86.4998 87.587 84.4032 88.8292C82.3641 90.14 81.1891 91.1204 81.1891 91.1204L81.1942 91.1262Z" fill="#A67A2E"/>
<path fill-rule="evenodd" clip-rule="evenodd" d="M75.9322 25.5633C75.9322 25.5633 75.136 27.2228 75.0195 28.5143C75.0003 28.8254 74.9222 29.0679 74.9222 29.427C74.903 30.5822 74.9901 31.8737 74.7302 32.4753C74.633 32.2327 74.5843 32.0676 74.487 31.971C74.3418 32.3787 74.0794 33.6503 73.8656 34.1259C73.769 33.8155 73.5552 32.7377 73.575 31.466C73.5949 30.1943 73.623 29.9511 73.623 29.6894C73.575 30.0772 73.3126 30.602 73.2154 30.9124C73.0701 30.6507 72.905 30.3108 72.7104 30.0292C72.5939 30.2212 72.4486 30.5047 72.3226 30.6507C72.3027 30.5342 72.2547 30.2231 72.2253 29.7867C72.2061 29.2817 72.1766 28.6315 72.2061 28.4951C72.2541 28.2334 72.6624 27.2043 73.5264 26.2622C74.5555 25.1358 75.6141 22.9713 75.9245 22.3012C76.2349 21.6311 77.5552 18.8452 77.5552 18.8452H78.5651L77.0989 22.1847C77.0989 22.1847 76.2157 24.01 75.7594 24.6807C75.303 25.3515 74.3418 27.2734 73.9142 28.0209C74.2246 27.6132 74.487 27.3995 74.7981 27.011C75.0989 26.739 75.9334 25.5646 75.9334 25.5646L75.9322 25.5633Z" fill="#8C6228"/>
<path fill-rule="evenodd" clip-rule="evenodd" d="M81.5731 13.8442C81.4082 14.352 81.1475 14.8234 80.8051 15.233C80.2029 15.9518 78.9114 16.9124 78.281 17.6791C77.705 18.4266 76.553 20.4657 77.0765 22.883C77.2685 22.3588 77.6301 21.3201 78.5914 20.145C79.5526 18.97 80.5818 17.6209 81.0874 16.5726C81.5917 15.514 81.6595 14.6794 81.6595 14.6794L81.8515 14.4369L81.735 13.8833L81.5699 13.8442L81.5731 13.8442Z" fill="#CBA94C"/>
<path fill-rule="evenodd" clip-rule="evenodd" d="M101.233 78.2425C101.233 78.2425 100.845 77.1846 100.728 76.2233C100.612 75.262 100.92 75.0713 100.563 73.9712C100.349 73.3011 99.9616 73.3952 99.8643 73.3011C99.767 73.207 99.6992 72.1945 99.7184 71.6409C99.7376 71.0873 99.6992 70.3692 99.6019 70.0582C99.4566 69.9417 99.3593 69.8444 99.1456 69.1264C98.903 68.4076 98.7865 68.0486 98.67 67.8355C98.5536 67.6224 98.2131 67.4278 98.2131 67.214C98.2131 66.7865 98.6016 66.5638 98.6016 66.446C98.5824 66.2035 98.2912 66.398 98.2131 66.3296C98.1164 66.2131 98.4563 65.5142 98.3302 65.4169C98.2816 65.3689 97.9417 65.7766 97.854 65.6601C97.7568 65.543 97.6403 64.3878 97.4656 63.6211C97.3011 62.8736 97.1257 62.3302 97.1065 62.1068C97.0873 61.8931 95.7664 58.126 95.4464 57.2134C95.1885 56.4422 94.9714 55.658 94.7961 54.864C94.6988 54.4076 94.631 53.4752 94.5824 53.5724C94.5337 53.6697 94.5632 54.1452 94.4851 54.126C94.4172 54.1062 94.1747 52.4467 94.0972 52.1843C94.0294 51.9219 93.6211 51.0323 93.5212 50.3884C93.424 49.7376 93.2108 48.0384 93.0649 46.8832C92.919 45.728 92.8512 45.2524 92.8512 44.9632C92.875 44.2556 92.836 43.5473 92.7347 42.8467C92.5427 41.623 92.1587 40.1376 91.822 39.2742C91.1718 37.6428 89.4432 33.4681 89.134 32.4294C89.134 32.167 89.4739 32.3129 89.4739 32.3129C89.4739 32.3129 90.318 34.4294 90.9395 36.0601C91.5417 37.6915 92.1145 39.1283 92.2604 39.2742C92.3769 39.4195 93.2896 41.0214 93.6972 43.6428C94.1049 46.2643 94.2502 48.6816 94.4934 50.2931C94.6099 51.0611 94.7072 51.8758 94.9497 52.6912C95.2115 53.575 95.6192 54.4876 96.1536 55.8854C96.6099 57.0604 96.9497 58.0409 97.134 58.8857C97.3478 59.9635 97.3478 60.7788 97.4739 61.3132C97.591 61.7696 97.7651 62.6816 98.1734 64.0012C98.5817 65.3209 99.1827 67.0208 99.5904 68.0787C100.387 70.1952 100.742 71.9622 100.863 72.9043C100.969 73.8752 101.329 77.2345 101.231 78.2438L101.233 78.2425Z" fill="#A88F33"/>
<path fill-rule="evenodd" clip-rule="evenodd" d="M81.6217 13.7278L81.5731 13.8443C81.5731 13.8443 81.7184 13.893 81.6896 14.0875C81.6916 14.3537 81.6754 14.6197 81.6409 14.8837C81.5929 15.2235 81.4956 15.4853 81.4764 15.699C81.4764 16.1554 81.5443 16.6795 80.9004 17.9806C80.7084 18.3397 80.59 18.6501 80.4928 18.8638C80.2502 19.388 80.2016 19.4661 79.9878 19.7086C80.3276 19.5166 81.5513 18.7486 82.1721 18.8638C81.7452 19.1064 81.0944 19.5826 80.6867 20.204C80.784 20.2232 81.1916 20.3013 81.8387 20.204C82.9164 20.0389 84.1203 19.6504 85.1782 19.7278C86.334 19.7957 85.8777 18.3397 85.8777 18.3397L84.544 15.4078L82.0198 13.6318L81.6217 13.7285V13.7278Z" fill="#BE9C44"/>
<path fill-rule="evenodd" clip-rule="evenodd" d="M88.2041 35.6897C88.2041 35.6897 87.0777 34.5633 86.6214 30.6977C86.1651 26.8142 86.2624 21.0977 86.2624 21.0977L85.3497 18.8647C85.3497 18.8647 85.1577 17.3793 84.6797 16.8263C84.2016 16.2734 83.2627 15.3409 82.8352 14.8846C82.4077 14.4283 81.9225 13.8068 81.6313 13.7095C81.7766 13.467 82.4275 12.098 84.9222 12.0788C87.4169 12.0596 88.1862 13.4478 88.4467 13.9527C88.7072 14.4577 89.8835 16.6407 90.32 20.8007C90.7277 24.9556 90.7475 25.2667 90.6797 26.7035C90.631 27.4996 90.3686 29.3441 89.9117 31.3146C89.4944 32.9851 89.0381 34.8494 88.2029 35.6935L88.2041 35.6897Z" fill="#A17C34"/>
<path fill-rule="evenodd" clip-rule="evenodd" d="M84.672 39.0003C85.0474 39.0274 85.4224 38.9428 85.7497 38.7571C86.1088 38.7379 87.4099 38.903 88.4096 37.6313C88.4774 37.9219 88.6528 38.7091 88.1958 39.408C88.439 39.1648 88.7981 39.0681 88.8467 39.0003C88.8659 39.3593 89.2057 40.4659 87.7689 43.1552C88.1568 42.7283 88.6131 42.7475 89.0208 42.6989C89.0406 43.2038 89.312 44.9024 88.5939 45.8157C88.1184 46.4371 87.3414 46.2425 87.3414 46.2425C87.3528 46.1069 87.3528 45.9705 87.3414 45.8349C87.3222 45.5725 87.2249 45.3107 87.2934 45.136C86.918 44.9645 86.576 44.7276 86.2835 44.4365C85.4387 43.6403 84.3417 42.2816 84.2643 41.2717C84.167 40.1453 85.1769 39.9027 85.1769 39.9027C85.0923 39.827 85.0202 39.7385 84.9632 39.6403C84.9145 39.4758 84.8659 39.2134 84.672 39.0003Z" fill="#8C6228"/>
<path fill-rule="evenodd" clip-rule="evenodd" d="M77.1839 26.7866C77.1839 26.7866 77.1353 26.7188 76.8735 27.0292C76.9222 26.7188 76.9708 26.4269 76.99 26.1453C77.1139 25.8846 77.2742 25.6429 77.4662 25.4273C77.3203 25.7178 77.223 25.9802 77.223 25.9802C77.223 25.9802 77.5827 25.3101 78.1068 24.9025C78.4659 24.6113 78.9222 24.4756 79.1161 24.2036C79.3299 23.9124 79.2812 23.8637 79.3299 23.8151C79.3299 23.8151 79.806 23.5047 80.5343 22.5914C80.631 22.4749 80.7769 22.3489 80.8742 22.2324C81.0387 22.1645 81.4271 21.9898 81.8835 21.7562C82.3596 21.4945 82.8934 21.1354 83.2236 20.9882C83.8739 20.697 84.5638 20.7265 84.8838 20.2695C85.1263 20.2017 85.3881 19.4733 85.3401 18.8525C85.6991 18.9978 87.5436 20.1434 88.1753 22.6484C88.6316 24.425 87.8156 27.1629 87.4758 28.4839C87.1359 29.8049 87.0879 30.7847 86.6118 31.3863C86.0095 32.1831 84.0684 33.3063 83.5923 33.8625C83.1846 34.3188 81.9615 35.474 82.0095 36.3085C82.0582 36.93 82.8249 37.2685 82.9907 37.3863C83.1564 37.5041 83.1551 37.6487 83.4662 37.5783C83.7772 37.5079 83.8931 37.3645 84.0198 37.3645C84.1651 37.3837 84.1651 37.4132 84.2329 37.4132C84.2821 37.4117 84.331 37.4051 84.3788 37.3933C84.3788 37.3933 84.3302 38.2772 82.2623 38.5453C82.1164 38.5652 81.9711 38.6132 81.7862 38.6426C82.0294 38.5261 82.1747 38.5261 82.4371 38.1671C82.1459 38.1185 81.3107 38.0698 81.0969 38.002C81.1647 37.8855 81.3881 37.5745 81.5724 37.4292C81.7375 37.2839 81.5532 37.2372 81.4079 37.3127C81.1578 37.4829 80.9178 37.6675 80.6892 37.8657C80.4467 38.0794 80.2329 38.3706 79.8444 38.6337C79.7279 38.2452 79.7471 37.5073 80.2041 36.9735C80.087 36.9927 79.8636 37.3325 79.6505 37.2647C79.612 36.9106 79.6349 36.5525 79.7183 36.2061C79.8348 35.769 80.4659 35.0023 80.4659 35.0023L83.5142 29.5553L84.1644 25.4292L77.1839 26.7853V26.7866Z" fill="#92723A"/>
<path fill-rule="evenodd" clip-rule="evenodd" d="M77.0195 27.0196C77.0195 27.0196 76.8544 27.1361 77.1846 27.3594C77.136 27.4273 77.0195 27.6698 76.8736 27.835C76.7091 28.027 76.5337 28.146 76.4659 28.3111C76.3206 28.651 76.2041 28.8839 76.2041 29.0298C76.2041 29.1758 76.1555 30.1076 75.7478 30.7092C75.6019 30.923 75.4368 31.282 75.3203 31.5246C75.0777 31.9514 74.864 32.2926 74.8153 32.4846C74.7187 32.8244 74.6508 33.7562 74.6508 33.7562C74.6508 33.7562 74.8646 33.4938 74.942 33.3972C74.8249 33.6398 74.6988 33.9015 74.5145 34.0961C74.631 33.9988 74.9708 33.7562 75.5436 33.2513C76.3398 32.5818 77.5827 31.4554 79.0976 30.5633C78.6406 30.7284 78.2528 30.7284 77.9424 30.777C78.1849 30.5345 80.3692 27.9713 81.5148 27.7287C81.5844 27.6405 81.619 27.5298 81.6121 27.4177L80.631 27.321L78.6406 27.7479L78.35 26.2119L77.0195 27.0177V27.0196Z" fill="#B18E3E"/>
<path fill-rule="evenodd" clip-rule="evenodd" d="M80.185 35.7572C80.185 35.7572 79.9226 36.019 79.68 36.6699C79.4933 36.4749 79.3332 36.256 79.2038 36.019C78.8448 35.4174 78.2918 34.65 77.0003 35.0872C76.9811 34.6795 76.9517 34.4657 77.0003 34.1745C77.2141 34.1265 77.8643 33.6024 78.5146 32.835C78.9715 32.3108 79.3984 31.7086 79.6896 30.9419C79.8816 30.796 80.2138 30.5534 80.6496 30.2718C81.271 29.8449 82.0186 29.2619 82.135 28.6116C81.8438 28.7281 81.2224 29.0193 80.2899 28.9713C80.6496 28.8062 81.2026 28.6315 81.1347 27.9128C81.2806 27.8155 81.3971 27.7476 81.3971 27.7476C81.2877 27.7111 81.1726 27.6947 81.0573 27.699C81.0374 27.6312 81.0086 27.5345 80.8435 27.5825C80.6784 27.6305 80.6515 27.6312 80.6298 27.699C80.5619 27.7188 80.3386 27.699 80.1734 27.8161C80.0083 27.9332 79.552 28.3204 79.3773 28.3883C79.4451 28.2718 79.5418 28.0977 79.5418 28.0977C79.5418 28.0977 79.0662 28.1457 78.7264 28.2897C78.105 28.5035 77.3869 28.892 76.6586 29.2702C76.7264 29.1537 76.7558 29.0782 76.8038 29.0564C76.8518 29.0347 76.969 29.0084 76.969 28.9886C76.969 28.9688 76.921 28.7966 76.9498 28.7268C77.1675 28.2656 77.4244 27.8238 77.7178 27.4065C78.0576 26.9496 78.1254 26.2993 78.1254 26.2993L79.6109 25.5518L83.7856 24.5918L86.4947 24.7569L86.1549 26.6308L84.5549 29.9025L83.1859 32.883L81.6224 34.7089L80.1856 35.7572H80.185Z" fill="#543E26"/>
<path fill-rule="evenodd" clip-rule="evenodd" d="M86.9517 27.648C86.9517 27.648 85.3204 29.6672 84.864 29.9783C85.1552 29.3568 86.9517 25.6576 87.602 24.6285C87.4567 24.512 87.2621 24.512 87.7184 22.7085C87.3306 23.6205 87.1943 24.0967 86.8743 24.3392C86.5543 24.5818 86.5146 24.5043 86.2983 24.5043C86.3391 24.4304 86.3559 24.3457 86.3463 24.2618C86.3463 24.2618 84.9773 24.0967 84.0423 24.0967C83.1072 24.0967 81.2564 24.6016 80.2266 25.0093C79.4112 25.3491 78.9549 25.3491 78.6637 25.5623C78.3725 25.8048 78.2074 26.0672 78.0615 26.1351C77.945 26.2029 77.392 26.3776 77.2653 26.5619C77.1488 26.7539 76.9549 26.9696 76.9549 27.0183C76.9549 27.0669 76.9063 27.1354 77.0522 27.0861C77.1002 27.0669 77.4599 26.8723 77.8676 26.6298C78.4205 26.3194 79.0906 25.9603 79.5764 25.7466C80.9645 25.193 81.4016 25.2903 82.0224 25.1738C82.6727 25.0573 83.6052 24.7853 84.226 24.7853C84.8474 24.7661 86.0224 24.7853 86.2944 24.8339C86.178 24.9312 86.0807 25.0477 86.1293 25.4554C86.1293 25.5719 86.032 25.6979 85.9373 25.9795C85.6468 26.7757 85.0932 28.096 84.7853 28.7661C84.3584 29.6781 83.8733 30.4455 83.6333 30.921C83.3933 31.3965 82.8653 32.649 82.3424 33.3191C81.8196 33.9891 81.5463 34.3968 81.3824 34.5427C81.2186 34.6887 80.0423 35.552 80.13 35.8631C80.3437 35.7952 81.6935 35.2871 82.6733 34.1837C83.6532 33.0803 83.8484 32.4071 84.6151 31.8048C85.3818 31.2026 85.984 30.1933 86.3431 29.3587C86.6439 28.5818 86.576 28.3392 86.9543 27.6499L86.9517 27.648Z" fill="#806031"/>
<path fill-rule="evenodd" clip-rule="evenodd" d="M51.7964 42.7188C51.7964 42.7188 51.5827 43.602 51.0969 44.0391C50.6214 44.4667 49.7766 44.8353 49.68 45.554C49.5635 46.2721 50.5248 46.6318 50.5248 46.6318C50.5248 46.6318 50 47.4958 50 48.146C50 48.8161 49.9808 48.9422 50.0486 49.5828C49.9716 49.6323 49.9061 49.6978 49.8566 49.7748C49.8566 49.7748 49.9046 50.3963 50.3808 50.7841C50.8569 51.1719 51.264 51.4055 51.5065 51.3083C51.5436 51.3874 51.576 51.4686 51.6038 51.5515C51.6038 51.5515 51.9635 50.6388 52.206 49.8427C52.4486 49.0273 52.6624 49.1431 52.759 48.0462C52.8556 46.9492 53.911 45.0657 53.911 45.0657L54.631 43.4561L53.4566 42.5435L51.7964 42.7182V42.7188Z" fill="#B6903C"/>
<path fill-rule="evenodd" clip-rule="evenodd" d="M53.9808 44.3008C53.7386 44.5494 53.5151 44.8155 53.312 45.0969C53.0016 45.5245 52.759 45.9123 52.3027 46.0781C51.8464 46.2438 51.5552 46.2425 51.584 46.6995C51.6128 47.1565 52.0403 47.3497 52.2829 47.5827C52.5453 47.8253 52.759 48.2329 52.6425 48.6899C52.7878 48.6221 53.0502 48.544 53.2928 48.0198C53.5353 47.4957 55.232 44.3014 55.232 44.3014H53.9808V44.3008Z" fill="#685026"/>
<path fill-rule="evenodd" clip-rule="evenodd" d="M60.672 36.9321C60.672 36.9321 60.8173 36.5442 60.672 36.2626C60.5261 35.9714 59.6429 35.8741 59.2058 35.5439C58.7494 35.2041 58.1958 34.9679 57.7395 35.117C57.8074 34.9519 58.0794 34.5922 57.856 34.5148C57.6422 34.4469 56.8467 34.806 56.633 34.9711C56.4192 35.1362 55.9334 35.3301 55.8368 35.4473C55.7402 35.5644 55.5744 35.7871 55.4771 35.6898C55.3798 35.622 55.3318 35.4473 55.1667 35.5439C55.0016 35.6405 54.2067 36.2914 54.0602 36.6703C53.9136 37.0492 53.584 37.894 52.5939 38.8546C51.6038 39.8153 51.1763 40.4373 51.4675 40.7964C51.7587 41.1554 51.895 40.8937 51.9437 41.2041C51.9811 41.5088 51.9646 41.8177 51.895 42.1167C51.7786 42.6217 51.5846 43.0972 51.8464 43.1945C52.5165 43.4082 53.1674 43.0025 53.3126 43.1266C53.6038 43.3884 53.1475 44.3305 53.8368 44.5148C54.5363 44.7068 55.2256 44.3497 55.2256 44.3497L57.769 42.9807L60.2157 41.6898L61.4675 39.2137L60.7962 37.1458L60.6682 36.9321H60.672Z" fill="#D4B968"/>
<path fill-rule="evenodd" clip-rule="evenodd" d="M58.2719 42.8449C58.2719 42.8449 57.8444 42.1947 58.3692 41.6212C58.894 41.0478 59.6409 40.8059 59.9321 40.4468C59.8767 40.3784 59.8023 40.3279 59.7183 40.3015C59.9116 39.9557 60.2066 39.6775 60.5631 39.5047C60.4179 39.3595 60.2233 39.243 60.0102 39.243C59.534 39.243 59.2422 39.5342 58.8057 39.5342C58.3788 39.5342 58.3302 39.3204 58.3302 39.3204C58.3302 39.3204 59.0489 39.2526 58.9804 38.9319C58.9126 38.5921 58.7884 38.5921 58.7884 38.5921C58.7884 38.5921 60.1766 38.0161 60.4191 37.7089C60.6617 37.4017 60.6329 37.0388 60.6815 36.8935C60.846 36.8935 61.8073 36.3886 62.1958 36.6023C62.5843 36.8161 62.3123 37.3985 62.3123 37.3985C62.3123 37.3985 63.4879 36.5147 64.087 35.6481C64.6111 35.6967 64.855 35.2891 65.239 35.2891C65.7151 35.2891 66.4627 35.9393 66.608 37.3275C66.7052 38.1236 66.8505 38.5799 66.7052 39.9879C66.6374 40.7841 66.6566 42.4839 66.8972 43.3275C67.0617 43.9975 67.4502 43.9297 67.4502 43.9297C67.3906 44.1339 67.2724 44.3161 67.1103 44.4539C66.8479 44.6964 66.8191 45.3377 66.8479 45.5803C66.8866 45.7576 66.9354 45.9326 66.9939 46.1044C66.9939 46.1044 66.6835 46.4635 66.6054 46.7067C66.5375 46.9492 66.2175 47.1143 65.9839 47.1143C65.7503 47.1143 65.8675 47.0945 65.5571 47.1143C65.2467 47.1342 65.1494 47.1822 64.9548 47.1143C64.7603 47.0465 64.615 46.9684 64.6931 46.3463C64.7609 45.7249 62.295 44.2785 62.295 44.2785L58.263 42.8417L58.2719 42.8449Z" fill="#CCA849"/>
<path fill-rule="evenodd" clip-rule="evenodd" d="M53.641 48.9802C53.641 48.9802 54.5242 50.1553 58.1556 50.1553C59.8836 50.1553 60.4858 49.9902 60.8436 49.8929C61.2321 49.7956 62.6881 49.2234 64.1543 47.4948C65.4746 45.9319 65.1834 45.2913 65.1834 45.2913L64.4154 45.1748L61.9194 45.5146L54.5338 48.6602L53.6378 48.9802H53.641Z" fill="#585136"/>
<path fill-rule="evenodd" clip-rule="evenodd" d="M56.3495 49.2718C56.3495 49.2718 53.2039 49.9713 53.2039 47.9809C53.2039 46.0391 55.1456 44.0001 55.6314 43.641C56.1363 43.2814 57.3402 42.873 57.3402 42.873H60.2432L60.7962 44.3393L60.5536 47.5041L56.3495 49.2711V49.2718Z" fill="#252211"/>
<path fill-rule="evenodd" clip-rule="evenodd" d="M59.2525 43.4662C59.2525 43.4662 58.6509 42.9126 57.282 43.6582C55.913 44.4038 54.8058 45.9622 54.738 47.3773C54.6701 48.6291 55.7671 49.5616 57.4759 49.6102C58.7476 49.6582 59.5149 49.513 59.9034 49.4182C59.8061 49.3018 59.3012 48.6707 59.3012 48.6707L59.2532 43.4669L59.2525 43.4662Z" fill="#C3B378"/>
<path fill-rule="evenodd" clip-rule="evenodd" d="M58.6605 43.7762C58.6605 43.7762 58.5152 43.6597 58.0845 43.8927C57.7254 44.0847 57.2013 44.5922 56.7936 44.9512C56.5312 45.165 56.3661 45.2616 56.2176 45.4268C55.6153 46.1455 55.1104 47.3205 55.4022 47.9029C55.6941 48.4853 56.6547 49.1554 59.1014 48.6991L58.6534 43.7768L58.6605 43.7762Z" fill="#E6D89C"/>
<path fill-rule="evenodd" clip-rule="evenodd" d="M57.8643 44.9806C57.8643 44.9806 57.4758 45.5828 57.4758 46.5441C57.4758 47.5246 58.0294 49.0874 60.0685 49.2039C61.6314 49.3012 62.6797 46.9518 63.8157 46.0391C64.6797 45.3402 65.2038 45.3204 65.2038 45.3204C65.2038 45.3204 64.3206 44.3604 61.9616 43.1169C59.6314 41.8644 57.0195 41.6993 55.6019 43.6218C56.272 43.5732 58.4371 43.0196 58.4371 43.0196L59.4957 43.3594L57.8643 44.9812V44.9806Z" fill="#252211"/>
<path fill-rule="evenodd" clip-rule="evenodd" d="M60.9126 46.2523C60.8448 46.1071 60.7961 45.9125 61.0777 45.8645C61.3593 45.8165 61.4854 45.8447 61.5827 46.0565C61.68 46.2683 61.7747 46.445 61.6307 46.5327C61.4854 46.6101 61.1065 46.5327 60.912 46.2511L60.9126 46.2523ZM60.4563 44.8834C60.4563 44.8834 60.359 44.9512 60.4077 44.8155C60.4269 44.6511 60.5536 44.3592 60.864 44.4277C61.1744 44.4962 61.1072 44.8354 61.056 44.9327C61.0048 45.0299 60.7456 45.1944 60.551 45.1247C60.501 45.1119 60.4601 45.076 60.4408 45.0281C60.4216 44.9801 60.4264 44.9259 60.4537 44.8821L60.4563 44.8834Z" fill="#6F674D"/>
<path fill-rule="evenodd" clip-rule="evenodd" d="M34.176 45.5042C34.176 45.5042 34.944 46.0802 35.8362 46.0578C36.7194 46.0379 37.8554 45.1259 38.3795 44.5429C38.6899 44.203 38.9555 43.844 39.2435 43.5624C39.4867 43.3198 39.6512 43.2034 39.7677 43.0382C39.9328 42.8462 40.1075 42.4853 40.1952 42.3682C39.9815 42.5333 39.6711 42.8251 39.3504 43.019C39.04 43.211 38.3699 43.572 38.0979 43.6693C37.8362 43.7666 35.1175 45.2053 35.1175 45.2053L34.176 45.5042Z" fill="#AC924C"/>
<path fill-rule="evenodd" clip-rule="evenodd" d="M35.3497 38.3302C35.3497 38.3302 35.7766 38.039 36.6022 37.854C37.3984 37.662 39.0003 37.5142 39.0003 37.5142L40.3206 38.0902L40.8448 40.0806L39.8848 42.149L38.6617 42.917L37.2729 40.6841L35.3529 38.334L35.3497 38.3302Z" fill="#9F8E57"/>
<path fill-rule="evenodd" clip-rule="evenodd" d="M33.6218 40.1068L33.1648 40.4479C33.1648 40.4479 33.2819 40.2341 33.3786 39.5839C33.4752 38.9337 33.9808 37.3509 34.7187 36.4383C35.4566 35.5257 35.4374 35.5743 35.4374 35.5743C35.3001 35.5492 35.1585 35.5844 35.049 35.6709C35.1462 35.4559 35.7677 34.6879 36.3891 34.3039C37.0106 33.9199 37.2531 33.7989 37.9034 34.1119C38.5536 34.4249 38.7187 34.5874 39.1949 34.5682C39.671 34.549 40.0781 34.0441 40.0781 34.0441C40.0781 34.0441 40.1754 34.3545 39.8163 35.0732C39.4573 35.7919 38.0397 37.2575 38.0397 37.2575L35.088 39.2767L33.6218 40.1087V40.1068Z" fill="#EAC970"/>
<path fill-rule="evenodd" clip-rule="evenodd" d="M35.8054 38.0877C35.8054 38.0877 37.9417 38.3789 38.592 37.7773C38.6112 37.8451 38.6893 37.8451 38.6893 37.8938C38.684 37.9304 38.6669 37.9644 38.6406 37.9904C38.7113 37.9791 38.7828 37.9727 38.8544 37.9712C38.9399 37.9967 39.0278 38.013 39.1168 38.0198C39.1884 38.0183 39.2598 38.0117 39.3305 38C39.3169 38.0975 39.2642 38.1853 39.1846 38.2432C39.2819 38.2432 39.3766 38.2624 39.3766 38.3398C39.3766 38.4173 39.3958 38.6509 39.2793 38.6995C39.1828 38.7262 39.0801 38.7192 38.9881 38.6797C38.9958 38.8635 39.0458 39.0431 39.1341 39.2045C39.3261 39.5635 39.7357 39.9725 40.2861 39.8547C40.2861 39.8547 40.5766 40.5536 39.3536 42.1069C39.1891 42.3206 39.0137 42.6118 38.8006 42.8544C38.7164 43.038 38.652 43.23 38.6086 43.4272C38.6086 43.4272 40.6771 42.631 41.2691 40.8154C41.8713 38.9901 41.9878 37.1942 41.8713 35.5149C41.8515 35.0387 41.7741 34.6995 41.6576 34.4563C41.3664 33.8541 40.5504 33.9514 40.2208 34.2912C39.7446 34.7674 38.9485 35.9514 37.8419 36.7667C36.7155 37.5821 36.6675 37.7267 35.8029 38.0877H35.8054Z" fill="#D7BC6B"/>
<path fill-rule="evenodd" clip-rule="evenodd" d="M33.2428 40.7092C33.2428 40.7092 32.8352 40.9518 32.6214 41.8612C32.4076 42.7931 32.8134 43.9291 33.0483 44.2881C33.2832 44.6472 33.8163 45.6283 34.9222 45.6769C35.1959 45.6755 35.4666 45.6193 35.7184 45.5118C36.1044 45.3348 36.4666 45.1096 36.7961 44.8417C37.2723 44.4827 37.6601 44.1723 37.6115 44.1428C37.495 44.0942 34.6796 41.764 34.6796 41.764L33.6211 40.5825L33.2422 40.7105L33.2428 40.7092Z" fill="#585136"/>
<path fill-rule="evenodd" clip-rule="evenodd" d="M35.9041 44.573C35.9041 44.573 36.4769 44.525 36.8167 44.3113C37.1565 44.0975 34.8263 41.7871 34.8263 41.7871L34.9914 44.2831L35.9041 44.573Z" fill="#453A25"/>
<path fill-rule="evenodd" clip-rule="evenodd" d="M33.4272 40.5337C33.4272 40.5337 33.136 41.0873 33.136 41.2332C33.0873 41.7087 33.2332 43.2038 33.3497 43.6793C33.4662 44.1843 34.0972 44.951 34.9132 44.951C35.4176 44.951 36.1171 44.6406 36.1171 44.5631C36.1171 44.4659 35.3984 44.3711 35.2044 44.0095C35.088 43.8175 35.0393 43.3401 35.0124 42.8575C34.9932 42.5471 34.9932 42.2073 35.1097 42.0895C35.3721 41.7983 35.4201 40.9631 35.4201 40.9631L36.352 39.2319H35.1264L33.6601 40.1446L33.4272 40.5337Z" fill="#84754B"/>
<path fill-rule="evenodd" clip-rule="evenodd" d="M33.0681 41.0682C33.0681 41.0682 34.0281 39.7965 34.8934 39.5047C35.7587 39.2128 36.1459 39.3882 36.1459 39.3882L35.6409 40.6797L34.9222 41.4759L34.9708 41.8836C34.9708 41.8836 34.8537 42.9613 35.5724 43.7088C36.2912 44.4564 36.8249 44.4276 37.136 44.4276C37.447 44.4276 38.3398 44.1652 38.7961 43.0874C39.2038 42.0781 39.5436 40.7834 38.7283 39.4855C37.9315 38.194 36.5241 38.144 36.2521 38.144C35.9801 38.144 33.8444 38.2509 33.0681 41.0663V41.0682Z" fill="#252211"/>
<path fill-rule="evenodd" clip-rule="evenodd" d="M57.7183 45.3882C57.3593 45.223 57.6991 44.2138 58.0582 43.9027C58.4172 43.5917 58.8735 43.2333 59.6703 43.184C59.9609 43.1648 60.2425 43.3491 60.1945 43.5437C60.1267 43.9027 59.6217 44.4077 59.1654 44.7667C58.5343 45.2621 58.126 45.5725 57.7183 45.3882Z" fill="#F7F7E7"/>
<path fill-rule="evenodd" clip-rule="evenodd" d="M38.3008 39.8835C38.5632 39.8643 38.903 40.0755 38.9708 40.3597C39.0387 40.6701 38.8057 41.2915 38.3008 41.2915C37.8931 41.2915 37.6793 40.7866 37.6793 40.6413C37.6839 40.5218 37.7173 40.4053 37.7766 40.3015C37.7958 40.272 37.8444 39.9322 38.3008 39.8835Z" fill="#F8F6DE"/>
<path fill-rule="evenodd" clip-rule="evenodd" d="M34.5146 40.1069C34.5146 40.1069 33.8445 40.4173 33.5341 41.0669C33.3123 41.5466 33.2452 42.0834 33.3421 42.6029C33.3908 42.8455 33.6333 43.4471 33.7984 43.6609C33.9636 43.8746 34.1869 44.0205 34.352 44.0007C34.5172 43.9809 34.8564 43.5444 34.8564 43.2826C34.8564 43.0209 34.8762 41.9137 35.1962 41.3114C35.4778 40.7098 34.5165 40.1076 34.5165 40.1076L34.5146 40.1069Z" fill="#D4C38B"/>
<path fill-rule="evenodd" clip-rule="evenodd" d="M34.6118 40.0582C34.4953 40.126 34.3014 40.2233 34.3494 40.3494C34.398 40.4659 34.8057 40.5414 34.9516 40.8256C35.1168 41.1168 35.1168 41.4272 35.0681 41.5731C35.1949 41.5128 35.31 41.4305 35.408 41.3299C35.6217 41.0873 35.8835 40.7577 36.1068 40.7577C36.2528 40.7577 36.398 40.8256 36.5344 40.8256C36.7481 40.8256 36.9612 40.7577 36.9907 40.5344C37.0387 40.2432 36.583 39.9808 36.3206 40.0294C36.3692 39.8374 36.4371 39.5539 36.2233 39.3593C36.0096 39.1648 35.3401 39.5052 35.1942 39.6025C35.0483 39.6998 34.6118 40.0588 34.6118 40.0588V40.0582Z" fill="#E2D59D"/>
<path fill-rule="evenodd" clip-rule="evenodd" d="M50.039 60.4565L51.4758 60.0322L51.8835 60.3234C51.8835 60.3234 52.1741 60.9449 52.631 61.0223C52.4851 61.3327 52.1062 61.5983 52.1261 61.8185C52.1459 62.0386 52.3398 62.2069 52.3398 62.2069C52.3398 62.2069 51.0483 64.3426 53.5923 66.4949C52.9901 66.7375 52.2233 67.0709 51.8157 67.2629C52.1062 67.3308 52.7277 67.4549 52.9901 67.6905C53.2525 67.926 53.2525 68.0009 53.495 68.1468C53.7376 68.2927 53.8829 68.4866 53.8349 68.5737C53.6697 68.4764 53.1161 68.1858 53.0195 68.4572C52.9229 68.7285 50.6214 68.6223 50.6214 68.6223L46.7379 69.3698C46.7379 69.3698 46.8832 68.9813 46.4755 68.6223C46 68.1954 45.4176 68.6415 44.7961 68.166C43.9808 67.5445 43.9513 66.8258 43.6896 66.5545C43.9513 66.3893 44.4857 66.1468 45.7574 65.9785C45.7088 65.8812 45.5437 65.59 45.6409 65.3282C45.7574 64.9884 46.2425 64.7746 46.0973 64.3682C46.311 64.3196 46.4077 64.3196 46.9421 63.6495C47.447 62.9794 47.7574 62.8341 48.1459 62.7855C48.5344 62.7369 48.7673 62.7855 49.4861 62.1154C49.9904 61.6399 49.8259 61.2322 49.8259 61.2322C49.8259 61.2322 50.1555 61.1253 50.0397 60.4553L50.039 60.4565Z" fill="#CBAC5A"/>
<path fill-rule="evenodd" clip-rule="evenodd" d="M45.7964 60.6718C45.8156 60.5746 45.8937 60.5259 46.4179 60.5746C46.942 60.6232 50.2624 60.2642 51.1654 60.2155C52.078 60.1477 55.2915 60.1957 56.855 60.5259C58.4185 60.8562 60.0006 61.2446 60.7673 61.4386C61.5353 61.6523 61.7772 61.7291 61.7478 61.8264C61.7286 61.9237 61.5558 62.0184 61.4566 61.9915C61.36 61.9723 58.816 61.1954 58.03 61.0315C57.2441 60.8677 54.5248 60.4293 53.038 60.4555C51.6499 60.4754 51.0963 60.4363 49.9219 60.572C48.7468 60.7179 46.8051 60.9118 46.2227 60.8344C45.6467 60.7666 45.7657 60.7666 45.7952 60.6693L45.7964 60.6718Z" fill="#D6BC6F"/>
<path fill-rule="evenodd" clip-rule="evenodd" d="M53.6115 68.2817C53.6115 68.2817 55.6019 69.3594 56.3206 70.6797C56.8448 71.6602 56.0102 72.146 56.0102 72.146C56.0102 72.146 57.1366 72.146 56.9907 72.7674C56.9229 73.1553 55.0489 74.2036 53.7965 74.7572C52.5248 75.3108 52.5734 75.282 51.952 75.3786C51.3497 75.4759 49.6992 75.1866 49.3593 75.6698C49.0195 76.153 49.1673 76.6509 49.2621 76.7284C49.3593 76.7962 50.1459 76.8935 50.1459 76.8935C50.1459 76.8935 49.9808 77.3498 48.3501 77.3985C46.7193 77.4471 46.311 77.5629 46.2137 77.7383C46.1165 77.9028 46.5241 77.8061 47.2723 77.9303C48.0198 78.0468 49.0681 78.1223 49.0681 78.1223C49.0681 78.1223 48.7283 78.4135 47.8451 78.6465C46.8352 78.9082 45.2525 79.1514 44.7769 79.4426C45.0195 79.6077 45.3792 79.8503 45.5449 79.8695C45.1373 79.9668 44.5638 80.1805 44.4672 80.258C44.6125 80.3553 44.807 80.4717 44.807 80.4717C44.807 80.4717 43.991 81.4522 43.5155 81.6954C43.04 81.9386 40.3021 83.2097 39.36 82.9671C37.0105 82.3457 36.7193 79.7729 36.1465 79.5789C35.2825 79.2877 34.8749 79.8695 34.1075 79.4618C34.4473 79.2193 34.6323 79.074 34.9913 78.9089C34.6029 78.7169 32.5933 77.4426 32.5933 77.4426C32.3831 76.9846 32.1498 76.5375 31.8944 76.1031C31.5059 75.433 30.9344 74.5396 30.5056 73.753C29.5737 72.025 29.5251 71.2289 28.6803 70.2484C28.8262 70.0564 29.3305 70.0833 29.3305 70.0833L36.4089 72.4135L48.96 72.777L52.224 68.1172L53.6121 68.2823L53.6115 68.2817Z" fill="#DFC677"/>
<path fill-rule="evenodd" clip-rule="evenodd" d="M35.0195 75.388C35.0953 75.4723 35.1836 75.5444 35.2813 75.6018C35.5245 75.7669 35.8835 75.9615 36.1261 76.252C36.2234 76.1067 36.4659 75.8443 36.8941 76.252C37.3223 76.6597 37.8541 76.3691 38.185 76.4658C38.5248 76.5829 38.544 76.6309 38.544 76.6309C38.544 76.6309 38.736 76.4658 39.1655 76.2911C39.4279 76.1938 39.7383 76.1259 40.0781 76.0293C40.3885 75.9615 40.7283 75.8642 40.9619 75.8642C41.1757 76.0095 41.9424 76.8242 45.0202 75.6216C47.9232 74.4952 48.5927 74.3691 49.0784 74.5432C49.1271 74.4267 49.1757 74.2034 49.9232 74.2328C49.9232 73.9224 49.3018 72.8639 49.3018 72.8639L45.8746 71.6895H44L38.3789 72.7186L35.264 74.4959L35.0215 75.3919L35.0195 75.388Z" fill="#C4A859"/>
<path fill-rule="evenodd" clip-rule="evenodd" d="M33.1456 73.4177C33.1456 73.4177 33.2135 73.9419 33.9904 74.4955C34.7584 75.0484 34.9997 75.3787 34.9997 75.3787C34.9997 75.3787 35.1456 75.1867 35.2621 74.9908C35.3786 74.7771 35.4759 74.5345 35.6698 74.4667C36.0583 74.3016 36.9415 74.612 37.136 74.5633C37.3011 74.5153 37.2525 74.1755 37.4272 74.1755C37.8349 74.1556 38.0967 74.4372 38.2426 74.4372C38.3885 74.4372 38.7469 74.418 38.7955 74.3406C38.8442 74.2632 38.8634 73.4568 39.417 73.0683C40.0192 72.6414 40.7572 72.8257 40.953 72.923C40.953 73.0683 40.9722 73.428 41.3607 73.4472C41.7492 73.4664 41.7875 73.3985 42.1287 73.515C42.4698 73.6315 42.8762 73.4958 43.0605 74.068C43.2256 74.02 43.6141 73.9713 43.5168 73.4177C43.7088 73.2724 43.8765 73.1752 44.2848 72.6024C44.3821 72.4571 44.5466 72.292 44.6733 72.0782C45.0132 72.0782 45.4208 72.0104 45.9642 72.4859C45.7991 72.6024 45.7018 72.6779 45.6538 72.7963C45.7959 72.937 45.9257 73.0897 46.0416 73.2526C46.1875 73.4446 46.2848 73.6801 46.4691 73.7288C46.8768 73.8452 47.5469 73.6801 48.2944 73.7288C49.0132 73.7774 49.6147 74.0392 49.8771 74.2043C49.9744 74.1563 49.9744 74.1364 50.217 74.1851C50.4595 74.2337 50.6439 74.2529 50.3821 73.9425C50.5274 74.0104 50.6925 74.1563 50.8384 74.0104C50.9844 73.8644 51.1002 73.6513 51.5079 73.6027C51.9156 73.554 52.0615 73.6219 52.2266 73.195C52.4403 72.6708 51.7024 72.6708 51.7024 72.6708C51.7024 72.6708 52.0423 72.3598 52.4212 71.9521C52.8775 71.5252 53.4016 70.9716 53.5277 70.292C53.7415 69.0395 52.5184 68.875 52.5184 68.875L46.5863 70.7003L39.3338 70.3406L33.1495 73.4184L33.1456 73.4177Z" fill="#927D49"/>
<path fill-rule="evenodd" clip-rule="evenodd" d="M27.8157 56.2814C27.8157 56.2814 27.6237 56.524 27.5053 57.0968C27.3869 57.6696 27.4374 57.6017 27.3402 58.0094C27.2429 58.4171 26.048 62.4753 26.496 63.8443C26.944 65.2132 27.7197 65.7182 28.2048 66.8248C28.3021 67.0673 28.3968 67.2132 28.4474 67.427C28.6125 68.1451 28.4672 68.6987 28.6611 69.4174C28.729 69.66 28.9043 69.9416 29.1661 70.2328C29.7421 70.8344 30.681 71.4072 31.0861 71.8148C31.6582 72.4171 32.4742 73.6408 33.513 73.7566C34.0666 73.8244 34.8531 73.5915 35.5034 73.2036C36.0794 72.844 36.4352 72.3396 37.0394 72.0516C37.4662 71.8379 37.9226 71.7604 38.3302 71.6632C39.175 71.498 39.9424 71.4712 40.3987 71.5659C41.0976 71.7118 42.7482 72.2168 43.6627 72.2168C44.3774 72.2052 45.088 72.1075 45.7792 71.9256C47.1674 71.5179 48.8467 70.8184 49.9539 70.508C50.6042 70.316 51.1283 70.2654 51.6627 70.1489C52.5754 69.9352 53.3421 69.644 53.7792 69.0904C53.488 68.7505 53.129 68.2264 51.1866 68.2456C48.983 68.2942 46.439 69.5172 45.1866 69.7118C43.9341 69.9064 43.3907 70.0708 41.9923 69.5659C40.6214 69.0558 40.576 68.7185 40.576 68.7185C40.576 68.7185 39.1366 67.7118 38.5344 65.1454C37.9322 62.579 38.5344 60.7089 40.0979 58.9316C40.5056 58.4753 40.4083 58.0676 40.4083 58.0676C40.4083 58.0676 41.4374 56.6795 41.1558 55.3796C40.8454 54.0881 38.855 54.3505 38.855 54.3505L27.8163 56.2814H27.8157Z" fill="#6E6342"/>
<path fill-rule="evenodd" clip-rule="evenodd" d="M29.4758 60.6021C29.3902 60.763 29.35 60.9442 29.3594 61.1262C29.3786 61.388 29.4566 61.7278 30.2426 62.4952C30.9126 63.1646 30.7667 63.9121 30.7667 63.9121C30.7667 63.9121 31.104 63.98 32.0192 63.5518C32.7379 63.212 32.9792 63.8142 32.9792 63.8142C33.1884 63.7045 33.4152 63.6322 33.6493 63.6005C33.8614 63.5809 34.0667 63.5154 34.2509 63.4085C34.2509 63.4085 35.0957 64.2725 35.8336 64.6801C36.5037 65.0398 36.8922 65.2824 37.2224 65.0398C37.5328 64.8261 37.5328 64.3889 37.513 64.195C37.436 64.016 37.3384 63.8466 37.2224 63.6901C37.0086 63.3797 36.6688 63.02 36.6464 62.7301C36.5978 62.0606 37.1514 61.2638 37.0342 61.0699C36.9171 60.876 36.4813 60.8273 35.4035 61.2158C34.2874 61.5845 29.4714 60.604 29.4714 60.604L29.4758 60.6021Z" fill="#39331F"/>
<path fill-rule="evenodd" clip-rule="evenodd" d="M32.0192 64.942C32.0192 64.942 31.4662 64.4179 31.6601 61.8739C31.8949 61.8705 32.1293 61.8932 32.359 61.9417C32.359 61.9417 32.6605 63.9129 32.0192 64.942Z" fill="#292311"/>
<path fill-rule="evenodd" clip-rule="evenodd" d="M28.0781 54.3397C28.1553 54.2826 28.2268 54.2184 28.2919 54.1477C28.0999 54.5068 27.2135 55.9436 27.9322 58.206C28.6509 60.4581 30.4564 62.1375 32.6797 62.2156C34.9031 62.2937 36.0717 61.2057 37.408 59.5749C37.9322 58.9247 38.5344 58.1087 39.0682 57.5557C39.8644 56.6911 40.4858 56.4485 40.4858 55.614C40.4858 53.9052 38.738 53.1378 36.1652 52.3711C33.5924 51.6044 31.2717 51.6991 30.0679 52.2239C28.8935 52.7961 28.3885 53.3983 28.0775 54.3404L28.0781 54.3397Z" fill="#252211"/>
<path fill-rule="evenodd" clip-rule="evenodd" d="M36.3398 65.709L36.5318 65.6117C36.5318 65.6117 36.5798 64.8437 36.8909 64.8642C37.2013 64.9128 37.3472 65.3211 37.3177 65.4664C37.2985 65.6117 37.2211 65.8549 36.9101 65.8255C36.5024 65.8351 36.3379 65.709 36.3379 65.709H36.3398Z" fill="#3F3824"/>
<path fill-rule="evenodd" clip-rule="evenodd" d="M35.4758 62.4467C35.4758 62.4467 35.6678 62.3788 35.9027 62.6118C36.0947 62.6118 36.9318 62.5145 37.1942 62.6796C37.4566 62.8448 37.5341 62.99 37.5341 62.99C37.5341 62.99 36.5536 63.2038 36.0192 62.99C35.4758 62.8057 35.4758 62.4467 35.4758 62.4467H35.4758Z" fill="#2D2815"/>
<path fill-rule="evenodd" clip-rule="evenodd" d="M39.7965 62.592C39.7965 62.5433 39.2723 62.1843 38.7187 62.0672C38.6215 62.048 38.6016 62.1158 38.5267 62.1158C38.4781 62.0966 38.4589 61.9507 38.4589 61.9507L38.144 62.1164C38.144 62.1164 38.0954 62.1843 38.2605 62.3084C38.4058 62.4249 38.649 62.5222 38.7168 62.7161C38.7847 62.91 38.7847 62.9779 38.8141 63.0073C38.8333 63.0265 39.1731 63.0073 39.3383 62.91C39.5034 62.8128 39.8144 62.654 39.7946 62.59L39.7965 62.592Z" fill="#82764F"/>
<path fill-rule="evenodd" clip-rule="evenodd" d="M34.8934 64.5633C34.8934 64.5633 34.9901 63.8939 35.641 63.8644C36.3104 63.8158 36.4371 64.466 36.4371 64.466L36.0486 64.8545C36.0486 64.8449 35.7574 64.4372 34.8966 64.5633H34.8934Z" fill="#2D2816"/>
<path fill-rule="evenodd" clip-rule="evenodd" d="M39.1168 61.6793C39.1168 61.6793 38.7571 62.0678 37.9616 62.1843C37.8937 62.087 37.7478 61.8931 37.9616 61.5827C38.1753 61.2723 38.4179 61.175 38.6604 61.2717C38.879 61.3071 39.057 61.4662 39.1168 61.6793Z" fill="#574F35"/>
<path fill-rule="evenodd" clip-rule="evenodd" d="M40.5824 62.1557C40.6023 62.0584 40.5344 62.0392 40.5824 61.9905C40.6304 61.9419 40.8935 61.8453 40.9421 61.8933C40.9613 61.9131 40.9421 61.9905 40.9421 62.0853C40.9421 62.18 40.9421 62.2773 40.8935 62.347C40.8256 62.4443 40.6317 62.4929 40.5344 62.4641C40.4372 62.4353 40.418 62.299 40.418 62.2721C40.466 62.2529 40.5824 62.2043 40.5824 62.1557ZM42.24 61.1073C42.24 61.0587 42.4052 60.9614 42.5024 60.9614C42.6477 60.9614 42.6477 61.0779 42.6676 61.1073C42.7156 61.1265 42.7156 61.0875 42.7642 61.1752C42.8128 61.2629 42.8813 61.4177 42.832 61.515C42.7828 61.6123 42.5895 61.6795 42.5415 61.6603C42.4736 61.6117 42.2599 61.1752 42.24 61.1073Z" fill="#82764F"/>
<path fill-rule="evenodd" clip-rule="evenodd" d="M38.9031 62.3791C38.9031 62.3791 39.1168 62.4271 39.408 62.6703C39.3108 62.7381 39.1648 62.8155 39.1648 62.8155C39.1648 62.8155 39.1456 62.5922 38.9031 62.3784V62.3791Z" fill="#6E6342"/>
<path fill-rule="evenodd" clip-rule="evenodd" d="M38.4275 60.2424C38.3788 60.1944 38.5728 60.078 38.6892 60.0972C38.8057 60.1164 38.8544 60.1944 38.9804 60.2136C39.1065 60.2328 39.1264 60.165 39.1724 60.1164C39.2185 60.0677 39.3862 60.0972 39.415 60.1164C39.4329 60.1377 39.4492 60.1604 39.4636 60.1842C39.4677 60.1095 39.5028 60.04 39.5603 59.9922C39.6357 59.9368 39.7324 59.9189 39.8227 59.9436C39.8419 60.0114 39.9392 60.254 39.92 60.3026C39.9008 60.3512 39.6096 60.4197 39.5603 60.3704C39.6089 60.4876 39.8227 60.7301 39.8515 60.7781C39.8803 60.8261 39.6377 60.9432 39.5411 60.924C39.4054 60.9144 38.5702 60.4287 38.4249 60.2444L38.4275 60.2424ZM39.6992 58.6309C39.6812 58.582 39.6468 58.5408 39.6019 58.5144C39.534 58.4952 39.3107 58.5144 39.3107 58.6309C39.3107 58.7474 39.5027 59.3989 39.7184 59.7381C39.9616 60.078 40.126 60.3589 40.2912 60.437C40.3987 60.486 40.5258 60.4435 40.5824 60.3397C40.6016 60.2911 40.6502 59.932 40.631 59.0872C40.6118 58.2424 40.5824 57.4271 40.5337 57.3784C40.4851 57.3298 40.2912 57.3304 40.2233 57.4271C40.1555 57.5237 39.7184 58.4856 39.6985 58.6309H39.6992Z" fill="#585136"/>
<path fill-rule="evenodd" clip-rule="evenodd" d="M38.8352 63.6017C38.8352 63.6017 38.4953 63.388 38.1651 63.5339C37.8547 63.6798 37.8739 64.2526 37.8739 64.2526C38.0157 64.3081 38.1757 64.2899 38.3014 64.204C38.5152 64.0587 38.7865 63.8161 38.8352 63.6024V63.6017Z" fill="#574F35"/>
<path fill-rule="evenodd" clip-rule="evenodd" d="M39.4758 64.3694C39.4566 64.1774 39.2838 64.1774 39.2838 64.0782C39.3083 63.9806 39.3963 63.9124 39.4969 63.9131C39.5942 63.9131 39.6889 64.0296 39.808 64.1051C39.9245 64.1729 40.0992 64.2971 40.1184 64.4449C40.1376 64.5928 39.9264 64.9979 39.6915 64.9979C39.4566 64.9979 39.5264 64.5608 39.4777 64.3669L39.4758 64.3694ZM41.3497 64.107C41.3497 64.107 40.9613 64.2235 40.9901 64.107C41.0189 63.9905 41.1072 63.9617 41.2333 63.9617C41.2973 63.8947 41.3835 63.8531 41.4758 63.8446C41.5286 63.842 41.5805 63.8594 41.6211 63.8933C41.6211 63.8933 41.8835 63.7768 41.9609 63.8446C42.0384 63.9125 41.9808 63.9125 42.0288 63.9905C42.0899 64.0772 42.13 64.1769 42.1459 64.2817C42.1459 64.3592 41.8547 64.5243 41.6211 64.4955C41.3497 64.4373 41.3977 64.1557 41.3497 64.107ZM43.6115 63.6699C43.6115 63.6699 43.728 63.7377 43.6313 63.8158C43.5635 63.8837 43.2237 64.0078 42.9318 64.0296C42.6406 64.0296 42.3789 64.0776 42.3789 63.9809C42.3789 63.8843 42.6214 63.6897 42.7667 63.6411C42.8257 63.5672 42.9153 63.5243 43.0099 63.5246C43.1264 63.5246 43.5821 63.476 43.7088 63.4568C43.8253 63.4369 43.9225 63.5048 43.8541 63.6021C43.8253 63.6699 43.6115 63.6699 43.6115 63.6699ZM44.2816 60.6721C44.2816 60.6721 44.1357 60.9825 43.9712 60.9825C43.8061 60.9633 43.8061 60.9147 43.8061 60.8661C43.8061 60.7982 43.9712 60.6235 43.9513 60.5749C43.9033 60.5749 43.7862 60.5749 43.8061 60.4584C43.8061 60.3611 43.9712 60.2446 44.1165 60.2664C44.2262 60.1762 44.3629 60.1251 44.5049 60.1211C44.6701 60.1211 44.8153 60.1691 44.8153 60.2664C44.8153 60.3637 44.6233 60.5768 44.5529 60.6261C44.4755 60.7035 44.3782 60.7541 44.2816 60.6741V60.6721ZM42.0678 66.4097C42.0678 66.4097 41.8758 66.4296 41.8758 66.5262C41.8758 66.5749 41.9238 66.5749 41.9923 66.5461C42.0317 66.5438 42.0708 66.5372 42.1088 66.5262C42.128 66.5461 42.128 66.6427 42.2739 66.6427C42.3937 66.6265 42.5092 66.5869 42.6137 66.5262C42.7302 66.4782 42.8275 66.4289 42.8275 66.3342C42.7789 66.1691 42.6816 66.091 42.5363 66.091C42.4618 66.0863 42.3876 66.1032 42.3225 66.1397C42.3225 66.1397 42.2739 66.0424 42.1088 66.1397C41.9437 66.2369 41.9629 66.2369 42.0115 66.2856C42.0985 66.363 42.0697 66.4136 42.0697 66.4136L42.0678 66.4097ZM40.9709 67.4197C40.9709 67.371 41.2134 67.2737 41.2813 67.3032C41.3491 67.3224 41.543 67.691 41.543 67.7301C41.543 67.7787 41.3005 67.8952 41.2032 67.8952C41.1059 67.8952 40.9414 67.7301 40.9414 67.7032C40.9414 67.684 41.0579 67.6552 41.0579 67.6353C41.0867 67.5873 40.9709 67.4702 40.9709 67.4216V67.4197ZM40.2029 66.0021C40.2515 65.9829 40.2515 65.9342 40.3193 65.8856C40.3624 65.8569 40.4163 65.8498 40.4653 65.8664C40.4999 65.8045 40.5605 65.7615 40.6304 65.7493C40.7469 65.7301 40.8441 65.7493 40.8224 65.7979C40.8224 65.9438 40.9197 66.0405 40.9197 66.1569C40.9197 66.2734 40.8518 66.4193 40.6093 66.5166C40.3667 66.5845 40.0365 66.5845 39.9878 66.5653C39.9392 66.5461 39.8905 66.3515 39.9392 66.2542C39.9878 66.1569 40.1235 66.0507 40.2016 66.0021H40.2029Z" fill="#82764F"/>
<path fill-rule="evenodd" clip-rule="evenodd" d="M40.512 66.0679C40.512 66.0679 40.3469 66.1652 40.3469 66.2138C40.3323 66.2608 40.3258 66.3099 40.3277 66.3591C40.3277 66.3879 40.5415 66.3399 40.5703 66.3104C40.5799 66.2912 40.512 66.1184 40.512 66.0679Z" fill="#6E6342"/>
<path fill-rule="evenodd" clip-rule="evenodd" d="M39.0682 65.6113C39.1648 65.6311 39.3299 65.6113 39.456 65.6599C39.5533 65.7086 39.6211 65.8059 39.5239 65.9223C39.4266 66.0388 39.3319 66.2135 39.1162 66.1841C38.8736 66.1649 38.6407 66.0388 38.6407 65.9415C38.6324 65.8172 38.6744 65.6948 38.7571 65.6017C38.8544 65.5243 38.9024 65.5729 39.0675 65.6113H39.0682Z" fill="#585136"/>
<path fill-rule="evenodd" clip-rule="evenodd" d="M38.9517 65.709C38.9517 65.709 38.6413 65.9515 38.5632 66.0687C38.466 66.1851 37.9904 66.7867 37.8452 66.9128C37.8934 66.8277 37.9484 66.7466 38.0096 66.6703C37.8176 66.793 37.6737 66.9781 37.602 67.1944C37.4855 67.5541 38.2528 67.748 38.7572 67.8939C39.2615 68.0399 39.4567 68.0859 39.4567 68.0859C39.271 67.8069 39.1116 67.5112 38.9805 67.2027C38.7885 66.7464 38.6893 66.6978 38.8154 66.484C38.9127 66.2703 39.0586 66.125 39.0586 65.9599C39.0004 65.8063 38.9517 65.709 38.9517 65.709Z" fill="#574F35"/>
<path fill-rule="evenodd" clip-rule="evenodd" d="M27.8835 66.4759C27.9541 66.4889 28.0266 66.4889 28.0972 66.4759C28.2425 66.4561 29.7574 65.8999 31.3401 65.9998C32.525 66.0714 33.6993 66.2644 34.8448 66.5758C36.8352 67.0999 39.3107 68.1387 40.9126 68.7313C41.3395 68.8958 41.7574 69.1876 42.0646 69.3035C43.2883 69.7796 43.3363 69.7796 44.055 69.9057C44.8998 70.0222 45.7638 69.7406 46.6668 69.5467C47.7734 69.3035 49.6665 69.187 51.3267 68.9444C51.8635 68.87 52.393 68.7499 52.9094 68.5854C52.9094 68.5854 51.5891 69.9057 48.4236 70.3812C47.1442 70.5755 45.8439 70.5919 44.56 70.4299C43.55 70.3326 42.8806 70.1867 42.3756 70.0414C41.8028 69.8763 40.6278 69.4391 39.1814 69.0814C38.1715 68.819 37.0451 68.6251 35.7542 68.3825C32.5696 67.7995 29.1136 67.13 27.8822 66.4798L27.8835 66.4759Z" fill="#252211"/>
<path fill-rule="evenodd" clip-rule="evenodd" d="M24.3104 60.4761C23.5424 61.1263 22.7277 61.7478 21.9322 62.3494L19.5341 64.1919C18.7188 64.7935 17.9226 65.415 17.1066 66.0172C16.2906 66.6194 15.4759 67.1916 14.6106 67.7452C15.3786 67.095 16.1933 66.4927 17.0087 65.9007C17.824 65.3087 18.6695 64.7282 19.456 64.1279L21.8541 62.2828C22.6791 61.6812 23.4752 61.0598 24.3104 60.4774V60.4761ZM20.0679 67.2722C20.0679 67.2722 20.9319 66.5535 22.0096 65.5442C23.3492 64.2924 24.9901 62.6898 25.5143 62.3993L20.0672 67.2729L20.0679 67.2722Z" fill="#CFB66C"/>
<path fill-rule="evenodd" clip-rule="evenodd" d="M20.0679 67.2719C20.4954 66.845 20.9517 66.4277 21.408 66.0194L22.1069 65.4178C22.3207 65.2258 22.5639 65.0101 22.777 64.7963C23.2039 64.3695 23.6218 63.9125 24.0487 63.476C24.2603 63.2565 24.484 63.049 24.7188 62.8546C24.8361 62.7507 24.9665 62.6625 25.1066 62.5922C25.2237 62.5243 25.3498 62.4002 25.5143 62.3784C25.4176 62.5243 25.3012 62.5922 25.2039 62.7183C25.0874 62.8155 24.9901 62.932 24.8935 63.0287C24.6797 63.2424 24.4372 63.4363 24.2234 63.6309C23.7671 64.0194 23.2916 64.3989 22.8352 64.8053C22.3789 65.2117 21.952 65.6501 21.4951 66.0578C21.0004 66.4757 20.544 66.8834 20.0679 67.2738V67.2719ZM25.874 63.3883C25.874 63.3883 22.7092 66.4859 22.0583 66.9903L25.874 63.3883Z" fill="#CFB66C"/>
<path fill-rule="evenodd" clip-rule="evenodd" d="M25.8739 63.3882C25.5892 63.7177 25.284 64.029 24.96 64.32L24 65.2327C23.6896 65.5431 23.3977 65.8541 23.0681 66.1645C22.7283 66.4557 22.4179 66.7405 22.0582 67.0093L22.9901 66.0967C23.3011 65.7863 23.6409 65.5245 23.9712 65.2135L24.903 64.3008C25.223 63.9808 25.5341 63.6698 25.8739 63.3882ZM26.0192 65.0675C25.7275 65.8817 25.3837 66.6763 24.9901 67.4464C24.1747 69.0778 22.9517 71.1162 22.4173 72.1555L26.0192 65.0675Z" fill="#CFB66C"/>
<path fill-rule="evenodd" clip-rule="evenodd" d="M26.0192 65.0684C26.0192 65.4274 25.9219 65.7384 25.8054 66.0488C25.6919 66.3595 25.5624 66.6641 25.4176 66.9615C25.2717 67.2527 25.1066 67.5637 24.9414 67.8453C24.7763 68.1269 24.5824 68.4175 24.4365 68.7093L23.456 70.4373C23.1162 71.0133 22.7859 71.5925 22.4269 72.1461C22.6694 71.5247 22.9997 70.9423 23.3107 70.3695C23.6506 69.7935 23.961 69.2175 24.2707 68.6216C24.422 68.3247 24.558 68.0203 24.6784 67.7096C24.8237 67.3986 24.969 67.1074 25.0861 66.8258C25.2314 66.5154 25.3478 66.2236 25.4938 65.9426C25.6582 65.6412 25.7946 65.35 26.0179 65.0684L26.0192 65.0684Z" fill="#CFB66C"/>
<path fill-rule="evenodd" clip-rule="evenodd" d="M29.4759 73.0293C29.4759 73.0293 28.5159 74.301 28.6119 75.9125C28.8736 75.0683 29.2039 73.7768 29.4759 73.0293ZM30.3885 74.3042C30.3885 74.3042 30.0487 77.7602 29.7671 79.4594C30.1651 77.4952 30.2426 77.6603 30.3885 74.3042ZM36.7475 79.6635C36.7475 79.6635 35.3107 83.8875 35.2813 85.0613C35.5923 83.8543 36.1939 81.3883 36.7475 79.6603V79.6635Z" fill="#DEC270"/>
<path fill-rule="evenodd" clip-rule="evenodd" d="M40.1069 72.7681C40.1069 72.7681 42.4372 76.6125 44.185 79.8938C43.7121 78.2426 42.6241 75.2141 40.1069 72.7681Z" fill="#CBAF59"/>
<path fill-rule="evenodd" clip-rule="evenodd" d="M46.3693 78.4277C47.6487 80.6893 48.8024 83.0196 49.8253 85.4082C49.6313 83.7577 49.1065 80.9327 46.3693 78.4277Z" fill="#E3C677"/>
<path fill-rule="evenodd" clip-rule="evenodd" d="M64.777 84.0958C65.1648 83.8533 65.9322 82.5323 66.6022 82.2027C67.2717 81.8629 67.7766 81.795 68.3789 81.125C68.9805 80.4254 69.1469 79.9986 70.4659 79.4456C72.311 78.6488 71.0419 77.6197 71.0419 77.6197C71.2452 77.4201 71.4625 77.2353 71.6922 77.0667C72.1683 76.7077 72.7213 76.2706 72.6733 75.5032C72.6054 74.2123 72.3629 72.3384 71.3043 71.251C72.3334 71.0373 74.304 70.892 75.5283 70.5816C76.9453 70.2219 77.5962 69.717 77.5962 69.717C77.5962 69.717 76.7808 68.3288 78.1011 66.931C79.4214 65.5333 80.4992 64.6981 81.2954 63.1346C80.3827 63.0181 78.9914 62.533 75.4406 63.8821C75.6323 63.9723 75.8173 64.076 75.9942 64.1925C75.9942 64.1925 73.8099 64.7947 73.0138 65.4648C71.625 66.6392 71.4502 67.6005 69.9456 68.3192C68.441 69.0379 66.9261 68.8434 65.6742 69.4258C64.4224 70.0082 64.2374 70.5035 63.7805 70.7173C63.8778 70.8338 63.7613 71.0277 63.9456 71.1928C63.8291 71.3579 63.1494 72.4645 62.4602 72.4645C62.528 72.7269 63.1104 72.9208 63.1104 72.9208C63.1104 72.9208 62.6835 73.2318 61.5962 73.3093C62.1491 73.8853 62.6739 74.5131 64.1203 75.4258C64.0038 75.6683 63.5181 76.028 63.7126 76.4843C63.9264 76.9406 64.4806 77.5621 66.6931 78.067C65.5667 78.115 64.247 78.3774 62.4691 78.1349C60.6925 77.9211 60.4013 77.795 59.3043 78.067C59.4208 78.1835 59.7312 78.1835 60.0032 78.4939C59.712 78.5131 57.8867 78.2802 57.2653 79.0962C56.615 79.9403 56.3334 81.3291 56.3821 82.261C56.0422 82.4261 55.712 82.7173 55.8771 83.3195C56.0422 83.9218 56.9062 84.1157 57.4598 84.4939C58.0128 84.9016 58.0614 85.0469 58.5862 84.9502C59.1392 84.8338 59.9546 84.2808 60.4307 84.2808C60.9069 84.2808 61.2461 84.6398 61.2461 84.6398C61.2461 84.6398 62.5376 84.0184 62.6637 84.1349C62.7802 84.2514 62.6829 84.9989 62.809 85.1154C62.937 85.203 64.3917 84.339 64.7802 84.0958H64.777Z" fill="#ECD592"/>
</svg>
