<svg width="24" height="25" viewBox="0 0 24 25" fill="none" xmlns="http://www.w3.org/2000/svg">
<path d="M12.75 16.42H13.4C14.05 16.42 14.59 15.84 14.59 15.14C14.59 14.27 14.28 14.1 13.77 13.92L12.76 13.57V16.42H12.75Z" fill="CurrentColor"/>
<path d="M11.97 2.4C6.45001 2.42 1.98001 6.91 2.00001 12.43C2.02001 17.95 6.51001 22.42 12.03 22.4C17.55 22.38 22.02 17.89 22 12.37C21.98 6.85 17.49 2.39 11.97 2.4ZM14.26 12.5C15.04 12.77 16.09 13.35 16.09 15.14C16.09 16.68 14.88 17.92 13.4 17.92H12.75V18.5C12.75 18.91 12.41 19.25 12 19.25C11.59 19.25 11.25 18.91 11.25 18.5V17.92H10.89C9.25001 17.92 7.92001 16.54 7.92001 14.84C7.92001 14.43 8.26001 14.09 8.67001 14.09C9.08001 14.09 9.42001 14.43 9.42001 14.84C9.42001 15.71 10.08 16.42 10.89 16.42H11.25V13.04L9.74001 12.5C8.96001 12.23 7.91001 11.65 7.91001 9.86C7.91001 8.32 9.12001 7.08 10.6 7.08H11.25V6.5C11.25 6.09 11.59 5.75 12 5.75C12.41 5.75 12.75 6.09 12.75 6.5V7.08H13.11C14.75 7.08 16.08 8.46 16.08 10.16C16.08 10.57 15.74 10.91 15.33 10.91C14.92 10.91 14.58 10.57 14.58 10.16C14.58 9.29 13.92 8.58 13.11 8.58H12.75V11.96L14.26 12.5Z" fill="CurrentColor"/>
<path d="M9.41998 9.87C9.41998 10.74 9.72998 10.91 10.24 11.09L11.25 11.44V8.58H10.6C9.94998 8.58 9.41998 9.16 9.41998 9.87Z" fill="CurrentColor"/>
</svg>
