<svg width="120" height="120" viewBox="0 0 120 120" fill="none" xmlns="http://www.w3.org/2000/svg">
<circle cx="60" cy="60" r="60" fill="#EDF0F4"/>
<ellipse cx="60.1462" cy="60.0878" rx="44.1818" ry="41.1136" fill="white"/>
<path fill-rule="evenodd" clip-rule="evenodd" d="M15 60C15 35.1331 35.1331 15 60 15C84.8669 15 105 35.1331 105 60C105 84.8669 84.8669 105 60 105C35.1331 105 15 84.8669 15 60ZM22.7435 60.6136C22.7435 81.6818 39.8377 98.776 60.9058 98.776C81.974 98.776 99.0682 81.6818 99.0682 60.6136C99.0682 39.5455 81.974 22.4513 60.9058 22.4513C39.8377 22.4513 22.7435 39.5455 22.7435 60.6136Z" fill="#F6BE1D"/>
<circle cx="60.9351" cy="60.6429" r="35.8831" fill="#F6BE1D"/>
<path fill-rule="evenodd" clip-rule="evenodd" d="M37.2078 67.7728C36.3312 70.1105 34.5488 75.0488 35.6007 81.4189C36.2728 85.4806 37.8215 88.5488 39.0195 90.3897C38.8442 87.8767 38.4643 77.7371 45.7403 68.7079C51.0001 62.1916 57.5455 59.6494 60.3507 58.7436C61.0812 58.4806 64.354 57.3994 65.1137 57.1657C69.1373 55.8371 70.4982 55.3961 70.9979 55.2342L70.998 55.2342C71.2676 55.1468 71.2865 55.1407 71.3377 55.1202C73.8507 54.2436 79.578 52.2274 83.9027 47.1722C85.9855 44.747 87.0096 42.4611 88.1177 39.988L88.1981 39.8085C90.0098 35.6592 90.828 31.9481 91.2078 29.3767C88.4611 32.7955 85.7728 35.367 83.6689 37.1787C81.6234 38.9319 79.4611 40.7728 76.2176 42.5845C73.8479 43.9139 71.964 44.6144 68.5026 45.9017L68.3864 45.9449C65.4643 47.0261 62.9221 47.8442 60.9351 48.4287C60.4091 48.5748 59.854 48.7209 59.328 48.8377C56.6397 49.4222 52.5488 50.7079 48.3702 53.6007C45.6234 55.5001 40.1299 59.9709 37.2078 67.7728ZM69.6429 67.9774C66.8669 67.8313 63.6527 67.8313 60.1462 68.1819C55.0617 68.6787 50.6786 69.7014 47.1721 70.8118C47.3182 70.3442 47.5812 69.7014 47.9903 68.9416C49.5975 66.0196 52.0812 64.4124 55.2955 62.7761C58.2176 61.2566 62.3085 59.4157 67.5098 57.8085C70.1397 57.0488 72.2728 56.2598 73.8507 55.617C76.0715 54.7403 77.5325 54.1559 79.315 53.0455C81.2436 51.8767 82.6754 50.6494 83.6104 49.7436C83.5812 51.5553 83.3182 54.302 82.1494 57.4287L82.1267 57.4886L82.1267 57.4886C81.254 59.787 80.1669 62.6501 77.328 64.9676C74.4936 67.2761 71.3377 67.8313 69.6429 67.9774ZM47.2306 77.8248C48.2825 77.6494 49.5682 77.5326 54.6819 78.0585C56.026 78.2046 57.2825 78.3507 58.3929 78.4968C61.7825 78.9352 65.2306 78.3215 68.2111 76.5975C69.2923 75.9839 70.3734 75.1949 71.3962 74.1429C73.2663 72.2728 74.2598 70.2858 74.815 68.8832C73.1202 69.1754 71.1916 69.4384 69.0585 69.5261C67.7728 69.5845 66.5455 69.5845 65.4059 69.5261C60.7306 69.3507 56.9903 70.052 54.5065 70.6949L54.4565 70.7078C50.2879 71.7864 45.2921 73.0789 42.8182 77.3572C42.2338 78.38 41.9124 79.3442 41.7371 79.9871C43.9286 78.6429 45.8572 78.0585 47.2306 77.8248ZM44.0118 85.6098C43.6972 85.6355 43.3454 85.6641 42.9936 85.7144C41.7371 85.8897 40.7143 86.2696 39.9546 86.591C40.4514 84.9839 41.2403 83.9611 41.854 83.3183C44.4254 80.63 48.8377 79.8994 53.3377 81.1559C53.4807 81.1917 53.6237 81.2302 53.7676 81.2689C54.094 81.3567 54.4247 81.4457 54.7695 81.5066C56.4059 81.828 57.7793 81.8864 58.8312 81.8572C60.3215 81.828 61.7533 81.7988 63.4481 81.1267C64.6462 80.6592 65.552 80.0455 66.1364 79.578C65.815 80.5131 64.4708 84.0196 60.7306 86.065C59.7955 86.5618 58.8897 86.8832 58.0423 87.0877C56.7565 87.38 55.4416 87.4676 54.1267 87.3215C53.3085 87.2339 52.4611 87.117 51.5845 86.9709C50.1234 86.7079 48.7793 86.3864 47.552 86.0358C46.4416 85.7144 45.302 85.5683 44.1624 85.5975C44.1133 85.6016 44.063 85.6057 44.0118 85.6098Z" fill="#FDFFFA"/>
</svg>
