<svg width="120" height="120" viewBox="0 0 120 120" fill="none" xmlns="http://www.w3.org/2000/svg">
<circle cx="60" cy="60" r="60" fill="#EDF0F4"/>
<path d="M60.015 60.7809L76.0222 51.539L60.015 42.2419V60.7809Z" fill="#2A3D58"/>
<path d="M60.015 60.7809L44.0071 51.539L60.015 42.2419V60.7809Z" fill="#0F2631"/>
<path d="M76.0222 33L60.015 42.2419L76.0222 51.5389V33Z" fill="#0F2631"/>
<path d="M76.0222 33L92.03 42.2419L76.0222 51.5389V33Z" fill="#2A3D58"/>
<path d="M44.0072 33L28 42.2419L44.0072 51.5389V33Z" fill="#0F2631"/>
<path d="M44.0071 33L60.015 42.2419L44.0071 51.5389V33Z" fill="#2A3D58"/>
<path d="M60.015 86.2717L76.0222 77.0298L60.015 67.7334V86.2717Z" fill="#2A3D58"/>
<path d="M60.015 86.2717L44.0071 77.0298L60.015 67.7334V86.2717Z" fill="#0F2631"/>
<path d="M76.0222 58.4915L60.015 67.7333L76.0222 77.0297V58.4915Z" fill="#0F2631"/>
<path d="M76.0222 58.4915L92.03 67.7333L76.0222 77.0297V58.4915Z" fill="#2A3D58"/>
<path d="M44.0072 58.4915L28 67.7333L44.0072 77.0297V58.4915Z" fill="#0F2631"/>
<path d="M44.0071 58.4915L60.015 67.7333L44.0071 77.0297V58.4915Z" fill="#2A3D58"/>
</svg>
