<svg width="120" height="120" viewBox="0 0 120 120" fill="none" xmlns="http://www.w3.org/2000/svg">
<circle cx="60" cy="60" r="60" fill="#EDF0F4"/>
<path d="M75.0441 51.8338L81.572 56.7909L85.7 59.9206L81.0888 62.2727L71.8278 67.0161L75.0054 69.2128L79.4421 72.3036L74.6371 74.7919L45.1875 90.0323C50.0843 92.7358 55.5828 94.1534 61.1719 94.1534C79.4812 94.1534 94.3236 79.263 94.3236 60.8915C94.3407 53.1024 91.6168 45.5572 86.6318 39.5859L75.0441 51.8338Z" fill="#091B26"/>
<path d="M45.9458 70.7596L39.4179 65.7831L35.2899 62.6534L39.9011 60.3013L49.1621 55.5573L45.9845 53.342L41.5478 50.2505L46.3528 47.7623L77.372 31.7054C72.1183 28.3983 66.0382 26.6526 59.8362 26.6705C41.527 26.6705 26.6846 41.561 26.6846 59.9324C26.6846 68.4662 29.9009 76.2616 35.1709 82.1518L45.9458 70.7596Z" fill="#091B26"/>
<path d="M32.6517 83.8195C26.8006 77.3851 23.2355 68.8317 23.2355 59.4619C23.2355 39.4977 39.433 23.2462 59.331 23.2462C66.674 23.2462 73.8234 25.4818 79.8492 29.6996L83.0655 28.0278C76.4793 22.9936 68.2436 20 59.331 20C37.6507 20 20 37.7094 20 59.4619C20 69.7644 23.9526 79.1346 30.4044 86.1706L32.6517 83.8185V83.8195Z" fill="#091B26"/>
<path d="M88.1424 37.0934C93.5094 43.4112 96.7644 51.6146 96.7644 60.5372C96.7644 80.5014 80.5668 96.7529 60.6688 96.7529C53.9265 96.7529 47.3196 94.8673 41.6233 91.2904L38.3101 93.001C44.8783 97.5693 52.6862 100 60.6688 100C82.3492 100 99.9999 82.2907 99.9999 60.5382C99.9999 50.6816 96.3769 41.6431 90.3901 34.7227L88.1427 37.0943L88.1424 37.0934Z" fill="#091B26"/>
<path d="M41.8696 63.0457L51.2954 70.1934L30 92.6665L72.3387 70.7958L64.6971 65.4934L78.7971 58.2677L69.3713 51.1197L90.6667 28.6665L48.3283 50.5372L55.9696 55.8409L41.8696 63.0457Z" fill="#23BEE2"/>
</svg>
