<svg width="120" height="120" viewBox="0 0 120 120" fill="none" xmlns="http://www.w3.org/2000/svg">
<g clip-path="url(#clip0_107_17601)">
<circle cx="60" cy="60" r="60" fill="#EDF0F4"/>
<path fill-rule="evenodd" clip-rule="evenodd" d="M80.8818 38.8749C80.6087 38.6018 80.4448 38.3287 80.4448 37.9463C80.4448 37.5639 80.6087 37.2908 80.8818 37.0176C81.4281 36.526 82.3021 36.526 82.903 37.0176C83.1761 37.2908 83.34 37.5639 83.34 37.9463C83.34 38.3287 83.1761 38.6018 82.903 38.8749C82.6298 39.0934 82.2475 39.2573 81.9197 39.2573C81.5373 39.3119 81.155 39.2027 80.8818 38.8749Z" fill="#0D022B"/>
<path fill-rule="evenodd" clip-rule="evenodd" d="M77.3858 42.644C77.1673 42.3708 77.0034 42.0977 77.0034 41.7153C77.0034 41.3329 77.1673 41.0598 77.3858 40.7867C77.8774 40.2951 78.7514 40.2951 79.2431 40.7867C79.4616 41.0598 79.6254 41.3329 79.6254 41.7153C79.6254 42.0977 79.4616 42.3708 79.2431 42.644C78.9699 42.8625 78.6968 43.0263 78.3144 43.0263C77.9321 43.0263 77.6589 42.8625 77.3858 42.644Z" fill="#0D022B"/>
<path fill-rule="evenodd" clip-rule="evenodd" d="M73.5621 46.2494C73.3436 46.0309 73.1797 45.7032 73.1797 45.3208C73.1797 44.9384 73.3436 44.6653 73.5621 44.3922C74.0537 43.9005 74.9277 43.9005 75.4193 44.3922C75.6378 44.6107 75.8017 44.9384 75.8017 45.3208C75.8017 45.7032 75.6378 45.9763 75.4193 46.2494C75.1462 46.5226 74.8731 46.6318 74.4907 46.6318C74.1083 46.6318 73.7806 46.4679 73.5621 46.2494Z" fill="#0D022B"/>
<path fill-rule="evenodd" clip-rule="evenodd" d="M69.9023 49.9091C69.6292 49.6906 69.4653 49.3628 69.4653 48.9805C69.4653 48.5981 69.6292 48.325 69.9023 48.0518C70.4486 47.5602 71.3226 47.5602 71.9235 48.0518C72.1966 48.2703 72.3605 48.5981 72.3605 48.9805C72.3605 49.3628 72.1966 49.6906 71.9235 49.9091C71.6504 50.1822 71.268 50.2915 70.9402 50.2915C70.5578 50.2915 70.2301 50.2369 69.9023 49.9091Z" fill="#0D022B"/>
<path fill-rule="evenodd" clip-rule="evenodd" d="M66.4063 53.5693C66.1332 53.3508 66.0239 53.023 66.0239 52.6406C66.0239 52.2582 66.1878 51.9851 66.4063 51.712C66.8979 51.2204 67.7719 51.2204 68.2636 51.712C68.5367 51.9305 68.646 52.2582 68.646 52.6406C68.646 53.023 68.4821 53.3508 68.2636 53.5693C68.0451 53.8424 67.7173 53.9516 67.3349 53.9516C67.0072 54.0063 66.6248 53.897 66.4063 53.5693Z" fill="#0D022B"/>
<path fill-rule="evenodd" clip-rule="evenodd" d="M62.2002 56.3003C62.2002 55.9179 62.3641 55.6448 62.5826 55.3717C63.0742 54.88 63.9482 54.88 64.4398 55.3717C64.713 55.6448 64.8222 55.9179 64.8222 56.3003C64.8222 56.6827 64.6583 56.9558 64.4398 57.2289C64.2213 57.4474 63.8936 57.6113 63.5112 57.6113C63.1288 57.6113 62.8557 57.4474 62.5826 57.2289C62.3094 57.0104 62.2002 56.6827 62.2002 56.3003Z" fill="#0D022B"/>
<path fill-rule="evenodd" clip-rule="evenodd" d="M55.3716 64.3852C55.1531 64.1667 54.9893 63.8389 54.9893 63.4565C54.9893 63.0742 55.1531 62.801 55.3716 62.5279C55.8633 62.0363 56.7373 62.0363 57.2289 62.5279C57.502 62.801 57.6113 63.0742 57.6113 63.4565C57.6113 63.8389 57.4474 64.112 57.2289 64.3852C57.0104 64.6583 56.6827 64.7676 56.3003 64.7676C55.9725 64.8222 55.6448 64.7129 55.3716 64.3852Z" fill="#0D022B"/>
<path fill-rule="evenodd" clip-rule="evenodd" d="M51.6025 68.0448C51.3294 67.8263 51.1655 67.4986 51.1655 67.1162C51.1655 66.7338 51.3294 66.4607 51.6025 66.1876C52.1488 65.6959 53.0228 65.6959 53.6237 66.1876C53.8968 66.4607 54.0607 66.7338 54.0607 67.1162C54.0607 67.4986 53.8968 67.7717 53.6237 68.0448C53.3506 68.318 52.9682 68.4272 52.6404 68.4272C52.2034 68.4818 51.8757 68.318 51.6025 68.0448Z" fill="#0D022B"/>
<path fill-rule="evenodd" clip-rule="evenodd" d="M48.0518 71.7597C47.8333 71.5412 47.6694 71.2134 47.6694 70.8311C47.6694 70.4487 47.8333 70.1209 48.0518 69.9024C48.5434 69.4108 49.4175 69.4108 49.9091 69.9024C50.1276 70.1209 50.2915 70.4487 50.2915 70.8311C50.2915 71.2134 50.1276 71.4866 49.9091 71.7597C49.636 72.0328 49.3628 72.1421 48.9804 72.1421C48.5981 72.1421 48.3796 71.9782 48.0518 71.7597Z" fill="#0D022B"/>
<path fill-rule="evenodd" clip-rule="evenodd" d="M44.3921 75.4194C44.119 75.2009 44.0098 74.8731 44.0098 74.4907C44.0098 74.1083 44.1736 73.8352 44.3921 73.5621C44.8838 73.0705 45.7578 73.0705 46.2494 73.5621C46.4679 73.8352 46.6318 74.1083 46.6318 74.4907C46.6318 74.8731 46.4679 75.2009 46.2494 75.4194C45.9763 75.6925 45.7032 75.8017 45.3208 75.8017C44.993 75.8017 44.6106 75.6925 44.3921 75.4194Z" fill="#0D022B"/>
<path fill-rule="evenodd" clip-rule="evenodd" d="M40.623 79.0795C40.3499 78.861 40.186 78.5333 40.186 78.1509C40.186 77.7685 40.3499 77.4954 40.623 77.2222C41.1693 76.7306 42.0433 76.7306 42.5349 77.2222C42.8081 77.4954 42.9719 77.7685 42.9719 78.1509C42.9719 78.5333 42.8081 78.861 42.5349 79.0795C42.2618 79.298 41.8794 79.4619 41.5517 79.4619C41.1693 79.4619 40.8415 79.3526 40.623 79.0795Z" fill="#0D022B"/>
<path fill-rule="evenodd" clip-rule="evenodd" d="M37.0176 82.7392C36.7445 82.4661 36.6353 82.1929 36.6353 81.8105C36.6353 81.4282 36.7991 81.155 37.0176 80.8819C37.5093 80.3903 38.3833 80.3903 38.8749 80.8819C39.148 81.155 39.2573 81.4282 39.2573 81.8105C39.2573 82.1929 39.0934 82.4661 38.8749 82.7392C38.6564 82.9577 38.3286 83.1216 37.9463 83.1216C37.6731 83.1762 37.3454 83.0123 37.0176 82.7392Z" fill="#0D022B"/>
<path fill-rule="evenodd" clip-rule="evenodd" d="M38.8749 38.8749C39.0934 38.6018 39.2573 38.3287 39.2573 37.9463C39.2573 37.5639 39.0934 37.2908 38.8749 37.0176C38.3833 36.526 37.5093 36.526 37.0176 37.0176C36.7445 37.2908 36.6353 37.5639 36.6353 37.9463C36.6353 38.3287 36.7991 38.6018 37.0176 38.8749C37.2361 39.0934 37.5639 39.2573 37.9463 39.2573C38.3286 39.3119 38.6564 39.2027 38.8749 38.8749Z" fill="#0D022B"/>
<path fill-rule="evenodd" clip-rule="evenodd" d="M42.5348 42.644C42.8079 42.3708 42.9718 42.0977 42.9718 41.7153C42.9718 41.3329 42.8079 41.0598 42.5348 40.7867C41.9886 40.2951 41.1145 40.2951 40.5137 40.7867C40.2405 41.0598 40.0767 41.3329 40.0767 41.7153C40.0767 42.0977 40.2405 42.3708 40.5137 42.644C40.7868 42.8625 41.1692 43.0263 41.4969 43.0263C41.8793 42.9717 42.2617 42.8625 42.5348 42.644Z" fill="#0D022B"/>
<path fill-rule="evenodd" clip-rule="evenodd" d="M46.2494 46.2494C46.4679 46.0309 46.6318 45.7032 46.6318 45.3208C46.6318 44.9384 46.4679 44.6653 46.2494 44.3922C45.7578 43.9005 44.8838 43.9005 44.3921 44.3922C44.1736 44.6107 44.0098 44.9384 44.0098 45.3208C44.0098 45.7032 44.1736 45.9763 44.3921 46.2494C44.6653 46.5226 44.9384 46.6318 45.3208 46.6318C45.6485 46.6318 45.9763 46.4679 46.2494 46.2494Z" fill="#0D022B"/>
<path fill-rule="evenodd" clip-rule="evenodd" d="M49.9091 49.9091C50.1276 49.6906 50.2915 49.3628 50.2915 48.9805C50.2915 48.5981 50.1276 48.325 49.9091 48.0518C49.4175 47.5602 48.5434 47.5602 48.0518 48.0518C47.8333 48.2703 47.6694 48.5981 47.6694 48.9805C47.6694 49.3628 47.8333 49.6906 48.0518 49.9091C48.3249 50.1822 48.5981 50.2915 48.9804 50.2915C49.3082 50.2915 49.636 50.2369 49.9091 49.9091Z" fill="#0D022B"/>
<path fill-rule="evenodd" clip-rule="evenodd" d="M53.5144 53.5693C53.7876 53.3508 53.9514 53.023 53.9514 52.6406C53.9514 52.2582 53.7876 51.9851 53.5144 51.712C53.0228 51.2204 52.0942 51.2204 51.6025 51.712C51.3294 51.9305 51.1655 52.2582 51.1655 52.6406C51.1655 53.023 51.3294 53.3508 51.6025 53.5693C51.8757 53.8424 52.258 53.9516 52.5858 53.9516C52.9135 54.0063 53.2959 53.897 53.5144 53.5693Z" fill="#0D022B"/>
<path fill-rule="evenodd" clip-rule="evenodd" d="M57.6113 56.3003C57.6113 55.9179 57.4474 55.6448 57.2289 55.3717C56.7373 54.88 55.8633 54.88 55.3716 55.3717C55.0985 55.6448 54.9893 55.9179 54.9893 56.3003C54.9893 56.6827 55.1531 56.9558 55.3716 57.2289C55.5901 57.4474 55.9179 57.6113 56.3003 57.6113C56.6827 57.6113 56.9558 57.4474 57.2289 57.2289C57.502 57.0104 57.6113 56.6827 57.6113 56.3003Z" fill="#0D022B"/>
<path fill-rule="evenodd" clip-rule="evenodd" d="M60.8891 60.9438C61.1622 60.6706 61.2714 60.3975 61.2714 60.0151C61.2714 59.6328 61.1076 59.3596 60.8891 59.0865C60.3974 58.5949 59.5234 58.5949 59.0318 59.0865C58.7587 59.3596 58.6494 59.6328 58.6494 60.0151C58.6494 60.3975 58.8133 60.6706 59.0318 60.9438C59.2503 61.1623 59.578 61.3261 59.9604 61.3261C60.3428 61.3261 60.6706 61.1623 60.8891 60.9438Z" fill="#0D022B"/>
<path fill-rule="evenodd" clip-rule="evenodd" d="M64.5491 64.3852C64.8222 64.1667 64.9861 63.8389 64.9861 63.4565C64.9861 63.0742 64.8222 62.801 64.5491 62.5279C64.0028 62.0363 63.1288 62.0363 62.6372 62.5279C62.3641 62.801 62.2002 63.0742 62.2002 63.4565C62.2002 63.8389 62.3641 64.112 62.6372 64.3852C62.9103 64.6583 63.2927 64.7676 63.6205 64.7676C63.8936 64.8222 64.276 64.7129 64.5491 64.3852Z" fill="#0D022B"/>
<path fill-rule="evenodd" clip-rule="evenodd" d="M68.2636 68.0448C68.4821 67.8263 68.646 67.4986 68.646 67.1162C68.646 66.7338 68.4821 66.4607 68.2636 66.1876C67.7719 65.6959 66.8979 65.6959 66.4063 66.1876C66.1878 66.4607 66.0239 66.7338 66.0239 67.1162C66.0239 67.4986 66.1878 67.7717 66.4063 68.0448C66.6794 68.318 66.9526 68.4272 67.3349 68.4272C67.6081 68.4818 67.9904 68.318 68.2636 68.0448Z" fill="#0D022B"/>
<path fill-rule="evenodd" clip-rule="evenodd" d="M71.9232 71.7597C72.1417 71.5412 72.3056 71.2134 72.3056 70.8311C72.3056 70.4487 72.1417 70.1209 71.9232 69.9024C71.4316 69.4108 70.5576 69.4108 70.066 69.9024C69.8475 70.1209 69.6836 70.4487 69.6836 70.8311C69.6836 71.2134 69.8475 71.4866 70.066 71.7597C70.3391 72.0328 70.6122 72.1421 70.9946 72.1421C71.377 72.1421 71.6501 71.9782 71.9232 71.7597Z" fill="#0D022B"/>
<path fill-rule="evenodd" clip-rule="evenodd" d="M75.3647 75.4194C75.6378 75.2009 75.747 74.8731 75.747 74.4907C75.747 74.1083 75.5832 73.8352 75.3647 73.5621C74.873 73.0705 73.999 73.0705 73.5074 73.5621C73.2889 73.8352 73.125 74.1083 73.125 74.4907C73.125 74.8731 73.2889 75.2009 73.5074 75.4194C73.7805 75.6925 74.0536 75.8017 74.436 75.8017C74.7638 75.8017 75.1461 75.6925 75.3647 75.4194Z" fill="#0D022B"/>
<path fill-rule="evenodd" clip-rule="evenodd" d="M79.2431 79.0795C79.5162 78.861 79.6254 78.5333 79.6254 78.1509C79.6254 77.7685 79.4616 77.4954 79.2431 77.2222C78.7514 76.7306 77.8774 76.7306 77.3858 77.2222C77.1127 77.4954 77.0034 77.7685 77.0034 78.1509C77.0034 78.5333 77.1673 78.861 77.3858 79.0795C77.6043 79.298 77.9321 79.4619 78.3144 79.4619C78.6968 79.4619 79.0246 79.3526 79.2431 79.0795Z" fill="#0D022B"/>
<path fill-rule="evenodd" clip-rule="evenodd" d="M82.9031 82.7392C83.1762 82.4661 83.3401 82.1929 83.3401 81.8105C83.3401 81.4282 83.1762 81.155 82.9031 80.8819C82.3568 80.3903 81.4828 80.3903 80.9912 80.8819C80.7181 81.155 80.5542 81.4282 80.5542 81.8105C80.5542 82.1929 80.7181 82.4661 80.9912 82.7392C81.2643 82.9577 81.6467 83.1216 81.9745 83.1216C82.2476 83.1762 82.5753 83.0123 82.9031 82.7392Z" fill="#0D022B"/>
<path fill-rule="evenodd" clip-rule="evenodd" d="M47.5605 39.9128C51.275 37.4546 55.372 36.3075 59.9059 36.2529C64.3306 36.2529 68.4275 37.4546 72.2513 39.9128L80.1174 32.0467C73.9447 27.3489 67.2803 25 59.9059 25C52.5314 25 45.7578 27.3489 39.749 32.0467L47.5605 39.9128Z" fill="#0D022B"/>
<path fill-rule="evenodd" clip-rule="evenodd" d="M39.6943 72.1964C37.1815 68.3726 35.9798 64.3303 35.9798 59.9602C35.9798 55.5355 37.1815 51.4386 39.6943 47.7241L31.8828 39.9126C27.2943 45.9214 25 52.5857 25 60.0148C25 67.3347 27.2943 74.0536 31.9375 80.1717L39.6943 72.1964Z" fill="#0D022B"/>
<path fill-rule="evenodd" clip-rule="evenodd" d="M72.1966 80.0078C68.482 82.5206 64.3851 83.8316 59.9604 83.8862C55.4265 83.8862 51.275 82.6845 47.5604 80.0624L39.6943 87.8739C45.7578 92.6263 52.5314 94.9752 59.9604 94.9206C67.3349 94.866 73.9992 92.4625 80.0081 87.8739L72.1966 80.0078Z" fill="#0D022B"/>
<path fill-rule="evenodd" clip-rule="evenodd" d="M79.8989 47.615C82.4117 51.4388 83.7227 55.5903 83.6135 60.0696C83.5588 64.4397 82.3025 68.4274 79.8989 72.0873L87.765 79.8987C92.4082 73.8899 94.8117 67.2256 94.8117 59.9058C94.8664 52.4767 92.5174 45.7031 87.765 39.6396L79.8989 47.615Z" fill="#0D022B"/>
<path fill-rule="evenodd" clip-rule="evenodd" d="M88.0924 82.4663C91.0968 82.4663 93.6096 84.9245 93.6096 87.9835C93.6096 90.9879 91.1514 93.5007 88.0924 93.5007C85.088 93.5007 82.5752 91.0425 82.5752 87.9835C82.5752 84.9245 85.0333 82.4663 88.0924 82.4663Z" fill="#0D022B"/>
<path fill-rule="evenodd" clip-rule="evenodd" d="M31.8283 82.4663C34.8327 82.4663 37.2909 84.9245 37.2909 87.9835C37.2909 90.9879 34.8327 93.5007 31.8283 93.5007C28.8239 93.5007 26.3657 91.0425 26.3657 87.9835C26.3657 84.9245 28.8239 82.4663 31.8283 82.4663Z" fill="#0D022B"/>
<path fill-rule="evenodd" clip-rule="evenodd" d="M88.2018 26.2017C91.2062 26.2017 93.6644 28.6598 93.6644 31.7189C93.6644 34.7779 91.2062 37.236 88.2018 37.236C85.1974 37.236 82.7393 34.7779 82.7393 31.7189C82.7393 28.6598 85.1974 26.2017 88.2018 26.2017Z" fill="#0D022B"/>
<path fill-rule="evenodd" clip-rule="evenodd" d="M31.7189 26.2017C34.7233 26.2017 37.236 28.6598 37.236 31.6642C37.236 34.6686 34.7779 37.1268 31.7189 37.1268C28.7144 37.1268 26.2017 34.6686 26.2017 31.6642C26.2017 28.6598 28.6598 26.2017 31.7189 26.2017Z" fill="#0D022B"/>
</g>
<defs>
<clipPath id="clip0_107_17601">
<rect width="120" height="120" fill="white"/>
</clipPath>
</defs>
</svg>
