<svg width="25" height="25" viewBox="0 0 25 25" fill="none" xmlns="http://www.w3.org/2000/svg">
<path d="M9.50525 14.8298C9.50525 16.1198 10.4952 17.1598 11.7252 17.1598H14.2352C15.3052 17.1598 16.1752 16.2498 16.1752 15.1298C16.1752 13.9098 15.6452 13.4798 14.8552 13.1998L10.8252 11.7998C10.0352 11.5198 9.50525 11.0898 9.50525 9.86984C9.50525 8.74984 10.3752 7.83984 11.4452 7.83984H13.9552C15.1852 7.83984 16.1752 8.87984 16.1752 10.1698" stroke="CurrentColor" stroke-width="1.5" stroke-linecap="round" stroke-linejoin="round"/>
<path d="M12.8334 6.5V18.5" stroke="CurrentColor" stroke-width="1.5" stroke-linecap="round" stroke-linejoin="round"/>
<path d="M12.8334 22.5C18.3562 22.5 22.8334 18.0228 22.8334 12.5C22.8334 6.97715 18.3562 2.5 12.8334 2.5C7.31053 2.5 2.83337 6.97715 2.83337 12.5C2.83337 18.0228 7.31053 22.5 12.8334 22.5Z" stroke="CurrentColor" stroke-width="1.5" stroke-linecap="round" stroke-linejoin="round"/>
</svg>
