<svg width="25" height="25" viewBox="0 0 25 25" fill="none" xmlns="http://www.w3.org/2000/svg">
<path d="M18.54 14.05C18.12 14.46 17.88 15.05 17.94 15.68C18.03 16.76 19.02 17.55 20.1 17.55H22V18.74C22 20.81 20.31 22.5 18.24 22.5H6.76C4.69 22.5 3 20.81 3 18.74V12.01C3 9.94001 4.69 8.25 6.76 8.25H18.24C20.31 8.25 22 9.94001 22 12.01V13.45H19.98C19.42 13.45 18.91 13.67 18.54 14.05Z" stroke="CurrentColor" stroke-width="1.5" stroke-linecap="round" stroke-linejoin="round"/>
<path d="M3 12.91V8.34004C3 7.15004 3.73 6.09 4.84 5.67L12.78 2.67C14.02 2.2 15.35 3.12003 15.35 4.45003V8.25002" stroke="CurrentColor" stroke-width="1.5" stroke-linecap="round" stroke-linejoin="round"/>
<path d="M23.0588 14.4702V16.5302C23.0588 17.0802 22.6188 17.5302 22.0588 17.5502H20.0988C19.0188 17.5502 18.0288 16.7602 17.9388 15.6802C17.8788 15.0502 18.1188 14.4602 18.5388 14.0502C18.9088 13.6702 19.4188 13.4502 19.9788 13.4502H22.0588C22.6188 13.4702 23.0588 13.9202 23.0588 14.4702Z" stroke="CurrentColor" stroke-width="1.5" stroke-linecap="round" stroke-linejoin="round"/>
<path d="M7.5 12.5H14.5" stroke="CurrentColor" stroke-width="1.5" stroke-linecap="round" stroke-linejoin="round"/>
</svg>
