<svg width="25" height="25" viewBox="0 0 25 25" fill="none" xmlns="http://www.w3.org/2000/svg">
<path d="M12.6601 11.37C12.5601 11.36 12.4401 11.36 12.3301 11.37C9.95006 11.29 8.06006 9.34 8.06006 6.94C8.06006 4.49 10.0401 2.5 12.5001 2.5C14.9501 2.5 16.9401 4.49 16.9401 6.94C16.9301 9.34 15.0401 11.29 12.6601 11.37Z" stroke="CurrentColor" stroke-width="1.5" stroke-linecap="round" stroke-linejoin="round"/>
<path d="M7.65997 15.06C5.23997 16.68 5.23997 19.32 7.65997 20.93C10.41 22.77 14.92 22.77 17.67 20.93C20.09 19.31 20.09 16.67 17.67 15.06C14.93 13.23 10.42 13.23 7.65997 15.06Z" stroke="CurrentColor" stroke-width="1.5" stroke-linecap="round" stroke-linejoin="round"/>
</svg>
