<svg width="120" height="120" viewBox="0 0 120 120" fill="none" xmlns="http://www.w3.org/2000/svg">
<path fill-rule="evenodd" clip-rule="evenodd" d="M60 0C93.1371 0 120 26.8629 120 60C120 93.1371 93.1371 120 60 120C26.8629 120 0 93.1371 0 60C0 26.8629 26.8629 0 60 0Z" fill="#0D251D"/>
<path d="M33.3189 67.8585L25.488 60.0311L60.0138 25.5054L67.8446 33.3362L33.3189 67.8585Z" fill="#0BC98D"/>
<path d="M59.9864 94.5294L52.1589 86.6986L86.6812 52.1763L94.5121 60.0037L59.9864 94.5294Z" fill="#0BC98D"/>
<path d="M59.6743 94.2139L25.8035 60.3431L33.6343 52.5156L67.5052 86.3831L59.6743 94.2139Z" fill="#0BC98D"/>
<path d="M73.128 54.2848L52.1829 33.3362L60.0137 25.5054L80.9589 46.4539L73.128 54.2848Z" fill="#0BC98D"/>
<path d="M59.431 67.9821L51.6001 60.1512L72.5452 39.2026L80.3761 47.0335L59.431 67.9821Z" fill="#0BC98D"/>
</svg>
