<svg width="120" height="120" viewBox="0 0 120 120" fill="none" xmlns="http://www.w3.org/2000/svg">
<circle cx="60" cy="60" r="60" fill="#EDF0F4"/>
<path d="M60.5311 45.1404L73.3278 52.8586L60.5311 60.1745L47.1562 52.8586L60.5311 45.1404Z" fill="#EA259E"/>
<path d="M47.1562 53.135L60.5311 60.4258L60.4557 75.3091L47.1562 68.2697V53.135Z" fill="#014C99"/>
<path d="M60.5312 60.4258L73.4787 53.135L73.8558 68.2697L60.7072 75.5857L60.5312 60.4258Z" fill="#08B0F9"/>
<path fill-rule="evenodd" clip-rule="evenodd" d="M87.1301 44.2101L86.929 44.0844L74.1575 36.7685L60.7826 29.1006L60.6066 29L60.4558 29.0754C60.2046 29.1651 59.9608 29.2744 59.7267 29.4023L48.0614 36.2154L33.6306 44.6627C33.0499 44.9288 33.0514 45.521 33.0523 45.9013L33.0524 45.9449V46.2214L33.0272 67.6413L33.0021 75.5858C32.977 76.0635 33.1781 76.4909 33.5301 76.6417L50.1229 86.0695L59.9278 91.6507C60.129 91.7764 60.3552 91.8518 60.5564 91.8518C60.7284 91.8596 60.8976 91.8061 61.034 91.701L75.2134 83.5303L87.281 76.5914C87.7335 76.3903 88.01 75.9378 87.9346 75.5104L87.9849 45.4169C88.0603 44.713 87.4821 44.3861 87.1301 44.2101ZM60.5061 46.1208L72.1965 52.9088L60.5312 59.6214L56.559 57.3839L48.7151 52.934L60.5061 46.1208ZM61.1095 44.6124L73.7804 51.9786L85.5965 45.1655L76.0933 39.71L60.5312 30.785L43.6115 40.6653L35.4659 45.4169L47.1312 52.0289L59.953 44.5873C60.3052 44.3509 60.7678 44.361 61.1095 44.6124ZM34.6614 46.7996L46.2764 53.3865L46.5027 67.8676C46.4775 68.3201 46.7038 68.7224 47.0558 68.8983L54.774 73.3231L59.7267 76.164V89.7149L34.6111 75.4349L34.6614 46.7996ZM59.7519 61.0042L47.8854 54.2916L48.1117 67.6665L59.7267 74.3288L59.7519 61.0042ZM61.3357 76.1892L66.2884 73.3231L73.9312 68.9486L74.0066 68.8983C74.1575 68.8229 74.3335 68.6972 74.4592 68.5212L74.5346 68.4207V68.295L74.5095 58.6912V53.4117L86.3759 46.5482V58.2387L86.3508 75.2841L70.4367 84.4353L61.3106 89.6897L61.3357 76.1892ZM61.3357 61.0042V74.3539L73.0262 67.6413V54.2664L61.3357 61.0042Z" fill="#2F2F2F"/>
<path fill-rule="evenodd" clip-rule="evenodd" d="M60.179 32.3437C59.827 32.394 59.5254 32.6203 59.3745 32.922C59.2237 33.274 59.2488 33.6511 59.4248 33.9025C59.6259 34.2042 59.9528 34.3801 60.3299 34.3801C60.3973 34.3755 60.4645 34.3671 60.531 34.355C60.9584 34.3047 61.2852 34.003 61.3606 33.6259C61.4671 33.2901 61.3802 32.9229 61.1344 32.6706C60.8947 32.4024 60.5327 32.2786 60.179 32.3437ZM60.8578 36.7434C60.4807 36.5422 60.0533 36.5674 59.7516 36.7685C59.4751 36.9194 59.2991 37.221 59.2488 37.5479C59.2237 37.8998 59.3745 38.2015 59.5756 38.3775C59.7716 38.564 60.0344 38.6637 60.3047 38.6541C60.4608 38.6514 60.6147 38.6172 60.7573 38.5535C61.1595 38.4027 61.3858 38.0256 61.3858 37.6484C61.4109 37.2965 61.1846 36.9445 60.8578 36.7434ZM59.7768 41.0173C60.1036 40.8413 60.531 40.8413 60.883 41.0676C61.2084 41.2552 61.398 41.6122 61.3712 41.9869C61.3445 42.3615 61.106 42.688 60.7573 42.8274C60.6147 42.8912 60.4608 42.9254 60.3047 42.928C60.0703 42.9373 59.8397 42.8663 59.6511 42.7269C59.3745 42.5509 59.2237 42.1738 59.2488 41.8218C59.274 41.4698 59.4751 41.1681 59.7768 41.0173ZM43.8124 69.2503C43.4353 69.3509 43.1587 69.6526 43.0833 70.0297C43.0079 70.432 43.1336 70.8091 43.4101 71.0353C43.5844 71.186 43.8084 71.2666 44.0387 71.2616C44.1148 71.262 44.1907 71.2536 44.2649 71.2365C44.5918 71.161 44.8683 70.9348 44.9689 70.6582C45.1449 70.3063 45.0946 69.8789 44.7929 69.552C44.5561 69.2641 44.1702 69.1453 43.8124 69.2503ZM76.5456 71.2365C76.4647 71.2654 76.38 71.2824 76.2942 71.2867C76.0428 71.2867 75.8166 71.2113 75.6657 71.0353C75.3892 70.8091 75.2383 70.432 75.3137 70.0297C75.3892 69.6526 75.6657 69.3509 76.0177 69.2503C76.3857 69.1311 76.7895 69.2394 77.0485 69.5269C77.325 69.8537 77.4004 70.3063 77.2244 70.6834C77.149 70.9348 76.8725 71.161 76.5456 71.2365ZM40.1419 71.4125C39.7647 71.5382 39.5133 71.8901 39.4882 72.2924C39.4379 72.7198 39.639 73.122 39.9659 73.298C40.1161 73.3943 40.2903 73.4465 40.4687 73.4489C40.6166 73.4456 40.7622 73.4114 40.8961 73.3483C41.2229 73.1974 41.4492 72.8958 41.4743 72.6192C41.5497 72.2421 41.3989 71.8398 41.0972 71.5884C40.8399 71.3494 40.4675 71.2808 40.1419 71.4125ZM80.2162 73.3734C80.1029 73.4115 79.9836 73.4285 79.8642 73.4237C79.6381 73.4293 79.4166 73.3584 79.2357 73.2226C78.9556 72.9758 78.8227 72.602 78.8841 72.2338C78.9454 71.8656 79.1924 71.5551 79.5374 71.4124C79.8832 71.2786 80.2752 71.357 80.543 71.6136C80.8447 71.8901 80.9453 72.2672 80.8447 72.6443C80.8196 72.946 80.5682 73.2477 80.2162 73.3734ZM37.3764 73.65C37.0747 73.474 36.6976 73.474 36.421 73.65C36.0942 73.826 35.8931 74.1528 35.8931 74.555C35.8931 74.9573 36.0942 75.3093 36.421 75.4601C36.5577 75.5422 36.7141 75.5857 36.8736 75.5858C37.0685 75.5888 37.2603 75.5365 37.4267 75.435C37.7535 75.2087 37.9295 74.8316 37.9043 74.5048C37.9043 74.1528 37.7032 73.826 37.3764 73.6248V73.65ZM83.4593 75.5858C83.2373 75.587 83.0225 75.5064 82.856 75.3595C82.6046 75.1836 82.4537 74.8567 82.4789 74.5048C82.4939 74.154 82.6824 73.8336 82.9817 73.65C83.2834 73.4489 83.6856 73.4489 84.0124 73.6751C84.3644 73.9014 84.5404 74.3036 84.465 74.7059C84.4398 75.0076 84.1884 75.3595 83.8365 75.5104C83.717 75.5602 83.5888 75.5858 83.4593 75.5858Z" fill="#2F2F2F"/>
</svg>
