<svg width="120" height="120" viewBox="0 0 120 120" fill="none" xmlns="http://www.w3.org/2000/svg">
<circle cx="60" cy="60" r="60" fill="#7866D5"/>
<path d="M84.2877 30.8044C86.3188 31.0582 88.4344 31.2275 90.4654 31.566C94.4429 32.3276 95.7969 34.3587 95.1199 38.4207C94.9506 39.944 93.7659 41.1288 92.2426 41.3826C91.3117 41.5519 90.2962 41.6365 89.3653 41.5519C76.1636 41.5519 63.0465 41.6365 49.8449 41.6365C47.8984 41.6365 45.8674 41.8058 43.921 42.1443C37.4048 43.1598 34.866 45.8678 34.3583 52.4687C34.1044 55.5152 34.1044 55.5152 37.2355 55.5152H89.7038C90.2116 55.5152 90.7193 55.5152 91.2271 55.5152C92.0733 55.5152 92.835 55.7691 93.5966 56.1922C95.9662 57.7155 95.3738 60.1697 95.2891 62.3699C95.2045 64.1471 94.1044 65.1626 92.2426 65.5011C91.481 65.6704 90.7193 65.6704 89.8731 65.6704C71.9323 65.6704 53.9915 65.6704 36.0508 65.6704C34.1044 65.6704 34.1044 65.6704 34.2736 67.6168C34.3583 69.3939 34.5275 71.1711 34.9506 72.9482C35.7969 76.164 37.7433 78.195 41.0437 79.1259C44.598 80.1414 48.3216 80.3107 51.9605 80.3953C64.7391 80.3953 77.6023 80.3953 90.4654 80.3953C92.0733 80.3953 93.5966 80.5646 94.6121 82.0879C96.22 84.6266 95.3738 87.9271 92.835 89.535C92.4965 89.7888 92.158 89.9581 91.7348 90.0427C88.9422 90.9736 86.0649 91.1429 83.103 91.2275C71.0014 91.4814 58.9845 91.4814 46.9676 91.2275C43.244 91.1429 39.5205 90.7197 35.8815 89.9581C27.3343 88.1809 23.0183 83.7804 21.5797 75.1485C21.2412 73.2021 21.0719 71.1711 20.8181 69.14V53.3996C20.9873 51.8763 21.1566 50.2684 21.3258 48.7451C22.426 39.0131 26.8265 34.1894 36.3893 31.9891C39.7743 31.2275 43.3286 31.0582 46.7137 30.7197L84.2877 30.8044Z" fill="white"/>
<path fill-rule="evenodd" clip-rule="evenodd" d="M46.8829 92.7506C52.8914 92.8352 58.8998 92.9198 64.9929 92.9198C68.0501 92.9198 71.1073 92.8985 74.1538 92.8773C77.1791 92.8562 80.1939 92.8352 83.1876 92.8352C85.8956 92.7506 89.1114 92.5813 92.2426 91.5658C92.7503 91.3966 93.2581 91.1427 93.6812 90.8888C95.2891 89.8733 96.3893 88.35 96.8124 86.5729C97.2355 84.7957 96.9817 82.9339 95.9661 81.326C94.4429 78.8719 91.8195 78.8719 90.5501 78.8719H82.0874C72.1862 78.8719 62.031 78.8719 52.0451 78.7873C48.8293 78.7873 45.1058 78.618 41.4668 77.6025C38.7588 76.8409 37.1509 75.233 36.4739 72.6095C36.0508 70.917 35.8815 69.2245 35.7969 67.4473V67.3627V67.1088H36.1354H89.873C90.7193 67.1088 91.5656 67.1088 92.4965 66.9396C95.1199 66.4318 96.5585 64.8239 96.7278 62.4544C96.7278 62.3275 96.7489 62.1794 96.7701 62.0313C96.7912 61.8832 96.8124 61.7351 96.8124 61.6081L96.8159 61.5662C96.985 59.5388 97.2158 56.7717 94.3582 54.9227C93.4274 54.4149 92.3272 54.0764 91.2271 54.0764H37.2355H35.7969C35.7969 53.8745 35.8162 53.6533 35.8363 53.422C35.8584 53.1686 35.8815 52.9032 35.8815 52.6378C36.3893 46.7139 38.3357 44.5983 44.1749 43.6674C46.0367 43.3289 47.9831 43.1596 49.8448 43.1596C62.9619 43.1596 76.1636 43.075 89.2807 42.9904C90.3808 42.9904 91.3963 42.9057 92.4118 42.7365C94.6967 42.398 96.3893 40.6208 96.6432 38.5052C97.4894 33.5969 95.6276 30.8888 90.8039 29.9579C89.6715 29.7063 88.5858 29.5949 87.5122 29.4848C87.1416 29.4468 86.7725 29.409 86.4034 29.3655C85.811 29.3655 85.134 29.2809 84.5416 29.1963H84.457H46.7983H46.629L44.0903 29.4502C41.4668 29.704 38.8434 29.9579 36.1354 30.5503C25.8956 32.8352 20.9873 38.1667 19.8025 48.5757C19.7627 49.0541 19.704 49.5326 19.6443 50.0198C19.5772 50.5669 19.5088 51.125 19.464 51.7069L19.2948 53.2301V69.1399V69.3091C19.3794 69.9861 19.464 70.5785 19.5486 71.1709C19.6333 72.5249 19.8025 73.9636 20.0564 75.4022C21.5797 84.5418 26.3187 89.4502 35.543 91.3966C39.2666 92.2428 43.0747 92.666 46.8829 92.7506ZM22.5106 70.8324C22.5106 70.24 22.4259 69.6476 22.3413 69.0552V53.5686L22.5106 52.13C22.5553 51.5482 22.6238 50.99 22.6908 50.443C22.7505 49.9557 22.8092 49.4773 22.8491 48.9988C23.8646 39.8592 27.7574 35.5433 36.6431 33.343C38.8207 32.8349 40.9361 32.6381 43.1493 32.4321C43.5165 32.398 43.8863 32.3636 44.2595 32.3275L46.7983 32.0736H84.2031C84.7955 32.0736 85.4725 32.1582 86.0649 32.2428C87.4189 32.3275 88.7729 32.4967 90.1269 32.7506C93.3427 33.4276 94.189 34.5277 93.5966 37.9128C93.512 38.7591 92.835 39.4361 91.9887 39.5207C91.1424 39.6899 90.2962 39.6899 89.3653 39.6899C82.7644 39.6899 76.1848 39.7111 69.6051 39.7323C63.0254 39.7534 56.4457 39.7746 49.8448 39.7746C47.7292 39.8592 45.6982 40.0284 43.6671 40.367C36.4739 41.4671 33.4274 44.7675 32.835 52.0454C32.8261 52.2319 32.8163 52.4119 32.8068 52.5857C32.726 54.0675 32.6699 55.0961 33.4274 55.8536C34.2736 56.6998 35.3738 56.6998 37.2355 56.6998H91.3963C91.9041 56.6998 92.4965 56.8691 92.9196 57.1229C94.1044 57.8846 94.1044 58.9001 93.9351 61.0158C93.9351 61.185 93.914 61.3331 93.8928 61.4812C93.8716 61.6293 93.8505 61.7774 93.8505 61.9466C93.7659 62.7929 93.4274 63.3853 92.0733 63.6392C91.3963 63.8084 90.6347 63.8084 89.9577 63.8084H36.1354C34.9506 63.8084 34.0197 63.8084 33.3427 64.5701C32.6869 65.3079 32.7458 66.1251 32.827 67.2525C32.8297 67.2889 32.8323 67.3257 32.835 67.3627V67.4473C32.835 69.3091 33.0888 71.2555 33.512 73.1173C34.4429 76.9255 36.8124 79.3796 40.6206 80.3952C44.598 81.5799 48.5754 81.7492 51.9605 81.7492C61.9464 81.8338 72.1862 81.8338 82.0028 81.8338H90.4654C92.0733 81.8338 92.7503 82.0877 93.2581 82.8493C93.8505 83.7802 94.0197 84.7957 93.7659 85.8112C93.512 86.8268 92.835 87.673 91.9887 88.2654C91.8618 88.3077 91.7348 88.3712 91.6079 88.4347C91.4809 88.4981 91.354 88.5616 91.2271 88.6039C88.519 89.4502 85.5571 89.6194 83.1029 89.704C71.086 89.9579 58.8998 89.9579 46.9675 89.704C43.3286 89.6194 39.6897 89.1963 36.1354 88.4347C28.1805 86.7421 24.3723 82.8493 23.0183 74.8945L22.5106 70.8324Z" fill="white"/>
</svg>
