<svg width="120" height="120" viewBox="0 0 120 120" fill="none" xmlns="http://www.w3.org/2000/svg">
<circle cx="60" cy="60" r="60" fill="#06233A"/>
<path d="M83.0513 50.8446C77.918 45.7113 69.3625 45.7113 64.2293 50.8446L62.233 52.8409L64.0867 54.6945L66.083 52.6983C70.2181 48.5631 77.0625 48.5631 81.1976 52.6983C83.1939 54.6945 84.3346 57.4038 84.3346 60.2556C84.3346 63.1074 83.1939 65.8166 81.1976 67.8129C79.2013 69.8092 76.4921 70.9499 73.6403 70.9499C70.7885 70.9499 68.0792 69.8092 66.083 67.8129L64.0867 65.8166L62.233 67.6703L64.2293 69.6666C66.7959 72.2332 70.2181 73.5165 73.6403 73.5165C77.0625 73.5165 80.4846 72.2332 83.0513 69.6666C85.6179 67.0999 86.9012 63.8204 86.9012 60.2556C86.9012 56.6908 85.6179 53.4112 83.0513 50.8446Z" fill="#11DCBE"/>
<path fill-rule="evenodd" clip-rule="evenodd" d="M69.7903 56.4056L64.0867 62.1093L58.6682 67.5277L56.672 69.524C54.1053 72.0906 50.6831 73.374 47.261 73.374C43.8388 73.374 40.4166 72.0906 37.85 69.524C35.4259 66.9574 34 63.6778 34 60.113C34 56.5482 35.2833 53.2686 37.85 50.702C42.9832 45.5687 51.5387 45.5687 56.672 50.702L62.3756 56.4056L62.233 56.5482L60.5219 58.2593L58.6682 60.113L56.5294 62.2519L52.822 65.9592C51.2535 67.5277 49.2572 68.3833 47.1184 68.3833C44.9795 68.3833 42.9832 67.5277 41.4147 65.9592C39.8462 64.3907 38.9907 62.3945 38.9907 60.2556C38.9907 58.1167 39.8462 56.1205 41.4147 54.552C42.9832 52.9835 44.9795 52.1279 47.1184 52.1279C48.8295 52.1279 50.398 52.6983 51.8239 53.6964C52.2516 53.9816 52.5368 54.2668 52.822 54.552L53.9627 55.5501L52.3942 57.1186L44.5517 64.9611C45.2647 65.3889 46.1202 65.6741 47.1184 65.6741C48.5443 65.6741 49.9702 65.1037 50.9683 64.1056L51.2535 63.8204L58.5256 56.5482L54.6757 52.6983C52.6794 50.702 49.9702 49.5613 47.1184 49.5613C44.2665 49.5613 41.5573 50.702 39.7036 52.6983C37.7074 54.6946 36.5666 57.4038 36.5666 60.2556C36.5666 63.1074 37.7074 65.8166 39.7036 67.8129C43.8388 71.9481 50.6831 71.9481 54.8183 67.8129L55.1035 67.5277L56.2442 66.387L56.8145 65.8166L62.3756 60.2556L67.0811 55.4075L67.9366 54.552C69.5051 52.9835 71.5014 52.1279 73.6403 52.1279C75.7791 52.1279 77.7754 52.9835 79.3439 54.552C80.9124 56.1205 81.768 58.1167 81.768 60.2556C81.768 62.3945 80.9124 64.3907 79.3439 65.9592C77.7754 67.5277 75.7791 68.3833 73.6403 68.3833C71.5014 68.3833 69.5051 67.5277 67.9366 65.9592L65.9404 63.963L67.7941 62.1093L69.7903 64.1056C70.7885 65.1037 72.2144 65.6741 73.6403 65.6741C75.0662 65.6741 76.4921 65.1037 77.4902 64.1056C78.4884 63.1074 79.0587 61.6815 79.0587 60.2556C79.0587 58.8297 78.4884 57.4038 77.4902 56.4056C76.4921 55.4075 75.0662 54.8371 73.6403 54.8371C72.2144 54.8371 70.7885 55.4075 69.7903 56.4056ZM43.2684 56.4056C42.2703 57.4038 41.6999 58.8297 41.6999 60.2556C41.6999 61.2537 41.9851 62.2519 42.5555 63.1074L49.9702 55.6927C49.1146 55.1223 48.1165 54.8371 47.1184 54.8371C45.6925 54.8371 44.2665 55.4075 43.2684 56.4056Z" fill="#11DCBE"/>
</svg>
