<svg width="16" height="16" viewBox="0 0 16 16" fill="none" xmlns="http://www.w3.org/2000/svg">
<path d="M14.6666 8.66671V6.00004C14.6666 2.66671 13.3333 1.33337 9.99992 1.33337H5.99992C2.66659 1.33337 1.33325 2.66671 1.33325 6.00004V10C1.33325 13.3334 2.66659 14.6667 5.99992 14.6667H8.66659" stroke="CurrentColor" stroke-linecap="round" stroke-linejoin="round"/>
<path d="M4.88672 9.65997L6.47339 7.59997C6.70006 7.30663 7.12006 7.2533 7.41339 7.47997L8.6334 8.43997C8.92674 8.66664 9.34672 8.61331 9.57338 8.32664L11.1134 6.33997" stroke="CurrentColor" stroke-linecap="round" stroke-linejoin="round"/>
<path d="M12.9867 10.5466L13.1733 10.9266C13.2666 11.1132 13.5 11.2866 13.7066 11.3266L13.96 11.3666C14.72 11.4933 14.9 12.0533 14.3533 12.6066L14.12 12.8399C13.9666 12.9999 13.88 13.3066 13.9267 13.5199L13.96 13.6599C14.1666 14.5799 13.68 14.9332 12.88 14.4532L12.7066 14.3532C12.5 14.2332 12.1666 14.2332 11.96 14.3532L11.7866 14.4532C10.98 14.9399 10.4933 14.5799 10.7066 13.6599L10.74 13.5199C10.7866 13.3066 10.7 12.9999 10.5466 12.8399L10.3133 12.6066C9.76664 12.0533 9.94664 11.4933 10.7066 11.3666L10.96 11.3266C11.16 11.2933 11.4 11.1132 11.4933 10.9266L11.68 10.5466C12.04 9.81992 12.6267 9.81992 12.9867 10.5466Z" stroke="CurrentColor" stroke-linecap="round" stroke-linejoin="round"/>
</svg>
