<svg width="120" height="120" viewBox="0 0 120 120" fill="none" xmlns="http://www.w3.org/2000/svg">
<circle cx="60" cy="60" r="60" fill="#154284"/>
<path fill-rule="evenodd" clip-rule="evenodd" d="M36.648 115.288C44.04 118.416 51.904 120 60 120C68.096 120 75.96 118.416 83.352 115.272C90.496 112.248 96.912 107.928 102.424 102.416C107.928 96.904 112.256 90.488 115.28 83.344C118.408 75.952 119.992 68.088 119.992 59.992C119.992 51.896 118.408 44.04 115.28 36.64C112.256 29.496 107.936 23.08 102.424 17.568C96.912 12.064 90.496 7.736 83.352 4.712C75.96 1.584 68.096 0 60 0C51.904 0 44.04 1.584 36.64 4.72C29.496 7.744 23.08 12.064 17.568 17.576C12.064 23.088 7.736 29.504 4.712 36.648C1.584 44.04 0 51.904 0 60C0 68.096 1.584 75.96 4.72 83.36C7.744 90.504 12.064 96.92 17.576 102.432C23.088 107.936 29.504 112.264 36.648 115.288ZM19.56 19.568C30.368 8.768 44.728 2.816 60 2.816C75.272 2.816 89.648 8.752 100.448 19.56C111.248 30.368 117.2 44.728 117.2 60C117.2 75.28 111.248 89.64 100.448 100.44C89.64 111.24 75.28 117.192 60.008 117.192C44.728 117.192 30.368 111.24 19.568 100.44C8.768 89.632 2.816 75.272 2.816 60C2.816 44.728 8.76 30.368 19.56 19.568Z" fill="#FAC32C"/>
<path d="M73.256 22.7839L73.688 23.0719C78.464 26.2319 82.312 26.8159 88.16 26.8159C90.224 26.8159 92.44 26.4239 94.56 25.6959L95.112 25.5039L97.888 29.3919L97.6 29.7759C87.288 43.4719 95.328 58.2639 101.016 64.1679L101.544 64.7119L101.008 65.2479C100.264 65.9919 98.968 67.3359 98.008 68.3439L97.68 68.6879L97.704 69.1599L97.712 69.3199C97.72 69.4399 97.72 69.5599 97.744 69.7759L97.752 69.8639C98.232 78.9999 95.864 86.5039 90.712 92.1679C85.24 98.1839 76.608 101.808 66.4 102.368L66.008 102.392L65.72 102.656C63.12 105.024 60.488 106.984 60.456 107.008L60 107.352L59.544 107.008C59.432 106.928 56.832 104.992 54.264 102.656L53.976 102.392L53.584 102.368C43.384 101.808 34.744 98.1839 29.272 92.1679C24.12 86.5039 21.752 78.9999 22.24 69.8639L22.248 69.7759C22.272 69.5759 22.28 69.4639 22.28 69.3359V69.3039L22.288 69.1599L22.312 68.6879L21.984 68.3439C21.08 67.3919 19.752 66.0079 18.984 65.2479L18.448 64.7119L18.976 64.1679C24.664 58.2639 32.704 43.4719 22.4 29.7759L22.112 29.3919L24.888 25.5039L25.44 25.6959C27.56 26.4319 29.776 26.8159 31.84 26.8159C37.696 26.8159 41.536 26.2399 46.312 23.0719L46.752 22.7839L47.184 23.0799C51.4 26.0079 55.472 27.3679 60.008 27.3679C64.544 27.3679 68.616 26.0079 72.832 23.0799L73.256 22.7839Z" fill="#E8B909"/>
<path d="M28.608 56.6079C31.84 49.1999 33.04 39.6879 27.608 30.3919C28.968 30.6319 30.392 30.7839 31.832 30.7839C37.392 30.7839 41.768 30.2799 46.688 27.5039C50.56 29.8479 54.904 31.3359 59.992 31.3439C65.096 31.3359 69.44 29.8479 73.312 27.5039C78.232 30.2799 82.608 30.7839 88.168 30.7839C89.608 30.7839 91.04 30.6319 92.408 30.3679C86.96 39.6879 88.168 49.1999 91.392 56.6079H28.608Z" fill="white"/>
<path d="M91.392 56.6079C88.16 49.1999 86.96 39.6879 92.408 30.3679C91.04 30.6319 89.616 30.7839 88.168 30.7839C82.608 30.7839 78.232 30.2799 73.312 27.5039C69.432 29.8479 65.096 31.3359 59.992 31.3439C59.944 31.3439 59.896 31.3439 59.848 31.3439V56.6159L91.392 56.6079Z" fill="#FFDD00"/>
<path d="M84.48 92.4001C90.664 87.8801 94.32 80.6561 93.784 70.1201C93.72 69.5201 93.68 69.4881 93.632 68.8801H84.48L84.48 92.4001Z" fill="#0054A4"/>
<path d="M74.688 96.9281C78.368 95.9361 81.688 94.4401 84.48 92.3921V68.8801H74.688V96.9281Z" fill="#A30046"/>
<path d="M35.52 92.3921C38.32 94.4401 41.632 95.9281 45.312 96.9281V68.8801L35.52 68.8801V92.3921Z" fill="#A30046"/>
<path d="M26.216 70.1202C25.68 80.6562 29.336 87.8722 35.52 92.4002V68.8882H26.368C26.328 69.4882 26.28 69.5202 26.216 70.1202Z" fill="#0054A4"/>
<path d="M60.024 74.0801C61.816 74.0801 63.48 74.6001 64.896 75.4801V68.8801H55.104V75.5121C56.528 74.6161 58.216 74.0801 60.024 74.0801Z" fill="#A30046"/>
<path d="M60.024 92.5362C58.216 92.5362 56.528 92.0082 55.104 91.1042V98.4082C55.28 98.4162 55.448 98.4322 55.624 98.4402C58.88 98.4562 61.824 98.4722 64.384 98.4402C64.56 98.4322 64.728 98.4162 64.904 98.4082V91.1362C63.48 92.0162 61.816 92.5362 60.024 92.5362Z" fill="#A30046"/>
<path d="M64.896 68.8801V75.4801C67.504 77.1121 69.248 80.0001 69.248 83.3041C69.248 86.6081 67.504 89.4961 64.896 91.1281V98.4001C68.352 98.2241 71.648 97.7441 74.688 96.9201V68.8721L64.896 68.8801Z" fill="#0054A4"/>
<path d="M50.8 83.3121C50.8 80.0241 52.52 77.1521 55.104 75.5121V68.8801H45.312V96.9281C48.352 97.7441 51.648 98.2321 55.104 98.4081V91.1041C52.52 89.4721 50.8 86.5921 50.8 83.3121Z" fill="#0054A4"/>
<path d="M30.816 38.6958C31.472 41.9038 31.496 45.0478 31.072 48.0399H40.584V56.6078H49.928V48.0399H59.88V38.6958H49.928V29.1918C48.808 28.6958 47.728 28.1278 46.688 27.4958C44.6 28.6718 42.608 29.4398 40.584 29.9358V38.6878L30.816 38.6958Z" fill="#E31837"/>
<path d="M79.992 56.608V30.072C78.864 29.824 77.752 29.496 76.632 29.072V56.608H79.992Z" fill="#E31837"/>
<path d="M66.56 56.6081V30.4561C65.48 30.7521 64.36 30.9841 63.2 31.1361V56.6161L66.56 56.6081Z" fill="#E31837"/>
<path d="M86.704 56.608V30.768C85.544 30.744 84.432 30.696 83.344 30.592V56.608H86.704Z" fill="#E31837"/>
<path d="M73.272 56.608V27.52C72.192 28.176 71.072 28.752 69.912 29.256V56.6L73.272 56.608Z" fill="#E31837"/>
<path fill-rule="evenodd" clip-rule="evenodd" d="M101.824 63.368L103.104 64.696L101.792 66.008C101.096 66.712 99.848 68.008 98.816 69.088C98.816 69.1223 98.8183 69.1543 98.8204 69.184C98.8223 69.2097 98.824 69.2337 98.824 69.256C98.824 69.368 98.824 69.464 98.848 69.648L98.856 69.768C99.36 79.224 96.896 87 91.536 92.896C85.848 99.144 76.968 102.88 66.464 103.456C63.864 105.832 61.24 107.792 61.12 107.88L60 108.712L58.88 107.88C58.8708 107.873 58.8443 107.853 58.802 107.821C58.3314 107.465 55.9055 105.629 53.52 103.456C43.016 102.88 34.128 99.144 28.448 92.896C23.088 87 20.624 79.216 21.128 69.768L21.136 69.648C21.1535 69.5137 21.1582 69.4263 21.1626 69.3454C21.1643 69.3154 21.1658 69.2863 21.168 69.256C21.168 69.2289 21.1699 69.2037 21.1718 69.1777C21.1739 69.1498 21.176 69.121 21.176 69.088C20.152 68 18.904 66.712 18.2 66.008L16.896 64.704L18.176 63.376C23.632 57.704 31.36 43.52 21.504 30.416L20.728 29.384L24.456 24.16L25.792 24.624C27.8 25.312 29.888 25.68 31.832 25.68C37.464 25.68 41.16 25.136 45.696 22.128L46.76 21.424L47.808 22.152C51.824 24.944 55.704 26.24 60 26.24C64.296 26.24 68.168 24.936 72.184 22.136L73.232 21.408L74.296 22.112C78.84 25.12 82.528 25.672 88.16 25.672C90.104 25.672 92.192 25.312 94.2 24.616L95.536 24.152L99.264 29.376L98.488 30.408C88.632 43.512 96.36 57.696 101.824 63.368ZM96.9455 69.3189C96.9394 69.1334 96.9321 68.9089 96.88 68.392L96.9882 68.2787C98.0189 67.1997 99.6143 65.5294 100.464 64.672C94.104 58.072 86.68 42.968 96.984 29.28L94.808 26.392C92.752 27.104 90.464 27.552 88.16 27.552C82.248 27.552 78.216 26.968 73.256 23.68C69.336 26.4 65.08 28.104 59.992 28.104C54.896 28.104 50.648 26.4 46.728 23.68C41.768 26.968 37.728 27.552 31.824 27.552C29.528 27.552 27.232 27.104 25.176 26.392L23 29.28C33.304 42.968 25.88 58.072 19.52 64.672C20.408 65.56 22.088 67.32 23.104 68.392C23.0518 68.9051 23.0445 69.1299 23.0385 69.3168C23.0334 69.4737 23.0292 69.604 23 69.856C21.88 90.92 36.552 100.864 54.288 101.6C57 104.136 60 106.36 60 106.36C60 106.36 62.984 104.136 65.696 101.6C83.432 100.864 98.104 90.92 96.984 69.856C96.9548 69.6037 96.9506 69.4751 96.9455 69.3189Z" fill="#231F20"/>
<path fill-rule="evenodd" clip-rule="evenodd" d="M26.016 69.5119C26.048 69.3359 26.072 69.1839 26.096 68.8639V68.5999H93.872L93.896 68.8639C93.9223 69.1269 93.9432 69.2764 93.9631 69.419C93.9675 69.4499 93.9717 69.4805 93.976 69.5119C94 69.6639 94.024 69.8239 94.056 70.0959C94.472 78.2079 92.448 84.7599 88.048 89.5919C83 95.1359 74.816 98.2879 64.392 98.7199C63.312 98.7359 62.16 98.7439 60.952 98.7439C59.4872 98.7439 57.9288 98.7367 56.2905 98.7291L56.024 98.7279H55.624C45.184 98.2959 37 95.1359 31.952 89.5999C27.544 84.7679 25.52 78.2159 25.936 70.1119C25.968 69.8159 25.992 69.6559 26.016 69.5119ZM26.576 69.5999C26.552 69.7359 26.528 69.8879 26.504 70.1519C26.096 78.0799 28.072 84.4959 32.376 89.2079C37.32 94.6319 45.368 97.7279 55.64 98.1519H56.024L56.2992 98.1533C59.2794 98.1688 62.0009 98.1829 64.376 98.1519C74.64 97.7279 82.688 94.6319 87.632 89.2079C91.928 84.4959 93.904 78.0799 93.496 70.1359C93.472 69.8879 93.448 69.7359 93.424 69.5999C93.4185 69.5559 93.4121 69.5129 93.4053 69.4679C93.3925 69.3819 93.3785 69.2886 93.368 69.1679H26.632C26.616 69.3519 26.6 69.4719 26.576 69.5999Z" fill="#231F20"/>
<path fill-rule="evenodd" clip-rule="evenodd" d="M28.352 56.496L28.176 56.888H91.816L91.648 56.496C88.888 50.16 86.808 40.504 92.648 30.512L92.96 29.976L92.352 30.096C90.944 30.368 89.536 30.504 88.168 30.504C82.488 30.504 78.264 29.976 73.456 27.256L73.312 27.176L73.168 27.264C68.952 29.816 64.64 31.056 59.992 31.064C55.36 31.064 51.056 29.816 46.832 27.264L46.688 27.176L46.544 27.256C41.736 29.968 37.512 30.504 31.832 30.504C30.504 30.504 29.104 30.376 27.656 30.12L27.056 30.016L27.36 30.544C33.192 40.504 31.12 50.152 28.352 56.496ZM60.16 31.616C64.792 31.584 69.104 30.344 73.312 27.824C78.168 30.528 82.44 31.064 88.16 31.064C89.368 31.064 90.608 30.96 91.856 30.752C86.392 40.552 88.272 49.976 90.96 56.328H60.16V31.616ZM31.84 31.064C30.664 31.064 29.424 30.968 28.152 30.768C33.608 40.552 31.72 49.976 29.048 56.328H59.608V31.616C55.064 31.544 50.832 30.304 46.688 27.824C41.832 30.528 37.56 31.064 31.84 31.064Z" fill="#231F20"/>
<path d="M51.968 60.264V58.408H45.672V67.136H47.56V63.536H50.136V61.688H47.56V60.264H51.968Z" fill="#231F20"/>
<path d="M59.344 60.152C60.032 60.152 60.52 60.44 60.824 61.032L60.864 61.112L62.616 60.304L62.576 60.216C61.96 58.944 60.848 58.272 59.368 58.272C57.08 58.272 55.48 60.12 55.48 62.768C55.48 65.504 56.984 67.264 59.304 67.264C60.816 67.264 61.912 66.6 62.552 65.28L62.592 65.2L61 64.256L60.952 64.336C60.496 65.096 60.064 65.376 59.36 65.376C58.2 65.376 57.424 64.32 57.424 62.76C57.424 61.16 58.16 60.152 59.344 60.152Z" fill="#231F20"/>
<path fill-rule="evenodd" clip-rule="evenodd" d="M73.976 60.76C73.976 59.288 72.928 58.408 71.176 58.408H67.168V67.136H71.144C73.104 67.136 74.28 66.072 74.28 64.288C74.28 63.456 73.88 62.784 73.176 62.408C73.68 62.032 73.976 61.44 73.976 60.76ZM69.016 60.168H71.096C71.944 60.168 72.056 60.56 72.056 60.896C72.056 61.376 71.768 61.608 71.184 61.608H69.016V60.168ZM69.016 65.328H71.192C71.936 65.328 72.32 64.976 72.32 64.312C72.32 63.624 71.96 63.304 71.192 63.304H69.016V65.328Z" fill="#231F20"/>
<path fill-rule="evenodd" clip-rule="evenodd" d="M59.968 92.6878C65.168 92.6878 69.392 88.4558 69.392 83.2638C69.392 78.0638 65.16 73.8398 59.968 73.8398C54.768 73.8398 50.544 78.0718 50.544 83.2638C50.536 88.4558 54.768 92.6878 59.968 92.6878ZM59.968 92.1198C58.136 92.1198 56.44 91.5598 55.024 90.6078C56.896 90.5198 59.384 90.0478 60.928 89.1278C62.424 88.2398 64.008 87.1278 64.304 85.6398C65.392 85.0958 67.472 85.3518 67.736 87.5438C66.216 90.2718 63.304 92.1198 59.968 92.1198ZM57.168 85.8478C56.544 85.7678 56.024 85.5758 55.592 85.2878C54.904 86.4718 53.664 87.1358 52.208 87.1518C52.172 87.1518 52.136 87.1498 52.1 87.1478L52.0999 87.1478C52.064 87.1458 52.028 87.1438 51.992 87.1438C52.552 88.2958 53.352 89.3038 54.328 90.1118C56.176 90.1198 59.016 89.6558 60.648 88.6878C62.752 87.4318 64.384 86.0878 63.608 84.2318C63.216 83.2878 61.912 82.1998 60.216 83.3998C60.112 84.7838 58.4 86.0078 57.168 85.8478ZM54.184 80.8158C54.1645 79.4083 54.4817 78.1427 54.8113 76.8272L54.8113 76.8271L54.8114 76.8271L54.8114 76.827C54.8883 76.5201 54.9659 76.2106 55.04 75.8958C56.248 75.0878 57.664 74.5678 59.192 74.4318C58.168 75.5438 58.384 77.1838 59.432 78.0238C59.184 78.2078 58.96 78.4478 58.768 78.7518C57.984 79.9918 57.88 82.0718 59.688 83.3918C59.576 84.4318 58.192 85.4478 57.232 85.3278C55.184 85.0638 54.216 83.1598 54.184 80.8158ZM64.096 84.0158C64.248 84.3758 64.32 84.7198 64.336 85.0478C65.544 84.6238 67.496 84.9038 68.096 86.7758C68.456 85.9358 68.696 85.0238 68.784 84.0718C68.28 82.2398 66.464 80.2078 64.728 79.2398C62.584 78.0398 60.248 77.3918 59.216 79.0238C58.552 80.0718 58.464 81.7998 59.96 82.9278C62 81.5198 63.624 82.8878 64.096 84.0158ZM64.984 78.7838C63.44 77.9198 61.408 77.1278 59.944 77.7358C58.84 77.0478 58.648 75.3118 60.04 74.3998C64.72 74.4398 68.536 78.1038 68.808 82.7198C67.976 81.1278 66.448 79.5998 64.984 78.7838ZM54.2693 76.7917C54.3043 76.6586 54.34 76.5229 54.376 76.3838C52.384 78.0078 51.104 80.4878 51.104 83.2558C51.104 84.4318 51.328 85.5518 51.744 86.5758C51.896 86.5998 52.048 86.6078 52.208 86.6078C53.52 86.6078 54.592 85.9998 55.176 84.9598C53.48 83.4158 53.472 80.2718 53.928 78.1838C54.0222 77.7314 54.1412 77.279 54.2693 76.7917Z" fill="#231F20"/>
</svg>
