<svg width="120" height="120" viewBox="0 0 120 120" fill="none" xmlns="http://www.w3.org/2000/svg">
<circle cx="60" cy="60" r="60" fill="#EDF0F4"/>
<path fill-rule="evenodd" clip-rule="evenodd" d="M33 32V87.4878H87.6V32H33ZM52.0878 38.4366H57.1927V43.7634H52.0878V38.4366ZM44.5415 38.4366H39.2146V43.7634H44.5415V38.4366ZM44.32 51.3096V56.6364H38.9932V51.3096H44.32ZM40.7686 80.6076H42.7661V78.61H40.7686V80.6076ZM44.5415 69.9537H39.2146V64.8488H44.5415V69.9537ZM53.8629 80.6076H55.8605V78.61H53.8629V80.6076ZM55.8605 68.1779H53.8629V66.1803H55.8605V68.1779ZM52.0878 56.8585H57.4146V51.5317H52.0878V56.8585ZM68.7345 80.6076H66.737V78.61H68.7345V80.6076ZM66.737 68.1779H68.7345V66.1803H66.737V68.1779ZM68.7345 55.0831H66.737V53.0856H68.7345V55.0831ZM65.1826 43.7634H70.5094V38.4365H65.1826V43.7634ZM81.8292 80.6076H79.8317V78.61H81.8292V80.6076ZM79.8317 68.178H81.8293V66.1805H79.8317V68.178ZM81.8293 55.0829H79.8317V53.0854H81.8293V55.0829ZM79.8317 42.2098H81.8293V40.2122H79.8317V42.2098Z" fill="#202944"/>
</svg>
