<svg width="120" height="120" viewBox="0 0 120 120" fill="none" xmlns="http://www.w3.org/2000/svg">
<circle cx="60" cy="60" r="60" fill="#EDF0F4"/>
<circle cx="59.9711" cy="60" r="44.9133" fill="#FEFEFE"/>
<path d="M41.4162 79.711C42.4566 79.711 43.4393 79.1329 43.9017 78.2081L50.5202 65.6358H40.289C38.7283 65.6358 37.4855 64.3642 37.4855 62.8324V57.1965C37.4855 55.6358 38.7572 54.3931 40.289 54.3931H56.474L69.0462 30.578C69.5376 29.6532 70.4913 29.0751 71.5318 29.0751H92.7168C84.5087 20.4046 72.9191 15 60.0289 15C35.1734 15 15 35.1445 15 60.0289C15 67.0809 16.6185 73.7861 19.5376 79.7399H41.4162V79.711Z" fill="#9B1C2E"/>
<path d="M78.5838 40.2889C77.5434 40.2889 76.5607 40.8669 76.0983 41.7918L69.4798 54.3641H79.711C81.2717 54.3641 82.5145 55.6357 82.5145 57.1675V62.8034C82.5145 64.3641 81.2428 65.6068 79.711 65.6068H63.526L50.9538 89.4219C50.4625 90.3467 49.5087 90.9248 48.4682 90.9248H27.2833C35.4914 99.5953 47.081 105 59.9711 105C84.8266 105 105 84.8554 105 59.971C105 52.919 103.382 46.2138 100.462 40.26H78.5838V40.2889Z" fill="#9B1C2E"/>
</svg>
