<svg width="120" height="120" viewBox="0 0 120 120" fill="none" xmlns="http://www.w3.org/2000/svg">
<circle cx="60" cy="60" r="60" fill="#EDF0F4"/>
<path d="M49.282 45.1762L48.8938 45.5644L40 54.4583L37.3177 57.1405C37.1764 57.349 36.9967 57.5286 36.7883 57.6699C35.9579 58.2153 34.8426 57.9846 34.2966 57.1547C34.0988 56.8582 33.9955 56.5087 34.0002 56.1523V47.7173C34.1521 43.5982 37.5369 40.3383 41.6587 40.3411H49.282L47.0586 42.5998L44.4822 45.1762H49.282Z" fill="url(#paint0_linear_107_22334)"/>
<path d="M85.7396 50.0465V50.6112C85.6112 55.4056 83.7564 59.9925 80.5162 63.5285L55.2817 88.763C53.8837 90.0125 52.0745 90.7035 50.1995 90.7041C49.6909 90.6942 49.1836 90.647 48.6819 90.5629L47.1996 90.1041C45.6143 89.5537 44.0695 88.8933 42.5762 88.1277L42.2586 87.9513C41.9818 87.744 41.8237 87.4146 41.835 87.0689C41.8315 86.8284 41.9058 86.5932 42.0468 86.3984L70.3518 58.0581C70.4893 57.9085 70.6079 57.7425 70.7047 57.564C70.8809 57.226 71.0227 56.8713 71.1283 56.5052C71.181 56.2728 71.2164 56.0369 71.2341 55.7993C71.2653 55.6485 71.2772 55.4943 71.2694 55.3405C71.2694 52.7286 69.1521 50.6112 66.5402 50.6112H56.1993L63.152 43.6585C63.3605 43.5172 63.5401 43.3375 63.6814 43.1291C63.8687 42.8337 63.9667 42.4906 63.9638 42.1409C63.9638 41.1468 63.1579 40.341 62.1638 40.341H47.4113C47.4113 40.341 48.8231 38.7881 49.3878 38.2234C50.6583 36.847 52.2112 35.0823 53.9053 33.847C57.3208 31.3348 61.4531 29.9862 65.6931 30.0001C68.204 30.0032 70.6927 30.4699 73.0341 31.3765L73.987 31.7648C75.6819 32.5447 77.2613 33.5541 78.681 34.7647L78.9633 35.0117H78.9986C83.2832 38.8204 85.7361 44.2785 85.7396 50.0113V50.0465Z" fill="url(#paint1_linear_107_22334)"/>
<path fill-rule="evenodd" clip-rule="evenodd" d="M47.5175 40.3411H65.3052C66.2992 40.3411 67.1051 41.1469 67.1051 42.141C67.1132 42.4967 67.0013 42.8448 66.7875 43.1292L59.3406 50.6113H40.0706C39.6004 50.6161 39.1735 50.3377 38.9882 49.9055C38.803 49.4733 38.8959 48.9721 39.2236 48.6349L47.5175 40.3411ZM56.729 44.3645C56.748 44.9939 57.2639 45.4941 57.8936 45.4938C58.5174 45.4841 59.0151 44.9706 59.0054 44.3468C58.9956 43.7231 58.4821 43.2253 57.8583 43.2351C57.6455 43.2347 57.4371 43.296 57.2584 43.4116C57.1157 43.5012 56.9951 43.6218 56.9054 43.7645C56.7946 43.9454 56.7337 44.1524 56.729 44.3645Z" fill="#E35CC7"/>
<path d="M49.8115 40.3411H47.3763L39.1883 48.4938C38.8274 48.8473 38.7181 49.385 38.9124 49.8513C39.1068 50.3177 39.5655 50.6187 40.0706 50.6113H43.847L54.1173 40.3411H49.8115Z" fill="#8961D0"/>
<circle cx="57.8584" cy="44.3645" r="1.12938" fill="#8961D0"/>
<circle opacity="0.48" cx="57.8584" cy="44.3645" r="1.12938" fill="url(#paint2_linear_107_22334)"/>
<path opacity="0.48" d="M58.9524 44.3645C58.9527 43.7543 58.4682 43.2542 57.8583 43.2351C57.4551 43.2458 57.0841 43.4579 56.8701 43.7998C57.0854 43.6134 57.3618 43.5129 57.6466 43.5175C58.2508 43.5175 58.7406 44.0073 58.7406 44.6115V44.6468C58.7475 44.8334 58.6983 45.0178 58.5995 45.1762C58.8262 44.9674 58.9544 44.6727 58.9524 44.3645Z" fill="#480061"/>
<path opacity="0.75" fill-rule="evenodd" clip-rule="evenodd" d="M47.5175 40.3411H65.3052C66.2993 40.3411 67.1051 41.1469 67.1051 42.141C67.1132 42.4967 67.0013 42.8448 66.7875 43.1292L59.3407 50.6113H40.0707C39.6069 50.6021 39.1928 50.3185 39.0166 49.8894C38.8403 49.4603 38.9355 48.9675 39.2589 48.6349L47.5175 40.3411ZM57.0598 45.1631C57.2716 45.3749 57.5588 45.4938 57.8584 45.4938C58.4613 45.4592 58.9369 44.9682 58.9525 44.3645C58.9527 43.7543 58.4683 43.2542 57.8584 43.2351C57.6455 43.2347 57.4371 43.296 57.2584 43.4116C57.1157 43.5012 56.9951 43.6218 56.9055 43.7645C56.7946 43.9454 56.7337 44.1524 56.729 44.3645C56.729 44.664 56.848 44.9513 57.0598 45.1631Z" fill="url(#paint3_linear_107_22334)"/>
<path d="M49.8115 40.3411H47.3763L39.1883 48.4938C38.8274 48.8473 38.7181 49.385 38.9124 49.8513C39.1068 50.3177 39.5655 50.6187 40.0706 50.6113H43.847L54.1173 40.3411H49.8115Z" fill="url(#paint4_linear_107_22334)"/>
<path opacity="0.43" d="M61.4579 50.6113L66.646 43.3057L59.3403 50.6113H61.4579Z" fill="url(#paint5_linear_107_22334)"/>
<defs>
<linearGradient id="paint0_linear_107_22334" x1="34.0002" y1="57.9659" x2="49.282" y2="57.9659" gradientUnits="userSpaceOnUse">
<stop stop-color="#4750D9"/>
<stop offset="0.41" stop-color="#5C45DC"/>
<stop offset="1" stop-color="#8131E1"/>
</linearGradient>
<linearGradient id="paint1_linear_107_22334" x1="41.835" y1="90.7038" x2="85.7396" y2="90.7038" gradientUnits="userSpaceOnUse">
<stop stop-color="#E96161"/>
<stop offset="0.2" stop-color="#E65B76"/>
<stop offset="0.61" stop-color="#DF4AAC"/>
<stop offset="1" stop-color="#D739E6"/>
</linearGradient>
<linearGradient id="paint2_linear_107_22334" x1="56.7255" y1="45.4815" x2="58.9595" y2="45.4815" gradientUnits="userSpaceOnUse">
<stop stop-color="#B100D3"/>
<stop offset="0.23" stop-color="#9C00C0"/>
<stop offset="0.69" stop-color="#67008E"/>
<stop offset="1" stop-color="#40006A"/>
</linearGradient>
<linearGradient id="paint3_linear_107_22334" x1="38.9307" y1="50.611" x2="67.1051" y2="50.611" gradientUnits="userSpaceOnUse">
<stop stop-color="#D0D7D3"/>
<stop offset="0.52" stop-color="#D9C5E8"/>
<stop offset="1" stop-color="#E3B1FF"/>
</linearGradient>
<linearGradient id="paint4_linear_107_22334" x1="38.8389" y1="50.603" x2="54.1137" y2="50.603" gradientUnits="userSpaceOnUse">
<stop stop-color="#B277EC"/>
<stop offset="0.77" stop-color="#9336E7"/>
<stop offset="1" stop-color="#8921E6"/>
</linearGradient>
<linearGradient id="paint5_linear_107_22334" x1="59.3297" y1="50.6184" x2="66.6495" y2="50.6184" gradientUnits="userSpaceOnUse">
<stop stop-opacity="0.5"/>
<stop offset="0.1" stop-color="#201322" stop-opacity="0.59"/>
<stop offset="0.25" stop-color="#4A2C4E" stop-opacity="0.72"/>
<stop offset="0.4" stop-color="#6D4173" stop-opacity="0.82"/>
<stop offset="0.55" stop-color="#885190" stop-opacity="0.9"/>
<stop offset="0.7" stop-color="#9B5DA4" stop-opacity="0.95"/>
<stop offset="0.85" stop-color="#A664B0" stop-opacity="0.99"/>
<stop offset="1" stop-color="#AA66B4"/>
</linearGradient>
</defs>
</svg>
