<svg width="120" height="120" viewBox="0 0 120 120" fill="none" xmlns="http://www.w3.org/2000/svg">
<circle cx="60" cy="60" r="60" fill="#00EF8B"/>
<rect x="69.36" y="50.6401" width="16.92" height="16.92" fill="white"/>
<path d="M52.44 73.9201C52.44 77.4001 49.56 80.2801 46.08 80.2801C42.6 80.2801 39.72 77.4001 39.72 73.9201C39.72 70.4401 42.6 67.5601 46.08 67.5601H52.44V50.6401H46.08C33.24 50.6401 22.8 61.0801 22.8 73.9201C22.8 86.7601 33.24 97.2001 46.08 97.2001C58.9201 97.2001 69.3601 86.7601 69.3601 73.9201V67.5601H52.44V73.9201Z" fill="white"/>
<path d="M75.7199 42.1202H94.7999V25.2002H75.7199C62.8799 25.2002 52.4399 35.6402 52.4399 48.4802V50.6402H69.3599V48.4802C69.3599 45.0002 72.2399 42.1202 75.7199 42.1202Z" fill="white"/>
<path d="M69.3599 50.6401H52.4399V67.5601H69.3599V50.6401Z" fill="#16FF99"/>
</svg>
