<svg width="120" height="120" viewBox="0 0 120 120" fill="none" xmlns="http://www.w3.org/2000/svg">
<path fill-rule="evenodd" clip-rule="evenodd" d="M60 120C27 120 0 93.0006 0 59.7012C0.3 26.7019 27 -0.297518 60.3 0.00247602C93.3 0.30247 120 27.0019 120 60.6012C119.7 93.3006 93 120 60 120Z" fill="#EDF0F4"/>
<path d="M87.1953 38.2119L87.3398 81.7764L63.7168 73.0254V90.2773L33 79.252V39.4248L61.4385 29L87.1953 38.2119ZM40.1104 44.3906V74.25L56.6064 80.1709V46.9893L73.2764 40.7852L61.4688 36.5615L40.1104 44.3906ZM63.7168 51.9297V65.4434L80.1943 71.5469L80.1104 45.8291L63.7168 51.9297Z" fill="#01E397"/>
</svg>
