<svg width="120" height="120" viewBox="0 0 120 120" fill="none" xmlns="http://www.w3.org/2000/svg">
<circle cx="60" cy="60" r="60" fill="#EDF0F4"/>
<path fill-rule="evenodd" clip-rule="evenodd" d="M65.3053 56.5957C65.3553 56.6759 65.4422 56.7257 65.5367 56.7283H73.6011C73.6966 56.7285 73.7848 56.6774 73.832 56.5945C73.8793 56.5116 73.8784 56.4097 73.8297 56.3277L60.4181 33.1331C60.368 33.0529 60.2811 33.0032 60.1867 33.0005H52.1222C52.0268 33.0003 51.9386 33.0514 51.8913 33.1343C51.844 33.2172 51.8449 33.3191 51.8936 33.4012L65.3053 56.5957ZM73.5984 63.4063C73.5523 63.3265 73.4701 63.2742 73.3782 63.2663H65.3137C65.2194 63.2667 65.1324 63.3172 65.0852 63.3989L51.8936 86.2125C51.8449 86.2946 51.844 86.3965 51.8913 86.4794C51.9386 86.5623 52.0268 86.6134 52.1222 86.6132H60.1867C60.2811 86.6105 60.368 86.5607 60.4181 86.4806L73.6096 63.667C73.6487 63.5835 73.6445 63.4861 73.5984 63.4063Z" fill="#E31337"/>
<path fill-rule="evenodd" clip-rule="evenodd" d="M67.1328 33.1267C67.0813 33.2108 67.0807 33.3166 67.1313 33.4013L82.4278 59.807L67.1454 86.2126C67.0964 86.2951 67.0958 86.3976 67.1437 86.4807C67.1917 86.5638 67.2808 86.6145 67.3768 86.6133H75.4526C75.5471 86.6135 75.6344 86.5628 75.6811 86.4807L91.0567 59.9396C91.1046 59.8577 91.1046 59.7562 91.0567 59.6743L75.6811 33.1332C75.6344 33.0511 75.5471 33.0004 75.4526 33.0006H67.3768C67.2783 32.994 67.1844 33.0425 67.1328 33.1267ZM60.5677 59.9537C60.6181 59.8664 60.6181 59.7588 60.5677 59.6715L44.9495 33.1332C44.8969 33.0564 44.8098 33.0105 44.7167 33.0105C44.6236 33.0105 44.5365 33.0564 44.4839 33.1332L29.0378 59.6602C28.9874 59.7475 28.9874 59.8551 29.0378 59.9424L44.656 86.4807C44.7086 86.5575 44.7957 86.6034 44.8888 86.6034C44.9819 86.6034 45.069 86.5575 45.1216 86.4807L60.5677 59.9537Z" fill="#E31337"/>
</svg>
