<svg width="120" height="120" viewBox="0 0 120 120" fill="none" xmlns="http://www.w3.org/2000/svg">
<circle cx="60" cy="60" r="60" fill="#EDF0F4"/>
<path fill-rule="evenodd" clip-rule="evenodd" d="M95.6727 50.1818C95.6727 50.1818 95.6727 50.5091 95.3455 50.5091C94.6909 53.1273 87.1636 67.5273 84.5455 70.1455L84.2182 70.4727L81.6 73.0909L96 79.9636V79.9636C87.8182 89.4545 75.0545 95.6727 60.3273 95.6727C45.6 95.6727 32.8364 89.4545 24.6545 79.9636L24 79.3091L37.7455 73.0909L36.4364 71.7818L34.8 70.4727C32.8364 68.8364 25.6364 54.7636 24.6545 51.1636L24.3273 50.8364C28.5818 53.7818 40.3636 56.7273 54.4364 57.3818H55.7455H57.0545H59.3455H61.6364H62.6182H63.9273C78 56.7273 89.1273 54.1091 94.0364 51.1636L94.3636 50.8364L95.6727 50.1818V50.1818V50.1818ZM40.3633 60L41.3451 63.2727C41.9996 65.2364 42.6542 67.2 43.3087 68.8364L43.9633 70.1455L45.5996 73.0909C45.9269 73.4182 45.9269 73.7455 46.2542 74.0727L46.5815 74.4L47.8906 75.3818C50.1815 76.6909 52.4724 78 55.4178 78.6545L56.3996 78.9818L59.3451 79.6364H59.9996H60.3269H60.9815L63.9269 78.9818C66.8724 78.3273 69.1633 77.3455 71.4542 76.0364L72.436 75.3818L73.7451 74.4C74.0724 74.0727 74.3996 73.7455 74.3996 73.4182L74.7269 73.0909L76.3633 70.1455C77.3451 68.1818 77.9996 66.5455 78.6542 64.5818L78.9815 62.9455L79.636 60C77.6724 63.6 74.0724 65.8909 69.8178 66.5455H69.1633H68.5087C65.236 66.2182 62.2906 64.2545 60.6542 61.6364L60.3269 60.9818H59.9996L59.6724 61.6364C58.036 64.2545 55.0906 65.8909 51.8178 66.5455H51.1633H50.5087H49.8542C45.5996 66.2182 41.9996 63.6 40.3633 60ZM60 24C62.6182 24 66.2182 25.9636 71.4545 30.2182L72.1091 30.8727L74.4 32.8364L80.6182 38.0727L84.8727 39.3818C85.5273 39.7091 86.1818 39.7091 86.8364 40.0364L88.1455 40.3636H89.1273L90.4364 40.6909L91.0909 41.0182L91.7455 41.3455C94.6909 42.3273 96 43.6364 96 45.2727V45.6V45.9273L95.6727 46.2545L95.3455 46.5818C90.7636 49.8545 78.9818 52.8 64.5818 53.4545H63.2727H62.2909H60H57.7091H56.0727C41.0182 52.8 28.9091 49.8545 24.3273 46.5818C24 46.2545 24 45.6 24 45.2727C24 43.3091 25.6364 42 28.9091 40.6909C28.2545 40.0364 28.2545 39.7091 27.6 39.0545C28.5818 38.0727 30.2182 37.0909 31.5273 36.7636C34.1455 36.4364 35.7818 37.0909 37.4182 37.4182C36.1091 36.7636 33.4909 34.1455 32.8364 33.1636C31.5273 30.5455 32.5091 28.5818 33.1636 27.6V27.2727L33.4909 26.9455L33.8182 26.6182H34.1455C34.8 26.6182 37.4182 26.6182 38.4 27.6C40.3636 30.5455 40.0364 33.8182 41.0182 35.4545C41.6727 33.8182 41.3455 32.1818 42.6545 30.2182C43.6364 27.9273 47.5636 25.3091 50.5091 25.9636C50.5091 26.9455 51.1636 27.6 50.8364 28.9091C54.7636 25.6364 57.7091 24 60 24Z" fill="#06803F"/>
</svg>
