<svg width="120" height="120" viewBox="0 0 120 120" fill="none" xmlns="http://www.w3.org/2000/svg">
<circle cx="60" cy="60" r="60" fill="#EDF0F4"/>
<path d="M79.9064 59.9418C75.9089 59.0969 62.3911 56.7736 48.0284 64.1114C35.8952 70.3149 29.9185 79.9526 27.8064 83.7936C15.8374 67.3735 17.887 44.5856 32.2028 30.9191C45.8458 17.8863 67.3273 16.2826 83.1529 27.391C79.7656 29.597 76.3705 31.7953 72.9832 34.0013C70.8319 32.9061 67.3273 31.4432 62.8135 30.9895C53.8329 30.0821 47.0896 33.7666 44.9383 35.0574C43.1078 36.1604 34.3071 41.7302 31.5613 53.089C29.7073 60.7632 31.577 67.0997 32.5 69.6969C33.5796 68.367 34.9329 66.8885 36.607 65.41C37.8039 64.3539 38.9774 63.4621 40.0569 62.7189C39.7909 60.6302 39.4858 55.8348 42.0439 50.8438C45.2513 44.5934 52.0649 39.7589 60.1068 39.8293C68.9388 39.9075 75.8151 45.8842 78.4905 52.3458C79.7499 55.3733 79.9377 58.1582 79.9064 59.9418Z" fill="#041742"/>
<path fill-rule="evenodd" clip-rule="evenodd" d="M79.5935 94.8943C71.755 99.3298 64.1121 100.073 59.2932 99.9948C47.778 99.8148 39.6266 94.7222 36.5288 92.5474C38.2498 91.4249 39.9708 90.3043 41.6918 89.1836C43.4129 88.063 45.1339 86.9424 46.8549 85.8198C58.0416 91.507 71.7081 89.3322 80.5713 80.4612C89.4268 71.5979 91.5937 57.9627 85.93 46.7839C87.0291 45.0981 88.1262 43.4103 89.2234 41.7225C90.3205 40.0347 91.4177 38.347 92.5168 36.6611C94.5586 39.5399 100.144 48.1998 99.9641 60.5129C99.7607 74.3672 92.3838 83.5825 90.2325 86.0936C88.1595 88.5265 84.7096 91.9998 79.5935 94.8943ZM57.1107 64.1897C51.134 65.9263 46.5577 68.7817 43.4129 71.238C44.4142 72.74 46.7611 75.8066 50.9619 77.9266C54.7012 79.8119 58.1276 80.0387 59.9112 80.0387C61.601 80.0466 67.1708 79.851 72.3574 75.7753C78.0837 71.2772 79.3901 65.1519 79.6717 63.6108C77.1371 63.0788 73.656 62.5469 69.502 62.5547C67.0691 62.5625 62.571 62.6016 57.1107 64.1897Z" fill="url(#paint0_linear_107_17986)"/>
<defs>
<linearGradient id="paint0_linear_107_17986" x1="74.866" y1="125.907" x2="127.345" y2="70.206" gradientUnits="userSpaceOnUse">
<stop stop-color="#0E9DE5"/>
<stop offset="0.1857" stop-color="#10A3DC"/>
<stop offset="0.4884" stop-color="#17B4C4"/>
<stop offset="0.8684" stop-color="#22D09C"/>
<stop offset="1" stop-color="#26DB8D"/>
</linearGradient>
</defs>
</svg>
