<svg width="120" height="120" viewBox="0 0 120 120" fill="none" xmlns="http://www.w3.org/2000/svg">
<path d="M60 120C93.138 120 120 93.138 120 60C120 26.862 93.138 0 60 0C26.862 0 0 26.862 0 60C0 93.138 26.862 120 60 120Z" fill="#EDF0F4"/>
<mask id="mask0_107_22636" style="mask-type:luminance" maskUnits="userSpaceOnUse" x="37" y="33" width="14" height="13">
<path fill-rule="evenodd" clip-rule="evenodd" d="M37.8373 33H50.5777V45.7422H37.8373V33Z" fill="white"/>
</mask>
<g mask="url(#mask0_107_22636)">
<path d="M50.5777 39.3706C50.5777 35.8529 47.7257 32.999 44.2061 32.999C40.6893 32.999 37.8373 35.8529 37.8373 39.3706C37.8373 42.8901 40.6893 45.7421 44.2061 45.7421C47.7257 45.7421 50.5777 42.8901 50.5777 39.3706Z" fill="#FF9E1F"/>
</g>
<mask id="mask1_107_22636" style="mask-type:luminance" maskUnits="userSpaceOnUse" x="69" y="33" width="14" height="13">
<path fill-rule="evenodd" clip-rule="evenodd" d="M69.6448 33H82.3852V45.7413H69.6448V33Z" fill="white"/>
</mask>
<g mask="url(#mask1_107_22636)">
<path d="M69.6448 39.3697C69.6448 35.8529 72.4959 32.999 76.0172 32.999C79.5341 32.999 82.3852 35.8529 82.3852 39.3697C82.3852 42.8883 79.5341 45.7412 76.0172 45.7412C72.4959 45.7412 69.6448 42.8883 69.6448 39.3697Z" fill="#24C0FB"/>
</g>
<mask id="mask2_107_22636" style="mask-type:luminance" maskUnits="userSpaceOnUse" x="37" y="51" width="15" height="37">
<path fill-rule="evenodd" clip-rule="evenodd" d="M37 51.3064V87.8805H51.436V52.2951V51.3064H37Z" fill="white"/>
</mask>
<g mask="url(#mask2_107_22636)">
<path d="M37 51.3064V87.8805H51.436V52.2951V51.3064H37Z" fill="url(#paint0_linear_107_22636)"/>
</g>
<mask id="mask3_107_22636" style="mask-type:luminance" maskUnits="userSpaceOnUse" x="68" y="51" width="16" height="37">
<path fill-rule="evenodd" clip-rule="evenodd" d="M68.7968 51.3064V87.8805H83.2337V52.2951V51.3064H68.7968Z" fill="white"/>
</mask>
<g mask="url(#mask3_107_22636)">
<path d="M68.7968 51.3064V87.8805H83.2337V52.2951V51.3064H68.7968Z" fill="url(#paint1_linear_107_22636)"/>
</g>
<path d="M68.7966 51.3157C67.7685 54.9742 64.092 57.6585 60.1042 57.6585C56.1154 57.6585 52.4658 54.9742 51.4359 51.3157V70.5057C54.1157 71.5832 57.0395 72.1807 60.1042 72.1807C72.1331 72.1807 82.0242 63.0342 83.2076 51.3157H68.7966Z" fill="#24C0FB"/>
<path d="M37.0004 51.3157C37.8796 60.0476 43.6007 67.3504 51.4364 70.5057V51.3157H37.0004Z" fill="#FF9E1F"/>
<defs>
<linearGradient id="paint0_linear_107_22636" x1="54.1875" y1="85.9342" x2="54.1875" y2="35.4197" gradientUnits="userSpaceOnUse">
<stop stop-color="#FB5059"/>
<stop offset="1" stop-color="#FF9E1F"/>
</linearGradient>
<linearGradient id="paint1_linear_107_22636" x1="85.6131" y1="85.8853" x2="85.6131" y2="37.2536" gradientUnits="userSpaceOnUse">
<stop stop-color="#9350D4"/>
<stop offset="1" stop-color="#23BFFB"/>
</linearGradient>
</defs>
</svg>
