<svg width="120" height="120" viewBox="0 0 120 120" fill="none" xmlns="http://www.w3.org/2000/svg">
<circle cx="60" cy="60" r="60" fill="#1E1E1E"/>
<path fill-rule="evenodd" clip-rule="evenodd" d="M92.5786 29.1166C89.308 32.9105 86.5846 36.0732 86.5267 36.1449C86.2436 36.4953 85.189 37.721 75.6334 48.8073C69.9894 55.3552 65.2472 60.8582 65.0951 61.0361L64.8186 61.3596L69.4498 69.4789C71.997 73.9444 74.0809 77.6065 74.0809 77.6165C74.0809 77.6265 72.1924 77.6344 69.8842 77.6334L65.6873 77.6329L62.7179 72.4473L59.7486 67.262L59.6331 67.3832C59.2499 67.7849 45.1322 84.2252 45.1527 84.2457C45.1665 84.2594 48.1192 81.7697 51.7142 78.7122C55.3092 75.6552 58.2635 73.1666 58.2792 73.1823C58.295 73.1981 59.3918 75.1242 60.7166 77.4618L63.1253 81.7129L72.0764 81.7266C76.9995 81.7339 81.0274 81.7297 81.0274 81.7176C81.0274 81.7055 78.4214 77.1308 75.2366 71.5517C72.0517 65.9726 69.4527 61.3812 69.4611 61.3486C69.4772 61.2861 97.5122 23.671 97.6433 23.5361C97.7422 23.4343 98.8742 21.6789 85.3416 42.6127C78.8498 52.6562 73.503 60.9328 73.4607 61.0052C73.3862 61.1328 73.5516 61.4286 78.9477 70.8197C82.0084 76.1451 84.5307 80.523 84.5538 80.5472C84.6007 80.5978 84.6375 80.4772 85.0522 78.9122L85.3479 77.7949L80.106 69.4756L74.8645 61.1564L86.7094 41.7319C93.2243 31.0484 98.5479 22.2875 98.5395 22.263C98.5316 22.2385 95.8487 25.3227 92.5786 29.1166ZM33.8228 85.0909C32.9111 86.1502 32.1425 87.0733 32.1149 87.1427C32.0687 87.2585 32.1379 87.3422 32.9569 88.1652C34.8425 90.0597 36.5541 91.4738 38.717 92.9236C40.2927 93.9798 41.6624 94.7686 43.5066 95.6833C48.3787 98.0987 53.571 99.5338 58.7408 99.8948C59.7571 99.9659 62.5646 99.9654 63.5823 99.8948C72.0257 99.306 79.7523 96.0348 86.041 90.3855C86.7551 89.7435 88.8354 87.6353 88.7949 87.5948C88.7796 87.5795 88.6859 87.6353 88.586 87.719C88.486 87.8021 88.0623 88.1589 87.6445 88.512C85.0811 90.6749 81.9852 92.6094 78.9098 93.9682C75.1076 95.648 71.2952 96.6326 67.0293 97.0362C65.6522 97.1668 62.203 97.1668 61.0037 97.0362C57.4534 96.6505 54.2713 95.8206 50.9535 94.4139C49.941 93.985 47.8645 92.9499 46.8475 92.3673C44.3883 90.9591 41.9074 89.1835 39.6828 87.2401C38.7663 86.4391 36.8549 84.5678 36.1084 83.74C35.8209 83.4216 35.5621 83.1616 35.5331 83.1627C35.5042 83.1637 34.7346 84.0315 33.8228 85.0909Z" fill="#EA39C4"/>
<path fill-rule="evenodd" clip-rule="evenodd" d="M58.1378 20.0198C53.341 20.3501 49.0516 21.4281 44.8236 23.366C41.4185 24.9267 38.274 27.008 35.3677 29.6247C34.5565 30.3551 32.64 32.3176 32.7139 32.3422C32.7433 32.3521 32.9876 32.165 33.2568 31.9265C33.5259 31.688 34.1112 31.2012 34.5575 30.8447C39.5389 26.8653 45.4981 24.2407 51.8491 23.229C53.8879 22.9042 55.2228 22.8054 57.5589 22.8061C60.1018 22.8069 61.4412 22.9365 63.7687 23.4073C68.0493 24.273 72.327 26.0447 76.4058 28.6411C78.2008 29.7841 80.2201 31.3022 81.8714 32.7507C82.734 33.5071 84.7427 35.4839 85.4384 36.2612C85.7178 36.5727 85.963 36.8213 85.9846 36.8137C86.063 36.7855 89.4495 32.8182 89.4495 32.7543C89.4495 32.6656 87.2523 30.4996 86.5551 29.9015C82.4703 26.395 77.7367 23.7369 72.4518 21.9819C69.5616 21.0222 66.8243 20.4365 63.716 20.1128C62.9419 20.0322 58.9293 19.9653 58.1378 20.0198ZM68.3805 43.4636C65.0849 46.5016 62.3667 48.9801 62.3401 48.9712C62.3134 48.9623 61.2049 47.0371 59.8767 44.693L57.4617 40.431L48.4832 40.4176L39.5047 40.4043L39.5674 40.5229C39.6019 40.5881 42.1368 45.004 45.2005 50.336L50.771 60.0306L36.3977 79.3064C28.4924 89.9077 21.9904 98.6171 21.9486 98.6608C21.9069 98.704 27.3365 90.2855 34.0144 79.9526C40.6922 69.6195 46.1658 61.1274 46.1779 61.0811C46.1948 61.0169 41.3716 52.4003 35.7722 42.4911C35.6459 42.2677 35.5866 42.2037 35.5563 42.2579C35.5333 42.2991 35.3016 42.9413 35.0414 43.6851L34.5685 45.0374L39.6491 53.0153C44.0396 59.9096 44.7228 61.0085 44.6783 61.1056C44.65 61.1673 39.3623 69.8497 32.9278 80.3999C19.6002 102.252 21.001 99.9449 21.0764 99.918C21.1087 99.9065 23.5974 97.0321 26.6069 93.5299C29.6164 90.0277 32.1966 87.0317 32.3406 86.8728C32.4846 86.7134 33.2233 85.8608 33.9822 84.9783C34.7411 84.0953 35.4193 83.3075 35.4893 83.2275C35.5593 83.1475 40.0942 77.8829 45.5668 71.5283C52.3453 63.6575 55.5094 59.9463 55.4931 59.8858C55.48 59.8369 53.5097 56.4005 51.1148 52.2492C48.7198 48.0979 46.7483 44.67 46.7336 44.6317C46.7116 44.5742 47.4441 44.5621 50.9094 44.5625L55.1118 44.563L57.847 49.2992C59.3514 51.9041 60.5985 54.0293 60.6185 54.0218C60.6657 54.0041 74.4513 37.9968 74.4513 37.9596C74.4513 37.944 74.4339 37.9332 74.4118 37.9356C74.3903 37.9379 71.6762 40.4255 68.3805 43.4636Z" fill="#75FA4C"/>
</svg>
