<svg width="120" height="120" viewBox="0 0 120 120" fill="none" xmlns="http://www.w3.org/2000/svg">
<circle cx="60" cy="60" r="60" fill="#EDF0F4"/>
<circle cx="59.9998" cy="60.0002" r="43.771" fill="white"/>
<path fill-rule="evenodd" clip-rule="evenodd" d="M105 60.0001C105 35.1474 84.8525 15.0003 59.9998 15.0003C35.2961 14.9368 15.2423 34.9848 15 59.5213V60.0001C15 84.8528 35.1471 105 59.9998 105C84.8525 105 105 84.8528 105 60.0001ZM18.2942 59.7405C18.3923 36.9269 37.0556 18.2773 60.9462 18.2657C71.498 18.4157 81.3979 22.5003 89.5381 30.5772C96.5383 37.374 100.809 46.4978 101.544 56.227C102.594 69.1039 98.5669 80.3481 89.3766 89.5154C81.2997 97.5749 71.4286 101.619 59.9998 101.66C36.923 101.74 18.1904 82.7827 18.2942 59.7405ZM60.9462 18.2657C60.95 18.2657 60.9537 18.2657 60.9575 18.2657H60.9459C60.946 18.2657 60.9461 18.2657 60.9462 18.2657Z" fill="#333333"/>
<path fill-rule="evenodd" clip-rule="evenodd" d="M88.892 31.3791C95.4807 37.8269 99.5692 46.4025 100.43 55.581C101.728 68.4867 97.7823 79.6616 88.6381 88.8116C80.6766 96.7846 70.8978 100.731 59.6248 100.65C37.5372 100.055 19.9618 81.9402 20.0355 59.8447C20.1091 37.7492 37.8048 19.7516 59.8959 19.3042C71.2151 19.3215 80.9247 23.383 88.892 31.3791ZM78.7839 29.6078C78.7967 28.923 78.2519 28.3574 77.567 28.3445C76.8832 28.3349 76.3193 28.8781 76.3036 29.5618C76.2909 30.2467 76.8358 30.8122 77.5207 30.8249C78.2056 30.8376 78.7711 30.2927 78.7839 29.6078ZM71.9997 25.7542C72.7016 25.7573 73.269 26.3273 73.269 27.0292C73.2599 27.3566 73.1211 27.6671 72.883 27.8922C72.645 28.1172 72.3272 28.2385 71.9997 28.2292C71.6815 28.2338 71.3744 28.1118 71.1461 27.89C70.9178 27.6682 70.787 27.3647 70.7824 27.0465V26.9888C70.7885 26.3161 71.3272 25.7697 71.9997 25.7542ZM67.4017 25.3849C67.3183 24.732 66.7935 24.224 66.1382 24.1619C65.4461 24.1518 64.8713 24.6935 64.8401 25.3849C64.8366 26.0578 65.3678 26.6119 66.0401 26.6369C66.7557 26.6507 67.3555 26.0991 67.4017 25.3849ZM59.9998 23.6542C60.6809 23.651 61.2359 24.2 61.2401 24.8811C61.2443 25.5622 60.6962 26.118 60.0151 26.1233C59.334 26.1286 58.7773 25.5814 58.7709 24.9003C58.7709 24.2188 59.3183 23.6636 59.9998 23.6542ZM55.1536 25.3849C55.1191 24.7275 54.5938 24.2022 53.9363 24.1676L53.9133 24.1619C53.2368 24.1734 52.686 24.7091 52.6556 25.3849C52.6525 25.7093 52.7784 26.0216 53.0056 26.2532C53.2328 26.4847 53.5427 26.6165 53.8671 26.6196H53.9133C54.2417 26.6211 54.5572 26.4917 54.79 26.26C55.0228 26.0283 55.1536 25.7134 55.1536 25.3849ZM48.0056 25.7542C48.6861 25.7637 49.2319 26.3197 49.2287 27.0003C49.2449 27.6566 48.7308 28.2041 48.0748 28.2292H48.0171C47.6862 28.2416 47.364 28.1212 47.1223 27.8947C46.8807 27.6682 46.7396 27.3545 46.7306 27.0234C46.7278 27.0062 46.7278 26.9887 46.7306 26.9715C46.7644 26.2913 47.3245 25.7564 48.0056 25.7542ZM43.5475 28.8883C43.2997 28.5209 42.8747 28.3136 42.4325 28.3445C41.7818 28.389 41.2767 28.9298 41.2767 29.582C41.2767 30.2343 41.7818 30.7751 42.4325 30.8195H42.6056C43.0477 30.7886 43.4398 30.5242 43.6341 30.1258C43.8283 29.7275 43.7954 29.2558 43.5475 28.8883ZM37.4537 31.8465C38.1336 31.8619 38.6792 32.4127 38.6883 33.0926C38.6852 33.7731 38.1343 34.3241 37.4537 34.3272C37.136 34.3397 36.8264 34.2249 36.5935 34.0083C36.3607 33.7917 36.2239 33.4912 36.2133 33.1734C36.2102 33.1523 36.2102 33.1309 36.2133 33.1099C36.1906 32.4323 36.7186 31.863 37.396 31.8349L37.4537 31.8465ZM34.3499 37.4426C34.3661 36.7608 33.8314 36.1926 33.1499 36.1676H33.1441C32.4524 36.1701 31.8854 36.7168 31.8576 37.408C31.8756 38.0864 32.4197 38.633 33.098 38.6541C33.7776 38.6638 34.3373 38.1222 34.3499 37.4426ZM29.6134 41.1983C30.2674 41.1853 30.8114 41.6985 30.8364 42.3522C30.8422 42.369 30.8422 42.3873 30.8364 42.4041C30.8461 43.0869 30.3019 43.6491 29.6191 43.6618C28.9211 43.6494 28.3592 43.0848 28.3499 42.3868C28.3748 41.7103 28.9306 41.1748 29.6076 41.1753L29.6134 41.1983ZM28.2692 47.9945C28.2724 47.3043 27.7189 46.7405 27.0288 46.731C26.3521 46.7366 25.7987 47.2721 25.7711 47.9483C25.7915 48.6098 26.3233 49.1411 26.9848 49.161C27.6464 49.1808 28.2091 48.6824 28.2692 48.0233V47.9945ZM25.4134 52.6329C26.1118 52.636 26.679 53.198 26.6884 53.8964C26.6695 54.5755 26.1101 55.1144 25.4307 55.1079C25.114 55.1094 24.8096 54.9851 24.5846 54.7622C24.3595 54.5393 24.2322 54.2362 24.2307 53.9194C24.2239 53.2497 24.75 52.6955 25.4192 52.6675L25.4134 52.6329ZM24.8884 58.7425C24.2105 58.7726 23.6713 59.3218 23.6538 60.0002C23.6734 60.6615 24.1934 61.1991 24.8538 61.2406H24.9807C25.6511 61.2064 26.1672 60.636 26.1345 59.9656C26.1315 59.6381 25.9985 59.3253 25.7648 59.0959C25.5311 58.8665 25.2158 58.7394 24.8884 58.7425ZM24.2307 66.0867C24.2306 65.4074 24.7746 64.8531 25.4538 64.8405C26.1508 64.853 26.7111 65.4184 26.7172 66.1155C26.7082 66.443 26.5693 66.7535 26.3313 66.9785C26.0932 67.2036 25.7755 67.3248 25.448 67.3155C24.7938 67.3317 24.2496 66.8159 24.2307 66.1617V66.0925V66.0867ZM25.7884 72.0232C25.8104 72.7047 26.3759 73.2419 27.0576 73.229L27.0345 73.2174C27.7151 73.2143 28.266 72.6634 28.2692 71.9828C28.2517 71.314 27.7202 70.7725 27.0518 70.7424C26.3539 70.758 25.7945 71.3251 25.7884 72.0232ZM29.6365 78.7847C28.9588 78.7761 28.4063 78.2388 28.3788 77.5616C28.3787 76.8747 28.9322 76.316 29.6191 76.3097H29.648C30.302 76.2967 30.846 76.8099 30.8711 77.4636C30.8739 77.4846 30.8739 77.506 30.8711 77.527C30.8726 77.8524 30.7444 78.165 30.5149 78.3956C30.2853 78.6262 29.9734 78.7559 29.648 78.7559H29.6134L29.6365 78.7847ZM29.6367 69.0916L29.6365 69.0924L29.6134 69.0809L29.6367 69.0916ZM29.6367 69.0916L29.6999 68.8674H42.8537C44.5537 68.8674 45.4076 68.8674 45.8364 68.4405C46.2691 68.0098 46.2691 67.1444 46.2691 65.4059V56.7521C46.2691 55.8117 46.396 55.3733 47.521 55.4194C49.996 55.5233 52.4825 55.4887 54.9575 55.4194C55.8229 55.4194 56.1113 55.6848 56.1113 56.5329C56.0883 61.3713 56.0883 66.2155 56.1113 71.0655C56.1113 71.9886 55.8229 72.4559 54.8479 72.3636C54.564 72.3347 54.2779 72.3347 53.994 72.3636C52.8806 72.4847 52.4998 72.052 52.4998 70.9617C52.5344 68.6278 52.5229 66.2965 52.5114 63.9643V63.9642V63.9641V63.9641V63.964V63.9639V63.9639V63.9638V63.9637V63.9637V63.9636V63.9635V63.9634V63.9634V63.9633V63.9632V63.9632V63.9631V63.963V63.963V63.9629V63.9628V63.9628C52.5056 62.7961 52.4998 61.6292 52.4998 60.4617C52.4998 59.4983 52.1998 59.054 51.1671 59.054C50.1344 59.054 49.7941 59.3771 49.8114 60.404C49.8352 62.2115 49.8344 64.0189 49.8336 65.8256V65.8256V65.8257V65.8258V65.8258V65.8259V65.826V65.826V65.8261V65.8262V65.8263V65.8263V65.8264V65.8265V65.8265V65.8266V65.8267V65.8267V65.8268V65.8269V65.8269V65.827V65.8271C49.8329 67.5203 49.8322 69.2128 49.8517 70.904C49.8517 72.0578 49.4998 72.3809 48.3864 72.3636C47.0881 72.3424 45.7883 72.3585 44.4893 72.3745C42.2438 72.4023 40.0005 72.43 37.771 72.2655C36.5481 72.1763 35.3533 71.6465 34.1659 71.1199C33.7401 70.9311 33.3152 70.7426 32.8903 70.5751C32.1354 70.2796 31.3832 69.9204 30.6262 69.5589L30.6262 69.5588C30.2975 69.4019 29.9678 69.2445 29.6367 69.0916ZM33.2768 83.8155C32.9416 83.8544 32.6047 83.7582 32.3405 83.5482C32.0764 83.3382 31.9068 83.0316 31.8691 82.6962C31.8636 82.631 31.8636 82.5653 31.8691 82.5001C31.9107 81.8047 32.4766 81.2563 33.173 81.2366C33.8678 81.328 34.3976 81.9039 34.4307 82.6039C34.3348 83.207 33.8751 83.6874 33.2768 83.8097V83.8155ZM36.2364 86.9077C36.2364 87.5673 36.7711 88.102 37.4306 88.102L37.4537 88.0962H37.4999C37.8258 88.0977 38.139 87.9697 38.3705 87.7404C38.602 87.511 38.733 87.199 38.7345 86.8731C38.7225 86.1934 38.1794 85.6426 37.4999 85.6212C37.1694 85.6166 36.8506 85.7435 36.6136 85.9739C36.3767 86.2044 36.241 86.5195 36.2364 86.8501V86.9077ZM42.496 91.6154C42.1777 91.6279 41.8675 91.5133 41.6337 91.2969C41.4 91.0804 41.2619 90.7799 41.2499 90.4616C41.247 90.4463 41.247 90.4307 41.2499 90.4154C41.2304 89.7283 41.7687 89.154 42.4556 89.1289H42.4902C43.1701 89.1444 43.7157 89.6951 43.7249 90.375C43.7295 90.7014 43.6035 91.0161 43.3748 91.249C43.1462 91.482 42.8339 91.6139 42.5075 91.6154H42.496ZM46.7364 93.0404C46.7827 93.719 47.3669 94.2338 48.046 94.1942L48.0748 94.1885C48.7299 94.1665 49.2449 93.6207 49.2287 92.9654C49.2224 92.2839 48.6698 91.7339 47.9883 91.7308C47.3113 91.7542 46.7661 92.2944 46.7364 92.9712V93.0404ZM41.1374 74.4392L41.1374 74.4392L41.1372 74.4391L41.1371 74.439L41.137 74.4389L41.1368 74.4389L41.1367 74.4388L41.1366 74.4387L41.1364 74.4387L41.1363 74.4386L41.1361 74.4385L41.136 74.4385L41.1359 74.4384L41.1357 74.4383L41.1356 74.4383L41.1355 74.4382L41.1353 74.4381L41.1352 74.4381L41.135 74.438C40.8011 74.2756 40.467 74.1132 40.1306 73.9559L40.2633 73.604H57.1152C57.3343 73.604 57.5327 73.6056 57.7123 73.6071H57.7126H57.7129H57.7132H57.7135C58.596 73.6143 59.0237 73.6179 59.2302 73.4059C59.4244 73.2066 59.423 72.8169 59.4205 72.0606V72.0605V72.0603V72.0602V72.06V72.0599V72.0597V72.0595V72.0593V72.0592V72.059V72.0588V72.0585V72.0583V72.0581V72.0579V72.0576C59.4198 71.8366 59.4189 71.5842 59.4229 71.2963V48.7041C59.4229 47.4637 59.7632 47.0887 61.0036 47.1348C63.4036 47.2272 65.8036 47.1925 68.2094 47.1348C69.0747 47.1348 69.4613 47.3598 69.4613 48.2887V76.252C69.4613 77.2559 69.0344 77.5674 68.1113 77.4059C67.7983 77.3228 67.4771 77.2744 67.1536 77.2616L67.1216 77.2627C65.6247 77.3136 65.619 77.3138 65.619 75.7213V52.6444C65.619 52.5459 65.6248 52.4429 65.6307 52.3386C65.6629 51.7711 65.6973 51.1646 64.8055 51.0233C63.5709 50.8271 63.2017 51.1156 63.2017 52.4079V75.8539C63.2017 77.4462 63.2017 77.452 61.5632 77.452C60.2053 77.452 58.8481 77.4456 57.491 77.4392H57.4904H57.4904H57.4903H57.4903H57.4903H57.4902H57.4902H57.4902H57.4901H57.4901H57.49H57.49H57.49H57.4899H57.4899H57.4899H57.4898C54.7768 77.4264 52.0646 77.4136 49.3498 77.452C47.6854 77.5186 46.3211 76.8499 44.9581 76.1818C44.4314 75.9237 43.9049 75.6656 43.3614 75.4501H43.3499C42.5981 75.1494 41.8681 74.7945 41.1374 74.4392ZM52.6614 94.5808C52.6864 95.2605 53.2565 95.792 53.9363 95.7692C54.6268 95.7564 55.1766 95.1869 55.1649 94.4964C55.1532 93.8059 54.5846 93.2552 53.894 93.2658C53.2035 93.2763 52.6519 93.8441 52.6614 94.5346C52.6585 94.5499 52.6585 94.5655 52.6614 94.5808ZM59.9998 96.3462C59.301 96.3335 58.744 95.7584 58.7536 95.0596C58.7727 94.3723 59.3425 93.8289 60.0299 93.8426C60.7174 93.8562 61.2652 94.4218 61.2569 95.1093C61.2486 95.7969 60.6874 96.3491 59.9998 96.3462ZM64.8459 94.5058C64.832 95.1673 65.3397 95.7232 65.9998 95.7692L66.0632 95.7519C66.7346 95.7816 67.3064 95.2688 67.3497 94.5981C67.3662 94.1508 67.1429 93.7287 66.7638 93.4908C66.3847 93.2529 65.9074 93.2353 65.5118 93.4447C65.1163 93.654 64.8624 94.0585 64.8459 94.5058ZM71.994 94.1885C71.3411 94.1985 70.7989 93.687 70.7709 93.0346V92.9769C70.7738 92.2989 71.3161 91.7464 71.994 91.7308C72.691 91.7433 73.2513 92.3087 73.2574 93.0058C73.2263 93.6772 72.666 94.2017 71.994 94.1885ZM76.6879 91.2662C76.9226 91.4901 77.2368 91.6116 77.5612 91.6039L77.5785 91.627H77.6305C78.2874 91.5988 78.8006 91.0496 78.7843 90.3923C78.794 89.7095 78.2498 89.1473 77.567 89.1347C76.8683 89.141 76.3061 89.7109 76.3093 90.4097C76.3169 90.7341 76.453 91.0422 76.6879 91.2662ZM78.5919 57.0893V57.0891C78.5589 51.8224 78.5285 46.9708 78.5305 44.2675C78.5305 44.221 78.5308 44.1746 78.5311 44.1286C78.5357 43.4278 78.5398 42.809 77.4516 42.8252C76.517 42.8252 76.2978 43.1656 76.2978 44.0483C76.3324 48.0868 76.2343 78.4789 76.2343 78.4789V82.2981C76.099 82.3126 75.9716 82.3287 75.8491 82.3442L75.8487 82.3443L75.8483 82.3443L75.8481 82.3443L75.8476 82.3444L75.847 82.3445L75.8466 82.3445L75.8464 82.3446H75.8463H75.8463H75.8462C75.5781 82.3786 75.3334 82.4096 75.0805 82.4135C73.595 82.4135 72.1091 82.4217 70.6231 82.43H70.6229H70.6227H70.6225H70.6223H70.6221H70.6219H70.6217H70.6215H70.6213H70.6211H70.6209H70.6208H70.6207H70.6206H70.6205H70.6204H70.6203H70.6201H70.62H70.6199H70.6198H70.6197C66.8204 82.451 63.0206 82.472 59.2267 82.3558C58.2479 82.3261 57.2723 81.8599 56.3091 81.3998L56.309 81.3997L56.309 81.3997L56.3089 81.3997L56.3088 81.3996L56.3088 81.3996L56.3087 81.3996L56.3086 81.3995L56.3086 81.3995L56.3085 81.3995L56.3084 81.3994L56.3084 81.3994L56.3083 81.3994C55.9659 81.2358 55.6251 81.073 55.2863 80.9308C53.786 80.3312 52.3483 79.5853 50.9941 78.7039C51.1671 78.7039 51.3402 78.6881 51.5133 78.6722C51.6864 78.6563 51.8594 78.6405 52.0325 78.6405L69.7324 78.7155H69.7325C71.0989 78.7155 71.7664 78.7155 72.0925 78.3818C72.404 78.063 72.4039 77.4397 72.4036 76.2209L72.4036 76.1078V40.4483C72.4036 39.4503 72.6286 38.9887 73.7593 39.0233C76.3209 39.1041 78.8882 39.0753 81.4497 39.0233C82.3093 39.0233 82.6035 39.3176 82.6035 40.1772V80.7693C82.6035 81.5829 82.6035 81.9939 82.398 82.2022C82.1882 82.4149 81.7643 82.4164 80.9074 82.4193C78.3234 82.4193 78.3279 82.3744 78.5889 79.8193L78.5997 79.7135L78.6055 79.702C78.7262 78.5019 78.6544 67.0544 78.5919 57.0915V57.0909V57.0906V57.0904V57.0897V57.0893ZM81.3112 86.8731C81.3238 87.5514 81.879 88.0937 82.5574 88.0904L82.5516 88.0962H82.6381C82.9565 88.0968 83.261 87.9658 83.4795 87.7342C83.698 87.5025 83.8111 87.191 83.792 86.8731C83.7997 86.5457 83.677 86.2285 83.4509 85.9916C83.2247 85.7546 82.9137 85.6172 82.5862 85.6097C81.8891 85.6158 81.3237 86.1761 81.3112 86.8731ZM82.5978 34.3214C81.9259 34.3282 81.3708 33.7987 81.3458 33.1272C81.343 33.1139 81.343 33.1001 81.3458 33.0868C81.3608 32.4094 81.9032 31.862 82.5804 31.8407C82.9074 31.8376 83.222 31.9649 83.4548 32.1945C83.6876 32.424 83.8193 32.7368 83.8208 33.0638C83.8603 33.7216 83.3594 34.287 82.7016 34.3272H82.6324L82.5978 34.3214ZM85.7111 82.5376C85.7111 83.1898 86.2163 83.7306 86.867 83.7751C87.3293 83.8066 87.7706 83.5779 88.0113 83.182C88.2521 82.7861 88.2521 82.289 88.0113 81.8931C87.7706 81.4972 87.3293 81.2685 86.867 81.3001C86.2163 81.3445 85.7111 81.8853 85.7111 82.5376ZM86.867 38.6714C86.1756 38.6714 85.6151 38.1109 85.6151 37.4195C85.6151 36.7281 86.1756 36.1676 86.867 36.1676C87.5584 36.1676 88.1189 36.7281 88.1189 37.4195C88.1094 38.1041 87.5517 38.6542 86.867 38.6541V38.6714ZM94.615 55.1194C95.2692 55.1006 95.785 54.5564 95.7689 53.9021C95.7859 53.2384 95.2773 52.679 94.615 52.6329C94.2722 52.6252 93.9405 52.7539 93.6927 52.9909C93.4449 53.2279 93.3014 53.5536 93.2939 53.8964C93.3065 54.5778 93.8642 55.1227 94.5458 55.1194H94.615ZM90.3804 41.2099C91.0607 41.2129 91.614 41.7586 91.6266 42.4387C91.6109 43.1357 91.043 43.6934 90.3458 43.6964C89.6666 43.6714 89.1328 43.1067 89.1458 42.4272C89.1327 41.7721 89.645 41.2264 90.2996 41.1983H90.3862L90.3804 41.2099ZM89.1516 77.5559C89.1516 78.2345 89.7017 78.7847 90.3804 78.7847L90.3977 78.7789C91.0712 78.7702 91.6193 78.2347 91.6439 77.5616V77.5328C91.6378 77.2018 91.4997 76.8869 91.2602 76.6582C91.0208 76.4296 90.6998 76.3062 90.3689 76.3155H90.3054C89.6448 76.3405 89.1288 76.8952 89.1516 77.5559ZM92.965 46.731C93.4659 46.7311 93.9172 47.0338 94.1072 47.4972C94.2972 47.9607 94.1884 48.4931 93.8317 48.8448C93.475 49.1964 92.9412 49.2978 92.4804 49.1012C92.0197 48.9046 91.7234 48.4492 91.7304 47.9483C91.7547 47.2796 92.2961 46.7458 92.965 46.731ZM91.7304 72.0232C91.7585 72.7024 92.3258 73.2337 93.0054 73.2174C93.6846 73.2048 94.2286 72.6506 94.2285 71.9713C94.2342 71.9176 94.2342 71.8634 94.2285 71.8097C94.1695 71.1199 93.5625 70.6085 92.8727 70.6674C92.1829 70.7264 91.6715 71.3334 91.7304 72.0232ZM94.5342 67.304C93.8576 67.2885 93.3145 66.7404 93.3054 66.0636C93.3335 65.3644 93.9154 64.8159 94.615 64.829C95.2819 64.8752 95.7922 65.4417 95.7688 66.1098C95.7704 66.426 95.6459 66.7297 95.4228 66.9539C95.1998 67.178 94.8966 67.304 94.5804 67.304H94.5342ZM94.251 60.8928C94.4838 61.1094 94.7934 61.2242 95.1112 61.2117H95.1169H95.1919C95.5132 61.2133 95.8217 61.0859 96.0483 60.8582C96.2749 60.6305 96.4008 60.3214 96.3977 60.0002V59.9482C96.3726 59.5986 96.2095 59.2732 95.9444 59.0438C95.6793 58.8144 95.3339 58.6998 94.9842 58.7252H94.9035C94.599 58.7558 94.3191 58.9061 94.1255 59.143C93.9318 59.38 93.8402 59.6841 93.8708 59.9886C93.868 60.0116 93.868 60.0349 93.8708 60.0579C93.8813 60.3757 94.0181 60.6762 94.251 60.8928Z" fill="#004B6A"/>
</svg>
