<svg width="120" height="120" viewBox="0 0 120 120" fill="none" xmlns="http://www.w3.org/2000/svg">
<path d="M118.191 74.5143C110.178 106.657 77.6222 126.219 45.4752 118.204C13.3417 110.19 -6.22004 77.6324 1.79691 45.4918C9.80683 13.3451 42.3626 -6.21803 74.4997 1.79541C106.644 9.80884 126.205 42.3702 118.191 74.5149L118.191 74.5143H118.191Z" fill="black"/>
<mask id="mask0_107_19997" style="mask-type:luminance" maskUnits="userSpaceOnUse" x="28" y="47" width="75" height="56">
<path fill-rule="evenodd" clip-rule="evenodd" d="M89.36 48.2198C82.9289 48.9225 78.1763 54.5413 78.55 60.9998C78.6602 62.6985 77.8109 64.3161 76.35 65.1898C75.62 65.6382 74.7765 65.8672 73.92 65.8498C73.0704 65.839 72.2375 65.6119 71.5 65.1898C69.5492 64.0729 67.3476 63.4675 65.1 63.4298H63.78C57.3898 64.1684 52.7186 69.8144 53.19 76.2298C53.3045 77.9269 52.4588 79.5451 51 80.4198C50.2738 80.8684 49.4334 81.0976 48.58 81.0798C47.7923 81.0975 47.0191 80.8666 46.37 80.4198C44.4286 79.3066 42.2376 78.7012 40 78.6598H38.63C32.3485 79.4685 27.7603 84.9947 28.1207 91.3178C28.481 97.6409 33.6673 102.61 40 102.7H41.1C46.8138 102.137 51.3283 97.6057 51.87 91.8898V89.8898C51.7622 88.1917 52.6109 86.5753 54.07 85.6998C54.8 85.2515 55.6435 85.0224 56.5 85.0398C57.3497 85.0506 58.1825 85.2778 58.92 85.6998C60.8682 86.8243 63.0709 87.4335 65.32 87.4698H66.64C72.2801 86.8278 76.6988 82.3215 77.23 76.6698V74.6698C77.1204 72.9661 77.9737 71.3443 79.44 70.4698C80.1663 70.0213 81.0066 69.7921 81.86 69.8098C82.6477 69.7922 83.421 70.0231 84.07 70.4698C86.0147 71.5939 88.2141 72.2031 90.46 72.2398H91.79C97.74 71.1398 102.37 66.2398 102.37 60.1098C102.399 56.9238 101.16 53.8568 98.9262 51.5852C96.692 49.3135 93.6461 48.0236 90.46 47.9998C90.0789 47.9425 89.6897 48.0203 89.36 48.2198Z" fill="white"/>
</mask>
<g mask="url(#mask0_107_19997)">
<path d="M84 47.7698L32.5 78.8698C26.0381 82.7727 23.9312 91.1555 27.78 97.6498C29.6511 100.82 32.7151 103.107 36.2862 104C39.8573 104.893 43.6372 104.316 46.78 102.4L98.41 70.9998C104.693 67.0854 106.726 58.886 103 52.4898C101.135 49.3121 98.0687 47.0202 94.4931 46.1319C90.9175 45.2436 87.1348 45.8341 84 47.7698Z" fill="url(#paint0_linear_107_19997)"/>
</g>
<mask id="mask1_107_19997" style="mask-type:luminance" maskUnits="userSpaceOnUse" x="28" y="32" width="49" height="40">
<path fill-rule="evenodd" clip-rule="evenodd" d="M64 33.0001C57.5648 33.7029 52.8107 39.3278 53.19 45.7901C53.3146 47.4946 52.4672 49.1237 51 50.0001C50.2737 50.4487 49.4334 50.6779 48.58 50.6601C47.7855 50.682 47.0046 50.4509 46.35 50.0001C44.4163 48.8831 42.2325 48.271 40 48.2201H38.63C32.7359 48.9715 28.3074 53.9685 28.27 59.9101C28.2476 66.5264 33.5641 71.9233 40.18 72.0001H41.28C46.9958 71.4584 51.5271 66.9439 52.09 61.2301V59.2301C51.9775 57.531 52.8274 55.9123 54.29 55.0401C55.0171 54.584 55.8619 54.3511 56.72 54.3701C57.5062 54.3513 58.2777 54.5862 58.92 55.0401C60.8708 56.157 63.0724 56.7625 65.32 56.8001H66.64C72.8052 55.883 77.258 50.4223 76.9157 44.1987C76.5734 37.975 71.5486 33.0356 65.32 32.8001C64.8699 32.7395 64.4119 32.8089 64 33.0001Z" fill="white"/>
</mask>
<g mask="url(#mask1_107_19997)">
<path d="M74.79 35.5501C70.6365 31.3909 64.1954 30.5683 59.13 33.5501L33.63 48.9101C30.1824 50.9481 27.8666 54.4614 27.3528 58.4332C26.839 62.405 28.1845 66.3919 31 69.2401C35.1908 73.4224 41.6782 74.2446 46.78 71.2401L72.3 55.6901C75.698 53.6506 77.9679 50.1602 78.4541 46.2271C78.9404 42.2939 77.5889 38.3558 74.79 35.5501Z" fill="url(#paint1_linear_107_19997)"/>
</g>
<mask id="mask2_107_19997" style="mask-type:luminance" maskUnits="userSpaceOnUse" x="27" y="17" width="25" height="25">
<circle cx="39.74" cy="29.6898" r="11.91" fill="white"/>
</mask>
<g mask="url(#mask2_107_19997)">
<rect x="21.8365" y="29.6904" width="25.3001" height="25.3001" rx="12.38" transform="rotate(-45 21.8365 29.6904)" fill="url(#paint2_linear_107_19997)"/>
</g>
<defs>
<linearGradient id="paint0_linear_107_19997" x1="27.46" y1="20.8169" x2="70.05" y2="20.8169" gradientUnits="userSpaceOnUse">
<stop stop-color="#F4C503"/>
<stop offset="1" stop-color="#FFE800"/>
</linearGradient>
<linearGradient id="paint1_linear_107_19997" x1="10.97" y1="21.2529" x2="51.38" y2="21.2529" gradientUnits="userSpaceOnUse">
<stop stop-color="#F4C503"/>
<stop offset="1" stop-color="#FFE800"/>
</linearGradient>
<linearGradient id="paint2_linear_107_19997" x1="-6.11258" y1="36.235" x2="31.0566" y2="36.235" gradientUnits="userSpaceOnUse">
<stop stop-color="#F4C503"/>
<stop offset="1" stop-color="#FFE800"/>
</linearGradient>
</defs>
</svg>
