<svg width="120" height="120" viewBox="0 0 120 120" fill="none" xmlns="http://www.w3.org/2000/svg">
<circle cx="60" cy="60" r="60" fill="#00D4D5"/>
<path d="M61.46 19V39.4535L79.2319 29.2399L61.46 19Z" fill="white"/>
<path opacity="0.9" d="M79.2319 29.2397V49.6933L97.0001 39.4534L79.2319 29.2397Z" fill="white"/>
<path opacity="0.8" fill-rule="evenodd" clip-rule="evenodd" d="M61.46 59.9071V39.4536L79.2319 49.6935L61.46 59.9071ZM79.2319 70.147V49.6972L97.0001 59.9071L79.2319 70.147Z" fill="white"/>
<path opacity="0.8" d="M61.46 59.9072V80.3608L79.2319 70.1471L61.46 59.9072Z" fill="white"/>
<path d="M79.2319 70.147V90.6005L97.0001 80.3606L79.2319 70.147Z" fill="white"/>
<path opacity="0.4" d="M15.5259 38.7637V59.2172L33.2978 48.9773L15.5259 38.7637Z" fill="white"/>
<path opacity="0.2" d="M37.9453 46.3687V66.8222L55.6872 56.6085L37.9453 46.3687Z" fill="white"/>
<path opacity="0.3" d="M24.772 59.3037V79.7572L42.5402 69.5174L24.772 59.3037Z" fill="white"/>
<path opacity="0.9" d="M36.4824 74.7383V95.1918L54.2244 84.9519L36.4824 74.7383Z" fill="white"/>
<path opacity="0.7" d="M61.3135 83.543V104L79.0554 93.7566L61.3135 83.543Z" fill="white"/>
<path opacity="0.9" d="M40.9048 36.2676V56.7248L58.6467 46.5112L40.9048 36.2676Z" fill="white"/>
<path opacity="0.8" d="M61.4599 19V39.4535L43.688 29.2399L61.4599 19Z" fill="white"/>
<path opacity="0.6" d="M40.9046 27.6958V48.1456L23.1289 37.9057L40.9046 27.6958Z" fill="white"/>
<path opacity="0.6" d="M58.6767 37.8154V58.2727L40.9048 48.0291L58.6767 37.8154Z" fill="white"/>
<path opacity="0.95" d="M37.8628 46.3687V66.8222L20.0908 56.6085L37.8628 46.3687Z" fill="white"/>
<path opacity="0.6" d="M61.4597 59.9072V80.3608L43.7178 70.1471L61.4597 59.9072Z" fill="white"/>
<path opacity="0.55" d="M24.7719 64.6709V85.1244L7 74.8808L24.7719 64.6709Z" fill="white"/>
<path d="M97.0001 39.4536V59.9071L79.2319 49.6935L97.0001 39.4536Z" fill="white"/>
<path opacity="0.95" d="M79.2319 49.6973V70.147L61.46 59.9072L79.2319 49.6973Z" fill="white"/>
<path opacity="0.9" d="M97.0001 59.9072V80.3608L79.2319 70.1471L97.0001 59.9072Z" fill="white"/>
<path opacity="0.7" d="M79.2319 70.147V90.6005L61.46 80.3606L79.2319 70.147Z" fill="white"/>
<path opacity="0.4" d="M57.525 78.6699V99.1234L39.7568 88.9098L57.525 78.6699Z" fill="white"/>
<path d="M79.2319 29.2397V49.6933L61.46 39.4534L79.2319 29.2397Z" fill="white"/>
</svg>
