<svg width="120" height="120" viewBox="0 0 120 120" fill="none" xmlns="http://www.w3.org/2000/svg">
<circle cx="60" cy="60" r="60" fill="#EDF0F4"/>
<path fill-rule="evenodd" clip-rule="evenodd" d="M44.28 77.9758L25.928 80.0398L36.704 55.1758L25.672 40.1358L52.496 37.0798L59.784 20.3198L75.752 42.0238L94.104 39.9598L83.376 64.7038L94.328 79.6398L67.64 82.6798L60.24 99.6798L44.28 77.9758ZM51.904 76.3278C51.2 76.6718 50.448 76.9598 49.672 77.1758L48.968 77.3678L59.312 91.4318L62.984 82.9838L62.32 82.8958C58.704 82.4398 55.416 80.4878 53.296 77.5598L52.264 76.1358L51.904 76.3278ZM56.648 75.1198L48.304 63.5758L59.088 62.2238L69.888 76.5198L76.096 62.4958L76.608 62.9198C77.16 63.3838 77.656 63.9118 78.088 64.4958L86.76 76.3278L64.984 78.8078C64.656 78.8478 64.32 78.8638 63.984 78.8638C61.088 78.8638 58.344 77.4638 56.648 75.1198ZM48.664 49.5198C45.432 49.8638 42.616 51.9358 41.32 54.9278L32.576 75.1118L47.104 73.4798C47.824 73.3998 48.528 73.2318 49.208 72.9838L49.832 72.7518L40.84 60.3358L58.568 58.0878L62.784 48.0158L48.664 49.5198ZM68.952 68.3998L62.384 59.7038L69.312 43.1518L54.12 44.7598L54.232 44.1038C54.36 43.3838 54.568 42.6878 54.856 42.0238L60.712 28.5678L73.728 46.2798C75.664 48.9038 76.04 52.3838 74.72 55.3678L72.96 59.3518L68.952 68.3998ZM78.344 45.9118L78.6 46.5278C80.008 49.8958 79.976 53.7358 78.504 57.0558L77.792 58.6558L78.136 58.8878C78.792 59.3278 79.408 59.8398 79.976 60.4078L80.496 60.9198L87.448 44.8798L78.344 45.9118ZM38.776 50.9998L33.24 43.4478L50.64 41.4638L50.44 42.1838C50.208 43.0318 50.056 43.9038 50 44.7758L49.968 45.1998L48.232 45.3838C44.688 45.7598 41.384 47.6158 39.184 50.4718L38.776 50.9998Z" fill="url(#paint0_linear_107_21667)"/>
<path d="M56.128 99.9999C44.608 98.8879 34.256 92.8959 27.48 83.3999L32.12 82.8799C32.888 83.8239 33.704 84.7279 34.544 85.5759C39.576 90.6319 45.872 94.0399 52.776 95.4479L56.128 99.9999Z" fill="url(#paint1_linear_107_21667)"/>
<path d="M65.792 95.7038C73.264 94.4958 80.056 90.9998 85.456 85.5758C85.936 85.0878 86.424 84.5678 86.912 84.0238L92.536 83.3838C85.784 92.8718 75.448 98.8718 63.928 99.9998L65.792 95.7038Z" fill="url(#paint2_linear_107_21667)"/>
<path d="M93.68 72.8241C95.216 68.7361 96 64.4241 96 60.0001C96 56.0961 95.384 52.2561 94.176 48.5921L96.432 43.3921C98.8 48.6161 100 54.2001 100 60.0001C100 65.7921 98.8 71.3681 96.44 76.5921L93.68 72.8241Z" fill="url(#paint3_linear_107_21667)"/>
<path d="M23.584 76.648C21.208 71.408 20 65.816 20 60C20 54.152 21.216 48.528 23.624 43.272L26.376 47.032C24.8 51.16 24 55.52 24 60C24 63.92 24.616 67.768 25.832 71.448L23.584 76.648Z" fill="url(#paint4_linear_107_21667)"/>
<path d="M27.648 36.368C34.416 27.024 44.688 21.104 56.104 20L54.24 24.288C46.76 25.488 39.952 28.992 34.544 34.424C34.136 34.832 33.728 35.272 33.32 35.72L27.648 36.368Z" fill="url(#paint5_linear_107_21667)"/>
<path d="M87.888 37.12C87.12 36.176 86.304 35.272 85.456 34.424C80.432 29.376 74.144 25.968 67.256 24.56L63.904 20C75.416 21.12 85.752 27.112 92.52 36.6L87.888 37.12Z" fill="url(#paint6_linear_107_21667)"/>
<defs>
<linearGradient id="paint0_linear_107_21667" x1="54.6789" y1="128.263" x2="124.608" y2="75.9264" gradientUnits="userSpaceOnUse">
<stop stop-color="#009DDE"/>
<stop offset="0.5" stop-color="#694D9F"/>
<stop offset="1" stop-color="#ED3554"/>
</linearGradient>
<linearGradient id="paint1_linear_107_21667" x1="86.7034" y1="117.653" x2="113.525" y2="42.5489" gradientUnits="userSpaceOnUse">
<stop stop-color="#009DDE"/>
<stop offset="0.5" stop-color="#694D9F"/>
<stop offset="1" stop-color="#ED3554"/>
</linearGradient>
<linearGradient id="paint2_linear_107_21667" x1="106.014" y1="134.931" x2="131.289" y2="60.0094" gradientUnits="userSpaceOnUse">
<stop stop-color="#009DDE"/>
<stop offset="0.5" stop-color="#694D9F"/>
<stop offset="1" stop-color="#ED3554"/>
</linearGradient>
<linearGradient id="paint3_linear_107_21667" x1="51.8969" y1="274.365" x2="116.472" y2="272.025" gradientUnits="userSpaceOnUse">
<stop stop-color="#009DDE"/>
<stop offset="0.5" stop-color="#694D9F"/>
<stop offset="1" stop-color="#ED3554"/>
</linearGradient>
<linearGradient id="paint4_linear_107_21667" x1="15.4859" y1="237.354" x2="80.0755" y2="234.997" gradientUnits="userSpaceOnUse">
<stop stop-color="#009DDE"/>
<stop offset="0.5" stop-color="#694D9F"/>
<stop offset="1" stop-color="#ED3554"/>
</linearGradient>
<linearGradient id="paint5_linear_107_21667" x1="57.4389" y1="85.6569" x2="82.2036" y2="10.8071" gradientUnits="userSpaceOnUse">
<stop stop-color="#009DDE"/>
<stop offset="0.5" stop-color="#694D9F"/>
<stop offset="1" stop-color="#ED3554"/>
</linearGradient>
<linearGradient id="paint6_linear_107_21667" x1="73.1491" y1="104.178" x2="100.033" y2="29.0677" gradientUnits="userSpaceOnUse">
<stop stop-color="#009DDE"/>
<stop offset="0.5" stop-color="#694D9F"/>
<stop offset="1" stop-color="#ED3554"/>
</linearGradient>
</defs>
</svg>
