<svg width="120" height="120" viewBox="0 0 120 120" fill="none" xmlns="http://www.w3.org/2000/svg">
<path fill-rule="evenodd" clip-rule="evenodd" d="M60 0C93.132 0 120 26.868 120 60C120 93.132 93.132 120 60 120C26.868 120 0 93.132 0 60C0 26.868 26.868 0 60 0Z" fill="#B41514"/>
<path d="M59.52 98.9999C55.0796 98.9999 51.48 95.4003 51.48 90.9599C51.48 86.5196 55.0796 82.9199 59.52 82.9199C63.9604 82.9199 67.56 86.5196 67.56 90.9599C67.56 95.4003 63.9604 98.9999 59.52 98.9999Z" fill="white"/>
<path d="M59.52 43.56C55.0796 43.56 51.48 39.9604 51.48 35.52C51.48 31.0796 55.0796 27.48 59.52 27.48C63.9604 27.48 67.56 31.0796 67.56 35.52C67.56 39.9604 63.9604 43.56 59.52 43.56Z" fill="white"/>
<path d="M26.64 77.5199V66.3599H92.4V77.5199H26.64Z" fill="white"/>
<path d="M59.52 60.8399C40.764 60.8399 25.5 45.9599 24.864 27.3599H36.756C37.38 39.3959 47.34 48.9599 59.52 48.9599C71.7 48.9599 81.66 39.3959 82.284 27.3599H94.176C93.54 45.9599 78.276 60.8399 59.52 60.8399Z" fill="white"/>
</svg>
