<svg width="120" height="120" viewBox="0 0 120 120" fill="none" xmlns="http://www.w3.org/2000/svg">
<circle cx="60" cy="60" r="60" fill="#EDF0F4"/>
<path d="M25.1065 61.5042H25.0534H25V58.2397C25.0365 58.2397 25.073 58.2397 25.1094 58.2397C25.2314 58.3484 25.2988 58.5061 25.2929 58.6695C25.3254 59.4715 25.3254 60.274 25.2929 61.0768C25.2988 61.2402 25.2303 61.3972 25.1065 61.5042Z" fill="#FEF5F6"/>
<path d="M53.5137 47.8874C54.9272 48.3992 56.3969 48.7098 57.8441 49.0975C65.4036 51.123 72.9646 53.1424 80.5271 55.1558C85.1686 56.3935 89.8115 57.6257 94.4558 58.852C94.8563 58.9574 95.0109 59.1304 94.9831 59.5564C94.9394 60.2185 94.9744 60.8853 94.9525 61.5493C94.9381 61.9878 94.7878 62.1733 94.2717 62.0184C92.9507 61.6221 91.606 61.305 90.2745 60.9428C89.9528 60.8553 89.8082 60.8991 89.9161 61.2637C89.9331 61.3212 89.9364 61.3829 89.9526 61.4406C90.2485 62.504 90.0536 62.3045 91.0798 62.3413C92.2007 62.3813 93.3209 62.4427 94.442 62.4655C94.8099 62.4729 94.8902 62.6369 94.8541 62.9506C94.7666 63.7073 94.6892 64.4651 94.5945 65.221C94.5579 65.5121 94.4033 65.5963 94.0873 65.5512C93.1748 65.4216 92.244 65.5512 91.33 65.3868C90.9582 65.3212 90.897 65.478 90.9856 65.8242C91.1789 66.582 91.339 67.3488 91.498 68.1152C91.5636 68.4325 91.7399 68.5215 92.0483 68.5257C92.5476 68.5323 93.0458 68.6014 93.5455 68.6206C93.8216 68.6311 93.8891 68.7112 93.8001 68.9865C93.5471 69.7691 93.3209 70.5612 93.0821 71.3486C93.0421 71.4798 93.0152 71.6655 92.8376 71.644C92.2116 71.5686 92.4083 71.9625 92.4721 72.272C92.5084 72.4469 92.6079 72.6191 92.5377 72.8006C91.977 74.3123 91.2826 75.7711 90.4628 77.1597C90.1503 75.8496 89.8627 74.6758 89.5908 73.4983C88.8052 70.0958 88.0227 66.6925 87.2434 63.2883C87.0228 62.3301 86.7671 61.3792 86.579 60.4146C86.5403 60.0901 86.2846 59.834 85.9601 59.7946C85.1834 59.6008 84.4044 59.4114 83.6402 59.1748C83.1468 59.0217 83.1396 59.1967 83.2349 59.5991C83.766 61.845 84.2795 64.0953 84.7998 66.3438C85.8813 71.017 86.9655 75.6893 88.052 80.3611C88.1312 80.5914 88.0923 80.8458 87.9479 81.042C87.3307 81.8337 86.7231 82.6335 86.0366 83.3684C85.7245 83.7019 85.639 83.6269 85.5441 83.2131C84.7276 79.6527 83.8902 76.0974 83.0652 72.539C82.2812 69.1562 81.501 65.7728 80.725 62.3887C80.4272 61.0983 80.1127 59.8114 79.8362 58.5176C79.813 58.2765 79.6315 58.081 79.3929 58.0399C78.5589 57.8278 77.7226 57.6222 76.8965 57.3816C76.4324 57.2464 76.4036 57.3816 76.5029 57.7998C77.1548 60.5336 77.7852 63.2714 78.4198 66.0088C79.7483 71.7374 81.0752 77.4665 82.4004 83.196C82.4308 83.3739 82.4502 83.5534 82.4585 83.7336C82.3984 83.8161 82.2965 83.8568 82.1961 83.8384C81.1286 83.5563 80.0309 83.3688 79.0484 82.8192C78.9227 82.5931 78.8439 82.344 78.8166 82.0868C78.6272 81.1966 78.6125 81.1868 77.7071 81.4129C77.2071 81.5378 76.7102 81.6754 76.2048 81.7779C75.2074 81.6187 74.3582 81.0689 73.4363 80.7102C72.9596 80.5088 72.4961 80.2776 72.0484 80.0178C71.8516 79.911 71.581 79.85 71.5981 79.5331C71.777 79.3061 72.0506 79.2892 72.298 79.2254C73.8508 78.8243 75.42 78.4903 76.9713 78.082C77.1279 78.047 77.2826 78.0037 77.4346 77.9525C77.5877 77.8948 77.744 77.8305 77.7222 77.6225C77.7106 77.4547 77.5826 77.3182 77.416 77.2961C77.1244 77.2209 76.8257 77.1774 76.5249 77.1662C75.4415 77.1835 74.3652 77.0582 73.2848 77.0287C72.7642 77.0265 72.2439 76.9959 71.7267 76.9372C70.6948 76.7968 69.6927 76.9832 68.7026 77.2751C68.3982 77.3771 68.0834 77.4449 67.7641 77.4779C67.4815 77.4685 67.209 77.3709 66.9849 77.1988C65.3719 76.1438 63.7753 75.0653 62.2607 73.869C62.0816 73.7395 61.92 73.5875 61.7796 73.4169C61.654 73.2505 61.7461 73.1649 61.9018 73.1052C63.1448 72.9425 64.3818 73.1586 65.6168 73.2118C66.713 73.2588 67.8173 73.3281 68.9132 73.3729C70.9533 73.4565 72.9889 73.6503 75.0325 73.6538C75.4541 73.6538 75.8655 73.7688 76.2892 73.7651C76.6765 73.7618 76.8451 73.6142 76.7452 73.2074C76.6061 72.6411 76.4541 72.0777 76.3384 71.506C76.2981 71.1926 76.0162 70.968 75.7017 70.9986C74.0013 70.94 72.3023 70.8379 70.6043 70.7392C68.5862 70.6218 66.5645 70.5912 64.5484 70.4219C63.5728 70.3401 62.5888 70.3198 61.6101 70.2907C60.5082 70.2574 59.4132 70.1245 58.3122 70.1229C58.1707 70.1185 58.0344 70.0685 57.924 69.9799C56.9299 69.0493 55.9195 68.1335 55.0895 67.0439C54.9629 66.8775 54.8555 66.6861 55.1652 66.5755C56.309 66.4801 57.4494 66.621 58.5849 66.6848C59.6036 66.7423 60.6283 66.8027 61.6457 66.8478C63.7285 66.9401 65.811 67.0389 67.8936 67.1445C69.8749 67.243 71.8612 67.2738 73.8381 67.4674C74.1985 67.4947 74.5605 67.4964 74.9212 67.4726C75.2291 67.459 75.3518 67.3038 75.2947 66.9993C75.1784 66.3858 75.0303 65.7789 74.851 65.1808C74.7379 64.8 74.424 64.7237 74.0885 64.7215C73.3053 64.7177 72.5254 64.6239 71.7462 64.6075C68.8187 64.5461 65.8988 64.3306 62.9759 64.1994C60.2138 64.0754 57.4491 63.9623 54.6903 63.7578C53.8658 63.6968 53.8194 63.736 53.721 64.5428C53.7304 64.7261 53.6591 64.9041 53.5264 65.0305C53.2298 64.9242 53.246 64.6548 53.246 64.4253C53.246 60.4846 53.1924 56.5437 53.2679 52.605C53.3497 52.1706 53.8085 52.1258 54.048 51.852C54.1322 51.7557 54.3271 51.7207 54.2667 51.5458C54.2254 51.4266 54.074 51.4305 53.9651 51.3914C53.7221 51.3039 53.3838 51.3914 53.2926 51.0213C53.2488 49.989 53.1559 48.9569 53.3442 47.9294C53.3637 47.875 53.4236 47.8465 53.478 47.866C53.4912 47.8706 53.5034 47.878 53.5137 47.8874Z" fill="#ABACAC"/>
<path d="M54.9965 66.7257C55.9468 67.8805 56.9804 68.9638 58.0891 69.9674C58.7163 70.2345 59.0923 70.8081 59.5807 71.2385C60.3214 71.8916 61.1611 72.4414 61.7723 73.2384C63.5883 74.7818 65.5392 76.1588 67.6018 77.3528C68.2833 77.5415 68.8266 77.9934 69.4342 78.3247C70.0085 78.6383 70.5741 78.9673 71.1646 79.2507C71.356 79.3115 71.5167 79.4436 71.6132 79.6197C73.0803 80.4217 74.6066 81.1102 76.1789 81.6791C77.197 81.9109 78.1983 82.1889 79.0926 82.7575C80.189 83.1645 81.3138 83.4906 82.4578 83.7336C83.2594 84.065 84.1268 84.1443 85.0758 84.4276C84.5946 84.8882 84.1631 85.3173 83.7148 85.728C82.3417 86.9863 82.3391 86.9836 80.5905 86.4799C59.7117 80.4668 44.0193 63.6876 39.3711 42.3958C38.739 39.382 38.3256 36.3262 38.1347 33.2527C38.0717 32.8547 38.2526 32.4575 38.594 32.2434C39.4209 31.65 40.2236 31.0228 41.1605 30.4465C41.175 36.4513 42.2217 42.4092 44.2551 48.0593V47.4513C44.2551 41.3885 44.2513 35.3254 44.2441 29.2626C44.243 28.8182 44.3561 28.5649 44.7719 28.3923C45.6001 28.0487 46.4107 27.6623 47.2291 27.2931C47.3288 27.512 47.3605 27.7559 47.3203 27.993C47.3235 37.0167 47.3249 46.0406 47.3246 55.0646C47.3039 55.2439 47.3218 55.4257 47.3773 55.5973C48.2334 57.3376 49.2445 58.9972 50.3986 60.5557V59.9293C50.3986 48.9315 50.3947 37.9337 50.387 26.936C50.387 26.4121 50.483 26.1571 51.0488 26.0489C51.8499 25.8958 52.6351 25.6519 53.4454 25.5286C53.6456 25.7646 53.5996 26.0535 53.6134 26.3284C53.6685 27.4219 53.5535 28.5109 53.4981 29.6014C53.6357 30.8248 53.7042 32.0472 53.4454 33.265C53.4443 34.3642 53.4435 35.4634 53.4426 36.5627C53.5312 36.6959 53.581 36.8509 53.5865 37.0108C53.6012 37.9843 53.6012 38.958 53.5865 39.9314C53.5705 40.13 53.5213 40.3245 53.4411 40.5066L53.4461 43.9264C53.5309 44.0624 53.5793 44.2179 53.5865 44.378C53.6012 45.355 53.6012 46.3317 53.5865 47.3087C53.5723 47.5082 53.5229 47.7035 53.4408 47.8859L53.4824 51.1812C53.6729 51.553 53.6703 51.9943 53.4754 52.364C53.4651 56.4903 53.4555 60.6165 53.4467 64.7429C53.4572 64.8203 53.4778 64.896 53.5082 64.9679C54.1289 65.4358 54.6374 66.0363 54.9965 66.7257Z" fill="#EE1D55"/>
<path d="M25.1064 61.504L25.1093 58.2389C25.0246 56.7047 25.9349 55.5807 26.684 54.3896C26.864 54.1029 27.0339 53.809 27.2069 53.5183C27.4475 52.7587 27.966 52.1654 28.424 51.5458C28.6959 51.2219 28.7663 50.7744 28.6068 50.3827C28.4623 49.9551 28.2256 49.5365 28.3422 49.0531C28.3085 48.8351 28.2547 48.6208 28.1819 48.4125C27.6008 47.1261 27.8381 45.9365 28.5209 44.7601C28.9916 43.9487 29.3533 43.0743 29.9425 42.1826C32.104 53.718 36.8017 63.9746 44.1407 72.9797C51.4882 81.9951 60.5854 88.6552 71.4137 93.0985C69.9245 93.6208 68.4012 94.0401 66.8545 94.3537C66.6537 94.3749 66.4518 94.3248 66.2845 94.212C65.4525 93.817 64.6215 93.4196 63.7912 93.0198C63.1699 92.9085 62.6706 92.5294 62.1352 92.2383C60.5386 91.3705 59.0103 90.3885 57.478 89.4135C56.4024 88.6388 55.2832 87.9263 54.2369 87.1087C54.0044 86.8857 53.6902 86.7536 53.5217 86.4633C53.5016 86.4334 53.4824 86.3675 53.4673 86.3678C53.4144 86.3678 53.4327 86.385 53.4701 86.429C53.5307 86.5088 53.5686 86.6037 53.5795 86.7033C53.6068 88.7764 53.6055 90.8478 53.5758 92.9177C53.5611 93.3953 53.5128 93.8712 53.431 94.3419C52.4923 94.2555 51.5989 93.9598 50.6864 93.7514C50.308 93.6639 50.4001 93.3719 50.3999 93.1263C50.3968 90.2273 50.3887 87.3281 50.408 84.4293C50.4301 84.0516 50.2636 83.6873 49.9634 83.457C49.0992 82.7133 48.2688 81.9308 47.4147 81.1544C47.2503 81.3593 47.3273 81.566 47.3273 81.7532C47.3213 85.1557 47.3198 88.5579 47.3227 91.9601C47.3227 92.6228 47.3176 92.6305 46.6884 92.3564C46.0279 92.0691 45.381 91.7493 44.7154 91.4746C44.3414 91.3202 44.2445 91.0849 44.2461 90.689C44.2616 86.6022 44.2511 82.5154 44.2629 78.4286C44.2798 78.071 44.1512 77.7217 43.9062 77.4604C43.0281 76.4777 42.1823 75.466 41.2421 74.3694C41.227 74.6878 41.2089 74.896 41.2086 75.1045C41.2071 79.6945 41.2025 84.2848 41.1953 88.8748C41.1953 89.0109 41.4376 89.3523 40.993 89.3184C40.9508 89.0196 40.9409 88.7171 40.9635 88.4162C40.9622 84.0324 40.9539 79.6488 40.9718 75.2652C40.9963 74.6406 40.7798 74.0304 40.3673 73.5608C39.5644 72.5834 38.8177 71.5612 38.131 70.4989C37.8641 69.962 37.554 69.4478 37.2041 68.9609C37.1916 68.9458 37.1822 68.9277 37.1695 68.913C37.0079 68.7302 36.9701 68.3509 36.6803 68.3949C36.4539 68.4292 36.434 68.77 36.3404 68.9854C35.9113 69.9259 35.4907 70.8689 35.0992 71.8256C34.7056 72.8743 34.2935 73.9156 33.9532 74.9835C33.8102 75.4227 33.6487 75.8555 33.5341 76.3039C33.128 77.6789 32.7652 79.0651 32.4308 80.4593C32.3831 80.6586 32.4043 80.9149 32.1265 80.988C31.2797 79.9915 30.6212 78.8665 29.9298 77.7633C29.7715 77.5107 29.8708 77.304 29.932 77.0781C31.0395 72.9902 32.5965 69.0375 34.5745 65.2925C34.7747 64.9933 34.7766 64.6036 34.5798 64.3022C34.0838 63.4324 33.6455 62.5291 33.184 61.6394C33.0525 61.4557 32.9635 61.2453 32.9233 61.0231C32.8664 61.2565 33.158 61.4061 33.0764 61.6388C30.9309 65.371 29.1744 69.3139 27.8344 73.4051C27.4523 72.8189 27.2987 72.2164 27.0919 71.6438C26.0858 68.8599 26.098 68.8594 27.3169 66.1542C28.4708 63.5673 29.7958 61.0601 31.283 58.6492C31.4971 58.3588 31.5277 57.9721 31.3621 57.6517C30.9525 56.7182 30.5873 55.7651 30.1645 54.7221C28.337 57.4435 26.7065 60.2924 25.286 63.2469L25.1064 61.504Z" fill="#EE1D55"/>
<path d="M35.2077 35.2815C37.5175 61.1025 55.2461 82.1613 79.0926 89.2571C78.7645 89.6432 78.3225 89.8326 77.9251 90.0703C75.6179 91.4499 75.6013 91.4795 73.1135 90.4511C53.4426 82.3171 40.5182 68.0314 34.3403 47.5939C33.5077 44.7146 32.8962 41.7758 32.5106 38.8034C32.4533 38.6089 32.4868 38.3992 32.6014 38.2321C33.4171 37.2029 34.2872 36.218 35.2077 35.2815Z" fill="#EE1D55"/>
<path d="M86.3537 36.8669C86.9254 37.637 86.9265 37.6385 86.17 38.2268C85.7748 38.533 85.3752 38.8355 84.9774 39.1395C84.6086 39.1533 84.8461 39.3656 84.859 39.5041C85.0611 40.3419 85.2853 41.1752 85.4574 42.0192C85.5596 42.5199 85.6877 42.5693 86.0825 42.229C86.8419 41.5742 87.6572 40.9852 88.4203 40.3347C88.7265 40.0734 88.8811 40.1311 89.0679 40.4395C89.4318 41.0407 89.8043 41.6371 90.1927 42.2226C90.4099 42.5507 90.404 42.7694 90.0501 43.0115C89.5543 43.3499 89.0961 43.7446 88.6305 44.1256C88.5329 44.2054 88.3582 44.2748 88.4229 44.4484C88.4704 44.5757 88.6211 44.5578 88.7354 44.5891C89.6046 44.8237 90.4678 45.082 91.3429 45.2916C91.6834 45.346 91.9651 45.5862 92.0725 45.9138C92.3881 46.7606 92.7286 47.5978 93.0539 48.4412C93.1026 48.5678 93.2203 48.7143 93.1302 48.8392C93.0051 49.0124 92.8367 48.869 92.6928 48.8305C88.649 47.759 84.6056 46.6858 80.5625 45.6111C75.6496 44.3023 70.7377 42.9907 65.8261 41.6763C65.4781 41.5833 65.1299 41.4908 64.7815 41.3987C64.7612 41.2428 64.8828 41.1886 64.9863 41.1435C66.5277 40.4406 68.126 39.87 69.7642 39.4376C70.1102 39.4947 70.3831 39.7698 70.735 39.7604C70.6038 39.6134 70.0914 39.8391 70.2856 39.3256C70.8466 39.0129 71.4229 38.7611 72.0882 38.8329C72.3603 38.9993 72.3917 39.2945 72.4488 39.5625C72.4985 39.931 72.7878 40.2214 73.1561 40.2724C73.9356 40.4307 74.6812 40.7304 75.5226 40.8688C75.4788 40.2007 75.2767 39.6003 75.1455 38.9879C75.0845 38.7036 74.9216 38.4175 75.1 38.1168C76.0916 37.7161 77.1524 37.5145 78.2219 37.5237C78.5263 38.1201 78.5687 38.7891 78.7286 39.4249C78.8852 40.0471 79.0512 40.6691 79.1604 41.3025C79.2056 41.6938 79.502 42.0089 79.8898 42.0778C80.5301 42.2388 81.1747 42.384 81.8089 42.5688C82.1903 42.6795 82.2879 42.5384 82.198 42.1819C81.8441 40.7805 81.5336 39.3687 81.2138 37.9593C81.1414 37.6398 80.8112 37.5269 80.7615 37.221C80.8532 37.1125 80.9879 37.0497 81.1298 37.0488C82.6936 36.9349 84.2609 36.8835 85.8257 36.7844C86.0042 36.7921 86.1814 36.8199 86.3537 36.8669Z" fill="#ABACAC"/>
<path d="M60.522 43.4193C63.6139 44.2504 66.706 45.0815 69.7981 45.9126C77.7445 48.0397 85.6917 50.1625 93.6398 52.2807C94.0234 52.3826 94.2122 52.527 94.2741 52.9401C94.3882 53.6925 94.5308 54.4411 94.6531 55.1928C94.7327 55.6816 94.6697 55.7575 94.1969 55.6263C92.4227 55.1336 90.6391 54.6749 88.8604 54.1999C78.2838 51.3748 67.7073 48.5489 57.1307 45.7221C56.9953 45.686 56.8584 45.6565 56.7222 45.6239C56.6835 45.4391 56.8374 45.3846 56.945 45.3105C57.9677 44.6053 59.0702 44.036 60.15 43.4296C60.2602 43.3668 60.3947 43.2662 60.522 43.4193Z" fill="#ABACAC"/>
<path d="M60.522 43.4194C59.2119 44.0773 57.9427 44.8137 56.7215 45.6244L53.7033 47.6276C53.5432 47.6523 53.4859 47.5578 53.4894 47.4222C53.5189 46.2764 53.4115 45.1282 53.5465 43.9841C60.719 39.1036 68.8929 35.8903 77.4689 34.5796C79.3517 34.2859 81.2488 34.1146 83.1496 33.9825C83.4097 33.9694 83.6614 34.0761 83.8327 34.2721C84.72 35.0907 85.5399 35.9745 86.3522 36.8666C85.7269 37.1072 85.0668 37.0022 84.4245 37.0403C83.2185 37.112 82.0097 37.1357 80.8094 37.2916C80.5365 37.6138 80.1384 37.5276 79.7977 37.5645C79.2702 37.6216 78.7387 37.8462 78.2011 37.6122C77.1644 37.741 76.1365 37.9329 75.123 38.1861C74.1646 38.6008 73.1413 38.8449 72.0989 38.9079C71.4795 39.0111 70.8724 39.1769 70.2867 39.403C70.1699 39.5391 69.9838 39.5929 69.8123 39.5404C68.0948 40.0462 66.4131 40.6674 64.7792 41.3994C63.3147 41.9722 61.892 42.6473 60.522 43.4194Z" fill="#EE1D55"/>
<path d="M53.781 36.5906C57.186 34.5534 60.7855 32.8601 64.5259 31.5356C68.0511 30.2673 71.6803 29.3102 75.3726 28.6755C75.5659 28.6239 75.7715 28.6414 75.9532 28.7252C77.3361 29.4332 78.6672 30.238 79.9366 31.1336C78.7534 31.3068 77.6581 31.4556 76.5665 31.6288C68.6274 32.8833 61.0169 35.7051 54.179 39.9297C54.0091 40.034 53.8321 40.1265 53.6583 40.2243C53.3958 40.2009 53.4925 39.9926 53.4912 39.8608C53.4822 38.9396 53.4964 38.0179 53.48 37.0969C53.4422 36.8771 53.5697 36.6624 53.781 36.5906Z" fill="#EE1D55"/>
<path d="M53.6655 29.6088C56.972 27.8425 60.428 26.3714 63.9934 25.2129C64.6042 25.0122 65.2164 25.2759 65.8196 25.3711C67.4328 25.6221 69.0224 26.0069 70.5719 26.5213C68.5522 27.0322 66.6444 27.5656 64.7663 28.2005C61.0424 29.4572 57.4352 31.0361 53.9855 32.9192C53.8457 32.9955 53.6972 33.0552 53.5529 33.1228C53.407 32.0292 53.5161 30.9313 53.4965 29.8356C53.5026 29.733 53.5691 29.644 53.6655 29.6088Z" fill="#EE1D55"/>
<path d="M57.5272 89.3032C59.5831 90.5975 61.6772 91.8242 63.7908 93.019C63.7447 93.5061 63.6983 93.9934 63.6519 94.4804C63.5314 94.6429 63.5137 94.873 63.2032 94.8761C62.4447 94.884 61.6866 94.9417 60.9286 94.9887C60.573 95.0106 60.3748 94.9909 60.4861 94.5058C60.6644 93.7274 60.7309 92.9239 60.8603 92.1337C60.9141 91.8056 60.8308 91.6744 60.4857 91.7619C59.6723 91.9694 58.8578 92.172 58.0421 92.369C57.7975 92.3972 57.616 92.6094 57.6265 92.8554C57.5852 93.3932 57.4623 93.9243 57.4017 94.4612C57.3673 94.7639 57.2344 94.8986 56.9365 94.8662C56.1434 94.7788 55.35 94.6941 54.558 94.5983C54.3785 94.5765 54.261 94.4748 54.3284 94.2639C54.336 94.2453 54.3417 94.2259 54.3452 94.2062C54.434 93.2631 54.434 93.2631 53.5677 93.4188C53.3905 92.6315 53.5312 91.8328 53.4894 91.0404C53.4778 90.8217 53.4872 90.5999 53.4881 90.3803C53.5082 90.2371 53.6189 90.1233 53.7615 90.0993C54.8999 89.7504 56.0599 89.4766 57.2341 89.2798C57.3323 89.2649 57.4327 89.2728 57.5272 89.3032Z" fill="#ABACAC"/>
<path d="M53.4373 29.5638C53.4394 28.219 53.4418 26.8739 53.4445 25.5291C55.3562 25.1304 57.3082 24.9559 59.2604 25.0094C58.1008 25.7778 56.9412 26.5461 55.7814 27.3144C55.2639 27.6567 54.7626 28.0292 54.2207 28.3262C53.713 28.6044 53.4228 28.9565 53.507 29.5553C53.4926 29.6325 53.469 29.6316 53.4373 29.5638Z" fill="#ABABAC"/>
<path d="M28.3418 49.053C28.9842 50.3434 28.9688 51.5371 27.8679 52.6053C27.6205 52.8891 27.3992 53.1947 27.2063 53.5181L25.541 54.5358C25.7236 53.1507 26.0158 51.7822 26.4145 50.4433C26.492 50.1809 26.7426 50.1004 26.9344 49.9685C27.3954 49.6516 27.8718 49.3568 28.3418 49.053Z" fill="#ABACAC"/>
<path d="M53.781 36.5908C53.6949 36.7382 53.537 36.8314 53.5405 37.0453C53.5545 38.0371 53.547 39.0294 53.5553 40.0215C53.5553 40.0895 53.6227 40.1569 53.6588 40.2244L53.4412 40.5072C53.4412 39.1928 53.4416 37.8781 53.4427 36.5635C53.5488 36.6536 53.666 36.6085 53.781 36.5908Z" fill="#EF4464"/>
<path d="M53.5471 43.9839C53.5471 44.9985 53.5419 46.0131 53.5471 47.0277C53.5482 47.2364 53.4741 47.4748 53.7037 47.6274L53.5136 47.887L53.4769 47.88L53.4399 47.8864C53.4419 46.5667 53.4437 45.2472 53.4454 43.9277C53.4852 43.9328 53.5217 43.9529 53.5471 43.9839Z" fill="#EF4263"/>
<path d="M53.4373 29.5638C53.4604 29.5732 53.4867 29.5701 53.5072 29.5557L53.6656 29.6088C53.427 30.1046 53.57 30.6319 53.5512 31.1439C53.5269 31.8027 53.5501 32.463 53.5527 33.1226L53.4451 33.2654C53.4425 32.0321 53.4399 30.7984 53.4373 29.5638Z" fill="#EF4263"/>
<path d="M84.8587 39.504C84.6535 39.3264 84.7804 39.0716 84.6909 38.854C84.9282 38.8299 84.8221 39.1108 84.977 39.1383L84.8587 39.504Z" fill="#B1B2B2"/>
<path d="M38.1366 70.3306C38.8936 71.3312 39.6031 72.3733 40.4235 73.3186C41.0102 73.9946 41.152 74.7045 41.1452 75.5641C41.1124 79.9231 41.1316 84.2825 41.1257 88.6418C41.1257 88.8694 41.2231 89.1301 40.9921 89.3174C40.0772 88.7568 39.2002 88.137 38.3665 87.4618C38.1762 87.3164 38.0778 87.0804 38.1084 86.8429C38.1097 86.0848 38.0962 85.3268 38.0883 84.5683C37.9754 84.4025 37.9243 84.2022 37.9437 84.0025C37.9339 83.0489 37.9369 82.0954 37.9411 81.1418C37.9492 80.9229 37.9995 80.7074 38.0892 80.5075C38.0881 79.2069 38.0868 77.9064 38.0857 76.6058C37.9658 76.4172 37.9149 76.1933 37.9411 75.9715C37.9411 74.6623 37.9192 73.3529 37.9509 72.0437C37.9964 71.4714 37.7817 70.8708 38.1366 70.3306Z" fill="#ED1A47"/>
<path d="M38.0861 72.0287C38.0861 73.5551 38.0861 75.0814 38.0861 76.6076C36.3308 77.9988 34.5811 79.3974 32.8111 80.7701C32.6405 80.9013 32.4808 81.3387 32.127 80.9859C32.5467 79.4099 32.855 77.8037 33.4029 76.2618C33.8871 75.7925 34.3506 75.2953 34.9977 75.0405C35.2503 74.9797 35.511 74.9601 35.7698 74.9828C35.4791 74.9581 35.1863 74.9804 34.9026 75.0484C34.5297 75.0943 34.1507 75.1906 33.8263 74.8968C34.1546 73.847 34.5393 72.8158 34.9791 71.8078C36.0176 71.6315 37.0831 71.7074 38.0861 72.0287Z" fill="#ABACAC"/>
<path d="M38.0892 80.509C38.0892 81.8626 38.0892 83.216 38.0892 84.5691C37.4071 84.6284 36.7628 84.8607 36.1018 85.0153C35.8761 85.1078 35.617 85.0494 35.4525 84.8694C34.8158 84.1735 34.173 83.4833 33.5239 82.7989C33.2969 82.5583 33.3988 82.4709 33.6672 82.4175C33.9804 82.3547 34.2859 82.2425 34.6013 82.2029C35.9194 82.0402 37.1462 81.4442 38.0892 80.509Z" fill="#ABACAC"/>
<path d="M53.5624 90.2789C53.5637 91.3259 53.565 92.373 53.5666 93.4202C53.4498 93.7168 53.6519 94.0608 53.4314 94.3418C53.4386 91.7009 53.4458 89.0605 53.4533 86.4202C53.4734 86.3559 53.5044 86.3465 53.5482 86.4014L54.2669 86.9764C53.7888 87.2789 53.7118 87.7261 53.7096 88.2622C53.7054 88.9336 53.8756 89.6276 53.5624 90.2789Z" fill="#C1A0A4"/>
<path d="M33.0759 61.6366C33.0057 61.4345 32.8294 61.2716 32.8572 60.9429C33.0383 61.1331 33.1533 61.3766 33.1853 61.6373L33.131 61.6318L33.0759 61.6366Z" fill="#EF3C60"/>
<path d="M54.9966 66.7259C54.4524 66.1826 53.9544 65.5949 53.5081 64.969C53.5146 64.8483 53.5266 64.7284 53.5277 64.6075C53.5378 63.5347 53.5378 63.5203 54.6344 63.5714C57.9745 63.7274 61.3151 63.8796 64.6537 64.064C67.0527 64.1965 69.4513 64.3323 71.8521 64.4332C72.6716 64.4675 73.4924 64.5206 74.3121 64.5403C74.7388 64.5508 75.0013 64.7024 75.0776 65.1814C75.1869 65.8535 75.3556 66.5175 75.5305 67.1766C75.6281 67.5443 75.5625 67.7037 75.1528 67.6816C72.8741 67.5589 70.5949 67.4422 68.3153 67.3317C67.3952 67.286 66.4749 67.2593 65.5546 67.2079C62.5952 67.0426 59.6321 66.9455 56.6717 66.7978C56.1142 66.7705 55.5591 66.6699 54.9966 66.7259Z" fill="white"/>
<path d="M61.7721 73.2388C60.459 72.2484 59.2272 71.1545 58.0889 69.9675C61.1895 70.0653 64.2871 70.2252 67.384 70.4224C68.3428 70.4835 69.3036 70.48 70.2644 70.5471C72.161 70.6783 74.0632 70.7389 75.9637 70.8058C76.2113 70.773 76.4388 70.9473 76.4714 71.1949C76.4733 71.2098 76.4746 71.2249 76.4751 71.24C76.6304 71.986 76.8198 72.725 77.0037 73.4649C77.0964 73.838 76.9724 73.9773 76.5851 73.9537C74.6281 73.8345 72.6702 73.735 70.7128 73.616C69.8734 73.5651 69.0333 73.5697 68.1924 73.5146C66.0547 73.3744 63.9122 73.3247 61.7721 73.2388Z" fill="white"/>
<path d="M60.1653 55.0801C58.9727 55.8908 57.8951 56.8516 56.7602 57.7365C55.7078 58.5575 54.6687 59.3956 53.5305 60.3002C53.5305 58.988 53.5316 57.7905 53.5305 56.5924C53.5305 56.358 53.6871 56.2362 53.8459 56.1113C55.2916 54.9668 56.7414 53.8273 58.1774 52.6706C58.3272 52.5067 58.565 52.4569 58.7679 52.5465C58.8449 52.5684 58.9234 52.5846 59.0028 52.5949C60.6103 53.0141 60.6097 53.0144 60.307 54.661C60.2937 54.7608 60.2853 54.8609 60.2825 54.9615C60.2617 55.0156 60.2191 55.0586 60.1653 55.0801Z" fill="white"/>
<path d="M64.654 61.0146C64.055 60.9774 63.4564 60.9271 62.8569 60.9085C62.5636 60.8993 62.4973 60.8239 62.5465 60.5148C62.8337 58.7133 63.0684 56.9033 63.3671 55.1038C63.5819 53.8103 63.6204 53.7937 64.8815 54.1714C65.4138 54.3308 66.139 54.2687 66.4317 54.6963C66.7055 55.0965 66.3584 55.7295 66.2915 56.259C66.1165 57.6508 65.8482 59.0318 65.6916 60.4254C65.6047 61.1992 65.0995 60.9999 64.654 61.0146Z" fill="white"/>
<path d="M71.6132 79.6192C70.2132 78.9806 68.871 78.2221 67.6018 77.3521C68.167 77.2208 68.7424 77.1239 69.2948 76.9525C70.2204 76.6651 71.1456 76.7338 72.0893 76.8099C73.3066 76.9083 74.5307 76.9216 75.7513 76.9792C76.2675 77.0404 76.7872 77.0697 77.307 77.0666C77.8339 77.0253 77.8975 77.3444 77.9701 77.7048C78.0666 78.1873 77.6331 78.0926 77.4194 78.1471C75.5775 78.6164 73.7278 79.056 71.8813 79.5074C71.789 79.5376 71.6995 79.575 71.6132 79.6192Z" fill="white"/>
<path d="M72.4614 56.5843C72.2265 58.0704 71.9851 59.5554 71.7616 61.0433C71.7156 61.3495 71.5464 61.4096 71.3023 61.3556C70.6483 61.2473 69.9839 61.2169 69.3227 61.2655C68.8121 61.2749 68.6386 61.1102 68.7226 60.6054C68.9135 59.4579 69.0833 58.3066 69.2593 57.1564C69.326 56.7201 69.3945 56.284 69.4465 55.8459C69.4828 55.5397 69.5996 55.4218 69.924 55.515C70.6551 55.7243 71.3941 55.906 72.1299 56.0987C72.3412 56.1204 72.4951 56.3091 72.4735 56.5206C72.4713 56.542 72.4671 56.5635 72.4614 56.5843Z" fill="white"/>
<path d="M79.0926 82.7578C78.0962 82.4704 77.1222 82.11 76.179 81.6793C76.8812 81.3933 77.6334 81.2944 78.3595 81.0969C78.5331 81.0241 78.7328 81.1059 78.8054 81.2795C78.8225 81.3202 78.8315 81.3638 78.8319 81.4077C78.9117 81.8589 79.0051 82.3079 79.0926 82.7578Z" fill="#FDFCFC"/>
<path d="M59.5035 59.5071C59.6164 60.7469 59.5473 60.8036 58.1628 60.6131C58.5729 60.2019 59.0219 59.8314 59.5035 59.5071Z" fill="#F6F6F5"/>
<path d="M53.4758 52.3647C53.478 51.971 53.4802 51.5769 53.4826 51.1824C53.8695 51.2099 54.4128 51.185 54.5289 51.5157C54.6321 51.8096 54.055 51.9507 53.829 52.2127C53.7363 52.3175 53.6351 52.4141 53.4758 52.3647Z" fill="#FBF1F0"/>
<path d="M60.1653 55.0799L60.2821 54.9607C60.2731 55.6135 60.1721 56.262 59.9818 56.8866C59.9059 56.2712 60.0708 55.6785 60.1653 55.0799Z" fill="#B0B1B1"/>
<path d="M60.9285 60.7473C60.6401 60.9612 60.335 60.8694 59.9255 60.9092C60.2978 60.5105 60.6278 60.7226 60.9285 60.7473Z" fill="#B0B1B1"/>
<path d="M74.3121 62.1478C74.2434 61.4963 73.8047 61.4176 73.2732 61.4825C74.246 61.289 74.3825 61.3789 74.3121 62.1478Z" fill="#B2B3B3"/>
<path d="M73.6215 58.9493C73.3993 58.5381 73.2897 58.0753 73.3037 57.6082C73.5125 58.0244 73.6215 58.4836 73.6215 58.9493Z" fill="#B1B2B2"/>
<path d="M55.6265 60.5194C55.3658 60.6826 55.0395 60.699 54.7637 60.5631C55.0834 60.3134 55.3592 60.4507 55.6265 60.5194Z" fill="#B0B1B1"/>
<path d="M80.0999 58.2844C80.4977 58.2494 80.8968 58.3361 81.2444 58.5327C80.8907 58.5771 80.5699 58.4763 80.0999 58.2844Z" fill="#B1B2B2"/>
<path d="M75.964 57.1323C75.5248 57.1364 75.0911 57.033 74.7012 56.8307C75.1432 56.7968 75.585 56.9022 75.964 57.1323Z" fill="#B1B2B2"/>
<path d="M91.951 69.7163L92.2264 70.7845C91.916 70.4916 91.9412 70.1054 91.951 69.7163Z" fill="#B1B2B2"/>
<path d="M67.614 76.5918H66.816L66.8142 76.5312H67.6125L67.614 76.5918Z" fill="#B5B6B6"/>
<path d="M68.8317 76.7006H68.1238L68.1249 76.6446H68.8328L68.8317 76.7006Z" fill="#B3B4B4"/>
<path d="M66.8145 61.0816C67.064 61.002 67.3321 61.0007 67.5823 61.0781C67.333 61.1597 67.0644 61.1608 66.8145 61.0816Z" fill="#B4B4B5"/>
<path d="M62.1878 60.877H61.5098L61.5083 60.8164H62.1977L62.1878 60.877Z" fill="#B5B6B6"/>
<path d="M56.8845 60.6317H56.2021C56.4152 60.5174 56.6715 60.5174 56.8845 60.6317Z" fill="#B5B6B6"/>
<path d="M54.246 60.4601C54.0592 60.5502 53.8442 60.562 53.6487 60.4929C53.8615 60.3409 54.0616 60.4601 54.246 60.4601Z" fill="#B5B6B7"/>
<path d="M50.9351 61.614C51.2594 61.714 51.2924 62.0223 51.4554 62.238C51.1323 62.1369 51.0987 61.829 50.9351 61.614Z" fill="#EE365D"/>
<path d="M45.694 51.9197L45.9805 52.5213C45.7441 52.4247 45.6198 52.1642 45.694 51.9197Z" fill="#EE375E"/>
<path d="M46.7688 54.4425C46.6102 54.2927 46.5206 54.084 46.521 53.866C46.7091 53.9933 46.8058 54.2185 46.7688 54.4425Z" fill="#EE365E"/>
<path d="M52.8971 64.1705C52.6806 64.1171 52.5118 63.9474 52.4597 63.7305C52.6664 63.8007 52.8282 63.9636 52.8971 64.1705Z" fill="#EE355D"/>
<path d="M52.0581 63.0722C51.8694 63.0741 51.7957 62.9696 51.7642 62.8005C51.9713 62.8032 51.9958 62.9534 52.0581 63.0722Z" fill="#EF385E"/>
<path d="M45.0041 50.4723C44.8639 50.2072 44.713 50.0865 44.8011 49.875C44.9914 50.006 44.9862 50.1972 45.0041 50.4723Z" fill="#EF395E"/>
<path d="M44.9819 50.2913C45.1226 50.5583 45.275 50.6782 45.1862 50.8896C44.9935 50.7595 45.0016 50.5679 44.9819 50.2913Z" fill="#EE375D"/>
<path d="M53.5622 90.2788C53.5535 89.362 53.5574 88.4449 53.531 87.5286C53.5148 86.9639 53.9371 87.0474 54.2658 86.9763L57.5272 89.3032L53.5622 90.2788Z" fill="#FFFDFD"/>
<path d="M37.277 68.8711C36.9371 68.8652 36.5975 68.8589 36.2578 68.8525C36.3803 68.5835 36.5025 68.3152 36.6515 67.9875C36.9209 68.2338 37.1344 68.5352 37.277 68.8711Z" fill="#B4A9AA"/>
<path d="M47.2314 80.856L45.8273 79.4429L45.78 79.4888L47.1242 80.9616L47.2314 80.856Z" fill="#EE355C"/>
<path d="M29.6982 53.5546L29.3264 52.4663L29.4454 52.4226L29.8303 53.4943L29.6982 53.5546Z" fill="#EE375E"/>
<path d="M50.6279 84.051C50.8587 84.0729 50.9525 84.2371 51.1552 84.4666C50.9195 84.4283 50.7202 84.2713 50.6279 84.051Z" fill="#EE365D"/>
<path d="M51.8588 85.0737C52.1318 85.0866 52.2543 85.2835 52.4653 85.5674C52.2051 85.491 51.9863 85.3134 51.8584 85.0744L51.8588 85.0737Z" fill="#EE345C"/>
<path d="M31.9854 59.0862C31.7011 58.9661 31.7505 58.6877 31.688 58.4624C31.9014 58.6155 31.9286 58.858 31.9859 59.0857L31.9854 59.0862Z" fill="#EE365E"/>
<path d="M51.8575 85.0745C51.6595 85.0655 51.4874 84.9365 51.4231 84.749C51.6191 84.7628 51.789 84.8897 51.8579 85.0738L51.8575 85.0745Z" fill="#EE375E"/>
<path d="M53.5471 86.4012C53.5178 86.4163 53.4849 86.4226 53.4521 86.42C53.3242 86.3411 53.1663 86.2888 53.1519 86.0869C53.3778 86.0876 53.4515 86.2582 53.5471 86.4012Z" fill="#EF395E"/>
<path d="M31.9857 59.0857C32.1502 59.2001 32.2285 59.4028 32.1837 59.5981C32.0304 59.4754 31.9547 59.2799 31.9853 59.0859L31.9857 59.0857Z" fill="#EF385E"/>
<path d="M78.2019 37.6121L80.81 37.2915C81.0458 37.2526 81.2684 37.4118 81.3076 37.6476C81.3091 37.6565 81.3102 37.6655 81.3111 37.6745C81.6743 39.273 82.0608 40.8663 82.4311 42.4642C82.4967 42.7472 82.465 42.9388 82.0717 42.8235C81.2492 42.5829 80.4159 42.3789 79.5887 42.153C79.3783 42.0954 79.1513 42.0397 79.0993 41.7729C78.8313 40.3786 78.3944 39.0219 78.2019 37.6121Z" fill="white"/>
<path d="M72.0999 38.907C73.0832 38.5726 74.0954 38.331 75.1237 38.1853C75.3173 39.0203 75.5056 39.8567 75.7064 40.69C75.7836 41.0108 75.7361 41.1379 75.3678 41.0298C74.5853 40.8006 73.8001 40.5747 73.0047 40.4C72.5946 40.3098 72.3748 40.1375 72.3223 39.7101C72.2689 39.4372 72.1946 39.1686 72.0999 38.907Z" fill="#FFFEFE"/>
<path d="M69.8135 39.5396C69.9718 39.4958 70.0998 39.3427 70.2879 39.4022C70.3375 39.7686 70.7747 39.5286 70.9057 39.8361C70.5193 39.8563 70.1367 39.7524 69.8135 39.5396Z" fill="#B1B2B1"/>
<path d="M83.8984 43.3614C84.2372 43.2768 84.5957 43.3702 84.85 43.6092L83.8984 43.3614Z" fill="#B1B1B1"/>
<path d="M84.5293 37.9917C84.6949 38.1199 84.7662 38.3357 84.7093 38.5374C84.4864 38.4361 84.4954 38.2568 84.5293 37.9917Z" fill="#B1B2B2"/>
<path d="M84.3796 37.4604C84.5062 37.537 84.565 37.6302 84.5132 37.7448C84.5104 37.7509 84.4308 37.7391 84.427 37.7251C84.4039 37.638 84.3931 37.5488 84.3796 37.4604Z" fill="#B1B2B2"/>
<path d="M56.5484 92.7334C56.2597 93.0206 55.8485 92.8917 55.5076 93.0372C55.8076 92.7933 56.1722 92.7649 56.5484 92.7334Z" fill="#B1B2B2"/>
<path d="M34.9773 75.1554C34.9806 75.0786 34.9841 75.0021 34.9874 74.9253H35.8099C35.5438 75.0655 35.2336 75.0003 34.9773 75.1554Z" fill="#B6B6B7"/>
<path d="M37.2872 75.0917C36.9716 75.1788 36.6394 75.1864 36.3203 75.1136C36.6359 75.0268 36.9681 75.0191 37.2872 75.0917Z" fill="#B2B4B3"/>
</svg>
