<svg width="120" height="120" viewBox="0 0 120 120" fill="none" xmlns="http://www.w3.org/2000/svg">
<path d="M60 120C93.138 120 120 93.138 120 60C120 26.862 93.138 0 60 0C26.862 0 0 26.862 0 60C0 93.138 26.862 120 60 120Z" fill="#EDF0F4"/>
<path d="M25.0288 44.5695L37.2423 71.8878L57.539 91.9906L37.4206 29.6631L25.0288 44.5695Z" fill="#9C2131"/>
<path d="M25.0288 44.5694L46.306 57.2486L37.4206 29.6333L25.0288 44.5694Z" fill="#576B98"/>
<path d="M44.9375 28L51.9804 49.8547L56.3784 51.4285L61.5493 35.0375L44.9375 28Z" fill="#D71B2A"/>
<path d="M95.5167 48.5787L85.7697 62.1488L63.4229 54.0423L69.782 34.5334L87.0474 30.1387L95.5167 48.5787Z" fill="#C41A24"/>
<path d="M81.1639 68.5614L65.2656 90.4161L55.0132 59.1187L81.1639 68.5614Z" fill="#C71C26"/>
<path d="M53.9448 37.176L56.3815 51.4291L61.5522 35.0381L53.9448 37.176Z" fill="#A71927"/>
<path d="M51.8941 49.8547L56.3812 51.4285L53.9445 37.1754L44.9702 28L51.8941 49.8547Z" fill="#61395F"/>
<path d="M46.3067 57.2492L37.2135 71.8882L25 44.5698L46.3067 57.2492Z" fill="#614268"/>
<path d="M69.7525 34.5327L77.8651 47.0043L63.4229 54.0416L69.7525 34.5327Z" fill="#DA1728"/>
<path d="M87.0202 30.1387L77.8377 47.0049L69.7251 34.5334L87.0202 30.1387Z" fill="#E42735"/>
<path d="M85.7723 62.1478L77.8677 47.0337L95.5492 48.6075L85.7723 62.1478Z" fill="#A61D1E"/>
<path d="M65.8329 71.2041L65.2385 90.4161L54.9863 59.1187L65.8329 71.2041Z" fill="#D71B2A"/>
<path d="M65.2676 90.4168L65.8617 71.2049L81.1957 68.562L65.2676 90.4168Z" fill="#A51C1C"/>
<path d="M57.6272 91.99L37.2119 71.8872L51.8621 74.619L57.6272 91.99Z" fill="#721919"/>
</svg>
