<svg width="120" height="120" viewBox="0 0 120 120" fill="none" xmlns="http://www.w3.org/2000/svg">
<circle cx="60" cy="60" r="60" fill="#E7EFF3"/>
<path fill-rule="evenodd" clip-rule="evenodd" d="M42.712 49.0908H47.88V43.924C47.88 42.0904 46.3936 40.604 44.56 40.604H42.712C41.8313 40.6034 40.9864 40.9529 40.3637 41.5757C39.7409 42.1985 39.3913 43.0433 39.392 43.924V45.7708C39.392 47.6044 40.8784 49.0908 42.712 49.0908ZM72.12 49.0908H77.2876C79.1207 49.0908 80.6069 47.6051 80.6076 45.772V43.924C80.6076 42.0904 79.1212 40.604 77.2876 40.604H75.44C73.6064 40.604 72.12 42.0904 72.12 43.924V49.0908ZM44.56 80.606H42.7124C41.8319 80.606 40.9874 80.2562 40.3648 79.6336C39.7422 79.011 39.3924 78.1665 39.3924 77.286V75.44C39.3924 74.5595 39.7422 73.715 40.3648 73.0924C40.9874 72.4698 41.8319 72.12 42.7124 72.12H47.88V77.286C47.88 79.1196 46.3936 80.606 44.56 80.606ZM75.44 80.606H77.2876L77.2864 80.608C79.12 80.608 80.6064 79.1216 80.6064 77.288V75.44C80.6064 73.6064 79.12 72.12 77.2864 72.12H72.12V77.286C72.12 79.1196 73.6064 80.606 75.44 80.606Z" fill="#005FFF"/>
<path fill-rule="evenodd" clip-rule="evenodd" d="M59.682 40.6061H61.53L61.5296 40.6081C63.3632 40.6081 64.8496 39.1217 64.8496 37.2881V35.4401C64.8496 33.6065 63.3632 32.1201 61.5296 32.1201H59.682C57.8484 32.1201 56.362 33.6065 56.362 35.4401V37.2861C56.362 39.1197 57.8484 40.6061 59.682 40.6061ZM59.682 89.0909H61.5296C63.3632 89.0909 64.8496 87.6045 64.8496 85.7709V83.9229C64.8496 82.0893 63.3632 80.6029 61.5296 80.6029H59.682C57.8484 80.6029 56.362 82.0893 56.362 83.9229V85.7709C56.362 87.6045 57.8484 89.0909 59.682 89.0909ZM85.7724 64.8485H83.9248C82.0912 64.8485 80.6048 63.3621 80.6048 61.5285V59.6801C80.6048 57.8465 82.0912 56.3601 83.9248 56.3601H85.7724C87.606 56.3601 89.0924 57.8465 89.0924 59.6801V61.5281C89.0924 63.3617 87.606 64.8481 85.7724 64.8481V64.8485ZM35.44 64.8485H37.2876V64.8481C39.1212 64.8481 40.6076 63.3617 40.6076 61.5281V59.6801C40.6076 58.7996 40.2578 57.9551 39.6352 57.3325C39.0126 56.7099 38.1681 56.3601 37.2876 56.3601H35.44C33.6064 56.3601 32.12 57.8465 32.12 59.6801V61.5285C32.12 63.3621 33.6064 64.8485 35.44 64.8485Z" fill="#00CCEE"/>
<path fill-rule="evenodd" clip-rule="evenodd" d="M45.7388 27.4577C44.5023 27.9701 43.9152 29.3879 44.4276 30.6245C44.9403 31.8607 46.3578 32.4476 47.5944 31.9357C48.831 31.4233 49.418 30.0054 48.9056 28.7689C48.3932 27.5323 46.9754 26.9453 45.7388 27.4577ZM71.1912 89.2761C69.9547 89.7885 69.3676 91.2063 69.88 92.4429C70.3927 93.6791 71.8102 94.266 73.0468 93.7541C74.2834 93.2417 74.8704 91.8238 74.358 90.5873C73.8456 89.3507 72.4278 88.7637 71.1912 89.2761ZM91.2304 50.1201C89.9939 50.6325 88.576 50.0454 88.0636 48.8089C87.5513 47.5723 88.1383 46.1545 89.3748 45.6421C90.6114 45.1297 92.0292 45.7167 92.5416 46.9533C93.0536 48.1898 92.4666 49.6073 91.2304 50.1201ZM27.4576 74.2613C27.9701 75.4978 29.3879 76.0849 30.6244 75.5725C31.8606 75.0597 32.4476 73.6422 31.9356 72.4057C31.4232 71.1691 30.0054 70.5821 28.7688 71.0945C27.5323 71.6069 26.9452 73.0247 27.4576 74.2613Z" fill="#005FFF"/>
<path fill-rule="evenodd" clip-rule="evenodd" d="M74.36 30.6244C73.8476 31.8609 72.4299 32.448 71.1934 31.9358C69.9568 31.4235 69.3696 30.0058 69.8818 28.7692C70.3941 27.5326 71.8118 26.9454 73.0484 27.4576C73.6423 27.7035 74.1143 28.1753 74.3602 28.7692C74.6062 29.3632 74.6061 30.0305 74.36 30.6244ZM27.4582 46.9533C26.9459 48.1899 27.533 49.6076 28.7696 50.12C29.3634 50.3661 30.0308 50.3662 30.6247 50.1202C31.2186 49.8742 31.6905 49.4023 31.9364 48.8084C32.4486 47.5718 31.8613 46.1541 30.6248 45.6418C29.3882 45.1296 27.9705 45.7168 27.4582 46.9533ZM88.0642 72.4057C87.5519 73.6423 88.139 75.06 89.3756 75.5724C89.9694 75.8185 90.6368 75.8186 91.2307 75.5726C91.8246 75.3266 92.2965 74.8547 92.5424 74.2608C93.0546 73.0242 92.4673 71.6065 91.2308 71.0942C89.9942 70.582 88.5765 71.1692 88.0642 72.4057ZM45.7394 93.7542C46.9759 94.2664 48.3937 93.6793 48.906 92.4428C49.1521 91.8489 49.1522 91.1816 48.9062 90.5876C48.6603 89.9937 48.1883 89.5219 47.5944 89.276C46.3578 88.7638 44.9401 89.351 44.4278 90.5876C43.9156 91.8242 44.5028 93.2419 45.7394 93.7542Z" fill="#002DAE"/>
<path fill-rule="evenodd" clip-rule="evenodd" d="M87.5236 34.1906C87.177 34.5373 86.6557 34.641 86.2028 34.4534C85.7499 34.2658 85.4546 33.8238 85.4546 33.3336C85.4546 32.8434 85.7499 32.4015 86.2028 32.2139C86.6557 32.0263 87.177 32.13 87.5236 32.4766C87.751 32.7039 87.8787 33.0121 87.8787 33.3336C87.8787 33.6551 87.751 33.9634 87.5236 34.1906ZM31.0017 32.8698C30.8141 33.3227 30.9178 33.844 31.2644 34.1906C31.4916 34.418 31.7999 34.5458 32.1214 34.5458C32.4429 34.5458 32.7512 34.418 32.9784 34.1906C33.325 33.844 33.4287 33.3227 33.2411 32.8698C33.0536 32.4169 32.6116 32.1216 32.1214 32.1216C31.6312 32.1216 31.1892 32.4169 31.0017 32.8698ZM85.5469 87.415C85.3593 87.8679 85.463 88.3892 85.8096 88.7358C86.0368 88.9632 86.3451 89.091 86.6666 89.091C86.9881 89.091 87.2964 88.9632 87.5236 88.7358C87.8702 88.3892 87.9739 87.8679 87.7863 87.415C87.5988 86.9621 87.1568 86.6668 86.6666 86.6668C86.1764 86.6668 85.7344 86.9621 85.5469 87.415ZM31.6576 88.9986C32.1105 89.1862 32.6318 89.0825 32.9784 88.7358C33.2058 88.5086 33.3335 88.2003 33.3335 87.8788C33.3335 87.5574 33.2058 87.2491 32.9784 87.0218C32.6318 86.6752 32.1105 86.5715 31.6576 86.7591C31.2047 86.9467 30.9094 87.3886 30.9094 87.8788C30.9094 88.369 31.2047 88.811 31.6576 88.9986Z" fill="#0099C0"/>
<path d="M98.788 61.2121C98.1186 61.2121 97.576 60.6695 97.576 60.0001C97.576 59.3307 98.1186 58.7881 98.788 58.7881C99.4574 58.7881 100 59.3307 100 60.0001C99.9998 60.6694 99.4573 61.2119 98.788 61.2121Z" fill="#0029C0"/>
<mask id="mask0_107_21696" style="mask-type:luminance" maskUnits="userSpaceOnUse" x="20" y="58" width="3" height="4">
<path fill-rule="evenodd" clip-rule="evenodd" d="M20 61.2121V58.7881H22.4244V61.2121H20Z" fill="white"/>
</mask>
<g mask="url(#mask0_107_21696)">
<path d="M21.212 61.2121C20.5426 61.2121 20 60.6695 20 60.0001C20 59.3307 20.5426 58.7881 21.212 58.7881C21.8814 58.7881 22.424 59.3307 22.424 60.0001C22.4238 60.6694 21.8813 61.2119 21.212 61.2121Z" fill="#0029C0"/>
</g>
<path d="M61.212 21.212C61.212 21.8814 60.6694 22.424 60 22.424C59.3307 22.424 58.788 21.8814 58.788 21.212C58.788 20.5426 59.3307 20 60 20C60.6693 20.0002 61.2118 20.5427 61.212 21.212Z" fill="#0029C0"/>
<mask id="mask1_107_21696" style="mask-type:luminance" maskUnits="userSpaceOnUse" x="58" y="97" width="4" height="3">
<path fill-rule="evenodd" clip-rule="evenodd" d="M61.212 100H58.788V97.5757H61.212V100Z" fill="white"/>
</mask>
<g mask="url(#mask1_107_21696)">
<path d="M61.212 98.7882C61.212 99.4575 60.6694 100 60 100C59.3307 100 58.788 99.4575 58.788 98.7882C58.788 98.1188 59.3307 97.5762 60 97.5762C60.6693 97.5764 61.2118 98.1189 61.212 98.7882Z" fill="#0029C0"/>
</g>
<path d="M68.0888 55.9599H69.8984C71.1256 55.959 72.12 54.9639 72.12 53.7367V47.8799H66.2636C65.036 47.8799 64.0407 48.8747 64.04 50.1023V51.9199C64.04 54.1511 62.2312 55.9599 60 55.9599C57.7688 55.9599 55.96 54.1511 55.96 51.9199V50.0219C55.9591 48.8386 54.9997 47.8799 53.8164 47.8799H47.88V72.1199H53.772C54.9802 72.1194 55.9596 71.1401 55.96 69.9319V68.0799C55.96 65.8487 57.7688 64.0399 60 64.0399V64.0479C62.2312 64.0479 64.04 65.8567 64.04 68.0879V69.9147C64.04 71.1328 65.0275 72.1203 66.2456 72.1203H72.12V66.2459C72.12 65.6609 71.8876 65.0999 71.474 64.6863C71.0604 64.2727 70.4994 64.0403 69.9144 64.0403H68.08C65.8488 64.0403 64.04 62.2315 64.04 60.0003H64.048C64.048 57.7691 65.8568 55.9603 68.088 55.9603" fill="#003EC5"/>
</svg>
