<svg width="120" height="120" viewBox="0 0 120 120" fill="none" xmlns="http://www.w3.org/2000/svg">
<circle cx="60" cy="60" r="60" fill="black"/>
<path d="M94.3385 39.0746C93.1667 38.1506 91.7695 36.8887 89.223 36.5732C86.8343 36.2577 84.4005 37.8577 82.7554 38.9168C81.1103 39.976 78.0005 43.0858 76.716 44.0323C75.4315 44.9788 72.1413 45.8577 66.8456 49.0351C61.5498 52.2126 40.7724 65.5534 40.7724 65.5534L46.1808 65.621L22.0682 78.0379H24.4795L21.009 80.6745C21.009 80.6745 24.0738 81.4858 26.6428 79.8633V80.6069C26.6428 80.6069 55.3526 69.2943 60.8963 72.2238L57.516 73.2154C57.809 73.2154 63.2625 73.5759 63.2625 73.5759C63.5305 75.8623 64.8024 77.9107 66.7329 79.1647C70.023 81.328 70.0906 82.5224 70.0906 82.5224C70.0906 82.5224 68.378 83.221 68.378 84.0999C68.378 84.0999 70.9019 83.3337 73.2456 83.4013C74.733 83.4577 76.2083 83.6922 77.6399 84.0999C77.6399 84.0999 77.4597 83.1534 75.1836 82.5224C72.9075 81.8914 70.654 79.4126 69.5498 78.0604C68.1738 76.3095 67.8227 73.9629 68.6259 71.8858C69.4146 69.8351 72.1639 68.7083 77.8428 65.7788C84.5357 62.3084 86.0681 59.7393 87.0146 57.7337C87.961 55.7281 89.3582 51.7394 90.147 49.8689C91.1385 47.4577 92.3554 46.1732 93.3695 45.407C94.3836 44.6408 98.8906 42.9506 98.8906 42.9506C98.8906 42.9506 95.4427 39.9535 94.3385 39.0746Z" fill="white"/>
</svg>
