<svg width="120" height="120" viewBox="0 0 120 120" fill="none" xmlns="http://www.w3.org/2000/svg">
<circle cx="60" cy="60" r="60" fill="#EDF0F4"/>
<path d="M96.4867 70.6526C92.4712 84.4971 80.9586 94.8713 66.7722 97.4288V86.6141C69.3369 85.6371 71.6448 84.0879 73.5204 82.0843C74.5624 80.9666 75.453 79.7168 76.1695 78.367C77.5333 75.7956 78.2392 72.9266 78.2241 70.016C78.2241 60.4554 71.3221 56.6329 64.8511 53.798L61.5744 52.3496C58.0708 50.7784 55.3909 49.3805 55.3909 46.988C55.3909 43.681 58.2769 41.9036 60.999 41.9036C63.8957 41.9036 65.5388 42.9725 67.2745 45.9814L68.6201 48.3128L77.2787 42.7564L76.1505 40.6613C74.1648 36.8752 70.8116 33.9874 66.7728 32.5853V22.666C67.6148 22.8097 68.4467 22.9944 69.2894 23.2106C69.3713 23.2313 69.464 23.2515 69.5566 23.2699C69.6505 23.2878 69.7432 23.3118 69.8339 23.3418C69.862 23.345 69.8896 23.352 69.9159 23.3626C70.1421 23.422 70.3779 23.4754 70.6142 23.5473C80.2919 26.3625 88.4548 32.9071 93.3069 41.7412C98.159 50.5753 99.3028 60.9751 96.4867 70.6526Z" fill="#745DDF"/>
<path d="M67.5934 70.5407C67.5934 74.8958 63.6593 77.5865 60.0233 77.5865C55.6581 77.5865 53.1623 73.9813 52.6795 70.6327L52.2685 67.726L41.7923 70.6761L42.2673 73.0181C43.7667 80.403 48.8101 85.7136 55.6611 87.3157V97.7819C53.8025 97.5643 51.9625 97.2107 50.1557 96.7237C49.8992 96.6643 49.6521 96.5901 49.3956 96.5183C33.1754 91.7952 22.016 76.9374 22 60.0436V23.5292C22.001 22.7015 22.6717 22.0308 23.4994 22.0298H55.6587V32.4859C51.8955 33.5755 48.689 36.0583 46.6919 39.4289C45.4111 41.6706 44.745 44.2107 44.7608 46.7924V46.9978C44.8623 55.524 51.129 59.0882 57.0453 61.7687L60.0049 63.0525L60.2514 63.1654C64.9438 65.3126 67.5934 66.7194 67.5934 70.5407Z" fill="#2EB6EA"/>
<path d="M78.224 70.0162C78.2392 72.9266 77.5335 75.7954 76.17 78.3666C75.4532 79.7167 74.5622 80.9667 73.5198 82.0846C71.6441 84.0877 69.3361 85.6365 66.7715 86.6131L66.7763 97.4801L63.7388 97.7485C63.7388 97.7485 57.2251 97.9439 55.6741 97.7485L55.658 87.3132C48.8076 85.7105 43.7643 80.4005 42.2649 73.0144L41.7898 70.6724L52.2661 67.7246L52.677 70.6314C53.1622 73.9812 55.658 77.5869 60.0233 77.5869C63.6593 77.5869 67.5934 74.8957 67.5934 70.5412C67.5934 66.7205 64.9431 65.3155 60.2495 63.1664L60.0031 63.0536L57.0452 61.7697C51.1289 59.088 44.8634 55.5239 44.7607 46.9989V46.7934C44.7449 44.2117 45.411 41.6716 46.6918 39.43C48.6885 36.0591 51.8948 33.5758 55.658 32.4858V22.019C62.5084 21.9608 63.0328 22.0011 66.7715 22.6579V32.5885C70.8104 33.9906 74.1636 36.8783 76.1492 40.6645L77.2775 42.7596L68.6207 48.3112L67.2751 45.9799C65.5393 42.9704 63.8956 41.9021 60.9995 41.9021C58.2774 41.9021 55.3914 43.6788 55.3914 46.9864C55.3914 49.3795 58.0719 50.7762 61.5749 52.3481L64.8505 53.7982C71.3232 56.6331 78.224 60.4538 78.224 70.0162Z" fill="white"/>
</svg>
