<svg width="99" height="121" viewBox="0 0 99 121" fill="none" xmlns="http://www.w3.org/2000/svg">
<path d="M69.0792 94.9793C66.1735 92.0164 62.68 90.4656 58.5744 90.3105C54.3382 90.3105 50.7387 91.7634 47.7594 94.6691C44.7965 97.5586 43.3192 101.052 43.3192 105.158C43.1722 109.263 44.5925 112.83 47.5554 115.866C50.5346 118.903 54.0607 120.429 58.1581 120.429C62.2556 120.429 65.9612 118.976 68.867 116.071C71.7564 113.181 73.2828 109.671 73.4134 105.582C73.4134 101.476 71.9605 97.9503 69.071 94.9793H69.0792ZM90.5378 68.5091C90.448 67.195 89.3379 66.1747 88.0238 66.2155C77.0782 66.5339 66.1 67.2521 55.081 68.3785C44.0048 69.5049 33.0266 71.0313 22.13 72.9739C20.9056 73.1943 20.0404 74.2962 20.1139 75.5287L21.0934 92.7102C21.1832 94.2284 22.6116 95.2895 24.0971 94.9466C34.8876 92.4735 45.7189 90.7186 56.5583 89.6738C67.4631 88.6372 78.327 88.2536 89.1747 88.5393C90.6194 88.5801 91.7866 87.3802 91.6886 85.9355L90.5296 68.5091H90.5378Z" fill="white"/>
<path d="M99.1816 30.1548C99.5979 31.4199 98.9204 32.7993 97.6634 33.2401C81.7144 38.7904 65.496 43.0429 49.0409 46.0058C32.7654 48.9442 17.3061 50.8624 2.66304 51.7929C1.25097 51.8827 0.0674438 50.7563 0.0674438 49.3442V19.6908C0.0674438 18.393 1.08773 17.3237 2.37736 17.2503C33.149 15.4627 61.268 9.86342 86.7342 0.468674C88.0401 -0.0128982 89.4767 0.672729 89.9093 1.99501L99.1734 30.1629L99.1816 30.1548Z" fill="white"/>
</svg>
