<svg width="40" height="40" viewBox="0 0 40 40" fill="none" xmlns="http://www.w3.org/2000/svg">
<g clip-path="url(#clip0_83_1924)">
<path d="M30.0054 0H9.99459C4.47473 0 0 4.47473 0 9.99459V30.0054C0 35.5253 4.47473 40 9.99459 40H30.0054C35.5253 40 40 35.5253 40 30.0054V9.99459C40 4.47473 35.5253 0 30.0054 0Z" fill="#4766F9"/>
<path d="M23.8937 27.1387C23.3007 26.534 22.5878 26.2175 21.7499 26.1859C20.8853 26.1859 20.1507 26.4824 19.5427 27.0754C18.9381 27.6651 18.6366 28.378 18.6366 29.2159C18.6066 30.0538 18.8964 30.7817 19.5011 31.4014C20.1091 32.0211 20.8287 32.3326 21.6649 32.3326C22.5011 32.3326 23.2574 32.0361 23.8504 31.443C24.4401 30.8534 24.7516 30.1371 24.7782 29.3025C24.7782 28.4647 24.4817 27.745 23.892 27.1387H23.8937ZM28.273 21.7366C28.2547 21.4684 28.0281 21.2602 27.7599 21.2686C25.5262 21.3335 23.2857 21.4801 21.0369 21.71C18.7765 21.9399 16.536 22.2514 14.3122 22.6478C14.0624 22.6928 13.8858 22.9177 13.9008 23.1692L14.1007 26.6756C14.119 26.9855 14.4105 27.202 14.7137 27.132C16.9158 26.6273 19.1263 26.2692 21.3384 26.056C23.5639 25.8444 25.781 25.7661 27.9948 25.8244C28.2897 25.8327 28.5279 25.5879 28.5079 25.293L28.2713 21.7366H28.273Z" fill="white"/>
<path d="M30.0369 13.9092C30.1219 14.1674 29.9836 14.4489 29.7271 14.5388C26.4722 15.6715 23.1623 16.5394 19.8042 17.1441C16.4826 17.7437 13.3277 18.1352 10.3393 18.3251C10.0511 18.3434 9.80957 18.1135 9.80957 17.8254V11.7736C9.80957 11.5088 10.0178 11.2906 10.281 11.2756C16.5609 10.9108 22.2995 9.76807 27.4967 7.85077C27.7632 7.75249 28.0564 7.89242 28.1446 8.16227L30.0353 13.9108L30.0369 13.9092Z" fill="white"/>
</g>
<defs>
<clipPath id="clip0_83_1924">
<rect width="40" height="40" fill="white"/>
</clipPath>
</defs>
</svg>
