<svg width="120" height="120" viewBox="0 0 120 120" fill="none" xmlns="http://www.w3.org/2000/svg">
<circle cx="60" cy="60" r="60" fill="#EDF0F4"/>
<path fill-rule="evenodd" clip-rule="evenodd" d="M30.2864 57.3959L78.125 90.9775L89.7127 82.8862C93.0217 80.5657 94.9919 76.7777 94.9919 72.7361C94.9919 68.6944 93.0217 64.9065 89.7127 62.5859L41.8741 29L30.2864 37.0956C26.9755 39.415 25.0039 43.2033 25.0039 47.2458C25.0039 51.2882 26.9755 55.0766 30.2864 57.3959ZM32.8376 40.719L41.8697 34.4L87.1702 66.2049C89.2993 67.6972 90.567 70.1339 90.567 72.7339C90.567 75.3339 89.2993 77.7706 87.1702 79.2629L78.1381 85.5775L32.8376 53.777C30.7067 52.2859 29.4375 49.8488 29.4375 47.248C29.4375 44.6472 30.7067 42.2101 32.8376 40.719Z" fill="#4BC0C8"/>
<path d="M41.8264 85.5469L32.8075 79.2148C30.6784 77.7225 29.4106 75.2858 29.4106 72.6858C29.4106 70.0858 30.6784 67.6491 32.8075 66.1568L56.1535 49.8343L52.3026 47.1387L30.2825 62.5335C26.9716 64.8528 25 68.6412 25 72.6836C25 76.7261 26.9716 80.5145 30.2825 82.8338L41.8395 90.9469L56.136 80.9434L52.2851 78.239L41.8264 85.5469Z" fill="#02819B"/>
<path d="M89.7347 37.1439L78.1732 29.0308L63.8637 39.0431L67.7146 41.7475L78.1689 34.4483L87.1922 40.7804C89.3213 42.2727 90.589 44.7094 90.589 47.3094C90.589 49.9094 89.3213 52.3461 87.1922 53.8384L63.8418 70.1478L67.6927 72.8522L89.7172 57.4442C93.0281 55.1249 94.9997 51.3365 94.9997 47.2941C94.9997 43.2516 93.0281 39.4632 89.7172 37.1439H89.7347Z" fill="#02819B"/>
<path d="M33.0352 60.5952L51.228 47.8659L53.7643 51.4909L35.5715 64.2202L33.0352 60.5952Z" fill="#02819B"/>
<path d="M84.838 55.4531L75.9766 61.6583L78.5103 65.2817L87.6999 58.8445C86.7372 57.733 85.7876 56.5953 84.838 55.4531Z" fill="#02819B"/>
</svg>
