<svg width="120" height="120" viewBox="0 0 120 120" fill="none" xmlns="http://www.w3.org/2000/svg">
<circle cx="60" cy="60" r="60" fill="#EDF0F4"/>
<circle cx="60" cy="60" r="40" fill="white"/>
<path d="M60.0002 18.425C82.9613 18.4252 101.574 37.0391 101.574 60.0002C101.574 82.9613 82.9613 101.574 60.0002 101.574C37.0391 101.574 18.4252 82.9613 18.425 60.0002C18.425 37.039 37.039 18.425 60.0002 18.425ZM60.0002 22.8782C39.4987 22.8782 22.8782 39.4987 22.8782 60.0002C22.8783 80.5017 39.4988 97.1213 60.0002 97.1213C80.5016 97.1212 97.1212 80.5016 97.1213 60.0002C97.1213 39.4988 80.5017 22.8783 60.0002 22.8782Z" fill="#EB1A6B"/>
<path d="M69.8371 67.3678C70.884 68.1184 71.4173 68.5727 72.0099 68.948C75.605 71.3382 79.5161 71.5752 82.0642 69.1653C84.7704 66.5382 84.9877 63.2394 83.7235 59.8616C82.3803 56.0295 79.2198 53.7184 75.4074 54.311C73.6889 54.6073 71.6544 55.8912 70.6865 57.3135C68.2963 60.7703 67.4667 65.1949 63.4963 67.5061C62.963 67.8023 63.121 69.5209 63.121 70.5875C63.2 78.0937 57.7284 83.8616 49.8469 84.6122C43.6247 85.2048 34.321 80.1875 34.4 73.2147C37.6988 74.7159 40.8395 76.8098 44.3753 77.5604C47.2988 78.232 50.8148 77.9357 53.7581 76.9678C57.5902 75.6838 59.3877 72.0098 58.9334 68.711C58.479 65.8665 57.3531 65.1159 51.5852 64.1283C51.2099 62.469 50.8346 60.6715 50.4593 58.6567C51.0519 58.5777 51.5062 58.4394 51.9605 58.4394C54.5877 58.2221 57.4321 58.1431 57.6494 54.469C57.8667 51.5456 55.1013 48.0888 51.8815 48.4048C48.7408 48.7011 45.8173 50.3604 42.2025 51.6246C41.5309 50.5777 40.405 48.8591 39.3581 47.1209C43.9408 41.7283 51.4272 40.6814 56.8988 44.6517C61.9161 48.2468 62.3704 54.0344 57.9457 60.7703C59.2297 61.9752 60.4939 63.1604 62.2914 64.8986C62.884 63.1011 63.2 61.8172 63.6346 60.632C64.2272 58.9135 64.6815 57.0369 65.6494 55.4567C68.0395 51.3283 71.3581 48.4838 76.5136 49.0764C81.5309 49.669 84.0988 52.6517 86.0149 57.3135C88.1087 62.7653 87.2593 66.874 86.0149 69.9949C84.7704 73.1159 80.1877 76.2962 76.8889 75.7628C72.5432 75.0912 70.0741 72.3258 69.8371 67.3678Z" fill="black"/>
<path d="M55.3778 38.6469C62.2716 43.4469 68.3556 42.7753 74.4988 38.5679C75.6247 40.3654 76.5926 41.8666 77.5803 43.3679C70.2914 49.0765 58.4395 46.1531 55.3778 38.6469Z" fill="black"/>
<path d="M60.8494 35.8816C62.1926 34.2223 63.2395 33.0371 64.5234 31.5359C66.0247 33.1161 66.9926 34.163 68.1975 35.5063C67.0716 36.7902 66.0247 37.8964 64.6815 39.3384C63.3975 38.2124 62.2716 37.1458 60.8494 35.8816Z" fill="#F01871"/>
</svg>
