<svg width="120" height="120" viewBox="0 0 120 120" fill="none" xmlns="http://www.w3.org/2000/svg">
<path d="M60 120C93.138 120 120 93.138 120 60C120 26.862 93.138 0 60 0C26.862 0 0 26.862 0 60C0 93.138 26.862 120 60 120Z" fill="#EDF0F4"/>
<circle cx="46.7457" cy="47.7101" r="3.71007" fill="black"/>
<circle cx="73.2457" cy="47.7101" r="3.71007" fill="black"/>
<circle cx="40.1705" cy="54.401" r="3.71007" fill="black"/>
<circle cx="46.7457" cy="60.963" r="3.71007" fill="black"/>
<circle cx="73.2457" cy="60.963" r="3.71007" fill="black"/>
<circle cx="33.4427" cy="60.9632" r="2.71276" fill="black"/>
<circle cx="40.0101" cy="67.7001" r="2.71276" fill="black"/>
<circle cx="53.329" cy="67.7001" r="2.71276" fill="black"/>
<circle cx="66.6625" cy="67.7001" r="2.71276" fill="black"/>
<circle cx="79.8295" cy="67.7001" r="2.71276" fill="black"/>
<circle cx="26.8041" cy="67.7001" r="1.80407" fill="black"/>
<circle cx="33.4427" cy="74.3002" r="1.80407" fill="black"/>
<circle cx="59.8881" cy="74.3002" r="1.80407" fill="black"/>
<circle cx="86.4935" cy="74.3002" r="1.80407" fill="black"/>
<circle cx="93.1962" cy="67.7001" r="1.80407" fill="black"/>
<circle cx="59.8881" cy="60.9632" r="2.71276" fill="black"/>
<circle cx="86.5482" cy="60.9632" r="2.71276" fill="black"/>
<circle cx="53.3209" cy="54.401" r="3.71007" fill="black"/>
<circle cx="66.6319" cy="54.401" r="3.71007" fill="black"/>
<circle cx="79.943" cy="54.401" r="3.71007" fill="black"/>
</svg>
