<svg width="120" height="120" viewBox="0 0 120 120" fill="none" xmlns="http://www.w3.org/2000/svg">
<circle cx="60" cy="60" r="60" fill="#0FD297"/>
<path d="M63.8187 67.3209C64.8183 68.6812 65.7871 70.0213 66.8993 71.2945C68.9032 73.5886 71.1947 75.4698 74.1727 76.3696C75.8079 76.8637 77.4893 77.0849 79.1821 77.2411C79.3155 77.2532 79.4154 77.2672 79.4919 77.4134C80.3761 79.1022 80.8656 80.8721 80.6356 82.7962C80.6175 82.9464 80.5934 83.0952 80.5652 83.2809C80.5592 83.3191 80.5122 83.3346 80.4848 83.3077C80.0832 82.9122 79.7004 82.5569 79.2827 82.2424C77.8862 81.1906 76.3496 80.4752 74.5783 80.4041C72.2211 80.3096 70.1978 81.7101 69.3692 83.9648C68.6947 85.8004 68.7229 87.6628 69.1727 89.5386C69.1949 89.6298 69.2176 89.721 69.2344 89.8135C69.2425 89.8564 69.2364 89.9114 69.2016 89.902C68.5063 89.6989 67.8835 89.3482 67.2942 88.942C66.2075 88.1931 65.3667 87.2136 64.6662 86.1021C64.5508 85.9184 64.6239 85.7937 64.691 85.6475C65.2662 84.3925 65.7757 83.114 66.1632 81.7859C66.9463 79.1015 66.8276 76.4259 66.1263 73.7495C65.5773 71.6545 64.7265 69.6727 63.8576 67.697C63.81 67.5897 63.7685 67.4798 63.7242 67.3712C63.694 67.2941 63.7819 67.2599 63.8187 67.3209Z" fill="white"/>
<path d="M59.7909 91.9424C59.7493 92.0597 59.5831 92.0611 59.5408 91.9444C58.6264 89.4243 57.3814 87.1583 56.3469 84.799C55.6644 83.2437 55.0235 81.6722 54.7862 79.972C54.7862 79.9713 54.7862 79.9713 54.7862 79.9707C54.7721 79.8674 54.8774 79.7903 54.9732 79.8326C58.0954 81.2109 61.1961 81.2103 64.3142 79.8165C64.4094 79.7736 64.514 79.854 64.4999 79.9579C64.3283 81.215 63.9502 82.3352 63.5184 83.4408C62.7072 85.5177 61.6741 87.4941 60.7663 89.5275C60.4211 90.2992 60.0979 91.0809 59.7909 91.9424Z" fill="white"/>
<path d="M59.4623 63.165C59.5193 63.0269 59.7157 63.0289 59.77 63.1677C59.8967 63.4915 60.0194 63.8086 60.1541 64.1203C61.0505 66.1953 61.9603 68.2649 62.8486 70.3439C63.1167 70.9707 63.3219 71.6244 63.5753 72.2586C63.6651 72.4845 63.6242 72.5784 63.395 72.6662C60.8856 73.6216 58.3789 73.6269 55.8661 72.6783C55.6288 72.5884 55.6161 72.4899 55.6911 72.268C56.4601 69.9999 57.4906 67.8412 58.4318 65.6442C58.7845 64.8216 59.1183 63.991 59.4623 63.165Z" fill="white"/>
<path d="M81.9007 77.484C81.8746 77.4177 81.9262 77.3466 81.9973 77.3513C83.674 77.4639 85.2998 77.6302 86.9088 77.9513C87.1253 77.9942 87.1193 78.1317 87.1434 78.2778C87.5236 80.623 87.4572 82.9567 86.949 85.275C86.3389 88.0573 85.1831 90.5814 83.247 92.6946C80.2891 95.9226 76.5602 97.3124 72.2333 97.0858C68.2764 96.8787 64.7869 95.4111 61.7063 92.9393C61.5541 92.8172 61.5206 92.7167 61.5843 92.5263C62.1052 90.9783 62.783 89.4987 63.497 88.0345C63.497 88.0338 63.4977 88.0338 63.4977 88.0331C63.5278 87.9714 63.615 87.9681 63.6579 88.0224C67.2574 92.5974 73.2128 93.8282 77.8869 90.9019C82.1568 88.2269 84.022 82.8695 81.9007 77.484Z" fill="white"/>
<path d="M55.5109 67.41C54.8324 68.956 54.1566 70.4651 53.6102 72.0647C52.6254 74.9476 52.142 77.8719 52.852 80.9016C53.2415 82.5649 53.8904 84.131 54.6018 85.6756C54.6581 85.797 54.6956 85.8909 54.6071 86.0303C53.5867 87.6407 52.2989 88.9493 50.5176 89.7123C50.3788 89.7719 50.2373 89.8256 50.0623 89.8939C50.0261 89.908 49.9893 89.8752 49.9993 89.8376C50.1408 89.2919 50.2574 88.7831 50.3211 88.2641C50.5336 86.5291 50.3848 84.8403 49.5609 83.2708C48.4641 81.1825 46.2396 80.1299 43.8723 80.5402C41.9455 80.8741 40.3466 81.8294 38.9468 83.1569C38.8784 83.2212 38.8107 83.2869 38.7396 83.3479C38.7061 83.3761 38.6558 83.3989 38.6464 83.364C38.4748 82.6601 38.4667 81.9461 38.5244 81.2321C38.6296 79.9167 39.0574 78.6986 39.6695 77.5361C39.7707 77.3443 39.9155 77.3457 40.0757 77.3302C41.4501 77.2015 42.8124 77.0031 44.1559 76.6746C46.8718 76.0102 49.1305 74.5694 51.0968 72.6246C52.6368 71.1014 53.928 69.3737 55.2038 67.6339C55.2735 67.5394 55.3473 67.4482 55.4197 67.3557C55.472 67.2887 55.5457 67.3483 55.5109 67.41Z" fill="white"/>
<path d="M32.1741 76.233C32.0514 76.2558 31.9676 76.1124 32.0474 76.0172C33.7731 73.965 35.1126 71.7539 36.6385 69.6783C37.6441 68.3093 38.6846 66.9685 40.0388 65.9126C40.0395 65.9126 40.0395 65.9119 40.0402 65.9119C40.1226 65.8482 40.242 65.9012 40.2534 66.0044C40.6208 69.3974 42.1715 72.0825 44.9383 74.0857C45.0228 74.1467 45.0053 74.2774 44.9088 74.317C43.7342 74.797 42.575 75.0296 41.4018 75.2086C39.1975 75.5452 36.969 75.6384 34.7546 75.869C33.9125 75.9568 33.0738 76.0681 32.1741 76.233Z" fill="white"/>
<path d="M56.9321 61.5601C57.0802 61.5407 57.1768 61.7116 57.0836 61.8283C56.8664 62.0998 56.6532 62.3646 56.4507 62.6375C55.1018 64.4516 53.7643 66.2739 52.4087 68.0826C51.9998 68.6284 51.5365 69.1332 51.1142 69.6695C50.964 69.8606 50.8614 69.872 50.671 69.7171C48.5887 68.021 47.331 65.8535 46.8965 63.2026C46.8556 62.9526 46.9347 62.8922 47.1647 62.846C49.5132 62.378 51.8986 62.191 54.2712 61.9074C55.1588 61.8008 56.0444 61.6748 56.9321 61.5601Z" fill="white"/>
<path d="M55.7508 88.1511C55.7951 88.0954 55.8822 88.1041 55.9137 88.1685C56.6546 89.6769 57.3236 91.168 57.8499 92.722C57.921 92.9312 57.799 92.9949 57.6843 93.088C55.844 94.5898 53.7892 95.6993 51.5272 96.418C48.8126 97.2809 46.0492 97.5417 43.2508 96.9215C38.9762 95.9742 35.9084 93.4393 33.9413 89.5791C32.1426 86.0493 31.6686 82.2929 32.2693 78.3891C32.2988 78.196 32.3692 78.1169 32.5663 78.0773C34.1673 77.7542 35.7877 77.602 37.4128 77.488C37.4135 77.488 37.4135 77.488 37.4141 77.488C37.4825 77.4833 37.5294 77.5571 37.5033 77.6207C35.3412 83.0257 37.2532 88.7987 42.1238 91.3832C46.5748 93.7444 52.1473 92.6818 55.7508 88.1511Z" fill="white"/>
<path d="M55.4425 52.9411C54.4429 51.5808 53.4741 50.2406 52.3619 48.9675C50.358 46.6733 48.0665 44.7921 45.0885 43.8924C43.4533 43.3983 41.7719 43.1771 40.0791 43.0209C39.9457 43.0088 39.8458 42.9947 39.7694 42.8486C38.8851 41.1598 38.3957 39.3899 38.6256 37.4657C38.6437 37.3156 38.6679 37.1667 38.696 36.981C38.7021 36.9428 38.749 36.9274 38.7765 36.9542C39.1781 37.3498 39.5609 37.7051 39.9785 38.0195C41.375 39.0714 42.9116 39.7867 44.6829 39.8578C47.0401 39.9523 49.0634 38.5518 49.8921 36.2972C50.5665 34.4616 50.5383 32.5992 50.0885 30.7233C50.0664 30.6321 50.0436 30.541 50.0268 30.4484C50.0188 30.4055 50.0248 30.3506 50.0597 30.3599C50.7549 30.5631 51.3777 30.9137 51.967 31.32C53.0538 32.0688 53.8945 33.0483 54.5951 34.1599C54.7104 34.3436 54.6373 34.4683 54.5703 34.6144C53.995 35.8695 53.4855 37.148 53.098 38.4761C52.315 41.1604 52.4336 43.8361 53.1349 46.5124C53.684 48.6075 54.5347 50.5892 55.4036 52.565C55.4512 52.6722 55.4928 52.7822 55.537 52.8908C55.5672 52.9679 55.4787 53.0021 55.4425 52.9411Z" fill="white"/>
<path d="M59.4696 28.3192C59.5112 28.2019 59.6774 28.2006 59.7197 28.3172C60.6341 30.8373 61.8791 33.1033 62.9136 35.4626C63.596 37.0179 64.237 38.5894 64.4743 40.2896C64.4743 40.2903 64.4743 40.2903 64.4743 40.2909C64.4884 40.3942 64.3831 40.4713 64.2872 40.429C61.1651 39.0507 58.0644 39.0513 54.9463 40.4451C54.8511 40.488 54.7465 40.4076 54.7606 40.3037C54.9322 39.0466 55.3103 37.9264 55.7421 36.8208C56.5533 34.7439 57.5864 32.7675 58.4941 30.7341C58.8401 29.9631 59.1625 29.1814 59.4696 28.3192Z" fill="white"/>
<path d="M59.7983 57.0963C59.7414 57.2344 59.5449 57.2324 59.4906 57.0936C59.3639 56.7698 59.2412 56.4527 59.1065 56.1409C58.2101 54.066 57.3004 51.9964 56.412 49.9174C56.1439 49.2905 55.9387 48.6369 55.6853 48.0027C55.5955 47.7767 55.6364 47.6829 55.8656 47.595C58.375 46.6397 60.8817 46.6343 63.3945 47.583C63.6318 47.6728 63.6446 47.7714 63.5695 47.9933C62.8005 50.2613 61.7701 52.4201 60.8288 54.617C60.4761 55.4403 60.1429 56.271 59.7983 57.0963Z" fill="white"/>
<path d="M37.3605 42.7784C37.3867 42.8447 37.3351 42.9158 37.264 42.9111C35.5873 42.7985 33.9615 42.6322 32.3525 42.3111C32.1359 42.2682 32.142 42.1307 32.1178 41.9846C31.7377 39.6395 31.8041 37.3057 32.3123 34.9874C32.9223 32.2051 34.0781 29.681 36.0143 27.5678C38.9722 24.3398 42.7011 22.95 47.028 23.1766C50.9848 23.3837 54.4744 24.8513 57.555 27.3231C57.7072 27.4452 57.7407 27.5457 57.677 27.7361C57.1561 29.2841 56.4783 30.7637 55.7643 32.2279C55.7643 32.2286 55.7636 32.2286 55.7636 32.2293C55.7334 32.291 55.6463 32.2943 55.6034 32.24C52.0039 27.6651 46.0485 26.4342 41.3743 29.3606C37.1038 32.0355 35.2386 37.3929 37.3605 42.7784Z" fill="white"/>
<path d="M63.7498 52.852C64.4282 51.306 65.104 49.7969 65.6504 48.1973C66.6352 45.3145 67.1186 42.3901 66.4086 39.3604C66.0191 37.6971 65.3702 36.131 64.6588 34.5864C64.6025 34.465 64.565 34.3712 64.6535 34.2317C65.6739 32.6214 66.9617 31.3127 68.7431 30.5498C68.8818 30.4901 69.0233 30.4365 69.1983 30.3681C69.2345 30.354 69.2713 30.3868 69.2613 30.4244C69.1198 30.9701 69.0032 31.479 68.9395 31.9979C68.727 33.7329 68.8758 35.4217 69.6997 36.9912C70.7966 39.0795 73.021 40.1321 75.3883 39.7218C77.3151 39.3879 78.914 38.4326 80.3139 37.1051C80.3822 37.0408 80.45 36.9751 80.521 36.9141C80.5545 36.8859 80.6048 36.8631 80.6142 36.898C80.7858 37.6019 80.7939 38.3159 80.7362 39.0299C80.631 40.3453 80.2032 41.5634 79.5911 42.726C79.4899 42.9177 79.3451 42.9164 79.1849 42.9318C77.8105 43.0605 76.4482 43.2589 75.1047 43.5874C72.3888 44.2518 70.1302 45.6926 68.1638 47.6375C66.6238 49.1607 65.3326 50.8883 64.0568 52.6281C63.9871 52.7226 63.9133 52.8138 63.8409 52.9063C63.7886 52.9733 63.7156 52.9137 63.7498 52.852Z" fill="white"/>
<path d="M87.0865 44.0288C87.2092 44.006 87.293 44.1495 87.2132 44.2447C85.4875 46.2968 84.148 48.5079 82.6222 50.5835C81.6165 51.9525 80.576 53.2933 79.2218 54.3493C79.2211 54.3493 79.2211 54.3499 79.2204 54.3499C79.138 54.4136 79.0186 54.3607 79.0072 54.2574C78.6398 50.8644 77.0892 48.1794 74.3223 46.1761C74.2379 46.1151 74.2553 45.9844 74.3518 45.9448C75.5264 45.4648 76.6856 45.2322 77.8588 45.0532C80.0632 44.7166 82.2916 44.6234 84.506 44.3928C85.3481 44.3057 86.1868 44.1944 87.0865 44.0288Z" fill="white"/>
<path d="M62.3291 58.7019C62.1809 58.7213 62.0844 58.5504 62.1776 58.4337C62.3948 58.1622 62.608 57.8974 62.8105 57.6245C64.1593 55.8103 65.4968 53.9881 66.8524 52.1793C67.2614 51.6336 67.7246 51.1288 68.147 50.5925C68.2972 50.4014 68.3998 50.39 68.5902 50.5449C70.6725 52.241 71.9302 54.4085 72.3646 57.0593C72.4055 57.3094 72.3264 57.3698 72.0965 57.416C69.748 57.884 67.3626 58.071 64.99 58.3546C64.1024 58.4605 63.2161 58.5872 62.3291 58.7019Z" fill="white"/>
<path d="M63.5096 32.1112C63.4653 32.1668 63.3782 32.1581 63.3467 32.0937C62.6059 30.5853 61.9368 29.0943 61.4105 27.5402C61.3394 27.3311 61.4614 27.2674 61.5761 27.1742C63.4164 25.6724 65.4712 24.5629 67.7332 23.8442C70.4478 22.9814 73.2113 22.7206 76.0096 23.3407C80.2842 24.288 83.3521 26.8229 85.3191 30.6832C87.1178 34.2129 87.5918 37.9693 86.9911 41.8732C86.9616 42.0663 86.8912 42.1454 86.6941 42.1849C85.0931 42.5081 83.4727 42.6603 81.8476 42.7742C81.847 42.7742 81.847 42.7742 81.8463 42.7742C81.7779 42.7789 81.731 42.7052 81.7571 42.6415C83.9192 37.2366 82.0072 31.4636 77.1366 28.8791C72.6856 26.5172 67.1131 27.5805 63.5096 32.1112Z" fill="white"/>
<path d="M68.0115 60.0418C69.6896 59.8561 71.3341 59.6872 72.9927 59.3607C75.9815 58.772 78.7563 57.7282 81.0251 55.5989C82.2707 54.4297 83.3025 53.0849 84.2846 51.6964C84.3617 51.5871 84.4241 51.5074 84.589 51.5141C86.4937 51.5925 88.271 52.0538 89.8223 53.2149C89.943 53.3054 90.0603 53.4013 90.2071 53.518C90.2373 53.5421 90.2273 53.591 90.1897 53.6011C89.6467 53.7513 89.1472 53.9048 88.6658 54.1093C87.0568 54.7931 85.6691 55.7659 84.7218 57.2643C83.4614 59.2581 83.6625 61.7112 85.2011 63.5562C86.4535 65.0579 88.0806 65.965 89.9303 66.5134C90.0201 66.5402 90.1106 66.5657 90.1991 66.5972C90.2407 66.612 90.2849 66.6441 90.2594 66.6696C89.7358 67.1697 89.1211 67.5345 88.4741 67.8415C87.2821 68.408 86.0137 68.6467 84.701 68.6976C84.4844 68.7064 84.4127 68.5803 84.3195 68.4489C83.5204 67.3233 82.6676 66.2426 81.7116 65.243C79.7781 63.223 77.4014 61.9874 74.7338 61.2566C72.6448 60.6841 70.5035 60.43 68.3581 60.1954C68.2415 60.1826 68.1255 60.1638 68.0088 60.1478C67.9257 60.1364 67.9404 60.0432 68.0115 60.0418Z" fill="white"/>
<path d="M87.3205 75.8401C87.4009 75.9346 87.3198 76.0794 87.1971 76.0579C84.557 75.59 81.9725 75.535 79.4122 75.2514C77.724 75.0644 76.0426 74.8344 74.451 74.1895C74.4504 74.1895 74.4504 74.1888 74.4497 74.1888C74.3532 74.1493 74.3391 74.0192 74.4236 73.9582C77.1783 71.9436 78.7277 69.2579 79.0796 65.8602C79.0904 65.7562 79.2117 65.706 79.2948 65.7703C80.2978 66.548 81.0788 67.435 81.8203 68.3615C83.2135 70.1026 84.4088 71.9858 85.7161 73.7886C86.2123 74.4731 86.7278 75.1435 87.3205 75.8401Z" fill="white"/>
<path d="M62.2346 61.7362C62.1434 61.6175 62.2433 61.4486 62.3908 61.4707C62.7341 61.523 63.0706 61.5753 63.4078 61.6142C65.6531 61.875 67.9003 62.1224 70.1449 62.3919C70.822 62.473 71.4904 62.6225 72.1662 62.7197C72.4069 62.7546 72.4679 62.8377 72.429 63.0797C72.0013 65.7306 70.753 67.9041 68.6747 69.6056C68.4782 69.7665 68.3864 69.7276 68.2322 69.552C66.6527 67.7519 65.2984 65.7802 63.8664 63.8668C63.3301 63.1515 62.7777 62.4475 62.2346 61.7362Z" fill="white"/>
<path d="M85.8534 49.4635C85.783 49.4528 85.7468 49.373 85.7863 49.314C86.7223 47.9182 87.6796 46.5934 88.7617 45.3605C88.9072 45.1949 89.0231 45.268 89.1619 45.321C91.383 46.1643 93.3708 47.3885 95.1246 48.9882C97.2291 50.9076 98.8368 53.1702 99.6989 55.9036C101.016 60.0789 100.355 64.0036 97.9947 67.6366C95.8373 70.9592 92.8211 73.248 89.1398 74.6801C88.9581 74.7504 88.8542 74.7297 88.7214 74.5788C87.6414 73.354 86.6988 72.0272 85.7877 70.6763C85.7877 70.6756 85.787 70.6756 85.787 70.675C85.7488 70.618 85.7897 70.5409 85.8574 70.5308C91.619 69.7008 95.663 65.1587 95.4659 59.6479C95.2855 54.613 91.5788 50.3189 85.8534 49.4635Z" fill="white"/>
<path d="M51.3555 60.1709C49.6775 60.3566 48.0329 60.5255 46.3743 60.852C43.3856 61.4407 40.6107 62.4845 38.342 64.6138C37.0963 65.783 36.0646 67.1279 35.0824 68.5163C35.0053 68.6256 34.9429 68.7054 34.778 68.6987C32.8734 68.6202 31.0961 68.159 29.5447 66.9978C29.424 66.9073 29.3067 66.8114 29.1599 66.6948C29.1297 66.6706 29.1398 66.6217 29.1773 66.6116C29.7204 66.4615 30.2198 66.3079 30.7012 66.1034C32.3102 65.4196 33.698 64.4468 34.6453 62.9484C35.9057 60.9546 35.7045 58.5015 34.1659 56.6565C32.9136 55.1548 31.2865 54.2477 29.4368 53.6993C29.3469 53.6725 29.2564 53.647 29.1679 53.6155C29.1264 53.6008 29.0821 53.5686 29.1076 53.5431C29.6312 53.043 30.246 52.6783 30.8929 52.3712C32.0849 51.8047 33.3534 51.566 34.6661 51.5151C34.8826 51.5064 34.9543 51.6324 35.0475 51.7638C35.8467 52.8894 36.6995 53.9702 37.6555 54.9698C39.589 56.9897 41.9656 58.2253 44.6332 58.9561C46.7223 59.5286 48.8636 59.7827 51.0089 60.0174C51.1256 60.0301 51.2416 60.0489 51.3582 60.065C51.4414 60.0764 51.4266 60.1695 51.3555 60.1709Z" fill="white"/>
<path d="M32.0469 44.3724C31.9664 44.2778 32.0475 44.133 32.1702 44.1545C34.8103 44.6224 37.3948 44.6774 39.9552 44.961C41.6433 45.148 43.3247 45.378 44.9163 46.0229C44.9169 46.0229 44.9169 46.0236 44.9176 46.0236C45.0142 46.0632 45.0282 46.1932 44.9438 46.2542C42.189 48.2689 40.639 50.9546 40.2877 54.3523C40.277 54.4562 40.1556 54.5065 40.0725 54.4421C39.0695 53.6644 38.2885 52.7774 37.547 51.8509C36.1539 50.1098 34.9585 48.2266 33.6512 46.4239C33.1551 45.7394 32.6395 45.0689 32.0469 44.3724Z" fill="white"/>
<path d="M57.1327 58.476C57.2239 58.5947 57.124 58.7637 56.9765 58.7415C56.6333 58.6892 56.2967 58.6369 55.9595 58.5981C53.7143 58.3373 51.467 58.0899 49.2224 57.8204C48.5453 57.7393 47.8769 57.5897 47.2011 57.4925C46.9604 57.4577 46.8994 57.3745 46.9383 57.1325C47.366 54.4817 48.6144 52.3082 50.6927 50.6066C50.8891 50.4457 50.981 50.4846 51.1352 50.6603C52.7147 52.4604 54.0689 54.4321 55.5009 56.3454C56.0373 57.0608 56.5897 57.7654 57.1327 58.476Z" fill="white"/>
<path d="M33.5137 70.749C33.5841 70.7597 33.6203 70.8395 33.5807 70.8985C32.6448 72.2943 31.6874 73.6191 30.6054 74.852C30.4599 75.0176 30.3439 74.9445 30.2051 74.8915C27.984 74.0481 25.9962 72.8239 24.2424 71.2243C22.138 69.3049 20.5303 67.0422 19.6681 64.3089C18.3514 60.1335 19.0125 56.2089 21.3723 52.5759C23.5298 49.2533 26.546 46.9644 30.2273 45.5324C30.409 45.462 30.5129 45.4828 30.6456 45.6336C31.7257 46.8585 32.6683 48.1853 33.5794 49.5362C33.5794 49.5368 33.58 49.5368 33.58 49.5375C33.6183 49.5945 33.5774 49.6716 33.5097 49.6817C27.748 50.5116 23.7041 55.0537 23.9012 60.5646C24.0815 65.5995 27.7883 69.8935 33.5137 70.749Z" fill="white"/>
</svg>
