<svg width="120" height="120" viewBox="0 0 120 120" fill="none" xmlns="http://www.w3.org/2000/svg">
<circle cx="60" cy="60" r="60" fill="#7967EF"/>
<path d="M71.9482 41C80.2227 41 86.866 47.9868 86.998 56.5674L87 56.8271V74.9824C87 76.6964 85.6105 78.0859 83.8965 78.0859C82.2116 78.0859 80.8399 76.7431 80.7939 75.0693L80.793 74.9824V56.8271C80.7928 51.4719 76.7878 47.207 71.9482 47.207C67.157 47.2071 63.1836 51.3871 63.1045 56.667L63.1035 56.8271V74.9824C63.1035 76.6964 61.714 78.0859 60 78.0859C58.3151 78.0859 56.9435 76.7432 56.8975 75.0693L56.8965 74.9824V56.8271C56.8963 51.4719 52.8913 47.2071 48.0518 47.207C43.2605 47.207 39.2871 51.3871 39.208 56.667L39.207 56.8271V74.9824C39.207 76.6964 37.8175 78.0859 36.1035 78.0859C34.4186 78.0859 33.047 76.7432 33.001 75.0693L33 74.9824V56.8271C33.0002 48.1281 39.6939 41 48.0518 41C52.9385 41 57.2554 43.4374 59.999 47.2002C62.7426 43.4369 67.0611 41 71.9482 41Z" fill="white"/>
</svg>
