<svg width="120" height="120" viewBox="0 0 120 120" fill="none" xmlns="http://www.w3.org/2000/svg">
<circle cx="60" cy="60" r="60" fill="#DEC799"/>
<path fill-rule="evenodd" clip-rule="evenodd" d="M87.7572 49.877L82.4119 26L71.92 42.4317C63.7634 40.4772 55.2553 40.4772 47.0988 42.4317L36.6369 26L31.2728 49.877C25.5148 54.4484 22 60.4232 22 66.9825C22 81.3519 38.79 93 59.5 93C80.21 93 97 81.3482 97 66.9825C96.9962 60.4232 93.5115 54.4484 87.7535 49.877H87.7572ZM38.6625 60.8066H36.1642L42.2673 53.823H46.7087L38.6625 60.8066ZM48.9326 59.7346L59.3082 77.8713L70.0927 59.7607L67.557 58.2642L65.1412 62.3218H53.8091L51.4946 58.2828L48.9326 59.7346ZM80.3634 60.8064L72.3135 53.8228H76.7848L82.8804 60.8064H80.3634ZM55.4825 65.2552L59.3575 72.0304L63.3899 65.2552H55.4825Z" fill="white"/>
</svg>
