<svg width="120" height="120" viewBox="0 0 120 120" fill="none" xmlns="http://www.w3.org/2000/svg">
<path d="M118.204 74.5158C110.188 106.657 77.6408 126.219 45.4843 118.204C13.3434 110.188 -6.20368 77.6252 1.81202 45.4842C9.81209 13.3433 42.3749 -6.21936 74.5002 1.79634C106.657 9.81204 126.219 42.3748 118.204 74.5158Z" fill="#0007BC"/>
<path fill-rule="evenodd" clip-rule="evenodd" d="M96.0316 63.6562L95.2816 62.4531L83.219 43.3435C82.2659 41.8591 81.0159 40.5935 79.5471 39.6247C76.8127 37.8903 73.4689 37.3434 70.3283 38.1247C67.2189 38.8747 64.5626 40.8591 62.9532 43.6248C62.1407 44.9685 61.1251 46.6404 60.0938 48.281L56.8125 43.2185L56.6875 43.0466V42.9997C55.5781 41.5154 54.1875 40.2653 52.5937 39.3278C50.2031 38.031 47.4374 37.5934 44.7343 38.0622C42.1405 38.5778 39.7655 39.8903 37.9374 41.8279C37.4217 42.406 36.9686 43.031 36.5936 43.7029L27.6873 57.828L23.9529 63.7187C22.2497 66.4375 21.656 69.7187 22.3122 72.8594C22.9216 76.0001 24.8122 78.7501 27.5154 80.4688C29.3592 81.6251 31.4842 82.2345 33.6561 82.2189C37.9217 82.2032 41.8749 80.0313 44.1405 76.4219L46.9843 71.9219L49.7343 76.2032C50.4687 77.2657 51.3437 78.2501 52.2969 79.1095C52.5625 79.3438 52.8281 79.5782 53.1094 79.7813H53.1406C53.3281 79.922 53.5156 80.047 53.7344 80.1876C55.5781 81.3751 57.7344 82.0157 59.9376 82.0157C62.2657 82.0001 64.547 81.3282 66.4845 80.047L66.7189 79.8907L66.9376 79.7501C68.0001 79.0001 68.9533 78.0782 69.7345 77.0313L72.9689 72L75.7346 76.3751C78.0315 79.9688 81.9846 82.1407 86.2503 82.1407C88.4066 82.1564 90.5316 81.547 92.3754 80.4063C97.9223 76.9376 99.5785 69.2812 96.0316 63.6562ZM38.328 44.7341C38.6561 44.1716 39.0311 43.656 39.453 43.1716C40.953 41.5622 42.9374 40.4529 45.0937 39.9841C47.3437 39.5778 49.6406 39.9528 51.6406 41.031C53 41.8435 54.1875 42.9216 55.125 44.1873L55.2031 44.2966L58.9844 50.1092C58.2836 51.1573 57.6271 52.1315 57.0902 52.9284L57.0872 52.9327L57.0871 52.9329C56.2729 54.1412 55.7344 54.9404 55.7344 54.9686C54.3438 57.0936 52.2187 58.6405 49.7656 59.2811H49.6406C47.0781 60.0312 44.3437 59.7343 41.9843 58.4686L41.6093 58.2499L41.2811 58.0311L40.9686 57.8124L40.703 57.5936L40.453 57.3905L40.2499 57.2186L40.1093 57.0936L40.0311 57.0155L39.8124 56.7655L39.5467 56.5311L39.4686 56.453L39.3436 56.328L39.2655 56.2499L39.1874 56.1717L38.828 55.8749L38.7499 55.8124L38.6405 55.7342L38.453 55.5936L38.3592 55.5311H38.3124L38.0467 55.3592L37.953 55.3124H37.8749L37.6249 55.1717L37.4999 55.0936L37.1717 54.9374L37.0155 54.828L36.8436 54.7499L36.5311 54.6249H36.5155L36.1248 54.4999L35.9686 54.4686L35.6561 54.3905H35.4998L35.203 54.2811H35.0311H34.9061H34.7498H34.5311H34.0467H33.8904H33.3436H33.2654L32.7342 54.3592H32.6873L32.1248 54.4842L38.328 44.7341ZM36.2342 79.9376C38.8436 79.2813 41.1093 77.6563 42.5624 75.375L45.9687 70.125L38.2499 57.7186L38.1561 57.6093L38.0936 57.5311L38.0467 57.4843L37.8749 57.3124H37.8436L37.5624 57.0624H37.5155L37.3905 56.9843L37.2811 56.9061H37.2342H37.1717L36.9842 56.7811L36.8592 56.703H36.7967L36.6717 56.6249L36.5467 56.5624H36.4686L36.328 56.4842L36.2342 56.453L35.9061 56.328H35.8123L35.6092 56.2499H35.5155H35.453L35.2811 56.2186H35.1873H34.9686H34.8436H34.5936H34.4686H34.0936C32.6873 56.2186 31.3279 56.7655 30.3123 57.7343C29.9685 58.078 29.6717 58.4374 29.406 58.8436L25.6872 64.7343C22.7185 69.4844 24.0779 75.9063 28.656 78.7813C30.906 80.2032 33.6561 80.6095 36.2342 79.9376ZM68.2189 75.8438C67.547 76.7501 66.7657 77.5469 65.8282 78.2032L65.6564 78.3282L65.4376 78.4688C62.2501 80.6095 58.0938 80.6563 54.8438 78.6095L54.3438 78.2657H54.2813C54.2336 78.2282 54.1851 78.1908 54.1363 78.153C53.961 78.0174 53.7804 77.8777 53.6094 77.7188C52.7812 76.9688 52.0312 76.1251 51.3906 75.2032L47.8437 69.6094L42.3749 60.9062L42.5624 60.9843L43.078 61.1562L43.3749 61.2499L43.8905 61.3749L44.2343 61.4687L44.7812 61.5624L45.078 61.6093L45.7968 61.6874H45.8906H46.7031H47.0312H47.6406H47.9531L48.5468 61.6093H48.8125C49.0937 61.5624 49.375 61.5155 49.625 61.4374C50.5937 61.1874 51.5312 60.828 52.4219 60.3593H52.5156C52.6406 60.2968 52.7578 60.2343 52.875 60.1718C52.9922 60.1093 53.1094 60.0468 53.2344 59.9843C54.8906 59.0311 56.2969 57.703 57.3282 56.0936C57.3282 56.0936 59.0157 53.5467 60.8594 50.6717C62.172 48.6248 63.5782 46.3904 64.5782 44.6716C65.9064 42.3747 68.1408 40.7029 70.7189 40.0935C73.3596 39.4528 76.1252 39.8903 78.4221 41.3435C79.6409 42.156 80.6878 43.2341 81.5003 44.4685L90.7816 59.1874C90.516 59.0624 90.2503 58.9686 89.9691 58.8749L89.8285 58.828C89.6117 58.7515 89.3845 58.6854 89.1639 58.6212L89.016 58.578H88.9378C88.692 58.5057 88.4329 58.4602 88.1851 58.4167L88.1253 58.4061H88.0003C87.7944 58.3698 87.5697 58.3429 87.3627 58.318C87.3026 58.3108 87.244 58.3038 87.1878 58.2968H87.0316C86.7503 58.2968 86.4691 58.2968 86.2191 58.2655H86.1878H85.3753H85.2034C84.9378 58.2655 84.6565 58.2968 84.3909 58.3593H84.219C83.9378 58.4061 83.6565 58.453 83.3596 58.5311C82.969 58.6249 82.594 58.7343 82.2034 58.8593C79.6096 59.7499 77.3908 61.5155 75.969 63.8593L72.5939 69.1562L68.2189 75.8438ZM77.4846 75.2969C80.4534 80.0313 86.8284 81.5939 91.4066 78.7188C95.9848 75.8438 97.3285 69.4219 94.3285 64.6249L93.6254 63.4999L93.5472 63.4218C93.5004 63.3697 93.4535 63.3159 93.4066 63.2621C93.3129 63.1545 93.2191 63.0468 93.1254 62.9531L93.0472 62.8749C92.7191 62.5468 92.3441 62.2343 91.9535 61.953L91.8285 61.8749C91.766 61.8333 91.7121 61.7968 91.6583 61.7603C91.5507 61.6874 91.443 61.6145 91.266 61.4999C91.0003 61.328 90.7191 61.1874 90.4535 61.0624H90.3753L90.0941 60.9374L89.9222 60.8593L89.7191 60.7812L89.4535 60.6718H89.3441L88.9691 60.5468C84.8284 59.2811 80.3127 60.8437 77.844 64.4218L77.5783 64.8437L74.2033 70.1406L77.4846 75.2969Z" fill="white"/>
</svg>
