<svg width="120" height="120" viewBox="0 0 120 120" fill="none" xmlns="http://www.w3.org/2000/svg">
<path d="M60 120C93.138 120 120 93.138 120 60C120 26.862 93.138 0 60 0C26.862 0 0 26.862 0 60C0 93.138 26.862 120 60 120Z" fill="#EDF0F4"/>
<circle cx="60.741" cy="60.1301" r="37.741" fill="#09006E"/>
<path d="M60.8504 69.0979C57.923 67.4077 56.92 63.6644 58.6101 60.737L83.688 17.3007C85.3782 14.3733 89.1215 13.3703 92.049 15.0604C94.9765 16.7506 95.9795 20.4939 94.2893 23.4214L69.2114 66.8576C67.5212 69.7851 63.7779 70.7881 60.8504 69.0979Z" fill="url(#paint0_linear_107_21970)"/>
<path d="M72.8427 80.4989L72.7219 61.3888L63.6169 76.7248H57.3859L48.2809 62.0474V80.4989H35.3999V38.5649H47.0222L60.6807 60.9095L73.9806 38.5649H85.6029L85.7218 80.4989H72.8427Z" fill="#00FFD9"/>
<path d="M60.0239 58.2865L77.7773 27.539C78.5882 26.1327 79.9247 25.1063 81.4926 24.6859C83.0605 24.2654 84.7312 24.4853 86.1369 25.2972C87.5428 26.1084 88.5689 27.4449 88.9893 29.0126C89.4097 30.5804 89.1901 32.251 88.3787 33.6568L70.6254 64.4062C68.9354 67.3341 65.1919 68.3378 62.2639 66.648C59.3376 64.9567 58.335 61.2142 60.0239 58.2865Z" fill="url(#paint1_linear_107_21970)"/>
<defs>
<linearGradient id="paint0_linear_107_21970" x1="82.5903" y1="36.671" x2="93.7936" y2="17.2663" gradientUnits="userSpaceOnUse">
<stop stop-color="#00FFD9"/>
<stop offset="0.85" stop-color="#09006E"/>
</linearGradient>
<linearGradient id="paint1_linear_107_21970" x1="76.9298" y1="84.0297" x2="110.995" y2="55.3092" gradientUnits="userSpaceOnUse">
<stop offset="0.08" stop-color="#00FFD9"/>
<stop offset="0.68" stop-color="#064E8F"/>
<stop offset="1" stop-color="#09006E"/>
</linearGradient>
</defs>
</svg>
