<svg width="120" height="120" viewBox="0 0 120 120" fill="none" xmlns="http://www.w3.org/2000/svg">
<circle cx="60" cy="60" r="60" fill="#E7EFF3"/>
<path d="M74.276 85.2193C70.616 83.4625 67.7246 80.7053 66.7364 79.5464C66.407 80.4857 65.5652 82.6866 64.8332 83.9749C63.9182 85.5853 62.2713 87.7447 60.7707 89.0623C59.2701 90.3799 54.4389 94.9182 49.1686 94.0398C43.8982 93.1615 40.165 90.4897 38.4082 87.1957C36.6515 83.9017 36.4319 80.6077 37.2736 77.204C37.9471 74.481 39.6038 71.409 40.348 70.2134C39.5062 70.4086 37.054 70.5209 33.9797 69.4082C30.1367 68.0174 27.8309 65.9313 26.5133 63.2595C25.1957 60.5877 24.7199 55.8663 25.1591 51.5476C25.5983 47.2288 28.2335 42.0682 34.3091 42.5074C39.1695 42.8588 44.2886 45.6306 46.2406 46.9726C45.6672 43.276 44.8644 34.8874 46.2406 30.9053C47.9608 25.9278 52.1697 24.8664 57.3303 25.0128C62.4909 25.1592 65.4188 27.7943 67.322 30.8687C68.8446 33.3282 69.0544 38.5547 68.969 40.8604C70.3598 39.494 74.2687 36.6881 78.7777 36.3953C84.4141 36.0293 87.1225 37.0175 89.3917 38.7377C91.6608 40.4578 94.2228 43.7152 94.8084 47.0824C95.394 50.4496 94.5888 52.5724 93.0516 55.2441C91.8219 57.3816 88.7329 59.6239 87.3421 60.4779C88.1839 61.1367 90.2115 62.8496 91.5876 64.4307C93.3078 66.4071 94.9182 69.9572 94.9548 74.3126C94.9914 78.668 93.6738 80.6443 92.5392 82.5475C91.4046 84.4507 89.0623 87.3787 85.1095 87.7081C81.1567 88.0375 78.8509 87.4153 74.276 85.2193Z" fill="#DC8898"/>
<path d="M49.2784 82.1815C47.3166 84.4361 45.3378 84.8533 44.5936 84.7801C44.8986 84.5727 45.6843 84.0408 46.387 83.5723C47.2654 82.9867 50.3763 78.9608 51.4377 77.3504C52.2869 76.0621 55.0367 71.5432 56.3055 69.4448L57.0375 69.8474C55.2685 73.0194 51.2401 79.927 49.2784 82.1815Z" fill="#C57180"/>
<path d="M41.7388 55.6834C44.4618 56.2983 48.949 58.4284 50.8521 59.4166L50.2299 60.661C49.498 60.295 47.7997 59.4312 46.8628 58.9042C45.6916 58.2454 41.263 56.635 38.152 56.4154C35.0411 56.1958 34.0895 56.6716 32.8085 57.1474C31.5275 57.6232 30.3563 58.7944 30.6125 57.9526C30.8687 57.1108 31.5641 56.2324 33.7235 55.5004C35.8829 54.7684 38.335 54.9148 41.7388 55.6834Z" fill="#C57180"/>
<path d="M58.2087 41.519C58.4722 43.6857 58.7577 49.0586 58.8675 51.4741H57.9891C57.9769 50.9495 57.9598 49.6295 57.9891 48.5462C58.0257 47.192 57.3303 41.9582 56.8911 39.0668C56.5397 36.7537 55.3783 32.4667 54.8415 30.6123C55.3783 31.4053 56.5397 33.306 56.8911 34.5651C57.3303 36.1389 57.8793 38.8106 58.2087 41.519Z" fill="#C57180"/>
<path d="M73.6172 50.0102C71.2748 51.6791 68.5664 55.2683 67.505 56.8543L66.8462 55.8295C67.4928 54.9511 69.1008 52.8503 70.3598 51.4742C71.9336 49.754 74.5322 47.741 78.5947 45.8378C81.8448 44.3152 85.7561 44.8862 87.3055 45.362C86.7565 45.3254 85.4828 45.2742 84.7801 45.362C83.9017 45.4718 82.8403 45.545 80.6809 46.0574C78.5215 46.5698 76.5452 47.924 73.6172 50.0102Z" fill="#C57180"/>
<path d="M76.472 70.7256C74.071 69.1152 67.7124 66.8095 64.8332 65.8579L65.4554 64.9429C66.3338 65.2357 68.3981 65.9384 69.6278 66.4069C71.165 66.9925 74.093 68.6028 75.191 69.1884C76.289 69.774 80.0221 72.1164 81.1201 72.8118C82.2181 73.5072 86.0977 76.362 86.8663 77.0208C87.6349 77.6796 87.6715 78.6678 87.4519 78.924C87.2323 79.1802 86.5003 78.192 85.5487 77.2038C84.5971 76.2156 79.4731 72.7386 76.472 70.7256Z" fill="#C57180"/>
<ellipse cx="59.1603" cy="60.1119" rx="9.84533" ry="9.95513" fill="#FBECB3"/>
</svg>
