<svg width="120" height="120" viewBox="0 0 120 120" fill="none" xmlns="http://www.w3.org/2000/svg">
<path fill-rule="evenodd" clip-rule="evenodd" d="M60 120C27 120 0 93.0006 0 59.7012C0.3 26.7019 27 -0.297518 60.3 0.00247602C93.3 0.30247 120 27.0019 120 60.6012C119.7 93.3006 93 120 60 120Z" fill="#EDF0F4"/>
<path d="M104.976 59.0925C104.985 59.3978 104.988 59.6978 104.988 60.0013C105 67.2048 103.273 74.3048 99.9545 80.6986L75.4216 90.599L75.4713 90.4872L104.976 59.0925Z" fill="#0F6089"/>
<path d="M104.976 59.0817L75.4767 90.487L102.88 46.3521C104.189 50.4718 104.895 54.7595 104.976 59.0817Z" fill="#078FA4"/>
<path d="M102.88 46.3522L75.4767 90.4872L75.4021 90.6062L72.1167 33.4912L99.6669 43.7999L102.88 46.3522Z" fill="#00AAA6"/>
<path d="M102.88 46.3521L99.6669 43.7998L102.354 44.8026C102.542 45.3156 102.72 45.8339 102.88 46.3521Z" fill="#00AAA6"/>
<path fill-rule="evenodd" clip-rule="evenodd" d="M75.8015 17.8594H75.7979L74.4135 23.7397L99.6669 43.7997L102.354 44.8026C97.8832 32.3619 88.1755 22.5115 75.8015 17.8594Z" fill="#1EAAE2"/>
<path d="M75.4216 90.599L99.9509 80.6914C93.7394 92.6731 82.4816 101.237 69.2769 104.026L75.1643 91.1687L75.4216 90.599Z" fill="#0C7392"/>
<path d="M99.6669 43.7998L72.1167 33.4911L74.4135 23.7397L99.6669 43.7998Z" fill="#1EAAE2"/>
<path d="M75.7979 17.8594L74.4117 23.7397L63.5847 15.1438C67.7636 15.4679 71.8755 16.3821 75.7979 17.8594Z" fill="#ABCF3A"/>
<path d="M75.4021 90.606L75.4767 90.487L75.427 90.5989L75.4021 90.606Z" fill="#CD1685"/>
<path d="M75.427 90.599L75.1643 91.1688L43.3525 67.9618L43.7643 67.5962L72.1167 33.4912L75.4021 90.6062L75.427 90.599Z" fill="#8F9990"/>
<path d="M75.1643 91.1687L69.2769 104.026C66.2263 104.669 63.117 104.991 59.9994 104.988C58.757 104.988 57.5412 104.939 56.3342 104.841L28.3456 80.5068L29.1603 80.6843L75.1643 91.1687Z" fill="#CD1685"/>
<path d="M75.1643 91.1687L29.1603 80.6913L43.3525 67.9617L75.1643 91.1687Z" fill="#EC1076"/>
<path d="M74.4135 23.7397L72.1167 33.4911L63.5847 15.1438L74.4135 23.7397Z" fill="#ABCF3A"/>
<path d="M63.5847 15.1438L72.115 33.4911L40.7842 19.2918C46.7902 16.4549 53.3518 14.989 59.9941 15.0001C61.2028 15.0001 62.3973 15.0498 63.5847 15.1438Z" fill="#E0E224"/>
<path d="M72.1167 33.4912L43.7643 67.5962L31.4357 52.3923L72.1167 33.4912V33.4912Z" fill="#F9A516"/>
<path d="M72.1167 33.491L31.4357 52.3921L40.7842 19.2988L72.1167 33.491Z" fill="#FDCD11"/>
<path d="M56.5011 104.988L56.1975 104.828L56.3289 104.841L56.5011 104.988Z" fill="#CD1685"/>
<path fill-rule="evenodd" clip-rule="evenodd" d="M56.3289 104.841L28.3456 80.5067L28.1486 80.3328L25.0673 88.3589C32.7677 97.8597 44.0107 103.808 56.1975 104.828L56.3289 104.841Z" fill="#B9204A"/>
<path d="M31.4357 52.3921L43.7643 67.596L43.3525 67.9616L21.537 67.5019L31.4357 52.3921V52.3921Z" fill="#F05B28"/>
<path d="M43.3525 67.9617L29.1603 80.6913L21.537 67.502L43.3525 67.9617Z" fill="#F05B28"/>
<path d="M40.7842 19.2971L31.4357 52.3922L21.537 67.502L21.5743 67.1843L15.0746 57.5323C15.978 40.6032 26.2423 26.1678 40.7842 19.2971Z" fill="#FDCD11"/>
<path fill-rule="evenodd" clip-rule="evenodd" d="M29.1603 80.6913L21.537 67.502L28.3456 80.5067L21.537 67.5055L20.0337 80.6913C21.4457 83.4122 23.1324 85.9814 25.0673 88.359L28.1486 80.3293L28.3456 80.5067L29.1603 80.6913Z" fill="#AB1F25"/>
<path d="M15.0657 57.5322L21.5743 67.1842L21.537 67.5019L20.0337 80.6877L15.0657 57.5322Z" fill="#CB0010"/>
<path d="M15.0746 57.5322L20.0443 80.6877C16.7226 74.2961 14.9922 67.1973 15 59.994C15 59.1687 15.0196 58.3505 15.0746 57.5322V57.5322Z" fill="#CB0010"/>
<path d="M85.2653 67.596L87.3135 58.9664C88.1585 56.6293 88.5792 54.1601 88.556 51.675C88.5557 50.0257 87.9318 48.4374 86.8095 47.2289L86.5042 46.9005C84.4062 44.6393 80.647 43.3507 77.5551 43.3507H76.4742C73.6735 43.3489 70.976 44.4073 68.9237 46.313L66.3696 48.6932L65.9329 47.6921C65.7055 47.165 65.3837 46.6838 64.9834 46.2722C62.8799 44.1386 60.0083 42.9385 57.0122 42.9407C54.8014 42.9403 52.6399 43.5943 50.8 44.8203L48.2832 46.6396V46.4621C48.2822 44.7415 46.8871 43.3471 45.1665 43.3471H17.8754L15.41 52.3921L38.01 52.8039L34.6891 70.6524C34.1247 73.0823 35.6636 75.4766 38.1484 75.7766C40.1353 76.0238 42.0105 74.8012 42.5857 72.8835L48.7678 53.7854C49.4351 51.5579 52.4418 50.1415 54.7492 50.4432C56.117 50.6216 57.3395 51.3863 58.0982 52.5383C58.8568 53.6903 59.0766 55.1154 58.7002 56.4424L55.445 70.6293C55.0131 72.1508 55.3199 73.7868 56.2737 75.0485C57.2274 76.3102 58.7177 77.0515 60.2994 77.051C62.4523 77.051 63.5475 75.6861 64.2485 73.6502L70.4519 55.2107C71.1725 53.1216 73.7284 51.8774 75.9009 52.2909C77.1377 52.5272 78.2164 53.2766 78.8694 54.3532C79.5224 55.4298 79.6885 56.7327 79.3264 57.9387L76.0357 70.0454C75.5338 71.6877 75.8404 73.4708 76.862 74.8512C77.8837 76.2316 79.4994 77.0458 81.2167 77.0456L102.466 76.6356L104.931 67.596H85.2653Z" fill="white"/>
</svg>
