<svg width="120" height="120" viewBox="0 0 120 120" fill="none" xmlns="http://www.w3.org/2000/svg">
<g clip-path="url(#clip0_107_17673)">
<circle cx="60" cy="60" r="60" fill="#EDF0F4"/>
<path d="M60.0211 99.8404L59.5627 99.6112C41.6926 89.1516 28.1754 71.8963 22.677 51.2802C21.8002 48.037 21.1494 44.7158 20.6914 41.3562C20.271 37.9865 20.0414 34.5958 20.0038 31.2002C20.0038 30.6274 19.9274 30.7038 20.4622 30.4366C29.6279 25.2178 39.7386 21.8705 50.2079 20.589C54.0977 20.1309 58.0143 19.9396 61.9303 20.0166C64.1451 20.0566 66.3215 20.2074 68.4979 20.4366C79.4579 21.62 89.7422 24.9031 99.3508 30.2858C99.5036 30.3622 99.618 30.4386 99.7708 30.515C99.9236 30.5914 100 30.7058 100 30.8966V31.4694C99.96 33.4546 99.8856 35.4014 99.7328 37.3866C99.5038 40.2053 99.1213 43.0095 98.5872 45.7866C97.4416 51.7802 95.6472 57.5447 93.1652 63.0799C89.2321 71.8983 83.8609 79.7497 77.0515 86.6339C72.1741 91.595 66.6666 95.8946 60.6703 99.4224C60.4411 99.5752 60.2503 99.6896 60.0211 99.8424V99.8404Z" fill="black"/>
<path d="M23.6697 33.1487C28.52 30.3372 33.6851 28.1076 39.0578 26.5063C46.389 24.3303 53.835 23.2995 61.4723 23.4523C65.0235 23.5287 70.9419 24.1011 71.9347 24.4831C71.9747 24.5595 71.8947 24.5975 71.8203 24.5975C71.4767 24.7503 71.0947 24.8647 70.7511 25.0175C64.4507 27.6515 59.9831 33.1871 58.6846 39.9056C58.4947 41.0031 58.3799 42.1124 58.341 43.2256C58.301 44.9056 58.1502 46.5856 57.6538 48.2256C55.9738 54.1428 51.1242 58.762 45.1294 60.136C37.2634 61.9328 29.3202 58.0404 25.8842 50.7476C25.6934 50.3276 25.5406 49.9076 25.4642 49.488C24.8987 47.0187 24.4653 44.521 24.1657 42.0056C23.8221 39.2188 23.6313 36.4319 23.6313 33.6455C23.6636 33.4821 23.6771 33.3156 23.6713 33.1491L23.6697 33.1487Z" fill="#F7A800"/>
<path d="M79.9918 78.8825C80.0682 78.1573 80.1446 77.5081 80.1826 76.8209C80.3734 73.0417 79.5718 69.4533 77.777 66.1321C76.057 62.9637 73.653 60.4441 70.5602 58.5353C70.293 58.3445 69.9874 58.1917 69.7202 58.0009C65.4801 55.3284 62.8849 51.5492 61.9685 46.6248C60.3285 37.7684 65.9013 29.2172 74.6458 27.1176C77.7386 26.3924 80.7554 26.4688 83.7718 27.4228C86.2518 28.1864 88.6214 29.2172 90.9886 30.324C92.6286 31.0876 94.1962 31.9272 95.7618 32.804C95.9526 32.9184 96.1054 32.9948 96.3346 33.1476C96.3346 33.3004 96.3746 33.4148 96.3746 33.5676C96.3746 35.5908 96.2602 37.6524 96.1074 39.6756C95.836 42.6514 95.3897 45.6086 94.771 48.532C92.8998 57.1597 89.5778 65.1381 84.7666 72.5441C83.4302 74.6057 81.979 76.5905 80.4518 78.4993C80.2974 78.6153 80.221 78.7681 79.9918 78.8825Z" fill="#67B2E8"/>
<path d="M60.0213 95.9464C59.4485 95.7172 57.6921 94.6484 55.8213 93.3888C51.6581 90.6 47.7937 87.389 44.2897 83.8068C40.7767 80.2283 37.6535 76.287 34.9724 72.0492C32.4589 68.1361 30.348 63.9787 28.672 59.6403C28.6232 59.5166 28.585 59.3889 28.5576 59.2587C28.7484 59.3731 28.8248 59.4115 28.9396 59.4879C30.276 60.5187 31.6888 61.3968 33.2164 62.0456C35.164 62.8856 37.1876 63.458 39.326 63.6488C43.6409 64.0688 47.6885 63.1908 51.5069 61.0528C53.4793 59.9459 55.6427 59.2207 57.8837 58.9151C65.8641 57.9227 73.8065 62.6564 76.2886 70.902C77.5486 75.1396 77.1686 79.262 75.2193 83.2708C74.9521 83.8052 74.7229 84.3016 74.4557 84.7976C74.3029 85.1032 74.1121 85.4084 73.8449 85.6376C69.7973 89.4552 65.3681 92.8144 60.5569 95.6376C60.3661 95.752 60.1749 95.8668 60.0225 95.9432L60.0213 95.9464Z" fill="#00C4B3"/>
</g>
<defs>
<clipPath id="clip0_107_17673">
<rect width="120" height="120" fill="white"/>
</clipPath>
</defs>
</svg>
