<svg width="120" height="120" viewBox="0 0 120 120" fill="none" xmlns="http://www.w3.org/2000/svg">
<circle cx="60" cy="60" r="60" fill="#EDF0F4"/>
<path d="M39.6732 52.1009C44.0387 51.3758 48.1311 51.6191 52.2048 52.6997C53.9079 53.1515 55.5975 53.7456 57.3598 54.4926L57.4991 54.5519L57.5952 54.5931L57.6913 54.6345L57.7874 54.6761L57.9315 54.739L58.0759 54.8025L58.2204 54.8666L58.3653 54.9313L58.5105 54.9967L58.6563 55.0628L58.7538 55.1074L58.9005 55.1748L58.9987 55.2202L59.1467 55.2889L59.2956 55.3586L59.4454 55.4292L59.5458 55.4768L59.6467 55.5248L59.799 55.5977L59.9526 55.6716L60.1075 55.7466L60.2115 55.7972L60.3688 55.874L60.5276 55.9521L60.6344 56.0048L60.796 56.0848L60.9047 56.1389L61.1246 56.2488L61.2917 56.3328L61.5178 56.447L61.6899 56.5343L61.9229 56.653L62.2551 56.8231L62.4439 56.9194L62.6308 57.0142C62.6618 57.0299 62.6928 57.0455 62.7236 57.0611L62.9078 57.1536C63.03 57.2149 63.1511 57.2751 63.271 57.3343L63.45 57.4225C66.0043 58.676 68.0505 59.4867 70.1035 60.0372C72.7322 60.742 75.4343 61.021 78.6721 60.894C81.7377 60.7739 84.2289 60.2682 86.3135 59.4255C87.97 58.7558 89.3195 57.9057 90.6956 56.753L90.7386 56.7168L92.9927 59.3943C91.3362 60.7889 89.6685 61.8443 87.6253 62.6703C85.1533 63.6697 82.2654 64.2559 78.8092 64.3913C75.2291 64.5317 72.176 64.2165 69.1971 63.4178C66.5601 62.7107 63.9942 61.6443 60.6634 59.9402L60.3925 59.8015L60.1149 59.6599L59.8433 59.5223L59.6832 59.4416L59.5251 59.3622L59.3689 59.2841L59.1635 59.182L59.0115 59.1069L58.8611 59.0329L58.7123 58.9601L58.565 58.8884L58.4676 58.8413L58.3226 58.7714L58.2267 58.7254L58.0838 58.6572L57.942 58.59L57.8482 58.5457L57.7547 58.5018L57.6617 58.4584L57.5691 58.4153L57.4309 58.3513L57.2935 58.2882L57.2023 58.2466L57.066 58.1847L56.9302 58.1236L56.84 58.0833L56.75 58.0432L56.6153 57.9836L56.5256 57.9442L56.3466 57.8663L56.2126 57.8084L56.0786 57.7511C54.4297 57.0482 52.8674 56.4965 51.3074 56.0827C47.7005 55.1259 44.1076 54.9123 40.2467 55.5536C37.2373 56.0535 34.7639 56.9705 32.7696 58.1767C31.7074 58.8192 30.8551 59.4992 30.1944 60.1687L30.1474 60.2166C30.1397 60.2245 30.1321 60.2324 30.1245 60.2403L30.0794 60.2871L30.0357 60.3334C30.0285 60.341 30.0214 60.3486 30.0143 60.3562L29.9724 60.4014C29.9655 60.4089 29.9587 60.4163 29.9519 60.4237L29.9119 60.4678L29.8732 60.5112C29.8668 60.5184 29.8605 60.5255 29.8543 60.5326L29.8173 60.5749L29.7817 60.6164L29.7472 60.6571C29.7416 60.6638 29.736 60.6705 29.7305 60.6772L29.6978 60.7167C29.6925 60.7233 29.6872 60.7297 29.682 60.7362L29.6512 60.7745L29.6311 60.7999L29.6034 60.8355L29.5865 60.8576L29.5709 60.8784L29.5565 60.8977L29.5369 60.9249L29.5295 60.9353L29.5368 60.9242L26.6069 59.0096L26.627 58.9794L26.6493 58.9466L26.6655 58.9232L26.6918 58.8861L26.7106 58.8599L26.7304 58.8327L26.7622 58.7898L26.7847 58.7598L26.8204 58.7129L26.8586 58.6636L26.8854 58.6294L26.9132 58.5943C27.1302 58.3217 27.3927 58.0249 27.7031 57.7104C28.5631 56.8388 29.6424 55.9777 30.9582 55.1819C33.3316 53.7464 36.2249 52.6737 39.6732 52.1009Z" fill="#00F5FF"/>
<path fill-rule="evenodd" clip-rule="evenodd" d="M25 60L60 25L95 60L60 95L25 60ZM60 28.5L28.5 60L60 91.5L91.5 60L60 28.5Z" fill="#00F5FF"/>
<path fill-rule="evenodd" clip-rule="evenodd" d="M71.6669 65.565C71.6669 67.9009 70.7862 69.8805 69.0248 71.5038C67.2634 73.1271 64.6807 74.0291 61.2768 74.21V79.4435H59.0368V74.2562C56.857 74.1346 54.8037 73.7022 52.8768 72.9591C50.95 72.2159 49.4355 71.2679 48.3335 70.115L49.6323 67.5211C50.6774 68.5524 52.0434 69.4171 53.7301 70.115C55.4197 70.8134 57.2129 71.2286 59.0375 71.3438V59.3738C56.9772 58.8579 55.2603 58.3047 53.8869 57.7141C52.5135 57.1235 51.3715 56.2588 50.4608 55.1199C49.5508 53.9824 49.0958 52.4731 49.0958 50.592C49.0958 48.2558 49.9318 46.2914 51.6039 44.6987C53.276 43.1059 55.7541 42.1726 59.0382 41.8987V36.6665H61.2782V41.8542C62.9581 41.9112 64.6227 42.1945 66.2269 42.6963C67.8243 43.1968 69.2052 43.8567 70.3695 44.6759L69.2495 47.3608C68.035 46.5764 66.7258 45.9494 65.3533 45.4949C63.9799 45.0399 62.6214 44.7821 61.2779 44.7214V56.78C63.4871 57.326 65.2934 57.8797 66.6969 58.4411C68.0751 58.9851 69.2922 59.8708 70.2337 61.015C71.1892 62.1667 71.6669 63.6834 71.6669 65.565ZM52.3644 50.501C52.3644 52.0783 52.9391 53.2767 54.0885 54.0962C55.2379 54.9156 56.8876 55.6134 59.0375 56.1895V44.8124C56.8281 44.9944 55.1635 45.6088 54.0437 46.6555C52.924 47.7022 52.3642 48.9841 52.3644 50.501ZM66.6063 69.569C65.4119 70.57 63.6354 71.1616 61.2768 71.3438L61.2765 59.9667C63.5758 60.5433 65.3374 61.2411 66.5615 62.0601C67.7856 62.8791 68.3976 64.1078 68.3976 65.7463C68.3978 67.2937 67.8007 68.568 66.6063 69.569Z" fill="#00F5FF"/>
<path d="M60.1946 93.2679L27.1875 60.1869C27.1875 60.1869 34.2823 54.7941 42.5644 52.762C50.8465 50.7299 57.0831 54.7973 62.6268 58.9997C68.1704 63.2022 72.3372 64.2683 78.8825 63.8892C85.4278 63.5102 93.2013 60.1869 93.2013 60.1869L60.1946 93.2679Z" fill="#00F5FF"/>
<path fill-rule="evenodd" clip-rule="evenodd" d="M71.6669 65.4042C71.6672 67.7406 70.7865 69.7202 69.0248 71.343C67.2634 72.9663 64.6815 73.869 61.2793 74.051V79.2849H59.0393V74.0979C56.8581 73.9763 54.8048 73.5439 52.8793 72.8008C50.9538 72.0576 49.4386 71.1096 48.3335 69.9567L49.6323 67.3625C50.6774 68.394 52.0434 69.2588 53.7301 69.9567C55.4198 70.6548 57.213 71.0699 59.0375 71.1852V59.2152C56.9774 58.6995 55.2603 58.1458 53.8862 57.5541C52.5121 56.9623 51.3701 56.0977 50.4601 54.9602C49.8593 54.2094 49.4566 53.2967 49.2522 52.2222C50.6571 52.4202 52.0352 52.7757 53.3605 53.282C53.5766 53.5277 53.8207 53.7473 54.0878 53.9361C55.1171 54.6697 56.5475 55.306 58.3792 55.845C59.8506 56.7746 61.2614 57.8033 62.6264 58.8396C65.8149 61.2564 68.56 62.9938 71.5619 63.9615C71.6335 64.4391 71.6686 64.9214 71.6669 65.4042ZM61.2768 71.1838C63.6356 71.002 65.4121 70.4104 66.6063 69.4089C67.8005 68.4079 68.3977 67.1337 68.3979 65.5862C68.3984 63.9478 67.7864 62.719 66.5618 61.9C65.3373 61.081 63.5756 60.3832 61.2768 59.8067V71.1838Z" fill="black"/>
</svg>
