<svg width="120" height="120" viewBox="0 0 120 120" fill="none" xmlns="http://www.w3.org/2000/svg">
<circle cx="60" cy="60" r="60" fill="#EDF0F4"/>
<path d="M39.9852 73.313L54.2317 81.5653V88.409L34.8279 77.1756V44.9401L38.673 42.7159L37.2601 40.2632L32 43.3073V78.8098L57.0526 93.3158V79.9311L41.3988 70.8603L39.9852 73.313Z" fill="url(#paint0_linear_107_21512)"/>
<path d="M60.0043 30.4236L76.2687 40.2632L77.6843 37.6973L60.0043 27L42.3159 37.6937L43.7315 40.2595L60.0043 30.4236Z" fill="url(#paint1_linear_107_21512)"/>
<path d="M60.0043 40.7373L76.2687 50.5791L77.6843 48.0127L60.0043 37.3159L42.3159 48.009L43.7315 50.5754L60.0043 40.7373Z" fill="url(#paint2_linear_107_21512)"/>
<path d="M82.7454 40.2632L81.3325 42.7159L85.1776 44.9403V77.1766L65.7717 88.4089V81.565L80.1734 73.2256L78.7605 70.7728L62.9473 79.9307V93.3158L87.9999 78.8095V43.306L82.7454 40.2632Z" fill="url(#paint3_linear_107_21512)"/>
<path fill-rule="evenodd" clip-rule="evenodd" d="M67.9238 65.6024C68.322 64.0848 68.0575 62.4706 67.1954 61.1569C67.1775 61.1298 67.1601 61.1024 67.1428 61.0754C67.1304 61.0559 67.118 61.0365 67.1057 61.0175L66.6591 60.4706C66.5953 60.4036 66.5376 60.3311 66.4867 60.254C66.4682 60.2229 66.4653 60.185 66.479 60.1515C66.5491 60.0199 66.6262 59.8924 66.7047 59.7663C67.0137 59.2753 67.2297 58.7322 67.3419 58.1639C67.4796 57.4877 67.4967 56.7928 67.3924 56.1108C67.0633 53.903 65.3354 52.1601 63.119 51.8004C63.1019 51.7975 63.0854 51.7947 63.0696 51.792C62.8708 51.7581 62.7682 51.7406 62.7152 51.6799C62.6586 51.6151 62.6583 51.5012 62.6578 51.2657C62.6578 51.2551 62.6577 51.2443 62.6577 51.2333V50.1722C62.6572 50.098 62.6478 50.0241 62.6297 49.9521C62.6169 49.9175 62.5895 49.8902 62.5547 49.8775C62.4828 49.8558 62.4082 49.8441 62.3331 49.8427H59.5249C59.45 49.8401 59.3752 49.8495 59.3033 49.8706C59.2533 49.8901 59.2136 49.9295 59.194 49.9793C59.1748 50.0709 59.1668 50.1644 59.1701 50.2579V50.2581C59.1701 50.6112 59.1701 50.9644 59.1659 51.3176C59.1683 51.4114 59.1584 51.505 59.1365 51.5963C59.1246 51.6402 59.0699 51.6799 59.0257 51.7091C58.9927 51.727 58.9553 51.7352 58.9178 51.7328C58.831 51.7328 58.7439 51.7334 58.6568 51.7341C58.4821 51.7353 58.3068 51.7365 58.1319 51.7328C57.9812 51.7328 57.902 51.6436 57.9006 51.4792C57.8973 51.2817 57.8964 51.0849 57.8955 50.8879V50.8878V50.8877C57.8949 50.7499 57.8943 50.6121 57.8929 50.4739C57.8929 50.3547 57.8869 50.2351 57.881 50.1147V50.1146L57.8768 50.028C57.8658 49.9324 57.7863 49.8591 57.6896 49.8553L57.6647 49.8534C57.5982 49.8484 57.5326 49.8434 57.4653 49.8434H54.7691C54.711 49.8434 54.6537 49.848 54.5957 49.8527L54.5448 49.8566C54.4479 49.8677 54.3752 49.9499 54.3766 50.0468C54.3719 50.3091 54.3697 50.5729 54.3674 50.8364L54.3661 50.995C54.3661 51.181 54.3618 51.3671 54.3541 51.5524C54.3416 51.6475 54.262 51.7198 54.1656 51.7238C54.0169 51.7314 53.8662 51.737 53.7169 51.737H52.3689C52.2571 51.7354 52.1454 51.7457 52.0359 51.7677C51.984 51.7846 51.9411 51.8215 51.9167 51.8701C51.8978 51.9227 51.8909 51.9789 51.8964 52.0345V54.9369C51.8954 54.993 51.9034 55.049 51.9202 55.1027C51.9336 55.1376 51.9607 55.1658 51.9952 55.1807C52.0668 55.1997 52.1405 55.21 52.2146 55.2114C52.3738 55.2134 52.5331 55.2134 52.6924 55.2134C52.8517 55.2134 53.011 55.2134 53.1701 55.2155C53.2644 55.2134 53.3585 55.2228 53.4505 55.2434C53.5006 55.2639 53.5378 55.3068 53.5508 55.3591C53.5685 55.5063 53.5774 55.6545 53.5774 55.8028V58.3708V62.948V63.451L53.5655 64.1693C53.567 64.1949 53.5689 64.2205 53.5707 64.2462C53.5754 64.3135 53.5802 64.3809 53.5802 64.448V65.732C53.5802 65.8065 53.5802 65.8818 53.5746 65.9549C53.5787 66.0107 53.5593 66.0658 53.521 66.1068C53.4827 66.1479 53.429 66.1714 53.3727 66.1716C53.2116 66.175 53.0502 66.1763 52.8892 66.1777L52.8888 66.1777C52.788 66.1785 52.6873 66.1793 52.5869 66.1806C52.4186 66.1806 52.249 66.1848 52.0807 66.1925C51.9837 66.1983 51.9078 66.2778 51.9069 66.3743L51.9053 66.4079L51.9053 66.4079C51.9016 66.4895 51.8978 66.5715 51.8978 66.653V69.1652C51.8978 69.2674 51.9042 69.3696 51.9107 69.4718L51.9125 69.4997C51.9325 69.5715 51.9922 69.6257 52.066 69.639L52.0877 69.6408L52.0877 69.6408C52.1914 69.6493 52.2963 69.6579 52.4011 69.6592H53.6931C53.8438 69.6592 53.9924 69.6592 54.1417 69.6696C54.1984 69.6649 54.2545 69.6842 54.2962 69.7226C54.338 69.761 54.3615 69.8151 54.3611 69.8717C54.3641 69.9896 54.3651 70.1071 54.3661 70.2244V70.2244C54.367 70.3302 54.3679 70.4358 54.3703 70.5412C54.3703 70.6774 54.3763 70.8136 54.3823 70.9495L54.3823 70.9495L54.3864 71.0421C54.3993 71.1162 54.4598 71.173 54.535 71.1814C54.6282 71.1905 54.7222 71.1989 54.8154 71.1989H57.4554C57.5404 71.1989 57.6248 71.1913 57.7108 71.1837L57.7108 71.1837L57.7359 71.1814C57.8091 71.164 57.8645 71.1043 57.8761 71.0303C57.8852 70.9376 57.8922 70.8456 57.8936 70.7516V70.0263C57.8919 69.9521 57.9008 69.8779 57.9202 69.8062C57.9422 69.7625 57.9779 69.727 58.0219 69.7052C58.0736 69.6829 58.1296 69.6724 58.1859 69.6745C58.3731 69.6703 58.5603 69.6703 58.7467 69.6703C59.1379 69.6703 59.161 69.74 59.1624 70.0883V70.8693C59.1666 71.1745 59.201 71.2037 59.5312 71.2107H59.6433H62.1712C62.2448 71.2107 62.3198 71.2107 62.3955 71.2051C62.5694 71.1975 62.6416 71.1355 62.6465 70.978C62.6484 70.8751 62.6486 70.7719 62.6487 70.6688C62.6489 70.5485 62.6491 70.4282 62.6521 70.3085C62.6521 70.1587 62.6563 70.011 62.6626 69.8612C62.6736 69.7664 62.7477 69.6911 62.8428 69.678L62.8566 69.6765L62.8566 69.6765C62.983 69.6623 63.1082 69.6484 63.234 69.6383C65.5107 69.4418 67.4026 67.8137 67.9238 65.6024ZM57.093 55.6886C57.0929 55.5771 57.1019 55.4657 57.1197 55.3556C57.1263 55.2977 57.1711 55.2515 57.229 55.2427C57.322 55.2295 57.4156 55.2216 57.5094 55.219H62.2231C62.6974 55.2008 63.1567 55.3854 63.4849 55.7262C63.7546 55.9911 63.9127 56.348 63.9273 56.7246C63.9329 56.9092 63.9329 57.0952 63.9273 57.2819C63.8698 58.0115 63.3169 58.6071 62.5897 58.7226C62.4579 58.7394 62.3255 58.7443 62.1925 58.7492L62.1923 58.7492C62.1379 58.7512 62.0834 58.7533 62.0289 58.7561H61.9167H59.8347H57.534C57.4226 58.754 57.3117 58.7423 57.2024 58.7213C57.1666 58.7093 57.1388 58.6811 57.1274 58.6453C57.1068 58.5538 57.096 58.4604 57.0951 58.3666C57.0923 58.0444 57.0933 57.7228 57.0942 57.4008C57.0947 57.2396 57.0951 57.0783 57.0951 56.9168C57.0916 56.5065 57.0902 56.0975 57.093 55.6886ZM61.9811 66.1842C62.2622 66.1844 62.5423 66.1846 62.8239 66.18C63.5945 66.1456 64.26 65.6327 64.4853 64.8994C64.574 64.5952 64.6005 64.2763 64.5631 63.9617C64.5275 63.2339 64.0515 62.6001 63.3594 62.3593C63.1123 62.2722 62.8502 62.2343 62.5883 62.2479H57.59C57.4891 62.2479 57.3881 62.2529 57.2871 62.258C57.2759 62.2586 57.2648 62.2592 57.2536 62.2597C57.1813 62.2785 57.1252 62.3352 57.1077 62.4074C57.1064 62.421 57.1051 62.4347 57.1037 62.4484C57.0977 62.5087 57.0916 62.5693 57.0916 62.629V64.1359C57.0916 64.3165 57.0911 64.4968 57.0907 64.677C57.0897 65.037 57.0888 65.3963 57.0916 65.7557C57.0953 65.8658 57.1101 65.9752 57.1358 66.0824C57.1479 66.1159 57.1752 66.1417 57.2094 66.1521C57.3189 66.1715 57.4298 66.1822 57.541 66.1841H60.1249H61.8123C61.8686 66.1841 61.9249 66.1842 61.9811 66.1842Z" fill="url(#paint4_linear_107_21512)"/>
<defs>
<linearGradient id="paint0_linear_107_21512" x1="0.833073" y1="355.32" x2="233.78" y2="315.766" gradientUnits="userSpaceOnUse">
<stop offset="0.13" stop-color="#13AAE6"/>
<stop offset="1" stop-color="#023B90"/>
</linearGradient>
<linearGradient id="paint1_linear_107_21512" x1="1787.89" y1="848.713" x2="1794.59" y2="-468.422" gradientUnits="userSpaceOnUse">
<stop offset="0.13" stop-color="#13AAE6"/>
<stop offset="1" stop-color="#023B90"/>
</linearGradient>
<linearGradient id="paint2_linear_107_21512" x1="1791.56" y1="783.307" x2="1798.26" y2="-534.513" gradientUnits="userSpaceOnUse">
<stop offset="0.13" stop-color="#13AAE6"/>
<stop offset="1" stop-color="#023B90"/>
</linearGradient>
<linearGradient id="paint3_linear_107_21512" x1="34.1201" y1="364.474" x2="266.943" y2="324.931" gradientUnits="userSpaceOnUse">
<stop offset="0.13" stop-color="#13AAE6"/>
<stop offset="1" stop-color="#023B90"/>
</linearGradient>
<linearGradient id="paint4_linear_107_21512" x1="81.7703" y1="188.778" x2="199.607" y2="58.9507" gradientUnits="userSpaceOnUse">
<stop offset="0.13" stop-color="#13AAE6"/>
<stop offset="1" stop-color="#023B90"/>
</linearGradient>
</defs>
</svg>
