<svg width="25" height="25" viewBox="0 0 25 25" fill="none" xmlns="http://www.w3.org/2000/svg">
<path d="M19.3334 8.5C20.9902 8.5 22.3334 7.15685 22.3334 5.5C22.3334 3.84315 20.9902 2.5 19.3334 2.5C17.6765 2.5 16.3334 3.84315 16.3334 5.5C16.3334 7.15685 17.6765 8.5 19.3334 8.5Z" fill="CurrentColor"/>
<path d="M20.1334 9.92C20.1134 9.92 20.0934 9.93 20.0734 9.93C19.9734 9.95 19.8734 9.96 19.7634 9.98C19.3434 10.02 18.8934 10 18.4334 9.91C18.3134 9.88 18.2134 9.86 18.1034 9.82C17.7734 9.74 17.4634 9.61 17.1734 9.44C17.0534 9.38 16.9334 9.3 16.8234 9.23C16.3434 8.9 15.9334 8.49 15.6034 8.01C15.5334 7.9 15.4534 7.78 15.3934 7.66C15.2234 7.37 15.0934 7.06 15.0134 6.73C14.9734 6.62 14.9534 6.52 14.9234 6.4C14.8334 5.94 14.8134 5.49 14.8534 5.07C14.8734 4.96 14.8834 4.86 14.9034 4.76C14.9034 4.74 14.9134 4.72 14.9134 4.7C15.0334 4.08 14.5734 3.5 13.9334 3.5H7.85337C7.71337 3.5 7.57337 3.51 7.44337 3.52C7.32337 3.53 7.21337 3.54 7.09337 3.56C6.97337 3.57 6.85337 3.59 6.74337 3.61C4.33337 3.96 2.79337 5.49 2.44337 7.91C2.42337 8.02 2.40337 8.14 2.39337 8.26C2.37337 8.38 2.36337 8.49 2.35337 8.61C2.34337 8.74 2.33337 8.88 2.33337 9.02V16.98C2.33337 17.12 2.34337 17.26 2.35337 17.39C2.36337 17.51 2.37337 17.62 2.39337 17.74C2.40337 17.86 2.42337 17.98 2.44337 18.09C2.79337 20.51 4.33337 22.04 6.74337 22.39C6.85337 22.41 6.97337 22.43 7.09337 22.44C7.21337 22.46 7.32337 22.47 7.44337 22.48C7.57337 22.49 7.71337 22.5 7.85337 22.5H15.8134C15.9534 22.5 16.0934 22.49 16.2234 22.48C16.3434 22.47 16.4534 22.46 16.5734 22.44C16.6934 22.43 16.8134 22.41 16.9234 22.39C19.3334 22.04 20.8734 20.51 21.2234 18.09C21.2434 17.98 21.2634 17.86 21.2734 17.74C21.2934 17.62 21.3034 17.51 21.3134 17.39C21.3234 17.26 21.3334 17.12 21.3334 16.98V10.9C21.3334 10.26 20.7534 9.8 20.1334 9.92ZM7.08337 13H12.0834C12.4934 13 12.8334 13.34 12.8334 13.75C12.8334 14.16 12.4934 14.5 12.0834 14.5H7.08337C6.67337 14.5 6.33337 14.16 6.33337 13.75C6.33337 13.34 6.67337 13 7.08337 13ZM16.0834 18.5H7.08337C6.67337 18.5 6.33337 18.16 6.33337 17.75C6.33337 17.34 6.67337 17 7.08337 17H16.0834C16.4934 17 16.8334 17.34 16.8334 17.75C16.8334 18.16 16.4934 18.5 16.0834 18.5Z" fill="CurrentColor"/>
</svg>
