<svg width="120" height="120" viewBox="0 0 120 120" fill="none" xmlns="http://www.w3.org/2000/svg">
<circle cx="60" cy="60" r="60" fill="#EDF0F4"/>
<path d="M97.3507 74.3909C97.353 64.7367 97.353 55.0826 97.3507 45.4287C97.3898 44.4416 96.8941 43.4593 96.1019 42.8774C84.5977 34.4717 73.0934 26.0647 61.5889 17.6565C60.885 17.106 59.9774 16.8869 59.0999 17.0556C58.5638 17.1608 58.0806 17.429 57.6502 17.7517C46.2278 26.1005 34.8049 34.4488 23.3814 42.7967C22.5146 43.3992 21.9999 44.3898 22.0051 45.4454C21.9983 55.0971 21.9983 64.7483 22.0051 74.3991C21.9901 75.4445 22.5326 76.459 23.3922 77.0478C34.8145 85.3923 46.2346 93.7386 57.6523 102.087C58.7449 103.021 60.459 103.095 61.5868 102.184C73.0543 93.8108 84.5176 85.4335 95.9766 77.0521C96.8396 76.4706 97.3979 75.4381 97.3498 74.3914" fill="#050708"/>
<path d="M55.6988 23.9655C56.0018 23.6222 56.3091 23.0871 56.8417 23.1583C58.6531 23.169 60.4689 23.13 62.2799 23.1776C62.5936 23.3725 62.8339 23.6647 63.1021 23.9158C63.0953 25.7852 63.0953 27.655 63.1021 29.5252C62.5631 29.5317 62.0224 29.5557 61.4834 29.5188C61.4508 29.3866 61.386 29.127 61.3546 28.9952C61.3546 27.5992 61.4757 26.2014 61.3589 24.8075C60.0277 24.8095 58.6973 24.8095 57.3678 24.8075C57.3614 25.277 57.3592 25.7491 57.3549 26.2186C56.7944 26.2186 56.2318 26.2186 55.6692 26.2143C55.6731 25.4671 55.5907 24.7075 55.6988 23.9655Z" fill="white"/>
<path d="M51.1824 26.2465C51.7948 26.2229 52.4072 26.2229 53.0218 26.2379C53.0304 28.824 53.0411 31.4079 53.0153 33.9918C52.4308 34.0047 51.8467 34.0047 51.2644 34.0004C51.07 31.4255 51.2253 28.8304 51.1824 26.2465Z" fill="white"/>
<path d="M66.7607 29.025C68.3915 29.0035 70.0197 29.01 71.6496 29.0207C71.6582 29.6181 71.6582 30.2133 71.6496 30.8102C70.0188 30.8274 68.388 30.8339 66.7573 30.806C66.7512 30.2129 66.7512 29.6159 66.7573 29.025" fill="white"/>
<path d="M56.8721 29.9056C57.53 29.8905 58.1879 29.8927 58.8462 29.8927C59.4758 31.1175 60.2659 32.2603 60.7774 33.5435C60.1736 33.5718 59.5676 33.5718 58.9638 33.574C58.2463 32.3625 57.5536 31.1368 56.8721 29.9056Z" fill="white"/>
<path d="M63.5892 32.0594C64.1583 32.0465 64.7273 32.0487 65.299 32.0573C66.8482 34.4605 68.3541 36.8921 69.9149 39.2898C69.9149 40.0193 69.9149 40.7489 69.9021 41.4785C69.733 41.448 69.4 41.3896 69.2334 41.3617C67.9091 39.3876 66.6907 37.3431 65.3814 35.3605C65.3599 37.5921 65.3878 39.8237 65.3663 42.0552C64.7733 42.0661 64.1789 42.0661 63.5832 42.0552C63.5759 38.7246 63.5652 35.3918 63.5892 32.0594Z" fill="white"/>
<path d="M70.6617 33.4115C71.2676 33.3986 71.8757 33.3986 72.4817 33.4158C72.486 33.987 72.486 34.5608 72.4817 35.1324C71.8757 35.1474 71.2676 35.1474 70.6638 35.1367C70.6595 34.5628 70.6595 33.9877 70.6638 33.4115" fill="white"/>
<path d="M40.7038 33.9762C41.1819 33.9676 41.6604 33.9697 42.1384 33.974C43.4152 33.8882 44.6898 33.9135 45.9669 33.9869C45.9712 34.5409 45.9669 35.0971 45.9626 35.6512C44.0743 36.785 42.2599 38.0424 40.3446 39.1273C39.7798 38.9127 39.3489 38.4608 38.888 38.084C40.1412 37.3201 41.3681 36.5151 42.6341 35.7726C41.9934 35.74 41.3509 35.7443 40.7102 35.7379C40.6991 35.1491 40.6969 34.5618 40.7038 33.9762Z" fill="white"/>
<path d="M55.8096 34.6342C56.3962 34.617 56.9846 34.6191 57.5691 34.6342C57.5841 35.223 57.5841 35.8092 57.5691 36.398C56.9826 36.4151 56.3961 36.4159 55.8096 36.4001C55.7958 35.8113 55.7958 35.2227 55.8096 34.6342Z" fill="white"/>
<path d="M47.2003 36.3567C48.1397 37.7806 49.0508 39.2243 50.0027 40.6396C50.9528 39.2071 51.8704 37.7527 52.8291 36.3267C52.8291 37.2708 52.8917 38.2248 52.8098 39.1681C51.9399 40.659 50.9335 42.0679 49.9962 43.518C49.0744 42.0919 48.0981 40.6959 47.2239 39.2419C47.1248 38.2849 47.196 37.3176 47.2003 36.3567Z" fill="white"/>
<path d="M73.2065 36.597C76.0261 36.5842 78.8459 36.5849 81.666 36.5992C81.666 37.1704 81.666 37.7442 81.6634 38.3158C78.8456 38.3224 76.0267 38.3231 73.2065 38.3179C73.204 37.7442 73.2023 37.1691 73.2065 36.597Z" fill="white"/>
<path d="M58.2806 38.8305C58.8475 38.8197 59.4166 38.8197 59.9861 38.8262C60.0144 41.3277 59.9861 43.8318 60.0011 46.3363C59.7371 46.5874 59.4754 46.8428 59.2179 47.0981C57.2635 47.1196 55.3096 47.0981 53.3574 47.1088C53.0999 46.8621 52.8359 46.626 52.6042 46.36C52.5046 45.5939 52.578 44.8124 52.5759 44.0425C53.1195 44.0382 53.6648 44.0382 54.2118 44.0425C54.2268 44.4841 54.2247 44.9253 54.2182 45.3669C55.5623 45.5184 56.9168 45.4098 58.2673 45.4424C58.2742 43.2387 58.2527 41.0316 58.2806 38.8305Z" fill="white"/>
<path d="M85.5421 46.2252C85.5244 44.3369 85.5244 42.4476 85.5421 40.5574C86.1331 40.5445 86.7236 40.5423 87.3167 40.5574C87.3358 42.4456 87.3358 44.3356 87.3167 46.2273C86.7253 46.2372 86.1348 46.235 85.5438 46.2273" fill="white"/>
<path d="M77.1217 41.9839C78.2375 41.9732 79.3593 41.7998 80.4691 41.9796C81.1961 44.3494 81.8197 46.7557 82.5424 49.1298C81.9712 49.134 81.3974 49.134 80.8257 49.134C80.2803 47.2926 79.8151 45.4292 79.2525 43.5915C78.9388 43.5958 78.625 43.6001 78.3109 43.6023C77.8436 45.4571 77.2809 47.2835 76.7981 49.1315C76.2222 49.1335 75.6466 49.1328 75.0712 49.1293C75.7798 46.7557 76.4445 44.3657 77.1217 41.9839Z" fill="white"/>
<path d="M29.4179 42.8883C31.989 42.8733 34.5622 42.8668 37.1328 42.8883C37.1478 43.4792 37.1478 44.0676 37.1349 44.6586C34.56 44.6822 31.9885 44.6757 29.4153 44.6607C29.4072 44.0698 29.4072 43.4754 29.4179 42.8862" fill="white"/>
<path d="M38.3451 42.8908C38.9297 42.8865 39.5137 42.8843 40.1004 42.8908C40.1133 43.4839 40.1133 44.0787 40.1004 44.6718C39.5137 44.6782 38.9297 44.6761 38.3451 44.6718C38.3383 44.0787 38.3383 43.4877 38.3451 42.8951" fill="white"/>
<path d="M44.8069 42.9637C45.3803 42.9594 45.9562 42.9615 46.5295 42.968C46.5467 44.3412 46.5381 45.7184 46.5381 47.093C45.9558 47.0973 45.3738 47.0994 44.794 47.093C44.788 45.7197 44.77 44.3391 44.8069 42.9615" fill="white"/>
<path d="M89.7491 44.1974C90.4092 44.1846 91.0713 44.1867 91.7314 44.1846C92.385 45.3965 93.1793 46.5449 93.666 47.8397C93.0652 47.8611 92.4605 47.8633 91.8588 47.8658C91.1473 46.6475 90.4697 45.4089 89.7487 44.1974" fill="white"/>
<path d="M63.7278 45.6673C64.3 45.663 64.8723 45.663 65.4445 45.6673C65.4573 47.55 65.4483 49.4327 65.4483 51.3158C64.8728 51.3201 64.299 51.3222 63.724 51.3222C63.724 49.4378 63.721 47.5508 63.7278 45.6651" fill="white"/>
<path d="M69.7647 47.9567C69.7579 47.3679 69.7579 46.7778 69.7647 46.1865C70.3424 46.1779 70.9234 46.1779 71.5024 46.1929C71.5024 46.7817 71.5067 47.3701 71.4981 47.9589C70.9213 47.961 70.3394 47.9589 69.7626 47.9589" fill="white"/>
<path d="M37.1028 50.5663C38.4898 49.5535 39.9704 48.6729 41.3943 47.7163C42.3358 47.727 43.2748 47.7163 44.2164 47.7292C42.8182 48.7291 41.3316 49.5926 39.9249 50.5792C41.3707 51.4881 42.7882 52.4404 44.225 53.358C43.2577 53.3751 42.2904 53.3644 41.323 53.3665C39.927 52.419 38.4769 51.5456 37.1028 50.5663" fill="white"/>
<path d="M85.5443 48.9241C86.1369 48.9112 86.73 48.909 87.3253 48.9241C87.3398 49.5171 87.3381 50.1077 87.321 50.7007C86.73 50.7136 86.1374 50.7115 85.5464 50.7007C85.5335 50.1097 85.5335 49.5189 85.5464 48.9283" fill="white"/>
<path d="M24.6633 49.1666C27.6245 49.1495 30.5908 49.143 33.5558 49.1709C33.5623 49.7314 33.5623 50.294 33.5644 50.8566C32.24 51.7244 30.9157 52.5964 29.5544 53.4015C28.9789 53.1916 28.5437 52.7149 28.0524 52.3651C28.7858 51.902 29.5304 51.454 30.241 50.9583C28.3819 50.9497 26.5233 50.9691 24.662 50.9476C24.6535 50.3545 24.6535 49.7609 24.662 49.1666" fill="white"/>
<path d="M50.0181 50.885C52.5827 50.8957 55.1469 50.8721 57.7094 50.8957C57.7717 51.4789 57.7638 52.0675 57.6858 52.6488C55.1298 52.6595 52.5763 52.6509 50.0228 52.6531C50.0183 52.0617 50.0167 51.4723 50.0181 50.885Z" fill="white"/>
<path d="M59.3844 50.8955C60.0011 50.8826 60.6156 50.8826 61.2327 50.9041C61.2348 51.4797 61.2339 52.0539 61.2302 52.6267C60.6156 52.6439 59.9989 52.6439 59.3848 52.6331C59.3788 52.0534 59.3788 51.4744 59.3848 50.8955" fill="white"/>
<path d="M67.4503 53.3759C67.3701 52.7678 67.9936 52.4562 68.3138 52.0387C69.0669 52.0387 69.8197 52.0344 70.5733 52.0494C70.5904 52.6163 70.5904 53.1832 70.5814 53.7527C70.1059 53.7613 69.627 53.7613 69.1515 53.7677V57.806C71.3651 57.8211 73.5791 57.7975 75.7931 57.8189C75.7995 58.3923 75.7995 58.966 75.7845 59.5355C73.2915 59.5527 70.796 59.5377 68.3031 59.5441C67.9851 59.1287 67.3748 58.8146 67.4525 58.2112C67.4413 56.6001 67.4413 54.9884 67.4525 53.3759" fill="white"/>
<path d="M75.8446 52.8388C76.4548 52.8174 77.0694 52.8174 77.6818 52.8388C77.6883 53.4231 77.6883 54.0074 77.6818 54.5919C77.0694 54.6134 76.4591 54.6134 75.8467 54.5919C75.8403 54.0053 75.8403 53.4212 75.8467 52.8346" fill="white"/>
<path d="M81.6772 52.8388C84.2568 52.804 86.8343 52.8281 89.4139 52.8259C89.4182 53.4212 89.4182 54.0186 89.4114 54.6134C86.8339 54.6134 84.2568 54.6348 81.6789 54.6026C81.6703 54.0138 81.6703 53.4259 81.6789 52.8388" fill="white"/>
<path d="M45.9433 54.8972C47.3891 54.895 48.8324 54.8972 50.2778 54.895C50.2906 55.4958 50.2906 56.0966 50.2778 56.6975C48.8341 56.6998 47.3913 56.6998 45.9493 56.6975C45.9241 56.0966 45.9228 55.4965 45.9455 54.8972" fill="white"/>
<path d="M55.4761 54.8971C57.7442 54.895 60.0122 54.8971 62.2799 54.8928C63.1039 54.7641 63.9291 55.6198 63.8248 56.4335C63.82 58.0994 63.8191 59.7673 63.8223 61.437C63.5322 61.7507 63.2403 62.0601 62.9481 62.3717C62.1971 62.3717 61.4486 62.3717 60.6976 62.3631C60.6913 61.7909 60.6906 61.2195 60.6955 60.649C61.1649 60.6426 61.6353 60.6383 62.1044 60.6319C62.1044 59.3204 62.1044 58.0067 62.1087 56.6953C59.9054 56.4983 57.6854 56.6626 55.4757 56.6043C55.4702 56.0321 55.4702 55.463 55.4757 54.8971" fill="white"/>
<path d="M39.4919 55.4247C40.5999 55.4183 41.7059 55.4118 42.8139 55.429C43.4847 57.8245 44.2052 60.2072 44.8395 62.6139C44.2816 62.6139 43.7237 62.6139 43.1688 62.6182C42.5998 60.7698 42.1603 58.8871 41.5737 57.0477C41.2578 57.0671 40.942 57.0907 40.6257 57.1147C40.206 58.9674 39.6064 60.7719 39.1477 62.616C38.5743 62.616 38.0005 62.616 37.4311 62.6096C38.1134 60.2145 38.7928 57.8159 39.491 55.4247" fill="white"/>
<path d="M87.8321 57.5892C89.7633 57.5699 91.697 57.5501 93.6256 57.5956C94.1127 57.896 94.662 58.3836 94.556 59.0239C94.556 60.3971 94.5475 61.7743 94.556 63.1489C94.5389 63.8089 94.5689 64.469 94.5496 65.129C94.5801 65.668 94.4329 66.198 94.4638 66.7392C93.914 66.7392 93.3643 66.7392 92.8145 66.7327C92.821 64.2527 92.8145 61.7704 92.8188 59.2904C91.47 59.2535 90.1225 59.2818 88.7741 59.2711C88.7715 59.732 88.7715 60.1929 88.7633 60.6559C88.196 60.6645 87.6288 60.6674 87.0617 60.6645C87.051 59.9049 87.0536 59.1432 87.0553 58.3836C87.3167 58.1218 87.5742 57.8574 87.8316 57.5892" fill="white"/>
<path d="M32.876 57.6582H34.6699C34.6742 59.543 34.6699 61.4257 34.6699 63.3089H32.8674C32.876 61.4262 32.8696 59.5413 32.8739 57.6582" fill="white"/>
<path d="M27.2473 59.2341C27.8361 59.2255 28.4244 59.2427 29.0111 59.2817C29.0177 59.8399 29.0177 60.399 29.0111 60.9589C28.418 60.9653 27.8253 60.9674 27.2322 60.9589C27.2258 60.3829 27.2279 59.8096 27.2473 59.2362" fill="white"/>
<path d="M48.326 69.5634C48.3105 66.2306 48.3098 62.8975 48.3238 59.5641C48.9083 59.5555 49.4924 59.5555 50.0769 59.5684C51.4502 61.7824 52.8664 63.9723 54.2689 66.1709C54.8748 66.952 54.5113 67.9995 54.6088 68.9085C54.4053 68.9085 54.2019 68.9128 54.0007 68.9171C52.7389 66.9129 51.421 64.9435 50.2134 62.9089C49.9949 65.1208 50.1743 67.3519 50.1031 69.5724C49.5087 69.5784 48.9165 69.5784 48.326 69.5634Z" fill="white"/>
<path d="M56.1177 60.8458C56.7125 60.8329 57.3076 60.8315 57.9029 60.8415C57.9115 62.2981 57.9094 63.7546 57.9029 65.2107C57.3056 65.2215 56.7103 65.2215 56.1134 65.2064C56.1035 63.7525 56.1009 62.2981 56.1134 60.8458" fill="white"/>
<path d="M66.907 62.7941C67.4894 62.7898 68.0734 62.7877 68.6579 62.7941C68.6688 63.3872 68.6688 63.9801 68.6579 64.5729C68.0734 64.5752 67.4898 64.5752 66.907 64.5729C66.9001 63.9821 66.9001 63.3899 66.907 62.7962" fill="white"/>
<path d="M72.5834 62.8717C74.397 62.8481 76.2106 62.861 78.0264 62.8653C78.0998 63.3953 78.1452 63.9343 78.0933 64.4712C77.9217 64.8196 77.511 64.681 77.2037 64.7136C75.6587 64.6682 74.1091 64.8025 72.5748 64.6278C72.5641 64.0403 72.5641 63.4562 72.5834 62.8717Z" fill="white"/>
<path d="M79.9005 63.1227C80.485 63.1141 81.0755 63.075 81.66 63.1656C81.7162 65.2126 81.6836 67.2666 81.6729 69.3162C81.0821 69.3271 80.492 69.3271 79.9026 69.3162C79.8829 67.2525 79.8829 65.1888 79.9026 63.1248" fill="white"/>
<path d="M63.7278 64.3356C64.299 64.3356 64.8728 64.3314 65.4444 64.3356C65.4509 64.9244 65.4526 65.515 65.4444 66.108C64.8722 66.1166 64.3 66.1166 63.7278 66.108C63.7235 65.5175 63.7235 64.9244 63.7278 64.3335" fill="white"/>
<path d="M36.2131 65.5941C38.2516 65.3736 40.3098 65.5487 42.3569 65.4839C42.8844 65.4771 43.4118 65.5009 43.9366 65.5551C43.9452 66.1503 43.943 66.7477 43.9366 67.3425C41.3617 67.3382 38.7923 67.3554 36.2217 67.3339C36.2063 66.7541 36.2063 66.1752 36.211 65.5941" fill="white"/>
<path d="M24.6655 66.9102C24.9449 66.6377 25.226 66.3626 25.5075 66.0901C26.2521 66.0858 26.9962 66.0836 27.7391 66.0987C27.7477 66.6613 27.7477 67.226 27.7434 67.7887C27.2803 67.7994 26.8194 67.8015 26.3563 67.8058C26.3671 69.1478 26.3499 70.4893 26.3671 71.8313C28.5592 71.8377 30.7517 71.8163 32.9438 71.842C32.9546 72.3961 32.9546 72.9479 32.9503 73.502C32.407 73.5041 31.8615 73.5063 31.3195 73.5063C29.3742 73.487 27.4262 73.5389 25.483 73.4827C25.1586 73.2986 24.8316 72.9956 24.6844 72.6518C24.6333 70.7391 24.6784 68.8238 24.6676 66.9102" fill="white"/>
<path d="M70.1445 68.026C70.4368 67.7513 70.7312 67.4762 71.032 67.208C72.9276 67.223 74.8236 67.208 76.7192 67.2144C77.005 67.487 77.2904 67.762 77.5775 68.0324C77.5798 69.9087 77.5798 71.7842 77.5775 73.659C76.9998 73.6633 76.4218 73.659 75.8463 73.644C75.8463 72.0665 75.8334 70.491 75.8527 68.9135C74.5223 68.9113 73.1975 68.9135 71.8706 68.9113C71.8727 69.3915 71.8706 69.8722 71.8599 70.3524C71.2908 70.361 70.7218 70.361 70.1544 70.3589C70.136 69.5812 70.1402 68.8045 70.1424 68.026" fill="white"/>
<path d="M82.3153 71.338C84.4182 69.9682 86.5421 68.6344 88.6625 67.2954C89.1689 67.6332 89.6667 67.9881 90.1602 68.343C88.6342 69.3157 87.1093 70.286 85.5855 71.2539C87.8252 71.2775 90.0654 71.2539 92.3073 71.2668C92.3116 71.862 92.3116 72.4594 92.3073 73.0542C88.9782 73.0651 85.6497 73.0651 82.3218 73.0542C82.3132 72.4804 82.3132 71.9071 82.3175 71.3376" fill="white"/>
<path d="M58.5166 71.6771C60.6268 70.2725 62.8039 68.9696 64.9136 67.5654C65.4153 67.9118 65.9114 68.2645 66.4221 68.5954C64.9629 69.6211 63.4141 70.515 61.9271 71.5038C64.154 71.5428 66.3809 71.4995 68.6077 71.5274C68.6228 72.1398 68.6228 72.7543 68.6077 73.3667C65.2749 73.386 61.9417 73.3732 58.6085 73.3732C58.5226 72.8114 58.5226 72.2423 58.5188 71.675" fill="white"/>
<path d="M36.6114 70.1625C37.5375 71.5787 38.4662 72.9949 39.3816 74.415C40.3639 73.0125 41.2428 71.5397 42.2166 70.1299C42.2359 71.0843 42.2208 72.0409 42.2294 72.9953C41.26 74.415 40.3725 75.8908 39.3773 77.2912C38.4555 75.8844 37.5615 74.4588 36.6007 73.0777C36.5912 72.1061 36.5813 71.1324 36.6114 70.1625Z" fill="white"/>
<path d="M46.7621 73.7959C46.7407 73.19 46.7385 72.584 46.7729 71.9802C47.3552 71.9738 47.9415 71.9759 48.5238 72.0231C48.5367 72.6136 48.5367 73.2044 48.5238 73.7955C47.9385 73.8002 47.3518 73.8024 46.7643 73.7955" fill="white"/>
<path d="M55.013 74.6707C55.604 74.6643 56.1966 74.6621 56.7876 74.6707C56.8026 76.8714 56.7876 79.0725 56.7962 81.2732C56.3764 81.2904 55.9563 81.3101 55.5366 81.3488C55.4023 81.3226 55.1341 81.2754 54.9997 81.2513C55.013 79.0592 54.989 76.865 55.013 74.6728" fill="white"/>
<path d="M67.2379 76.0514C68.3537 76.03 69.4665 76.045 70.5814 76.0386C71.2652 78.4341 71.9499 80.8298 72.6354 83.2256C72.0599 83.2256 71.4839 83.2256 70.9106 83.2127C70.4214 81.382 69.8913 79.5619 69.3935 77.7333C69.082 77.714 68.7704 77.7007 68.4588 77.6857C67.9439 79.5336 67.4303 81.3811 66.9182 83.2282C66.3427 83.2282 65.7689 83.2282 65.1956 83.2196C65.8964 80.8348 66.5933 78.45 67.2379 76.0527" fill="white"/>
<path d="M41.9719 80.0201C44.0949 78.6567 46.2137 77.2847 48.3663 75.9668C48.862 76.3153 49.3619 76.6534 49.8529 77.0101C48.3122 77.9688 46.8016 78.9773 45.2455 79.9099C47.5007 79.9528 49.7576 79.9034 52.015 79.936C52.0257 80.5291 52.0278 81.1218 52.0107 81.7149C48.6671 81.7256 45.3236 81.7411 41.9801 81.7084C41.9633 81.1454 41.9655 80.5828 41.9719 80.0201Z" fill="white"/>
<path d="M59.508 76.402C60.1296 76.4088 60.7509 76.3712 61.3671 76.2896C62.0966 77.4912 62.9575 78.6829 63.3322 80.0506C62.7498 80.0549 62.1679 80.0549 61.5881 80.0592C60.9032 78.8344 60.2098 77.6153 59.508 76.402Z" fill="white"/>
<path d="M84.0856 77.1355C84.6937 77.1162 85.3039 77.1162 85.9138 77.1291C85.9164 77.711 85.9164 78.294 85.9138 78.8779C85.3039 78.8929 84.6954 78.8929 84.0873 78.8672C84.0766 78.2891 84.0766 77.7136 84.0873 77.1355" fill="white"/>
<path d="M79.6039 81.7925C80.3399 80.6089 81.1274 79.4596 81.8677 78.2781C81.8892 79.1545 81.9025 80.0334 81.8806 80.9119C81.9021 81.241 81.6622 81.4964 81.5085 81.7624C80.6931 82.9679 79.9112 84.197 79.1108 85.4102C78.1478 83.9734 77.2153 82.5212 76.263 81.0758C76.2587 80.1149 76.2501 79.154 76.2737 78.1953C77.2084 79.5956 78.0916 81.0324 79.0482 82.4195C79.3181 82.3053 79.4396 82.0156 79.6061 81.7925" fill="white"/>
<path d="M34.3133 80.0894C35.8737 80.0375 37.4362 80.0633 38.9988 80.0744C39.0073 80.6521 39.0442 81.2331 38.9704 81.8099C37.4208 81.8854 35.8651 81.849 34.3154 81.8206C34.309 81.243 34.309 80.6671 34.3133 80.0894Z" fill="white"/>
<path d="M53.3359 83.8621C55.8374 83.8252 58.3372 83.8621 60.8388 83.8428C61.1249 84.1289 61.411 84.4167 61.6971 84.7062C61.6863 86.6172 61.6906 88.5304 61.6928 90.4453C61.4419 90.7071 61.1937 90.9719 60.9482 91.2397C60.1474 91.2568 59.3466 91.259 58.5449 91.2354C58.5557 90.6942 58.4866 90.1423 58.6162 89.6123C59.0685 89.5647 59.523 89.5818 59.9796 89.5775C59.9839 88.2382 59.9796 86.9005 59.9796 85.5632C57.7635 85.5504 55.5452 85.5916 53.3316 85.5418C53.3247 84.9813 53.3247 84.4214 53.3316 83.8621" fill="white"/>
<path d="M41.3183 84.4977C41.9026 84.4891 42.4876 84.4906 43.0736 84.502C43.0822 85.0859 43.0829 85.6717 43.0757 86.2594C42.4869 86.268 41.9004 86.2687 41.3162 86.2615C41.3082 85.6727 41.3082 85.0848 41.3162 84.4977" fill="white"/>
<path d="M72.2697 85.4431C72.9319 84.8852 73.5336 85.8152 74.1005 86.0869C74.1005 86.1388 74.1005 86.2448 74.1005 86.2967C72.6203 87.2512 71.1054 88.1537 69.6575 89.1579L70.4973 89.1514C70.9428 89.1514 71.3901 89.1564 71.8393 89.1665C71.8436 89.751 71.8436 90.3372 71.835 90.9217C70.0128 90.9479 68.1906 90.941 66.3684 90.926C66.3315 90.3741 66.3255 89.8201 66.3208 89.2703C68.2662 87.9399 70.296 86.7383 72.2676 85.4431" fill="white"/>
<path d="M44.6056 87.0662C46.9711 87.0576 49.3388 87.0448 51.7038 87.0727C51.7081 87.6546 51.7081 88.2375 51.7038 88.8215C49.3362 88.8562 46.9707 88.8408 44.6035 88.83C44.5928 88.2417 44.5949 87.6529 44.6035 87.0662" fill="white"/>
<path d="M50.9099 91.5593C51.5764 91.5529 52.2429 91.5507 52.9098 91.5636C53.5265 92.7906 54.3466 93.9205 54.8208 95.2166C54.2234 95.2492 53.6282 95.2492 53.0312 95.2535C52.3017 94.0351 51.6197 92.7876 50.9099 91.5593Z" fill="white"/>
<path d="M62.7236 93.4248C63.306 93.4205 63.8879 93.4291 64.4677 93.4677C64.4784 94.0501 64.4741 94.6342 64.4008 95.2144C63.8446 95.2167 63.2898 95.2167 62.7365 95.2144C62.715 94.6136 62.715 94.0201 62.7232 93.4248" fill="white"/>
<path d="M58.666 99.2162C58.666 97.8571 58.6355 96.4958 58.6874 95.1367C59.2741 95.1367 59.8625 95.1693 60.447 95.2225C60.4536 96.5535 60.4536 97.8852 60.447 99.2175C59.853 99.2267 59.2594 99.2267 58.666 99.2175" fill="white"/>
</svg>
