<svg width="120" height="120" viewBox="0 0 120 120" fill="none" xmlns="http://www.w3.org/2000/svg">
<circle cx="60" cy="60" r="60" fill="#E7EFF3"/>
<circle cx="59.9999" cy="38.1132" r="18.1132" fill="#88BDF3"/>
<circle cx="59.9999" cy="81.8866" r="18.1132" fill="#3075EE"/>
<circle cx="81.8866" cy="59.9999" r="18.1132" fill="#5795F1"/>
<circle cx="38.1132" cy="59.9999" r="18.1132" fill="#205FEC"/>
<path d="M55.7358 55.7358C49.1542 54.1354 44.0154 48.9967 42.415 42.415C48.9832 44.0393 54.1115 49.1676 55.7358 55.7358Z" fill="#134BEF"/>
<path d="M42.3774 77.6225C43.9778 71.0409 49.1166 65.9021 55.6982 64.3018C54.0739 70.8699 48.9456 75.9983 42.3774 77.6225Z" fill="#0932E8"/>
<path d="M64.2642 64.2642C70.8458 65.8645 75.9846 71.0033 77.5849 77.5849C71.0168 75.9607 65.8884 70.8323 64.2642 64.2642V64.2642Z" fill="#164BEA"/>
<path d="M77.6225 42.3774C76.0222 48.9591 70.8834 54.0978 64.3018 55.6982C65.926 49.13 71.0543 44.0017 77.6225 42.3774Z" fill="#3170F1"/>
</svg>
