<svg width="120" height="120" viewBox="0 0 120 120" fill="none" xmlns="http://www.w3.org/2000/svg">
<circle cx="60" cy="60" r="60" fill="#E7EFF3"/>
<path fill-rule="evenodd" clip-rule="evenodd" d="M20.7152 52.3156C23.8903 35.542 37.7775 22.5529 55.0322 20.2117C58.0149 19.7947 64.333 20.0192 67.6364 20.6607C75.5261 22.168 83.48 26.5619 88.9643 32.3348C98.2972 42.2451 101.985 55.7473 98.9707 69.0251C97.2388 76.6903 93.326 83.4895 87.4248 89.1021C81.8443 94.3619 75.5261 97.6333 67.7006 99.301C63.9161 100.103 56.0905 100.103 52.3061 99.301C46.8218 98.1143 42.0751 96.1259 37.4247 93.079C34.3779 91.0585 29.086 85.7346 26.9692 82.5915C20.9077 73.5152 18.7268 62.8994 20.7152 52.3156ZM88.419 36.6004C82.5499 29.3521 73.5377 24.4772 64.0123 23.3868C56.1226 22.5208 48.6178 24.1244 41.4016 28.2617C34.7948 32.0141 28.8294 38.9096 25.975 46.0616C20.3624 59.9488 23.4734 75.3433 34.0251 85.927C52.723 104.753 84.6345 98.0502 94.2882 73.2586C96.1163 68.6402 96.6936 65.2085 96.6936 59.628C96.6615 55.7153 96.5332 54.4324 95.8276 51.6101C94.3844 45.6768 92.2035 41.315 88.419 36.6004Z" fill="black"/>
<path fill-rule="evenodd" clip-rule="evenodd" d="M28.2521 62.0011C27.29 57.1903 29.9519 52.0268 34.1213 50.5194C35.6928 49.9742 38.8358 49.878 40.4715 50.327C44.6729 51.5136 47.5273 56.132 47.0783 61.0711C46.7255 64.6631 45.154 67.1968 42.2996 68.8004C40.7602 69.6343 40.3432 69.7305 37.553 69.7305C34.0571 69.7305 32.7743 69.2494 30.7858 67.1006C29.2784 65.529 28.7332 64.4065 28.2521 62.0011ZM43.3259 61.8728C43.9994 59.0826 43.0373 55.9075 41.145 54.5284C39.2207 53.1814 35.9173 53.1493 34.0571 54.4963C31.8121 56.0678 31.0424 60.59 32.5177 63.4764C34.9551 68.3193 42.043 67.2609 43.3259 61.8728Z" fill="black"/>
<path d="M77.5146 50.6481C71.4851 53.0535 69.7852 61.9374 74.3395 67.3255C76.809 70.2761 82.6461 70.8213 85.2439 68.3197L85.9495 67.6462L86.0457 68.5442C86.1419 69.346 86.2381 69.4102 87.7455 69.4102H89.3491L89.4453 64.3428L89.5415 59.3075H85.0194H80.5293V60.9111V62.5147H83.2554C86.2061 62.5147 86.3023 62.5788 85.4684 64.3107C84.8911 65.4974 82.8385 66.6841 81.2991 66.6841C77.6108 66.6841 75.3978 64.0862 75.3978 59.8848C75.4299 55.2344 78.4126 52.5724 82.4857 53.5346C84.0572 53.9194 85.6608 55.2985 85.6608 56.2927C85.6608 56.6135 86.1419 56.7418 87.5852 56.7418H89.4774L89.0284 55.2985C88.0342 51.931 85.5646 50.2312 81.4915 50.1029C79.6955 50.0387 78.7012 50.167 77.5146 50.6481Z" fill="black"/>
<path d="M49.7403 59.9489V69.5705H51.3439H52.9475L53.0116 63.0919L53.1078 56.5813L55.4812 63.0919L57.8545 69.6025L59.4581 69.5063L61.0617 69.4101L63.4029 62.9957L65.7442 56.5813L65.8404 62.9957L65.9366 69.4101L67.6364 69.5063L69.3042 69.6025L69.24 60.0451L69.1438 50.4877H66.9308H64.6858L62.1201 57.6076C60.7089 61.5525 59.4581 64.6635 59.3619 64.5031C59.2336 64.3748 58.079 61.328 56.7961 57.7039C55.5132 54.0797 54.2945 50.9367 54.1341 50.7122C53.9417 50.4877 53.0437 50.3273 51.7929 50.3273H49.7403V59.9489Z" fill="black"/>
</svg>
