<svg width="120" height="120" viewBox="0 0 120 120" fill="none" xmlns="http://www.w3.org/2000/svg">
<circle cx="60" cy="60" r="60" fill="#EDF0F4"/>
<path fill-rule="evenodd" clip-rule="evenodd" d="M60.0015 94.9782C79.3201 94.9705 94.9819 79.3171 95 59.9985C94.9578 40.3637 79.0111 25.0211 60.0437 25C40.9076 24.979 25.1272 40.4246 25.0007 59.7714C24.8766 79.2399 40.6571 94.9782 60.0015 94.9782ZM60.062 34.2752C74.2285 34.3396 85.684 45.8318 85.7032 59.9984C85.6822 66.8551 82.931 73.4211 78.0578 78.2446C73.1845 83.0682 66.5907 85.752 59.7342 85.7028C45.8926 85.5553 34.2827 74.2427 34.3037 59.9586C34.3037 45.7213 45.9512 34.2354 60.062 34.2752Z" fill="#1C347A"/>
<path fill-rule="evenodd" clip-rule="evenodd" d="M39.54 27.8967C34.8705 30.8955 30.8858 34.8451 27.8457 39.4879V27.9177C28.0939 27.8358 38.7251 27.81 39.54 27.8967ZM92.0963 27.8452C88.2185 27.8452 84.3407 27.8452 80.4629 27.885C85.106 30.9135 89.0678 34.8753 92.0963 39.5184V27.8452ZM92.0963 92.2056V80.4622C89.084 85.1484 85.1206 89.1493 80.4629 92.2056H92.0963ZM27.9187 92.1378H39.4889C34.852 89.0983 30.9035 85.121 27.8976 80.4623C27.8157 80.9423 27.8368 91.8662 27.9187 92.1378Z" fill="#1C347A"/>
</svg>
