<svg width="120" height="120" viewBox="0 0 120 120" fill="none" xmlns="http://www.w3.org/2000/svg">
<circle cx="60" cy="60" r="60" fill="#EDF0F4"/>
<path d="M28.0439 56.9561C29.7246 56.9563 31.0869 58.3193 31.0869 60C31.0869 75.8084 43.7739 88.6537 59.5215 88.9092L60 88.9131C61.6807 88.9131 63.0437 90.2754 63.0439 91.9561C63.0439 93.6369 61.6809 95 60 95C40.67 95 25 79.33 25 60C25 58.3191 26.3631 56.9561 28.0439 56.9561ZM60 38.6953C71.7658 38.6955 81.3035 48.2342 81.3037 60C81.3035 71.7658 71.7658 81.3035 60 81.3037C48.2342 81.3035 38.6955 71.7658 38.6953 60C38.6955 48.2342 48.2342 38.6955 60 38.6953ZM90.3252 66.8076C92.2225 66.8076 93.7607 68.3459 93.7607 70.2432C93.7606 72.1403 92.2224 73.6777 90.3252 73.6777C88.4282 73.6776 86.8908 72.1402 86.8906 70.2432C86.8906 68.346 88.4281 66.8078 90.3252 66.8076ZM60 47.8262C53.2768 47.8264 47.8264 53.2768 47.8262 60C47.8264 66.7232 53.2768 72.1736 60 72.1738C66.7232 72.1736 72.1736 66.7232 72.1738 60C72.1736 53.2768 66.7232 47.8264 60 47.8262ZM60 25C79.33 25 95 40.67 95 60C95 61.6809 93.6369 63.0439 91.9561 63.0439C90.3039 63.0437 88.9592 61.7263 88.9141 60.085L88.9131 60C88.9131 44.0318 75.9683 31.0869 60 31.0869C58.3193 31.0869 56.9563 29.7246 56.9561 28.0439C56.9561 26.3631 58.3191 25 60 25ZM29.668 46.2939C31.5651 46.2941 33.1025 47.8323 33.1025 49.7295C33.1023 51.6265 31.565 53.1639 29.668 53.1641C27.7708 53.1641 26.2327 51.6266 26.2324 49.7295C26.2324 47.8322 27.7707 46.2939 29.668 46.2939Z" fill="url(#paint0_linear_107_20966)"/>
<defs>
<linearGradient id="paint0_linear_107_20966" x1="6.68337" y1="51.5633" x2="51.7439" y2="114.79" gradientUnits="userSpaceOnUse">
<stop stop-color="#126AB2"/>
<stop offset="1" stop-color="#14B088"/>
</linearGradient>
</defs>
</svg>
