<svg width="120" height="120" viewBox="0 0 120 120" fill="none" xmlns="http://www.w3.org/2000/svg">
<circle cx="60" cy="60" r="60" fill="#EDF0F4"/>
<path d="M45.1224 69.5067C45.0972 69.8345 44.8715 70.1123 44.5558 70.2041C44.2402 70.296 43.9007 70.1826 43.7036 69.9195L32.3531 59.3481C32.0636 59.1612 31.9152 58.8182 31.9774 58.4793C32.0395 58.1403 32.2999 57.8722 32.6369 57.8003L48.5275 51.4646C49.2653 51.1706 49.709 51.5575 49.513 52.3314L45.1224 69.5067Z" fill="#404A72"/>
<path d="M35.7326 79.552C35.1289 80.0679 34.5201 79.8564 34.3808 79.0722L31.2853 61.8917C31.1408 61.1075 31.5019 60.9114 32.0849 61.4532L42.8679 71.5138C43.1458 71.7611 43.3017 72.1175 43.2947 72.4895C43.2878 72.8614 43.1187 73.2117 42.8318 73.4485L35.7326 79.552Z" fill="#556195"/>
<path d="M48.7338 48.0441C48.986 48.284 49.0903 48.6407 49.0072 48.9787C48.924 49.3166 48.6661 49.5842 48.3314 49.6796L32.5388 55.9998C31.7958 56.2939 31.4192 55.9276 31.6978 55.1795L38.1882 37.7359C38.244 37.4111 38.4969 37.156 38.821 37.0971C39.1452 37.0383 39.4716 37.1883 39.638 37.4727L48.7338 48.0441Z" fill="#556195"/>
<path d="M32.1829 76.6318C32.3273 77.416 32.0849 77.5089 31.667 76.8433L25.5171 67.376C25.0861 66.633 25.1182 65.7089 25.5996 64.9976L28.334 61.3293C28.8139 60.6895 29.3195 60.8134 29.4588 61.5924L32.1829 76.6318Z" fill="#556195"/>
<path d="M30.2533 54.1061C29.9747 54.8542 29.5414 54.8491 29.2885 54.1061L27.199 47.8066C26.9693 46.9706 27.2034 46.0756 27.813 45.4591L35.2785 38.6953C35.8667 38.1793 36.1246 38.3341 35.846 39.0822L30.2533 54.1061Z" fill="#556195"/>
<path d="M28.2825 56.5309C28.5164 57.3913 28.3678 58.3108 27.875 59.0538L25.7338 61.9378C25.254 62.5776 24.9341 62.4538 25.0115 61.6592L26.0331 51.6863C26.1105 50.8918 26.3891 50.8608 26.6367 51.6192L28.2825 56.5309Z" fill="#556195"/>
<path d="M36.7075 34.0724C36.9757 34.3768 36.7075 35.0681 36.1141 35.6202L32.74 38.6487C32.1466 39.1646 32.0538 39.0976 32.5284 38.4578L35.3196 34.676C35.8355 34.0363 36.4443 33.7732 36.7075 34.0724Z" fill="#556195"/>
<path d="M57.8969 87.1515C57.7696 87.4596 57.4743 87.6651 57.1412 87.6774C56.8081 87.6896 56.4985 87.5062 56.3491 87.2083L47.5783 74.4338C47.3476 74.1998 47.286 73.8473 47.4238 73.549C47.5615 73.2506 47.8696 73.0687 48.1974 73.0924L65.837 71.2712C66.6264 71.1886 66.9463 71.6839 66.5439 72.3753L57.8969 87.1515Z" fill="#556195"/>
<path d="M54.2182 87.1617C54.6723 87.8221 54.4246 88.1471 53.6662 87.8943L37.1564 82.2707C36.4032 82.0127 36.2793 81.3781 36.883 80.857L43.9461 74.7587C44.2223 74.5095 44.5937 74.3935 44.9627 74.4411C45.3316 74.4888 45.6614 74.6952 45.8653 75.0064L54.2182 87.1617Z" fill="#556195"/>
<path d="M66.1931 68.3044C66.7091 68.908 66.4872 69.4652 65.6772 69.5478L47.7744 71.3948C47.4378 71.4653 47.0894 71.3471 46.8651 71.0863C46.6408 70.8256 46.5761 70.4634 46.6961 70.1411L51.1744 52.7129C51.3756 51.9442 51.9638 51.8049 52.4797 52.4085L66.1931 68.3044Z" fill="#6ECCE0"/>
<path d="M79.0551 83.2357C79.3144 83.4416 79.4163 83.7883 79.3099 84.1018C79.2034 84.4154 78.9115 84.6283 78.5804 84.6339L60.3681 88.4621C59.589 88.6272 59.2795 88.1989 59.6819 87.5076L68.2721 72.819C68.4187 72.505 68.721 72.2923 69.0661 72.2605C69.4112 72.2286 69.7473 72.3824 69.9489 72.6643L79.0551 83.2357Z" fill="#556195"/>
<path d="M49.7658 93.0384C48.9906 93.4065 48.0734 93.3003 47.4028 92.7649L38.9312 85.2994C38.3379 84.7835 38.4669 84.5513 39.2201 84.7835L53.6662 89.7003C54.4246 89.9583 54.4659 90.4793 53.7642 90.856L49.7658 93.0384Z" fill="#556195"/>
<path d="M69.4023 93.7504C68.7032 94.2613 67.7843 94.3597 66.9929 94.0084L61.1165 91.0108C60.4045 90.6445 60.4612 90.2163 61.2403 90.0512L76.9297 86.7492C77.7088 86.5841 77.8429 86.8627 77.229 87.3684L69.4023 93.7504Z" fill="#556195"/>
<path d="M52.9697 94.1369C52.17 94.1008 52.0978 93.7603 52.7994 93.3837L55.9569 91.6708C56.7713 91.2856 57.7131 91.2743 58.5366 91.6398L63.149 93.9873C63.861 94.3485 63.7887 94.6116 62.9942 94.5755L52.9697 94.1369Z" fill="#556195"/>
<path d="M81.9856 86.6407C82.2487 86.9451 81.8927 87.5075 81.1911 87.8841L77.0327 90.1026C76.3258 90.4793 76.2536 90.3709 76.8727 89.8653L80.3811 86.9967C81.0002 86.4911 81.7225 86.3312 81.9856 86.6407Z" fill="#556195"/>
<path d="M71.4763 68.1189C70.7334 68.413 70.2897 68.0261 70.4909 67.2522L74.9021 50.082C74.9284 49.7539 75.1544 49.476 75.4703 49.3833C75.7862 49.2906 76.1265 49.4023 76.326 49.6641L87.6765 60.2407C87.971 60.4245 88.1233 60.7696 88.0607 61.111C87.9981 61.4525 87.7333 61.7211 87.3927 61.7885L71.4763 68.1189Z" fill="#404A72"/>
<path d="M88.7287 57.6921C88.868 58.4763 88.512 58.6775 87.929 58.1306L77.1409 48.07C76.8637 47.8219 76.7087 47.465 76.7166 47.0931C76.7245 46.7211 76.8946 46.3712 77.1822 46.1352L84.2659 40.0318C84.8695 39.5158 85.4835 39.7274 85.6228 40.5116L88.7287 57.6921Z" fill="#556195"/>
<path d="M81.8157 81.8529C81.7554 82.1761 81.5012 82.428 81.1775 82.4854C80.8538 82.5428 80.5285 82.3936 80.3608 82.1109L71.2597 71.5395C70.9992 71.3012 70.8887 70.9401 70.9713 70.5968C71.0539 70.2534 71.3165 69.9822 71.657 69.8885L87.4651 63.5683C88.2029 63.2742 88.5847 63.6406 88.3061 64.3887L81.8157 81.8529Z" fill="#556195"/>
<path d="M94.4765 52.2076C94.9065 52.9503 94.8765 53.8729 94.3991 54.586L91.6595 58.2543C91.1849 58.894 90.6793 58.7702 90.5348 57.9912L87.8159 42.9518C87.6766 42.1676 87.9139 42.0747 88.3318 42.7403L94.4765 52.2076Z" fill="#556195"/>
<path d="M92.8047 71.7766C93.0344 72.6126 92.8003 73.5076 92.1907 74.1241L84.7252 80.888C84.1319 81.4039 83.8791 81.2491 84.1577 80.5062L89.7504 65.4771C90.0238 64.729 90.4572 64.7342 90.71 65.4771L92.8047 71.7766Z" fill="#556195"/>
<path d="M93.9606 67.897C93.8781 68.6915 93.6046 68.7173 93.3518 67.964L91.7163 63.0524C91.4793 62.1888 91.628 61.2649 92.1239 60.5192L94.2702 57.6454C94.7448 57.0057 95.0698 57.1295 94.9873 57.924L93.9606 67.897Z" fill="#556195"/>
<path d="M84.6429 84.9072C84.1631 85.5521 83.5595 85.8204 83.2912 85.5108C83.0229 85.2012 83.2912 84.515 83.8845 83.963L87.2432 80.919C87.8314 80.4031 87.9294 80.4702 87.4548 81.1099L84.6429 84.9072Z" fill="#556195"/>
<path d="M72.4357 45.1494C72.6664 45.3834 72.7279 45.7359 72.5902 46.0342C72.4525 46.3326 72.1444 46.5145 71.8166 46.4908L54.1769 48.312C53.3824 48.3946 53.0625 47.8993 53.465 47.2131L62.1068 32.4317C62.234 32.1236 62.5293 31.9181 62.8624 31.9058C63.1955 31.8936 63.5051 32.077 63.6546 32.3749L72.4357 45.1494Z" fill="#404A72"/>
<path d="M76.0785 44.8244C75.8023 45.0736 75.4309 45.1896 75.062 45.142C74.693 45.0944 74.3632 44.8879 74.1593 44.5767L65.7599 32.4214C65.3111 31.761 65.5587 31.436 66.312 31.694L82.8218 37.3073C83.575 37.5653 83.6988 38.1999 83.0952 38.7209L76.0785 44.8244Z" fill="#556195"/>
<path d="M68.8038 66.8701C68.6078 67.644 68.0196 67.7781 67.4985 67.1745L53.8109 51.2838C53.295 50.6802 53.5116 50.1178 54.3268 50.0353L72.2244 48.1883C72.5619 48.1154 72.9122 48.2326 73.1379 48.4938C73.3637 48.755 73.4289 49.1186 73.3079 49.442L68.8038 66.8701Z" fill="#556195"/>
<path d="M51.7263 46.7643C51.582 47.081 51.2792 47.2961 50.9328 47.328C50.5863 47.36 50.2493 47.204 50.0495 46.9191L40.9485 36.3529C40.6898 36.1475 40.5876 35.8021 40.6927 35.4891C40.7978 35.176 41.0878 34.9623 41.418 34.9547L59.6303 31.1213C60.4145 30.9562 60.7241 31.3845 60.3217 32.0758L51.7263 46.7643Z" fill="#556195"/>
<path d="M66.3066 29.8628C65.5533 29.6048 65.512 29.0889 66.2137 28.7071L70.2483 26.5505C71.0234 26.1824 71.9406 26.2885 72.6112 26.8239L81.0622 34.2894C81.6607 34.8054 81.5317 35.0375 80.7784 34.8054L66.3066 29.8628Z" fill="#556195"/>
<path d="M43.0947 32.8343C42.3157 32.9994 42.1815 32.7415 42.8007 32.2255L50.5964 25.8332C51.2975 25.3224 52.2177 25.2241 53.0109 25.5752L58.9132 28.5779C59.6251 28.9391 59.5684 29.3673 58.7893 29.5324L43.0947 32.8343Z" fill="#556195"/>
<path d="M64.047 27.9123C63.2326 28.2975 62.2908 28.3088 61.4674 27.9433L56.824 25.5958C56.1533 25.2346 56.2204 24.9715 57.0201 25.0025L67.0343 25.4668C67.8236 25.5184 67.9062 25.8434 67.2045 26.2201L64.047 27.9123Z" fill="#556195"/>
<path d="M39.6229 32.5866C39.0038 33.1025 38.2815 33.2521 38.0183 32.9477C37.7552 32.6433 38.1112 32.0758 38.8129 31.7043L42.9713 29.4807C43.6729 29.104 43.7452 29.2124 43.1312 29.718L39.6229 32.5866Z" fill="#556195"/>
<path d="M34.2882 83.0857C34.5926 82.8174 35.2839 83.0857 35.836 83.6739L38.88 87.0326C39.3959 87.6259 39.3288 87.7188 38.6891 87.2441L34.9021 84.4323C34.2418 83.9576 33.9735 83.3488 34.2882 83.0857Z" fill="#556195"/>
<path d="M86.846 37.808C87.1556 37.5397 87.7179 37.9009 88.0894 38.6026L90.3131 42.761C90.6845 43.4678 90.5814 43.5349 90.0757 42.9209L87.2072 39.4126C86.7016 38.7935 86.5416 38.0712 86.846 37.808Z" fill="#556195"/>
<path d="M85.1176 35.1508C85.7574 35.6254 86.0308 36.2342 85.7212 36.4974C85.4117 36.7605 84.7255 36.4974 84.1735 35.9092L81.1295 32.5505C80.6135 31.9572 80.6806 31.8643 81.3204 32.339L85.1176 35.1508Z" fill="#556195"/>
<path d="M32.797 80.171C33.3129 80.7901 33.4626 81.5124 33.153 81.7755C32.8434 82.0386 32.2862 81.6826 31.9096 80.981L29.6911 76.8226C29.3145 76.1157 29.4228 76.0487 29.9284 76.6626L32.797 80.171Z" fill="#556195"/>
</svg>
