<svg width="120" height="120" viewBox="0 0 120 120" fill="none" xmlns="http://www.w3.org/2000/svg">
<circle cx="60" cy="60" r="60" fill="#EDF0F4"/>
<path d="M41.3868 31.8361C40.1108 33.9841 37.3349 34.692 35.187 33.4161C33.0391 32.1401 32.3311 29.3642 33.607 27.2163C34.883 25.0684 37.6589 24.3604 39.8068 25.6363C41.9548 26.9123 42.6627 29.6882 41.3868 31.8361Z" fill="#5F45BA"/>
<path d="M25.9434 29.8284C25.0434 31.3443 23.0795 31.8443 21.5636 30.9443C20.0476 30.0443 19.5476 28.0844 20.4476 26.5645C21.3476 25.0445 23.3115 24.5485 24.8274 25.4485C26.3474 26.3525 26.8474 28.3124 25.9434 29.8284Z" fill="#5F45BA"/>
<path d="M68.9341 95.3061C85.5095 93.3581 98.8411 79.8066 99.9291 62.5591C101.153 43.1518 86.4095 26.4283 67.0021 25.2084C64.7262 25.0644 62.4423 25.1444 60.1824 25.4404C55.5185 25.8203 51.5786 27.6003 51.5786 27.6003C48.3867 29.1602 46.3268 31.7682 46.3268 35.256C46.3268 39.7919 50.0027 43.4718 54.5385 43.4718C55.2985 43.4718 57.9224 42.6398 58.5464 42.4238C60.9303 41.5918 63.4582 41.2478 65.9782 41.4118C72.6819 41.8358 78.3498 45.6917 81.3857 51.1595C83.1456 54.3274 83.9576 57.9313 83.7256 61.5472C83.0656 72.0068 74.0539 79.9546 63.5902 79.2946C57.4104 78.9026 52.1106 75.5947 48.9387 70.7989V70.8029V70.7989C45.1468 65.839 46.0228 57.9073 46.0188 57.8073C45.8628 53.3954 42.2509 49.8676 37.8031 49.8676C34.0032 49.8676 30.8153 52.4475 29.8674 55.9474C29.6834 56.6353 29.5874 58.6513 29.6154 58.9193C28.8314 77.9906 43.4269 94.2821 62.5703 95.4861C64.6942 95.6181 66.8221 95.5581 68.9341 95.3061Z" fill="#5F45BA"/>
<path d="M36.6751 44.3957C35.0192 47.1836 31.4193 48.0996 28.6354 46.4437C25.8515 44.7877 24.9315 41.1878 26.5874 38.4039C28.2434 35.62 31.8433 34.7001 34.6272 36.356C37.4111 38.012 38.3271 41.6118 36.6751 44.3957Z" fill="#5F45BA"/>
</svg>
