<svg width="120" height="120" viewBox="0 0 120 120" fill="none" xmlns="http://www.w3.org/2000/svg">
<path d="M60 0C93.1371 0 120 26.8629 120 60C120 93.1371 93.1371 120 60 120C26.8629 120 0 93.1371 0 60C0 26.8629 26.8629 0 60 0Z" fill="#1A82FF"/>
<path d="M81.936 84.7061C76.7417 91.0696 69.4366 94.2513 60.0206 94.2513C50.6046 94.2513 43.2983 91.0696 38.1017 84.7061C32.904 78.3393 30.3063 70.1096 30.3086 60.017C30.3109 49.9244 32.9075 41.6959 38.0983 35.3313C43.2926 28.9644 50.5989 25.7816 60.0172 25.7827C69.4355 25.7839 76.7406 28.9667 81.9326 35.3313C87.1269 41.6947 89.7246 49.9233 89.7257 60.017C89.7269 70.1107 87.1303 78.3404 81.936 84.7061Z" fill="white"/>
<path d="M59.9108 80.945C62.3896 80.945 64.4971 80.2696 66.2331 78.9187C67.9691 77.5678 69.2262 75.7358 70.0045 73.4227C70.7816 71.1084 71.3302 68.8901 71.6502 66.7678C71.9702 64.6456 72.1291 62.3953 72.1268 60.017C72.1268 57.089 71.9496 54.4684 71.5953 52.1553L50.2388 74.4101C52.2136 78.7644 55.4376 80.9427 59.9108 80.945Z" fill="#1A82FF"/>
<path d="M60.1233 39.0894C57.6444 39.0894 55.537 39.7648 53.801 41.1156C52.065 42.4665 50.8078 44.2985 50.0295 46.6116C49.2478 48.9259 48.6993 51.1442 48.3838 53.2665C48.0638 55.3888 47.905 57.6391 47.9073 60.0174C47.9073 61.5842 47.9575 63.0631 48.0581 64.4539L68.4273 43.2311C66.449 40.4711 63.681 39.0905 60.1233 39.0894Z" fill="#1A82FF"/>
<path fill-rule="evenodd" clip-rule="evenodd" d="M66.8195 57.0822L69.4424 59.5988L89.3315 38.8662L86.7086 36.3496L66.8195 57.0822ZM29.3452 78.7165L31.9681 81.233L51.8572 60.5005L49.2344 57.9839L29.3452 78.7165Z" fill="#1A82FF"/>
</svg>
