<svg width="120" height="120" viewBox="0 0 120 120" fill="none" xmlns="http://www.w3.org/2000/svg">
<circle cx="60" cy="60" r="60" fill="#EDF0F4"/>
<circle cx="60.2943" cy="94.1177" r="5.88237" fill="#2261F6"/>
<circle cx="60.2943" cy="25.8824" r="5.88237" fill="#2261F6"/>
<circle cx="60.294" cy="43.1371" r="4.7059" fill="#2261F6"/>
<circle cx="43.8236" cy="34.5096" r="4.7059" fill="#2261F6"/>
<circle cx="43.8236" cy="85.8827" r="4.7059" fill="#2261F6"/>
<circle cx="75.0001" cy="51.9608" r="4.7059" fill="#2261F6"/>
<circle cx="75.0001" cy="68.2357" r="4.7059" fill="#2261F6"/>
<circle cx="60.294" cy="76.8631" r="4.7059" fill="#2261F6"/>
<circle cx="60.2942" cy="59.9999" r="3.7255" fill="#2261F6"/>
<circle cx="43.8236" cy="68.432" r="3.7255" fill="#2261F6"/>
<circle cx="43.8236" cy="51.9608" r="3.7255" fill="#2261F6"/>
<circle cx="27.7451" cy="43.1372" r="2.74511" fill="#2261F6"/>
<circle cx="27.7451" cy="60" r="2.74511" fill="#2261F6"/>
<circle cx="27.7451" cy="76.8623" r="2.74511" fill="#2261F6"/>
<circle cx="75.0001" cy="34.5103" r="5.88237" fill="#2261F6"/>
<circle cx="75.0001" cy="85.6866" r="5.88237" fill="#2261F6"/>
<circle cx="89.7059" cy="43.1372" r="5.88237" fill="#2261F6"/>
<circle cx="89.7059" cy="76.8628" r="5.88237" fill="#2261F6"/>
<circle cx="89.7059" cy="59.9996" r="5.88237" fill="#2261F6"/>
</svg>
