<svg width="120" height="120" viewBox="0 0 120 120" fill="none" xmlns="http://www.w3.org/2000/svg">
<circle cx="60" cy="60" r="60" fill="#E7EFF3"/>
<path d="M44.0428 34.828C45.4128 33.268 46.6728 31.948 47.8728 30.828C27.6128 30.178 33.5128 44.828 26.8728 59.698C19.2728 76.838 27.7728 83.368 40.4328 85.408C38.6649 83.3013 37.2223 80.9418 36.1528 78.408C27.9828 68.078 31.2928 49.248 44.0428 34.828Z" fill="#EFE812"/>
<path d="M92.7928 53.0879C90.4003 59.3471 86.9389 65.1432 82.5628 70.2179C79.0547 74.4814 74.8524 78.1225 70.1328 80.9879C64.6517 84.4611 58.2813 86.2708 51.7928 86.1979C48.0046 86.2319 44.2196 85.9678 40.4728 85.4079C42.5531 87.8928 45.1321 89.9131 48.0428 91.3379C66.3628 100.198 67.5128 83.7479 86.8928 75.3979C97.7728 70.7079 97.8128 61.5479 92.7828 53.0879" fill="#EDE70A"/>
<path d="M70.1329 35.9879C72.785 36.4521 75.3405 37.358 77.6929 38.6679C83.8554 42.1328 89.0479 47.0915 92.7929 53.0879C96.0929 43.7879 94.5529 36.4879 87.3429 35.1679C79.4029 33.7179 73.2029 33.2479 67.2429 29.0879C59.9029 23.9879 53.4629 25.6479 47.8829 30.8379L49.0929 30.8879C56.8329 31.3479 64.2329 32.8879 70.0929 35.9679" fill="#EDE70A"/>
<path d="M44.0428 34.8281C31.2928 49.2481 27.9828 68.0781 36.1928 78.4081C32.3422 69.3166 32.998 58.9424 37.9628 50.4081C44.8728 38.8881 58.7428 33.8881 70.1328 35.9881C64.2328 32.8681 56.8328 31.3681 49.1328 30.9081L47.9228 30.8481C46.6828 31.9881 45.4228 33.2681 44.0428 34.8281Z" fill="#DEC21C"/>
<path d="M77.6929 38.6478C75.3392 37.3449 72.7838 36.4458 70.1329 35.9878C77.8929 40.0678 83.0429 46.9878 83.0429 57.9278C82.9515 67.3125 78.0855 76.0042 70.1329 80.9878C74.8547 78.1255 79.0574 74.484 82.5629 70.2178C86.9389 65.1431 90.4004 59.347 92.7929 53.0878C89.0505 47.084 83.8578 42.1183 77.6929 38.6478Z" fill="#E5CB22"/>
<path fill-rule="evenodd" clip-rule="evenodd" d="M37.9628 50.3579C44.8728 38.8879 58.7428 33.8879 70.1328 35.9879C77.8928 40.0679 83.0428 46.9879 83.0428 57.9279C82.9533 67.3131 78.0869 76.0056 70.1328 80.9879C64.6517 84.4611 58.2813 86.2708 51.7928 86.1979C48.0046 86.232 44.2196 85.9678 40.4728 85.4079C38.7014 83.3037 37.2584 80.9437 36.1928 78.4079C32.3206 69.303 32.9768 58.9039 37.9628 50.3579ZM42.7328 70.1679C48.4099 78.9093 60.083 81.4209 68.8528 75.7879C77.6228 70.1779 78.8128 59.2479 74.4828 49.7879C70.0428 40.0779 57.8628 37.4179 48.3628 44.1679C39.8728 50.1679 37.0728 61.4379 42.7328 70.1679Z" fill="#CCA727"/>
</svg>
