<svg width="120" height="120" viewBox="0 0 120 120" fill="none" xmlns="http://www.w3.org/2000/svg">
<circle cx="60" cy="60" r="60" fill="#EDF0F4"/>
<path d="M38.1818 88.0212C39.6363 89.7111 42.1818 92.2351 46.0106 94.2672C50.4598 96.6201 54.5668 97.1763 56.9197 97.326C58.3101 97.2619 60.5775 97.0052 63.1229 95.8715C65.6684 94.7378 67.3796 93.2405 68.3636 92.2351C69.4331 91.2726 70.9946 89.9036 72.9197 88.2779C77.1764 84.6415 79.3582 82.802 81.8609 81.1121C83.1443 80.2351 84.8769 79.1656 87.016 78.0533C88.1497 77.4758 89.3048 76.9624 90.4812 76.4918C92.0641 75.8501 94.7165 74.4597 96.8983 71.6362C99.5294 68.1923 99.9144 64.6202 99.9999 63.2939C99.893 61.6041 99.5721 59.3153 98.6524 56.7699C97.9251 54.7378 97.0481 53.0907 96.2352 51.8501C93.0909 57.4758 86.2673 67.8501 73.6684 76.2351C59.0588 85.9677 44.7058 87.6576 38.1818 88.0212Z" fill="#0293D6"/>
<path d="M46.3744 27.2938C47.2086 26.4382 48.2781 25.4971 49.6685 24.6414C53.2621 22.4168 56.8557 22.0746 58.7808 22.0318C59.6792 21.9676 60.9412 21.9676 62.4172 22.3527C64.5776 22.9088 66.0535 23.9997 66.8664 24.6628C68.7701 25.989 71.2514 27.465 74.353 28.7056C78.7166 30.4596 82.6311 31.0586 85.476 31.2725C86.0535 31.2938 86.8878 31.3366 87.8717 31.5077C89.6257 31.8286 93.5402 32.5131 96.0642 35.7003C98.0321 38.1815 98.246 41.0479 98.2674 42.3954C98.2033 43.7858 98.0107 45.4115 97.6257 47.2083C97.2407 49.0051 96.7487 50.5666 96.2354 51.8714C79.615 43.6789 62.9947 35.4864 46.3744 27.2938H46.3744Z" fill="#EBE638"/>
<path d="M38.1818 88.0214C36.3422 87.7861 33.7112 87.2727 30.7807 86.0107C27.7647 84.7058 23.9572 83.0802 21.7112 79.123C20.2781 76.5989 20 74.0534 20 72.3422C20.0214 70.7593 20.1497 68.877 20.5775 66.7807C21.1979 63.6363 22.246 61.0695 23.1872 59.1871C23.9786 57.3048 24.7487 55.1657 25.4332 52.8342C26.4171 49.4759 26.9947 46.3957 27.3583 43.6791C27.615 41.8609 27.9572 40.385 28.2567 39.3369C28.877 37.0909 29.4545 35.0588 30.9733 32.9625C31.8289 31.7647 32.7273 30.9091 33.3262 30.3957C34.7594 29.4759 37.0909 28.2139 40.2353 27.5722C42.738 27.0588 44.8984 27.123 46.3957 27.2941C42.9947 32.1283 36.984 42.032 34.9519 56.0641C32.8128 70.7379 36.1711 82.4171 38.1818 88.0214Z" fill="#BAD147"/>
<path d="M46.3743 27.2939C46.0321 27.2725 57.861 28.0426 65.1123 30.5666C67.2727 31.3153 69.2406 32.1709 71.0374 33.0479C68.7059 32.8982 53.8182 32.2351 42.4385 43.6789C28.1711 58.0319 32.8128 78.0319 33.0695 79.1442C31.6791 77.3688 29.5829 74.1602 28.7487 69.6682C28.3636 67.6361 28.3422 65.8393 28.4278 64.3634C28.5775 60.2992 29.2834 54.8661 31.4652 48.834C35.508 37.7324 42.4385 30.7163 46.3743 27.2939Z" fill="#78B650"/>
<path d="M74.9519 80.2136C76.8984 76.727 80.5989 68.9195 80.3423 58.481C80 45.1548 73.4332 36.0425 71.0588 33.0479C72.4064 33.2618 74.353 33.6896 76.5989 34.5238C81.5187 36.3847 84.6417 39.1227 87.4653 41.6468C89.8824 43.8072 93.1337 47.1227 96.2353 51.8714C94.8022 55.6361 92.6631 60.1708 89.4332 64.9195C84.5562 72.1281 79.0802 77.0692 74.9519 80.2136Z" fill="#2F8260"/>
<path fill-rule="evenodd" clip-rule="evenodd" d="M71.4011 33.0476C73.4973 34.0744 78.3102 36.7909 81.8823 42.4594C85.7968 48.684 85.8823 54.7802 85.7968 57.069C85.3048 70.9514 75.8075 79.7642 74.9091 80.5342C68.4769 86.0506 61.1752 87.4527 57.9241 88.077L57.8823 88.085C55.0588 88.6198 52.6631 88.7695 50.9305 88.7909C48.8556 88.9193 46.4813 88.9407 43.8717 88.7268C41.9251 88.577 40.1497 88.3203 38.5241 88.0209C36.9626 86.0316 35.1444 83.2722 33.6684 79.7428C31.3369 74.1599 30.9091 69.1118 30.8877 65.9032C30.9519 63.4219 31.4866 51.2936 41.3048 41.8818C53.5615 30.1385 69.6898 32.7481 71.4011 33.0476ZM58.3957 80.4701C59.7005 80.4701 68.2353 80.4059 74.1818 73.4754C78.9151 67.9781 78.9726 61.6172 78.9941 59.2413L78.9946 59.1867L78.9945 59.1819C78.972 58.3246 78.6336 45.4438 68.7914 40.085C64.2353 37.6038 59.7219 37.8604 58.4171 37.946C53.1551 38.3096 49.5615 40.7054 48.0428 41.7321C46.246 42.9727 38.139 48.8765 37.8396 59.208C37.6043 66.8872 41.8396 72.1278 42.6096 73.0476C48.5989 80.2348 57.1765 80.4487 58.3957 80.4701Z" fill="#085229"/>
</svg>
