<svg width="120" height="120" viewBox="0 0 120 120" fill="none" xmlns="http://www.w3.org/2000/svg">
<circle cx="60" cy="60" r="60" fill="#663300"/>
<path d="M44.2611 37.5315L48.9335 26L80.9374 26.1167C85.6097 26.4706 91.2166 26.4706 94.3714 30.4725C98.1092 34.8246 97.2906 41.059 95.4217 45.9984C91.7586 56.8082 82.7757 64.92 71.7085 67.4124C64.001 68.5907 56.1738 68.2368 48.3467 68.2368C49.9054 64.4081 51.4641 60.5643 53.019 56.7054C59.4445 56.7054 65.9858 57.0593 72.5271 56.0014C78.4853 54.4729 83.9763 48.4719 83.0418 41.8835C82.4549 39.06 79.3039 37.7649 76.6126 37.7649C65.8699 37.2943 55.1197 37.7649 44.377 37.5277H44.2611L44.2611 37.5315Z" fill="white"/>
<path fill-rule="evenodd" clip-rule="evenodd" d="M68.4378 40.7052H30.4758V40.709V40.8219L25.3324 53.7652H63.4179L68.4378 40.7052ZM49.7484 56.7054H36.6657L23 92H35.9705L49.7484 56.7054Z" fill="white"/>
</svg>
