<svg width="120" height="120" viewBox="0 0 120 120" fill="none" xmlns="http://www.w3.org/2000/svg">
<circle cx="60" cy="60" r="60" fill="#EDF0F4"/>
<path d="M73.8856 68.2397C76.2424 65.8803 80.0657 65.8782 82.4251 68.235C84.7609 70.5682 84.7863 74.3387 82.4998 76.7032L82.4298 76.7745L64.2689 94.9555C61.9121 97.3149 58.0889 97.317 55.7294 94.9602C53.3936 92.627 53.3682 88.8564 55.6547 86.4919L55.7247 86.4207L73.8856 68.2397Z" fill="#2E5B70"/>
<path d="M63.8716 26.6279C66.2301 24.2727 70.0507 24.2741 72.4077 26.6309L98.2319 52.4541C100.591 54.8132 100.589 58.6385 98.229 60.9961L82.4253 76.7803C80.0668 79.1358 76.2452 79.1343 73.8882 76.7773L48.0649 50.9541C45.7058 48.5949 45.7072 44.7698 48.0679 42.4121L63.8716 26.6279ZM60.8765 46.6865L78.1606 63.9707L85.4194 56.7207L68.1353 39.4375L60.8765 46.6865Z" fill="#2E5B70"/>
<path d="M37.5747 68.234C39.9105 65.9007 43.6811 65.8795 46.043 68.1687L46.1142 68.2387L64.2751 86.42C66.6318 88.7794 66.6297 92.6026 64.2703 94.9594C61.9344 97.2927 58.1639 97.3139 55.8019 95.0247L55.7308 94.9547L37.5699 76.7735C35.2131 74.414 35.2153 70.5908 37.5747 68.234Z" fill="#74E1AC"/>
<path d="M48.4531 25.7686C50.8101 23.4117 54.6307 23.4105 56.9893 25.7656L72.7939 41.5498C75.1543 43.9075 75.155 47.7327 72.7959 50.0918L46.1123 76.7764C43.7553 79.1334 39.9337 79.1338 37.5752 76.7783L21.7715 60.9951C19.4108 58.6375 19.4094 54.8123 21.7686 52.4531L48.4531 25.7686ZM34.5811 56.7197L41.8398 63.9697L59.9844 45.8242L52.7256 38.5752L34.5811 56.7197Z" fill="#74E1AC"/>
<path d="M63.8081 49.6182L82.4263 68.2373L73.8872 76.7764L55.2681 58.1582L50.9985 53.8887L59.5376 45.3486L63.8081 49.6182Z" fill="#2E5B70"/>
<path d="M73.8867 76.7764C76.2449 79.1344 80.0682 79.1344 82.4261 76.7764C84.7843 74.4183 84.7843 70.595 82.4261 68.2368L73.8867 76.7764Z" fill="#2E5B70"/>
<path d="M73.8856 68.2397C76.2424 65.8803 80.0657 65.8782 82.4251 68.235C84.7609 70.5682 84.7863 74.3387 82.4998 76.7032L82.4298 76.7745L64.2689 94.9555C61.9121 97.3149 58.0889 97.317 55.7294 94.9602C53.3936 92.627 53.3682 88.8564 55.6547 86.4919L55.7247 86.4207L73.8856 68.2397Z" fill="#2E5B70"/>
</svg>
