<svg width="120" height="120" viewBox="0 0 120 120" fill="none" xmlns="http://www.w3.org/2000/svg">
<path fill-rule="evenodd" clip-rule="evenodd" d="M60 120C27 120 0 93.0006 0 59.7012C0.3 26.7019 27 -0.297518 60.3 0.00247602C93.3 0.30247 120 27.0019 120 60.6012C119.7 93.3006 93 120 60 120Z" fill="black"/>
<path fill-rule="evenodd" clip-rule="evenodd" d="M36.21 31.2845C36.0285 31.3127 35.8251 31.4384 35.7579 31.5635C35.6253 31.8113 35.5734 100.007 35.7057 100.351C35.847 100.719 36.2487 100.74 43.9647 100.774C50.8488 100.804 51.7824 100.787 52.0347 100.621L52.32 100.434V88.4318V76.4291L52.5975 76.1516L52.875 75.8741L59.3475 75.809C66.0666 75.7415 68.5107 75.5768 70.62 75.0491C71.016 74.9501 71.7657 74.7905 72.2859 74.6945C72.8064 74.5982 73.4067 74.4116 73.6203 74.2799C73.8336 74.1479 74.097 74.0399 74.2053 74.0399C74.6562 74.0399 78.603 72.1748 79.3002 71.6324C79.476 71.4956 80.0193 71.0915 80.5071 70.7348C82.2645 69.4493 85.8 65.516 85.8 64.8461C85.8 64.808 85.9008 64.6337 86.0244 64.4585C86.1477 64.2833 86.2872 64.0049 86.3343 63.8399C86.3814 63.6749 86.5446 63.2699 86.6973 62.9399C87.4392 61.3355 87.6 60.9341 87.6006 60.6872C87.6009 60.5402 87.7344 60.0419 87.8973 59.5799C88.8411 56.9054 88.7643 50.468 87.7452 46.7999C87.24 44.9825 86.0205 42.1613 85.4085 41.3945C85.2609 41.2097 84.843 40.6406 84.48 40.13C84.117 39.6194 83.496 38.8526 83.1 38.4263C81.0114 36.1775 77.2683 33.8396 74.5044 33.0581C74.1987 32.9717 73.7766 32.8118 73.566 32.7029C73.3557 32.5943 72.7686 32.4266 72.2616 32.3306C71.7549 32.2343 71.0961 32.0756 70.7979 31.9775C70.4997 31.8794 69.6627 31.7426 68.9379 31.6736C68.2131 31.6043 67.134 31.4873 66.54 31.4135C65.4969 31.2836 36.9942 31.1624 36.21 31.2845ZM65.3187 45.0656C70.5693 46.2626 73.1799 52.2143 70.8456 57.6665C69.1245 61.6859 66.8763 62.5199 57.7623 62.5199H52.8174L52.5663 62.2007C52.2456 61.7927 52.2249 45.3437 52.5447 44.9582C52.8609 44.5775 63.5721 44.6675 65.3187 45.0656Z" fill="#F8F8F8"/>
<path fill-rule="evenodd" clip-rule="evenodd" d="M36.4101 13.6769C36.2727 13.7321 36.0162 13.9484 35.8401 14.1578L35.52 14.5382V19.0214C35.52 23.9072 35.5362 24.0386 36.1755 24.3056C36.7548 24.5477 87.1665 24.5528 87.84 24.3107C88.5531 24.0545 88.5564 24.0314 88.5582 19.0439C88.5603 14.0558 88.5453 13.9436 87.8457 13.7C87.4038 13.5458 36.7926 13.523 36.4101 13.6769Z" fill="#DE0B14"/>
</svg>
