<svg width="120" height="120" viewBox="0 0 120 120" fill="none" xmlns="http://www.w3.org/2000/svg">
<circle cx="60" cy="60" r="60" fill="black"/>
<path fill-rule="evenodd" clip-rule="evenodd" d="M56.4304 66.4479C56.1524 66.0881 55.8621 65.7079 55.5759 65.3072C55.257 64.8574 55.1466 64.424 55.2447 63.9702C55.4573 62.9807 56.6389 62.1139 57.0764 61.8645L56.5367 60.8914C56.4549 60.9363 54.5333 62.0444 54.1694 63.7248C54.0017 64.4935 54.1734 65.2458 54.6804 65.9573C54.9748 66.3702 55.2733 66.7587 55.5595 67.1307C56.9865 68.9911 57.6325 69.9397 56.7534 71.1213C56.3773 71.6242 55.9439 71.9513 55.4818 72.2948C54.337 73.1534 53.1513 74.0407 53.552 77.3443L54.6436 77.2094C54.3206 74.5477 55.0811 73.9793 56.136 73.1902C56.6185 72.8304 57.1623 72.4215 57.6366 71.7878C59.0635 69.8743 57.7838 68.2102 56.4304 66.4479Z" fill="#DEC685"/>
<path fill-rule="evenodd" clip-rule="evenodd" d="M56.4674 61.1611C55.9726 61.476 54.6479 62.4327 54.3576 63.7657C54.2022 64.4771 54.3617 65.1763 54.84 65.8427C55.1344 66.2557 55.4288 66.64 55.7109 67.008C57.1583 68.897 57.8698 69.9396 56.9089 71.2316C56.5164 71.7591 56.0707 72.0903 55.5965 72.446C54.468 73.2924 53.4008 74.0897 53.7197 77.1235L54.4271 77.0335C54.1531 74.4249 54.975 73.8075 56.0135 73.0307C56.4878 72.675 57.0193 72.2784 57.4773 71.6691C58.8184 69.8701 57.6408 68.3368 56.2752 66.5582C55.9971 66.1943 55.7028 65.8141 55.4165 65.4093C55.0608 64.9105 54.9423 64.4239 55.0527 63.9169C55.2612 62.9643 56.2793 62.1343 56.8149 61.7867L56.4674 61.1611ZM53.3804 77.561L53.3558 77.3688C52.9388 73.9506 54.2267 72.9898 55.3593 72.1393C55.8091 71.8041 56.2384 71.4811 56.5941 71.0027C57.3587 69.9764 56.9008 69.2036 55.4002 67.2492C55.0976 66.8608 54.8032 66.4683 54.517 66.0717C53.9773 65.3153 53.7933 64.5098 53.9732 63.6839C54.3453 61.9707 56.2179 60.8463 56.4346 60.7236L56.6064 60.6255L57.3342 61.938L57.1706 62.032C56.7822 62.2528 55.6292 63.091 55.4329 64.011C55.347 64.4035 55.4452 64.7919 55.7314 65.1967C56.0176 65.5974 56.3038 65.9736 56.5818 66.3334C57.9188 68.0752 59.3008 69.8783 57.788 71.9104C57.2974 72.5646 56.7413 72.9816 56.2506 73.3496C55.2121 74.1265 54.5252 74.6416 54.836 77.1889L54.8605 77.3811L53.3804 77.561ZM43.2404 43.1381C37.5448 42.9132 36.2078 45.0639 36.0892 46.912C36.036 47.7461 36.0974 48.6742 36.1669 49.6596C36.3141 51.8184 36.4654 54.055 35.3369 55.1834C34.6745 55.8458 33.5951 56.1075 32.0373 55.9848L31.9514 57.097C32.2254 57.1174 32.487 57.1297 32.7405 57.1297C34.2288 57.1297 35.3369 56.7494 36.1096 55.9767C37.5979 54.4884 37.4221 51.8838 37.2667 49.586C37.2013 48.6415 37.1441 47.7502 37.1891 46.9856C37.3158 45.0189 39.3356 44.0948 43.1995 44.2543L43.2404 43.1381Z" fill="#DEC685"/>
<path fill-rule="evenodd" clip-rule="evenodd" d="M32.1556 56.9211C33.8933 57.0274 35.1363 56.6758 35.9704 55.8417C37.3933 54.4147 37.2216 51.8552 37.0703 49.5982C37.0049 48.6497 36.9476 47.7542 36.9926 46.9733C37.1234 44.9126 39.1473 43.9313 43.0112 44.0539L43.0398 43.3262C38.7671 43.1912 36.4365 44.4383 36.2811 46.9242C36.228 47.7542 36.2893 48.6701 36.3588 49.6432C36.506 51.847 36.6614 54.1285 35.4716 55.3184C34.7969 55.993 33.7339 56.2792 32.217 56.1893L32.1556 56.9211ZM32.7403 57.3218C32.4827 57.3218 32.217 57.3136 31.9348 57.2891L31.7427 57.2728L31.8572 55.7763L32.0493 55.7926C33.5458 55.9112 34.5762 55.6659 35.1936 55.0444C36.2607 53.9773 36.1094 51.7857 35.9704 49.6678C35.905 48.6824 35.8396 47.7501 35.8927 46.8956C36.0154 44.9616 37.3892 42.7128 43.2442 42.9418L43.4364 42.95L43.3792 44.4506L43.187 44.4424C39.454 44.2911 37.4955 45.1497 37.3769 46.9937C37.3279 47.7461 37.3892 48.6333 37.4546 49.5696C37.6141 51.9084 37.7899 54.5619 36.2444 56.1116C35.4307 56.9293 34.2818 57.3218 32.7403 57.3218Z" fill="#DEC685"/>
<path fill-rule="evenodd" clip-rule="evenodd" d="M51.6589 61.8768C51.3808 61.5129 51.0905 61.1367 50.8043 60.7319C50.4486 60.2331 50.326 59.767 50.4282 59.3009C50.604 58.5077 51.3768 57.9066 51.7325 57.6695C52.5012 57.9761 53.4334 58.1806 54.57 58.2255V58.2337C54.6477 58.2337 54.7295 58.2337 54.8072 58.2296C54.8849 58.2337 54.9626 58.2337 55.0443 58.2337V58.2255C58.2049 58.1029 59.8036 56.7291 60.6132 55.3798C61.3696 55.6865 63.5366 56.7986 63.4385 59.4849C63.3894 60.8096 62.2814 62.073 61.206 63.2955C59.6809 65.0373 57.9473 67.0122 59.3906 69.355L60.327 68.7663C59.3865 67.2371 60.3433 65.9573 62.0319 64.0356C63.234 62.6659 64.477 61.2471 64.5383 59.5258C64.6242 57.1257 63.2545 55.6129 61.9624 54.8156C63.0419 54.7052 64.4116 54.3372 64.7428 53.6503C64.8613 53.4049 65.1721 52.7548 62.1955 45.6732C61.9829 44.6592 61.3818 41.7521 61.206 40.3374C63.418 37.2954 62.4286 34.1757 60.4292 32.4012C58.3603 30.5695 54.938 29.8989 52.2967 31.9801C51.5403 30.2506 49.6268 29.0321 47.0836 28.7173C42.5615 28.1612 39.2619 30.5736 38.113 33.0513C36.6288 36.2528 37.4465 38.5057 38.2315 39.7078C35.7824 39.7323 34.0774 40.3333 33.047 41.5231C31.3952 43.4285 31.9472 46.3028 32.3888 48.6171C32.5932 49.6924 32.8508 51.0294 32.5891 51.3565C31.7305 52.4359 30.7574 52.1252 30.3771 51.9412C29.727 51.6264 29.3181 51.0008 29.4326 50.4856L28.3573 50.2485C28.1365 51.2706 28.7866 52.4073 29.9069 52.947C30.8964 53.4254 32.3479 53.4417 33.4518 52.0516C34.0324 51.3238 33.7871 50.0358 33.4723 48.4044C33.0798 46.3315 32.585 43.7556 33.8811 42.255C34.8256 41.1633 36.686 40.6972 39.4132 40.8526L39.7852 39.859C39.7566 39.8386 37.1726 37.7084 39.1147 33.5256C40.5212 30.4918 44.1643 29.4778 46.9569 29.8212C48.8908 30.0584 51.0946 31.0356 51.4953 33.0718L52.4276 33.3539C54.0917 31.6448 57.2073 31.0233 59.7055 33.2394C61.2183 34.5805 62.2527 37.0787 60.2738 39.7364C55.2079 38.9513 51.4176 39.626 49.0217 41.7603C47.5661 43.0523 46.9364 44.606 46.6625 45.7795C46.5439 45.6855 46.4171 45.6078 46.2822 45.5423C45.9061 45.3706 45.1456 45.1866 44.246 45.8613C43.3547 46.5318 42.9908 47.5376 43.2198 48.6866C43.4896 50.0563 44.5445 51.4424 45.5912 52.2233C45.0924 52.7099 44.5813 53.3641 44.4096 54.1532C44.2419 54.9219 44.4137 55.6742 44.9207 56.3856C45.2151 56.7986 45.5135 57.187 45.7997 57.5591C47.2267 59.4194 47.8727 60.368 46.9937 61.5497C46.6175 62.0526 46.18 62.3797 45.718 62.7231C44.5731 63.5818 43.3874 64.469 43.7881 67.7727L44.8798 67.6378C44.5568 64.976 45.3173 64.4077 46.3722 63.6226C46.8546 63.2628 47.3984 62.854 47.8727 62.2202C49.2997 60.3067 48.0199 58.6426 46.6666 56.8763C46.3763 56.5001 46.09 56.1199 45.812 55.7355C45.4931 55.2858 45.3868 54.8483 45.4808 54.3985C45.6158 53.7688 46.1432 53.1882 46.6216 52.7876C46.6543 52.7998 46.7524 52.6812 46.7524 52.6812C46.9773 52.5054 47.1776 52.3705 47.3126 52.2969L47.0427 51.8103L46.7729 51.3238C46.6747 51.381 46.5807 51.4383 46.4867 51.5037C45.6403 50.9681 44.5322 49.6842 44.291 48.474C44.1438 47.738 44.3442 47.1778 44.8961 46.7567C45.2355 46.4991 45.5422 46.4337 45.8161 46.5604C46.1432 46.7076 46.4131 47.1369 46.4417 47.554L46.9609 47.5131L47.5415 47.4886C47.5374 47.46 47.4679 44.6019 49.7454 42.5903C51.9001 40.685 55.4041 40.1084 60.1552 40.8526C60.4292 42.7375 61.1529 46.1148 61.1856 46.2742L61.2346 46.262C62.4326 49.1159 63.6633 52.44 63.7124 53.1923C63.3649 53.4949 61.9011 53.7688 61.2714 53.7648C61.4309 53.1392 61.435 52.6976 61.435 52.6812H60.331C60.331 52.8611 60.2656 57.0071 54.799 57.1216C49.3692 57.003 49.2752 52.8571 49.2711 52.6772L48.7232 52.6812H48.1712C48.1712 52.7221 48.2121 55.4902 50.6449 57.1052C50.146 57.5305 49.545 58.1928 49.3528 59.0556C49.177 59.8406 49.361 60.6256 49.9089 61.3902C50.2033 61.8032 50.5018 62.1916 50.788 62.5637C52.2149 64.424 52.861 65.3685 51.9819 66.5502C51.6057 67.0531 51.1682 67.3802 50.7103 67.7277C49.5655 68.5863 48.3797 69.4695 48.7804 72.7773L49.8721 72.6423C49.5491 69.9806 50.3096 69.4123 51.3645 68.6231C51.847 68.2633 52.3908 67.8545 52.865 67.2207C54.2879 65.3031 53.0082 63.639 51.6589 61.8768Z" fill="#DEC685"/>
<path fill-rule="evenodd" clip-rule="evenodd" d="M48.3758 52.8734C48.433 53.5194 48.7765 55.6332 50.7554 56.9416L50.968 57.0847L50.7718 57.2524C50.3097 57.6449 49.7251 58.2786 49.5451 59.0964C49.3816 59.8283 49.5574 60.5601 50.0685 61.2757C50.3629 61.6886 50.6573 62.077 50.9435 62.445C52.3868 64.3299 53.0982 65.3726 52.1374 66.6646C51.7449 67.1879 51.3033 67.5232 50.8331 67.8748C49.6964 68.7253 48.6293 69.5226 48.9482 72.5605L49.6596 72.4706C49.3857 69.862 50.2075 69.2405 51.2461 68.4677C51.7203 68.112 52.2519 67.7154 52.7057 67.1062C54.0427 65.3112 52.8693 63.778 51.5077 61.9994L51.659 61.8767L51.5036 61.9953C51.2256 61.6314 50.9353 61.2511 50.645 60.8463C50.2566 60.3025 50.1217 59.7792 50.2402 59.2599C50.4324 58.389 51.2747 57.743 51.6263 57.5059L51.7122 57.4486L51.8062 57.4854C52.6035 57.8043 53.5398 57.9883 54.5784 58.0292L54.7583 58.0374H54.8073H54.9504L55.0404 58.0292C57.5958 57.927 59.4153 57.003 60.4538 55.2775L60.5397 55.1385L60.691 55.1998C61.4065 55.4901 63.7412 56.6554 63.639 59.493C63.5858 60.8831 62.4532 62.1752 61.3615 63.4222C59.9141 65.07 58.2827 66.9304 59.4644 69.0851L60.0736 68.7008C59.2313 67.1348 60.2535 65.7732 61.8931 63.9047C63.0747 62.5595 64.2931 61.1694 64.3545 59.5175C64.4485 56.9662 62.8376 55.576 61.8685 54.979L61.3861 54.6806L61.9503 54.6233C63.0624 54.5088 64.3013 54.1368 64.5753 53.5684C64.8369 53.0246 63.9783 50.3956 62.0239 45.7508C61.8276 44.8227 61.2021 41.8052 61.0222 40.3619L61.0099 40.2883L61.0549 40.2229C63.1974 37.279 62.2202 34.2452 60.3026 32.5443C58.3359 30.8025 54.9995 30.0992 52.4195 32.1313L52.2233 32.2867L52.1251 32.0577C51.3932 30.3854 49.5002 29.2079 47.0674 28.9094C42.6393 28.3656 39.4174 30.7166 38.2971 33.133C36.8865 36.175 37.5734 38.3298 38.3993 39.6055L38.5915 39.8999L38.2399 39.9039C35.8439 39.9285 34.1961 40.5009 33.2026 41.6498C31.612 43.4857 32.1518 46.311 32.5852 48.5802C32.8673 50.044 33.0431 51.107 32.7487 51.475C31.8042 52.6607 30.7207 52.3173 30.2996 52.1129C29.6372 51.7939 29.212 51.1929 29.2242 50.6327L28.5169 50.4774C28.431 51.3605 29.0239 52.3009 29.9888 52.7711C30.9088 53.2168 32.2622 53.2291 33.2966 51.9329C33.82 51.2706 33.5828 50.0235 33.2802 48.4412C32.8755 46.3273 32.3766 43.6983 33.73 42.1323C34.6949 41.0161 36.5594 40.5173 39.2784 40.6563L39.5564 39.9162C39.0699 39.446 37.1563 37.279 38.939 33.4438C40.3864 30.32 44.1194 29.2815 46.9774 29.6331C48.94 29.8743 51.1806 30.8638 51.659 32.9204L52.3705 33.1371C54.1163 31.424 57.2851 30.8352 59.8324 33.0962C61.3942 34.4823 62.4859 37.0827 60.4252 39.8549L60.3557 39.9489L60.2412 39.9326C55.2285 39.1557 51.4955 39.8181 49.1485 41.9074C47.7052 43.1913 47.1001 44.745 46.8507 45.8244L46.7812 46.1188L46.544 45.9307C46.4214 45.8367 46.311 45.7672 46.2047 45.714C45.8694 45.5586 45.1825 45.3951 44.3688 46.0125C43.5388 46.6381 43.1995 47.5744 43.4121 48.6456C43.686 50.0317 44.7654 51.3605 45.7099 52.0638L45.8939 52.1987L45.7304 52.3582C45.1171 52.9469 44.7409 53.5643 44.6019 54.1899C44.4465 54.9014 44.606 55.6005 45.0844 56.267C45.3624 56.6554 45.6445 57.0234 45.9144 57.375L45.9593 57.4364C47.4068 59.3213 48.1182 60.3639 47.1573 61.6559C46.7648 62.1834 46.3151 62.5186 45.8408 62.8703C44.7123 63.7166 43.6451 64.5139 43.9641 67.5518L44.6755 67.466C44.4015 64.8533 45.2275 64.2359 46.266 63.4631C46.7444 63.1033 47.2759 62.7067 47.7257 62.1016C49.0668 60.3025 47.8892 58.7693 46.5236 56.9907C46.2374 56.6186 45.9512 56.2425 45.665 55.8458C45.3092 55.3511 45.1907 54.8605 45.3011 54.3576C45.4564 53.6461 46.0452 53.0287 46.5072 52.6362L46.589 52.5667L46.6013 52.5708L46.6176 52.5544C46.7812 52.4195 46.9325 52.3091 47.0674 52.2232L46.7158 51.5895C46.679 51.614 46.6462 51.6345 46.6095 51.659L46.495 51.7285L46.3887 51.6631C45.4605 51.0784 44.3484 49.7373 44.1072 48.5107C43.9477 47.7052 44.1767 47.0633 44.7859 46.6013C45.1866 46.2987 45.5627 46.221 45.9021 46.3805C46.2415 46.5358 46.5236 46.9243 46.6135 47.3413L47.3577 47.3004C47.3822 46.6054 47.6194 44.2135 49.6269 42.443C51.8226 40.5009 55.3757 39.9039 60.1922 40.6604L60.3353 40.6849L60.3557 40.8239C60.5888 42.4144 61.1326 45.0476 61.3411 46.0452L61.3574 46.0411L61.4188 46.1883C62.5882 48.9809 63.8597 52.3827 63.9129 53.18L63.9211 53.2781L63.8475 53.3395C63.4345 53.6952 61.9176 53.9569 61.2961 53.9569H61.2798H61.0344L61.0917 53.7197C61.1612 53.4417 61.2103 53.1596 61.2389 52.8774H60.5274C60.4579 53.7524 59.861 57.2115 54.8114 57.3178C49.7823 57.2115 49.1649 53.7483 49.0872 52.8774L48.3758 52.8734ZM48.6088 72.9857L48.5843 72.7936C48.1673 69.3754 49.4552 68.4146 50.5919 67.5682C51.0457 67.2288 51.4668 66.9099 51.8267 66.4315C52.5912 65.4053 52.1374 64.6325 50.6368 62.6781C50.3506 62.306 50.0521 61.9135 49.7537 61.4965C49.1772 60.6869 48.9809 59.8528 49.169 59.0064C49.353 58.1969 49.8722 57.5549 50.3384 57.1174C48.0119 55.4247 47.9833 52.7016 47.9833 52.673V52.4808L49.4675 52.4767L49.4716 52.6689C49.4716 52.8406 49.5656 56.8067 54.8196 56.9212C60.094 56.8108 60.1554 52.8447 60.1554 52.673V52.4808H61.6437V52.673C61.6437 52.6771 61.6396 53.0246 61.5292 53.5562C62.1752 53.5112 63.1687 53.2945 63.5204 53.0941C63.3895 52.2805 62.3796 49.4756 61.1326 46.4786L61.0508 46.499L61.0099 46.311C60.83 45.4687 60.2576 42.7292 60 41.0161C55.3757 40.3128 51.9738 40.8893 49.8886 42.7293C47.6807 44.6755 47.7461 47.4476 47.7502 47.4762L47.7543 47.6684L46.2783 47.7543L46.2619 47.5621C46.2333 47.2146 46.0084 46.8507 45.7467 46.728C45.5423 46.634 45.3052 46.6912 45.023 46.9038C44.5283 47.28 44.3566 47.7625 44.4915 48.4289C44.7041 49.4961 45.6731 50.6982 46.495 51.2624C46.6054 51.1929 46.6749 51.152 46.6871 51.1438L46.8548 51.0539L47.5785 52.3582L47.4108 52.4522C47.2636 52.5381 47.0592 52.6771 46.8752 52.8243C46.8343 52.8815 46.7771 52.9306 46.7117 52.9592C46.3641 53.2577 45.804 53.8178 45.669 54.4312C45.5832 54.8278 45.6813 55.2162 45.9675 55.6169C46.2496 56.0135 46.5359 56.3856 46.8098 56.7413C48.155 58.4953 49.537 60.2985 48.0241 62.3306C47.5417 62.9807 46.9856 63.3936 46.4991 63.7616C45.4483 64.5466 44.7654 65.0577 45.0721 67.6091L45.0966 67.8013L43.6206 67.9852L43.5961 67.7931C43.1831 64.3749 44.467 63.4141 45.6036 62.5636C46.0534 62.2283 46.4786 61.9094 46.8384 61.4269C47.603 60.4007 47.1451 59.6279 45.6445 57.6735L45.5995 57.6122C45.3256 57.2565 45.0435 56.8844 44.7654 56.496C44.2216 55.7395 44.0417 54.9341 44.2216 54.1081C44.3607 53.4662 44.7246 52.8406 45.3011 52.2396C44.3402 51.4627 43.3058 50.1216 43.0277 48.7233C42.7865 47.4967 43.1749 46.4254 44.1276 45.7058C45.1048 44.9658 45.943 45.1743 46.36 45.3624C46.4214 45.391 46.4827 45.4237 46.5399 45.4564C46.9284 43.9722 47.7461 42.6352 48.8869 41.613C51.3115 39.4624 55.1099 38.7632 60.1799 39.5278C61.9912 37.0051 60.9936 34.6459 59.5707 33.3824C57.1624 31.2481 54.1613 31.841 52.5585 33.4888L52.4768 33.5705L51.3197 33.223L51.2992 33.1085C50.919 31.1745 48.7887 30.2423 46.9243 30.0133C44.2053 29.6781 40.6481 30.6594 39.2825 33.6073C37.418 37.6265 39.8753 39.6872 39.8999 39.7118L40.0062 39.7976L39.5401 41.057L39.397 41.0488C36.7311 40.8893 34.9239 41.3432 34.0203 42.3858C32.7855 43.8128 33.268 46.3396 33.6564 48.3717C33.9794 50.0521 34.2329 51.3769 33.5951 52.1742C32.4175 53.6502 30.872 53.6339 29.8171 53.1187C28.6191 52.5422 27.924 51.3156 28.1653 50.2034L28.2061 50.0153L29.6617 50.3343L29.6208 50.5223C29.5309 50.9476 29.8989 51.4955 30.4631 51.7653C30.8802 51.9657 31.6938 52.166 32.438 51.2338C32.6424 50.9762 32.3521 49.4634 32.1967 48.6538C31.747 46.3028 31.1868 43.3753 32.9 41.4004C33.9222 40.2147 35.5577 39.6055 37.8882 39.5278C37.0991 38.1458 36.5512 35.9583 37.9373 32.9736C39.1148 30.4345 42.488 27.9608 47.1042 28.5291C49.5697 28.8317 51.5159 30.0052 52.3664 31.6856C55.0813 29.7067 58.5158 30.4549 60.552 32.2621C62.5841 34.0653 63.6267 37.2749 61.4024 40.3946C61.5946 41.8502 62.1997 44.7695 62.3796 45.6445C65.3807 52.767 65.0659 53.4253 64.9146 53.7442C64.6039 54.3903 63.5326 54.7746 62.49 54.9504C63.5122 55.7068 64.8165 57.1461 64.7306 59.5461C64.6652 61.337 63.4018 62.7803 62.1752 64.1746C60.3966 66.2026 59.6484 67.3106 60.4906 68.6803L60.5888 68.8439L59.3294 69.6371L59.2272 69.4694C57.7103 67.0039 59.4889 64.9719 61.0631 63.181C62.1139 61.983 63.1974 60.7441 63.2464 59.493C63.3323 57.1174 61.5946 56.0339 60.691 55.6373C59.91 56.8517 58.3441 58.25 55.2366 58.4217V58.4299L55.0445 58.4381H54.378V58.4217C53.409 58.3686 52.5299 58.1887 51.7571 57.8984C51.4096 58.1437 50.7636 58.6793 50.6164 59.354C50.5264 59.7628 50.6368 60.1799 50.9598 60.6337C51.2461 61.0344 51.5364 61.4106 51.8103 61.7704L51.659 61.889L51.8144 61.7745C53.1514 63.5163 54.5293 65.3194 53.0165 67.3474C52.5299 68.0016 51.9698 68.4186 51.4791 68.7866C50.4365 69.5676 49.7537 70.0787 50.0603 72.63L50.0849 72.8222L48.6088 72.9857Z" fill="#DEC685"/>
<path fill-rule="evenodd" clip-rule="evenodd" d="M42.5044 37.5611C41.703 38.5955 41.6907 39.9121 42.4717 40.9179C42.9623 41.5476 43.6451 41.891 44.3239 41.891C44.606 41.891 44.8881 41.8297 45.1539 41.707C46.2905 41.1837 46.5604 40.7585 47.2882 39.6095C47.6521 39.0412 48.1468 38.2602 48.9482 37.1522C49.5656 36.3018 50.2239 35.852 50.9149 35.8234C52.0352 35.7825 52.9756 36.8374 52.9838 36.8496L53.4008 36.4857L53.8179 36.1218C53.7688 36.0646 52.5953 34.7072 50.9926 34.7072C50.9558 34.7072 50.919 34.7072 50.8781 34.7112C49.8354 34.7521 48.8869 35.3532 48.0609 36.4939C47.4681 37.3117 46.9038 38.1539 46.3641 39.0085C45.6813 40.0838 45.5382 40.3087 44.6959 40.6971C44.1889 40.9302 43.6492 40.6317 43.3385 40.2269C42.9746 39.7608 42.7947 38.9962 43.3753 38.248L42.5044 37.5611Z" fill="#DEC685"/>
<path fill-rule="evenodd" clip-rule="evenodd" d="M42.5412 37.835C41.9115 38.7714 41.9361 39.9121 42.623 40.7953C43.2485 41.6008 44.2503 41.9074 45.068 41.5312C46.1515 41.0324 46.3968 40.6481 47.1205 39.5032C47.4844 38.9349 47.9792 38.154 48.7887 37.0337C49.4388 36.1301 50.1503 35.6599 50.8985 35.6271C51.8594 35.5903 52.6689 36.2772 52.9838 36.5798L53.5317 36.1014C53.1923 35.7539 52.2233 34.8912 50.9803 34.8912C50.9476 34.8912 50.9149 34.8912 50.8781 34.8953C49.8927 34.9321 48.9973 35.5045 48.2081 36.6003C47.3863 37.741 46.8834 38.5301 46.5195 39.1026C45.8244 40.1942 45.6609 40.4518 44.7695 40.8607C44.1685 41.1346 43.5347 40.7953 43.179 40.3373C42.7006 39.7445 42.672 38.9063 43.1013 38.2766L42.5412 37.835ZM44.3198 42.0832C43.5675 42.0832 42.8356 41.6989 42.3163 41.0324C41.4781 39.9571 41.4945 38.5465 42.349 37.4384L42.4676 37.2831L43.637 38.2112L43.5225 38.3625C43.0114 39.0208 43.1668 39.6954 43.4857 40.1043C43.7474 40.4437 44.2012 40.7012 44.6101 40.5132C45.3992 40.1493 45.5178 39.9571 46.1924 38.8981C46.5604 38.3175 47.0674 37.5243 47.8974 36.3754C48.7601 35.1815 49.7578 34.5559 50.8617 34.5109C50.8985 34.5068 50.9394 34.5068 50.9803 34.5068C52.6812 34.5068 53.9037 35.9297 53.9528 35.991L54.0754 36.1382L52.9511 37.1154L52.8243 36.9723C52.8161 36.9642 51.9616 36.0115 50.9639 36.0115H50.9108C50.2852 36.0401 49.676 36.4572 49.0954 37.2585C48.5189 38.0558 47.9669 38.8736 47.4436 39.7077C46.7117 40.8566 46.4091 41.3309 45.2234 41.8788C44.9453 42.0137 44.6346 42.0832 44.3198 42.0832ZM75.7661 82.7537C78.4728 81.9523 79.7812 78.6282 78.9471 74.5313L77.8677 74.7561C78.4687 77.6959 77.9086 81.1386 75.2673 81.7397C72.7404 82.3162 70.2995 80.0878 69.3345 76.318C68.758 74.0611 68.9134 71.9554 69.7679 70.5407C70.2831 69.6861 71.0191 69.1423 71.9513 68.9297C72.5605 68.7825 73.1943 68.7989 73.7953 68.9747L74.1061 67.9035C73.3251 67.6745 72.4992 67.654 71.7101 67.838C71.244 67.9443 70.7983 68.1242 70.3853 68.3737L70.3649 68.3328C67.3392 69.9028 63.966 70.6838 60.5602 70.6102L60.5397 71.7223C60.6869 71.7264 60.83 71.7264 60.9772 71.7264C63.6103 71.7264 66.2189 71.2398 68.6435 70.3199C67.8094 71.9676 67.6663 74.2205 68.2715 76.592C68.9993 79.4295 70.5039 81.4984 72.3234 82.4143C70.0582 82.8395 67.4333 83.1707 65.622 83.1707C62.952 83.1707 60.3189 82.7905 57.8003 82.0341L57.4895 83.1012C60.1308 83.8903 62.8703 84.2869 65.6261 84.2829C68.5781 84.2829 73.3456 83.4774 75.7743 82.7578L75.7661 82.7537Z" fill="#DEC685"/>
<path fill-rule="evenodd" clip-rule="evenodd" d="M57.7267 82.9826C60.274 83.7267 62.9275 84.1029 65.622 84.1029C68.4923 84.1029 73.0798 83.3383 75.5453 82.6351L75.7129 82.5696C78.3093 81.801 79.5359 78.6772 78.7958 74.7602L78.0967 74.9074C78.6527 77.8922 78.0231 81.3103 75.3122 81.9318C72.675 82.5288 70.1441 80.2432 69.1506 76.3671C68.5618 74.0651 68.7253 71.9063 69.6044 70.4466C70.1482 69.543 70.9251 68.9706 71.9104 68.7457C72.4869 68.6108 73.088 68.6108 73.6645 68.7457L73.8689 68.0465C73.1779 67.8748 72.4501 67.8707 71.7592 68.0343C71.3135 68.1365 70.8842 68.3082 70.4917 68.5453L70.3117 68.6557L70.2831 68.6026C67.3311 70.0991 64.0601 70.8596 60.7523 70.8146L60.7401 71.5424C63.4345 71.571 66.0718 71.1049 68.5781 70.1481L69.0442 69.9682L68.8194 70.4139C68.0057 72.0208 67.8749 74.2573 68.4596 76.5511C69.1546 79.2578 70.5939 81.3348 72.4133 82.2507L72.9244 82.5083L72.3602 82.6146C69.8211 83.0889 67.3025 83.3751 65.622 83.3751C63.0175 83.3792 60.4293 83.0112 57.927 82.2834L57.7267 82.9826ZM65.622 84.4913C62.8498 84.4954 60.09 84.0947 57.4323 83.3015L57.2483 83.2484L57.6694 81.8091L57.8575 81.8623C60.3557 82.6105 62.9725 82.9908 65.622 82.9908C67.1389 82.9908 69.4531 82.7414 71.7673 82.3325C70.0705 81.2653 68.7458 79.2332 68.0875 76.6533C67.5192 74.4331 67.5887 72.3315 68.2756 70.6756C65.7937 71.5587 63.1729 71.984 60.5356 71.9308L60.3435 71.9267L60.3721 70.4262L60.5643 70.4302C60.7033 70.4343 60.8382 70.4343 60.9772 70.4343C64.2318 70.4343 67.4496 69.6534 70.279 68.1774L70.4508 68.0874L70.4712 68.1242C70.8474 67.9157 71.2522 67.7644 71.6733 67.6704C72.4951 67.4782 73.3538 67.4986 74.1633 67.7358L74.3473 67.7889L73.9303 69.2282L73.7422 69.1709C73.1738 69.0074 72.5728 68.991 71.9963 69.1259C71.1131 69.3304 70.4221 69.8415 69.9356 70.651C69.1097 72.0248 68.9584 74.0733 69.5226 76.2771C70.4589 79.9406 72.81 82.1117 75.2223 81.5597C77.7409 80.9873 78.2602 77.655 77.6796 74.8011L77.6428 74.613L79.0984 74.3063L79.1393 74.4985C79.9775 78.6199 78.7181 81.9563 76.0032 82.8845L76.0073 82.9008L75.8274 82.954C73.3865 83.6818 68.5945 84.4913 65.622 84.4913ZM60.0041 45.8816L57.4241 44.7817L56.9907 44.7858L52.6689 46.6789L53.1064 47.7011L57.2156 45.9061L59.5789 46.912L60.0041 45.8816Z" fill="#DEC685"/>
<path fill-rule="evenodd" clip-rule="evenodd" d="M52.9223 46.7771L53.2085 47.4435L57.2113 45.6936L59.4724 46.6544L59.7504 45.9839L57.3831 44.9739L57.0314 44.978L52.9223 46.7771ZM53.0041 47.9546L52.4153 46.5767L56.9906 44.5937L57.4648 44.5896L57.5016 44.606L60.2574 45.7794L59.6809 47.1614L57.2154 46.1147L53.0041 47.9546Z" fill="#DEC685"/>
<path fill-rule="evenodd" clip-rule="evenodd" d="M56.6553 48.0037C56.6553 48.5107 57.0887 48.9237 57.6202 48.9237C58.1517 48.9237 58.5851 48.5107 58.5851 48.0037C58.5851 47.4967 58.1517 47.0837 57.6202 47.0837C57.0887 47.0837 56.6553 47.5008 56.6553 48.0037Z" fill="#DEC685"/>
<path fill-rule="evenodd" clip-rule="evenodd" d="M57.6202 47.28C57.195 47.28 56.8475 47.6071 56.8475 48.0078C56.8475 48.4085 57.1909 48.7356 57.6202 48.7356C58.0496 48.7356 58.393 48.4085 58.393 48.0078C58.393 47.6071 58.0455 47.28 57.6202 47.28ZM57.6202 49.1159C56.9824 49.1159 56.4631 48.617 56.4631 48.0037C56.4631 47.3904 56.9824 46.8916 57.6202 46.8916C58.2581 46.8916 58.7814 47.3904 58.7814 48.0037C58.7814 48.617 58.2581 49.1159 57.6202 49.1159Z" fill="#DEC685"/>
<path fill-rule="evenodd" clip-rule="evenodd" d="M77.6509 59.5298L68.2224 63.3159L72.0208 51.3564C72.0371 51.3564 72.0535 51.3605 72.0698 51.3605C72.1026 51.3605 72.1312 51.3523 72.1639 51.3523L77.79 58.8101C77.6918 58.986 77.6387 59.1822 77.6387 59.3826C77.6387 59.4316 77.6469 59.4807 77.6509 59.5298ZM48.478 77.1276C48.7151 77.4015 49.0626 77.5814 49.4593 77.5814C49.4879 77.5814 49.5165 77.5733 49.5451 77.5733L54.701 86.2863C52.8488 85.9224 51.0375 85.3663 49.2998 84.6222C46.0983 83.2525 43.1913 81.2858 40.7298 78.8244L48.478 77.1276ZM36.0115 62.8866C36.0892 63.3159 36.3917 63.6716 36.8047 63.827L38.8041 76.7105C37.095 74.6253 35.7048 72.3152 34.6581 69.8088L33.918 69.5226L33.5092 69.7147C32.626 67.1266 32.119 64.4239 32.0086 61.6886L36.0115 62.8866ZM87.7378 87.0427C84.1724 90.6612 79.9406 93.5479 75.2713 95.5432C70.4466 97.612 65.2499 98.671 60 98.6628C54.7051 98.6628 49.5696 97.612 44.7286 95.5432C40.0593 93.5479 35.8234 90.6571 32.2621 87.0427C28.9053 83.6532 26.1904 79.683 24.2441 75.3245L33.869 70.7737C35.2919 73.9997 37.2912 76.9395 39.7731 79.4418C42.3735 82.079 45.4605 84.1888 48.8664 85.6444C52.3827 87.149 56.1729 87.9259 59.9959 87.9177C62.2937 87.9177 64.5752 87.6438 66.7709 87.104L66.5092 86.0246C63.1074 86.8546 59.5788 87.0264 56.1157 86.5275L50.506 77.0417C50.6491 76.8373 50.7308 76.5961 50.7308 76.3466C50.7308 75.6638 50.1584 75.1078 49.4511 75.1078C48.8541 75.1078 48.3553 75.5085 48.2163 76.0441L40.0879 77.8227L37.9086 63.7452C38.2889 63.5326 38.5506 63.136 38.5506 62.6781C38.5506 61.9953 37.9781 61.4433 37.2708 61.4433C36.911 61.4433 36.5839 61.5905 36.3508 61.8235L31.98 60.5192C31.98 60.4988 31.7796 60.462 31.7796 60.462H30.876C30.876 63.8065 31.428 67.0734 32.5074 70.189L28.6436 72.0167C27.3107 68.3123 26.632 64.3994 26.636 60.462C26.636 59.632 26.6647 58.802 26.7219 57.9883L25.622 57.9065C25.5607 58.7447 25.5321 59.6074 25.5321 60.462C25.5321 64.6039 26.2394 68.6476 27.6378 72.491L23.7903 74.3105C22.1344 69.8824 21.288 65.1926 21.2962 60.462C21.2962 55.1753 22.3225 50.048 24.3382 45.2193C26.2762 40.5745 29.0893 36.3508 32.6301 32.7732C36.1464 29.2038 40.3251 26.3539 44.933 24.3832C49.6964 22.347 54.8196 21.3003 60 21.3084C65.2253 21.3084 70.2953 22.3429 75.0669 24.3873C79.6749 26.358 83.8535 29.2078 87.3698 32.7773C90.9106 36.3508 93.7278 40.5786 95.6617 45.2193C97.6815 50.048 98.7119 55.2284 98.7037 60.462C98.7037 65.0986 97.9023 69.6289 96.3405 73.9425L92.3621 72.4869C93.7605 68.6312 94.4719 64.563 94.4678 60.462C94.4678 41.2368 79.0084 25.5975 60.004 25.5975C57.3178 25.5975 54.6437 25.9083 52.0515 26.5297L52.305 27.6132C54.8155 27.0163 57.4036 26.7096 60.004 26.7096C68.4595 26.7096 76.1831 29.9152 82.0668 35.1733L83.1462 44.0785C82.7169 44.2788 82.4388 44.7082 82.4347 45.1825V45.1906L72.7486 49.079C72.5441 48.9522 72.3111 48.8868 72.0698 48.8868C72.0249 48.8868 71.984 48.895 71.9431 48.8991L67.7195 39.8549C67.9116 39.6382 68.0179 39.356 68.022 39.0657C68.022 38.7346 67.883 38.4156 67.6418 38.1867L69.2364 33.6932C69.7965 33.8894 70.3567 34.1061 70.9046 34.3392C74.241 35.7661 77.2666 37.8309 79.8139 40.4191L80.5907 39.63C77.9453 36.9437 74.8011 34.7971 71.3339 33.3129C69.2609 32.4257 67.0898 31.7878 64.8696 31.4076L64.6897 32.5074C65.8754 32.7078 67.0448 32.994 68.1937 33.3538L66.5991 37.8473C65.9654 37.9209 65.4707 38.4361 65.4707 39.0698C65.4707 39.7404 66.0267 40.2842 66.7136 40.3005L70.9945 49.4715C70.8678 49.6637 70.7983 49.8927 70.7942 50.1257C70.7942 50.3915 70.8841 50.6368 71.0313 50.8412L67.1511 63.0542C66.5378 63.1442 66.0635 63.6512 66.0635 64.2727C66.0635 64.9555 66.6359 65.5075 67.3433 65.5075C68.0179 65.5075 68.5617 65.0005 68.6108 64.3585L78.1252 60.5397L76.3507 69.5798C75.7988 69.7147 75.4062 70.2013 75.3981 70.7696C75.3981 71.4524 75.9705 72.0044 76.6778 72.0044C77.3729 72.0044 77.9331 71.4688 77.9535 70.7983L90.3628 65.1681C90.5795 65.3398 90.8534 65.442 91.156 65.442C91.8592 65.442 92.4357 64.886 92.4357 64.2072C92.4357 63.5244 91.8633 62.9684 91.156 62.9684C90.465 62.9684 89.9007 63.504 89.8803 64.1664L77.4669 69.8006L77.4383 69.7761L79.2455 60.5765C79.7975 60.4415 80.19 59.9509 80.1982 59.3867C80.1982 58.7038 79.6258 58.1519 78.9184 58.1519C78.8408 58.1519 78.7672 58.16 78.6936 58.1723L73.137 50.8085C73.2719 50.6123 73.3496 50.3833 73.3496 50.1298C73.3496 50.1012 73.3414 50.0766 73.3414 50.048L82.9622 46.1842C83.1748 46.3314 83.4324 46.4254 83.7145 46.4254C84.4178 46.4254 84.9943 45.8694 84.9943 45.1906C84.9943 44.6959 84.6876 44.2707 84.2542 44.0744L83.3179 36.3549C89.7576 42.721 93.3761 51.4055 93.3639 60.462C93.3639 64.4689 92.6811 68.3818 91.3277 72.1066L86.8178 70.4548L86.6298 70.9782L86.8178 70.4548L85.7916 70.0786L85.1006 70.373C84.0375 72.7731 82.6351 75.0137 80.9424 77.0213L81.7805 77.745C83.4324 75.7906 84.8144 73.6236 85.8938 71.3012L86.4417 71.5015L95.9111 74.9728C93.9567 79.4663 91.1846 83.5591 87.7378 87.0427ZM99.8077 60.462C99.8077 55.0281 98.7528 49.7536 96.6798 44.7859C94.6886 40.0102 91.7897 35.6639 88.1508 31.9882C84.5322 28.3165 80.235 25.389 75.5003 23.361C70.602 21.2635 65.3316 20.1841 60.004 20.1922C54.6356 20.1922 49.4184 21.2594 44.5078 23.361C39.769 25.389 35.4718 28.3165 31.8573 31.9882C28.2184 35.6639 25.3195 40.0102 23.3283 44.7859C21.2471 49.7495 20.1841 55.0812 20.1922 60.462C20.1922 65.4829 21.1204 70.3935 22.903 75.0382L23.0216 75.2795C25.0333 79.957 27.9035 84.2133 31.4853 87.8318C35.1488 91.5485 39.5032 94.5169 44.2993 96.5694C49.2589 98.6955 54.6029 99.7872 60 99.7791C65.442 99.7791 70.7247 98.6996 75.7006 96.5694C80.5008 94.5169 84.8512 91.5485 88.5147 87.8318C92.2027 84.107 95.1384 79.7035 97.1541 74.8665L97.1868 74.797C98.9245 70.2177 99.8118 65.3603 99.8077 60.462Z" fill="#DEC685"/>
<path fill-rule="evenodd" clip-rule="evenodd" d="M72.1352 51.6345L68.529 62.9847L77.4424 59.403V59.3826C77.4424 59.1945 77.4832 59.0105 77.5609 58.8306L72.1352 51.6345ZM67.9156 63.6471L71.8858 51.1561L72.1025 51.1643L72.2579 51.152L78.023 58.7938L77.9616 58.9042C77.8798 59.0514 77.8349 59.215 77.8308 59.3867C77.8308 59.4153 77.8349 59.4398 77.839 59.4644L77.8594 59.6116L77.7245 59.7097L67.9156 63.6471ZM33.9098 69.3141L34.8052 69.6616L34.8379 69.7352C35.7783 71.984 37.0091 74.0979 38.5055 76.0237L36.6329 63.966C36.2486 63.7861 35.9623 63.4468 35.8519 63.0379L32.213 61.9544C32.3438 64.5139 32.8181 67.0326 33.6236 69.449L33.9098 69.3141ZM39.1066 77.3811L38.6568 76.8332C36.9518 74.7521 35.5535 72.4379 34.5108 69.9601L33.9262 69.7311L33.3946 69.9805L33.3251 69.7761C32.4379 67.1675 31.9268 64.4485 31.8123 61.6968L31.8 61.4229L36.1831 62.7272L36.2036 62.8457C36.2649 63.2015 36.5225 63.5081 36.8741 63.643L36.9804 63.6839L39.1066 77.3811ZM41.1182 78.9348C43.5101 81.2613 46.3068 83.1298 49.3733 84.4423C50.9557 85.1211 52.6157 85.6444 54.3084 86.0083L49.4347 77.7695C49.0503 77.7655 48.6823 77.6101 48.4084 77.3361L41.1182 78.9348ZM55.0853 86.5603L54.66 86.4744C52.7956 86.1064 50.972 85.5463 49.222 84.798C46.0001 83.4201 43.0685 81.4371 40.5908 78.9594L40.3414 78.7099L48.5474 76.915L48.6251 77.0009C48.8336 77.2462 49.1403 77.3852 49.4592 77.3852L49.6514 77.3729L55.0853 86.5603ZM24.5017 75.4226C26.4315 79.6912 29.1056 83.5796 32.4011 86.9078C35.946 90.5059 40.1615 93.3803 44.8062 95.3674C49.6064 97.424 54.7786 98.483 59.9999 98.4707C65.2662 98.4707 70.3811 97.424 75.1936 95.3674C79.8383 93.3803 84.0538 90.5059 87.5987 86.9078L87.7337 87.0427L87.5987 86.9078C90.9842 83.4897 93.7113 79.4827 95.6494 75.0833L85.9878 71.5424C84.9124 73.8198 83.5468 75.946 81.9236 77.8677L81.7968 78.019L80.6684 77.0418L80.791 76.8946C82.4715 74.8993 83.8616 72.6791 84.9206 70.2954L84.9533 70.2259L85.7833 69.8701L91.2091 71.8573C92.5134 68.1979 93.1757 64.3463 93.1675 60.462C93.1675 51.5691 89.7657 43.2199 83.5754 36.8906L84.43 43.9395C84.892 44.193 85.1864 44.6673 85.1864 45.1825C85.1864 45.9716 84.524 46.6135 83.7144 46.6135C83.4405 46.6135 83.1747 46.5399 82.9417 46.3968L73.5458 50.1707C73.5376 50.3915 73.4804 50.6041 73.3741 50.7963L78.7794 57.9638C78.8243 57.9597 78.8693 57.9556 78.9184 57.9556C79.7279 57.9556 80.3903 58.5976 80.3903 59.3826C80.3903 59.9877 79.9937 60.5233 79.4131 60.7237L77.6918 69.4858L89.6962 64.0355C89.7903 63.3037 90.4199 62.764 91.1559 62.7721C91.9696 62.7721 92.6278 63.4141 92.6278 64.2032C92.6278 64.9923 91.9655 65.6301 91.1559 65.6301C90.8656 65.6301 90.5876 65.5484 90.3422 65.3889L78.1415 70.925C78.0597 71.6365 77.4301 72.1925 76.6819 72.1925C75.8723 72.1925 75.2099 71.5506 75.2099 70.7615C75.2099 70.1564 75.6065 69.6207 76.1871 69.4204L77.8717 60.8423L68.7906 64.4894C68.6802 65.1722 68.0628 65.6915 67.3432 65.6915C66.5337 65.6915 65.8713 65.0496 65.8713 64.2645C65.8713 63.6062 66.3497 63.0297 66.9998 62.8784L70.8186 50.8658C70.5488 50.4406 70.5283 49.9009 70.7737 49.4552L66.5868 40.4846C65.8549 40.4069 65.2743 39.7936 65.2743 39.0658C65.2743 38.383 65.7732 37.8064 66.4519 37.6715L67.9402 33.4765C66.8608 33.1494 65.765 32.8877 64.6529 32.6956L64.4648 32.6628L64.7101 31.1827L64.9023 31.2154C67.1388 31.5957 69.3222 32.2417 71.4115 33.133C74.9033 34.6254 78.0679 36.7843 80.7297 39.491L80.8646 39.6259L79.8138 40.689L79.6748 40.55C77.1439 37.9823 74.1387 35.9297 70.8268 34.515C70.3403 34.3106 69.8496 34.1184 69.3508 33.9385L67.8625 38.1376C68.2959 38.6283 68.3327 39.352 67.9443 39.8794L72.0575 48.6906C72.3028 48.707 72.5441 48.7478 72.7608 48.8623L82.2466 45.0557C82.2875 44.606 82.541 44.2094 82.9376 43.9722L81.8827 35.2714C75.8191 29.8743 68.0506 26.9018 59.9999 26.9018C57.4117 26.9018 54.8358 27.2044 52.3458 27.7973L52.1577 27.8422L51.8143 26.3826L52.0024 26.3376C54.6232 25.712 57.3054 25.3972 59.9999 25.3972C79.1105 25.3972 94.6558 41.1265 94.6558 60.4538C94.6558 64.5466 93.9648 68.5495 92.6033 72.3602L96.2177 73.6849C97.7346 69.4367 98.5115 64.9637 98.5074 60.4538C98.5074 55.1957 97.4893 50.093 95.4818 45.2847C93.5519 40.6645 90.7511 36.4572 87.2307 32.9C83.7308 29.3469 79.5726 26.5134 74.9891 24.5508C70.2544 22.5351 65.1517 21.4925 59.9999 21.5006C54.8031 21.5006 49.7618 22.531 45.0066 24.5631C40.4231 26.5257 36.2649 29.3592 32.765 32.9082C25.5239 40.2474 21.4678 50.1503 21.4883 60.462C21.4883 65.1231 22.3019 69.6943 23.9006 74.0447L27.4006 72.3888C26.0309 68.5618 25.3358 64.5262 25.3399 60.4579C25.3399 59.5993 25.3685 58.7366 25.4298 57.8902L25.4421 57.698L26.9263 57.8084L26.914 58.0006C26.8568 58.8183 26.8282 59.6402 26.8282 60.462C26.8282 64.3422 27.4742 68.1406 28.7539 71.751L32.2702 70.0868C31.2194 66.9876 30.6797 63.733 30.6838 60.462V60.2698H31.7837C31.8777 60.2821 31.9718 60.3066 32.0576 60.3434L36.3017 61.6109C36.5716 61.382 36.9109 61.2552 37.2748 61.2552C38.0844 61.2552 38.7468 61.8972 38.7468 62.6863C38.7468 63.1483 38.5096 63.5817 38.1212 63.8475L40.2555 77.5937L48.0731 75.8806C48.2857 75.2959 48.8418 74.9115 49.4633 74.9156C50.2769 74.9156 50.9352 75.5575 50.9352 76.3467C50.9352 76.592 50.8698 76.8332 50.743 77.0499L56.2465 86.3558C59.726 86.8383 63.1932 86.6461 66.4723 85.8407L66.6604 85.7957L67.012 87.2513L66.824 87.2962C64.5915 87.8441 62.3018 88.1181 59.9999 88.114C56.1115 88.114 52.3417 87.3453 48.7927 85.8284C45.3623 84.3605 42.2549 82.2426 39.6381 79.5849C37.1849 77.1113 35.2018 74.2164 33.7749 71.0395L24.5017 75.4226ZM59.9999 98.8591C54.6805 98.8591 49.5164 97.8042 44.655 95.7231C39.9652 93.7155 35.7088 90.8125 32.1271 87.1777C28.7539 83.7718 26.0268 79.7853 24.0724 75.4063L23.9947 75.2345L33.9711 70.5162L34.0488 70.6961C35.4594 73.9016 37.4506 76.8169 39.912 79.3069C42.492 81.9278 45.5626 84.0212 48.944 85.4686C52.4358 86.9651 56.1974 87.7337 59.9999 87.7256C62.216 87.7256 64.4198 87.468 66.5418 86.961L66.3701 86.2536C63.0051 87.0509 59.5174 87.2063 56.0952 86.7157L56.0052 86.7034L50.281 77.0295L50.3546 76.9273C50.4773 76.7555 50.5427 76.5511 50.5427 76.3426C50.5427 75.7661 50.0561 75.2959 49.4551 75.2959C48.9645 75.2918 48.5351 75.6148 48.4043 76.0891L48.3757 76.2036L39.9284 78.0517L37.6919 63.6389L37.8104 63.5735C38.1416 63.3977 38.3502 63.0543 38.3542 62.6781C38.3542 62.1016 37.8677 61.6355 37.2707 61.6355C36.9763 61.6355 36.6942 61.75 36.4857 61.9585L36.4039 62.0403L31.7837 60.6583L31.7428 60.6501L31.0682 60.6542C31.0845 63.8802 31.6324 67.0776 32.6873 70.1236L32.7445 70.2872L28.5331 72.2784L28.4596 72.0781C27.1185 68.3491 26.4356 64.4199 26.4438 60.4579C26.4438 59.6933 26.4683 58.9206 26.5174 58.1601L25.806 58.1069C25.7528 58.8879 25.7283 59.6729 25.7283 60.4538C25.7283 64.5671 26.4356 68.5945 27.8258 72.4174L27.8871 72.581L23.688 74.5681L23.6144 74.3718C21.9462 69.9315 21.0958 65.2172 21.104 60.462C21.104 55.1508 22.1343 49.999 24.1623 45.1457C26.1085 40.4805 28.9379 36.2323 32.4951 32.6383C36.0278 29.0525 40.2269 26.1904 44.8553 24.2115C49.6391 22.163 54.7909 21.1081 59.9999 21.1163C65.2498 21.1163 70.3443 22.1548 75.1445 24.2115C79.7729 26.1904 83.9761 29.0525 87.5088 32.6424C91.066 36.2364 93.8953 40.4805 95.8457 45.1498C97.8737 50.0031 98.9122 55.208 98.8999 60.4661C98.904 65.0863 98.0985 69.6698 96.5244 74.012L96.459 74.196L92.1168 72.6055L92.1822 72.4256C93.5723 68.5945 94.2797 64.5466 94.2756 60.4702C94.2756 41.3514 78.902 25.7979 60.004 25.7979C57.3954 25.7979 54.7991 26.0964 52.2845 26.6811L52.448 27.3884C54.9258 26.8119 57.4608 26.5257 60.004 26.5257C68.1773 26.5257 76.0563 29.5513 82.1975 35.0384L82.2507 35.0874L83.3546 44.2012L83.232 44.2625C82.8681 44.4302 82.635 44.79 82.6309 45.1907V45.3215L82.5083 45.3787L72.7322 49.3039L72.6504 49.2548C72.4541 49.1363 72.2252 49.0627 72.0084 49.0954L71.8694 49.1158L71.7713 48.9932L67.4945 39.8344L67.5763 39.7404C67.7398 39.5564 67.8298 39.3234 67.8339 39.078C67.8339 38.7959 67.7153 38.5301 67.515 38.338L67.425 38.2521L69.1259 33.4561L69.3099 33.5215C69.9191 33.7382 70.4711 33.9467 70.9863 34.1716C74.2859 35.5822 77.2829 37.6143 79.8179 40.1534L80.3249 39.6423C77.7245 37.0337 74.6498 34.9525 71.2643 33.5051C69.2649 32.6506 67.1756 32.025 65.0331 31.6448L64.9145 32.3644C66.0021 32.5565 67.1224 32.8346 68.2509 33.1821L68.4431 33.2434L66.7422 38.0395L66.6195 38.0518C66.0757 38.1172 65.6628 38.5588 65.6628 39.0821C65.6628 39.6423 66.1371 40.1084 66.7177 40.1207L66.8362 40.1247L71.2112 49.5002L71.1539 49.5901C71.0476 49.7537 70.9863 49.9458 70.9863 50.138C70.9863 50.3506 71.0558 50.5591 71.1866 50.735L71.2439 50.8167L67.2942 63.2383L67.1756 63.2546C66.6522 63.3323 66.2556 63.7739 66.2556 64.2809C66.2556 64.8574 66.7422 65.3235 67.3432 65.3235C67.9034 65.3235 68.3777 64.8983 68.4186 64.3545L68.4267 64.2359L68.5371 64.1909L78.3828 60.2371L76.5142 69.7475L76.3956 69.7761C75.9295 69.8865 75.5983 70.2995 75.5902 70.7778C75.5902 71.3543 76.0767 71.8205 76.6778 71.8205C77.2584 71.8205 77.7449 71.3625 77.7572 70.8024L77.7613 70.6797L90.3831 64.9514L90.4772 65.0209C90.6693 65.1722 90.9065 65.254 91.1477 65.254C91.7447 65.254 92.2353 64.7879 92.2353 64.2114C92.2353 63.6349 91.7488 63.1687 91.1477 63.1687C90.559 63.1687 90.0847 63.6103 90.0683 64.1787L90.0642 64.2972L89.9538 64.3463L77.4342 70.0296L77.2297 69.8824L77.242 69.7434L79.0737 60.4211L79.1923 60.3925C79.6584 60.2821 79.9896 59.8691 79.9978 59.3908C79.9978 58.8183 79.5112 58.3481 78.9143 58.3481C78.8489 58.3481 78.7875 58.3563 78.7221 58.3645L78.6076 58.3849L72.8998 50.8167L72.9775 50.7022C73.092 50.5346 73.1574 50.3343 73.1574 50.1298C73.1533 50.1053 73.1492 50.0808 73.1492 50.0562L73.141 49.9172L73.2678 49.8641L82.9866 45.9634L83.0725 46.0248C83.2606 46.1597 83.4814 46.2292 83.7144 46.2292C84.3114 46.2292 84.802 45.759 84.802 45.1866C84.7939 44.7777 84.5485 44.4097 84.1765 44.2462L84.0783 44.2012L83.0562 35.8234L83.4528 36.2159C89.9702 42.6638 93.556 51.2788 93.556 60.462C93.556 64.4894 92.865 68.4309 91.5075 72.1721L91.4421 72.3561L86.9323 70.7002L86.8096 71.0395L86.4457 70.9087L86.5684 70.5652L85.7956 70.279L85.2477 70.5162C84.2051 72.8508 82.8476 75.0301 81.2121 76.9927L81.7559 77.4629C83.3383 75.5575 84.6712 73.456 85.7138 71.2112L85.7915 71.0518L96.1687 74.8543L96.0869 75.0424C94.1243 79.5604 91.3399 83.6736 87.8727 87.1736C84.2909 90.8084 80.0387 93.7114 75.3448 95.719C70.4956 97.8002 65.2743 98.8673 59.9999 98.8591ZM59.9999 20.3885C54.6559 20.3885 49.4674 21.4475 44.5814 23.5409C39.8671 25.5567 35.5903 28.476 31.9922 32.1272C28.3655 35.7825 25.483 40.1084 23.504 44.8595C21.4351 49.8027 20.3762 55.1058 20.3843 60.462C20.3843 65.4257 21.292 70.3035 23.0829 74.9688L23.1933 75.1937C25.1968 79.8507 28.0548 84.0907 31.6201 87.6969C35.2673 91.3972 39.5972 94.3534 44.3728 96.3936C49.3079 98.5075 54.6232 99.5951 59.9958 99.5869C65.4134 99.5869 70.6674 98.5116 75.6188 96.3936C80.3944 94.3493 84.7284 91.3972 88.3715 87.6969C92.0432 83.9885 94.9625 79.6095 96.9701 74.793L97.0069 74.7153C98.7282 70.1604 99.6114 65.3317 99.6073 60.4661C99.6155 55.1099 98.5565 49.8068 96.4917 44.8636C94.5087 40.1125 91.6261 35.7866 88.0035 32.1272C84.4054 28.476 80.1286 25.5567 75.4144 23.5409C70.5488 21.4516 65.303 20.3803 59.9999 20.3885ZM59.9999 99.9713C54.5333 99.9713 49.222 98.8878 44.2256 96.7453C39.405 94.6846 35.0301 91.6998 31.3462 87.9668C27.7481 84.3319 24.8615 80.051 22.8417 75.3531L22.7272 75.1201C20.924 70.4467 20 65.4748 20 60.462C20 54.9995 21.059 49.7005 23.1483 44.7082C25.1477 39.9121 28.0548 35.5454 31.7142 31.8533C35.349 28.1653 39.6667 25.2214 44.426 23.1852C49.3488 21.0754 54.6478 19.9919 59.9999 20.0001C65.3929 20.0001 70.6346 21.0713 75.5738 23.1811C80.3331 25.2173 84.6508 28.1612 88.2856 31.8492C91.945 35.5454 94.8521 39.908 96.8556 44.7082C98.9408 49.6964 100.012 55.0526 99.9998 60.462C99.9998 65.4012 99.1166 70.2463 97.3708 74.8625L97.3299 74.9483C95.306 79.8057 92.358 84.2256 88.6536 87.9668C84.9738 91.7039 80.5988 94.6846 75.7742 96.7453C70.79 98.8837 65.4215 99.9835 59.9999 99.9713Z" fill="#DEC685"/>
<path fill-rule="evenodd" clip-rule="evenodd" d="M85.8242 49.4307C87.2839 52.9225 88.0321 56.6759 88.0239 60.4621H89.1279C89.1279 56.4838 88.3592 52.6281 86.8423 48.9973L85.8242 49.4307Z" fill="#DEC685"/>
<path fill-rule="evenodd" clip-rule="evenodd" d="M88.2162 60.2699H88.9317C88.9154 56.4878 88.1712 52.7466 86.7361 49.2508L86.0778 49.5329C87.472 52.9388 88.1998 56.5859 88.2162 60.2699ZM89.3161 60.6542H87.8278V60.462C87.8359 56.7004 87.0918 52.9756 85.6444 49.5043L85.5708 49.3285L86.9405 48.7438L87.0141 48.9237C88.5433 52.579 89.3242 56.5042 89.3161 60.4661V60.6542ZM34.1143 78.7713L34.5477 79.2947C34.5927 79.3478 34.9689 79.8303 34.5191 80.2105C34.421 80.3046 34.2901 80.3577 34.1552 80.3618C33.8608 80.3618 33.6237 80.0797 33.6196 80.0797L33.1862 79.5563L34.1143 78.7713ZM34.2247 76.96L29.8457 80.6644L30.6798 81.6743L32.2376 80.3577L32.671 80.8811C32.6996 80.9138 33.3375 81.6743 34.2247 81.6743C34.6213 81.6743 35.0016 81.523 35.3532 81.2245C36.4694 80.28 35.9297 79.0248 35.4922 78.4974L34.2247 76.96Z" fill="#DEC685"/>
<path fill-rule="evenodd" clip-rule="evenodd" d="M33.4561 79.5808L33.7668 79.957C33.8159 80.0142 33.9876 80.1696 34.1511 80.1696C34.2002 80.1696 34.2779 80.1574 34.3924 80.0633C34.6745 79.8221 34.4905 79.5318 34.3965 79.4132L34.0898 79.0411L33.4561 79.5808ZM34.1552 80.558C33.7709 80.558 33.4847 80.2187 33.4724 80.2064L32.9163 79.5359L34.1389 78.5014L34.6949 79.1761C34.9689 79.5113 35.0588 80.0102 34.6418 80.3618C34.5069 80.4804 34.3351 80.554 34.1552 80.558ZM32.2622 80.0797L32.8182 80.7543C32.8264 80.7625 33.4152 81.478 34.2206 81.478C34.5682 81.478 34.9075 81.3431 35.2224 81.0732C36.2241 80.2269 35.7335 79.0943 35.3369 78.6118L34.192 77.2257L30.1115 80.6807L30.7003 81.3921L32.2622 80.0797ZM30.6553 81.9482L29.5718 80.6398L34.2452 76.686L35.6394 78.3747C36.1219 78.9553 36.7066 80.3291 35.4759 81.3717C35.0875 81.7029 34.6663 81.8664 34.2247 81.8664C33.2312 81.8664 32.5279 81.0078 32.5238 81.0037L32.2172 80.6316L30.6553 81.9482ZM41.0365 83.7513L37.8228 88.5351L40.4437 90.3342L41.1347 89.2997L39.5973 88.2407L42.116 84.4914L41.0365 83.7513Z" fill="#DEC685"/>
<path fill-rule="evenodd" clip-rule="evenodd" d="M38.0925 88.4819L40.3945 90.0643L40.8728 89.3528L39.3314 88.2939L41.85 84.5445L41.0895 84.0212L38.0925 88.4819ZM40.4967 90.604L37.5569 88.5842L40.9832 83.4814L42.3816 84.4382L39.8629 88.1916L41.4003 89.2506L40.4967 90.604ZM49.7249 92.4848C49.7208 92.4889 49.5859 92.9018 49.1688 92.9018C49.0748 92.9018 48.9808 92.8855 48.8908 92.8528C48.2857 92.6524 48.4083 92.1536 48.437 92.0596L49.6431 88.3388L48.4042 87.9259L47.2022 91.6466C47.1981 91.663 46.6543 93.4211 48.5106 94.0344C48.7722 94.1203 49.0216 94.1653 49.2588 94.1653C50.281 94.1653 50.8207 93.3312 50.9638 92.8896L52.1659 89.1688L50.927 88.76L49.7249 92.4848Z" fill="#DEC685"/>
<path fill-rule="evenodd" clip-rule="evenodd" d="M48.527 88.1753L47.3863 91.708C47.3658 91.7734 46.912 93.3026 48.572 93.8546C48.8133 93.9322 49.0463 93.9772 49.2589 93.9772C50.1666 93.9772 50.6491 93.229 50.7799 92.8365L51.9248 89.2997L51.0539 89.0094L49.909 92.5503C49.7537 92.9755 49.2835 93.1963 48.8541 93.0409C48.8501 93.0368 48.8419 93.0368 48.8378 93.0327C48.1918 92.8201 48.1713 92.2804 48.2572 91.9983L49.402 88.4575L48.527 88.1753ZM49.2589 94.3616C49.0013 94.3616 48.7274 94.3125 48.4494 94.2225C46.405 93.5479 47.0101 91.6099 47.0183 91.5894L48.2817 87.6847L49.8886 88.2162L48.6252 92.1169C48.5884 92.2354 48.5434 92.5298 48.9564 92.6688C49.0259 92.6934 49.0995 92.7056 49.1731 92.7097C49.4306 92.7097 49.5288 92.4603 49.5451 92.4235L50.8085 88.5229L52.4154 89.0544L51.152 92.955C50.9884 93.4416 50.3915 94.3616 49.2589 94.3616ZM57.3382 91.3482L58.6589 91.3891L58.5199 95.9112L59.8242 95.9521L59.9632 91.4259L61.292 91.4668L61.3329 90.2197L57.375 90.097L57.3382 91.3482Z" fill="#DEC685"/>
<path fill-rule="evenodd" clip-rule="evenodd" d="M58.7201 95.7272L59.636 95.7558L59.775 91.2296L61.1038 91.2705L61.1324 90.4119L57.563 90.2974L57.5385 91.1601L58.8591 91.201L58.7201 95.7272ZM60.0121 96.1565L58.3235 96.1034L58.4625 91.5813L57.1418 91.5404L57.1909 89.909L61.5372 90.0439L61.4841 91.6753L60.1552 91.6344L60.0121 96.1565ZM69.5511 93.5357C69.4734 93.5561 69.3916 93.5684 69.3139 93.5725C68.8846 93.5725 68.7579 93.1677 68.7456 93.1227L68.2223 91.1315C68.2223 91.1274 68.1855 90.9761 68.2264 90.8085C68.2795 90.5836 68.4431 90.4364 68.7211 90.3628C68.7988 90.3424 68.8805 90.3301 68.9623 90.3301C69.3916 90.3301 69.5184 90.7349 69.5307 90.7799L70.054 92.7711C70.0704 92.8651 70.1644 93.3721 69.5511 93.5357ZM70.7859 90.4364C70.6632 89.9621 70.1358 89.0626 69.04 89.0626C68.8233 89.0667 68.6107 89.0953 68.4022 89.1526C67.4168 89.4143 67.0774 90.0357 66.9629 90.5059C66.8403 91.0089 66.9548 91.4463 66.9588 91.4627L67.4822 93.458C67.6049 93.9323 68.1323 94.8318 69.2281 94.8318C69.4284 94.8318 69.641 94.8032 69.8659 94.7418C71.759 94.2348 71.3133 92.4481 71.3092 92.4317L70.7859 90.4364Z" fill="#DEC685"/>
<path fill-rule="evenodd" clip-rule="evenodd" d="M68.9582 90.5181C68.8928 90.5181 68.8315 90.5263 68.766 90.5467C68.4962 90.6203 68.4349 90.7471 68.4103 90.8493C68.3817 90.9679 68.4062 91.0824 68.4062 91.0824L68.9296 93.0736C68.9459 93.1308 69.0645 93.462 69.502 93.3516C69.9027 93.2453 69.8986 92.9714 69.8618 92.816L69.3426 90.8248C69.3303 90.7921 69.2485 90.5181 68.9582 90.5181ZM69.3098 93.7646C68.8723 93.7646 68.6311 93.4456 68.5534 93.1717L68.0301 91.1764C68.026 91.1641 67.981 90.972 68.0342 90.7594C68.1078 90.465 68.3204 90.2687 68.6679 90.1747C68.762 90.1501 68.8601 90.1338 68.9582 90.1338C69.4284 90.1338 69.6533 90.5059 69.7146 90.7266L70.2339 92.7179C70.3238 93.0817 70.2094 93.5601 69.6001 93.7196C69.5061 93.7482 69.408 93.7605 69.3098 93.7646ZM69.04 89.2547C68.856 89.2547 68.6556 89.2833 68.4512 89.3365C67.5599 89.5777 67.2532 90.1256 67.151 90.5467C67.0406 91.0047 67.1428 91.4054 67.1428 91.4095L67.6662 93.4048C67.7766 93.83 68.2468 94.6355 69.224 94.6355C69.408 94.6355 69.6083 94.6068 69.8128 94.5496C71.5014 94.0957 71.1375 92.5379 71.1171 92.4725L70.5937 90.4813C70.4874 90.0602 70.0172 89.2547 69.04 89.2547ZM69.224 95.0239C68.0137 95.0239 67.4331 94.0303 67.2941 93.507L66.7708 91.5117C66.689 91.1641 66.6931 90.8043 66.7748 90.4609C66.9016 89.9375 67.2737 89.2547 68.3531 88.9685C68.5902 88.9031 68.8233 88.8704 69.0441 88.8704C70.2584 88.8704 70.839 89.8639 70.9739 90.3873L71.4973 92.3826C71.669 93.0695 71.5627 94.4883 69.915 94.9298C69.6778 94.9912 69.4448 95.0239 69.224 95.0239ZM77.9984 84.9575L79.4539 87.3616L76.7758 85.7139L75.7332 86.3599L78.718 91.2868L79.8301 90.5999L78.3745 88.1957L81.0526 89.8435L82.0953 89.1975L79.1105 84.2665L77.9984 84.9575Z" fill="#DEC685"/>
<path fill-rule="evenodd" clip-rule="evenodd" d="M75.9991 86.4212L78.7835 91.021L79.5686 90.5385L77.7982 87.6151L81.0528 89.6186L81.8296 89.1361L79.0452 84.5363L78.2602 85.0188L80.0306 87.9422L76.776 85.9387L75.9991 86.4212ZM78.6568 91.5566L75.4717 86.2945L76.776 85.4849L78.8735 86.7769L77.7327 84.892L79.172 84.0007L82.3571 89.2629L81.0528 90.0724L78.9553 88.7804L80.096 90.6653L78.6568 91.5566ZM84.7735 79.0697C83.9885 79.9651 83.9435 80.9996 84.659 81.6415C84.8757 81.8378 85.1701 81.9359 85.5258 81.9359C86.0165 81.9359 86.5725 81.756 87.0632 81.5924C87.4557 81.4657 87.8237 81.343 88.0649 81.343C88.1222 81.343 88.2039 81.3512 88.2448 81.3839C88.5147 81.6251 88.1508 82.0586 88.1385 82.0749L87.1163 83.2402L88.0322 84.062L89.0544 82.8926C89.4837 82.402 89.7045 81.85 89.6718 81.3389C89.6473 80.9464 89.4674 80.5784 89.1689 80.3208C88.9522 80.1246 88.6619 80.0265 88.3062 80.0265C87.8155 80.0265 87.2554 80.2105 86.7647 80.3699C86.3722 80.5008 86.0001 80.6193 85.7589 80.6193C85.7016 80.6193 85.6199 80.6111 85.579 80.5743C85.3132 80.3331 85.6812 79.9038 85.6976 79.8834L86.7116 78.7222L85.7875 77.8962L84.7735 79.0697Z" fill="#DEC685"/>
<path fill-rule="evenodd" clip-rule="evenodd" d="M87.3862 83.2321L88.0159 83.7963L88.9072 82.7742C89.3038 82.3203 89.5083 81.8215 89.4796 81.3595C89.4592 81.016 89.2997 80.6971 89.0421 80.4722C88.8622 80.3087 88.6128 80.2269 88.3062 80.2269C87.8482 80.2269 87.3044 80.4068 86.8261 80.5622C86.2168 80.7625 85.6608 80.9179 85.4482 80.7298C85.1538 80.464 85.3051 80.0593 85.5463 79.769L86.4417 78.7468L85.8039 78.1784L84.9166 79.1924C84.2093 80.002 84.152 80.9261 84.7817 81.4903C84.9657 81.6539 85.211 81.7356 85.5218 81.7356C85.9797 81.7356 86.5194 81.5598 86.9937 81.4044C87.6029 81.2041 88.1549 81.0487 88.3675 81.2368C88.666 81.5026 88.5065 81.9196 88.2816 82.1936L87.3862 83.2321ZM88.0527 84.3442L86.8465 83.2648L87.9954 81.9523C88.0568 81.8787 88.2162 81.6375 88.1263 81.5394C88.1263 81.5435 88.1058 81.5394 88.069 81.5394C87.8564 81.5394 87.4843 81.6579 87.1245 81.7765C86.6175 81.9441 86.0492 82.1281 85.5299 82.1281C85.1252 82.1281 84.7899 82.0137 84.5323 81.7847C83.7309 81.0651 83.7718 79.9243 84.6304 78.943L85.7753 77.6346L86.9855 78.7182L85.8448 80.0225C85.7794 80.1001 85.6158 80.3414 85.7017 80.4395C85.7058 80.4354 85.7262 80.4395 85.7589 80.4395C85.9756 80.4395 86.3436 80.3168 86.7075 80.1983C87.2145 80.0306 87.7869 79.8425 88.3103 79.8425C88.7151 79.8425 89.0503 79.957 89.3038 80.186C89.6473 80.4927 89.8435 80.8933 89.8681 81.3349C89.9008 81.8951 89.6636 82.4961 89.2016 83.0236L88.0527 84.3442Z" fill="#DEC685"/>
</svg>
