<svg width="120" height="120" viewBox="0 0 120 120" fill="none" xmlns="http://www.w3.org/2000/svg">
<circle cx="60" cy="60" r="60" fill="#EDF0F4"/>
<path d="M105 60C105 84.8562 84.8562 105 60 105C35.1438 105 15 84.8562 15 60C15 35.1438 35.1438 15 60 15C84.8562 15 105 35.1438 105 60Z" fill="#393534"/>
<path d="M99.766 60.3863C99.766 82.1331 82.133 99.7661 60.3862 99.7661C38.6394 99.7661 21.0063 82.1331 21.0063 60.3863C21.0063 38.6395 38.6394 21.0065 60.3862 21.0065C82.133 21.0065 99.766 38.6395 99.766 60.3863Z" fill="#F2F2F2"/>
<path d="M75.2845 49.0462L47.0099 77.9582L46.3918 66.3123L63.4455 49.0462L70.5142 41.7071L75.0914 40.2007L78.4133 41.0698L81.5227 43.6578L77.776 47.9646L75.2845 49.0462Z" fill="white"/>
<path d="M77.8514 49.855L72.1926 55.6876H80.7677L81.7334 54.7026C82.4094 54.0074 82.9501 53.1576 83.3171 52.2499C83.684 51.3228 83.8579 50.3378 83.8579 49.3529C83.8579 47.3829 83.124 45.5095 81.8107 44.0803L77.9094 48.1361C78.1218 48.3679 78.2184 48.6962 78.2184 49.0052C78.1991 49.3142 78.0639 49.6232 77.8514 49.855Z" fill="#E1DED9"/>
<path d="M54.5995 74.4011L49.9836 79.1908H58.5588L63.2133 74.4011H54.5995Z" fill="#E1DED9"/>
<path d="M56.9185 71.972H65.4936L70.6116 66.6609H62.0365L56.9185 71.972Z" fill="#E1DED9"/>
<path d="M78.4304 58.5493H69.8553L64.3704 64.2081H72.9455L78.4304 58.5493Z" fill="#E1DED9"/>
<path fill-rule="evenodd" clip-rule="evenodd" d="M78.1546 39.8175C79.3134 40.3197 80.3756 41.0536 81.264 41.9806C82.1525 42.9077 82.8671 43.9892 83.3113 45.2446C83.7941 46.442 84.0452 47.736 84.0259 49.0493C84.0452 51.6759 83.0409 54.206 81.2447 56.0794L81.2061 56.118L59.131 78.9849C59.0344 79.1008 58.8992 79.2167 58.764 79.2746C58.6095 79.3519 58.455 79.3712 58.3005 79.3712H46.9443L42.4057 84.0643H39.0452L45.1675 77.6716V65.8519C45.1482 65.5236 45.2834 65.1952 45.4958 64.9442L67.7061 42C68.5945 41.0729 69.6568 40.3197 70.8156 39.8175C71.9743 39.3154 73.2297 39.0643 74.4851 39.0643C75.7404 39.0643 76.9958 39.3154 78.1546 39.8175ZM69.3284 43.6609L68.3628 44.6459V53.6652L74.0602 47.7553C74.2726 47.5429 74.5816 47.4077 74.8907 47.4077C75.1997 47.4077 75.5087 47.5236 75.7211 47.7553C75.7211 47.7939 75.7211 47.7939 75.7598 47.8326C75.9722 48.0643 76.0688 48.3733 76.0688 48.6824C76.0688 48.9914 75.9336 49.3004 75.7211 49.5128L70.101 55.3454H78.6761L79.6417 54.3605C80.9937 52.9506 81.7469 51.0579 81.7662 49.0686C81.7662 47.0794 81.0323 45.1673 79.719 43.7382C79.6951 43.7382 79.686 43.7234 79.6734 43.703C79.6656 43.6904 79.6565 43.6757 79.6417 43.6609C78.2705 42.251 76.4164 41.4592 74.4851 41.4592C72.5537 41.4592 70.6997 42.251 69.3284 43.6609ZM49.2812 76.9184L53.8971 72.1287H62.4722L57.8563 76.9184H49.2812ZM68.2276 57.2575L62.7426 62.9549H71.3177L76.8027 57.2575H68.2276ZM69.4443 64.8862L64.3263 70.1974H55.7512L60.8692 64.8862H69.4443ZM66.4894 46.5579L61.0044 52.2553V61.2746L66.4894 55.5772V46.5579ZM54.013 59.4978L59.131 54.1866V63.206L54.013 68.5171V59.4978ZM52.1782 61.4485L47.4851 66.2768V75.2961L52.1782 70.4678V61.4485Z" fill="#393534"/>
</svg>
