<svg width="120" height="120" viewBox="0 0 120 120" fill="none" xmlns="http://www.w3.org/2000/svg">
<circle cx="60" cy="60" r="60" fill="#EDF0F4"/>
<path d="M88.0091 42.8743L84.7192 40.4832L92.4136 36.6001L88.0091 42.8743Z" fill="#3F4B80"/>
<path d="M68.4492 35L78.0312 39.9258L79.1818 47.8719L68.4492 35Z" fill="#313A62"/>
<path d="M79.1818 47.8719L77.6537 54.6315L68.4492 35L79.1818 47.8719Z" fill="#3F4B80"/>
<path d="M77.654 54.6316L62.9844 36.1148L68.4675 35.0361L77.654 54.6316Z" fill="#4B5897"/>
<path d="M77.6538 54.6316L61.7437 48.4114L62.9841 36.1147L77.6538 54.6316Z" fill="#5161A4"/>
<path d="M62.9841 36.1147L61.7437 48.4114L45.3481 50.7125L62.9841 36.1147Z" fill="#4B5897"/>
<path d="M77.654 54.6314L60.1079 59.3954L61.7439 48.4111L77.654 54.6314Z" fill="#4B5897"/>
<path d="M60.1079 59.3954L77.654 54.6313L69.7439 58.3167L60.1079 59.3954Z" fill="#3F4B80"/>
<path d="M50.418 61.0494L60.1079 59.3955L60.2697 62.7034L50.418 61.0494Z" fill="#3F4B80"/>
<path d="M60.2697 62.7034L60.1079 59.3955L69.7439 58.3169L60.2697 62.7034Z" fill="#313A62"/>
<path d="M45.3481 50.7123L61.7437 48.4111L60.1077 59.3954L45.3481 50.7123Z" fill="#3F4B80"/>
<path d="M45.3481 50.7124L60.1077 59.3955L50.4178 61.0495L45.3481 50.7124Z" fill="#4B5897"/>
<path d="M45.3481 50.7124L50.4178 61.0495L45.5279 64.627L45.3481 50.7124Z" fill="#313A62"/>
<path d="M37.0245 53.499L38.9841 65.2743L33.5908 57.1664L37.0245 53.499Z" fill="#5161A4"/>
<path d="M27.3706 57.2384L33.5908 57.1665L33.6268 60.9598L27.3706 57.2384Z" fill="#313A62"/>
<path d="M27.874 59.8091L27.3706 57.2383L33.6268 60.9596L27.874 59.8091Z" fill="#3F4B80"/>
<path d="M27.874 59.8091L24.3145 62.9551L27.3706 57.2383L27.874 59.8091Z" fill="#4B5897"/>
<path d="M24.3146 62.9551L24.0629 64.8607L20 64.1955L24.3146 62.9551Z" fill="#313A62"/>
<path d="M24.3147 62.9551L27.8742 59.8091L24.063 64.8608L24.3147 62.9551Z" fill="#5161A4"/>
<path d="M33.5908 57.1665L38.9841 65.2744L33.6268 66.335L33.5908 57.1665Z" fill="#3F4B80"/>
<path d="M35.1732 72.3755L31.2721 80.4474L30.6968 74.2272L35.1732 72.3755Z" fill="#3F4B80"/>
<path d="M30.6968 74.2271L31.2721 80.4473L29.0249 81.5259L30.6968 74.2271Z" fill="#1F243E"/>
<path d="M31.272 80.4473L31.8653 83.4855L27.2271 84.4383L31.272 80.4473Z" fill="#3F4B80"/>
<path d="M29.0248 81.5259L31.272 80.4473L27.2271 84.4383L29.0248 81.5259Z" fill="#313A62"/>
<path d="M33.6271 66.3346L38.9844 65.2739L30.6968 74.2267L33.6271 66.3346Z" fill="#313A62"/>
<path d="M38.9844 65.2739L42.6339 69.4267L30.6968 74.2267L38.9844 65.2739Z" fill="#4B5897"/>
<path d="M37.0249 53.4989L45.3485 50.7124L38.9845 65.2742L37.0249 53.4989Z" fill="#4B5897"/>
<path d="M38.9844 65.2742L45.3484 50.7124L45.5282 64.627L38.9844 65.2742Z" fill="#3F4B80"/>
<path d="M42.6338 69.427L38.9844 65.2741L45.5282 64.627L42.6338 69.427Z" fill="#313A62"/>
<path d="M69.7437 58.3166L77.456 58.2627L72.5302 65.7773L69.7437 58.3166Z" fill="#4B5897"/>
<path d="M69.7437 58.3167L77.6538 54.6313L77.456 58.2628L69.7437 58.3167Z" fill="#5161A4"/>
<path d="M68.2339 64.9686L69.744 58.3169L72.5305 65.7776L68.2339 64.9686Z" fill="#3F4B80"/>
<path d="M66.3818 68.4564L68.2335 64.9688L72.5302 65.7777L66.3818 68.4564Z" fill="#4B5897"/>
<path d="M62.6426 70.9553L63.8111 65.2384L68.2336 64.9688L62.6426 70.9553Z" fill="#3F4B80"/>
<path d="M62.6426 70.9553L68.2336 64.9688L66.3819 68.4564L62.6426 70.9553Z" fill="#313A62"/>
<path d="M84.7192 40.4834L92.0541 35.3418L92.4136 36.6002L84.7192 40.4834Z" fill="#495692"/>
<path d="M92.0537 35.3418L98.0582 35.0361L92.4133 36.6002L92.0537 35.3418Z" fill="#5D6CAC"/>
<path d="M88.2066 47.0811L84.8628 44.7261L96.1707 44.7441L88.2066 47.0811Z" fill="#4F60A3"/>
<path d="M84.8628 44.7257L94.5886 43.4673L96.1707 44.7437L84.8628 44.7257Z" fill="#495692"/>
<path d="M94.5889 43.4675L99.0473 39.5664L96.1709 44.7439L94.5889 43.4675Z" fill="#3F4B80"/>
<path d="M96.1709 44.7439L99.0473 39.5664L100 40.0158L96.1709 44.7439Z" fill="#4F60A3"/>
<path d="M99.0474 39.5665L99.8384 37.3193L100 40.016L99.0474 39.5665Z" fill="#313A62"/>
<path d="M79.1819 47.8721L80.2606 57.3282L77.6538 54.6316L79.1819 47.8721Z" fill="#313A62"/>
<path d="M80.2608 57.3282L79.1821 47.8721L88.2068 47.0811L80.2608 57.3282Z" fill="#3F4B80"/>
<path d="M88.2065 47.0808L79.1818 47.8718L78.0312 39.9258L88.2065 47.0808Z" fill="#4B5897"/>
<path d="M88.0089 42.874L89.465 44.1864L84.8628 44.7257L88.0089 42.874Z" fill="#313A62"/>
<path d="M78.0312 39.9258L88.0088 42.8741L84.8627 44.7258L78.0312 39.9258Z" fill="#3F4B80"/>
<path d="M78.0312 39.9258L84.7189 40.4831L88.0088 42.8741L78.0312 39.9258Z" fill="#313A62"/>
<path d="M87.7935 62.0384L88.2069 47.0811L91.8024 50.0114L87.7935 62.0384Z" fill="#3F4B80"/>
<path d="M87.7933 62.0384L88.2068 47.0811L80.2607 57.3282L87.7933 62.0384Z" fill="#495692"/>
<path d="M91.802 50.0113L90.6515 46.272L88.2065 47.081L91.802 50.0113Z" fill="#313A62"/>
<path d="M92.2878 59.9708L87.7935 62.0382L91.8024 50.0112L92.2878 59.9708Z" fill="#313A62"/>
</svg>
