<svg width="120" height="120" viewBox="0 0 120 120" fill="none" xmlns="http://www.w3.org/2000/svg">
<circle cx="60" cy="60" r="60" fill="#EDF0F4"/>
<path d="M99.0829 59.1487C96.852 56.9977 94.7426 54.7285 92.5117 52.5775C91.8566 52.0726 91.6264 51.1873 91.9556 50.4266C92.8729 47.32 93.6687 44.2134 94.5444 41.1068C94.7842 40.3494 94.6627 40.033 93.8285 39.8316C90.642 39.0358 87.4971 38.0802 84.2691 37.2812C83.3518 37.083 82.9938 36.6036 82.7957 35.7662C81.9999 32.6596 81.1241 29.633 80.3667 26.5264C80.127 25.6091 79.8489 25.4109 78.9316 25.689C75.8251 26.5647 72.6801 27.3605 69.5736 28.1596C69.0558 28.3194 68.5764 28.4376 68.1002 27.9614C65.5497 25.3374 62.881 22.8285 60.4136 20.0799C60.1324 20.0863 59.8511 20.0607 59.5762 20C59.5922 20.2109 59.4836 20.4155 59.2982 20.5178C56.9075 22.8669 54.5201 25.216 52.1678 27.6066C51.7171 28.1596 50.9564 28.3545 50.2949 28.0861C47.1883 27.2103 44.0817 26.4145 40.9751 25.5356C40.0994 25.2959 39.7414 25.4557 39.5017 26.373C38.7059 29.4795 37.7886 32.5861 36.9928 35.6927C36.9097 36.3447 36.4079 36.8657 35.7591 36.9679C32.6142 37.7638 29.546 38.6395 26.401 39.3969C25.3655 39.6367 25.0875 39.9946 25.4039 41.0685C26.3211 44.1367 27.0371 47.2817 27.9128 50.3882C28.194 51.0498 27.9991 51.8137 27.4334 52.2611C25.0843 54.5303 22.8119 56.8826 20.4627 59.1519C19.8267 59.7495 19.8651 60.1075 20.4627 60.7051C22.7735 62.9744 25.0044 65.2851 27.3119 67.5543C27.8808 67.9762 28.095 68.7305 27.8297 69.3857C26.954 72.4539 26.1965 75.5189 25.2792 78.5872C24.9596 79.661 25.1194 80.1021 26.2764 80.3802C29.383 81.1376 32.4097 82.0517 35.5162 82.8092C36.4335 83.0073 36.7915 83.4867 36.9896 84.3241C37.7854 87.469 38.6612 90.5373 39.4602 93.6822C39.6583 94.478 39.9396 94.6794 40.7354 94.4397C43.8036 93.5639 46.907 92.848 49.9753 91.9691C50.7903 91.6623 51.7107 91.9212 52.2445 92.6051C54.4338 94.8743 56.6646 97.0668 58.8571 99.336C59.5347 100.052 59.931 100.094 60.6501 99.3744C62.8394 97.0636 65.1502 94.8743 67.3811 92.5636C67.8828 91.902 68.7618 91.6591 69.532 91.9659C72.6002 92.8832 75.6653 93.6375 78.7335 94.5164C79.6092 94.7561 79.9672 94.5963 80.2069 93.679C80.9643 90.6108 81.92 87.5457 82.6774 84.4775C82.8756 83.5602 83.3135 83.2023 84.1924 83.0041C87.299 82.2467 90.3256 81.3709 93.4322 80.6135C94.3495 80.4153 94.6275 80.0574 94.3495 79.0985C93.4738 75.992 92.6779 72.8055 91.799 69.6605C91.5178 68.9989 91.7127 68.2351 92.2784 67.7876C94.5476 65.5983 96.7785 63.2876 99.0893 61.0983C99.9202 60.3056 99.8403 59.9061 99.0829 59.1487Z" fill="#05BCA9"/>
<path d="M40.0194 57.3591C40.0194 57.3623 40.0194 57.3655 40.0194 57.3687C40.0067 58.7206 38.9008 59.8041 37.5489 59.7913H35.0783C34.0428 59.7913 33.0073 59.7913 31.9334 59.8296C31.3773 59.8296 31.2175 59.6315 31.3357 59.0722C31.6138 57.9184 31.8918 57.0011 33.4068 56.7614C35.3596 56.4833 37.2293 55.8058 39.1405 55.2465C39.8181 55.0867 40.0962 55.1666 40.0163 55.8825C39.9811 56.3619 40.0194 56.8797 40.0194 57.3591Z" fill="#EDF0F4"/>
<path d="M39.9013 79.0889C38.2585 77.542 36.7883 76.1134 35.2798 74.6847C36.555 73.9688 37.7887 73.2912 38.984 72.5753C39.6616 72.1758 39.9013 72.2557 39.9013 73.0931C39.8629 75.0363 39.9013 77.0242 39.9013 79.0889Z" fill="#EDF0F4"/>
<path d="M35.4811 73.8473C35.0017 74.1254 34.8834 74.0071 34.7651 73.5277C34.4072 72.0927 33.9693 70.6608 33.6114 69.2258C33.5315 68.9062 33.4931 68.5099 33.8095 68.3085C34.1291 68.1104 34.3656 68.3884 34.6053 68.5067C36.2385 69.424 37.8717 70.3796 39.7446 71.4151C38.2297 72.2525 36.833 73.0099 35.4811 73.8473Z" fill="#EDF0F4"/>
<path d="M32.4544 52.4976C32.0549 53.4948 30.6614 53.6514 29.7473 54.2906C28.83 51.9415 28.83 51.9415 30.4249 50.3083C31.5403 49.1929 32.6557 48.119 33.7712 47.0036C33.8734 46.9396 33.9789 46.8885 34.0908 46.8438C33.5283 48.8349 33.1703 50.7462 32.4544 52.4976Z" fill="#EDF0F4"/>
<path d="M34.8419 46.4058C34.9218 46.0478 35.1999 46.1277 35.398 46.246C36.7532 47.0418 38.0667 47.8376 39.5785 48.7165C37.4275 49.9502 35.4747 51.0656 33.2471 52.261C33.8064 50.1484 34.3241 48.2755 34.8419 46.4058Z" fill="#EDF0F4"/>
<path d="M30.6614 56.8795C30.2235 56.8795 30.2235 56.4417 30.1436 56.1636C29.7057 54.85 29.7856 54.7701 32.1763 53.7729C31.9526 54.6902 31.7384 55.4445 31.5563 56.1636C31.4955 56.6015 31.1024 56.9179 30.6614 56.8795Z" fill="#EDF0F4"/>
<path d="M28.2707 57.5568C26.7558 57.9563 25.244 58.3143 23.7291 58.6722L23.6108 58.5124L29.1081 55.2876C30.0254 57.0007 29.9838 57.1189 28.2707 57.5568Z" fill="#EDF0F4"/>
<path d="M29.4277 57.8767C30.4632 57.637 30.1436 58.714 30.345 59.1519C30.5431 59.5898 30.2651 59.7879 29.7889 59.7879H23.2945C23.2945 59.708 23.2561 59.5898 23.2561 59.5099C25.2856 58.9921 27.3151 58.3944 29.4277 57.8767Z" fill="#EDF0F4"/>
<path d="M30.9875 61.645C31.3838 63.1504 31.7801 64.6557 32.2307 66.2793C29.2104 64.8091 29.6004 65.6369 30.9875 61.645Z" fill="#EDF0F4"/>
<path d="M29.9615 65.9211C30.9587 65.8827 32.7485 67.5543 32.7485 68.4715C32.4928 69.1491 31.9527 69.7851 31.4349 70.5042C31.3965 70.5042 31.355 70.5426 31.3166 70.5426C30.9171 70.6225 28.9675 68.2318 29.0474 67.794C29.0858 67.7141 29.0858 67.6342 29.1273 67.5543C29.4022 66.9949 29.0858 65.9594 29.9615 65.9211Z" fill="#EDF0F4"/>
<path d="M30.8372 72.4924C31.2367 71.8948 31.5148 71.6551 32.0709 72.3326C32.5855 72.9207 33.1288 73.4768 33.7041 74.0042C33.9023 74.2439 34.3018 74.442 33.784 74.7617C31.5148 76.0369 29.204 77.3505 26.9348 78.6257C26.8709 78.5682 26.8198 78.5011 26.775 78.4275C28.111 76.4364 29.4661 74.4836 30.8372 72.4924Z" fill="#EDF0F4"/>
<path d="M33.0521 69.4658C33.4101 70.7411 33.7297 72.0163 34.0876 73.3682C31.4988 71.5369 31.4189 71.2972 33.0521 69.4658Z" fill="#EDF0F4"/>
<path d="M34.0077 66.7172C33.5698 67.3947 33.0904 67.1167 32.9338 66.5574C32.3777 64.6461 31.8599 62.7349 31.3805 60.8236C31.1824 60.1876 31.7385 60.3442 32.0581 60.3442H38.3895C36.833 62.6166 35.4395 64.6877 34.0077 66.7172Z" fill="#EDF0F4"/>
<path d="M39.6615 54.5305C37.2325 55.1665 34.8035 55.8058 32.2531 56.4833C32.4129 54.1726 33.2087 52.6608 35.3213 51.8235C36.9129 51.1874 38.348 50.1519 40.0611 49.1963V53.9744C40.0962 54.2333 39.9236 54.4794 39.6615 54.5305Z" fill="#EDF0F4"/>
<path d="M40.0195 42.3024V48.2375C38.5461 47.4001 37.2325 46.6043 35.9573 45.8468C35.5194 45.6071 35.4012 45.3674 35.839 44.9296C36.9129 43.894 37.9484 42.8585 38.984 41.7846C39.1789 41.5002 39.5497 41.4011 39.8597 41.5449C40.1793 41.6664 40.0195 42.0243 40.0195 42.3024Z" fill="#EDF0F4"/>
<path d="M35.5994 43.9353C35.9989 41.1068 36.197 40.9087 38.2681 41.5447C37.3508 42.382 36.4367 43.1779 35.5994 43.9353Z" fill="#EDF0F4"/>
<path d="M39.7031 28.604C39.783 28.6424 39.9012 28.6424 39.9811 28.6839V33.9798C39.9811 36.1691 39.9811 36.1691 37.5521 36.4887C38.268 33.82 38.984 31.1928 39.7031 28.604Z" fill="#EDF0F4"/>
<path d="M37.0727 38.1218C37.2325 37.0862 38.0283 37.2045 38.7059 36.9264C39.8596 36.447 40.0994 36.9648 39.9811 37.962V38.4414C39.9811 40.5923 38.9072 41.3881 36.9129 40.6722C36.6732 40.5923 36.5134 40.5124 36.5549 40.2727C36.7147 39.5536 36.9544 38.8377 37.0727 38.1218Z" fill="#EDF0F4"/>
<path d="M27.9128 39.7548C30.7573 39.0389 33.6082 38.2814 36.5966 37.5239C36.3569 38.4796 36.1587 39.237 35.9605 40.0328C35.8007 40.6689 35.3245 40.5506 34.8867 40.5123C32.5759 40.3141 30.2268 40.1543 27.8777 39.9561C27.9065 39.8922 27.9192 39.8219 27.9128 39.7548Z" fill="#EDF0F4"/>
<path d="M34.9217 41.1069C35.4778 41.1452 35.5993 41.3466 35.4778 41.9027C34.7619 45.1691 34.8003 45.1691 31.9717 43.4943C30.4983 42.6186 28.9834 41.7429 27.3502 40.7873C30.0253 40.5508 32.4927 40.9886 34.9217 41.1069Z" fill="#EDF0F4"/>
<path d="M26.2796 41.3084C26.2413 41.1901 26.2413 41.1102 26.1997 40.9888C26.318 40.9888 26.3979 41.0271 26.5193 41.0271C28.91 42.4206 31.339 43.8556 33.8064 45.2491C34.0461 45.4089 34.404 45.4888 34.0045 45.9267C32.3713 47.5982 30.7797 49.3113 29.1848 51.0244C29.0314 50.9733 28.8844 50.9094 28.747 50.8263C27.9128 47.6398 27.117 44.4949 26.2796 41.3084Z" fill="#EDF0F4"/>
<path d="M28.3507 52.3794C28.469 52.4976 28.5904 52.5392 28.5904 52.5776C29.1465 54.6103 29.1465 54.6103 27.3152 55.6458C25.96 56.4416 24.5666 57.1991 23.0548 58.0364C24.8862 56.0421 26.5993 54.2107 28.3507 52.3794Z" fill="#EDF0F4"/>
<path d="M21.901 60.344C24.4515 60.344 26.9604 60.344 29.5077 60.3057C30.1852 60.3057 30.4633 60.4239 30.1852 61.2229C29.7857 62.2968 29.8273 64.0099 29.1114 64.3679C28.274 64.8057 27.1202 63.4921 26.123 62.9744C24.688 62.2169 23.2945 61.3412 21.8627 60.5454C21.8755 60.4783 21.8914 60.4111 21.901 60.344Z" fill="#EDF0F4"/>
<path d="M22.8949 62.0984L22.9333 62.0601C24.966 62.8175 26.7174 64.0928 28.5871 65.1283C29.1049 65.4063 28.9866 66.1255 28.2291 67.6372C26.401 65.7995 24.5664 64.048 22.8949 62.0984Z" fill="#EDF0F4"/>
<path d="M28.6287 69.146C28.747 69.1843 28.8684 69.1843 28.9068 69.2259C30.9778 71.217 30.9778 71.217 29.3447 73.5662C28.4689 74.8414 27.5517 76.0751 26.6759 77.3088L26.4778 77.149L28.6287 69.146Z" fill="#EDF0F4"/>
<path d="M26.1997 79.7795C28.9867 78.1878 31.4956 76.7528 34.0461 75.3178C34.3657 75.1196 34.5255 75.158 34.6437 75.5575C35.2414 77.8267 35.8391 80.0575 36.5166 82.5665C32.9722 81.5725 29.7441 80.6968 26.1997 79.7795Z" fill="#EDF0F4"/>
<path d="M39.7989 91.4095C39.719 91.4095 39.6391 91.4479 39.5592 91.4479C38.8433 88.8591 38.1657 86.2703 37.4498 83.6015H37.4338C37.7119 83.5632 37.7918 83.5216 37.8877 83.5632C39.7989 84.0011 39.7989 84.0011 39.7989 85.9922V91.4095Z" fill="#EDF0F4"/>
<path d="M39.8629 83.2853C39.5849 83.3237 39.5433 83.3652 39.5433 83.3652C37.7919 83.247 36.8363 82.368 36.5965 80.5782C36.3568 79.0633 35.8806 77.6315 35.7208 76.0366C36.9961 77.3119 38.348 78.5072 39.505 79.9007C40.3391 80.8946 39.5433 82.1315 39.8629 83.2853Z" fill="#EDF0F4"/>
<path d="M40.0195 64.1696L39.9013 69.7467C39.9013 70.4627 39.783 70.7823 39.0255 70.3028C37.6704 69.507 36.3185 68.7112 34.9218 67.9921C34.3241 67.6725 34.3241 67.3944 34.6821 66.8767C36.0756 64.8855 37.469 62.8944 38.8242 60.8617C38.9808 60.5101 39.3611 60.3119 39.7414 60.3822C40.2976 60.4621 40.0195 60.9 40.0195 61.1781C40.0611 62.1752 40.0195 63.1724 40.0195 64.1696Z" fill="#EDF0F4"/>
<path d="M74.2718 45.3703C73.0765 44.5745 71.6031 44.2549 71.0854 42.7016C70.8776 42.2573 70.8936 41.7396 71.1237 41.3081C72.1592 39.595 73.1564 37.8819 74.112 36.1688C74.5115 35.4913 74.748 35.6127 75.2658 36.0506C76.1415 36.808 76.4611 37.5655 76.0616 38.7193C75.3873 40.9086 74.8695 43.1394 74.2718 45.3703Z" fill="#EDF0F4"/>
<path d="M79.2513 75.4007C79.2513 78.7054 79.2513 78.7054 75.9465 78.4273C74.3549 78.3091 72.7217 78.1493 71.1268 78.0278C70.7273 77.9895 70.4109 77.9479 70.2895 77.4717C70.1712 76.9923 70.6091 76.954 70.8871 76.7942C73.3961 75.4007 75.8666 74.0072 78.334 72.5721C79.0915 72.1343 79.3312 72.3324 79.2513 73.1698C79.2097 73.9273 79.2513 74.6432 79.2513 75.4007Z" fill="#EDF0F4"/>
<path d="M64.8721 85.4747C63.517 84.4776 61.9637 83.7233 60.4104 82.806C61.8454 82.0102 63.159 81.2527 64.5142 80.4569C64.7475 80.2779 65.0799 80.3131 65.2716 80.5368C67.0231 82.2883 68.8161 84.0429 70.6474 85.8742C70.4077 86.0724 70.3694 86.114 70.3694 86.114C68.4166 86.9897 66.6268 86.8299 64.8721 85.4747Z" fill="#EDF0F4"/>
<path d="M66.5054 87.1493C64.4343 87.6671 62.603 88.1849 60.7716 88.6643C60.3338 88.7825 60.174 88.6643 60.174 88.1849V83.4067C62.3633 84.6788 64.3161 85.8326 66.5054 87.1493Z" fill="#EDF0F4"/>
<path d="M46.2742 85.1964C45.718 85.0366 45.9961 84.717 46.1559 84.4389C47.1914 82.6459 48.2653 80.8529 49.3807 78.9033C50.5345 81.3323 51.6116 83.5632 52.6471 85.794C53.0466 86.5899 52.6471 86.8679 52.0111 86.7113C50.0967 86.2735 48.1854 85.7141 46.2742 85.1964Z" fill="#EDF0F4"/>
<path d="M51.5317 87.2292C48.9046 88.9806 48.8247 88.9423 46.5139 85.874C48.2238 86.3502 49.8187 86.7497 51.5317 87.2292Z" fill="#EDF0F4"/>
<path d="M45.4943 75.279C45.5327 75.0808 45.6541 74.8795 45.8939 75.0393C46.7312 75.557 47.7252 75.7968 48.3229 76.6725C48.9205 77.5482 49.1602 78.4239 48.4028 79.4594C47.4951 80.7922 46.6833 82.1921 45.9738 83.6399C45.3761 84.7937 44.8999 84.7138 44.2223 83.7997C43.9442 83.4002 43.3849 83.202 43.5064 82.566C44.1616 80.1402 44.8008 77.708 45.4943 75.279Z" fill="#EDF0F4"/>
<path d="M40.5788 37.2047C40.5724 37.1727 40.5661 37.1375 40.5661 37.1056C40.5309 36.6677 40.8601 36.2842 41.298 36.249C42.1737 36.0892 43.0494 35.8495 43.9251 35.613C44.0306 35.5938 44.1393 35.5938 44.2447 35.613C44.1712 35.661 44.1137 35.7313 44.0849 35.8112C42.9695 36.8851 41.8541 38.0005 40.5788 39.2374C40.5788 38.4799 40.6172 37.8439 40.5788 37.2047Z" fill="#EDF0F4"/>
<path d="M40.8569 39.9946C42.2919 38.4796 43.7653 37.0062 45.357 35.373C46.5906 37.524 47.6677 39.4353 48.9429 41.5862C46.1144 41.3881 43.5256 41.2282 40.9783 40.9502C40.2209 40.8703 40.5373 40.311 40.8569 39.9946Z" fill="#EDF0F4"/>
<path d="M54.437 34.379C55.9104 35.5328 57.6618 36.3702 59.4548 37.4057C58.0198 38.2431 56.7477 38.959 55.4725 39.7165C55.1529 39.9146 54.9164 40.0361 54.5968 39.7165C52.8453 37.9235 51.0523 36.172 49.1794 34.2991C51.0939 33.5417 52.6855 33.0239 54.437 34.379Z" fill="#EDF0F4"/>
<path d="M53.363 33.1041C55.3957 32.548 57.1855 32.0686 59.0169 31.5892C59.4547 31.4709 59.6945 31.5093 59.6945 32.0686V36.8084C57.5435 35.5715 55.5523 34.3793 53.363 33.1041Z" fill="#EDF0F4"/>
<path d="M58.1988 49.7905C57.7993 49.3111 57.1632 49.8288 56.6838 49.9503C54.6927 50.4297 54.731 50.4681 53.6955 48.6751C52.8198 47.0834 51.9441 45.4886 50.9884 43.9353C50.6305 43.2993 50.6688 42.9797 51.3464 42.7016C51.7459 42.5418 52.1039 42.3437 52.4618 42.1838C53.2992 41.8259 54.0535 40.8703 54.8525 41.0301C55.7698 41.2282 56.3259 42.3053 57.0418 42.9829C59.2567 45.2137 61.446 47.4829 63.7184 49.6339C64.5749 50.4201 65.1023 51.5004 65.1918 52.6606C62.6189 52.2227 60.094 51.8232 57.6011 51.347C57.6011 51.2671 57.5627 51.1872 57.6011 51.1073C57.7194 50.6279 58.6366 50.3466 58.1988 49.7905Z" fill="#EDF0F4"/>
<path d="M40.6172 44.731L40.6332 44.3315C40.6332 41.5029 40.6332 41.5029 43.3818 41.7043C45.1332 41.8226 46.9262 42.0239 48.6777 42.1422C49.0772 42.1805 49.4191 42.1805 49.5374 42.6599C49.6557 43.1393 49.2178 43.1777 48.9813 43.3375L41.4545 47.6394C40.6587 48.1188 40.5788 47.7577 40.6172 47.0833C40.6587 46.2843 40.6172 45.53 40.6172 44.731Z" fill="#EDF0F4"/>
<path d="M43.1261 47.4001C45.2355 46.3646 47.1883 45.1693 49.1794 43.974C49.9369 43.4945 50.215 43.7342 50.5729 44.4118C51.5285 46.2432 52.5641 48.0362 53.6411 49.7876C54.079 50.5035 53.9608 50.7049 53.1617 50.903C49.3776 51.8587 45.5934 52.8942 41.8125 53.9297C40.9751 54.1694 40.6587 54.0895 40.777 53.1722C40.8153 52.6161 40.777 52.0185 40.777 51.1012C40.0994 49.2347 41.3363 48.2375 43.1261 47.4001Z" fill="#EDF0F4"/>
<path d="M40.6587 58.9506C40.697 58.4328 40.7769 57.8767 40.7769 57.359C40.8153 54.85 40.8153 54.85 43.1676 54.214C46.2358 53.4182 49.3008 52.6224 52.3691 51.7435C53.6027 51.3855 54.7981 51.2257 56.1117 51.8617C54.4401 53.8529 52.8069 55.844 51.2121 57.8352C50.656 57.4357 50.8925 56.4001 50.2149 56.48C49.6172 56.5599 49.777 57.4357 49.5789 57.9534C49.4351 58.3402 49.3296 58.7397 49.2593 59.1488C49.2593 59.1583 49.2561 59.1711 49.2561 59.1807C49.1826 59.6314 48.7575 59.9382 48.3037 59.8647C46.0344 59.8263 43.762 59.7848 41.4928 59.8263C40.7769 59.8263 40.5788 59.5483 40.6587 58.9506Z" fill="#EDF0F4"/>
<path d="M49.141 33.5799C48.7351 33.7269 48.2845 33.5351 48.1055 33.142C47.8274 32.7041 48.2653 32.5443 48.4635 32.3462C49.4191 31.3107 49.4606 31.3107 51.6499 32.9023C50.7327 33.142 49.8985 33.3018 49.141 33.5799Z" fill="#EDF0F4"/>
<path d="M48.2397 31.6306C47.722 32.388 47.2426 32.4264 46.5682 31.6689C45.571 30.5535 44.4588 29.518 43.3817 28.4441C43.4201 28.3642 43.4616 28.2459 43.5 28.166C45.3569 28.8819 46.9102 30.1572 48.5977 30.9945C48.6392 31.3493 48.3612 31.4292 48.2397 31.6306Z" fill="#EDF0F4"/>
<path d="M49.7387 35.7311C51.2537 37.2045 52.7271 38.6778 54.3603 40.2727C53.6156 40.7649 52.8453 41.2187 52.0495 41.6278C50.9373 42.1296 49.6269 41.6758 49.0612 40.5923C48.0256 38.7609 46.9901 36.9679 45.9546 35.1366C48.2238 34.2193 48.2238 34.2577 49.7387 35.7311Z" fill="#EDF0F4"/>
<path d="M40.5373 61.3794C40.5373 60.622 40.6555 60.3056 41.5344 60.3439C43.6854 60.4238 45.8363 60.3823 47.9873 60.3823C48.5434 60.3823 48.863 60.4622 48.6649 61.1397C47.5111 65.3202 46.3957 69.5039 45.2387 73.8058C44.5228 73.3679 43.9251 73.0483 43.3658 72.7319C40.419 71.0603 40.419 71.0603 40.4989 67.7141C40.5788 65.6015 40.5788 63.492 40.5373 61.3794Z" fill="#EDF0F4"/>
<path d="M50.0583 78.7852C49.8602 78.4273 49.7387 78.1077 50.0967 77.7881C50.3747 77.51 50.6144 77.7881 50.8541 77.9063C53.6028 79.498 56.3098 81.1311 59.1767 82.8059C57.4636 83.8031 55.9103 84.7171 54.3986 85.6344C53.8808 85.9924 53.5228 86.1138 53.2032 85.3564C52.2093 83.167 51.1322 80.9745 50.0583 78.7852Z" fill="#EDF0F4"/>
<path d="M49.3008 76.1964C48.9812 75.9982 48.7032 75.7585 48.3836 75.5603C47.5462 74.9627 46.1527 74.8444 45.9545 73.8888C45.7564 73.0131 46.354 71.936 46.6321 70.942C47.4279 68.0751 48.2653 65.2466 48.9429 62.3382C49.1762 61.1141 49.8761 60.0306 50.8957 59.3115C51.6915 61.5008 52.449 63.6518 53.3247 65.6845C53.5644 66.4004 53.5228 66.6817 52.6887 66.5219C52.4106 66.4835 52.0526 66.3621 51.8928 66.6817C51.733 67.0013 52.091 67.1611 52.2508 67.3976C52.8069 68.155 54.0821 68.5929 54.0022 69.5869C53.9223 70.4243 53.1649 71.2201 52.6887 72.0575C51.9312 73.3327 51.1737 74.6079 50.4578 75.9215C50.1382 76.516 49.8186 76.5927 49.3008 76.1964Z" fill="#EDF0F4"/>
<path d="M53.999 66.1608C53.1617 63.8915 52.3275 61.5808 51.4901 59.3116C51.2696 58.9025 51.3527 58.3975 51.6883 58.0779C53.3215 56.205 54.9131 54.2937 56.4664 52.3825C56.6997 52.0277 57.1344 51.8647 57.5403 51.983C59.931 52.4209 62.36 52.8587 64.7474 53.2582C65.2844 53.3094 65.7318 53.6929 65.8629 54.2138C66.6587 56.4032 67.4545 58.634 68.2919 60.8265C68.538 61.3059 68.4389 61.8876 68.0522 62.2616C66.4989 64.0545 64.9839 65.9242 63.4306 67.7588C63.1526 68.0784 62.9512 68.4747 62.5134 68.2766C59.8862 67.8387 57.3741 67.4008 54.8268 66.963C54.3187 66.8767 54.1588 66.5571 53.999 66.1608Z" fill="#EDF0F4"/>
<path d="M62.2834 68.8678C62.2834 69.5454 61.2095 69.865 61.6473 70.3827C62.0852 70.9005 62.8427 70.4211 63.3604 70.1846C64.7539 69.5485 65.4698 70.0663 66.1091 71.3383C66.9049 73.0099 67.9021 74.6047 68.8577 76.1964C69.2572 76.8739 69.1773 77.2319 68.4582 77.51C67.9947 77.6985 67.5441 77.9095 67.103 78.146C64.9137 79.3413 64.9137 79.3413 63.2006 77.6282C60.9314 75.359 58.7006 73.0866 56.4314 70.8589C55.5556 69.9832 54.7183 69.1075 54.7183 67.5542C57.2655 67.9921 59.7744 68.4299 62.2834 68.8678Z" fill="#EDF0F4"/>
<path d="M70.6889 86.67C71.098 86.5166 71.5551 86.686 71.7628 87.0695C72.0025 87.469 71.5647 87.6256 71.3633 87.8653C70.4077 88.9009 70.4077 88.9009 68.2184 87.3092C69.1357 87.0695 69.9315 86.9097 70.6889 86.67Z" fill="#EDF0F4"/>
<path d="M70.1712 84.7202C68.896 83.2468 67.4642 81.9332 66.0675 80.5781C65.5114 80.022 65.5497 79.7823 66.2656 79.4626C67.1414 79.0631 67.8189 78.2673 68.9344 78.507C69.89 78.2673 70.3694 78.8266 70.8073 79.6608C71.683 81.294 72.6003 82.8856 73.5559 84.4805C73.8339 84.9982 73.7956 85.1964 73.1979 85.4361C72.0026 85.9123 71.0853 85.7941 70.1712 84.7202Z" fill="#EDF0F4"/>
<path d="M76.7168 72.8116C74.6457 73.8472 72.6546 75.0808 70.6634 76.2378C70.0274 76.5958 69.7078 76.6373 69.3083 75.9182C68.3111 74.007 67.2372 72.1341 66.1218 70.3027C65.7223 69.6667 65.962 69.4654 66.5597 69.3056C70.4621 68.3084 74.3261 67.3144 78.1902 66.2373C78.9476 66.0392 79.1873 66.1574 79.1074 66.9149C79.0691 67.5126 79.1074 68.1486 79.1074 69.1042H79.0915C79.769 70.9771 78.5481 71.9743 76.7168 72.8116Z" fill="#EDF0F4"/>
<path d="M79.2097 61.4213C79.1714 61.9007 79.0915 62.4184 79.0915 62.8947C79.0531 65.4036 79.0531 65.3652 76.5825 66.0396C73.5942 66.8354 70.6091 67.6312 67.6208 68.4686C66.3455 68.8266 65.0703 69.1046 63.7567 68.3503L68.6946 62.4568C69.2508 62.8148 68.9727 63.8918 69.6503 63.7704C70.3278 63.6521 70.2064 62.7349 70.3662 62.1787C70.8839 60.3857 70.8839 60.3857 72.7153 60.3857C74.5466 60.3857 76.4195 60.4241 78.2924 60.3857C79.0915 60.3857 79.2896 60.7022 79.2097 61.4213Z" fill="#EDF0F4"/>
<path d="M70.8456 58.3526C70.5675 59.4681 69.9699 60.184 69.0142 60.9414C68.097 58.4709 67.2628 56.1218 66.3871 53.7727C66.9432 53.3731 67.7965 54.0923 67.9787 53.4147C68.1769 52.8969 67.381 52.539 66.9815 52.1395C65.668 50.7843 65.668 50.8259 66.6236 49.1511C67.5409 47.5978 68.4965 46.1245 69.2923 44.5296C69.7717 43.574 70.2479 43.6539 70.9638 44.21C71.194 44.3954 71.4337 44.568 71.6798 44.7278C72.3957 45.2839 73.7125 45.4437 73.9106 46.2811C74.1088 47.1184 73.5527 48.1124 73.313 49.0297C72.5203 52.1395 71.6031 55.246 70.8456 58.3526Z" fill="#EDF0F4"/>
<path d="M73.5941 35.0535C74.1119 35.1717 73.8722 35.5329 73.7124 35.811C72.6769 37.6039 71.6413 39.3969 70.4876 41.3465C69.2922 38.9175 68.2567 36.6483 67.2212 34.4558C66.8632 33.6983 67.1828 33.3819 67.8572 33.5385C69.7716 33.9796 71.6829 34.5357 73.5941 35.0535Z" fill="#EDF0F4"/>
<path d="M68.3782 32.9823C71.245 31.2308 70.1296 30.8313 73.4759 34.3758C71.603 33.8995 70.0497 33.4617 68.3782 32.9823Z" fill="#EDF0F4"/>
<path d="M69.8101 41.3466C69.9699 41.6662 70.168 42.0241 69.8484 42.3821C69.4489 42.8199 69.1708 42.3821 68.8928 42.2223C66.1857 40.669 63.517 39.0773 60.6885 37.4026C62.4815 36.3671 64.153 35.4115 65.7479 34.4558C66.2656 34.1362 66.4638 34.3376 66.6651 34.7754C67.7007 36.9647 68.7745 39.1573 69.8101 41.3466Z" fill="#EDF0F4"/>
<path d="M75.5055 34.9352C74.9494 34.9352 75.1859 34.4974 75.3457 34.2193C76.3429 32.5062 77.3368 30.8347 78.334 29.1216C78.4427 29.128 78.5514 29.1567 78.6536 29.2015C78.1518 31.0744 77.698 33.024 77.062 34.8969C76.7807 35.811 76.0648 34.9352 75.5055 34.9352Z" fill="#EDF0F4"/>
<path d="M77.4967 29.3195C76.541 30.991 75.5439 32.6658 74.5882 34.3373C73.5144 33.2219 72.5555 32.1864 71.52 31.1125C73.7892 29.7989 76.1 28.2456 78.5705 27.0503C78.5322 27.9644 77.8962 28.6036 77.4967 29.3195Z" fill="#EDF0F4"/>
<path d="M70.3853 28.6838C72.4947 28.0861 74.6073 27.5683 76.7583 27.0122L76.8765 27.2519H76.8606C74.9653 28.3258 73.0764 29.5627 71.1428 30.5566C70.347 30.9562 69.8292 29.9206 69.5096 29.2814C69.19 28.6422 70.0657 28.7605 70.3853 28.6838Z" fill="#EDF0F4"/>
<path d="M68.1385 29.2017C69.0142 29.4797 69.4521 30.3171 70.0913 30.8349C70.1232 30.9467 70.0913 31.0682 70.0114 31.1545C69.1676 31.7234 68.2727 32.2156 67.3427 32.6278C66.6651 32.8676 65.0319 30.8764 65.2333 30.1573C65.2333 30.039 65.4314 29.9176 65.5529 29.8792C66.387 29.6395 67.2212 29.4382 68.1385 29.2017Z" fill="#EDF0F4"/>
<path d="M67.6207 28.604C67.5983 28.6232 67.5824 28.652 67.5824 28.6839C64.9552 29.6012 64.9136 29.6012 63.7183 27.0923C63.0823 25.7372 62.4431 24.4236 61.7655 22.9502C62.7627 23.3465 66.9847 27.4886 67.6207 28.604Z" fill="#EDF0F4"/>
<path d="M60.3337 22.2307C60.452 22.2307 60.5319 22.1924 60.6533 22.1924C61.7272 24.4616 62.8043 26.734 63.8782 28.9233C64.0763 29.3228 64.1179 29.5593 63.6001 29.7607C60.4935 30.9944 60.3337 30.9145 60.3337 27.6513V22.2307Z" fill="#EDF0F4"/>
<path d="M61.0497 31.6306C62.4431 32.0685 63.8366 32.4264 65.2301 32.7844C65.5497 32.8643 65.8661 32.9442 65.946 33.3405C65.9844 33.5802 65.8278 33.6985 65.6264 33.8199C63.875 34.8171 62.1619 35.8526 60.2506 36.9649V32.2283C60.2123 31.5891 60.452 31.4293 61.0497 31.6306Z" fill="#EDF0F4"/>
<path d="M60.9474 38.2401C63.4979 39.7933 66.0451 41.3083 68.634 42.7817C69.27 43.1396 69.3115 43.4177 68.9536 44.0153C67.7998 45.8467 66.7643 47.7196 65.6872 49.5925C65.4091 50.1103 65.2078 50.35 64.6517 49.7906C61.5834 46.764 58.5184 43.7756 55.2936 40.6307H55.2776C56.8692 39.7134 58.186 38.9975 59.474 38.2017C59.9215 37.8949 60.5159 37.9109 60.9474 38.2401Z" fill="#EDF0F4"/>
<path d="M52.6631 28.1659C54.9163 25.8551 57.1472 23.5444 59.3781 21.2368C59.4963 21.3167 59.5762 21.3966 59.6977 21.4765L59.7136 29.879C59.7136 30.4767 59.4739 30.6365 58.9562 30.4767C56.8052 29.879 54.6159 29.2813 52.3435 28.6453C52.4362 28.4727 52.5417 28.3129 52.6631 28.1659Z" fill="#EDF0F4"/>
<path d="M52.1678 29.3197C54.1589 29.8375 56.1916 30.3553 58.1828 30.9114V31.1894C56.5911 31.6273 54.9579 32.0652 53.3248 32.5446C51.9696 32.8642 51.1738 31.7072 50.1383 31.231C50.0584 31.1926 50.02 30.9913 50.02 30.9114C50.0584 30.4735 51.7299 29.2015 52.1678 29.3197Z" fill="#EDF0F4"/>
<path d="M50.7743 28.8401C49.579 30.7929 49.4607 30.8313 47.7476 29.7958C46.2742 28.8785 44.641 28.1242 43.2859 27.0088C45.8907 27.3284 48.2813 28.3639 50.7743 28.8401Z" fill="#EDF0F4"/>
<path d="M42.6083 28.4438C43.9635 29.799 45.3569 31.1509 46.6322 32.586C47.3097 33.3818 46.1943 33.5416 45.9546 33.9794C45.7565 34.3374 45.4752 34.3789 45.2387 33.9411C44.2415 32.1896 43.2475 30.4765 42.2504 28.7251C42.3718 28.642 42.4901 28.5237 42.6083 28.4438Z" fill="#EDF0F4"/>
<path d="M40.5788 32.4261C40.4989 30.7545 40.5404 29.1213 40.5404 27.4466C40.6235 27.437 40.7066 27.4114 40.7801 27.3667C42.0553 29.5976 43.3306 31.8284 44.6026 34.0976C44.8807 34.5355 44.8008 34.7752 44.283 34.8551C44.2446 34.8551 44.2031 34.8934 44.1647 34.8934C43.0493 35.1715 41.6558 36.0089 40.8984 35.6094C40.0194 35.1331 40.6171 33.5415 40.5788 32.4261Z" fill="#EDF0F4"/>
<path d="M40.419 78.3858C40.6171 76.3147 40.4573 74.2053 40.4573 71.853C42.0106 72.7703 43.3242 73.5246 44.6378 74.282C45.0756 74.5601 44.9574 74.8797 44.8359 75.2377C44.1999 77.5484 43.6022 79.8592 42.9247 82.4065C41.7741 81.1344 40.2208 80.4568 40.419 78.3858Z" fill="#EDF0F4"/>
<path d="M40.5788 81.0161C41.2148 81.6521 41.8124 82.2498 42.4101 82.8091C42.7681 83.1287 42.6498 83.4451 42.5284 83.8063C42.3686 84.3624 41.9723 83.9661 41.7325 83.9245C40.2208 83.6049 40.061 83.2853 40.5788 81.0161Z" fill="#EDF0F4"/>
<path d="M40.4574 91.4515C40.419 91.4515 40.3775 91.4131 40.3391 91.4131C40.3391 89.064 40.3391 86.7532 40.3008 84.4425C40.419 84.4041 40.4989 84.3242 40.5405 84.3242C42.2919 84.6822 42.2536 84.7237 41.8157 86.3953C41.3747 88.0636 40.8984 89.7767 40.4574 91.4515Z" fill="#EDF0F4"/>
<path d="M41.1765 91.1317C41.6943 89.2588 42.1737 87.3476 42.7298 85.4779C43.0494 84.3241 43.8452 85.2797 44.3214 85.3181C45.1173 85.4363 44.5612 85.9541 44.4013 86.2353C43.564 87.7087 42.7298 89.1438 41.8509 90.6172C41.6943 90.8537 41.6527 91.1701 41.1765 91.1317Z" fill="#EDF0F4"/>
<path d="M41.2148 93.0812C42.57 90.6905 43.9219 88.2615 45.277 85.8325C46.5107 86.8297 47.428 87.9419 48.5019 89.0574C46.0313 90.4508 43.7621 91.9658 41.2947 93.1611L41.2148 93.0812Z" fill="#EDF0F4"/>
<path d="M43.0078 93.1614C44.7209 91.7679 46.6705 90.7707 48.585 89.7767C49.6205 89.2973 49.8602 90.694 50.8957 91.2501C47.9873 91.9277 45.5966 92.845 43.0078 93.1614Z" fill="#EDF0F4"/>
<path d="M51.8098 91.0103C51.4103 90.9719 49.7771 89.5752 49.7771 89.2972C49.7515 89.2173 49.7643 89.1278 49.8154 89.0575C49.9752 88.7378 52.4841 87.5425 52.8421 87.5841C54.1557 87.7439 54.0758 89.0575 54.6351 89.8533C54.7949 90.093 54.5967 90.2911 54.3954 90.3327C53.5229 90.5724 52.6471 90.8121 51.8098 91.0103Z" fill="#EDF0F4"/>
<path d="M54.5968 88.0635C55.9519 88.4214 57.1057 88.741 58.3809 89.0607C55.7921 90.3742 55.3159 90.256 54.5968 88.0635Z" fill="#EDF0F4"/>
<path d="M52.6056 92.247C52.0495 91.7676 52.0878 91.5695 52.8453 91.3713C55.0346 90.7736 55.0346 90.7353 55.9902 92.7648C56.7477 94.398 57.5435 96.0312 58.301 97.6644C56.3897 95.7915 54.4785 93.9985 52.6056 92.247Z" fill="#EDF0F4"/>
<path d="M59.4548 95.3538V98.0609C59.3749 98.0609 59.3365 98.0993 59.2566 98.0993C58.1827 95.8684 57.1057 93.5992 55.9902 91.3683C55.7122 90.7707 55.7921 90.5725 56.4696 90.3712C59.4963 89.4954 59.4963 89.4539 59.4963 92.6404C59.4963 93.5608 59.4548 94.4366 59.4548 95.3538Z" fill="#EDF0F4"/>
<path d="M59.6146 85.9926C59.6146 88.8212 59.6146 88.8212 56.9076 88.102C56.1117 87.9039 55.3159 87.6642 54.5169 87.466C54.1973 87.3861 53.9608 87.2263 53.9192 86.9099C53.8809 86.5903 54.1589 86.5104 54.3571 86.3922C55.8305 85.5164 57.3454 84.6791 58.8188 83.765C59.5763 83.2856 59.6562 83.6467 59.6146 84.2827V85.9926Z" fill="#EDF0F4"/>
<path d="M58.9946 81.9717C56.4058 80.4184 53.817 78.9035 51.1898 77.3917C50.7104 77.1137 50.5538 76.8739 50.8702 76.3562C52.1454 74.2468 53.3407 72.1342 54.6543 69.9033C57.8408 73.0898 60.8899 76.1548 64.0124 79.2231C64.3704 79.581 64.4119 79.7408 63.9325 80.0189C62.7372 80.6549 61.5834 81.374 60.3881 82.0516C59.9502 82.3041 59.4005 82.2753 58.9946 81.9717Z" fill="#EDF0F4"/>
<path d="M67.023 92.2055C64.8721 94.4747 62.6828 96.7055 60.5318 98.9747L60.1739 98.735C60.1739 95.9065 60.1739 93.0812 60.1355 90.2111C60.1355 89.655 60.4136 89.6134 60.8514 89.7317C62.8841 90.2878 64.9136 90.8855 66.9463 91.4032C67.7805 91.6078 67.3011 91.9274 67.023 92.2055Z" fill="#EDF0F4"/>
<path d="M67.5409 90.9337C65.5881 90.416 63.5969 89.8598 61.6473 89.3421C61.6793 89.2526 61.6921 89.1567 61.6857 89.064C63.3189 88.6262 65.0064 88.1084 66.6652 87.7504C67.9404 87.4724 68.6979 88.5878 69.7334 89.064C69.7845 89.1631 69.8101 89.2718 69.8133 89.3836C69.7302 89.8982 68.0587 91.052 67.5409 90.9337Z" fill="#EDF0F4"/>
<path d="M76.183 93.241C73.8339 92.605 71.4848 92.0073 69.1324 91.3681C69.9698 89.5751 70.446 89.4153 72.0409 90.3709L76.3428 92.8798C76.2725 92.9949 76.2213 93.1163 76.183 93.241Z" fill="#EDF0F4"/>
<path d="M76.5186 92.3273C74.7256 91.2534 72.9742 90.1763 70.983 89.0226C71.325 88.7445 71.5647 88.6231 71.699 88.4249C72.2167 87.709 72.6162 87.7889 73.2139 88.4249C74.0896 89.4221 75.0868 90.2978 76.0009 91.2534C76.2789 91.5283 76.7168 91.7296 76.5186 92.3273Z" fill="#EDF0F4"/>
<path d="M77.2186 91.6876C75.8634 90.374 74.5914 89.0604 73.3545 87.7437C72.5971 86.8679 73.6741 86.6698 73.9905 86.2703C74.4284 85.5927 74.6266 86.3086 74.7864 86.5899L77.0556 90.5338C77.3464 90.8502 77.4103 91.3073 77.2186 91.6876Z" fill="#EDF0F4"/>
<path d="M79.2896 92.765C79.2096 92.8033 79.1713 92.8033 79.0914 92.8449C77.8162 90.6556 76.5569 88.4247 75.2689 86.1939C74.9908 85.7145 75.0292 85.478 75.6269 85.3565C76.8222 85.0784 78.0175 84.7205 79.2896 84.4009V92.765Z" fill="#EDF0F4"/>
<path d="M76.2629 84.439C77.2601 83.4833 78.334 82.4478 79.2896 81.4922C79.4111 84.1226 79.1298 84.4006 76.2629 84.439Z" fill="#EDF0F4"/>
<path d="M78.97 80.3385C77.5766 81.8535 76.1415 83.4068 74.5882 85.0783C73.2746 82.7675 72.1976 80.8179 70.9255 78.667C73.7125 78.9067 76.263 79.0665 78.7719 79.303C79.6476 79.3829 79.3312 79.939 78.97 80.3385Z" fill="#EDF0F4"/>
<path d="M79.3472 50.1488C79.3088 53.0156 79.3088 55.8442 79.3088 58.711C79.3472 59.5484 79.149 59.9447 78.155 59.9064C76.0456 59.7881 73.933 59.868 71.8236 59.868C71.3059 59.868 71.0278 59.8297 71.1876 59.1904C72.3414 54.9716 73.4952 50.7528 74.6489 46.4541C76.0776 47.2467 77.388 48.001 78.6728 48.8352C79.1426 49.0941 79.4111 49.615 79.3472 50.1488Z" fill="#EDF0F4"/>
<path d="M79.4494 42.4235C79.2097 44.2963 79.4111 46.2076 79.4111 48.3586C77.8578 47.4828 76.5602 46.687 75.2306 45.9679C75.2306 45.9679 75.2274 45.9679 75.2274 45.9647C74.9526 45.8432 74.8311 45.5236 74.9526 45.2488C75.6301 42.8581 76.2662 40.4291 76.9437 37.8818C78.4523 39.1155 79.7275 40.2309 79.4494 42.4235Z" fill="#EDF0F4"/>
<path d="M79.2096 39.515C78.5481 38.7192 78.0559 38.08 77.4965 37.4823C77.2313 37.2203 77.1674 36.8176 77.3367 36.4852C77.5349 36.0058 77.8929 36.2455 78.1741 36.287C79.6475 36.5683 79.769 36.9262 79.2096 39.515Z" fill="#EDF0F4"/>
<path d="M78.9476 35.8524C78.5098 35.6542 77.4742 36.0505 77.7523 34.9351C78.2701 32.944 78.8262 30.9912 79.3439 29H79.5261C79.5261 31.0711 79.5261 33.1038 79.5037 35.1716C79.5037 35.5328 79.6635 36.2103 78.9476 35.8524Z" fill="#EDF0F4"/>
<path d="M96.7338 58.0363C96.6954 58.0747 96.6954 58.1546 96.6539 58.1961C94.8225 57.1606 92.9497 56.2433 91.2366 55.0896C90.3608 54.4535 91.4347 53.5363 91.4347 52.7788C93.2309 54.5303 94.9824 56.2817 96.7338 58.0363Z" fill="#EDF0F4"/>
<path d="M80.047 61.9771C80.6032 60.8233 81.4022 59.986 82.9938 60.5037C84.5247 60.5037 86.1388 60.5421 87.8135 60.5037C88.4495 60.5037 88.571 60.7434 88.4495 61.3411C88.2098 62.4565 87.8519 63.214 86.4967 63.4505C84.5855 63.8085 82.6742 64.4061 80.763 64.9654C80.0854 65.1636 79.7274 65.0453 79.8457 64.2879C79.9671 63.5304 79.6475 62.7346 80.047 61.9771Z" fill="#EDF0F4"/>
<path d="M79.9672 41.1069C81.6004 42.6986 83.0737 44.0953 84.5887 45.5686C83.2751 46.3261 81.9999 47.042 80.7246 47.758C80.2069 48.036 79.9672 47.9977 79.9672 47.3584V41.1069H79.9672Z" fill="#EDF0F4"/>
<path d="M84.3873 46.4061C84.8667 46.1281 84.985 46.2879 85.1032 46.7641C85.4612 48.1991 85.8991 49.631 86.257 51.066C86.3976 51.3824 86.3145 51.7532 86.0589 51.9833C85.7393 52.1814 85.5411 51.865 85.3014 51.7436C83.6298 50.8263 81.9551 49.8707 80.1621 48.8351C81.6802 47.9594 83.0354 47.202 84.3873 46.4061Z" fill="#EDF0F4"/>
<path d="M88.4655 44.1367C89.859 43.3408 91.2525 42.5834 92.646 41.7876C92.7259 41.7492 92.8058 41.7876 93.1637 41.7876H93.1478C91.6328 43.9769 90.2393 46.0096 88.9034 48.0007C88.6253 48.4386 88.4655 48.4386 88.066 48.0806C85.5603 45.7667 85.5187 45.8082 88.4655 44.1367Z" fill="#EDF0F4"/>
<path d="M86.8962 53.6928C87.4523 55.5657 87.9317 57.4354 88.4112 59.3083C88.6093 59.9443 88.1331 59.8644 87.7751 59.8644H81.4437C83.0354 57.5952 84.4321 55.5625 85.7456 53.4915C86.2602 52.7787 86.6981 53.0568 86.8962 53.6928Z" fill="#EDF0F4"/>
<path d="M87.8135 66.3974C87.7752 65.4802 88.1715 64.6843 88.3696 63.8885C88.4495 63.5306 88.7691 63.4091 89.1271 63.3708C89.6065 63.3324 89.6065 63.7287 89.6832 64.0068C90.1626 65.3619 89.9229 65.6815 87.8135 66.3974Z" fill="#EDF0F4"/>
<path d="M79.9672 66.1607C80.6448 64.927 82.7542 65.1635 84.2275 64.6873C85.343 64.3293 86.4584 64.0896 87.7336 63.77C87.4556 64.8055 87.2159 65.6429 87.0177 66.5186C86.9218 66.9245 86.6406 67.2633 86.2602 67.4359C85.343 67.9153 84.4673 68.4331 83.5532 68.9508C82.3994 69.6284 81.2041 70.2644 79.9288 70.9835L79.9672 66.1607Z" fill="#EDF0F4"/>
<path d="M86.6182 67.9507C86.062 70.0601 85.5443 71.933 85.0265 73.8059C84.8667 74.362 84.5088 74.0456 84.269 73.8858C82.9938 73.1699 81.7601 72.4124 80.2867 71.5367C82.4377 70.303 84.3873 69.1876 86.6182 67.9507Z" fill="#EDF0F4"/>
<path d="M87.1775 68.2702C87.3373 67.6342 89.4084 66.0393 89.9645 66.0809C90.0731 66.1032 90.169 66.1576 90.2425 66.2407C90.8402 66.9182 90.7603 68.6313 90.1243 69.2674C89.0088 70.3828 87.8934 71.4982 86.778 72.5721C86.5383 72.7702 86.3401 73.0899 85.8607 72.9716C86.2986 71.3384 86.7364 69.7851 87.1775 68.2702Z" fill="#EDF0F4"/>
<path d="M90.4183 64.3678C90.3799 63.93 89.8206 63.2524 90.5365 63.0127C92.3647 62.4566 94.1896 61.9005 96.1744 61.8174C94.4229 62.773 92.7098 63.767 90.9744 64.7226C90.5781 64.9655 90.4566 64.6459 90.4183 64.3678Z" fill="#EDF0F4"/>
<path d="M90.4406 62.3349C89.4435 62.5746 89.7247 61.5391 89.5649 61.0597C89.3252 60.3821 89.9644 60.5036 90.3224 60.5036H96.7337C96.7433 60.5643 96.772 60.6186 96.8136 60.6634C94.7042 61.2195 92.5916 61.8172 90.4406 62.3349Z" fill="#EDF0F4"/>
<path d="M88.9673 58.9503C88.4879 57.1189 88.0916 55.604 87.6122 53.8525C90.3224 55.246 90.3224 55.246 88.9673 58.9503Z" fill="#EDF0F4"/>
<path d="M89.8431 54.3704C89.0632 53.9933 88.3185 53.5554 87.6122 53.0568C87.5802 53.0345 87.5515 53.0121 87.5227 52.9865C87.0177 52.5615 86.9506 51.8104 87.3757 51.3022C87.6154 50.9442 87.8551 50.6246 88.0533 50.2667C88.4112 49.5092 88.7692 49.669 89.207 50.1868C89.7632 50.8643 90.5206 51.3821 90.9585 52.0597C90.7603 52.8171 90.6005 53.4532 90.4024 54.1691C90.3225 54.4503 90.1243 54.5302 89.8431 54.3704Z" fill="#EDF0F4"/>
<path d="M91.1981 51.1043C91.0799 51.0659 90.9584 51.0659 90.9201 51.0244C88.8107 49.1131 88.8107 49.1131 90.4023 46.8024C91.278 45.5687 92.1154 44.3318 92.9911 43.0981C93.1094 43.1365 93.2308 43.2164 93.3491 43.2579C92.6332 45.8468 91.9556 48.4771 91.1981 51.1043Z" fill="#EDF0F4"/>
<path d="M93.6687 40.4708C90.7603 42.104 88.0916 43.6158 85.3461 45.1691C84.6686 42.6985 84.0325 40.2695 83.355 37.6807C86.8163 38.5979 90.0827 39.5152 93.6687 40.4708Z" fill="#EDF0F4"/>
<path d="M82.914 38.5597C83.3934 40.3527 83.8696 42.184 84.349 44.0153C84.2883 44.0633 84.2212 44.1048 84.1508 44.1336C82.8756 42.8584 81.6004 41.5831 80.3283 40.3495C80.0503 40.0298 79.8905 37.441 80.1302 37.1246C80.1909 37.0287 80.2964 36.968 80.4082 36.9648C81.3223 36.7667 82.6743 37.6424 82.914 38.5597Z" fill="#EDF0F4"/>
<path d="M80.0215 34.6155C80.1813 32.6244 80.0599 30.6332 80.0599 28.6421H80.2836C80.9612 31.1127 81.5972 33.58 82.2524 36.0506C82.4122 36.6482 82.214 36.7281 81.6164 36.6067C80.4626 36.4085 79.9033 35.9707 80.0215 34.6155Z" fill="#EDF0F4"/>
<path d="M79.8489 58.9507V55.8441L79.9288 50.3884C79.9288 49.7109 80.0886 49.4712 80.7662 49.8707C82.1213 50.708 83.5148 51.5039 84.9467 52.2613C85.5028 52.5394 85.5028 52.8175 85.1864 53.2969C83.7929 55.288 82.3994 57.2792 81.0443 59.3119C80.8046 59.7114 80.4881 59.9479 80.0471 59.7913C79.6092 59.6283 79.8489 59.2288 79.8489 58.9507Z" fill="#EDF0F4"/>
<path d="M79.8074 77.9097V71.9746C81.3383 72.8503 82.5943 73.6462 83.9111 74.4036C84.3905 74.6817 84.4289 74.9214 84.0294 75.3209C82.9938 76.3181 81.9583 77.3536 80.9611 78.3891C80.7534 78.6576 80.421 78.795 80.0854 78.7471C79.6092 78.5873 79.8074 78.1878 79.8074 77.9097Z" fill="#EDF0F4"/>
<path d="M84.3074 75.877C83.5915 79.5812 83.828 79.1433 81.6003 78.7438C82.3578 77.6699 83.3134 76.9125 84.3074 75.877Z" fill="#EDF0F4"/>
<path d="M80.1654 91.6082C80.0855 91.6082 79.9672 91.5698 79.8873 91.5698C79.8873 89.5371 79.9257 87.4661 79.849 85.4365C79.8106 84.5193 80.0471 84.0431 81.0027 83.9632C81.447 83.8865 81.8881 83.781 82.3163 83.6436C81.5589 86.3922 80.8845 89.0193 80.1654 91.6082Z" fill="#EDF0F4"/>
<path d="M81.6803 83.1673C79.5709 83.685 79.9289 83.7649 79.8873 81.8121C79.8873 79.9392 80.2069 79.3831 81.4406 79.5014C82.0766 79.5397 82.9939 79.1434 83.3135 79.9392C83.6299 80.7351 82.3963 82.9659 81.6803 83.1673Z" fill="#EDF0F4"/>
<path d="M91.994 80.4569C89.1272 81.2144 86.2987 81.9719 83.272 82.806C83.5117 81.8504 83.7098 81.013 83.908 80.2172C84.0678 79.5812 84.5856 79.7378 85.0234 79.7794C87.3342 79.9392 89.6034 80.099 91.9141 80.2971C91.9557 80.3387 91.9557 80.4186 91.994 80.4569Z" fill="#EDF0F4"/>
<path d="M85.1832 79.1814C84.5472 79.1431 84.2659 78.9833 84.4673 78.1843C85.2631 75.1576 85.2248 75.1576 87.9318 76.7492L92.71 79.7376C90.0828 79.5426 87.6154 79.3412 85.1832 79.1814Z" fill="#EDF0F4"/>
<path d="M93.8285 79.543C90.9617 77.8299 88.3313 76.2766 85.8224 74.8032C87.6154 73.0102 89.3285 71.2588 91.1598 69.5073C91.994 72.7322 92.8697 75.9985 93.8285 79.543Z" fill="#EDF0F4"/>
<path d="M91.3964 67.6727C91.3484 67.6247 91.3101 67.5704 91.2781 67.5129C90.6804 65.5601 90.6421 65.5601 92.4734 64.5661C93.8669 63.8086 95.302 63.0511 96.6954 62.2969L96.8552 62.4151C95.0207 64.1698 93.2309 65.9212 91.3964 67.6727Z" fill="#EDF0F4"/>
<path d="M97.8109 59.868H90.3225C89.7664 59.868 89.4468 59.8297 89.6865 59.1106C90.0061 58.1134 90.2426 57.1194 90.4823 56.1222C90.6006 55.6428 90.7604 55.4862 91.2398 55.7643C93.4707 57.0779 95.7015 58.3147 97.9292 59.5868C97.8972 59.6826 97.8557 59.7785 97.8109 59.868Z" fill="#EDF0F4"/>
</svg>
