<svg width="120" height="120" viewBox="0 0 120 120" fill="none" xmlns="http://www.w3.org/2000/svg">
<path d="M60 120C93.138 120 120 93.138 120 60C120 26.862 93.138 0 60 0C26.862 0 0 26.862 0 60C0 93.138 26.862 120 60 120Z" fill="#EDF0F4"/>
<path d="M61.9193 25.544C60.6588 25.4162 59.3927 25.3523 58.1258 25.3525C47.1608 25.3525 37.3067 30.1096 30.5106 37.6668L36.4773 53.7804L63.3696 44.4756L61.9193 25.544Z" fill="#0089CE"/>
<path d="M49.0426 86.9869L65.6586 73.4695L63.3696 44.4756L45.3212 77.663L49.0426 86.9869Z" fill="#E30613"/>
<path d="M65.4696 73.5892L49.0422 86.9861L53.6298 99.3305C58.3013 99.8971 63.0377 99.5755 67.5898 98.3828L65.6582 73.467L65.47 73.6195L65.4696 73.5892Z" fill="#E9453F"/>
<path d="M63.3796 44.6117L63.3696 44.4756L36.4777 53.7804L45.3212 77.663L63.3796 44.6117Z" fill="#CA1416"/>
<path d="M30.5106 37.6667C25.3268 43.4324 21.9242 50.8295 21.1639 58.9948L36.4772 53.7808L30.5106 37.6667Z" fill="#0156A3"/>
<path d="M36.4773 53.7805L21.164 58.9945C21.0573 60.1416 21 61.303 21 62.4776C21 75.2718 27.4721 86.554 37.321 93.2299L45.3212 77.6627" fill="#149F39"/>
<path d="M45.3212 77.6631L37.321 93.2303C38.2596 93.8671 39.2281 94.4602 40.2266 95.0094L49.0422 86.9862L45.3212 77.6631Z" fill="#28A737"/>
<path d="M40.2266 95.0089C44.3751 97.2974 48.9258 98.7649 53.6298 99.3313L49.0422 86.9861" fill="#82BB2B"/>
<path d="M67.5902 98.384C83.5108 94.1992 95.2523 79.7107 95.2523 62.4778C95.2555 58.5717 94.6416 54.6896 93.4334 50.9751L65.6598 73.4678L67.5902 98.384Z" fill="#FECC00"/>
<path d="M71.7315 27.9248L63.3696 44.4755L63.3796 44.6116L65.6586 73.4678L93.4322 50.9751C90.0005 40.4352 81.9825 31.9647 71.7315 27.9248" fill="#EF7900"/>
<path d="M63.3696 44.4756L71.7315 27.9249C68.5852 26.6853 65.2834 25.8842 61.9188 25.5439L63.36 44.3586L63.3696 44.4756Z" fill="#23A9E1"/>
<path d="M64.5421 36.0119L65.3947 32.1909C76.5152 36.8266 83.4288 43.9742 87.1737 53.0657L83.8379 55.408C79.4239 46.3265 73.1998 39.5908 64.5421 36.0119" fill="black"/>
<path d="M99.8184 35.6444C99.8184 27.0051 92.8133 20 84.174 20C75.5346 20 68.5295 27.0051 68.5295 35.6444C68.5297 36.4673 68.5944 37.289 68.723 38.1018C73.931 41.1665 78.1162 45.5618 81.4595 51.0492C82.3564 51.2074 83.2653 51.2873 84.176 51.288C92.8133 51.2888 99.8184 44.2846 99.8184 35.6444Z" fill="#E30613"/>
</svg>
