<svg width="120" height="120" viewBox="0 0 120 120" fill="none" xmlns="http://www.w3.org/2000/svg">
<g clip-path="url(#clip0_107_19706)">
<path d="M118.191 74.5143C110.178 106.657 77.6222 126.219 45.4752 118.204C13.3417 110.19 -6.22004 77.6324 1.79691 45.4918C9.80683 13.3451 42.3626 -6.21803 74.4997 1.79541C106.644 9.80884 126.205 42.3702 118.191 74.5149L118.191 74.5143H118.191Z" fill="#B2B8C0"/>
<path fill-rule="evenodd" clip-rule="evenodd" d="M86.4506 51.4517C87.6448 43.467 81.5658 39.1749 73.2532 36.3117L75.9499 25.4957L69.3659 23.8551L66.7408 34.3863C65.0099 33.9546 63.2323 33.5479 61.4656 33.1446L64.1098 22.5439L57.5299 20.9033L54.8318 31.7158C53.3994 31.3896 51.9926 31.0673 50.6277 30.7277L50.6353 30.6937L41.5558 28.4264L39.8044 35.4585C39.8044 35.4585 44.6892 36.5783 44.5862 36.6472C47.2524 37.3126 47.7345 39.0775 47.6545 40.4765L44.5827 52.7984C44.7663 52.845 45.0044 52.9125 45.2672 53.0181L45.0762 52.9704L45.076 52.9703C44.9135 52.9297 44.7447 52.8874 44.5713 52.8459L40.2657 70.1072C39.9399 70.9172 39.1128 72.1328 37.2488 71.6712C37.3148 71.7668 32.4634 70.477 32.4634 70.477L29.1946 78.0135L37.7626 80.1495C38.7008 80.3848 39.6279 80.6264 40.5457 80.8657L40.5475 80.8662C41.1883 81.0332 41.8245 81.1991 42.4567 81.3607L39.7322 92.3007L46.3086 93.9413L49.0067 83.1174C50.8033 83.6051 52.5469 84.055 54.2537 84.4791L51.5647 95.2519L58.149 96.8925L60.8732 85.973C72.1003 88.0978 80.5423 87.2411 84.0956 77.0862C86.9588 68.9103 83.953 64.1945 78.0465 61.1192C82.3485 60.127 85.5889 57.2975 86.4529 51.4526L86.4509 51.4511L86.4506 51.4517ZM71.4076 72.5457C69.5408 80.0469 57.7995 76.9457 52.4274 75.5268C51.9442 75.3992 51.5125 75.2852 51.1441 75.1937L54.7596 60.7001C55.2085 60.8122 55.757 60.9353 56.3785 61.0747L56.3786 61.0747C61.9353 62.3218 73.3203 64.8768 71.4079 72.5457H71.4076ZM57.4932 54.348C61.9719 55.5433 71.7423 58.1508 73.4438 51.3332H73.4444C75.1819 44.3605 65.6868 42.2583 61.0494 41.2316C60.5277 41.1161 60.0674 41.0142 59.6916 40.9205L56.4137 54.0653C56.7232 54.1425 57.0863 54.2394 57.4932 54.348Z" fill="white"/>
</g>
<defs>
<clipPath id="clip0_107_19706">
<rect width="119.986" height="120" fill="white"/>
</clipPath>
</defs>
</svg>
