<svg width="120" height="120" viewBox="0 0 120 120" fill="none" xmlns="http://www.w3.org/2000/svg">
<path d="M60 120C93.048 120 120 93.048 120 60C120 26.958 93.048 0 60 0C26.958 0 1.00136e-06 26.958 1.00136e-06 60C-0.005999 93.048 26.952 120 60 120Z" fill="black"/>
<path fill-rule="evenodd" clip-rule="evenodd" d="M44.6099 28.9019H53.2499C53.5799 28.9019 53.8439 29.1719 53.8439 29.5019V42.1259C53.8439 42.4619 54.1139 42.7259 54.4439 42.7259H65.5379C65.8679 42.7259 66.1379 42.4619 66.1379 42.1259V29.5019C66.1379 29.1719 66.4019 28.9019 66.7379 28.9019H75.3719C75.7019 28.9019 75.9719 29.1719 75.9719 29.5019V42.1259C75.9719 42.4619 76.2359 42.7259 76.5719 42.7259H87.1319C87.4679 42.7259 87.7319 42.9959 87.7319 43.3259V51.9419C87.7319 52.2779 87.4679 52.5419 87.1319 52.5419H76.5719C76.2359 52.5419 75.9719 52.8119 75.9719 53.1419V66.5519C75.9719 66.8819 76.2359 67.1519 76.5719 67.1519H87.1319C87.4679 67.1519 87.7319 67.4159 87.7319 67.7519V76.3679C87.7319 76.6979 87.4679 76.9679 87.1319 76.9679H76.5719C76.2359 76.9679 75.9719 77.2379 75.9719 77.5679V90.1919C75.9719 90.5219 75.7019 90.7919 75.3719 90.7919H66.7379C66.4019 90.7919 66.1379 90.5219 66.1379 90.1919V77.5679C66.1379 77.2319 65.8679 76.9679 65.5379 76.9679H54.4499C54.1199 76.9679 53.8499 77.2379 53.8499 77.5679V90.1919C53.8499 90.5219 53.5859 90.7919 53.2559 90.7919H44.6159C44.2859 90.7919 44.0159 90.5219 44.0159 90.1919V77.5679C44.0159 77.2319 43.7519 76.9679 43.4159 76.9679H32.8559C32.5199 76.9679 32.2559 76.6979 32.2559 76.3679V67.7519C32.2559 67.4159 32.5199 67.1519 32.8559 67.1519H43.4159C43.7519 67.1519 44.0159 66.8819 44.0159 66.5519V53.1419C44.0159 52.8119 43.7519 52.5419 43.4159 52.5419H32.8559C32.5199 52.5419 32.2559 52.2779 32.2559 51.9419V43.3259C32.2559 42.9959 32.5199 42.7259 32.8559 42.7259H43.4159C43.7519 42.7259 44.0159 42.4619 44.0159 42.1259V29.5019C44.0039 29.1719 44.2799 28.9019 44.6099 28.9019ZM66.1439 66.5579V53.1419C66.1439 52.8119 65.8739 52.5419 65.5439 52.5419H54.4499C54.1199 52.5419 53.8499 52.8119 53.8499 53.1419V66.5519C53.8499 66.8819 54.1199 67.1519 54.4499 67.1519H65.5439C65.8739 67.1579 66.1439 66.8819 66.1439 66.5579Z" fill="white"/>
</svg>
