<svg width="120" height="120" viewBox="0 0 120 120" fill="none" xmlns="http://www.w3.org/2000/svg">
<circle cx="60" cy="60" r="60" fill="#149DD9"/>
<path fill-rule="evenodd" clip-rule="evenodd" d="M51.0466 26.2498H56.891C56.9994 26.2417 57.0856 26.1555 57.0937 26.0471V20.2027C57.0856 20.0943 56.9994 20.0081 56.891 20H51.0466C50.9381 20.0081 50.8519 20.0943 50.8439 20.2027V26.0471C50.842 26.1014 50.8627 26.1541 50.9011 26.1925C50.9396 26.231 50.9922 26.2517 51.0466 26.2498ZM56.8906 36.9927H51.0462C50.9378 36.9846 50.8516 36.8984 50.8435 36.79V30.9456C50.8516 30.8371 50.9378 30.7509 51.0462 30.7429H56.8906C56.9991 30.7509 57.0853 30.8371 57.0933 30.9456V36.79C57.0853 36.8984 56.9991 36.9846 56.8906 36.9927ZM56.8906 47.7018H38.8169C38.7626 47.7037 38.7099 47.6829 38.6715 47.6445C38.6331 47.6061 38.6123 47.5534 38.6142 47.4991V41.6547C38.6223 41.5462 38.7085 41.46 38.8169 41.452H56.8906C56.9991 41.46 57.0853 41.5462 57.0933 41.6547V47.4991C57.0853 47.6075 56.9991 47.6937 56.8906 47.7018ZM26.0471 62.9039H20.2027C20.0943 62.912 20.0081 62.9982 20 63.1066V68.951C20.0081 69.0595 20.0943 69.1457 20.2027 69.1537H26.0471C26.1555 69.1457 26.2417 69.0595 26.2498 68.951V63.1066C26.2417 62.9982 26.1555 62.912 26.0471 62.9039ZM41.6547 62.9039H47.4991C47.6075 62.912 47.6937 62.9982 47.7018 63.1066V81.1803C47.6937 81.2888 47.6075 81.375 47.4991 81.383H41.6547C41.5462 81.375 41.46 81.2888 41.452 81.1803V63.1066C41.46 62.9982 41.5462 62.912 41.6547 62.9039ZM83.2407 57.0594H89.085C89.1935 57.0513 89.2797 56.9651 89.2877 56.8567V51.0123C89.2797 50.9038 89.1935 50.8176 89.085 50.8096H83.2407C83.1322 50.8176 83.046 50.9038 83.038 51.0123V56.8567C83.0299 56.9125 83.0487 56.9688 83.0886 57.0087C83.1285 57.0486 83.1848 57.0674 83.2407 57.0594ZM78.3421 57.0597H72.4977C72.4434 57.0616 72.3907 57.0408 72.3523 57.0024C72.3139 56.964 72.2931 56.9113 72.295 56.857V38.7833C72.3031 38.6748 72.3893 38.5886 72.4977 38.5806H78.3421C78.4506 38.5886 78.5368 38.6748 78.5448 38.7833V56.857C78.5368 56.9654 78.4506 57.0516 78.3421 57.0597ZM30.9459 62.9038H36.7903C36.8937 62.9221 36.9747 63.0031 36.993 63.1065V68.9509C36.9849 69.0593 36.8987 69.1455 36.7903 69.1536H30.9459C30.8374 69.1455 30.7512 69.0593 30.7432 68.9509V63.1065C30.7512 62.9981 30.8374 62.9119 30.9459 62.9038ZM81.2141 72.2955H63.1404C63.032 72.3036 62.9458 72.3898 62.9377 72.4982V78.3426C62.9458 78.451 63.032 78.5372 63.1404 78.5453H81.2141C81.3226 78.5372 81.4088 78.451 81.4168 78.3426V72.4982C81.4102 72.3891 81.3232 72.3021 81.2141 72.2955ZM67.9371 61.6539H93.5443C93.5986 61.652 93.6513 61.6728 93.6897 61.7112C93.7282 61.7496 93.7489 61.8023 93.747 61.8566V67.5321C93.7389 67.6405 93.6527 67.7267 93.5443 67.7348H67.9371C67.8286 67.7267 67.7424 67.6405 67.7344 67.5321V61.8566C67.7424 61.7482 67.8286 61.662 67.9371 61.6539ZM68.9514 83.0045H63.107C62.9986 83.0126 62.9124 83.0988 62.9043 83.2072V89.0516C62.9124 89.16 62.9986 89.2462 63.107 89.2543H68.9514C69.0598 89.2462 69.146 89.16 69.1541 89.0516V83.2072C69.156 83.1529 69.1353 83.1002 69.0968 83.0618C69.0584 83.0233 69.0057 83.0026 68.9514 83.0045ZM52.0597 52.2624C52.1681 52.2705 52.2543 52.3567 52.2624 52.4651V58.1406C52.2543 58.249 52.1681 58.3352 52.0597 58.3433H26.4525C26.3441 58.3352 26.2579 58.249 26.2498 58.1406V52.4651C26.2579 52.3567 26.3441 52.2705 26.4525 52.2624H52.0597ZM99.7942 50.8436H93.9498C93.8413 50.8517 93.7551 50.9379 93.7471 51.0463V56.8907C93.7551 56.9991 93.8413 57.0853 93.9498 57.0934H99.7942C99.9026 57.0853 99.9888 56.9991 99.9969 56.8907V51.0463C100.005 50.9905 99.9861 50.9341 99.9462 50.8942C99.9063 50.8544 99.85 50.8356 99.7942 50.8436ZM52.4654 67.7349H58.1409C58.2493 67.7429 58.3355 67.8291 58.3436 67.9376V93.5448C58.3355 93.6532 58.2493 93.7394 58.1409 93.7475H52.4654C52.357 93.7394 52.2708 93.6532 52.2627 93.5448V67.9376C52.2708 67.8291 52.357 67.7429 52.4654 67.7349ZM67.7352 52.0937V26.4527C67.7271 26.3443 67.6409 26.2581 67.5325 26.25H61.857C61.7486 26.2581 61.6624 26.3443 61.6543 26.4527V52.0937C61.6624 52.2021 61.7486 52.2883 61.857 52.2964H67.5325C67.6409 52.2883 67.7271 52.2021 67.7352 52.0937ZM63.107 93.7474H68.9514C69.0072 93.7394 69.0636 93.7582 69.1035 93.798C69.1433 93.8379 69.1621 93.8943 69.1541 93.9501V99.7945C69.146 99.9029 69.0598 99.9892 68.9514 99.9972H63.107C62.9986 99.9892 62.9124 99.9029 62.9043 99.7945V93.9501C62.9124 93.8417 62.9986 93.7555 63.107 93.7474Z" fill="white"/>
</svg>
