<svg width="120" height="120" viewBox="0 0 120 120" fill="none" xmlns="http://www.w3.org/2000/svg">
<path d="M60 120C93.138 120 120 93.138 120 60C120 26.862 93.138 0 60 0C26.862 0 0 26.862 0 60C0 93.138 26.862 120 60 120Z" fill="#EDF0F4"/>
<path d="M82.9721 32.0238C82.7187 32.0238 82.4884 32.0238 82.2351 32.0478H75.6717V33.4864C77.9977 33.4864 80.3007 33.5104 82.6266 33.4864C83.2024 33.5104 83.8242 33.4624 84.3538 33.6542C84.8144 33.87 85.2059 34.3256 85.5744 34.6853C89.3051 38.7134 93.128 42.6217 96.8588 46.6499C84.5841 59.5497 72.2864 72.4494 60.0118 85.3492C47.6911 72.4254 35.4164 59.5257 23.1187 46.6019C26.8034 42.7656 30.419 38.9053 34.1037 35.0689C34.7716 34.4215 35.3703 33.5104 36.4067 33.5344C39.3774 33.4864 42.3713 33.5583 45.3651 33.5104C45.4111 33.5104 45.4802 33.5104 45.5263 33.5104H50.7079L51.4679 32.0238H41.0586H37.7884C36.9363 32.0238 36.0842 31.9758 35.2552 32.1197C34.7255 32.2396 34.288 32.6712 33.9195 33.0308C30.373 36.7473 26.8495 40.4638 23.326 44.2042C22.589 44.9955 21.8521 45.8826 21 46.53V46.6259C22.9575 48.5201 24.7768 50.5582 26.6652 52.5243C37.7884 64.2012 48.9116 75.8542 60.0348 87.5071C72.3555 74.5834 84.6532 61.6836 96.9509 48.7599C97.6418 48.0406 98.2636 47.3213 99.0235 46.6739V46.554C98.3327 45.9306 97.7109 45.2113 97.066 44.5399C93.3813 40.6556 89.6736 36.7953 86.0119 32.887C85.6665 32.5513 85.275 32.1437 84.7684 32.0717C84.1696 32.0478 83.5708 32.0238 82.9721 32.0238Z" fill="#6666FF"/>
<path fill-rule="evenodd" clip-rule="evenodd" d="M75.6717 34.6854V36.148H80.2085C80.4773 36.1548 80.7441 36.1577 81.0097 36.1607C81.6771 36.168 82.3361 36.1753 82.9951 36.2439C83.3755 36.2647 83.6341 36.5212 83.8919 36.7769C83.9306 36.8153 83.9693 36.8537 84.0084 36.8913C85.3088 38.2555 86.605 39.6285 87.9024 41.0027L87.9032 41.0036L87.9042 41.0046C89.639 42.8421 91.3759 44.682 93.128 46.5061L61.8311 79.4509C61.4481 79.8655 61.0549 80.2696 60.6584 80.6772L60.6581 80.6774C60.4586 80.8825 60.2582 81.0885 60.0578 81.2971C49.0497 69.6921 38.0417 58.1111 27.0106 46.5301C29.9584 43.3651 32.9292 40.2481 35.9 37.131L35.9 37.131C36.1994 36.7954 36.5448 36.5076 36.9133 36.2918C37.3739 36.1959 37.8344 36.148 38.295 36.1719C42.1179 36.1959 45.9408 36.1959 49.7637 36.1959C49.7637 36.1482 49.7649 36.1008 49.7674 36.0538C49.7728 35.9862 49.7785 35.9187 49.7853 35.8516C49.8202 35.5705 49.8954 35.3017 49.994 35.045V35.021C49.994 35.0141 49.994 35.0092 49.9951 35.0045C49.9978 34.993 50.0073 34.9832 50.04 34.9491C50.0515 34.9131 50.0688 34.8832 50.0861 34.8532C50.1033 34.8232 50.1206 34.7933 50.1321 34.7573H41.404H37.6041H37.5811C37.5222 34.7594 37.4637 34.7611 37.4055 34.7629C36.8041 34.7808 36.2427 34.7975 35.7388 35.2129C35.2224 35.6291 34.7783 36.1331 34.3368 36.6342L34.3368 36.6342L34.3368 36.6343C34.1679 36.826 33.9994 37.0172 33.8273 37.203C30.8565 40.2721 27.8627 43.3891 24.938 46.5301C36.6369 58.8544 48.3358 71.1547 60.0578 83.4551L60.3961 83.0992C71.383 71.5414 82.3479 60.0068 93.3353 48.4723C93.5072 48.286 93.6895 48.1019 93.8735 47.9161L93.8735 47.9161C94.3053 47.48 94.7464 47.0345 95.0855 46.5301C94.9012 46.2424 94.694 45.9547 94.4407 45.7149C93.3135 44.5317 92.1938 43.3486 91.0755 42.167C89.4063 40.4032 87.7404 38.6429 86.058 36.8913C85.892 36.7185 85.7296 36.5402 85.5669 36.3615C85.1423 35.8954 84.715 35.4263 84.2156 35.045C83.715 34.6824 82.9881 34.684 82.3849 34.6852L82.2811 34.6854H75.6717ZM49.8516 35.4328C49.8665 35.3762 49.8832 35.319 49.9018 35.2608C49.8822 35.3171 49.8656 35.3745 49.8516 35.4328ZM49.8516 35.4328C49.793 35.6562 49.7637 35.8705 49.7637 36.1C49.7649 36.0846 49.7661 36.0692 49.7674 36.0538C49.7709 35.9857 49.777 35.9183 49.7853 35.8516C49.7996 35.7093 49.8189 35.5687 49.8516 35.4328Z" fill="#6666FF"/>
<path d="M39.8841 37.4668C39.5617 37.4908 39.2393 37.4908 38.9169 37.4908C38.8478 37.4908 38.8017 37.4908 38.7326 37.4908C38.3181 37.4908 37.9036 37.5387 37.489 37.6346C37.0285 37.8025 36.637 38.2101 36.3145 38.5218C33.7813 41.1833 31.2941 43.8447 28.7839 46.5062C39.1702 57.4878 49.6255 68.3974 60.0118 79.379C61.0942 78.3 62.1535 77.1491 63.2129 76.0462C72.5398 66.1915 81.8897 56.3609 91.2626 46.5302C88.9827 44.0126 86.5877 41.5909 84.2617 39.0972C83.8242 38.5937 83.3636 38.1621 82.8339 37.7785C82.3963 37.5148 81.8206 37.5148 81.314 37.5148H75.6718V39.0013C77.3299 39.0013 78.965 39.0013 80.6231 38.9774C81.2218 39.0013 81.9127 38.9294 82.3733 39.361C82.9721 39.9125 83.5478 40.4879 84.1005 41.1113C85.7586 42.9096 87.5319 44.636 89.1209 46.4822C88.6603 47.1536 88.0155 47.753 87.4398 48.3525C78.2741 57.9434 69.1775 67.6062 59.9887 77.1731C50.9612 67.6781 41.9337 58.1831 32.9062 48.6881C32.2383 47.9688 31.4784 47.2975 30.9026 46.5062C31.3172 45.8588 31.939 45.3074 32.4456 44.7559C33.9195 43.1974 35.4394 41.6149 36.9133 40.0563C37.2357 39.6967 37.6042 39.361 38.0417 39.1212C38.4793 39.0013 38.9169 38.9534 39.3544 38.9774C42.8779 39.0013 46.3784 39.0013 49.9019 39.0013V38.9774H51.3297C51.3067 38.9774 51.2836 38.9774 51.2606 38.9534C50.6849 38.6177 50.2243 38.0902 49.971 37.4668H39.8841Z" fill="#6666FF"/>
<path d="M41.2198 40.248C40.1144 40.248 39.009 40.3679 38.0418 40.9434C37.1667 41.4469 36.5218 42.382 35.854 43.1253C34.8177 44.2762 33.7353 45.3792 32.6299 46.4821C34.288 48.3284 36.0382 50.0787 37.7424 51.901C45.1579 59.7176 52.5733 67.5102 60.0118 75.3028C69.1315 65.7119 78.2511 56.121 87.3707 46.5541C85.989 45.0195 84.5151 43.6049 83.1563 42.0943C82.7418 41.5908 82.2812 41.1112 81.7516 40.7276C81.2219 40.3679 80.508 40.3919 79.9092 40.3679H75.6488V41.8066C77.1457 41.8305 78.6426 41.8545 80.1395 41.8545C80.9225 41.8305 81.337 42.382 81.8437 42.8855C82.9721 44.1084 84.1236 45.3312 85.275 46.5301C76.8924 55.4496 68.3945 64.2732 60.0118 73.1688C52.1358 64.9206 44.3058 56.6725 36.4528 48.4003C35.877 47.8009 35.2322 47.2014 34.7716 46.5061C35.3934 45.6669 36.1994 44.9716 36.8903 44.1803C37.5812 43.485 38.18 42.6937 38.9399 42.0943C39.2623 41.8305 39.6538 41.8545 40.0453 41.8305C43.3155 41.7346 46.6087 41.7826 49.9019 41.7826V41.7586H52.9188C52.5733 41.351 52.343 40.8715 52.2049 40.344V40.32H46.862C46.7699 40.32 46.6778 40.32 46.6087 40.32C44.8124 40.272 43.0161 40.248 41.2198 40.248Z" fill="#6666FF"/>
<path d="M41.1738 43.1016C40.6902 43.1255 40.1145 43.0776 39.6539 43.2934C39.1012 43.6051 38.6636 44.1566 38.2261 44.6121C37.6734 45.2116 37.0285 45.787 36.5449 46.4584C36.8443 47.0578 37.42 47.5374 37.8806 48.0409C45.25 55.7615 52.5734 63.5302 59.9428 71.2269C67.7497 62.9787 75.5797 54.7545 83.4097 46.5303C82.4885 45.5472 81.5904 44.4922 80.5771 43.6051C80.0935 43.1016 79.5408 43.1735 78.896 43.1495H75.6258V44.5882H77.5142C78.2972 44.6121 79.1493 44.5882 79.8402 45.0437C80.4159 45.4274 80.8765 46.0508 81.3371 46.5783C74.198 54.0831 67.0589 61.564 59.9428 69.0929C52.7806 61.588 45.6646 54.0352 38.5024 46.5543C39.0321 45.9788 39.4927 45.4034 40.2066 45.0437C41.1278 44.5642 42.2101 44.5402 43.2234 44.5642C45.4343 44.6361 47.6451 44.5882 49.8559 44.5882H54.7612C54.5769 44.1326 54.5309 43.6291 54.6 43.1495H48.9578C46.3785 43.1016 43.7761 43.1255 41.1738 43.1016Z" fill="#6666FF"/>
<path fill-rule="evenodd" clip-rule="evenodd" d="M72.972 38.3837C72.9823 39.2313 72.9927 40.0809 73.0004 40.9195C73.0088 41.6694 73.0172 42.4319 73.0255 43.1944C73.0402 44.5288 73.0549 45.8632 73.0695 47.1296C73.0925 47.6811 72.9083 48.2086 72.5398 48.5922C72.1714 48.9519 71.6877 49.1437 71.2041 49.1197H71.0429C69.6381 49.0478 68.5327 47.9209 68.4176 46.4823C68.3715 45.9787 68.3715 45.4752 68.3715 45.0196V44.636C68.3485 44.1565 68.3024 43.6769 68.2103 43.1974C68.1873 42.9576 68.003 42.7898 67.7958 42.7658H67.7267C67.7037 42.7658 67.6346 42.7658 67.5425 42.9336C66.8976 44.1325 66.2528 45.3793 65.5389 46.8179C65.2678 47.3824 64.9702 47.9653 64.6516 48.5894C64.4559 48.9726 64.2523 49.3715 64.042 49.7911C63.8117 50.2227 63.5123 50.7982 63.1899 51.4455C62.6833 52.5005 62.0154 53.7713 61.3476 55.0421C60.933 55.8574 60.104 56.3609 59.2289 56.3609C58.4228 56.3609 57.6398 55.9533 57.1562 55.2819C56.5574 54.4667 56.5114 53.3637 56.995 52.5005C57.3394 51.8252 57.6837 51.1527 58.0271 50.4821C58.6712 49.2243 59.3119 47.9732 59.9428 46.722L60.15 46.3144H59.9658C59.5052 46.3144 59.0676 46.1945 58.6761 45.9548C57.4095 45.2115 56.9259 43.7488 57.5247 42.502L57.5477 42.4541H57.3635C56.6035 42.4301 55.8896 42.0704 55.429 41.447C54.8533 40.7517 54.7151 39.7926 55.0605 38.9534H54.8993C54.5999 38.9534 54.3236 38.9054 54.0703 38.8095C52.7806 38.33 52.1128 36.8434 52.5734 35.5007C52.7115 35.141 52.8727 34.7574 53.08 34.3498C53.103 34.2898 53.1491 34.1939 53.2038 34.08C53.2585 33.9661 53.3218 33.8343 53.3794 33.7024C53.46 33.5226 53.5464 33.3427 53.6212 33.1869C53.696 33.031 53.7594 32.8991 53.7939 32.8152L54.1854 32H72.9313V33.4866C72.9313 35.0461 72.9516 36.7111 72.972 38.3837ZM69.8684 46.3384C69.8915 47.0577 70.4442 47.6092 71.135 47.6332C71.4805 47.6332 71.6417 47.5373 71.6877 47.0817C71.6776 45.1746 71.6497 43.1472 71.6216 41.1051C71.5858 38.5002 71.5496 35.8714 71.5496 33.4386H55.1066C55.0375 33.5825 54.8936 33.8882 54.7496 34.1939C54.6057 34.4996 54.4618 34.8053 54.3927 34.9492C54.2315 35.2849 54.0703 35.6206 53.9321 35.9802C53.7709 36.4837 54.0012 37.0352 54.4618 37.275C54.4618 37.275 54.4848 37.299 54.5078 37.299C54.9454 37.5387 55.452 37.3469 55.6593 36.9153C55.7284 36.7954 55.7917 36.6696 55.855 36.5437C55.9184 36.4178 55.9817 36.2919 56.0508 36.172C56.3502 35.5966 56.8568 35.4287 57.3174 35.7165C57.778 36.0042 57.8932 36.5317 57.6168 37.0832L56.4423 39.385C56.2581 39.7207 56.3041 40.1283 56.5574 40.416C57.0871 41.0634 57.8241 41.0154 58.2156 40.3201C58.3192 40.1283 58.4171 39.9305 58.5149 39.7327C58.6128 39.5348 58.7107 39.337 58.8143 39.1452C58.9525 38.8575 59.2519 38.6896 59.5743 38.7136C59.7125 38.7136 59.8506 38.7616 59.9658 38.8335C60.4034 39.0733 60.5646 39.6487 60.3112 40.1043C60.0694 40.6078 59.8161 41.1054 59.5628 41.6029C59.3095 42.1004 59.0561 42.5979 58.8143 43.1015C58.561 43.6529 58.7913 44.2284 59.3901 44.588C59.9197 44.9237 60.4494 44.8038 60.7488 44.2524C60.8985 43.9766 61.0424 43.6949 61.1864 43.4132C61.3303 43.1314 61.4742 42.8497 61.6239 42.574C61.9233 41.9985 62.3839 41.8546 62.8675 42.1424C63.3511 42.4301 63.4663 42.9576 63.1899 43.5091C63.0287 43.8208 62.8733 44.1265 62.7178 44.4322C62.5624 44.7379 62.4069 45.0436 62.2457 45.3553C61.9091 46.0194 61.5724 46.6851 61.2354 47.3516C60.2582 49.2838 59.2778 51.2225 58.2846 53.1479C58.0544 53.5076 58.0544 54.0111 58.3307 54.3468C58.7452 54.8983 59.7125 55.0661 60.127 54.2749C60.7706 53.0512 61.3972 51.8099 61.9242 50.7659C62.2646 50.0915 62.5634 49.4995 62.7984 49.0478C63.3321 48.006 63.7993 47.0742 64.2296 46.2161C64.9878 44.7041 65.6314 43.4206 66.3219 42.1663C66.6443 41.495 67.3582 41.1353 68.0721 41.2792C68.8551 41.4231 69.4769 42.0465 69.6381 42.8617C69.7533 43.4371 69.8224 44.0126 69.8224 44.588C69.8224 45.1875 69.8224 45.7629 69.8684 46.3384Z" fill="#6666FF"/>
<path d="M65.1934 50.9422L64.3182 52.6686C64.4564 53.1721 64.5255 53.7236 64.5255 54.2511C64.5255 57.3921 62.0614 59.9577 59.0445 59.9577C56.0277 59.9577 53.5635 57.3921 53.5635 54.2511C53.5635 51.8773 54.9683 49.7673 57.11 48.9281L58.0082 47.1538C54.2314 47.7532 51.629 51.3978 52.2048 55.33C52.7805 59.2623 56.281 61.9717 60.0578 61.3723C63.8346 60.7729 66.4369 57.1283 65.8612 53.1961C65.7691 52.4048 65.5388 51.6376 65.1934 50.9422Z" fill="#6666FF"/>
</svg>
