<svg width="120" height="120" viewBox="0 0 120 120" fill="none" xmlns="http://www.w3.org/2000/svg">
<circle cx="60" cy="60" r="60" fill="#EDF0F4"/>
<path d="M60 22L94 40.8889V78.6667L60 97.5556L26 78.6667V40.8889L60 22Z" fill="#303642"/>
<path d="M70.0078 41.1304C71.6021 41.1304 72.8946 39.8326 72.8946 38.2318C72.8946 36.631 71.6021 35.3333 70.0078 35.3333V41.1304Z" fill="white"/>
<path d="M61.1544 69.0531V38.8115H55.3809V69.0531H61.1544Z" fill="white"/>
<path d="M58.8457 41.1304H70.0078V35.3333H58.8457V41.1304Z" fill="white"/>
<path d="M61.1544 38.8115C61.1544 40.0922 60.1203 41.1304 58.845 41.1304V35.3333C56.9318 35.3333 55.3809 36.8905 55.3809 38.8115H61.1544Z" fill="white"/>
<path fill-rule="evenodd" clip-rule="evenodd" d="M66.158 50.0193H58.2676V44.2222H66.158C67.7523 44.2222 69.0448 45.5199 69.0448 47.1207C69.0448 48.7215 67.7523 50.0193 66.158 50.0193Z" fill="white"/>
<path d="M58.0752 66.0579C62.858 66.0579 66.7352 69.9509 66.7354 74.7532C66.7354 79.5556 62.8581 83.4495 58.0752 83.4495C53.2923 83.4494 49.415 79.5556 49.415 74.7532C49.4152 69.9509 53.2924 66.0579 58.0752 66.0579ZM58.0752 71.8547C56.481 71.8548 55.1887 73.1525 55.1885 74.7532C55.1885 76.354 56.4809 77.6516 58.0752 77.6516C59.6695 77.6516 60.9619 76.354 60.9619 74.7532C60.9617 73.1525 59.6694 71.8547 58.0752 71.8547Z" fill="white"/>
</svg>
