<svg width="120" height="120" viewBox="0 0 120 120" fill="none" xmlns="http://www.w3.org/2000/svg">
<circle cx="60" cy="60" r="60" fill="#EDF0F4"/>
<path fill-rule="evenodd" clip-rule="evenodd" d="M38.3574 63.901C38.3574 76.0466 48.2205 85.9097 60.3661 85.9097C72.5118 85.9097 82.3748 76.0466 82.3748 63.8728C82.3748 52.0653 62.1133 31.212 61.2397 30.3384L60.1689 29.2676L59.1262 30.3666C58.2808 31.2402 38.3574 52.0935 38.3574 63.901ZM51.1512 44.2876C54.7865 39.497 58.4499 35.4109 60.197 33.5228C61.9724 35.4109 65.7204 39.5252 69.412 44.2876C75.9779 52.798 79.4441 59.5612 79.4441 63.8728C79.4441 74.384 70.8773 82.9508 60.3661 82.9508C49.8549 82.9508 41.2882 74.384 41.2882 63.8728C41.2882 59.5612 44.698 52.798 51.1512 44.2876Z" fill="url(#paint0_linear_107_20454)"/>
<path d="M60.366 92.9551C44.3315 92.9551 31.3123 79.9077 31.3123 63.9014C31.3123 48.2332 53.1801 26.3654 54.11 25.4636C54.6736 24.9 55.6317 24.9 56.1953 25.4636C56.7589 26.0272 56.7589 26.9854 56.1953 27.549C55.9699 27.7744 34.2712 49.4731 34.2712 63.9014C34.2712 78.3014 45.9941 90.0244 60.3942 90.0244C74.7942 90.0244 86.5172 78.3014 86.5172 63.9014C86.5172 57.9835 82.6847 49.8113 75.4142 40.2019C69.8345 32.8468 64.2267 27.2672 64.1703 27.2108C63.5785 26.6472 63.5785 25.7173 64.1703 25.1255C64.7339 24.5337 65.6639 24.5337 66.2556 25.1255C67.2138 26.0554 89.4761 48.205 89.4761 63.9014C89.4197 79.9077 76.4005 92.9551 60.366 92.9551Z" fill="url(#paint1_linear_107_20454)"/>
<path d="M60.3661 100C40.8654 100 25 84.1346 25 64.6339C25 56.5744 29.0579 46.655 37.0329 35.1856C42.9226 26.7316 48.6995 20.701 48.9531 20.4474C49.5167 19.8556 50.4467 19.8556 51.0385 20.4192C51.6302 20.9828 51.6302 21.9128 51.0666 22.5046C51.0103 22.5609 45.177 28.6478 39.4282 36.9046C31.9041 47.6976 27.9307 57.2789 27.9307 64.6339C27.9307 82.5001 42.4717 97.0693 60.3661 97.0693C78.2605 97.0693 92.8015 82.5283 92.8015 64.6339C92.8015 57.2789 88.7999 47.6976 81.2194 36.9046C75.4143 28.6478 69.5246 22.5609 69.4683 22.5046C68.9047 21.9128 68.9047 20.9828 69.4965 20.4192C70.0882 19.8556 71.0182 19.8556 71.5818 20.4474C72.5681 21.4619 95.7322 45.5278 95.7322 64.6339C95.7322 84.1346 79.8668 100 60.3661 100Z" fill="url(#paint2_linear_107_20454)"/>
<defs>
<linearGradient id="paint0_linear_107_20454" x1="82.3748" y1="85.9062" x2="82.3748" y2="29.2641" gradientUnits="userSpaceOnUse">
<stop stop-color="#05AAC5"/>
<stop offset="1" stop-color="#71E0EC"/>
</linearGradient>
<linearGradient id="paint1_linear_107_20454" x1="89.4761" y1="92.9517" x2="89.4761" y2="24.6782" gradientUnits="userSpaceOnUse">
<stop stop-color="#05AAC5"/>
<stop offset="1" stop-color="#71E0EC"/>
</linearGradient>
<linearGradient id="paint2_linear_107_20454" x1="95.7322" y1="99.9966" x2="95.7322" y2="19.9965" gradientUnits="userSpaceOnUse">
<stop stop-color="#05AAC5"/>
<stop offset="1" stop-color="#71E0EC"/>
</linearGradient>
</defs>
</svg>
