<svg width="120" height="120" viewBox="0 0 120 120" fill="none" xmlns="http://www.w3.org/2000/svg">
<path fill-rule="evenodd" clip-rule="evenodd" d="M60 120C27 120 0 93.0006 0 59.7012C0.3 26.7019 27 -0.297518 60.3 0.00247602C93.3 0.30247 120 27.0019 120 60.6012C119.7 93.3006 93 120 60 120Z" fill="#EDF0F4"/>
<path d="M99.5546 64.6042L99.1708 66.7097C95.7522 85.4645 79.3483 99.2869 60.0682 99.2869C40.4985 99.2868 23.9269 85.0523 20.8329 65.9333C20.5501 64.1844 21.7383 62.5368 23.4872 62.2537C25.205 61.9757 26.8246 63.1174 27.1503 64.8152L27.1669 64.9089C29.76 80.9321 43.659 92.8698 60.0682 92.8699C75.4265 92.8699 88.6111 82.4072 92.3475 67.8845L92.412 67.6248L64.7948 49.7488L52.7264 61.9714C51.5059 63.2076 49.5297 63.2442 48.2645 62.072L48.1893 62.0007C46.9532 60.7803 46.9167 58.804 48.0887 57.5388L48.16 57.4636L63.8973 41.5242L99.5546 64.6042ZM60.0682 19.7917C79.3482 19.7917 95.7522 33.6142 99.1708 52.3689C99.4885 54.1119 98.3327 55.7824 96.5897 56.1003C94.8465 56.4181 93.175 55.2625 92.8573 53.5193C89.992 37.8014 76.2346 26.2087 60.0682 26.2087C44.7101 26.2088 31.5255 36.6715 27.7889 51.1941L27.7196 51.4714L55.3124 69.6423L66.8319 57.5085C68.0284 56.2483 70.005 56.1735 71.2928 57.322L71.3671 57.3904C72.6273 58.5868 72.7029 60.5634 71.5546 61.8513L71.4852 61.9265L56.2684 77.9548L20.5858 54.4568L20.9667 52.3689C24.3854 33.6142 40.7884 19.7918 60.0682 19.7917Z" fill="url(#paint0_linear_107_22601)"/>
<defs>
<linearGradient id="paint0_linear_107_22601" x1="-2.71861" y1="38.7925" x2="23.785" y2="112.359" gradientUnits="userSpaceOnUse">
<stop offset="0.119792" stop-color="#053F92"/>
<stop offset="1" stop-color="#4CDADF"/>
</linearGradient>
</defs>
</svg>
