<svg width="120" height="120" viewBox="0 0 120 120" fill="none" xmlns="http://www.w3.org/2000/svg">
<circle cx="60" cy="60" r="60" fill="#EDF0F4"/>
<rect x="17.9688" y="19" width="81.7166" height="81.7166" fill="white" fill-opacity="0.01"/>
<rect x="89.1357" y="57.6079" width="5.28285" height="5.28285" fill="#BCBEC0"/>
<path d="M73.2395 68.1736H67.9566H62.6419H57.359H52.0602H46.7773V73.4724V78.7552V84.0381H52.0602V89.321H57.359H62.6419H67.9566H73.2395H78.5383V84.0381V78.7552V73.4724V68.1736H73.2395Z" fill="white"/>
<path d="M73.2395 62.8908H67.9566H62.6418V57.6079H57.359V62.8908H52.0602H46.7773H41.4785V68.1736V73.4724V78.7553V84.0381V89.321H46.7773H52.0602V84.0381H46.7773V78.7553V73.4724V68.1736H52.0602H57.359H62.6418H67.9566H73.2395H78.5383V62.8908H73.2395Z" fill="#BCBEC0"/>
<path d="M57.3584 94.6038H62.6412H67.956V89.3209H62.6412H57.3584H52.0596V94.6038H57.3584Z" fill="#BCBEC0"/>
<path d="M94.402 52.3251V47.0422H89.1351V52.3251H83.8203V57.6079H89.1351H94.402H99.7167V52.3251H94.402Z" fill="white"/>
<path d="M67.9561 31.1936V36.4765H73.2389V41.7593H78.5377V36.4765V31.1936H73.2389H67.9561Z" fill="white"/>
<path d="M62.6412 47.0422H57.3584V52.3251H52.0596V57.6079H57.3584H62.6412H67.956V52.3251H62.6412V47.0422Z" fill="white"/>
<rect x="52.0596" y="25.9268" width="5.29881" height="5.26689" fill="white"/>
<path d="M52.0602 36.4765H46.7773V31.1936H41.4785V36.4765H36.1797V41.7593H41.4785V47.0422H46.7773V41.7593H52.0602V36.4765Z" fill="white"/>
<rect x="94.4023" y="47.0422" width="5.29881" height="5.28285" fill="#ED1C24"/>
<path d="M89.1355 41.7594V36.4765H83.8208H78.5379V41.7594H73.2391V36.4765H67.9562V31.1936V25.9268H62.6415H57.3586V31.1936H52.0598H46.777V36.4765H52.0598V41.7594H46.777V47.0422H41.4781V41.7594H36.1793V36.4765H30.8965V41.7594V47.0422H36.1793V52.3251H41.4781V57.6079H46.777H52.0598V52.3251H57.3586V47.0422H62.6415V52.3251H67.9562V57.6079H73.2391H78.5379H83.8208V52.3251H89.1355V47.0422H94.4024V41.7594H89.1355Z" fill="#ED1C24"/>
<rect x="25.582" y="57.6079" width="5.29881" height="5.28285" fill="#BCBEC0"/>
<rect x="20.2988" y="52.3251" width="5.28285" height="5.28285" fill="#BCBEC0"/>
<path d="M83.8209 57.6079H78.538H73.2392H67.9564H62.6416V62.8908H67.9564H73.2392H78.538H83.8209H89.1357V57.6079H83.8209Z" fill="#BE1E2D"/>
<path d="M46.7769 57.608H41.4781V52.3251H36.1793V47.0423H30.8965V41.7594H25.5817V47.0423H20.2988V52.3251H25.5817V57.608H30.8965V62.8908H36.1793H41.4781H46.7769H52.0598H57.3586V57.608H52.0598H46.7769Z" fill="#BE1E2D"/>
<path d="M99.7168 47.0422V52.3251V57.6079H105V52.3251V47.0422H99.7168Z" fill="#231F20"/>
<rect x="94.4023" y="57.6079" width="5.29881" height="5.28285" fill="#231F20"/>
<rect x="94.4023" y="41.7594" width="5.29881" height="5.28285" fill="#231F20"/>
<rect x="89.1357" y="36.4766" width="5.28285" height="5.28285" fill="#231F20"/>
<path d="M83.8209 62.8907H78.5381V68.1736V73.4724V78.7553V84.0381V89.321H83.8209V84.0381V78.7553V73.4724V68.1736H89.1357H94.4026V62.8907H89.1357H83.8209Z" fill="#231F20"/>
<path d="M83.8209 36.4765H89.1357V31.1936H83.8209H78.5381V36.4765H83.8209Z" fill="#231F20"/>
<path d="M67.9561 89.3209V94.6038H73.2389H78.5377V89.3209H73.2389H67.9561Z" fill="#231F20"/>
<path d="M73.2389 31.1936H78.5377V25.9268H73.2389H67.9561V31.1936H73.2389Z" fill="#231F20"/>
<path d="M57.3584 94.6039H52.0596V99.8867H57.3584H62.6412H67.956V94.6039H62.6412H57.3584Z" fill="#231F20"/>
<path d="M62.6412 25.9268H67.956V20.6439H62.6412H57.3584H52.0596V25.9268H57.3584H62.6412Z" fill="#231F20"/>
<path d="M46.7773 89.321H41.4785V94.6039H46.7773H52.0602V89.321H46.7773Z" fill="#231F20"/>
<path d="M52.0602 31.1936V25.9268H46.7773H41.4785V31.1936H46.7773H52.0602Z" fill="#231F20"/>
<path d="M41.4785 78.7554V73.4725V68.1737V62.8909H36.1797H30.8968H25.582V68.1737H30.8968H36.1797V73.4725V78.7554V84.0382V89.3211H41.4785V84.0382V78.7554Z" fill="#231F20"/>
<path d="M41.4781 36.4765V31.1936H36.1793H30.8965V36.4765H36.1793H41.4781Z" fill="#231F20"/>
<rect x="25.582" y="36.4766" width="5.29881" height="5.28285" fill="#231F20"/>
<rect x="20.2988" y="57.6079" width="5.28285" height="5.28285" fill="#231F20"/>
<rect x="20.2988" y="41.7594" width="5.28285" height="5.28285" fill="#231F20"/>
<path d="M20.2988 47.0422H15V52.3251V57.6079H20.2988V52.3251V47.0422Z" fill="#231F20"/>
<path d="M49.6338 67.9981V73.2969H54.9166V67.9981V62.7152H49.6338V67.9981Z" fill="#231F20"/>
<path d="M65.833 62.7151V67.9979V73.2968H71.1159V67.9979V62.7151H65.833Z" fill="#231F20"/>
</svg>
