<svg width="120" height="120" viewBox="0 0 120 120" fill="none" xmlns="http://www.w3.org/2000/svg">
<circle cx="60" cy="60" r="60" fill="#E7EFF3"/>
<path fill-rule="evenodd" clip-rule="evenodd" d="M40.3545 48.1683C44.5801 41.3269 52.1345 37.2595 60.1721 37.4982C72.5792 37.5873 82.4915 47.856 82.4915 60.2631V82.4934H58.8356C50.798 82.2547 43.4983 77.7461 39.6863 70.6659C35.8742 63.5858 36.1289 55.0097 40.3545 48.1683ZM73.5036 73.4944V59.9958H73.4925C73.4925 52.5408 67.449 46.4973 59.9939 46.4973C52.5389 46.4973 46.4954 52.5408 46.4954 59.9958C46.4954 67.4509 52.5389 73.4944 59.9939 73.4944H73.5036Z" fill="#20EE82"/>
<path d="M91.8136 28.1805C76.6963 13.0624 53.0282 10.6695 35.1909 22.4558C35.6972 23.0156 36.1312 23.6368 36.4828 24.3047C53.4304 13.1805 75.8569 15.4678 90.2098 29.7843C106.871 46.4236 106.871 73.5321 90.2098 90.1937C73.5482 106.855 46.4397 106.855 29.7781 90.1937C15.4688 75.8352 13.1908 53.4092 24.3208 36.4667C23.6524 36.1159 23.0311 35.6818 22.4719 35.1748C8.76177 55.8904 14.453 83.8164 35.1686 97.5265C55.8842 111.237 83.8102 105.545 97.5204 84.8299C109.326 66.991 106.94 43.3063 91.8136 28.1805Z" fill="#7F8C8D"/>
<path d="M25.3454 25.3293C27.0984 23.5681 29.9471 23.5613 31.7084 25.3141C33.4698 27.0669 33.4767 29.9157 31.724 31.6772C29.9713 33.4386 27.1226 33.4458 25.361 31.6932L25.3454 31.6776C23.5982 29.9221 23.5982 27.0847 25.3454 25.3293Z" fill="#20EE82"/>
</svg>
