<svg width="120" height="120" viewBox="0 0 120 120" fill="none" xmlns="http://www.w3.org/2000/svg">
<circle cx="60" cy="60" r="60" fill="#6916FF"/>
<path fill-rule="evenodd" clip-rule="evenodd" d="M64.3775 22.2174C64.1176 22.6839 64.2467 23.266 64.681 23.5857C66.5586 25.4006 68.2551 27.386 69.7475 29.515C73.3071 35.7169 73.1281 43.3196 69.2806 49.3553C68.7689 50.2263 68.8618 51.3156 69.5141 52.0919C70.3154 53.1844 71.8464 53.4834 73.0163 52.776C76.9281 49.5585 77.572 43.1491 77.8297 40.5843C77.8642 40.2406 77.8918 39.9659 77.9194 39.7772C77.916 38.1567 77.6802 36.5447 77.219 34.9882C76.7387 33.4892 76.1133 32.0383 75.3511 30.6552C74.6291 29.2967 73.6824 28.0638 72.5493 27.0064C70.5752 24.9581 68.191 23.328 65.5449 22.2174C65.1915 21.9868 64.7308 21.9868 64.3775 22.2174ZM58.0267 94.6459C58.2602 94.4179 58.2602 93.9618 57.7933 93.5057C55.8913 91.6939 54.1712 89.7084 52.6567 87.5764C49.0971 81.3744 49.2761 73.7717 53.1236 67.7361C53.8266 66.9531 53.8266 65.7825 53.1236 64.9995C52.3223 63.907 50.7913 63.6079 49.6214 64.3153C45.7095 67.5329 45.0656 73.9423 44.808 76.507C44.7735 76.8508 44.7459 77.1255 44.7183 77.3142C44.7217 78.9346 44.9575 80.5466 45.4187 82.1032C45.899 83.6022 46.5244 85.0531 47.2866 86.4361C48.0086 87.7947 48.9553 89.0275 50.0884 90.0849C52.0625 92.1333 54.4467 93.7634 57.0928 94.874C57.3263 95.102 57.7933 94.874 58.0267 94.6459Z" fill="white" fill-opacity="0.5"/>
<path d="M77.9426 74.6915C77.6147 70.3359 75.9003 66.1895 73.0395 62.8329C70.1711 59.926 66.864 57.465 63.2332 55.5354C60.0701 53.7726 57.0976 51.7021 54.3609 49.3552C52.0893 47.1944 50.5424 44.4112 49.9248 41.3735C49.368 38.2219 49.7656 34.9801 51.0688 32.0462C52.6158 28.8095 54.8526 25.9327 57.6297 23.6084C57.948 23.3156 58.0417 22.858 57.8632 22.4682C57.7347 22.2258 57.4968 22.0567 57.2211 22.0118C56.9455 21.9669 56.6643 22.0515 56.4623 22.2401C52.7154 23.8984 49.5493 26.5944 47.3565 29.9938C44.8645 33.6168 43.704 37.958 44.0644 42.3085C44.2486 44.5098 44.8007 46.6668 45.6987 48.6939C46.6666 50.685 47.925 52.5286 49.4345 54.1671C52.3884 57.0145 55.7749 59.3991 59.4742 61.2366C62.6434 62.8922 65.6185 64.8804 68.3465 67.1659C70.7595 69.314 72.3286 72.2178 72.7827 75.3757C73.4403 78.6837 73.0325 82.1094 71.6153 85.1818C70.0421 88.3951 67.7237 91.2061 64.8443 93.3916C64.653 93.5081 64.5194 93.6965 64.4752 93.9124C64.431 94.1283 64.4801 94.3525 64.6108 94.5318C64.7393 94.7742 64.9772 94.9433 65.2528 94.9882C65.5285 95.0331 65.8097 94.9485 66.0117 94.7599C69.501 92.7254 72.5217 90.0079 74.884 86.7782C77.1972 83.171 78.2689 78.9359 77.9426 74.6915Z" fill="white"/>
</svg>
