<svg width="120" height="120" viewBox="0 0 120 120" fill="none" xmlns="http://www.w3.org/2000/svg">
<circle cx="60" cy="60" r="60" fill="#EDF0F4"/>
<path fill-rule="evenodd" clip-rule="evenodd" d="M55.6905 26.5593C53.5699 27.0708 51.5489 27.8795 51.1303 28.3841C50.9232 28.6335 50.9109 28.521 51.5764 32.4512C52.074 35.3902 52.3187 35.9513 53.6626 37.2384C54.738 38.2684 54.6662 38.4432 53.2861 38.156C52.4435 37.9807 51.868 37.7375 51.227 37.2867C51.0058 37.1308 50.8066 37.1854 49.9886 37.6259C44.9747 40.3256 39.2663 46.7546 35.7592 53.6516C33.9376 57.2342 32.8297 60.4848 32.1218 64.3244C31.7403 66.3931 31.7403 71.2048 32.1218 73.2489C33.5629 80.9719 37.9903 87.1502 44.5911 90.649C48.4263 92.682 53.5756 93.8743 58.509 93.8714C61.6372 93.8696 65.312 93.3601 68.0647 92.5464C78.2992 89.5212 84.8882 83.1546 86.803 74.4402C87.7998 69.9032 87.3694 64.1445 85.6739 59.3375C84.4984 56.0048 83.245 53.5685 80.9475 50.1502C77.2342 44.6256 72.1553 39.9765 66.7442 37.1485C66.1417 36.8337 65.5158 36.576 65.3532 36.576C65.1906 36.576 64.7252 36.8047 64.3187 37.0843C63.6957 37.513 62.3445 37.9259 61.5653 37.9259C61.2794 37.9259 61.5473 37.485 62.2271 36.8367C62.6622 36.4215 63.1608 35.7436 63.3895 35.2555C63.7774 34.4281 63.7915 34.3021 63.836 31.2726C63.8768 28.5026 63.853 28.1119 63.6282 27.8635C63.331 27.535 62.1839 27.0951 61.0152 26.8612C60.5614 26.7705 59.8307 26.6242 59.3914 26.5363C58.4379 26.3457 56.5267 26.3576 55.6905 26.5593Z" fill="#81B797"/>
<path d="M57.4233 38.6398C54.4234 38.8198 52.6735 37.5149 52.1736 36.8399C51.8736 36.315 51.2286 35.07 51.0486 34.2901C50.8686 33.5101 50.3737 30.1153 50.1487 28.5154C50.9736 27.6905 53.5835 25.9956 57.4233 25.8156C61.263 25.6356 63.6729 27.0405 64.3978 27.7655C64.4478 29.7653 64.4728 34.0201 64.1729 35.04C63.7979 36.315 63.3479 36.6149 62.8979 37.0649C62.448 37.5149 61.173 38.4148 57.4233 38.6398Z" fill="#D28B52"/>
<path d="M57.1233 29.8964C51.9636 30.3764 50.3237 28.4465 50.1487 27.4215C50.7486 26.6966 52.9535 25.1567 56.9733 24.7967C60.993 24.4367 63.6479 26.2466 64.4728 27.1966C64.1729 27.8965 62.283 29.4164 57.1233 29.8964Z" fill="#E4B85D"/>
<path d="M53.5985 44.024C52.9986 43.544 52.3487 39.6743 52.0986 37.7994C52.6986 37.9243 54.6935 38.1593 57.8733 38.0993C61.0531 38.0393 62.898 37.2744 63.423 36.8994C63.3979 38.4993 63.318 41.9241 63.198 42.8241C63.048 43.949 61.6231 44.399 58.7732 44.8489C55.9234 45.2989 54.3485 44.624 53.5985 44.024Z" fill="#95B77A"/>
<path fill-rule="evenodd" clip-rule="evenodd" d="M59.9204 24.1113C60.3162 24.1852 61.1127 24.3259 61.6901 24.4239C63.8771 24.7945 65.9773 25.6119 66.4507 26.2768C66.8506 26.8384 66.8699 27.6634 66.568 31.2937C66.4453 32.7706 66.4193 33.7876 66.5024 33.8662C66.578 33.9378 67.3485 34.3618 68.2147 34.8086C73.0097 37.2818 77.3853 40.9618 81.1045 45.6488C85.3329 50.9776 88.3822 57.3882 89.6668 63.6493C91.3071 71.6448 89.2961 79.6419 84.085 85.848C80.6499 89.9388 76.5374 92.4228 69.1972 94.8405C67.8969 95.2687 66.1216 95.7454 64.7511 96.0343C60.3429 96.963 54.4331 96.6928 49.5408 95.3386C41.4055 93.0867 35.472 88.3069 31.9032 81.1306C30.4851 78.2788 29.7762 76.2979 29.2674 73.7659C28.9079 71.9768 28.9115 67.5508 29.2743 65.2242C30.7107 56.012 34.8665 47.7154 41.4359 40.9444C43.7476 38.5616 45.9234 36.8361 48.9227 35.0071C49.3384 34.7536 49.3511 34.7117 49.261 33.8973C49.2095 33.4319 49.1024 32.7136 49.0232 32.3011C48.6949 30.5928 48.5413 29.696 48.4075 28.7076C48.3298 28.1336 48.2313 27.5534 48.1884 27.4183C47.9266 26.5938 51.7658 24.7804 55.0905 24.1582C56.0893 23.9713 59.0198 23.9428 59.9204 24.1113ZM55.6905 26.5591C53.5699 27.0706 51.5489 27.8793 51.1303 28.3839C50.9232 28.6333 50.9109 28.5209 51.5764 32.4511C52.074 35.39 52.3187 35.9511 53.6626 37.2382C54.738 38.2682 54.6662 38.4431 53.2861 38.1558C52.4435 37.9805 51.868 37.7374 51.227 37.2865C51.0058 37.1306 50.8066 37.1853 49.9886 37.6258C44.9747 40.3255 39.2663 46.7544 35.7592 53.6515C33.9376 57.234 32.8297 60.4846 32.1218 64.3242C31.7404 66.3929 31.7404 71.2046 32.1218 73.2487C33.5629 80.9717 37.9903 87.15 44.5911 90.6489C48.4263 92.6819 53.5756 93.8741 58.509 93.8713C61.6372 93.8695 65.312 93.36 68.0647 92.5463C78.2992 89.5211 84.8882 83.1544 86.803 74.4401C87.7998 69.903 87.3694 64.1444 85.6739 59.3373C84.4984 56.0047 83.245 53.5684 80.9475 50.1501C77.2342 44.6254 72.1553 39.9763 66.7442 37.1484C66.1417 36.8335 65.5158 36.5758 65.3532 36.5758C65.1906 36.5758 64.7252 36.8046 64.3187 37.0841C63.6957 37.5128 62.3445 37.9257 61.5653 37.9257C61.2794 37.9257 61.5473 37.4848 62.2271 36.8365C62.6622 36.4214 63.1608 35.7434 63.3895 35.2553C63.7774 34.428 63.7915 34.302 63.836 31.2724C63.8768 28.5024 63.853 28.1117 63.6282 27.8633C63.331 27.5348 62.1839 27.0949 61.0152 26.8611C60.5614 26.7703 59.8307 26.6241 59.3914 26.5362C58.4379 26.3455 56.5267 26.3574 55.6905 26.5591Z" fill="#1A4432"/>
<mask id="mask0_107_20385" style="mask-type:luminance" maskUnits="userSpaceOnUse" x="36" y="54" width="47" height="36">
<path fill-rule="evenodd" clip-rule="evenodd" d="M80.372 78.7466C75.0473 88.1211 64.2479 89.696 59.2982 89.996C57.7733 89.996 53.5836 89.561 49.0238 87.8211C43.3242 85.6462 40.8493 82.2714 37.9245 76.4968C34.9997 70.7221 37.9995 59.5478 39.3494 58.1979C40.6994 56.8479 47.5989 54.5231 59.2982 54.0731C68.6577 53.7131 76.8973 55.2231 79.847 56.023C81.7969 60.4728 84.6317 71.2471 80.372 78.7466Z" fill="white"/>
</mask>
<g mask="url(#mask0_107_20385)">
<path d="M80.372 78.7466C75.0473 88.1211 64.2479 89.696 59.2982 89.996C57.7733 89.996 53.5836 89.561 49.0238 87.8211C43.3242 85.6462 40.8493 82.2714 37.9245 76.4968C34.9997 70.7221 37.9995 59.5478 39.3494 58.1979C40.6994 56.8479 47.5989 54.5231 59.2982 54.0731C68.6577 53.7131 76.8973 55.2231 79.847 56.023C81.7969 60.4728 84.6317 71.2471 80.372 78.7466Z" fill="#F3B3BD"/>
<path d="M58.9981 60.9725C41.8392 61.0925 38.0994 58.4726 38.3744 57.1478C41.6242 55.4728 50.6286 52.123 60.6481 52.123C73.1723 52.123 81.5718 54.8229 81.6468 55.3479C81.7218 55.8728 80.4469 60.8225 58.9981 60.9725Z" fill="#F8D5DA"/>
</g>
<path d="M44.3741 66.3727C44.4491 67.7226 43.3242 69.2975 40.9993 71.2474C40.6243 70.9224 39.8444 70.0325 39.7244 69.0725C39.5744 67.8726 40.4743 65.9977 41.6742 64.5728C42.8742 63.1479 44.2991 65.0228 44.3741 66.3727Z" fill="#F098A2"/>
<path d="M50.7486 82.7214C50.3737 79.3466 56.6733 71.3971 61.848 68.6973C68.0726 65.1725 76.8471 63.8976 79.022 68.3223C81.1968 72.747 79.5469 78.2217 76.3221 81.0715C73.0973 83.9214 69.1226 86.6962 62.5229 87.8961C55.9233 89.0961 51.1236 86.0962 50.7486 82.7214Z" fill="#F098A2"/>
<path d="M50.7488 50.4735C50.2238 52.8733 49.0989 54.9732 45.2741 57.973C39.7995 61.7978 39.3495 56.4731 40.2495 54.1483C41.1494 51.8234 42.2743 48.5236 46.6991 46.1237C51.1238 43.7239 51.2738 48.0736 50.7488 50.4735Z" fill="white"/>
<path d="M79.3971 80.4715C80.222 81.8965 79.3971 83.8464 76.3972 85.6462C75.4973 86.3962 74.9723 86.9212 73.5474 86.1712C72.1225 85.4213 72.9475 83.8463 74.1474 82.0465C75.3473 80.2466 78.5721 79.0466 79.3971 80.4715Z" fill="white"/>
<path d="M34.8497 73.7969L33.7998 64.8724L35.3747 69.6721C36.9746 68.4222 40.4444 65.7123 41.5243 64.8724C42.8743 63.8224 42.4243 63.2225 44.5992 64.8724C46.774 66.5223 52.9987 72.072 53.9736 71.847C54.9486 71.622 64.623 62.1725 65.3729 62.7725C65.9729 63.2525 72.7725 66.6723 76.0973 68.3222L82.6219 60.2227L86.5217 66.3723L82.6219 62.7725C80.8471 65.3723 77.1922 70.647 76.7723 70.947C76.2473 71.322 67.3978 64.8724 65.7479 64.8724C64.428 64.8724 57.6484 72.2719 54.4236 75.9717L43.2492 66.3723L34.8497 73.7969Z" fill="#BDF5E8"/>
</svg>
