<svg width="120" height="120" viewBox="0 0 120 120" fill="none" xmlns="http://www.w3.org/2000/svg">
<circle cx="60" cy="60" r="60" fill="#EDF0F4"/>
<path fill-rule="evenodd" clip-rule="evenodd" d="M60.4664 69.3926L37.5485 56.2993C34.0619 60.8112 32 66.3962 32 72.4428C32 87.4351 44.6763 99.5888 60.3134 99.5888C60.3643 99.5888 60.4154 99.5886 60.4664 99.5883V69.3926Z" fill="#47A2F8"/>
<path fill-rule="evenodd" clip-rule="evenodd" d="M60.4663 69.3926L83.3842 56.2993C86.8707 60.8112 88.9327 66.3962 88.9327 72.4427C88.9327 87.4351 76.2564 99.5888 60.6194 99.5888C60.5682 99.5888 60.5173 99.5888 60.4663 99.5885V69.3926Z" fill="#7EC6F9"/>
<path d="M60.4663 21L40.647 51.3795L60.4663 40.1306V21Z" fill="#47A2F8"/>
<path d="M60.4663 21L80.2857 51.3795L60.4663 40.1306V21Z" fill="#7EC6F9"/>
<path d="M60.4663 62.8581L40.647 51.3797L60.4663 40.1309V62.8581Z" fill="#7EC6F9"/>
<path d="M60.4663 62.8581L80.2857 51.3797L60.4663 40.1309V62.8581Z" fill="#D2ECFD"/>
<path d="M60.4663 69.4387L83.4231 56.2769L60.4663 99.5886V69.4387Z" fill="#D2ECFD"/>
<path d="M60.4663 69.4387L37.5095 56.2769L60.4663 99.5886V69.4387Z" fill="#7EC6F9"/>
</svg>
