<svg width="120" height="120" viewBox="0 0 120 120" fill="none" xmlns="http://www.w3.org/2000/svg">
<path fill-rule="evenodd" clip-rule="evenodd" d="M60 120C27 120 0 93.0006 0 59.7012C0.3 26.7019 27 -0.297518 60.3 0.00247602C93.3 0.30247 120 27.0019 120 60.6012C119.7 93.3006 93 120 60 120Z" fill="#EDF0F4"/>
<path fill-rule="evenodd" clip-rule="evenodd" d="M59.7941 24.6216C61.0022 24.6216 61.9817 25.601 61.9817 26.8092C61.9749 28.0145 60.9994 28.99 59.7941 28.9968C58.5859 28.9968 57.6065 28.0173 57.6065 26.8092C57.6065 25.601 58.5859 24.6216 59.7941 24.6216ZM28.8879 76.5912C28.8879 75.383 29.8673 74.4036 31.0755 74.4036V74.404C31.8589 74.4072 32.5828 74.8227 32.9807 75.4976C33.1571 75.8504 33.2631 76.2032 33.2631 76.5912C33.2631 77.7994 32.2836 78.7788 31.0755 78.7788C29.8673 78.7788 28.8879 77.7994 28.8879 76.5912ZM88.6563 45.7906C89.8644 45.7906 90.8438 44.8112 90.8438 43.603C90.8438 42.3949 89.8644 41.4155 88.6563 41.4155C87.4481 41.4155 86.4687 42.3949 86.4687 43.603C86.4701 43.9743 86.5674 44.3389 86.7511 44.6614C87.1337 45.3561 87.8632 45.7884 88.6563 45.7906ZM29.1331 42.4035C29.7327 41.3451 31.0383 40.9919 32.0967 41.5919C33.1551 42.1915 33.5083 43.5322 32.9083 44.5554C32.3087 45.6138 31.0031 45.9666 29.9447 45.367C28.8863 44.7674 28.5335 43.4618 29.1331 42.4035ZM89.5363 74.8268C89.2187 74.6152 88.8307 74.5444 88.4427 74.5092C87.6541 74.4986 86.9209 74.9131 86.5235 75.5943C86.1262 76.2754 86.1262 77.1178 86.5235 77.7989C86.9209 78.4801 87.6541 78.8946 88.4427 78.884C89.2187 78.884 89.9227 78.4608 90.3478 77.7904C90.9478 76.7672 90.5946 75.4264 89.5363 74.8268ZM59.0177 95.3599C58.1005 95.0071 57.5005 94.0547 57.6065 93.0667V93.0663C57.6102 93.0396 57.6226 93.0149 57.6417 92.9959C57.8268 91.8166 58.9276 91.0067 60.1086 91.181C61.2895 91.3553 62.1095 92.4486 61.9461 93.6311C61.7387 94.7149 60.7916 95.4993 59.6881 95.5011C59.4765 95.5011 59.2293 95.4303 59.0177 95.3599Z" fill="#2683FF"/>
<path fill-rule="evenodd" clip-rule="evenodd" d="M90.877 70.4168C91.1573 70.5247 91.4287 70.6545 91.6886 70.8048C94.7934 72.71 95.8518 76.732 94.089 80.0136C92.2534 83.2947 88.0891 84.4591 84.8091 82.6243C84.493 82.4484 84.2122 82.238 83.9312 82.0274L83.9271 82.0243L66.3568 92.1499C66.3991 92.4776 66.4226 92.8075 66.4272 93.1379C66.4272 93.5263 66.4272 93.8791 66.3568 94.2671C65.7572 97.9718 62.2645 100.512 58.5597 99.9122C54.8549 99.3122 52.3145 95.8195 52.9145 92.1151L35.2386 81.9188C34.9562 82.1303 34.6742 82.3067 34.3919 82.4831C34.3118 82.5231 34.2317 82.566 34.1507 82.6093C33.9466 82.7184 33.7373 82.8304 33.5099 82.9063C30.0167 84.3175 26.0651 82.6227 24.6539 79.1312C23.2427 75.6396 24.9367 71.6868 28.4299 70.2756V49.883C28.1087 49.7782 27.8009 49.6362 27.5127 49.4598C27.2307 49.2834 26.9835 49.107 26.7367 48.9306C24.7704 47.4606 23.7458 45.0473 24.0541 42.6116C24.3623 40.176 25.9558 38.094 28.2263 37.1602C30.4969 36.2265 33.0941 36.585 35.0266 38.0991L52.8789 27.7615C52.8757 27.7328 52.8725 27.7044 52.8694 27.6762C52.8376 27.3929 52.8085 27.1332 52.8085 26.8444C52.8085 23.1048 55.9485 20 59.6885 20C63.4284 20 66.4964 23.034 66.4968 26.8088C66.4968 27.0969 66.4678 27.3563 66.4361 27.6395C66.4329 27.668 66.4296 27.6968 66.4264 27.7259L84.4199 38.1339C84.6667 37.9575 84.9135 37.7811 85.1959 37.6399C88.4779 35.8059 92.6418 37.0039 94.4758 40.2859C96.3098 43.5678 95.1098 47.731 91.8298 49.5658C91.7232 49.6131 91.6165 49.6644 91.5098 49.7157C91.2989 49.8171 91.088 49.9186 90.877 49.989V70.4168ZM85.7967 81.2128C88.2663 82.6591 91.477 81.8124 92.9234 79.3428H92.9242C94.4042 76.838 93.5586 73.6624 91.1242 72.216C89.1553 71.0552 86.6574 71.328 84.9855 72.8864L76.9055 68.194C78.9167 64.0661 77.5759 59.1269 73.8008 56.5513C73.5892 55.7733 73.2716 55.0341 72.9188 54.2934L85.1259 47.379C86.3975 48.5795 88.183 49.0689 89.889 48.6846C92.7118 48.0498 94.4402 45.2274 93.8054 42.4046C93.1706 39.5819 90.3482 37.8535 87.5255 38.4883C84.7027 39.1231 82.9739 41.9458 83.6091 44.7682L71.2608 51.789C68.8616 48.9314 61.2409 47.0262 61.2409 47.0262V31.4663C62.8006 31.0003 64.0208 29.7801 64.4868 28.2203C65.2628 25.6448 63.8164 22.928 61.2409 22.152C58.6653 21.376 55.9465 22.7872 55.1705 25.3628C54.3945 27.9383 55.8409 30.6551 58.4165 31.4311V47.3074C58.4165 47.3074 54.2565 48.6834 52.6329 50.0234C50.9066 50.0636 49.2141 50.5109 47.6934 51.329L36.0858 44.661C36.4742 42.9674 36.0158 41.2034 34.8158 39.9335C32.8403 37.8167 29.5943 37.7111 27.4775 39.6867C26.4628 40.6294 25.8661 41.938 25.8198 43.3223C25.7734 44.7066 26.2813 46.0521 27.2307 47.0606C29.2063 49.1774 32.4891 49.283 34.569 47.3074L45.049 53.3054C41.2382 57.1157 40.7442 63.1137 43.849 67.4885L34.6406 72.816C33.3335 71.6164 31.5343 71.1228 29.8407 71.546C27.0264 72.219 25.2904 75.0458 25.9629 77.8602C26.6355 80.6746 29.462 82.4111 32.2765 81.7389C35.091 81.0668 36.8279 78.2406 36.1562 75.426L45.9998 69.746C48.5307 71.792 51.8403 72.6066 55.0317 71.9688C56.0162 72.4239 57.0299 72.8129 58.0661 73.1332V87.9515C56.6561 88.4103 55.4565 89.3979 54.7861 90.7387C53.4453 93.4199 54.5037 96.7362 57.2205 98.077C57.4321 98.183 57.6441 98.289 57.8909 98.3594C57.9087 98.3594 57.9265 98.3683 57.9442 98.3771C57.9618 98.3859 57.9793 98.3946 57.9969 98.3946C60.8901 99.2746 63.9616 97.6874 64.8416 94.7947C65.7216 91.9019 64.1348 88.8323 61.2417 87.9503V73.4144C61.2417 73.4144 63.8868 73.1672 65.1216 72.7792C68.5649 74.161 72.5012 73.341 75.1064 70.6992L83.3623 75.5328C82.8331 77.7552 83.8211 80.0484 85.7967 81.2128Z" fill="#2683FF"/>
<path d="M70.1672 59.3032C70.132 59.0208 70.0968 58.774 70.0612 58.4916C70.0267 58.3005 69.9795 58.112 69.92 57.9272C69.92 57.8568 69.8848 57.786 69.8848 57.7156C69.8144 57.504 69.7436 57.2568 69.6732 57.0452V57.01C69.2246 55.8264 68.5404 54.7462 67.662 53.8348C67.4504 53.6232 67.274 53.4468 67.0268 53.2348L66.9916 53.1996C66.78 53.0232 66.5684 52.8468 66.3212 52.7056L66.286 52.6704C66.0744 52.5292 65.8272 52.3528 65.6156 52.2472L65.5804 52.212C65.3525 52.0804 65.1169 51.9626 64.8748 51.8592L64.8044 51.824C64.5576 51.718 64.3104 51.6124 64.0284 51.5064L63.9932 51.4712C63.7108 51.4008 63.4641 51.2948 63.1817 51.2596H63.1465C62.8673 51.1955 62.5845 51.1483 62.2997 51.1184H62.2645C60.7618 50.9049 59.2294 51.0874 57.8189 51.6476L57.6425 51.7888C57.4309 51.8592 57.0781 52.0356 56.8665 52.1416C56.7564 52.2143 56.6379 52.2736 56.5137 52.318C56.4077 52.3532 56.2313 52.4944 56.1257 52.5648C56.0201 52.6352 55.7729 52.8116 55.6317 52.9176L55.5257 52.988C55.3141 53.1292 55.1377 53.3056 54.9257 53.482L54.7493 53.6584C54.5377 53.87 54.3613 54.0464 54.1849 54.2584C53.7652 54.1881 53.3405 54.1527 52.9149 54.1524C52.7737 54.1524 52.6681 54.1524 52.5621 54.1876C50.9393 54.258 49.387 54.9284 48.1874 56.0224C47.5874 56.5516 47.0938 57.2224 46.7074 57.9276L46.6698 57.9996C46.561 58.2045 46.4667 58.4168 46.3874 58.6348C46.3522 58.7052 46.3522 58.7408 46.317 58.8112C46.2422 58.994 46.1832 59.1828 46.1406 59.3756C46.1054 59.446 46.1054 59.552 46.0702 59.6224C46.035 59.7988 45.9998 59.9752 45.9642 60.1868C45.9642 60.2572 45.929 60.328 45.929 60.4336C45.8996 60.7031 45.8879 60.9742 45.8938 61.2452C45.8879 61.4692 45.8997 61.6934 45.929 61.9156C45.929 61.986 45.9642 62.0568 45.9642 62.1624C45.9994 62.3036 45.9994 62.4448 46.0346 62.5856C46.0698 62.7264 46.0698 62.762 46.105 62.868C46.1451 62.9694 46.1689 63.0766 46.1754 63.1856C46.1754 63.2916 46.2458 63.3972 46.2814 63.5032C46.3102 63.5881 46.3457 63.6706 46.3874 63.7499C46.4405 63.865 46.4876 63.9828 46.5286 64.1027C46.5638 64.1731 46.599 64.2087 46.599 64.2791C47.0948 65.4412 47.9317 66.4254 48.999 67.1015C49.5282 67.4191 50.0573 67.7015 50.6217 67.8775C50.8406 67.9527 51.0646 68.0117 51.2921 68.0539L51.3625 68.0891L51.9977 68.1951L52.1389 68.2303C52.3857 68.2655 52.6329 68.2655 52.9149 68.2655C53.8677 68.2655 54.7849 68.0891 55.6317 67.7011C55.8433 67.8423 56.0197 67.9835 56.2317 68.1243L56.3021 68.1595C56.4785 68.2655 56.6901 68.3711 56.9021 68.4771H56.9365C58.9531 69.5048 61.2803 69.7438 63.4637 69.1475H63.4989C63.8163 69.079 64.1242 68.9723 64.416 68.8299L65.3688 68.4067C66.276 69.1145 67.3934 69.4993 68.544 69.5003C68.7908 69.5003 69.0028 69.4651 69.2496 69.4651L69.426 69.4299C69.6521 69.3962 69.876 69.3491 70.0964 69.2887C70.3138 69.2219 70.5261 69.1394 70.7316 69.0419L70.8376 69.0067C71.0492 68.9007 71.2256 68.7951 71.4376 68.6891C72.3196 68.1247 72.99 67.2779 73.378 66.3251C73.5192 66.0075 73.5896 65.6899 73.6604 65.3727V65.2667C73.6956 65.1255 73.6956 64.9843 73.7308 64.8435C73.7308 64.6671 73.766 64.4907 73.766 64.3143C73.766 61.986 72.3196 59.9748 70.166 59.3044" fill="#2683FF"/>
</svg>
