<svg width="120" height="120" viewBox="0 0 120 120" fill="none" xmlns="http://www.w3.org/2000/svg">
<circle cx="60" cy="60" r="60" fill="#EDF0F4"/>
<path fill-rule="evenodd" clip-rule="evenodd" d="M88.6199 50.0847C85.0072 48.158 80.672 48.158 77.3002 50.0847L60.2002 59.9594L77.3002 69.834C80.9129 71.7608 85.2481 71.7608 88.6199 69.834C92.2326 67.9073 94.4002 64.0537 94.4002 59.9594C94.4002 55.865 92.2326 52.0115 88.6199 50.0847Z" fill="#050505"/>
<path fill-rule="evenodd" clip-rule="evenodd" d="M31.7803 50.0847C28.1676 52.0115 26 55.865 26 59.9594C26 64.0537 28.1676 67.6664 31.7803 69.834C35.393 71.7608 39.7282 71.7608 43.1 69.834L60.2 59.9594L43.1 50.0847C39.4873 48.158 35.1521 48.158 31.7803 50.0847Z" fill="#050505"/>
<path fill-rule="evenodd" clip-rule="evenodd" d="M50.3254 88.1379C52.2522 91.7505 56.1057 93.6773 60.2001 93.6773C64.2945 93.6773 68.148 91.5097 70.0747 88.1379C72.0015 84.5252 72.0015 80.4308 70.0747 76.8181L60.2001 59.959L50.3254 76.8181C48.3987 80.4308 48.3987 84.5252 50.3254 88.1379Z" fill="#050505"/>
<path fill-rule="evenodd" clip-rule="evenodd" d="M70.0747 31.5394C68.148 28.1676 64.2945 26 60.2001 26C56.1057 26 52.2522 28.1676 50.3254 31.5394C48.3987 35.1521 48.3987 39.2465 50.3254 42.8592L60.2001 59.7183L70.0747 42.8592C72.0015 39.4873 72.0015 35.1521 70.0747 31.5394Z" fill="#050505"/>
</svg>
