<svg width="120" height="120" viewBox="0 0 120 120" fill="none" xmlns="http://www.w3.org/2000/svg">
<circle cx="60" cy="60" r="60" fill="#E7EFF3"/>
<path fill-rule="evenodd" clip-rule="evenodd" d="M84.4236 52.7096C81.4497 49.8958 77.25 47.5518 71.8008 46.0635H71.7693C58.8027 42.5358 54.183 50.8801 64.6823 56.1402C76.6016 62.1038 78.2579 71.8708 71.5305 77.9788C69.8165 79.5327 64.2466 82.441 59.1229 83.1392C50.986 84.2679 41.9566 82.5381 34.6176 80.2073C38.6092 83.3078 43.1708 85.5944 48.0435 86.9373C59.4851 90.0871 73.3049 87.7668 82.4629 79.8057C91.6865 71.7763 92.5685 60.3951 84.4236 52.7096ZM71.8061 46.0662L71.9242 46.1003L71.8061 46.0662Z" fill="#008DD0"/>
<path fill-rule="evenodd" clip-rule="evenodd" d="M46.8755 33.8842C59.7269 28.646 74.394 30.6343 85.3869 39.1049C71.6853 34.7477 61.0548 35.1257 54.0806 37.9316L53.9783 37.9736C45.3662 41.4961 42.3818 48.7065 46.13 55.2266C48.1485 58.7412 51.7078 61.3687 55.3169 63.172C64.8608 67.9518 61.9262 75.2724 51.5923 73.9337C50.4454 73.7808 49.3105 73.5484 48.1958 73.2382C27.9033 67.6972 24.9346 50.4652 37.539 39.5065C40.3214 37.1326 43.4758 35.233 46.8755 33.8842Z" fill="#008DD0"/>
</svg>
