<svg width="120" height="120" viewBox="0 0 120 120" fill="none" xmlns="http://www.w3.org/2000/svg">
<path d="M60 0C59.0174 0 58.0361 0.0242771 57.0561 0.0728313C56.0748 0.121385 55.096 0.192938 54.1186 0.290047C53.1424 0.385877 52.1675 0.505984 51.1964 0.650369C50.2253 0.793475 49.2581 0.962137 48.2946 1.1538C47.3312 1.34546 46.3742 1.56012 45.421 1.79905C44.4691 2.03671 43.5223 2.29865 42.5832 2.58359C41.644 2.86852 40.7113 3.17646 39.7862 3.50739C38.8624 3.83832 37.9462 4.19226 37.0391 4.56791C36.1319 4.94357 35.2349 5.34094 34.3469 5.76132C33.4588 6.18042 32.5823 6.62251 31.716 7.08505C30.851 7.5476 29.9962 8.03186 29.1541 8.53656C28.3121 9.04127 27.4829 9.56642 26.6664 10.112C25.8499 10.6576 25.0475 11.2236 24.2578 11.8076C23.4695 12.3928 22.6952 12.9971 21.9362 13.6194C21.1772 14.2429 20.4349 14.8844 19.7065 15.5437C18.9795 16.203 18.2678 16.8802 17.574 17.574C16.8802 18.2678 16.203 18.9795 15.5437 19.7065C14.8844 20.4349 14.2429 21.1772 13.6194 21.9362C12.9971 22.6952 12.3928 23.4695 11.8076 24.2578C11.2236 25.0475 10.6576 25.8499 10.112 26.6664C9.56642 27.4829 9.04127 28.3121 8.53656 29.1541C8.03186 29.9962 7.5476 30.851 7.08505 31.716C6.62251 32.5823 6.18042 33.4588 5.76132 34.3469C5.34094 35.2349 4.94357 36.1319 4.56791 37.0391C4.19226 37.9462 3.83832 38.8624 3.50739 39.7862C3.17646 40.7113 2.86852 41.644 2.58359 42.5832C2.29865 43.5223 2.03671 44.4691 1.79905 45.421C1.56012 46.3742 1.34546 47.3312 1.1538 48.2946C0.962137 49.2581 0.793475 50.2253 0.650369 51.1964C0.505984 52.1675 0.385877 53.1424 0.290047 54.1186C0.192938 55.096 0.121385 56.0748 0.0728313 57.0561C0.0242771 58.0361 0 59.0174 0 60C0 60.9813 0.0242771 61.9639 0.0728313 62.9439C0.121385 63.9252 0.192938 64.904 0.290047 65.8814C0.385877 66.8576 0.505984 67.8325 0.650369 68.8036C0.793475 69.7747 0.962137 70.7419 1.1538 71.7054C1.34546 72.6688 1.56012 73.6258 1.79905 74.579C2.03671 75.5309 2.29865 76.4777 2.58359 77.4168C2.86852 78.356 3.17646 79.2887 3.50739 80.2138C3.83832 81.1376 4.19226 82.0537 4.56791 82.9609C4.94357 83.8681 5.34094 84.7651 5.76132 85.6531C6.18042 86.5412 6.62251 87.4177 7.08505 88.284C7.5476 89.149 8.03186 90.0038 8.53656 90.8459C9.04127 91.6879 9.56642 92.5171 10.112 93.3336C10.6576 94.1501 11.2236 94.9525 11.8076 95.7421C12.3928 96.5305 12.9971 97.3048 13.6194 98.0638C14.2429 98.8228 14.8844 99.5651 15.5437 100.293C16.203 101.02 16.8802 101.732 17.574 102.426C18.2678 103.12 18.9795 103.797 19.7065 104.456C20.4349 105.116 21.1772 105.757 21.9362 106.381C22.6952 107.003 23.4695 107.607 24.2578 108.192C25.0475 108.776 25.8499 109.342 26.6664 109.888C27.4829 110.434 28.3121 110.959 29.1541 111.463C29.9962 111.968 30.851 112.452 31.716 112.915C32.5823 113.377 33.4588 113.82 34.3469 114.239C35.2349 114.659 36.1319 115.056 37.0391 115.432C37.9462 115.808 38.8624 116.162 39.7862 116.493C40.7113 116.824 41.644 117.13 42.5832 117.416C43.5223 117.701 44.4691 117.963 45.421 118.201C46.3742 118.44 47.3312 118.655 48.2946 118.846C49.2581 119.038 50.2253 119.207 51.1964 119.35C52.1675 119.494 53.1424 119.614 54.1186 119.71C55.096 119.807 56.0748 119.879 57.0561 119.927C58.0361 119.976 59.0174 120 60 120C60.9813 120 61.9639 119.976 62.9439 119.927C63.9252 119.879 64.904 119.807 65.8814 119.71C66.8576 119.614 67.8325 119.494 68.8036 119.35C69.7747 119.207 70.7419 119.038 71.7054 118.846C72.6688 118.655 73.6258 118.44 74.579 118.201C75.5309 117.963 76.4777 117.701 77.4168 117.416C78.356 117.13 79.2887 116.822 80.2138 116.493C81.1376 116.162 82.0537 115.808 82.9609 115.432C83.8681 115.056 84.7651 114.659 85.6531 114.239C86.5412 113.82 87.4177 113.377 88.284 112.915C89.149 112.452 90.0038 111.968 90.8459 111.463C91.6879 110.959 92.5171 110.434 93.3336 109.888C94.1501 109.342 94.9525 108.776 95.7421 108.192C96.5305 107.607 97.3048 107.003 98.0638 106.381C98.8228 105.757 99.5651 105.116 100.293 104.456C101.02 103.797 101.732 103.12 102.426 102.426C103.12 101.732 103.797 101.02 104.456 100.293C105.116 99.5651 105.757 98.8228 106.381 98.0638C107.003 97.3048 107.607 96.5305 108.192 95.7421C108.776 94.9525 109.342 94.1501 109.888 93.3336C110.434 92.5171 110.959 91.6879 111.463 90.8459C111.968 90.0038 112.452 89.149 112.915 88.284C113.377 87.4177 113.82 86.5412 114.239 85.6531C114.659 84.7651 115.056 83.8681 115.432 82.9609C115.808 82.0537 116.162 81.1376 116.493 80.2138C116.824 79.2887 117.13 78.356 117.416 77.4168C117.701 76.4777 117.963 75.5309 118.201 74.579C118.44 73.6258 118.655 72.6688 118.846 71.7054C119.038 70.7419 119.207 69.7747 119.35 68.8036C119.494 67.8325 119.614 66.8576 119.71 65.8814C119.807 64.904 119.879 63.9252 119.927 62.9439C119.976 61.9639 120 60.9813 120 60C120 59.0174 119.976 58.0361 119.927 57.0561C119.879 56.0748 119.807 55.096 119.71 54.1186C119.614 53.1424 119.494 52.1675 119.35 51.1964C119.207 50.2253 119.038 49.2581 118.846 48.2946C118.655 47.3312 118.44 46.3742 118.201 45.421C117.963 44.4691 117.701 43.5223 117.416 42.5832C117.13 41.644 116.822 40.7113 116.493 39.7862C116.162 38.8624 115.808 37.9462 115.432 37.0391C115.056 36.1319 114.659 35.2349 114.239 34.3469C113.82 33.4588 113.377 32.5823 112.915 31.716C112.452 30.851 111.968 29.9962 111.463 29.1541C110.959 28.3121 110.434 27.4829 109.888 26.6664C109.342 25.8499 108.776 25.0475 108.192 24.2578C107.607 23.4695 107.003 22.6952 106.381 21.9362C105.757 21.1772 105.116 20.4349 104.456 19.7065C103.797 18.9795 103.12 18.2678 102.426 17.574C101.732 16.8802 101.02 16.203 100.293 15.5437C99.5651 14.8844 98.8228 14.2429 98.0638 13.6194C97.3048 12.9971 96.5305 12.3928 95.7421 11.8076C94.9525 11.2236 94.1501 10.6576 93.3336 10.112C92.5171 9.56642 91.6879 9.04127 90.8459 8.53656C90.0038 8.03186 89.149 7.5476 88.284 7.08505C87.4177 6.62251 86.5412 6.18042 85.6531 5.76132C84.7651 5.34094 83.8681 4.94357 82.9609 4.56791C82.0537 4.19226 81.1376 3.83832 80.2138 3.50739C79.2887 3.17646 78.356 2.86852 77.4168 2.58359C76.4777 2.29865 75.5309 2.03671 74.579 1.79905C73.6258 1.56012 72.6688 1.34546 71.7054 1.1538C70.7419 0.962137 69.7747 0.793475 68.8036 0.650369C67.8325 0.505984 66.8576 0.385877 65.8814 0.290047C64.904 0.192938 63.9252 0.121385 62.9439 0.0728313C61.9639 0.0242771 60.9813 0 60 0Z" fill="#571AFF"/>
<mask id="mask0_107_22728" style="mask-type:luminance" maskUnits="userSpaceOnUse" x="3" y="3" width="113" height="113">
<path fill-rule="evenodd" clip-rule="evenodd" d="M3.74365 3.99927H115.367V115.622H3.74365V3.99927Z" fill="white"/>
</mask>
<g mask="url(#mask0_107_22728)">
<path fill-rule="evenodd" clip-rule="evenodd" d="M40.1529 4.38509C29.2538 8.1838 19.3398 15.3596 12.7569 24.213C12.5014 24.5567 12.2612 24.8634 12.2228 24.8941C12.0529 25.0295 9.75041 28.5407 9.00805 29.7955C7.26649 32.7406 5.33455 36.9431 4.09387 40.4825L3.74121 41.4893L3.7706 60.3155L3.79999 79.143L4.33408 80.4833C4.62796 81.2206 4.94867 82.0511 5.04706 82.3271C6.03603 85.1317 8.49439 89.798 10.8454 93.3335C12.9205 96.4537 14.8626 98.8188 17.7593 101.753C23.6893 107.76 30.5865 112.253 38.4676 115.243L39.767 115.736H79.8982L81.4609 115.133C87.4969 112.805 92.5925 109.811 98.106 105.351C99.4425 104.27 103.64 100.134 104.518 99.0322C104.86 98.6016 105.397 97.9487 105.707 97.5794C106.751 96.3439 108.79 93.5418 109.503 92.365C109.565 92.2628 110.008 91.5332 110.489 90.7448C110.969 89.9565 111.925 88.1791 112.612 86.7966C113.866 84.2782 114.009 83.9664 114.475 82.7181C114.612 82.3501 114.798 81.8811 114.888 81.6793C115.528 80.229 115.479 82.0038 115.482 60.097C115.483 38.1685 115.533 39.9611 114.888 38.5032C114.798 38.3014 114.561 37.7072 114.361 37.1846C113.65 35.3293 111.695 31.4399 110.315 29.14C103.636 18.0019 93.1253 9.37593 80.5575 4.71858L78.6217 4.00049L59.9272 4.0056L41.2313 4.00943L40.1529 4.38509ZM29.8288 9.45643C29.6384 9.62381 28.8845 10.0519 28.8845 9.9918C28.8845 9.95986 29.0979 9.80525 29.3598 9.64937C29.8416 9.35932 30.0204 9.28649 29.8288 9.45643ZM25.4206 12.316C25.4206 12.3428 25.257 12.4719 25.0577 12.6048L24.6948 12.845L25.0296 12.5562C25.3733 12.2611 25.4206 12.2317 25.4206 12.316ZM23.7442 13.5388C23.7442 13.5618 23.5065 13.7675 23.2139 13.995L22.6837 14.4089L23.1858 13.9528C23.6841 13.5017 23.7442 13.457 23.7442 13.5388ZM20.5038 16.2105C20.5038 16.2272 20.2151 16.5159 19.8624 16.852L19.2197 17.4627L19.8305 16.8213C20.3978 16.2233 20.5038 16.1275 20.5038 16.2105ZM100.844 17.6863C101.178 18.0249 101.426 18.3009 101.395 18.3009C101.364 18.3009 101.066 18.0249 100.733 17.6863C100.398 17.349 100.15 17.0717 100.181 17.0717C100.212 17.0717 100.511 17.349 100.844 17.6863ZM102.241 19.0829C102.544 19.3908 102.766 19.6426 102.735 19.6426C102.705 19.6426 102.431 19.3908 102.13 19.0829C101.827 18.7762 101.604 18.5245 101.635 18.5245C101.666 18.5245 101.938 18.7762 102.241 19.0829ZM17.2635 19.4496C17.2635 19.4675 16.9249 19.8061 16.5096 20.2048L15.7558 20.9267L16.479 20.1728C17.1498 19.4726 17.2635 19.3678 17.2635 19.4496ZM89.5387 19.7435C90.6785 20.2571 90.98 21.2934 90.4012 22.7015C90.2517 23.0618 88.9356 25.5764 87.4752 28.2877C84.5926 33.6376 84.3128 34.2215 84.3102 34.8949C84.3051 35.9861 83.6739 34.9946 93.4857 49.3091C101.256 60.6451 100.696 59.6575 100.589 61.813C100.486 63.9149 98.2657 76.7702 97.8709 77.5547C97.14 79.0075 97.0799 79.0254 88.9446 80.1511C83.9256 80.8462 83.78 80.9228 83.3085 83.0963C82.8319 85.2914 83.2395 84.9631 69.2227 94.4528C65.2873 97.1169 67.37 96.4589 51.3893 100.086C37.8172 103.168 37.7763 103.176 36.9956 103.001C35.3665 102.635 35.2106 102.379 33.096 96.5176C32.2641 94.2139 30.4012 89.0505 28.9548 85.0448C27.5084 81.0391 26.2422 77.4691 26.1399 77.1114C25.9253 76.3613 25.7004 64.3864 25.795 58.8065C25.8614 54.9145 25.9713 54.4903 27.373 52.773C28.9484 50.8411 28.951 50.8692 26.7149 46.0227C24.5849 41.4037 23.8681 39.3695 24.0087 38.3397C24.1735 37.1386 24.3882 36.9137 29.9566 32.0813C35.769 27.0368 36.022 26.849 38.0127 26.0926L38.6618 25.846L52.3502 25.7885L66.0373 25.7322L66.6775 25.4179C67.4773 25.0244 67.7367 24.7113 68.7781 22.8676C70.7879 19.3116 70.3458 19.4343 81.0111 19.4573L88.9446 19.4739L89.5387 19.7435ZM74.2557 23.3403C72.9908 23.5588 72.6049 23.9357 71.3361 26.1807C70.2002 28.1932 69.4348 28.9624 68.1609 29.3776C67.807 29.4926 64.7481 29.5361 53.5231 29.5833L39.3326 29.6421L38.6056 29.9871C37.7712 30.3832 37.5872 30.5314 33.0755 34.4451C27.1839 39.5535 27.4369 38.4227 30.6312 45.3698C33.4882 51.5834 33.4984 51.793 31.0656 54.5031C30.6516 54.9643 30.1802 55.593 30.0179 55.9009L29.7227 56.4593V66.0129C29.7227 74.9533 29.7355 75.6138 29.9284 76.2923C30.1086 76.9261 33.7233 87.0228 36.5318 94.739C38.1366 99.1447 38.221 99.1919 42.6841 98.1468C43.9133 97.8593 46.226 97.3277 47.8244 96.9661C65.1697 93.046 63.9214 93.3846 65.9261 92.0609C68.6222 90.2797 78.0046 83.8054 78.4237 83.4362C79.1137 82.8292 79.4561 82.0703 79.7308 80.5421C80.2636 77.5726 80.44 77.4653 86.0901 76.6808C95.5569 75.3647 94.3903 76.4227 95.8265 67.8567C97.0582 60.525 97.2908 61.6328 93.2838 55.7885C91.8093 53.638 88.3964 48.66 85.6991 44.7271C78.6907 34.5065 79.0293 35.9222 82.1841 30.0344C85.1816 24.4405 85.2519 24.144 83.748 23.4566C83.2893 23.247 75.3546 23.1499 74.2557 23.3403ZM103.637 99.6762C103.637 99.6915 102.745 100.585 101.654 101.659L99.6712 103.613L101.625 101.63C103.441 99.7874 103.637 99.5957 103.637 99.6762ZM18.3253 101.882C19.3079 102.864 20.086 103.669 20.0554 103.669C20.0247 103.669 19.1954 102.864 18.2141 101.882C17.2316 100.898 16.4534 100.094 16.4841 100.094C16.5148 100.094 17.344 100.898 18.3253 101.882ZM31.1193 111.553C31.1193 111.583 30.9685 111.53 30.7845 111.435C30.6005 111.339 30.4485 111.236 30.4485 111.205C30.4485 111.175 30.6005 111.228 30.7845 111.323C30.9685 111.419 31.1193 111.522 31.1193 111.553ZM32.636 112.358C32.5861 112.409 31.4553 111.845 31.4553 111.77C31.4553 111.741 31.7301 111.852 32.0661 112.017C32.4021 112.181 32.659 112.336 32.636 112.358Z" fill="#541BFC"/>
</g>
<path fill-rule="evenodd" clip-rule="evenodd" d="M29.3599 9.64949C29.098 9.80538 28.8846 9.95998 28.8846 9.99193C28.8846 10.052 29.6385 9.62394 29.8289 9.45656C30.0205 9.28662 29.8416 9.35945 29.3599 9.64949ZM25.0297 12.5563L24.6949 12.8451L25.0578 12.6049C25.2571 12.472 25.4207 12.343 25.4207 12.3161C25.4207 12.2318 25.3734 12.2612 25.0297 12.5563ZM23.1859 13.9529L22.6838 14.4091L23.214 13.9951C23.6791 13.6322 23.8171 13.4955 23.7174 13.4968C23.7021 13.4968 23.4632 13.7025 23.1859 13.9529ZM19.8306 16.8214L19.2198 17.4629L19.8625 16.8521C20.4592 16.2848 20.555 16.1787 20.472 16.1787C20.4554 16.1787 20.1666 16.4675 19.8306 16.8214ZM100.733 17.6865C101.067 18.0251 101.364 18.3011 101.395 18.3011C101.426 18.3011 101.178 18.0251 100.844 17.6865C100.511 17.3491 100.212 17.0719 100.181 17.0719C100.15 17.0719 100.398 17.3491 100.733 17.6865ZM102.13 19.083C102.431 19.391 102.705 19.6427 102.735 19.6427C102.766 19.6427 102.544 19.391 102.241 19.083C101.938 18.7764 101.666 18.5247 101.635 18.5247C101.604 18.5247 101.827 18.7764 102.13 19.083ZM16.4791 20.1729L15.7559 20.9268L16.5097 20.2049C16.925 19.8062 17.2636 19.4676 17.2636 19.4497C17.2636 19.368 17.1499 19.4727 16.4791 20.1729ZM72.4631 19.543C70.9362 19.7986 70.0712 20.5793 68.7781 22.8677C67.7368 24.7115 67.4774 25.0245 66.6775 25.4181L66.0374 25.7324L52.3503 25.7886L38.6619 25.8461L38.0128 26.0927C36.0221 26.8491 35.7691 27.0369 29.9566 32.0815C24.3883 36.9139 24.1736 37.1387 24.0088 38.3398C23.8682 39.3697 24.585 41.4038 26.715 46.0229C28.9511 50.8693 28.9485 50.8412 27.373 52.7731C25.9714 54.4904 25.8615 54.9146 25.795 58.8066C25.7005 64.3865 25.9254 76.3615 26.14 77.1115C26.2423 77.4692 27.5085 81.0393 28.9549 85.045C30.4013 89.0507 32.2642 94.214 33.096 96.5178C35.2107 102.379 35.3666 102.636 36.9957 103.001C37.7764 103.176 37.8173 103.168 51.3894 100.086C67.3701 96.459 65.2874 97.117 69.2228 94.4529C83.2396 84.9632 82.832 85.2916 83.3086 83.0964C83.7801 80.923 83.9257 80.8463 88.9447 80.1512C97.08 79.0255 97.1401 79.0076 97.8709 77.5549C98.2658 76.7703 100.486 63.915 100.589 61.8131C100.696 59.6576 101.256 60.6453 93.4857 49.3092C83.674 34.9947 84.3052 35.9862 84.3103 34.895C84.3129 34.2217 84.5927 33.6377 87.4753 28.2879C88.9357 25.5765 90.2518 23.0619 90.4013 22.7016C90.9801 21.2935 90.6786 20.2573 89.5388 19.7436L88.9447 19.474L81.0112 19.4574C76.6145 19.4485 72.803 19.4868 72.4631 19.543ZM83.7481 23.4567C85.252 24.1441 85.1817 24.4406 82.1842 30.0345C79.0294 35.9223 78.6908 34.5066 85.6992 44.7272C88.3965 48.6601 91.8094 53.6382 93.2839 55.7886C97.2908 61.633 97.0583 60.5252 95.8266 67.8568C94.6664 74.7783 94.6472 74.8409 93.4691 75.4261C92.8111 75.7532 93.036 75.7162 86.0902 76.6809C80.44 77.4654 80.2637 77.5727 79.7309 80.5422C79.4562 82.0704 79.1138 82.8294 78.4238 83.4363C78.0047 83.8055 68.6222 90.2798 65.9262 92.061C63.9215 93.3848 65.1698 93.0462 47.8245 96.9662C46.2261 97.3279 43.9134 97.8594 42.6842 98.1469C38.221 99.1921 38.1367 99.1448 36.5319 94.7392C33.7234 87.0229 30.1087 76.9262 29.9285 76.2924C29.7356 75.614 29.7228 74.9534 29.7228 66.0131V56.4594L30.018 55.901C30.1802 55.5931 30.6517 54.9645 31.0657 54.5032C33.4985 51.7931 33.4883 51.5836 30.6313 45.3699C27.4369 38.4229 27.1839 39.5537 33.0756 34.4453C37.5873 30.5316 37.7713 30.3833 38.6056 29.9872L39.3327 29.6423L53.5232 29.5835C64.7481 29.5362 67.8071 29.4928 68.161 29.3778C69.4349 28.9625 70.2003 28.1933 71.3362 26.1809C73.0522 23.1437 72.8362 23.2242 79.1112 23.2561C82.7323 23.2753 83.4146 23.3047 83.7481 23.4567ZM101.625 101.63L99.6713 103.613L101.654 101.659C102.746 100.585 103.637 99.6917 103.637 99.6763C103.637 99.5958 103.441 99.7875 101.625 101.63ZM18.2142 101.882C19.1955 102.864 20.0248 103.669 20.0554 103.669C20.0861 103.669 19.308 102.864 18.3254 101.882C17.3441 100.898 16.5148 100.094 16.4842 100.094C16.4535 100.094 17.2316 100.898 18.2142 101.882ZM30.4486 111.205C30.4486 111.236 30.6006 111.34 30.7846 111.435C30.9686 111.53 31.1194 111.584 31.1194 111.553C31.1194 111.522 30.9686 111.419 30.7846 111.323C30.6006 111.228 30.4486 111.175 30.4486 111.205ZM31.4554 111.77C31.4554 111.845 32.5862 112.409 32.636 112.358C32.659 112.336 32.4022 112.182 32.0662 112.017C31.7301 111.852 31.4554 111.741 31.4554 111.77Z" fill="#F7F5FC"/>
<path d="M22.5509 16.7268C22.2966 16.7268 22.0424 16.7396 21.7881 16.7651C21.5351 16.7894 21.2834 16.8265 21.0342 16.8763C20.7838 16.9261 20.5372 16.9875 20.2944 17.0616C20.0504 17.1357 19.8102 17.2213 19.5751 17.3197C19.34 17.4168 19.11 17.5254 18.8864 17.6455C18.6615 17.7656 18.443 17.8959 18.2309 18.0378C18.0201 18.1796 17.8156 18.3304 17.6188 18.4926C17.4221 18.6536 17.233 18.8249 17.0528 19.005C16.8726 19.1839 16.7027 19.373 16.5404 19.5698C16.3794 19.7665 16.2274 19.971 16.0868 20.1831C15.945 20.3939 15.8134 20.6124 15.6946 20.8373C15.5745 21.0622 15.4659 21.2909 15.3675 21.5273C15.2704 21.7624 15.1848 22.0013 15.1106 22.2454C15.0365 22.4894 14.9752 22.736 14.9254 22.9852C14.8755 23.2356 14.8385 23.486 14.8129 23.7403C14.7887 23.9933 14.7759 24.2476 14.7759 24.5018C14.7759 24.7561 14.7887 25.0104 14.8129 25.2646C14.8385 25.5176 14.8755 25.7694 14.9254 26.0185C14.9752 26.269 15.0365 26.5156 15.1106 26.7596C15.1848 27.0024 15.2704 27.2426 15.3675 27.4777C15.4659 27.7128 15.5745 27.9428 15.6946 28.1677C15.8134 28.3913 15.945 28.6098 16.0868 28.8219C16.2274 29.0327 16.3794 29.2371 16.5404 29.4339C16.7027 29.6307 16.8726 29.8198 17.0528 29.9999C17.233 30.1801 17.4221 30.35 17.6188 30.5123C17.8156 30.6733 18.0201 30.8254 18.2309 30.9672C18.443 31.1077 18.6615 31.2394 18.8864 31.3595C19.11 31.4783 19.34 31.5882 19.5751 31.6853C19.8102 31.7824 20.0504 31.868 20.2944 31.9421C20.5372 32.0162 20.7838 32.0775 21.0342 32.1274C21.2834 32.1772 21.5351 32.2143 21.7881 32.2398C22.0424 32.2641 22.2966 32.2769 22.5509 32.2769C22.8052 32.2769 23.0595 32.2641 23.3124 32.2398C23.5667 32.2143 23.8184 32.1772 24.0676 32.1274C24.3167 32.0775 24.5646 32.0162 24.8074 31.9421C25.0514 31.868 25.2904 31.7824 25.5255 31.6853C25.7619 31.5882 25.9919 31.4783 26.2155 31.3595C26.4403 31.2394 26.6588 31.1077 26.8697 30.9672C27.0818 30.8254 27.2862 30.6733 27.483 30.5123C27.6798 30.35 27.8689 30.1801 28.049 29.9999C28.2279 29.8198 28.3991 29.6307 28.5614 29.4339C28.7224 29.2371 28.8744 29.0327 29.015 28.8219C29.1568 28.6098 29.2871 28.3913 29.4073 28.1677C29.5274 27.9428 29.636 27.7128 29.7344 27.4777C29.8315 27.2426 29.9171 27.0024 29.9912 26.7596C30.0653 26.5156 30.1266 26.269 30.1764 26.0185C30.2263 25.7694 30.2633 25.5176 30.2876 25.2646C30.3132 25.0104 30.3259 24.7561 30.3259 24.5018C30.3259 24.2476 30.3132 23.9933 30.2876 23.7403C30.2633 23.486 30.2263 23.2356 30.1764 22.9852C30.1266 22.736 30.0653 22.4894 29.9912 22.2454C29.9171 22.0013 29.8315 21.7624 29.7344 21.5273C29.636 21.2909 29.5274 21.0622 29.4073 20.8373C29.2871 20.6124 29.1568 20.3939 29.015 20.1831C28.8744 19.971 28.7224 19.7665 28.5614 19.5698C28.3991 19.373 28.2279 19.1839 28.049 19.005C27.8689 18.8249 27.6798 18.6536 27.483 18.4926C27.2862 18.3304 27.0818 18.1796 26.8697 18.0378C26.6588 17.8959 26.4403 17.7656 26.2155 17.6455C25.9919 17.5254 25.7619 17.4168 25.5255 17.3197C25.2904 17.2213 25.0514 17.1357 24.8074 17.0616C24.5646 16.9875 24.3167 16.9261 24.0676 16.8763C23.8184 16.8265 23.5667 16.7894 23.3124 16.7651C23.0595 16.7396 22.8052 16.7268 22.5509 16.7268Z" fill="#571AFF"/>
<path d="M25.9674 12.7109C25.7131 12.7109 25.4589 12.7224 25.2059 12.748C24.9529 12.7723 24.7012 12.8106 24.4507 12.8592C24.2016 12.909 23.955 12.9716 23.7109 13.0457C23.4669 13.1185 23.2279 13.2041 22.9928 13.3025C22.7577 13.3996 22.5277 13.5082 22.3029 13.6284C22.078 13.7485 21.8595 13.8788 21.6487 14.0206C21.4366 14.1624 21.2321 14.3132 21.0353 14.4755C20.8386 14.6365 20.6507 14.8077 20.4706 14.9879C20.2904 15.168 20.1192 15.3559 19.9582 15.5526C19.7959 15.7494 19.6452 15.9538 19.5033 16.1659C19.3615 16.378 19.2312 16.5953 19.1111 16.8201C18.991 17.045 18.8824 17.275 18.7853 17.5101C18.6869 17.7452 18.6013 17.9842 18.5272 18.2282C18.4543 18.4723 18.3917 18.7189 18.3419 18.968C18.2933 19.2185 18.255 19.4702 18.2307 19.7232C18.2052 19.9762 18.1924 20.2304 18.1924 20.4847C18.1924 20.7402 18.2052 20.9945 18.2307 21.2475C18.255 21.5005 18.2933 21.7522 18.3419 22.0026C18.3917 22.2518 18.4543 22.4984 18.5272 22.7425C18.6013 22.9852 18.6869 23.2254 18.7853 23.4605C18.8824 23.6956 18.991 23.9256 19.1111 24.1505C19.2312 24.3754 19.3615 24.5926 19.5033 24.8047C19.6452 25.0168 19.7959 25.2213 19.9582 25.418C20.1192 25.6148 20.2904 25.8026 20.4706 25.9828C20.6507 26.163 20.8386 26.3342 21.0353 26.4952C21.2321 26.6562 21.4366 26.8082 21.6487 26.95C21.8595 27.0919 22.078 27.2222 22.3029 27.3423C22.5277 27.4624 22.7577 27.571 22.9928 27.6681C23.2279 27.7652 23.4669 27.8508 23.7109 27.925C23.955 27.9991 24.2016 28.0604 24.4507 28.1102C24.7012 28.1601 24.9529 28.1971 25.2059 28.2227C25.4589 28.2482 25.7131 28.2597 25.9674 28.2597C26.223 28.2597 26.476 28.2482 26.7302 28.2227C26.9832 28.1971 27.2349 28.1601 27.4841 28.1102C27.7345 28.0604 27.9811 27.9991 28.2252 27.925C28.4679 27.8508 28.7082 27.7652 28.9433 27.6681C29.1784 27.571 29.4084 27.4624 29.6332 27.3423C29.8568 27.2222 30.0753 27.0919 30.2874 26.95C30.4996 26.8082 30.7027 26.6562 30.9008 26.4952C31.0975 26.3342 31.2854 26.163 31.4655 25.9828C31.6457 25.8026 31.8169 25.6148 31.9779 25.418C32.1389 25.2213 32.2909 25.0168 32.4328 24.8047C32.5733 24.5926 32.7049 24.3754 32.825 24.1505C32.9451 23.9256 33.0537 23.6956 33.1509 23.4605C33.248 23.2254 33.3336 22.9852 33.4077 22.7425C33.4818 22.4984 33.5431 22.2518 33.593 22.0026C33.6428 21.7522 33.6798 21.5005 33.7054 21.2475C33.7297 20.9945 33.7424 20.7402 33.7424 20.4847C33.7424 20.2304 33.7297 19.9762 33.7054 19.7232C33.6798 19.4702 33.6428 19.2185 33.593 18.968C33.5431 18.7189 33.4818 18.4723 33.4077 18.2282C33.3336 17.9842 33.248 17.7452 33.1509 17.5101C33.0537 17.275 32.9451 17.045 32.825 16.8201C32.7049 16.5953 32.5733 16.378 32.4328 16.1659C32.2909 15.9538 32.1389 15.7494 31.9779 15.5526C31.8169 15.3559 31.6457 15.168 31.4655 14.9879C31.2854 14.8077 31.0975 14.6365 30.9008 14.4755C30.7027 14.3132 30.4996 14.1624 30.2874 14.0206C30.0753 13.8788 29.8568 13.7485 29.6332 13.6284C29.4084 13.5082 29.1784 13.3996 28.9433 13.3025C28.7082 13.2041 28.4679 13.1185 28.2252 13.0457C27.9811 12.9716 27.7345 12.909 27.4841 12.8592C27.2349 12.8106 26.9832 12.7723 26.7302 12.748C26.476 12.7224 26.223 12.7109 25.9674 12.7109Z" fill="#571AFF"/>
<path d="M30.0805 10.6895C29.8249 10.6895 29.5719 10.7022 29.3176 10.7265C29.0647 10.7521 28.8129 10.7891 28.5638 10.8389C28.3133 10.8888 28.0667 10.9501 27.8227 11.0242C27.5799 11.0983 27.3397 11.1839 27.1046 11.281C26.8695 11.3782 26.6395 11.488 26.4146 11.6069C26.191 11.727 25.9725 11.8586 25.7604 11.9991C25.5483 12.141 25.3452 12.293 25.1484 12.454C24.9516 12.6163 24.7625 12.7862 24.5823 12.9664C24.4022 13.1465 24.2322 13.3356 24.07 13.5324C23.909 13.7292 23.7569 13.9336 23.6151 14.1445C23.4745 14.3566 23.3429 14.5751 23.2228 14.7987C23.1027 15.0235 22.9941 15.2535 22.897 15.4886C22.7999 15.7237 22.7143 15.964 22.6402 16.208C22.5661 16.4508 22.5047 16.6974 22.4549 16.9478C22.4051 17.197 22.368 17.4487 22.3425 17.7017C22.3182 17.9559 22.3054 18.2102 22.3054 18.4645C22.3054 18.7188 22.3182 18.973 22.3425 19.226C22.368 19.4803 22.4051 19.7307 22.4549 19.9812C22.5047 20.2303 22.5661 20.4769 22.6402 20.721C22.7143 20.965 22.7999 21.204 22.897 21.4391C22.9941 21.6754 23.1027 21.9042 23.2228 22.129C23.3429 22.3539 23.4745 22.5724 23.6151 22.7832C23.7569 22.9953 23.909 23.1998 24.07 23.3966C24.2322 23.5933 24.4022 23.7824 24.5823 23.9613C24.7625 24.1415 24.9516 24.3127 25.1484 24.4737C25.3452 24.636 25.5483 24.7867 25.7604 24.9286C25.9725 25.0704 26.191 25.2007 26.4146 25.3208C26.6395 25.4409 26.8695 25.5495 27.1046 25.6479C27.3397 25.745 27.5799 25.8306 27.8227 25.9048C28.0667 25.9789 28.3133 26.0402 28.5638 26.09C28.8129 26.1399 29.0647 26.1769 29.3176 26.2012C29.5719 26.2267 29.8249 26.2395 30.0805 26.2395C30.3347 26.2395 30.589 26.2267 30.842 26.2012C31.0963 26.1769 31.3467 26.1399 31.5971 26.09C31.8463 26.0402 32.0929 25.9789 32.3369 25.9048C32.581 25.8306 32.8199 25.745 33.055 25.6479C33.2901 25.5495 33.5201 25.4409 33.745 25.3208C33.9699 25.2007 34.1884 25.0704 34.3992 24.9286C34.6113 24.7867 34.8157 24.636 35.0125 24.4737C35.2093 24.3127 35.3971 24.1415 35.5773 23.9613C35.7574 23.7824 35.9287 23.5933 36.0897 23.3966C36.2519 23.1998 36.4027 22.9953 36.5445 22.7832C36.6864 22.5724 36.8167 22.3539 36.9368 22.129C37.0569 21.9042 37.1655 21.6754 37.2626 21.4391C37.361 21.204 37.4466 20.965 37.5207 20.721C37.5935 20.4769 37.6562 20.2303 37.706 19.9812C37.7558 19.7307 37.7929 19.4803 37.8172 19.226C37.8427 18.973 37.8555 18.7188 37.8555 18.4645C37.8555 18.2102 37.8427 17.9559 37.8172 17.7017C37.7929 17.4487 37.7558 17.197 37.706 16.9478C37.6562 16.6974 37.5935 16.4508 37.5207 16.208C37.4466 15.964 37.361 15.7237 37.2626 15.4886C37.1655 15.2535 37.0569 15.0235 36.9368 14.7987C36.8167 14.5751 36.6864 14.3566 36.5445 14.1445C36.4027 13.9336 36.2519 13.7292 36.0897 13.5324C35.9287 13.3356 35.7574 13.1465 35.5773 12.9664C35.3971 12.7862 35.2093 12.6163 35.0125 12.454C34.8157 12.293 34.6113 12.141 34.3992 11.9991C34.1884 11.8586 33.9699 11.727 33.745 11.6069C33.5201 11.488 33.2901 11.3782 33.055 11.281C32.8199 11.1839 32.581 11.0983 32.3369 11.0242C32.0929 10.9501 31.8463 10.8888 31.5971 10.8389C31.3467 10.7891 31.0963 10.7521 30.842 10.7265C30.589 10.7022 30.3347 10.6895 30.0805 10.6895Z" fill="#571AFF"/>
<path d="M33.7426 7.26147C33.4883 7.26147 33.234 7.27425 32.981 7.29853C32.7268 7.32408 32.4763 7.36114 32.2259 7.41097C31.9767 7.4608 31.7301 7.52213 31.4861 7.59624C31.242 7.67035 31.0031 7.75596 30.768 7.85307C30.5316 7.95018 30.3029 8.05878 30.078 8.17889C29.8531 8.299 29.6346 8.4306 29.4238 8.57116C29.2117 8.71298 29.0073 8.86504 28.8105 9.02603C28.6137 9.18703 28.4246 9.35824 28.2457 9.5384C28.0656 9.71856 27.8944 9.90639 27.7334 10.1044C27.5711 10.3012 27.4203 10.5044 27.2785 10.7165C27.1367 10.9286 27.0063 11.1471 26.8862 11.3707C26.7661 11.5956 26.6575 11.8256 26.5604 12.0607C26.462 12.2958 26.3764 12.536 26.3023 12.7787C26.2282 13.0228 26.1669 13.2694 26.117 13.5198C26.0672 13.769 26.0301 14.0207 26.0059 14.2737C25.9803 14.528 25.9675 14.781 25.9675 15.0365C25.9675 15.2908 25.9803 15.545 26.0059 15.798C26.0301 16.051 26.0672 16.3027 26.117 16.5532C26.1669 16.8023 26.2282 17.0489 26.3023 17.293C26.3764 17.537 26.462 17.776 26.5604 18.0111C26.6575 18.2462 26.7661 18.4762 26.8862 18.7011C27.0063 18.9259 27.1367 19.1444 27.2785 19.3553C27.4203 19.5674 27.5711 19.7718 27.7334 19.9686C27.8944 20.1653 28.0656 20.3532 28.2457 20.5333C28.4246 20.7135 28.6137 20.8847 28.8105 21.0457C29.0073 21.208 29.2117 21.3588 29.4238 21.5006C29.6346 21.6424 29.8531 21.7727 30.078 21.8928C30.3029 22.013 30.5316 22.1216 30.768 22.2187C31.0031 22.3171 31.242 22.4027 31.4861 22.4768C31.7301 22.5496 31.9767 22.6122 32.2259 22.662C32.4763 22.7119 32.7268 22.7489 32.981 22.7732C33.234 22.7988 33.4883 22.8115 33.7426 22.8115C33.9968 22.8115 34.2511 22.7988 34.5054 22.7732C34.7584 22.7489 35.0101 22.7119 35.2592 22.662C35.5097 22.6122 35.7563 22.5496 36.0003 22.4768C36.2431 22.4027 36.4833 22.3171 36.7184 22.2187C36.9535 22.1216 37.1835 22.013 37.4084 21.8928C37.632 21.7727 37.8505 21.6424 38.0626 21.5006C38.2734 21.3588 38.4779 21.208 38.6746 21.0457C38.8714 20.8847 39.0605 20.7135 39.2407 20.5333C39.4208 20.3532 39.5908 20.1653 39.753 19.9686C39.914 19.7718 40.0661 19.5674 40.2079 19.3553C40.3485 19.1444 40.4801 18.9259 40.6002 18.7011C40.719 18.4762 40.8289 18.2462 40.926 18.0111C41.0231 17.776 41.1087 17.537 41.1828 17.293C41.2569 17.0489 41.3183 16.8023 41.3681 16.5532C41.4179 16.3027 41.455 16.051 41.4805 15.798C41.5048 15.545 41.5176 15.2908 41.5176 15.0365C41.5176 14.781 41.5048 14.528 41.4805 14.2737C41.455 14.0207 41.4179 13.769 41.3681 13.5198C41.3183 13.2694 41.2569 13.0228 41.1828 12.7787C41.1087 12.536 41.0231 12.2958 40.926 12.0607C40.8289 11.8256 40.719 11.5956 40.6002 11.3707C40.4801 11.1471 40.3485 10.9286 40.2079 10.7165C40.0661 10.5044 39.914 10.3012 39.753 10.1044C39.5908 9.90639 39.4208 9.71856 39.2407 9.5384C39.0605 9.35824 38.8714 9.18703 38.6746 9.02603C38.4779 8.86504 38.2734 8.71298 38.0626 8.57116C37.8505 8.4306 37.632 8.299 37.4084 8.17889C37.1835 8.05878 36.9535 7.95018 36.7184 7.85307C36.4833 7.75596 36.2431 7.67035 36.0003 7.59624C35.7563 7.52213 35.5097 7.4608 35.2592 7.41097C35.0101 7.36114 34.7584 7.32408 34.5054 7.29853C34.2511 7.27425 33.9968 7.26147 33.7426 7.26147Z" fill="#571AFF"/>
<path d="M99.477 16.7268C99.1831 16.7268 98.8931 16.7562 98.6056 16.8124C98.3181 16.8699 98.0395 16.9542 97.7687 17.0667C97.4978 17.1791 97.241 17.3158 96.9982 17.4794C96.7541 17.6417 96.5293 17.8269 96.321 18.0339C96.114 18.2409 95.93 18.4671 95.7664 18.7099C95.6042 18.9539 95.4662 19.2107 95.3537 19.4816C95.2426 19.7525 95.157 20.031 95.1007 20.3185C95.0432 20.606 95.0151 20.8961 95.0151 21.1887C95.0151 21.4813 95.0432 21.7726 95.1007 22.0588C95.157 22.3463 95.2426 22.6261 95.3537 22.8957C95.4662 23.1666 95.6042 23.4247 95.7664 23.6675C95.93 23.9115 96.114 24.1364 96.321 24.3434C96.5293 24.5504 96.7541 24.7357 96.9982 24.8992C97.241 25.0615 97.4978 25.1995 97.7687 25.3106C98.0395 25.4231 98.3181 25.5074 98.6056 25.5649C98.8931 25.6224 99.1831 25.6505 99.477 25.6505C99.7696 25.6505 100.06 25.6224 100.347 25.5649C100.635 25.5074 100.913 25.4231 101.184 25.3106C101.455 25.1995 101.712 25.0615 101.955 24.8992C102.199 24.7357 102.425 24.5504 102.632 24.3434C102.839 24.1364 103.024 23.9115 103.186 23.6675C103.349 23.4247 103.487 23.1666 103.599 22.8957C103.71 22.6261 103.796 22.3463 103.852 22.0588C103.909 21.7726 103.938 21.4813 103.938 21.1887C103.938 20.8961 103.909 20.606 103.852 20.3185C103.796 20.031 103.71 19.7525 103.599 19.4816C103.487 19.2107 103.349 18.9539 103.186 18.7099C103.024 18.4671 102.839 18.2409 102.632 18.0339C102.425 17.8269 102.199 17.6417 101.955 17.4794C101.712 17.3158 101.455 17.1791 101.184 17.0667C100.913 16.9542 100.635 16.8699 100.347 16.8124C100.06 16.7562 99.7696 16.7268 99.477 16.7268Z" fill="#571AFF"/>
<path d="M96.4091 88.5574C96.1535 88.5574 95.8992 88.5689 95.6463 88.5944C95.3933 88.6187 95.1416 88.657 94.8911 88.7056C94.642 88.7554 94.3954 88.818 94.1513 88.8921C93.9073 88.965 93.6683 89.0506 93.4332 89.149C93.1981 89.2461 92.9681 89.3547 92.7432 89.4748C92.5184 89.5949 92.3011 89.7252 92.089 89.8671C91.8769 90.0089 91.6725 90.1597 91.4757 90.3219C91.279 90.4829 91.0911 90.6541 90.911 90.8343C90.7308 91.0145 90.5596 91.2023 90.3986 91.3991C90.2363 91.5958 90.0855 91.8003 89.9437 92.0124C89.8019 92.2245 89.6716 92.4417 89.5514 92.6666C89.4313 92.8915 89.3227 93.1215 89.2256 93.3566C89.1285 93.5917 89.0429 93.8306 88.9688 94.0746C88.8947 94.3187 88.8321 94.5653 88.7835 94.8145C88.7337 95.0649 88.6966 95.3166 88.6711 95.5696C88.6455 95.8226 88.634 96.0769 88.634 96.3311C88.634 96.5867 88.6455 96.8409 88.6711 97.0939C88.6966 97.3469 88.7337 97.5986 88.7835 97.8491C88.8321 98.0982 88.8947 98.3448 88.9688 98.5889C89.0429 98.8317 89.1285 99.0719 89.2256 99.307C89.3227 99.5421 89.4313 99.7721 89.5514 99.997C89.6716 100.222 89.8019 100.439 89.9437 100.651C90.0855 100.863 90.2363 101.068 90.3986 101.264C90.5596 101.461 90.7308 101.649 90.911 101.829C91.0911 102.009 91.279 102.181 91.4757 102.342C91.6725 102.503 91.8769 102.655 92.089 102.796C92.3011 102.938 92.5184 103.069 92.7432 103.189C92.9681 103.309 93.1981 103.417 93.4332 103.515C93.6683 103.612 93.9073 103.697 94.1513 103.771C94.3954 103.846 94.642 103.907 94.8911 103.957C95.1416 104.006 95.3933 104.044 95.6463 104.069C95.8992 104.095 96.1535 104.106 96.4091 104.106C96.6633 104.106 96.9176 104.095 97.1706 104.069C97.4236 104.044 97.6753 104.006 97.9257 103.957C98.1749 103.907 98.4215 103.846 98.6656 103.771C98.9096 103.697 99.1485 103.612 99.3836 103.515C99.6187 103.417 99.8487 103.309 100.074 103.189C100.299 103.069 100.516 102.938 100.728 102.796C100.94 102.655 101.144 102.503 101.341 102.342C101.538 102.181 101.726 102.009 101.906 101.829C102.086 101.649 102.257 101.461 102.418 101.264C102.581 101.068 102.731 100.863 102.873 100.651C103.015 100.439 103.145 100.222 103.265 99.997C103.386 99.7721 103.494 99.5421 103.591 99.307C103.688 99.0719 103.775 98.8317 103.848 98.5889C103.922 98.3448 103.985 98.0982 104.033 97.8491C104.083 97.5986 104.121 97.3469 104.146 97.0939C104.171 96.8409 104.183 96.5867 104.183 96.3311C104.183 96.0769 104.171 95.8226 104.146 95.5696C104.121 95.3166 104.083 95.0649 104.033 94.8145C103.985 94.5653 103.922 94.3187 103.848 94.0746C103.775 93.8306 103.688 93.5917 103.591 93.3566C103.494 93.1215 103.386 92.8915 103.265 92.6666C103.145 92.4417 103.015 92.2245 102.873 92.0124C102.731 91.8003 102.581 91.5958 102.418 91.3991C102.257 91.2023 102.086 91.0145 101.906 90.8343C101.726 90.6541 101.538 90.4829 101.341 90.3219C101.144 90.1597 100.94 90.0089 100.728 89.8671C100.516 89.7252 100.299 89.5949 100.074 89.4748C99.8487 89.3547 99.6187 89.2461 99.3836 89.149C99.1485 89.0506 98.9096 88.965 98.6656 88.8921C98.4215 88.818 98.1749 88.7554 97.9257 88.7056C97.6753 88.657 97.4236 88.6187 97.1706 88.5944C96.9176 88.5689 96.6633 88.5574 96.4091 88.5574Z" fill="#571AFF"/>
<path d="M98.1264 86.5464C97.8708 86.5464 97.6165 86.5592 97.3635 86.5834C97.1106 86.609 96.8588 86.6461 96.6084 86.6959C96.3592 86.7457 96.1126 86.807 95.8686 86.8812C95.6245 86.9553 95.3856 87.0409 95.1505 87.138C94.9154 87.2351 94.6854 87.3437 94.4605 87.4638C94.2356 87.5839 94.0184 87.7155 93.8063 87.8561C93.5942 87.9979 93.3898 88.1499 93.193 88.3109C92.9962 88.4719 92.8084 88.6432 92.6282 88.8233C92.4481 89.0035 92.2769 89.1913 92.1159 89.3881C91.9536 89.5848 91.8028 89.7893 91.661 90.0014C91.5192 90.2135 91.3888 90.4307 91.2687 90.6556C91.1486 90.8805 91.04 91.1105 90.9429 91.3456C90.8458 91.5807 90.7602 91.8209 90.6861 92.0637C90.612 92.3077 90.5494 92.5543 90.5008 92.8047C90.451 93.0539 90.4139 93.3056 90.3884 93.5586C90.3628 93.8129 90.3513 94.0659 90.3513 94.3214C90.3513 94.5757 90.3628 94.83 90.3884 95.083C90.4139 95.3359 90.451 95.5877 90.5008 95.8381C90.5494 96.0873 90.612 96.3339 90.6861 96.5779C90.7602 96.822 90.8458 97.0609 90.9429 97.296C91.04 97.5311 91.1486 97.7611 91.2687 97.986C91.3888 98.2109 91.5192 98.4281 91.661 98.6402C91.8028 98.8523 91.9536 99.0567 92.1159 99.2535C92.2769 99.4503 92.4481 99.6381 92.6282 99.8182C92.8084 99.9984 92.9962 100.17 93.193 100.331C93.3898 100.493 93.5942 100.644 93.8063 100.785C94.0184 100.927 94.2356 101.058 94.4605 101.178C94.6854 101.298 94.9154 101.406 95.1505 101.504C95.3856 101.602 95.6245 101.688 95.8686 101.76C96.1126 101.835 96.3592 101.897 96.6084 101.947C96.8588 101.996 97.1106 102.034 97.3635 102.058C97.6165 102.084 97.8708 102.095 98.1264 102.095C98.3806 102.095 98.6349 102.084 98.8879 102.058C99.1409 102.034 99.3926 101.996 99.643 101.947C99.8922 101.897 100.139 101.835 100.383 101.76C100.627 101.688 100.866 101.602 101.101 101.504C101.336 101.406 101.566 101.298 101.791 101.178C102.016 101.058 102.233 100.927 102.445 100.785C102.657 100.644 102.862 100.493 103.058 100.331C103.255 100.17 103.443 99.9984 103.623 99.8182C103.803 99.6381 103.975 99.4503 104.136 99.2535C104.298 99.0567 104.449 98.8523 104.59 98.6402C104.732 98.4281 104.863 98.2109 104.983 97.986C105.103 97.7611 105.211 97.5311 105.309 97.296C105.406 97.0609 105.493 96.822 105.565 96.5779C105.639 96.3339 105.702 96.0873 105.751 95.8381C105.8 95.5877 105.839 95.3359 105.863 95.083C105.889 94.83 105.9 94.5757 105.9 94.3214C105.9 94.0659 105.889 93.8129 105.863 93.5586C105.839 93.3056 105.8 93.0539 105.751 92.8047C105.702 92.5543 105.639 92.3077 105.565 92.0637C105.493 91.8209 105.406 91.5807 105.309 91.3456C105.211 91.1105 105.103 90.8805 104.983 90.6556C104.863 90.4307 104.732 90.2135 104.59 90.0014C104.449 89.7893 104.298 89.5848 104.136 89.3881C103.975 89.1913 103.803 89.0035 103.623 88.8233C103.443 88.6432 103.255 88.4719 103.058 88.3109C102.862 88.1499 102.657 87.9979 102.445 87.8561C102.233 87.7155 102.016 87.5839 101.791 87.4638C101.566 87.3437 101.336 87.2351 101.101 87.138C100.866 87.0409 100.627 86.9553 100.383 86.8812C100.139 86.807 99.8922 86.7457 99.643 86.6959C99.3926 86.6461 99.1409 86.609 98.8879 86.5834C98.6349 86.5592 98.3806 86.5464 98.1264 86.5464Z" fill="#571AFF"/>
<path d="M22.5508 93.0308C22.3655 93.0308 22.1802 93.0397 21.9962 93.0576C21.8109 93.0768 21.6282 93.1036 21.4468 93.1394C21.2641 93.1764 21.0852 93.2211 20.9076 93.2748C20.73 93.3285 20.5562 93.3911 20.385 93.4614C20.2138 93.5329 20.0464 93.6121 19.8828 93.699C19.7193 93.7872 19.5596 93.8817 19.4062 93.9852C19.2516 94.0875 19.1034 94.1986 18.9603 94.3162C18.8159 94.4337 18.6792 94.5577 18.5476 94.6893C18.4173 94.8196 18.2921 94.9576 18.1745 95.1007C18.057 95.2438 17.9471 95.392 17.8436 95.5466C17.7414 95.7012 17.6455 95.8597 17.5586 96.0232C17.4718 96.1868 17.3925 96.3542 17.321 96.5254C17.2507 96.6966 17.1881 96.8704 17.1344 97.048C17.0795 97.2256 17.0348 97.4057 16.999 97.5872C16.9632 97.7686 16.9351 97.9526 16.9172 98.1366C16.8993 98.3206 16.8904 98.5059 16.8904 98.6911C16.8904 98.8764 16.8993 99.0617 16.9172 99.2457C16.9351 99.4309 16.9632 99.6137 16.999 99.7951C17.0348 99.9778 17.0795 100.157 17.1344 100.334C17.1881 100.512 17.2507 100.686 17.321 100.858C17.3925 101.029 17.4718 101.197 17.5586 101.36C17.6455 101.523 17.7414 101.682 17.8436 101.836C17.9471 101.99 18.057 102.138 18.1745 102.283C18.2921 102.426 18.4173 102.563 18.5476 102.694C18.6792 102.825 18.8159 102.95 18.9603 103.067C19.1034 103.185 19.2516 103.295 19.4062 103.398C19.5596 103.501 19.7193 103.596 19.8828 103.683C20.0464 103.771 20.2138 103.851 20.385 103.921C20.5562 103.992 20.73 104.054 20.9076 104.109C21.0852 104.162 21.2641 104.207 21.4468 104.243C21.6282 104.279 21.8109 104.307 21.9962 104.325C22.1802 104.343 22.3655 104.352 22.5508 104.352C22.736 104.352 22.9213 104.343 23.1053 104.325C23.2906 104.307 23.4733 104.279 23.6547 104.243C23.8362 104.207 24.0163 104.162 24.1939 104.109C24.3715 104.054 24.5453 103.992 24.7165 103.921C24.8877 103.851 25.0551 103.771 25.2187 103.683C25.3822 103.596 25.5407 103.501 25.6953 103.398C25.8499 103.295 25.9981 103.185 26.1412 103.067C26.2843 102.95 26.4223 102.825 26.5526 102.694C26.6842 102.563 26.8082 102.426 26.9257 102.283C27.0433 102.138 27.1544 101.99 27.2567 101.836C27.3602 101.682 27.4547 101.523 27.5429 101.36C27.6298 101.197 27.709 101.029 27.7805 100.858C27.8508 100.686 27.9134 100.512 27.9671 100.334C28.0208 100.157 28.0668 99.9778 28.1025 99.7951C28.1383 99.6137 28.1651 99.4309 28.1843 99.2457C28.2022 99.0617 28.2111 98.8764 28.2111 98.6911C28.2111 98.5059 28.2022 98.3206 28.1843 98.1366C28.1651 97.9526 28.1383 97.7686 28.1025 97.5872C28.0668 97.4057 28.0208 97.2256 27.9671 97.048C27.9134 96.8704 27.8508 96.6966 27.7805 96.5254C27.709 96.3542 27.6298 96.1868 27.5429 96.0232C27.4547 95.8597 27.3602 95.7012 27.2567 95.5466C27.1544 95.392 27.0433 95.2438 26.9257 95.1007C26.8082 94.9576 26.6842 94.8196 26.5526 94.6893C26.4223 94.5577 26.2843 94.4337 26.1412 94.3162C25.9981 94.1986 25.8499 94.0875 25.6953 93.9852C25.5407 93.8817 25.3822 93.7872 25.2187 93.699C25.0551 93.6121 24.8877 93.5329 24.7165 93.4614C24.5453 93.3911 24.3715 93.3285 24.1939 93.2748C24.0163 93.2211 23.8362 93.1764 23.6547 93.1394C23.4733 93.1036 23.2906 93.0768 23.1053 93.0576C22.9213 93.0397 22.736 93.0308 22.5508 93.0308Z" fill="#571AFF"/>
<path d="M22.3056 87.2822C22.0513 87.2822 21.797 87.295 21.5427 87.3193C21.2897 87.3448 21.038 87.3819 20.7889 87.4317C20.5384 87.4816 20.2918 87.5429 20.0491 87.617C19.805 87.6911 19.5648 87.7767 19.3297 87.8738C19.0946 87.9709 18.8646 88.0795 18.641 88.1996C18.4161 88.3197 18.1976 88.4514 17.9855 88.5919C17.7747 88.7337 17.5703 88.8858 17.3735 89.0468C17.1767 89.2078 16.9876 89.379 16.8074 89.5592C16.6273 89.7393 16.4573 89.9271 16.2951 90.1239C16.1341 90.3207 15.982 90.5251 15.8415 90.7372C15.6996 90.9493 15.568 91.1665 15.4492 91.3914C15.3291 91.6163 15.2205 91.8463 15.1221 92.0814C15.025 92.3165 14.9394 92.5567 14.8653 92.7995C14.7912 93.0435 14.7298 93.2901 14.68 93.5406C14.6302 93.7897 14.5931 94.0415 14.5676 94.2945C14.5433 94.5487 14.5305 94.8017 14.5305 95.0573C14.5305 95.3115 14.5433 95.5658 14.5676 95.8188C14.5931 96.0718 14.6302 96.3235 14.68 96.5739C14.7298 96.8231 14.7912 97.0697 14.8653 97.3137C14.9394 97.5578 15.025 97.7967 15.1221 98.0318C15.2205 98.2669 15.3291 98.4969 15.4492 98.7218C15.568 98.9467 15.6996 99.1639 15.8415 99.376C15.982 99.5881 16.1341 99.7926 16.2951 99.9893C16.4573 100.186 16.6273 100.374 16.8074 100.554C16.9876 100.734 17.1767 100.905 17.3735 101.066C17.5703 101.229 17.7747 101.38 17.9855 101.521C18.1976 101.663 18.4161 101.793 18.641 101.914C18.8646 102.034 19.0946 102.142 19.3297 102.239C19.5648 102.338 19.805 102.423 20.0491 102.496C20.2918 102.57 20.5384 102.633 20.7889 102.683C21.038 102.731 21.2897 102.77 21.5427 102.794C21.797 102.82 22.0513 102.831 22.3056 102.831C22.5598 102.831 22.8141 102.82 23.0671 102.794C23.3214 102.77 23.5731 102.731 23.8222 102.683C24.0714 102.633 24.3193 102.57 24.562 102.496C24.8061 102.423 25.045 102.338 25.2801 102.239C25.5165 102.142 25.7465 102.034 25.9701 101.914C26.195 101.793 26.4135 101.663 26.6243 101.521C26.8364 101.38 27.0408 101.229 27.2376 101.066C27.4344 100.905 27.6235 100.734 27.8037 100.554C27.9825 100.374 28.1538 100.186 28.316 99.9893C28.477 99.7926 28.6291 99.5881 28.7696 99.376C28.9115 99.1639 29.0418 98.9467 29.1619 98.7218C29.282 98.4969 29.3906 98.2669 29.489 98.0318C29.5861 97.7967 29.6717 97.5578 29.7458 97.3137C29.8199 97.0697 29.8813 96.8231 29.9311 96.5739C29.9809 96.3235 30.018 96.0718 30.0423 95.8188C30.0678 95.5658 30.0806 95.3115 30.0806 95.0573C30.0806 94.8017 30.0678 94.5487 30.0423 94.2945C30.018 94.0415 29.9809 93.7897 29.9311 93.5406C29.8813 93.2901 29.8199 93.0435 29.7458 92.7995C29.6717 92.5567 29.5861 92.3165 29.489 92.0814C29.3906 91.8463 29.282 91.6163 29.1619 91.3914C29.0418 91.1665 28.9115 90.9493 28.7696 90.7372C28.6291 90.5251 28.477 90.3207 28.316 90.1239C28.1538 89.9271 27.9825 89.7393 27.8037 89.5592C27.6235 89.379 27.4344 89.2078 27.2376 89.0468C27.0408 88.8858 26.8364 88.7337 26.6243 88.5919C26.4135 88.4514 26.195 88.3197 25.9701 88.1996C25.7465 88.0795 25.5165 87.9709 25.2801 87.8738C25.045 87.7767 24.8061 87.6911 24.562 87.617C24.3193 87.5429 24.0714 87.4816 23.8222 87.4317C23.5731 87.3819 23.3214 87.3448 23.0671 87.3193C22.8141 87.295 22.5598 87.2822 22.3056 87.2822Z" fill="#571AFF"/>
<path d="M37.3649 106.733C36.8538 106.733 36.3478 106.755 35.8482 106.797C35.3473 106.839 34.8605 106.902 34.389 106.985C33.9175 107.069 33.4691 107.17 33.0448 107.292C32.6206 107.413 32.2271 107.55 31.8668 107.703C31.5052 107.858 31.1832 108.025 30.8995 108.205C30.6159 108.387 30.3769 108.577 30.1814 108.779C29.9859 108.979 29.839 109.186 29.7393 109.4C29.6397 109.613 29.5898 109.829 29.5898 110.046C29.5898 110.264 29.6397 110.479 29.7393 110.693C29.839 110.906 29.9859 111.113 30.1814 111.314C30.3769 111.516 30.6159 111.706 30.8995 111.888C31.1832 112.068 31.5052 112.235 31.8668 112.39C32.2271 112.543 32.6206 112.68 33.0448 112.801C33.4691 112.923 33.9175 113.023 34.389 113.108C34.8605 113.191 35.3473 113.253 35.8482 113.296C36.3478 113.338 36.8538 113.36 37.3649 113.36C37.8747 113.36 38.3807 113.338 38.8816 113.296C39.3824 113.253 39.868 113.191 40.3394 113.108C40.8109 113.023 41.2594 112.923 41.6836 112.801C42.1078 112.68 42.5014 112.543 42.8617 112.39C43.2233 112.235 43.5453 112.068 43.829 111.888C44.1126 111.706 44.3515 111.516 44.547 111.314C44.7425 111.113 44.8908 110.906 44.9904 110.693C45.0888 110.479 45.1386 110.264 45.1386 110.046C45.1386 109.829 45.0888 109.613 44.9904 109.4C44.8908 109.186 44.7425 108.979 44.547 108.779C44.3515 108.577 44.1126 108.387 43.829 108.205C43.5453 108.025 43.2233 107.858 42.8617 107.703C42.5014 107.55 42.1078 107.413 41.6836 107.292C41.2594 107.17 40.8109 107.069 40.3394 106.985C39.868 106.902 39.3824 106.839 38.8816 106.797C38.3807 106.755 37.8747 106.733 37.3649 106.733Z" fill="#571AFF"/>
</svg>
