<svg width="120" height="120" viewBox="0 0 120 120" fill="none" xmlns="http://www.w3.org/2000/svg">
<circle cx="60" cy="60" r="60" fill="#172852"/>
<path d="M48.33 26.8139C55.356 24.1859 63.264 24.1799 70.422 26.3399C79.74 29.2319 87.606 36.2639 91.716 45.0899C92.85 47.6039 93.936 50.2259 94.044 53.0219C88.806 49.9859 83.064 48.0179 77.31 46.2239C68.106 42.9059 58.47 40.6019 49.758 36.0419C47.73 34.8299 45.144 33.5879 44.592 31.0619C44.37 28.8779 46.68 27.6599 48.33 26.8139Z" fill="#FFD83D"/>
<path d="M27.1202 48.0538C29.1542 42.5338 32.4902 37.4098 37.0202 33.6118C38.1722 43.0858 42.2042 52.2418 48.8642 59.1298C56.8502 67.4278 68.2262 72.5218 79.8002 72.3298C84.3962 72.4738 88.8902 71.4118 93.3722 70.5538C88.9622 86.4898 71.4962 97.0678 55.3142 94.5238C45.5462 93.2758 36.5282 87.4918 31.0862 79.3258C24.9482 70.3018 23.4002 58.3198 27.1202 48.0538Z" fill="#FFD83D"/>
<path d="M77.3101 46.2241C83.0641 48.0181 88.8061 49.9861 94.0441 53.0221L94.3981 53.2081C94.8841 56.8621 95.2381 60.5881 94.5901 64.2481C91.9561 63.1321 89.8201 61.1701 87.5881 59.4361C83.2921 55.8601 78.9061 51.7681 77.3101 46.2241Z" fill="#FF6F03"/>
</svg>
