<svg width="120" height="120" viewBox="0 0 120 120" fill="none" xmlns="http://www.w3.org/2000/svg">
<path d="M60 0C93.1401 0 120 26.8653 120 60C120 93.1401 93.1401 120 60 120C26.8653 120 0 93.1374 0 60C0 26.8653 26.8653 0 60 0Z" fill="#29BCE1"/>
<path d="M81.8398 19L86 23.123V97.8779L81.8398 102H38.1602L34 97.8779V23.123L38.1602 19H81.8398ZM42.3213 27.2451V93.7549H77.6787V27.2451H42.3213Z" fill="white"/>
<path fill-rule="evenodd" clip-rule="evenodd" d="M64.0417 49.4007H73V57.4975H47V49.4007H55.9583V40H64.0417V49.4007ZM64.0417 72.5993H73V64.5025H47V72.5993H55.9583V82H64.0417V72.5993Z" fill="white"/>
</svg>
