<svg width="120" height="120" viewBox="0 0 120 120" fill="none" xmlns="http://www.w3.org/2000/svg">
<path d="M60 0C93.132 0 120 26.868 120 60C120 93.132 93.132 120 60 120C26.868 120 0 93.132 0 60C0 26.868 26.868 0 60 0Z" fill="url(#paint0_linear_107_17577)"/>
<path d="M83.0396 41.6395C82.2836 42.5395 82.3316 44.5315 81.1196 43.9195C81.1196 43.9195 72.6836 40.6915 77.8796 31.1995C79.2836 29.0035 80.7356 28.8595 80.5196 23.5195C81.8156 25.4875 86.0636 29.4355 86.3996 35.6395C86.7356 39.7795 84.2636 40.3315 83.0396 41.6395Z" fill="white"/>
<path d="M76.3198 56.3998C78.3958 55.7038 81.7558 54.5998 81.9598 47.5198C85.1638 52.4278 96.0358 59.3158 90.8398 80.3998C88.7278 88.6198 80.8558 92.6158 73.4398 95.6398C68.8078 97.6078 64.0798 100.896 62.1598 105.84C62.1598 105.84 27.1078 101.412 28.1998 66.5998C29.0758 48.5398 45.9958 41.6398 53.1598 28.4398C56.9758 20.1118 55.6798 11.7598 55.6798 11.7598C55.6798 11.7598 77.9998 25.6438 67.9198 47.0398C64.6438 54.5998 72.4678 57.1558 76.3198 56.3998Z" fill="white"/>
<path d="M41.8799 62.6396V74.2796H54.2399V86.6396H65.8799V74.2796H78.2399V62.6396H41.8799Z" fill="url(#paint1_linear_107_17577)"/>
<defs>
<linearGradient id="paint0_linear_107_17577" x1="0" y1="120" x2="120" y2="120" gradientUnits="userSpaceOnUse">
<stop stop-color="#FFA50D"/>
<stop offset="1" stop-color="#FE5413"/>
</linearGradient>
<linearGradient id="paint1_linear_107_17577" x1="41.8799" y1="86.6396" x2="78.2399" y2="86.6396" gradientUnits="userSpaceOnUse">
<stop stop-color="#FFA50D"/>
<stop offset="1" stop-color="#FE5413"/>
</linearGradient>
</defs>
</svg>
