<svg width="120" height="120" viewBox="0 0 120 120" fill="none" xmlns="http://www.w3.org/2000/svg">
<path d="M60 0C93.1371 0 120 26.8629 120 60C120 93.1371 93.1371 120 60 120C26.8629 120 0 93.1371 0 60C0 26.8629 26.8629 0 60 0Z" fill="#FFE81C"/>
<path d="M98.9898 32.5475L91.9303 55.4778H74.1841L71.4446 57.5658L61.8275 97.3681H35.1018L40.1006 82.5052L40.4778 81.055L29.5441 89.3555L44.6812 67.3544L48.2435 55.4778H24.0618L31.0561 32.5475H61.3441H63.6926L76.1006 24.6001L71.0401 32.5475H98.9898Z" fill="#3F3F3F"/>
<path d="M89.4652 52.0458L94.488 36.6069H72.1475L65.9897 46.6801L80.0435 51.9806L89.4652 52.0458Z" fill="#FFE81C"/>
<path d="M40.6594 77.6778L72.4869 53.5578L58.4331 47.647L59.2937 46.2515L67.6869 33.0961L67.752 32.9658L43.6354 48.4184L56.256 55.0081L40.6594 77.6778Z" fill="#FFE81C"/>
<path d="M58.512 92.8937L65.6366 65.6812L44.472 82.1657L41.04 92.88H58.512V92.8937Z" fill="#FFE81C"/>
<path d="M34.6971 48.8469L53.7874 36.6584L33.3154 36.6069L28.5771 51.9669L42.2126 52.0458L34.6971 48.8469Z" fill="#FFE81C"/>
</svg>
