<svg width="120" height="120" viewBox="0 0 120 120" fill="none" xmlns="http://www.w3.org/2000/svg">
<circle cx="60" cy="60" r="60" fill="#EDF0F4"/>
<path d="M80.2222 70.9813C82.6329 67.3652 83.9721 63.0796 83.9721 58.4815C83.9721 45.5799 73.1241 35.089 59.6868 35.089C53.7047 35.089 48.2138 37.1871 44.0174 40.6246C43.8835 40.7139 43.7495 40.8032 43.6156 40.9371C43.571 40.9817 43.5263 41.0264 43.437 41.071C43.3924 41.1157 43.3031 41.2049 43.2585 41.2496C43.0799 41.3835 42.946 41.5174 42.7674 41.696C42.5442 41.9192 42.321 42.1424 42.1424 42.3656C39.5532 45.0888 37.7675 48.6155 36.83 52.4101C36.83 52.4548 36.7854 52.4994 36.7854 52.5887C34.955 58.7493 34.7765 66.5617 38.7496 74.999C45.312 89.0613 61.4725 96.6951 79.4186 96.2041C79.4633 96.2041 79.4633 96.2041 79.5079 96.2041C81.5614 96.1594 82.3204 98.8826 80.5347 99.8201C74.3741 103.034 67.3206 104.82 59.91 104.82C35.089 104.82 15 84.731 15 59.91C15 36.7407 32.589 17.6339 55.1333 15.2679C56.6958 15.0893 58.3029 15 59.91 15C69.7759 15 78.9276 18.1696 86.3382 23.5713C88.347 25.0445 90.222 26.6516 91.9631 28.4373C96.1148 33.1247 98.6147 39.1514 98.6147 45.7584C98.6147 57.41 90.9363 67.3206 80.2222 70.9813Z" fill="url(#paint0_linear_107_21466)"/>
<path d="M104.284 59.6866C104.284 59.7759 104.284 59.8651 104.284 59.9544C104.195 74.5078 94.4186 86.8736 80.8027 89.7307C79.1509 90.0879 77.3206 90.3111 75.9367 90.445C59.4637 91.7843 46.9193 84.0612 41.339 71.5168C40.5355 69.7311 39.9551 67.9454 39.5534 66.249C39.1962 64.8204 38.9284 63.4365 38.7944 62.0526C38.7944 62.008 38.7944 61.9633 38.7944 61.9187C38.4373 58.5705 38.7498 55.4456 39.4194 52.6331C39.4194 52.5885 39.4194 52.5438 39.4194 52.4992C39.4641 52.3653 39.5087 52.2313 39.5087 52.0974C39.7319 51.1599 40.1783 50.3117 40.6694 49.5528C42.2319 47.2761 45.714 47.9903 46.2943 50.6689C46.8747 53.526 47.7675 56.8295 48.8836 58.7937C53.4371 66.8293 62.0084 72.2757 71.8743 72.2757C74.9992 72.2757 78.0349 71.74 80.8473 70.7132C91.0704 67.0079 98.3471 57.142 98.3471 45.535C98.3471 38.928 95.9364 32.9013 92.0079 28.2139C98.4363 35.0888 102.856 44.1511 103.972 54.2402C104.195 56.0706 104.284 57.8563 104.284 59.6866Z" fill="url(#paint1_linear_107_21466)"/>
<defs>
<linearGradient id="paint0_linear_107_21466" x1="15" y1="104.836" x2="98.6009" y2="104.836" gradientUnits="userSpaceOnUse">
<stop stop-color="#2D2D4C"/>
<stop offset="1" stop-color="#1E1E3A"/>
</linearGradient>
<linearGradient id="paint1_linear_107_21466" x1="38.6357" y1="90.6098" x2="104.284" y2="90.6098" gradientUnits="userSpaceOnUse">
<stop stop-color="#8592B9"/>
<stop offset="1" stop-color="#6D5D91"/>
</linearGradient>
</defs>
</svg>
