<svg width="120" height="120" viewBox="0 0 120 120" fill="none" xmlns="http://www.w3.org/2000/svg">
<circle cx="60" cy="60" r="60" fill="#00843D"/>
<path fill-rule="evenodd" clip-rule="evenodd" d="M52.8909 16.9162C55.0532 15.6672 57.5054 15.0089 60.0019 15.0075L59.9981 15C62.4971 15.0002 64.9521 15.6584 67.1165 16.9087L93.8853 32.3841C98.2822 34.9342 100.992 39.6328 101 44.7196V76.2842C100.992 81.3709 98.2822 86.0696 93.8853 88.6196L67.1128 104.091C62.7124 106.636 57.2876 106.636 52.8835 104.091L26.1147 88.6196C21.7178 86.0696 19.0078 81.3709 19 76.2842V44.7196C19.0078 39.6328 21.7178 34.9342 26.1147 32.3841L52.8909 16.9162ZM64.2038 21.9725C62.929 21.2352 61.4821 20.8497 60.0091 20.8497L60.0053 20.8459H59.9979C58.5286 20.8459 57.078 21.2352 55.7993 21.9725L29.0305 37.4441C26.4322 38.9486 24.832 41.7219 24.832 44.7234V76.288C24.8335 79.2896 26.4338 82.0627 29.0305 83.5635L55.8068 99.039C58.4037 100.54 61.6032 100.54 64.2001 99.039L90.9726 83.5635C93.571 82.0628 95.1674 79.2895 95.1674 76.288V44.7234C95.1688 41.721 93.5697 38.946 90.9726 37.4441L64.2038 21.9725Z" fill="white"/>
<path fill-rule="evenodd" clip-rule="evenodd" d="M60.8469 35.7373C60.3249 35.4525 59.6941 35.4525 59.172 35.7373L51.2236 40.0787L55.209 46.9874C55.5214 47.529 56.0985 47.8628 56.7232 47.8632H63.2958C63.9207 47.8636 64.4981 47.5296 64.8099 46.9874L68.7953 40.0824L60.8469 35.7411V35.7373ZM47.9414 56.6619C48.567 56.6613 49.1452 56.3278 49.4593 55.7862L52.6783 50.1985C52.9908 49.6566 52.9908 48.9889 52.6783 48.447L48.663 41.4821L40.823 45.7636C40.2501 46.0779 39.8998 46.6854 39.9145 47.3392C39.9781 50.4755 40.3445 53.5968 41.0025 56.6619H47.9414ZM56.7232 65.4607C56.0972 65.4617 55.5184 65.1277 55.2054 64.585L51.9864 58.9974C51.6738 58.4554 51.6738 57.7878 51.9864 57.2458L55.2054 51.6582C55.5184 51.1155 56.0972 50.7815 56.7232 50.7825H63.2958C63.9201 50.7844 64.4965 51.1178 64.81 51.6582L68.0327 57.2458C68.3452 57.7878 68.3452 58.4554 68.0327 58.9974L64.81 64.585C64.4976 65.1266 63.9205 65.4603 63.2958 65.4607H56.7232ZM70.5607 55.7862C70.873 56.3278 71.4501 56.6615 72.0748 56.6619H79.0175C79.6748 53.5948 80.0379 50.4718 80.1017 47.3355C80.1143 46.6822 79.7626 46.0763 79.1895 45.7636L71.3532 41.4822L67.3379 48.4471C67.0254 48.989 67.0254 49.6566 67.3379 50.1986L70.5607 55.7862ZM48.8125 74.5026C45.623 69.9668 43.2272 64.921 41.7278 59.5811H47.9451C48.5699 59.5815 49.147 59.9153 49.4593 60.4569L52.682 66.0445C52.9946 66.5864 52.9946 67.2541 52.682 67.796L48.8125 74.5026ZM78.2844 59.5811C76.786 64.9208 74.3916 69.9665 71.2033 74.5026L67.3338 67.796C67.0213 67.2541 67.0213 66.5864 67.3338 66.0445L70.5603 60.4569C70.8726 59.9153 71.4497 59.5815 72.0745 59.5811H78.2844ZM55.2051 69.2556C55.5182 68.7129 56.097 68.3789 56.723 68.3799H63.2993C63.924 68.3803 64.5011 68.7141 64.8135 69.2556L69.2999 77.0364C66.8851 80.0427 64.1272 82.7558 61.0823 85.1203C60.4508 85.6064 59.5716 85.6064 58.9401 85.1203C55.8941 82.7572 53.1349 80.0454 50.7188 77.0401L55.2051 69.2556Z" fill="white"/>
</svg>
