<svg width="120" height="120" viewBox="0 0 120 120" fill="none" xmlns="http://www.w3.org/2000/svg">
<path d="M3.7373 45.9756C11.4802 14.9007 42.9506 -4.00975 74.0156 3.73633C105.088 11.4825 123.997 42.9581 116.25 74.0312L116.225 74.1299C108.436 105.142 77.001 124.003 45.959 116.263C15.1401 108.577 -3.71609 77.5349 3.56055 46.7041L3.7373 45.9756Z" fill="url(#paint0_linear_107_17169)" stroke="#FFD9EC" stroke-width="4"/>
<path d="M50.5303 37.0576C49.718 36.9415 49.6793 36.9029 50.0661 36.8642C50.801 36.7481 52.503 36.9029 53.702 37.1736C56.487 37.8312 59.0012 39.5331 61.6701 42.5114L62.3663 43.3237L63.372 43.169C67.6654 42.4727 72.0749 43.0143 75.7495 44.7162C76.7551 45.1803 78.341 46.1086 78.5344 46.3407C78.6118 46.4181 78.7278 46.9209 78.8052 47.4237C79.0759 49.2417 78.9599 50.5955 78.3797 51.6398C78.0703 52.22 78.0703 52.3747 78.2637 52.8776C78.4184 53.2644 78.8825 53.5351 79.308 53.5351C80.2363 53.5351 81.2033 52.0653 81.6675 50.0153L81.8609 49.203L82.209 49.5898C84.1817 51.7946 85.7288 54.8503 85.9609 57.0163L86.0383 57.5965L85.6902 57.0937C85.11 56.204 84.5685 55.6238 83.8335 55.121C82.5184 54.2314 81.126 53.9606 77.4514 53.7672C74.1249 53.5738 72.2296 53.3031 70.373 52.6842C67.2013 51.6398 65.5767 50.286 61.8248 45.2964C60.1615 43.0916 59.1172 41.8925 58.0728 40.8869C55.7907 38.6821 53.5086 37.5217 50.5303 37.0576Z" fill="#FF007A"/>
<path d="M79.3468 41.9699C79.4242 40.5 79.6176 39.533 80.0431 38.6434C80.1978 38.2953 80.3525 37.9858 80.3912 37.9858C80.4299 37.9858 80.3525 38.2566 80.2365 38.566C79.927 39.417 79.8883 40.6161 80.0817 41.9699C80.3525 43.7104 80.4685 43.9425 82.3252 45.8378C83.1761 46.7275 84.1818 47.8492 84.5686 48.3133L85.2261 49.1643L84.5686 48.5454C83.7563 47.7718 81.8997 46.302 81.4742 46.1086C81.2034 45.9539 81.1648 45.9539 80.9714 46.1473C80.8166 46.302 80.778 46.5341 80.778 47.6558C80.7393 49.3964 80.5072 50.4794 79.927 51.6011C79.6176 52.1813 79.5789 52.0653 79.8497 51.4077C80.0431 50.9049 80.0817 50.6728 80.0817 49.0096C80.0817 45.6444 79.6949 44.8322 77.3355 43.4784C76.7553 43.1302 75.7496 42.6274 75.1694 42.3566C74.5505 42.0859 74.0864 41.8538 74.1251 41.8538C74.2024 41.7765 76.4845 42.434 77.3742 42.8208C78.7279 43.3623 78.96 43.401 79.1147 43.3623C79.2308 43.2463 79.3081 42.9368 79.3468 41.9699Z" fill="#FF007A"/>
<path d="M52.1162 47.7334C50.4917 45.49 49.4473 42.0088 49.6794 39.4173L49.7568 38.605L50.1436 38.6823C50.8398 38.7984 52.0389 39.2625 52.6191 39.6107C54.1663 40.539 54.8625 41.8154 55.52 44.9871C55.7134 45.9155 55.9842 46.9985 56.1002 47.3466C56.2936 47.9268 57.0286 49.2806 57.6474 50.1315C58.0729 50.7504 57.8022 51.0599 56.8352 50.9825C55.3653 50.8278 53.3927 49.474 52.1162 47.7334Z" fill="#FF007A"/>
<path d="M77.374 64.5592C69.7154 61.4648 67.0078 58.7959 67.0078 54.2704C67.0078 53.6128 67.0465 53.0713 67.0465 53.0713C67.0852 53.0713 67.3559 53.3034 67.704 53.5741C69.2512 54.8119 70.9918 55.3534 75.8268 56.0496C78.6504 56.4751 80.275 56.7845 81.7448 57.2874C86.425 58.8346 89.326 62.0063 90.0223 66.2998C90.2157 67.5375 90.0996 69.897 89.7902 71.1347C89.5194 72.1017 88.7458 73.881 88.5524 73.9197C88.5137 73.9197 88.4364 73.7263 88.4364 73.4168C88.359 71.7923 87.5467 70.2451 86.193 69.046C84.5684 67.6535 82.4797 66.6092 77.374 64.5592Z" fill="#FF007A"/>
<path d="M71.9588 65.8356C71.8814 65.2554 71.688 64.5205 71.572 64.2111L71.3786 63.6309L71.7267 64.0563C72.2296 64.6365 72.6164 65.3328 72.9645 66.2998C73.2352 67.0347 73.2352 67.2668 73.2352 68.4658C73.2352 69.6262 73.1966 69.897 72.9645 70.5545C72.5777 71.5989 72.1135 72.3338 71.3399 73.1461C69.9475 74.5772 68.1295 75.3508 65.538 75.6989C65.0738 75.7376 63.7587 75.8537 62.5983 75.931C59.6973 76.0857 57.7633 76.3952 56.0228 77.014C55.7907 77.0914 55.5586 77.1688 55.5199 77.1301C55.4426 77.0527 56.6416 76.3565 57.6086 75.8923C58.9624 75.2348 60.3549 74.8867 63.4106 74.3451C64.9191 74.1131 66.4663 73.8036 66.8531 73.6489C70.6824 72.4498 72.5777 69.4715 71.9588 65.8356Z" fill="#FF007A"/>
<path d="M75.4788 72.0631C74.4731 69.8583 74.2411 67.7696 74.7826 65.797C74.8599 65.6036 74.9373 65.4102 75.0147 65.4102C75.092 65.4102 75.3241 65.5262 75.5562 65.6809C76.0203 65.9904 76.9873 66.5319 79.4628 67.8857C82.5959 69.5876 84.3752 70.9027 85.6129 72.4112C86.6959 73.7263 87.3535 75.2348 87.6629 77.0914C87.8563 78.1358 87.7403 80.65 87.4695 81.6943C86.6186 84.9821 84.6846 87.6123 81.861 89.1208C81.4355 89.3529 81.0874 89.5076 81.0487 89.5076C81.01 89.5076 81.1647 89.1208 81.3968 88.6567C82.3251 86.684 82.4412 84.7887 81.7449 82.6613C81.3195 81.3462 80.4298 79.7603 78.6506 77.0914C76.5232 73.9971 76.0203 73.1848 75.4788 72.0631Z" fill="#FF007A"/>
<path d="M46.6624 83.8987C49.5247 81.5006 53.0445 79.7987 56.2936 79.2572C57.6861 79.0251 60.0069 79.1025 61.2833 79.4506C63.3333 79.9921 65.19 81.1525 66.157 82.5836C67.0853 83.9761 67.5107 85.1752 67.9362 87.8441C68.0909 88.8884 68.2843 89.9715 68.323 90.2035C68.6325 91.596 69.2513 92.679 70.0249 93.2592C71.224 94.1489 73.3127 94.1875 75.3627 93.414C75.7109 93.2979 76.0203 93.1819 76.0203 93.2206C76.0976 93.2979 75.0533 93.9941 74.3571 94.3423C73.3901 94.8451 72.6165 94.9998 71.5721 94.9998C69.7155 94.9998 68.1296 94.0328 66.8532 92.0988C66.5824 91.712 66.0409 90.5903 65.5768 89.546C64.223 86.4129 63.5267 85.4846 61.9409 84.4403C60.5484 83.5506 58.7691 83.3572 57.4153 84.0148C55.6361 84.8657 55.1719 87.1478 56.4097 88.5403C56.9125 89.1205 57.8408 89.5847 58.6144 89.7007C60.0456 89.8941 61.2833 88.7724 61.2833 87.3412C61.2833 86.4129 60.9352 85.8714 60.0069 85.4459C58.7691 84.9044 57.4153 85.5233 57.454 86.7224C57.454 87.2252 57.6861 87.5346 58.1889 87.7667C58.4984 87.9214 58.4984 87.9214 58.2663 87.8828C57.1446 87.6507 56.8738 86.2582 57.7635 85.3686C58.8465 84.2855 61.1286 84.7497 61.9022 86.2582C62.2116 86.8771 62.2503 88.1148 61.9795 88.8884C61.322 90.5903 59.4654 91.48 57.5701 90.9771C56.2936 90.629 55.7521 90.2809 54.2049 88.695C51.4973 85.9101 50.453 85.3686 46.585 84.7884L45.8501 84.6723L46.6624 83.8987Z" fill="#FF007A"/>
<path fill-rule="evenodd" clip-rule="evenodd" d="M26.3168 21.6632C35.3292 32.6096 49.2152 49.6287 49.9115 50.557C50.4917 51.3306 50.2596 52.0655 49.2926 52.607C48.7511 52.9165 47.6294 53.2259 47.0878 53.2259C46.469 53.2259 45.7341 52.9165 45.2312 52.4136C44.8831 52.0655 43.3746 49.8608 39.9708 44.5616C37.3792 40.5003 35.1745 37.1351 35.1358 37.0964C34.9811 37.0191 34.9811 37.0191 39.7 45.4513C42.6784 50.7504 43.6454 52.6457 43.6454 52.8778C43.6454 53.3806 43.4906 53.6514 42.8718 54.3476C41.8274 55.508 41.3632 56.8231 41.0151 59.5694C40.6283 62.6251 39.584 64.7911 36.6056 68.4657C34.8651 70.6318 34.5943 71.0186 34.1688 71.9082C33.6273 72.9912 33.4726 73.6101 33.3952 75.0026C33.3179 76.4724 33.4726 77.4007 33.8981 78.7932C34.2849 80.0309 34.7103 80.8432 35.7547 82.4291C36.6443 83.8216 37.1858 84.8659 37.1858 85.2527C37.1858 85.5621 37.2632 85.5621 38.6557 85.2527C41.9821 84.4791 44.7284 83.164 46.2369 81.5395C47.1652 80.5338 47.3973 79.9923 47.3973 78.5998C47.3973 77.7102 47.3586 77.5168 47.1265 76.9752C46.7397 76.1243 46.0048 75.4281 44.4189 74.345C42.3302 72.9139 41.4406 71.7535 41.2085 70.2063C41.0151 68.8912 41.2472 68.0015 42.4076 65.5647C43.6067 63.0505 43.9161 62.0062 44.1095 59.4533C44.2255 57.8288 44.4189 57.1712 44.8831 56.6684C45.3859 56.1269 45.8114 55.9335 47.0105 55.7788C48.9832 55.508 50.2596 55.0052 51.2653 54.0382C52.1549 53.2259 52.5417 52.4136 52.5804 51.2145L52.619 50.3249L52.1162 49.7834C50.2983 47.6947 25.1178 20 25.0017 20C24.963 20 25.5819 20.7349 26.3168 21.6632ZM38.1915 76.6658C38.617 75.9309 38.3849 75.0026 37.6887 74.5384C37.0311 74.1129 36.0254 74.3063 36.0254 74.8865C36.0254 75.0413 36.1028 75.196 36.3349 75.2733C36.683 75.4667 36.7217 75.6601 36.4509 76.0856C36.1802 76.5111 36.1802 76.8979 36.5283 77.1686C37.0698 77.5941 37.8047 77.362 38.1915 76.6658Z" fill="#FF007A"/>
<path fill-rule="evenodd" clip-rule="evenodd" d="M53.8568 56.3201C52.9285 56.5909 52.0388 57.5966 51.7681 58.6022C51.6133 59.2211 51.6907 60.3428 51.9615 60.6909C52.3869 61.2325 52.7737 61.3872 53.8568 61.3872C55.9842 61.3872 57.8021 60.4589 57.9955 59.3372C58.1889 58.4088 57.3766 57.1324 56.2549 56.5522C55.6747 56.2428 54.4756 56.1267 53.8568 56.3201ZM56.3323 58.2541C56.6417 57.79 56.5257 57.2871 55.9455 56.939C54.9011 56.2815 53.3153 56.823 53.3153 57.8286C53.3153 58.3315 54.1275 58.873 54.9011 58.873C55.404 58.873 56.1002 58.5636 56.3323 58.2541Z" fill="#FF007A"/>
<defs>
<linearGradient id="paint0_linear_107_17169" x1="0" y1="0" x2="0" y2="120" gradientUnits="userSpaceOnUse">
<stop stop-color="#FEF3F9"/>
<stop offset="1" stop-color="#FDE5F2"/>
</linearGradient>
</defs>
</svg>
