<svg width="120" height="120" viewBox="0 0 120 120" fill="none" xmlns="http://www.w3.org/2000/svg">
<path fill-rule="evenodd" clip-rule="evenodd" d="M60 120C27 120 0 93.0006 0 59.7012C0.3 26.7019 27 -0.297518 60.3 0.00247602C93.3 0.30247 120 27.0019 120 60.6012C119.7 93.3006 93 120 60 120Z" fill="black"/>
<path d="M40.5977 54.2752H40.6337L41.2457 54.4913L41.8218 54.7073L42.4338 54.8873L43.0099 55.1393L43.622 55.3553L44.198 55.5714L44.8101 55.7874L45.3861 56.0034L45.9622 56.2194L46.5383 56.4355L47.1503 56.6515L47.7264 56.9035L48.3384 57.0835L48.9145 57.2995L49.5266 57.5156L50.1026 57.7676L50.7147 57.9836L51.2907 58.1636L51.8668 58.3796L52.4788 58.6317L53.0909 58.8477V57.9116V57.7676V57.0115V56.4715V56.0754V55.1393V54.2392V53.3031V52.403V51.431V50.5309V50.4229H52.3708H51.6868H51.6148H50.8587H50.2826H50.0666H49.3105H48.9145H48.5185H47.7264H47.5104H46.9703H46.2142H46.1782H46.1422H45.4221H44.7741H44.6661H43.874H43.3699H42.0018H40.6337H40.5977H39.8056L39.2295 50.7109L37.8614 51.431L36.4572 52.187L35.0531 52.8711L33.721 53.5912L32.3168 54.3472L30.9127 55.0313L29.5446 55.7874L28.1404 56.5075L26.7723 57.1915L25.4041 57.9476L24.144 58.5957L24 79.2257L25.4041 80.1978L26.7723 81.1699L28.1404 82.106L29.5446 83.1141L30.9127 84.0862L32.3168 85.0583L32.9289 85.5264L33.721 84.5183L35.0531 82.7181L35.1971 82.5381L35.0531 82.4301L33.721 81.458L32.3168 80.4859L30.9127 79.5138L29.5446 78.5417L28.1404 77.5336L27.7804 77.3175L27.8884 60.6119L28.1404 60.4679L29.5446 59.7838L30.9127 59.0997L32.3168 58.4157L33.721 57.7316L35.0531 57.0115L36.4572 56.3274L37.8614 55.6794L39.2295 54.9593L40.5977 54.2752Z" fill="url(#paint0_linear_107_17340)"/>
<path d="M64.4324 93.6272L63.2803 94.0952L61.9842 94.6353L60.688 95.1393L59.3919 95.6794L58.8159 95.8954L58.1318 95.5714L56.8357 94.8873L55.5395 94.2753L54.2794 93.5912L52.9833 92.9431L51.6871 92.3311L50.391 91.647L49.0949 90.9989L47.7988 90.3509L46.5026 89.7028L45.2065 89.0187L43.9824 88.4067L42.6862 87.7586L42.5422 87.6866V70.8369H41.3901H40.094H38.7979V89.9908L40.094 90.6029L41.3901 91.251L42.6862 91.935L43.9824 92.5471L45.2065 93.2312L46.5026 93.8792L47.7988 94.5273L49.0949 95.1753L50.391 95.8234L51.6871 96.4715L52.9833 97.1195L54.2794 97.8036L55.5395 98.4157L56.8357 99.0997L58.1318 99.7118L58.6358 99.9998L59.3919 99.6398L60.688 99.1717L61.9842 98.6317L63.2803 98.0916L64.5404 97.5876L65.8366 97.0835L64.5404 93.8432L64.4324 93.6272Z" fill="url(#paint1_linear_107_17340)"/>
<path d="M87.4387 70.2251L87.5107 78.1459L87.1867 78.4339L84.9905 79.9461L82.7943 81.5303L80.598 83.1144L78.4018 84.6626L76.2056 86.2107L74.0454 87.7949L71.8492 89.343L70.553 90.2791L69.6529 89.5951L67.4927 87.9029L65.2965 86.2467L63.1003 84.5546L60.9401 82.8984L60.544 82.6104V74.0775L60.9401 73.7175L63.1003 71.4132L65.2965 69.145L67.4927 66.8408L69.6529 64.5726L71.7772 62.3403H69.6529H67.4927H65.2965H63.1003H60.9401H58.7078H56.5116H54.3514H52.1552H49.959H47.7988H45.6025L47.7988 64.6446L49.959 66.9128L52.1552 69.181L54.3514 71.4852L56.5116 73.7535L56.8357 74.0775V84.4105L58.7078 85.8867L60.9401 87.5789L63.1003 89.235L65.2965 90.9272L67.4927 92.5834L69.6529 94.2755L70.445 94.8876L71.8492 93.8795L74.0454 92.3673L76.2056 90.7832L78.4018 89.199L80.598 87.6869L82.7943 86.1027L84.9905 84.5185L87.1867 83.0064L89.3829 81.4222L91.1831 80.0901L91.5431 70.3691L89.3829 70.2971L87.4387 70.2251Z" fill="url(#paint2_linear_107_17340)"/>
<path d="M27.5646 51.7914H27.8166L27.8526 41.2063L29.2568 40.3062L31.021 39.2621L32.7491 38.218L34.4773 37.1379L36.2055 36.0938L37.9697 35.0137L39.6618 33.9696L41.426 32.9255L43.1542 31.8454L44.9184 30.7653H44.9544L46.6105 31.7374L48.3747 32.7095L50.1029 33.7176L51.831 34.6896L53.5592 35.6617L55.2874 36.6338L57.0156 37.6419L58.7077 38.614L58.7797 38.47L60.5079 35.3377L58.7797 34.3296L57.0156 33.3575L55.2874 32.3854L53.5592 31.4133L51.831 30.4052L50.1029 29.4331L48.3747 28.461L46.6105 27.4529L44.9184 26.4808L44.8463 26.4448L43.1542 27.4529L41.426 28.533L39.6618 29.6131L37.9697 30.6932L36.2055 31.7374L34.4773 32.7815L32.7491 33.8616L31.021 34.9057L29.2568 35.9858L27.5646 37.0299L25.8004 38.074L24.1443 39.1181L24.0723 51.7554H25.8004L27.5646 51.7914Z" fill="url(#paint3_linear_107_17340)"/>
<path d="M95.2509 42.106L94.3508 41.386L93.4507 40.6659L92.5506 39.9098L91.6505 39.1897L90.7504 38.4697L89.8143 37.7496L88.9142 37.0295L88.0141 36.3094L87.078 35.5534L86.394 35.0493L86.1419 35.3373L85.2419 36.4535L84.3418 37.6056L84.0897 37.8936L84.3418 38.1456L85.2419 38.9017L86.1419 39.6578L87.078 40.4139L88.0141 41.1699L88.9142 41.962L89.8143 42.7181L90.7504 43.4742L91.1824 43.8342L91.2185 60.8639L90.7504 61.1879L89.8143 61.764L88.9142 62.34L88.0141 62.9161L87.078 63.4922L86.1419 64.0682L85.2419 64.6443L84.3418 65.2203L83.4417 65.7964L82.5416 66.3724L81.6415 66.9485L80.7054 67.5246L79.8053 68.1006L78.9052 68.6767L78.0051 69.2527L77.069 69.8288L76.1689 70.4049L77.069 71.845L78.0051 73.2851L78.1491 73.5372L78.9052 73.0691L79.8053 72.5291L80.7054 71.953L81.6415 71.413L82.5416 70.8009L83.4417 70.2608L84.3418 69.6848L85.2419 69.1447L86.1419 68.5687L87.078 68.0286L88.0141 67.4166L88.9142 66.8765L89.8143 66.3004L90.7504 65.7604L91.6505 65.1843L92.5506 64.6443L93.4507 64.0322L94.3508 63.4922L95.2509 62.9161V42.106Z" fill="url(#paint4_linear_107_17340)"/>
<path d="M65.5485 52.2592V53.1953V54.1314V55.0675V56.0396V57.0117V57.9478V58.8839V59.604L65.8366 59.4959L67.0607 59.0279L68.2848 58.5239L69.4729 58.0558L70.6971 57.5518L71.9212 57.0477L73.1093 56.5797L74.3334 56.0756L75.5575 55.6076L76.7457 55.1035L77.9698 54.6355L79.1579 54.1314V53.1953V52.8353V50.351V31.8452L77.7898 30.9811L76.3856 30.189L74.9815 29.3969L73.6133 28.5329L72.2092 27.7408L70.8051 26.9487L69.4369 26.1206L68.0328 25.2925L66.6647 24.4644L65.2605 23.6724L63.8564 22.8443L62.4882 22.0162L61.1201 21.2241L59.716 20.432L58.9599 20L58.3118 20.36L56.9077 21.1161L55.5035 21.8362L54.1714 22.6283L52.7673 23.3843L51.3631 24.1044L49.959 24.8965L51.3631 25.6886L52.7673 26.4806L53.6314 27.0207L54.1714 26.7327L55.5035 26.0126L56.9077 25.2565L58.3118 24.5365L58.8519 24.2484L59.716 24.7525L61.1201 25.5446L62.4882 26.3366L63.8564 27.1647L65.2605 27.9928L66.6647 28.7849L68.0328 29.613L69.4369 30.441L70.8051 31.2331L72.2092 32.0252L73.6133 32.8893L74.9815 33.6814L75.4495 33.9334V50.351H75.1255H74.9815H74.3334H73.6133H73.5413H72.7133H72.2092H71.9212H71.1291H70.8051H70.337H69.5449H69.4369H68.7529H68.0328H67.9608H67.1327H66.6647H66.3406H65.7286H65.6206" fill="url(#paint5_linear_107_17340)"/>
<path d="M65.5479 59.604L79.1572 54.1315L65.5479 50.3511" fill="url(#paint6_linear_107_17340)"/>
<path d="M53.091 59.604V50.4951L40.6338 54.2035L53.091 59.568" fill="url(#paint7_linear_107_17340)"/>
<defs>
<linearGradient id="paint0_linear_107_17340" x1="24.0014" y1="50.4337" x2="24.0014" y2="85.512" gradientUnits="userSpaceOnUse">
<stop stop-color="#F6E93D"/>
<stop offset="0.13" stop-color="#F8E330"/>
<stop offset="0.35" stop-color="#F7C730"/>
<stop offset="0.64" stop-color="#F59C2E"/>
<stop offset="0.98" stop-color="#EB5E2C"/>
<stop offset="1" stop-color="#EB5C2C"/>
</linearGradient>
<linearGradient id="paint1_linear_107_17340" x1="38.8116" y1="70.8513" x2="38.8116" y2="99.9962" gradientUnits="userSpaceOnUse">
<stop stop-color="#F6E93D"/>
<stop offset="0.13" stop-color="#F8E330"/>
<stop offset="0.35" stop-color="#F7C730"/>
<stop offset="0.64" stop-color="#F59C2E"/>
<stop offset="0.98" stop-color="#EB5E2C"/>
<stop offset="1" stop-color="#EB5C2C"/>
</linearGradient>
<linearGradient id="paint2_linear_107_17340" x1="45.5906" y1="62.3367" x2="45.5906" y2="94.8984" gradientUnits="userSpaceOnUse">
<stop stop-color="#F6E93D"/>
<stop offset="0.13" stop-color="#F8E330"/>
<stop offset="0.35" stop-color="#F7C730"/>
<stop offset="0.64" stop-color="#F59C2E"/>
<stop offset="0.98" stop-color="#EB5E2C"/>
<stop offset="1" stop-color="#EB5C2C"/>
</linearGradient>
<linearGradient id="paint3_linear_107_17340" x1="24.0756" y1="26.4556" x2="24.0756" y2="51.795" gradientUnits="userSpaceOnUse">
<stop stop-color="#F6E93D"/>
<stop offset="0.13" stop-color="#F8E330"/>
<stop offset="0.35" stop-color="#F7C730"/>
<stop offset="0.64" stop-color="#F59C2E"/>
<stop offset="0.98" stop-color="#EB5E2C"/>
<stop offset="1" stop-color="#EB5C2C"/>
</linearGradient>
<linearGradient id="paint4_linear_107_17340" x1="76.1807" y1="35.0421" x2="76.1807" y2="73.5408" gradientUnits="userSpaceOnUse">
<stop stop-color="#F6E93D"/>
<stop offset="0.13" stop-color="#F8E330"/>
<stop offset="0.35" stop-color="#F7C730"/>
<stop offset="0.64" stop-color="#F59C2E"/>
<stop offset="0.98" stop-color="#EB5E2C"/>
<stop offset="1" stop-color="#EB5C2C"/>
</linearGradient>
<linearGradient id="paint5_linear_107_17340" x1="49.9514" y1="20" x2="49.9514" y2="59.6148" gradientUnits="userSpaceOnUse">
<stop stop-color="#F6E93D"/>
<stop offset="0.13" stop-color="#F8E330"/>
<stop offset="0.35" stop-color="#F7C730"/>
<stop offset="0.64" stop-color="#F59C2E"/>
<stop offset="0.98" stop-color="#EB5E2C"/>
<stop offset="1" stop-color="#EB5C2C"/>
</linearGradient>
<linearGradient id="paint6_linear_107_17340" x1="65.5361" y1="50.3763" x2="65.5361" y2="59.6256" gradientUnits="userSpaceOnUse">
<stop stop-color="#F6E93D"/>
<stop offset="0.13" stop-color="#F8E330"/>
<stop offset="0.35" stop-color="#F7C730"/>
<stop offset="0.64" stop-color="#F59C2E"/>
<stop offset="0.98" stop-color="#EB5E2C"/>
<stop offset="1" stop-color="#EB5C2C"/>
</linearGradient>
<linearGradient id="paint7_linear_107_17340" x1="52.2318" y1="58.391" x2="53.8525" y2="50.0626" gradientUnits="userSpaceOnUse">
<stop stop-color="#F6E93D"/>
<stop offset="0.13" stop-color="#F8E330"/>
<stop offset="0.35" stop-color="#F7C730"/>
<stop offset="0.64" stop-color="#F59C2E"/>
<stop offset="0.98" stop-color="#EB5E2C"/>
<stop offset="1" stop-color="#EB5C2C"/>
</linearGradient>
</defs>
</svg>
