<svg width="120" height="120" viewBox="0 0 120 120" fill="none" xmlns="http://www.w3.org/2000/svg">
<circle cx="60" cy="60" r="60" fill="#EDF0F4"/>
<path d="M49.8698 31.078C49.9211 31.0986 49.9519 31.1396 49.9417 31.1909C49.9417 31.2936 49.9417 31.386 49.9417 31.4886V67.729C49.9417 67.8521 49.9314 67.965 49.9314 68.0882C49.9827 68.1908 50.0751 68.1395 50.1367 68.1395C56.6437 68.1395 63.1508 68.1395 69.6681 68.1498C69.8734 68.1498 69.9657 68.0985 69.9349 67.8829C69.9349 67.8111 69.9349 67.7495 69.9349 67.6777C69.9349 55.6078 69.9349 43.5482 69.9349 31.4783C69.9349 31.3552 69.8631 31.1909 70.0171 31.0986C70.0684 31.0575 70.1505 31.0678 70.1915 31.1191C70.1915 31.1191 70.1915 31.1294 70.2018 31.1294C70.2531 31.2012 70.3044 31.2731 70.3455 31.3552C71.0845 32.8228 71.844 34.3008 72.5727 35.7685C73.1782 37.0001 73.794 38.2317 74.3996 39.4531C75.077 40.8078 75.7646 42.1729 76.442 43.5277C77.0578 44.749 77.6634 45.9806 78.2689 47.202C78.8129 48.3104 79.3774 49.3984 79.9111 50.5068C79.9932 50.6711 80.1163 50.8045 80.1676 50.979C80.1984 51.1842 80.1984 51.3998 80.1882 51.605V86.9114C80.1882 87.0141 80.1882 87.1064 80.1882 87.2091C80.1882 87.5991 80.1882 87.5991 80.5679 87.6709C80.6192 87.6812 80.6603 87.7017 80.7014 87.7428C80.4448 87.8659 80.1779 87.907 79.9008 87.9686C78.6897 88.256 77.4683 88.4407 76.2265 88.5331C75.6517 88.5741 75.077 88.5844 74.5022 88.5947C71.5361 88.646 68.5596 88.6254 65.5935 88.6254C60.4412 88.6254 55.2787 88.6254 50.1161 88.6152C50.0135 88.6152 49.9006 88.646 49.798 88.5844C49.8288 88.5639 49.8596 88.5331 49.9006 88.5228C50.0854 88.4818 50.2701 88.4715 50.4651 88.4818H69.3397C69.5039 88.492 69.6784 88.4818 69.8426 88.4612C69.9965 88.3894 69.9349 88.256 69.9452 88.1431C69.9452 83.9556 69.9452 79.7578 69.9452 75.5703V69.0119C69.9349 68.8785 69.9452 68.7451 69.9555 68.6116C69.8015 69.094 69.5449 69.5456 69.3191 70.0075C68.4878 71.742 67.677 73.4868 66.8456 75.2316C66.394 76.1861 65.9424 77.1303 65.4909 78.0848C65.4293 78.2183 65.3677 78.3619 65.224 78.4338C65.0803 78.4748 64.9264 78.4851 64.7827 78.4748H55.0734C54.94 78.4851 54.8168 78.4749 54.6834 78.4441C54.4884 78.3825 54.4268 78.208 54.355 78.0438C53.7905 76.843 53.2157 75.6421 52.6512 74.431C52.0354 73.1276 51.4196 71.8344 50.8038 70.5309C50.5062 69.9151 50.229 69.289 49.9006 68.6424C49.9006 68.8169 49.9006 68.9606 49.9006 69.1043C49.9006 75.4061 49.9006 81.6976 49.9006 87.9994C49.9006 88.1944 49.9519 88.3996 49.8082 88.5741C49.7056 88.5741 49.6132 88.5947 49.5106 88.5947C48.0429 88.5947 46.5752 88.5947 45.1076 88.5947C44.7278 88.5947 44.3583 88.5741 43.9786 88.5639C43.9067 88.5639 43.8349 88.5741 43.7836 88.5228C43.8554 88.4612 43.9375 88.492 44.0094 88.492C45.8055 88.492 47.6016 88.492 49.3977 88.492C49.4695 88.492 49.5311 88.4818 49.5517 88.492C47.7658 88.492 45.9389 88.492 44.1017 88.492C43.9991 88.492 43.8862 88.451 43.7836 88.5331C43.332 88.5536 42.8701 88.492 42.4185 88.4407C41.5359 88.3586 40.6737 88.1738 39.8116 88.0302C39.7808 88.0199 39.7603 88.0096 39.7295 87.9891C39.8321 87.7633 39.8219 87.5272 39.8219 87.2912C39.8219 75.4471 39.8219 63.6031 39.8219 51.759C39.8116 51.5537 39.8219 51.3382 39.8424 51.1329C39.8937 50.9174 39.9758 50.7121 40.0785 50.5274C40.6943 49.306 41.3101 48.0847 41.9156 46.853C44.1531 42.2653 46.4623 37.7185 48.7306 33.1513C49.018 32.5765 49.3053 32.0223 49.5824 31.4475C49.6235 31.3552 49.6543 31.1602 49.839 31.3244C49.839 42.6553 49.839 53.9862 49.839 65.3171C49.839 66.1997 49.839 67.0824 49.839 67.9753C49.839 55.8541 49.839 43.7432 49.839 31.622C49.8288 31.427 49.7672 31.2525 49.8698 31.078Z" fill="#E85C50"/>
<path d="M39.9046 50.9998C39.9046 63.1723 39.9046 75.3448 39.9046 87.507C39.9046 87.6096 39.9046 87.702 39.9046 87.8047C39.9149 87.9483 39.8225 87.9689 39.7198 87.9791C38.2522 87.6404 36.8255 87.1888 35.4913 86.5012C34.7523 86.1214 34.0339 85.7212 33.3975 85.1977C31.6322 83.7506 30.4006 81.975 30.1337 79.6452C30.1337 79.5631 30.1337 79.4912 30.1337 79.4091C30.103 79.3065 30.0927 79.1936 30.1132 79.0807C30.1132 63.2852 30.1132 47.4999 30.1132 31.7044C30.103 31.5915 30.1132 31.4889 30.1337 31.376C30.2774 31.3862 30.3082 31.5094 30.3493 31.6018C30.8932 32.7102 31.4372 33.8084 31.9914 34.9066C32.6586 36.2306 33.3257 37.5443 33.9826 38.8786C34.5984 40.1102 35.2244 41.3418 35.83 42.5837C36.2097 43.3637 36.61 44.1335 36.9898 44.9033C37.349 45.6114 37.7082 46.3196 38.0572 47.0381C38.4677 47.9002 38.8988 48.7521 39.3401 49.5937C39.5351 49.9529 39.6788 50.3326 39.8635 50.7021C39.9251 50.7842 39.9354 50.8971 39.9046 50.9998Z" fill="#CF3339"/>
<path d="M80.7013 87.7429C80.5576 87.7326 80.4241 87.7531 80.2907 87.7942C80.1778 87.8147 80.0957 87.7839 80.0957 87.6402C80.0957 87.5684 80.0957 87.5068 80.0957 87.435V50.8867C80.0033 50.7225 80.1265 50.5993 80.1881 50.4761C81.1734 48.5569 82.1484 46.6273 83.1132 44.6875C83.1337 44.6465 83.1645 44.5952 83.1953 44.5541C83.2056 44.5336 83.2158 44.5131 83.2261 44.4925C83.2466 44.4617 83.2569 44.4309 83.2774 44.4002C83.2979 44.3694 83.2979 44.3591 83.3082 44.3386C83.339 44.277 83.3698 44.2051 83.4006 44.1436C83.4108 44.123 83.4313 44.0923 83.4416 44.0717C83.9548 43.107 84.4269 42.1217 84.9196 41.1364C85.1864 40.6232 85.4327 40.11 85.6893 39.5866C85.9254 39.1247 86.1512 38.6731 86.377 38.2113C86.3975 38.1805 86.4078 38.1497 86.4283 38.1292C87.1878 36.6512 87.9062 35.1527 88.6657 33.6851C88.9839 33.0795 89.2918 32.4637 89.61 31.8582C89.6613 31.7453 89.7023 31.6118 89.8666 31.5811C89.9281 31.7042 89.8973 31.8274 89.8973 31.9505C89.8973 41.3314 89.8973 50.7122 89.8973 60.0828C89.8973 66.3127 89.8973 72.5426 89.8973 78.7726C89.9076 78.8957 89.9076 79.0086 89.8768 79.1318C89.9179 79.5629 89.7537 79.9529 89.651 80.3532C89.3226 81.6258 88.6247 82.683 87.7625 83.6477C87.1159 84.397 86.3667 85.0641 85.5354 85.6081C84.4885 86.2957 83.3595 86.8602 82.1792 87.2913C81.7071 87.4555 81.2042 87.6197 80.7013 87.7429Z" fill="#CF3339"/>
<path d="M39.9043 50.9995C39.8837 50.8969 39.8529 50.8045 39.7914 50.7224C39.5142 50.1374 39.2063 49.5729 38.9395 48.9879C38.6726 48.4234 38.3442 47.8897 38.0979 47.3149C37.8721 46.7812 37.5539 46.2988 37.3281 45.7754C37.0407 45.1083 36.6405 44.5027 36.3736 43.8253C36.271 43.5585 36.0965 43.3224 35.9733 43.0658C35.7783 42.6758 35.6244 42.2653 35.4088 41.8855C34.988 41.1466 34.6493 40.3563 34.2593 39.607C34.0027 39.1144 33.7359 38.632 33.5101 38.1188C33.2638 37.5646 32.9353 37.0514 32.6993 36.4972C32.4119 35.8198 32.0116 35.204 31.7242 34.5266C31.5908 34.1982 31.3753 33.9005 31.2316 33.5721C30.9032 32.8537 30.4824 32.1763 30.1231 31.4476V79.0496C30.1231 79.1728 30.1231 79.2857 30.1231 79.4089C30.0205 79.0804 30.0513 78.7417 30.0513 78.403C30.041 74.195 30.041 69.9767 30.0513 65.7687V31.971C30.0616 31.6734 30.0513 31.3757 30.0205 31.0781C30.1129 31.0473 30.2155 31.037 30.3079 31.0576C36.702 31.0576 43.1065 31.0576 49.5006 31.0576H49.6751C49.8906 31.0576 49.8085 31.1705 49.7469 31.2628L45.8571 39.0118C45.0463 40.6334 44.2354 42.2448 43.4349 43.8664C43.1372 44.4617 42.8601 45.0672 42.5625 45.6625C41.7414 47.3047 40.9203 48.9468 40.0993 50.589L39.9043 50.9995Z" fill="#E33936"/>
<path d="M83.1953 44.6258C83.185 44.7079 83.1542 44.7798 83.1132 44.8414C82.4666 46.1448 81.82 47.4586 81.1529 48.7518C80.8347 49.3676 80.5268 49.9834 80.2086 50.6094C80.1573 50.6916 80.1162 50.7839 80.0957 50.8866C79.9828 50.8866 79.952 50.7839 79.9212 50.7121C79.7878 50.4555 79.6852 50.1886 79.5517 49.9321C79.3978 49.6241 79.2233 49.3162 79.0694 49.0083C78.782 48.4438 78.4843 47.8794 78.2175 47.3046C77.9404 46.6991 77.5914 46.1346 77.3246 45.5188C77.0372 44.8619 76.6574 44.2563 76.3803 43.5995C76.2264 43.2403 76.0108 42.9016 75.8364 42.5423C75.5593 41.9881 75.2616 41.4339 75.005 40.8694C74.7074 40.2228 74.3379 39.607 74.0608 38.9501C73.9068 38.5909 73.681 38.2522 73.5168 37.893C73.2089 37.2053 72.8189 36.5587 72.5213 35.8608C72.3673 35.5016 72.1518 35.1629 71.9773 34.8037C71.4128 33.6644 70.838 32.5354 70.2736 31.3962C70.212 31.3038 70.1709 31.2012 70.1504 31.0985L70.2017 31.0678C74.0916 31.0575 77.9814 31.0678 81.8816 31.0678C84.468 31.0678 87.0441 31.0678 89.6305 31.0678C89.7331 31.0678 89.846 31.037 89.9487 31.0985C89.9589 31.1807 90.0513 31.2525 89.9589 31.3449C89.6716 31.6836 89.5381 32.1044 89.3431 32.4841C88.3578 34.3931 87.4033 36.3227 86.4386 38.2522C86.1922 38.7038 85.9562 39.1657 85.7406 39.6275C85.4738 40.1407 85.2172 40.6539 84.9606 41.1773C84.4474 42.1626 83.9753 43.1787 83.4519 44.1537C83.4006 44.2256 83.3595 44.3077 83.3287 44.3898C83.2877 44.4206 83.2979 44.4821 83.2671 44.5129C83.2158 44.5335 83.2261 44.595 83.1953 44.6258Z" fill="#E33936"/>
<path d="M86.418 38.2424C86.5719 37.7087 86.8593 37.2263 87.1261 36.7439C87.2185 36.5797 87.2801 36.4052 87.3622 36.2308C87.7214 35.5329 88.0601 34.8349 88.4091 34.137C88.6862 33.5931 88.9428 33.0388 89.2302 32.4949C89.4252 32.1356 89.5894 31.7764 89.7741 31.4069C89.8152 31.3248 89.846 31.2632 89.9486 31.3248C89.9486 33.2544 89.9486 35.1839 89.9486 37.1032C89.9486 50.8357 89.9486 64.5683 89.9486 78.3008C89.9486 78.5677 89.9691 78.8345 89.8973 79.1014C89.8973 78.9987 89.887 78.9064 89.887 78.8037V31.6225C89.7947 31.6327 89.7844 31.7046 89.7639 31.7662C89.6612 31.9612 89.5689 32.1562 89.4662 32.3512C88.4912 34.2294 87.547 36.1179 86.6027 38.0166C86.5514 38.0987 86.5206 38.2014 86.418 38.2424Z" fill="#E34C37"/>
<path d="M70.141 31.0885C70.0178 31.1091 69.9357 31.222 69.9562 31.3451V31.3554C69.9562 31.4375 69.9562 31.5093 69.9562 31.5914C69.9562 43.6408 69.9562 55.7004 69.9562 67.7497C69.9562 68.2218 70.0075 68.1808 69.5251 68.1808C63.1207 68.1808 56.706 68.1808 50.3016 68.1808C50.1785 68.1808 50.0245 68.2526 49.9219 68.0987C50.0245 68.1397 50.1374 68.15 50.24 68.1397H69.597C69.638 68.1397 69.6791 68.1397 69.7201 68.1397C69.8638 68.15 69.9254 68.0987 69.9152 67.955C69.9049 67.8626 69.9152 67.7805 69.9152 67.6881V31.4785C69.9152 31.4067 69.9152 31.3451 69.9152 31.2733C69.8946 31.0988 69.987 31.0372 70.141 31.0475V31.0885Z" fill="#E9654C"/>
<path d="M49.7367 31.2733C49.7367 31.1912 49.8085 31.0783 49.6341 31.0988C49.552 31.0988 49.4698 31.0988 49.398 31.0988H30C30.0821 30.9859 30.2053 31.0475 30.2976 31.0475C31.6627 31.0373 33.0175 31.0475 34.3722 31.0475C39.4014 31.0475 44.4407 31.0475 49.4698 31.0475C49.593 31.0475 49.7264 31.0065 49.8496 31.0988C49.8496 35.235 49.8496 39.3712 49.8496 43.4971V68.0577C49.7572 68.0166 49.7983 67.9448 49.788 67.8935C49.788 67.8216 49.788 67.76 49.788 67.6882C49.788 55.6902 49.788 43.6819 49.788 31.6736C49.7983 31.5299 49.8496 31.3862 49.7367 31.2733Z" fill="#E7563D"/>
<path d="M70.1406 31.0885C70.1406 31.0783 70.1406 31.0577 70.1406 31.0475C70.2535 31.0372 70.3562 31.0269 70.4691 31.0269C76.8529 31.0269 83.2266 31.0269 89.6105 31.0269C89.7234 31.0269 89.8465 30.9756 89.9389 31.0783L70.1406 31.0885Z" fill="#E85C50"/>
<path d="M69.9562 88.5642C69.8227 88.5642 69.6996 88.5642 69.5661 88.5642H50.2195C50.0963 88.5642 49.9834 88.5539 49.8602 88.5539C49.8397 88.4308 49.8602 88.3179 49.9218 88.205C50.435 87.1273 50.9379 86.0496 51.4511 84.972C52.4672 82.8474 53.4627 80.7126 54.4788 78.5983C54.5096 78.5162 54.5609 78.4341 54.6225 78.3828H65.2349C65.4915 78.8344 65.6968 79.3065 65.9123 79.7684C66.3229 80.6613 66.7539 81.544 67.1747 82.4369C68.0779 84.3356 68.9811 86.2446 69.874 88.1434C69.9562 88.2768 69.9869 88.4205 69.9562 88.5642Z" fill="#CF3339"/>
<path d="M54.632 78.3829C54.5909 78.5574 54.5293 78.7216 54.4369 78.8858C53.9443 79.9121 53.4414 80.9385 52.959 81.9648C52.6306 82.6628 52.3021 83.3607 51.9737 84.0586C51.594 84.8694 51.2142 85.67 50.8242 86.4705C50.5368 87.0658 50.2597 87.6713 49.9826 88.2769C49.9415 88.3693 49.9107 88.4616 49.8697 88.554L49.7979 88.5745C49.7979 88.4411 49.7979 88.3179 49.7979 88.1845V68.376C49.8902 68.4376 49.9621 68.5299 49.9929 68.6326C50.1879 69.0636 50.3829 69.505 50.5881 69.9258C50.9063 70.5929 51.2347 71.2498 51.5426 71.9066C52.0866 73.0767 52.6408 74.2364 53.1951 75.3962C53.5235 76.0839 53.8417 76.7818 54.1804 77.4694C54.3241 77.7773 54.4267 78.1058 54.632 78.3829Z" fill="#E33937"/>
<path d="M69.9556 88.5643C69.8837 88.205 69.6785 87.9074 69.545 87.579C69.3706 87.1582 69.1653 86.7579 68.96 86.3371C68.4982 85.3723 68.026 84.4075 67.5745 83.4428C67.205 82.6627 66.8355 81.8827 66.466 81.1027C66.0657 80.2816 65.6962 79.4503 65.3062 78.6292C65.2652 78.5471 65.2344 78.465 65.2344 78.3726C65.8297 77.1205 66.4352 75.8683 67.0202 74.6059C67.3692 73.8669 67.7181 73.1382 68.0671 72.3993C68.4571 71.5782 68.8369 70.7674 69.2269 69.9565C69.4321 69.5255 69.6271 69.0944 69.8222 68.6633C69.8529 68.5607 69.9145 68.4581 70.0069 68.3862V68.6941C70.0069 75.2012 70.0069 81.7185 70.0069 88.2256C70.0172 88.3487 70.0582 88.4719 69.9556 88.5643Z" fill="#E33937"/>
<path d="M43.7637 88.523C43.8253 88.4409 43.9279 88.4511 44.01 88.4511H49.5831C49.6241 88.4511 49.6652 88.4614 49.7062 88.4717C49.5933 88.5127 49.4804 88.523 49.3675 88.5025H44.0305C43.9484 88.5127 43.856 88.523 43.7637 88.523Z" fill="#E75840"/>
<path d="M83.4316 44.1436C83.4419 44.0717 83.4624 44.0101 83.5035 43.9486C83.9448 43.0659 84.3861 42.1832 84.8275 41.3006C84.848 41.239 84.8788 41.1979 84.9301 41.1569C84.9506 41.1261 84.9712 41.1261 84.9917 41.1569C84.5401 42.0703 84.0782 42.9735 83.6266 43.887C83.5753 43.9793 83.5445 44.1025 83.4316 44.1436Z" fill="#E04437"/>
<path d="M84.9815 41.1671H84.9199C85.0431 40.7976 85.2586 40.4589 85.4228 40.0997C85.5049 39.9355 85.5563 39.7508 85.6897 39.6173C85.7102 39.5865 85.7307 39.5865 85.7513 39.6173L84.9815 41.1671Z" fill="#E24837"/>
<path d="M85.7618 39.6175H85.7002C85.8952 39.1351 86.1005 38.663 86.4186 38.2422C86.4289 38.3038 86.4084 38.3653 86.3878 38.4167C86.1415 38.7964 85.967 39.2172 85.7618 39.6175Z" fill="#E34C37"/>
<path d="M83.3189 44.3796C83.2984 44.277 83.3497 44.1846 83.4421 44.1436C83.4318 44.2359 83.3908 44.3283 83.3189 44.3796Z" fill="#E04437"/>
<path d="M83.2569 44.5133C83.2466 44.462 83.2774 44.4209 83.3185 44.3901C83.3185 44.4415 83.2979 44.4825 83.2569 44.5133Z" fill="#E04437"/>
<path d="M83.1953 44.6261C83.1851 44.5748 83.2159 44.5337 83.2569 44.5029C83.2569 44.5542 83.2364 44.5953 83.1953 44.6261Z" fill="#E04437"/>
</svg>
