<svg width="120" height="120" viewBox="0 0 120 120" fill="none" xmlns="http://www.w3.org/2000/svg">
<path d="M60 120C93.2502 120 120 93.2502 120 60C120 26.7498 93.2502 0 60 0C26.7498 0 0 26.7498 0 60C0 93.2502 26.7498 120 60 120Z" fill="#2775CA"/>
<path d="M76.5 69.5C76.5 60.7502 71.25 57.7502 60.75 56.5004C53.25 55.5002 51.75 53.5004 51.75 50C51.75 46.4996 54.2502 44.2502 59.25 44.2502C63.75 44.2502 66.2502 45.7502 67.5 49.5002C67.7502 50.2502 68.5002 50.75 69.2502 50.75H73.2498C74.25 50.75 75 50 75 49.0004V48.7502C73.9998 43.25 69.4998 39.0002 63.75 38.5004V32.5004C63.75 31.5002 63 30.7502 61.7502 30.5H58.0002C57 30.5 56.25 31.25 55.9998 32.5004V38.2502C48.4998 39.2504 43.7502 44.2502 43.7502 50.5004C43.7502 58.7504 48.75 62 59.25 63.2504C66.2502 64.5002 68.5002 66.0002 68.5002 70.0004C68.5002 74.0006 64.9998 76.7504 60.2502 76.7504C53.7498 76.7504 51.4998 74 50.7498 70.25C50.5002 69.2504 49.7502 68.75 49.0002 68.75H44.7498C43.7502 68.75 43.0002 69.5 43.0002 70.5002V70.7504C43.9998 77 48 81.5 56.25 82.7504V88.7504C56.25 89.75 57 90.5 58.2498 90.7502H61.9998C63 90.7502 63.75 90.0002 64.0002 88.7504V82.7504C71.5002 81.5 76.5 76.25 76.5 69.5Z" fill="white"/>
<path fill-rule="evenodd" clip-rule="evenodd" d="M25.0002 47.7496C17.7498 67 27.75 88.75 47.25 95.7496C48 96.25 48.75 97.2496 48.75 97.9996V101.5C48.75 102 48.75 102.25 48.4998 102.5C48.2502 103.5 47.25 104 46.2498 103.5C32.25 98.9998 21.4998 88.2496 16.9998 74.2498C9.49979 50.5 22.5 25.2496 46.2498 17.7496C46.5 17.5 46.9998 17.5 47.25 17.5C48.2502 17.7496 48.75 18.4996 48.75 19.4998V22.9996C48.75 24.25 48.2502 25 47.25 25.4998C37.0002 29.2498 28.7502 37.2496 25.0002 47.7496ZM71.5002 18.7498C71.7498 17.7496 72.75 17.2498 73.7502 17.7496C87.4998 22.2496 98.5002 32.9998 103 47.2498C110.5 70.9996 97.5 96.25 73.7502 103.75C73.5 104 73.0002 104 72.75 104C71.7498 103.75 71.25 103 71.25 102V98.5C71.25 97.2496 71.7498 96.4996 72.75 95.9998C82.9998 92.2498 91.2498 84.25 94.9998 73.75C102.25 54.4996 92.25 32.7496 72.75 25.75C72 25.2496 71.25 24.25 71.25 23.2498V19.75C71.25 19.2496 71.25 19 71.5002 18.7498Z" fill="white"/>
</svg>
