<svg width="120" height="120" viewBox="0 0 120 120" fill="none" xmlns="http://www.w3.org/2000/svg">
<path d="M60 120C93.1364 120 120 93.1364 120 60C120 26.8636 93.1364 0 60 0C26.8636 0 0 26.8636 0 60C0 93.1364 26.8636 120 60 120Z" fill="#73BB59"/>
<path fill-rule="evenodd" clip-rule="evenodd" d="M90.6191 56.4275H29.3836V56.4261C27.3407 56.4201 25.686 54.7655 25.68 52.7225C25.686 50.6795 27.3407 49.0249 29.3836 49.0189H36.5386L28.9036 28.8575C28.1856 26.9448 29.1469 24.8112 31.0554 24.082C32.9685 23.3649 35.1017 24.3267 35.8309 26.2352L44.4586 49.0189H73.23L81.8591 26.2352C82.5877 24.3262 84.7214 23.3641 86.6345 24.082C88.543 24.8112 89.5044 26.9448 88.7864 28.8575L81.1527 49.0189H90.6191C92.6621 49.0249 94.3167 50.6795 94.3227 52.7225C94.3175 54.766 92.6626 56.4215 90.6191 56.4275ZM90.6177 63.3411H29.3836C27.3412 63.3471 25.6867 65.001 25.68 67.0434C25.6852 69.0869 27.3401 70.7424 29.3836 70.7484H44.7682L55.1932 98.2789C55.7669 99.7803 57.241 100.743 58.8464 100.664C60.4517 100.743 61.9258 99.7803 62.4995 98.2789L72.9245 70.747H90.6191C92.6621 70.7411 94.3167 69.0864 94.3227 67.0434C94.3167 65.0004 92.6621 63.3458 90.6191 63.3398L90.6177 63.3411ZM58.845 87.0084L52.6868 70.7457H65.0032L58.845 87.007V87.0084Z" fill="white"/>
</svg>
