<svg width="120" height="120" viewBox="0 0 120 120" fill="none" xmlns="http://www.w3.org/2000/svg">
<path d="M60 120C93.1364 120 120 93.1364 120 60C120 26.8636 93.1364 0 60 0C26.8636 0 0 26.8636 0 60C0 93.1364 26.8636 120 60 120Z" fill="url(#paint0_linear_107_20114)"/>
<path fill-rule="evenodd" clip-rule="evenodd" d="M90.6193 56.4275H29.3838V56.4261C27.3408 56.4201 25.6862 54.7655 25.6802 52.7225C25.6862 50.6795 27.3408 49.0249 29.3838 49.0189H36.5388L28.9038 28.8575C28.1857 26.9448 29.1471 24.8112 31.0556 24.082C32.9687 23.3649 35.1019 24.3267 35.8311 26.2352L44.4588 49.0189H73.2302L81.8593 26.2352C82.5879 24.3262 84.7216 23.3641 86.6347 24.082C88.5432 24.8112 89.5046 26.9448 88.7865 28.8575L81.1529 49.0189H90.6193C92.6622 49.0249 94.3169 50.6795 94.3229 52.7225C94.3177 54.766 92.6628 56.4215 90.6193 56.4275ZM90.6179 63.3411H29.3838C27.3414 63.3471 25.6869 65.001 25.6802 67.0434C25.6854 69.0869 27.3403 70.7424 29.3838 70.7484H44.7684L55.1934 98.2789C55.7671 99.7803 57.2412 100.743 58.8465 100.664C60.4519 100.743 61.926 99.7803 62.4997 98.2789L72.9247 70.747H90.6193C92.6622 70.7411 94.3169 69.0864 94.3229 67.0434C94.3169 65.0004 92.6622 63.3458 90.6193 63.3398L90.6179 63.3411ZM58.8452 87.0084L52.687 70.7457H65.0034L58.8452 87.007V87.0084Z" fill="white"/>
<defs>
<linearGradient id="paint0_linear_107_20114" x1="49.8334" y1="144.45" x2="143.27" y2="70.0323" gradientUnits="userSpaceOnUse">
<stop stop-color="#F8B342"/>
<stop offset="1" stop-color="#F2C35E"/>
</linearGradient>
</defs>
</svg>
