<svg width="120" height="120" viewBox="0 0 120 120" fill="none" xmlns="http://www.w3.org/2000/svg">
<circle cx="60" cy="60" r="60" fill="url(#paint0_linear_107_19653)"/>
<mask id="mask0_107_19653" style="mask-type:luminance" maskUnits="userSpaceOnUse" x="0" y="0" width="120" height="120">
<circle cx="60" cy="60" r="60" fill="white"/>
</mask>
<g mask="url(#mask0_107_19653)">
<path d="M85.3799 0H149.34L149.4 126L22.4399 125.22L85.3799 0Z" fill="url(#paint1_linear_107_19653)"/>
</g>
<path d="M98 33L63.4746 101.17L63.4395 101.239L63.4229 101.28C62.9159 102.446 61.9342 102.989 60.5732 103H60.4707C59.0736 103 58.071 102.447 57.5635 101.244L57.5615 101.239L57.5293 101.176L23 33.0605H40.1064L40.2588 33.0615L40.3672 33.0625L40.4355 33.0635L40.502 33.0654L40.5664 33.0674L40.6279 33.0693L40.6875 33.0723L40.7461 33.0752C40.7556 33.0758 40.7651 33.0765 40.7744 33.0771L40.8301 33.0811L40.8838 33.0859C40.8925 33.0867 40.9015 33.0871 40.9102 33.0879L40.9619 33.0928C40.9703 33.0937 40.979 33.0947 40.9873 33.0957L41.085 33.1094L41.1328 33.1172C41.1485 33.1198 41.1643 33.1221 41.1797 33.125L41.2256 33.1338C41.377 33.1651 41.5171 33.2091 41.665 33.2705C42.0346 33.4239 42.3445 33.6744 42.5684 34.0107C42.6898 34.1933 42.7723 34.3746 42.8359 34.5732L42.8447 34.6006L60.4697 69.2148L78.0547 34.6221L78.0566 34.6152L78.0635 34.5938C78.2386 33.9597 78.6959 33.4955 79.2988 33.248L79.3271 33.2363C79.7555 33.0666 80.2522 33 80.8672 33H98ZM80.8379 36.1348C80.8188 36.1349 80.8003 36.1354 80.7822 36.1357H80.7773L60.4717 76.0791L40.1631 36.1953H28.0791L60.2988 99.7529L60.3525 99.8623L60.3848 99.8633L60.4258 99.8652H60.5752L60.6172 99.8633L60.6484 99.8623L60.6992 99.7598L92.9229 36.1348H80.8379Z" fill="white"/>
<path d="M70.3152 33C68.9845 33 68.5611 33.1812 67.9562 34.3896L53.3793 62.9667L38.8023 34.3896C38.4998 33.3021 37.774 33.6042 36.4433 33.6042H24.1043C23.4995 33.6042 22.8946 34.2688 23.0156 34.6917L50.9598 89.4896C51.3832 90.4562 52.1695 91 53.3793 91H53.4397C54.6494 91 55.4962 90.5167 55.8592 89.4896L83.8639 34.3896C84.0454 33.9667 84.0454 33.6646 83.8639 33.4229C83.6824 33.1813 83.2591 33 82.7752 33H70.3152Z" fill="white"/>
<defs>
<linearGradient id="paint0_linear_107_19653" x1="-41.46" y1="25.08" x2="-41.46" y2="108" gradientUnits="userSpaceOnUse">
<stop stop-color="#5B62FE"/>
<stop offset="1" stop-color="#3831AB"/>
</linearGradient>
<linearGradient id="paint1_linear_107_19653" x1="-8760.69" y1="18.45" x2="-8760.69" y2="103.752" gradientUnits="userSpaceOnUse">
<stop stop-color="#1F1B55" stop-opacity="0.98"/>
<stop offset="1" stop-color="#493ED1"/>
</linearGradient>
</defs>
</svg>
