<svg width="83" height="83" viewBox="0 0 83 83" fill="none" xmlns="http://www.w3.org/2000/svg">
<path d="M37.1825 58.3086V65.3291C37.1825 71.2774 31.6491 76.0845 24.8362 76.0845C18.0233 76.0845 12.4553 71.2774 12.4553 65.3291V58.3086C12.4553 64.2569 17.9887 68.4761 24.8362 68.4761C31.6491 68.4761 37.1825 64.2223 37.1825 58.3086Z" stroke="#1E1F4B" stroke-width="4" stroke-linecap="round" stroke-linejoin="round"/>
<path d="M37.1773 48.7969C37.1773 50.5261 36.6932 52.1169 35.8632 53.5002C33.8227 56.8548 29.6381 58.9644 24.7965 58.9644C19.9548 58.9644 15.7702 56.8202 13.7297 53.5002C12.8997 52.1169 12.4158 50.5261 12.4158 48.7969C12.4158 45.8228 13.799 43.1598 16.0124 41.2232C18.2603 39.2519 21.3381 38.0762 24.7618 38.0762C28.1856 38.0762 31.2636 39.2865 33.5115 41.2232C35.794 43.1252 37.1773 45.8228 37.1773 48.7969Z" stroke="#1E1F4B" stroke-width="4" stroke-linecap="round" stroke-linejoin="round"/>
<path d="M37.1825 48.7971V58.3075C37.1825 64.2559 31.6491 68.475 24.8362 68.475C18.0233 68.475 12.4553 64.2213 12.4553 58.3075V48.7971C12.4553 42.8488 17.9887 38.0417 24.8362 38.0417C28.26 38.0417 31.338 39.2521 33.5859 41.1887C35.7992 43.1254 37.1825 45.8229 37.1825 48.7971Z" stroke="#1E1F4B" stroke-width="4" stroke-linecap="round" stroke-linejoin="round"/>
<path d="M76.0832 37.9375V45.0619C76.0832 46.964 74.5615 48.5201 72.6248 48.5892H65.8464C62.1114 48.5892 58.6878 45.8572 58.3765 42.1222C58.169 39.9434 58.9989 37.903 60.4514 36.4851C61.731 35.1709 63.4948 34.4102 65.4315 34.4102H72.6248C74.5615 34.4793 76.0832 36.0354 76.0832 37.9375Z" stroke="#1E1F4B" stroke-width="4" stroke-linecap="round" stroke-linejoin="round"/>
<path d="M6.91675 36.3126V29.3959C6.91675 19.9892 12.5884 13.4184 21.4072 12.3117C22.3063 12.1734 23.2401 12.1042 24.2084 12.1042H55.3334C56.2326 12.1042 57.0972 12.1388 57.9272 12.2771C66.8497 13.3146 72.6251 19.9201 72.6251 29.3959V34.4105H65.4317C63.495 34.4105 61.7313 35.1713 60.4517 36.4855C58.9992 37.9034 58.1693 39.9438 58.3768 42.1226C58.688 45.8576 62.1117 48.5896 65.8467 48.5896H72.6251V53.6042C72.6251 63.9792 65.7084 70.8959 55.3334 70.8959H46.6876" stroke="#1E1F4B" stroke-width="4" stroke-linecap="round" stroke-linejoin="round"/>
</svg>
