<svg width="24" height="25" viewBox="0 0 24 25" fill="none" xmlns="http://www.w3.org/2000/svg">
<path d="M14.85 4.45V8.25H13.35V4.45C13.35 4.18 13.11 4.05 12.95 4.05C12.9 4.05 12.85 4.06 12.8 4.08L4.87 7.07C4.34 7.27 4 7.77 4 8.34V9.01C3.09 9.69 2.5 10.78 2.5 12.01V8.34C2.5 7.15 3.23 6.09 4.34 5.67L12.28 2.67C12.5 2.59 12.73 2.55 12.95 2.55C13.95 2.55 14.85 3.36 14.85 4.45Z" fill="CurrentColor"/>
<path d="M21.5 15V16C21.5 16.27 21.29 16.49 21.01 16.5H19.55C19.02 16.5 18.54 16.11 18.5 15.59C18.47 15.28 18.59 14.99 18.79 14.79C18.97 14.6 19.22 14.5 19.49 14.5H21C21.29 14.51 21.5 14.73 21.5 15Z" fill="CurrentColor"/>
<path d="M19.48 13.45H20.5C21.05 13.45 21.5 13 21.5 12.45V12.01C21.5 9.94 19.81 8.25 17.74 8.25H6.26C5.41 8.25 4.63 8.53 4 9.01C3.09 9.69 2.5 10.78 2.5 12.01V18.74C2.5 20.81 4.19 22.5 6.26 22.5H17.74C19.81 22.5 21.5 20.81 21.5 18.74V18.55C21.5 18 21.05 17.55 20.5 17.55H19.63C18.67 17.55 17.75 16.96 17.5 16.03C17.29 15.27 17.54 14.54 18.04 14.05C18.41 13.67 18.92 13.45 19.48 13.45ZM14 13.25H7C6.59 13.25 6.25 12.91 6.25 12.5C6.25 12.09 6.59 11.75 7 11.75H14C14.41 11.75 14.75 12.09 14.75 12.5C14.75 12.91 14.41 13.25 14 13.25Z" fill="CurrentColor"/>
</svg>
