<svg width="120" height="120" viewBox="0 0 120 120" fill="none" xmlns="http://www.w3.org/2000/svg">
<circle cx="60" cy="60" r="60" fill="#EDF0F4"/>
<path d="M41.5873 69.2344L22.5397 74.9486L21.9048 38.7582L40.9524 34.3137L41.5873 69.2344Z" fill="#8400FD"/>
<path fill-rule="evenodd" clip-rule="evenodd" d="M21.5238 75.5201C22.2222 75.9645 22.9841 76.2185 23.8095 76.2185C24.1421 76.2185 24.4263 76.1701 24.7465 76.1156C24.7931 76.1077 24.8405 76.0996 24.8889 76.0915L40.5714 72.0915C42.2857 71.6471 43.4921 70.1868 43.4921 68.5995V36.663C43.4921 35.5201 42.9206 34.4407 41.9048 33.7423C40.8889 33.0439 39.619 32.8534 38.4127 33.1074L22.8571 36.5995C21.2063 36.9804 20 38.3138 20 39.9011V72.7899C20 73.8693 20.5714 74.8852 21.5238 75.5201ZM37.0794 37.0439C37.2698 36.9804 37.5238 36.9804 37.7143 36.9804C38.2857 36.9804 38.8571 37.1709 39.4286 37.5519C40.0635 38.0598 40.4444 38.8217 40.4444 39.6471V67.3296C40.4444 68.536 39.619 69.6153 38.4762 69.9328L26.2857 73.4249C25.5238 73.6788 24.7619 73.4884 24.127 73.0439C23.4921 72.5995 23.1111 71.8376 23.1111 71.0757V42.5042C23.1111 41.3614 23.9365 40.3455 25.0159 40.0915L37.0794 37.0439Z" fill="white"/>
<path d="M54.9206 81.2978L35.873 87.0121L35.238 50.8216L54.2857 46.3772L54.9206 81.2978Z" fill="#02FFDB"/>
<path fill-rule="evenodd" clip-rule="evenodd" d="M35.4286 86.8852C36.0635 87.3296 36.8254 87.5836 37.5873 87.5836C37.9048 87.5836 38.2222 87.5201 38.5397 87.4566L53.3968 83.5836C55.0476 83.2026 56.1905 81.8058 56.1905 80.2185V49.2979C56.1905 48.2185 55.6825 47.2026 54.7302 46.5042C53.7778 45.8693 52.5714 45.6153 51.4286 45.8693L36.6984 49.2344C35.1111 49.5518 33.9683 50.8852 33.9683 52.409V84.2185C33.9683 85.2979 34.5397 86.2502 35.4286 86.8852ZM50.4127 48.4725C50.6032 48.409 50.8572 48.409 51.0476 48.409C51.6191 48.409 52.1905 48.5995 52.7619 48.9804C53.3968 49.4883 53.7778 50.2502 53.7778 51.0756V78.7582C53.7778 79.9645 52.9524 81.0439 51.8095 81.3614L39.6191 84.8534C38.8572 85.1074 38.0952 84.9169 37.4603 84.4725C36.8254 84.028 36.4445 83.2661 36.4445 82.5042V53.9328C36.4445 52.7899 37.2698 51.7741 38.3492 51.5201L50.4127 48.4725Z" fill="white"/>
<path d="M69.5238 69.8694L50.4762 75.5837L49.8413 39.3932L68.8889 34.9487L69.5238 69.8694Z" fill="#8400FD"/>
<path fill-rule="evenodd" clip-rule="evenodd" d="M50.0319 75.5202C50.6668 75.9646 51.4287 76.2186 52.1906 76.2186C52.508 76.2186 52.8255 76.1551 53.143 76.0281L67.9366 72.1551C69.5874 71.7742 70.7303 70.3774 70.7303 68.7901V37.8059C70.7303 36.7266 70.2223 35.7107 69.2699 35.0123C68.3176 34.3774 67.1112 34.1234 65.9684 34.3774L51.3017 37.7424C49.7144 38.0599 48.5715 39.3932 48.5715 40.917V72.8535C48.5715 73.9329 49.143 74.8853 50.0319 75.5202ZM65.016 37.044C65.2065 36.9805 65.4604 36.9805 65.6509 36.9805C66.2223 36.9805 66.7938 37.171 67.3017 37.552C67.9366 38.0599 68.3176 38.8218 68.3176 39.6472V67.3297C68.3176 68.5361 67.4922 69.6154 66.3493 69.9329L54.2223 73.425C53.4604 73.6789 52.635 73.4885 52.0001 73.044C51.3652 72.5996 50.9842 71.8377 50.9842 71.0758V42.5043C50.9842 41.3615 51.8096 40.3456 52.889 40.0916L65.016 37.044Z" fill="white"/>
<path d="M84.1269 81.2978L65.0793 87.0121L64.4443 50.8216L83.492 46.3772L84.1269 81.2978Z" fill="#02FFDB"/>
<path fill-rule="evenodd" clip-rule="evenodd" d="M64.0636 86.9486C64.762 87.393 65.5239 87.647 66.3493 87.647C66.7303 87.647 67.0477 87.5835 67.4287 87.4565L83.1112 83.4565C84.8255 83.0121 86.0319 81.5517 86.0319 79.9644V48.0279C86.0319 46.9486 85.4604 45.8692 84.4446 45.1708C83.4287 44.4724 82.1588 44.2819 80.9525 44.5359L65.3969 48.0279C63.7461 48.4089 62.5398 49.7422 62.5398 51.3295V84.2184C62.5398 85.2978 63.1112 86.3136 64.0636 86.9486ZM79.6192 48.4724C79.8096 48.4089 80.0636 48.4089 80.2541 48.4089C80.8255 48.4089 81.3969 48.5994 81.9684 48.9803C82.6033 49.4883 82.9842 50.2502 82.9842 51.0756V78.7581C82.9842 79.9644 82.1588 81.0438 81.016 81.3613L68.8255 84.8533C68.0636 85.1073 67.3017 84.9168 66.6668 84.4724C66.0319 84.0279 65.6509 83.266 65.6509 82.5041V53.9327C65.6509 52.7898 66.4763 51.774 67.5557 51.52L79.6192 48.4724Z" fill="white"/>
<path d="M98.7301 69.2344L79.6825 74.9486L79.0476 38.7582L98.0952 34.3137L98.7301 69.2344Z" fill="#8400FD"/>
<path fill-rule="evenodd" clip-rule="evenodd" d="M78.0319 75.5201C78.7303 75.9645 79.4922 76.2185 80.3176 76.2185C80.6985 76.2185 81.016 76.155 81.3969 76.028L97.0795 72.028C98.7938 71.5836 100 70.1233 100 68.536V36.5995C100 35.5201 99.4287 34.4407 98.4128 33.7423C97.3969 33.0439 96.1271 32.8534 94.9208 33.1074L79.3652 36.5995C77.7144 36.9804 76.5081 38.3138 76.5081 39.9011V72.7899C76.5081 73.8693 77.0795 74.8852 78.0319 75.5201ZM93.5874 37.0439C93.7779 36.9804 94.0319 36.9804 94.2223 36.9804C94.7938 36.9804 95.3652 37.1709 95.9366 37.5519C96.5716 38.0598 96.9525 38.8217 96.9525 39.6471V67.3296C96.9525 68.536 96.1271 69.6153 94.9842 69.9328L82.7938 73.4249C82.0319 73.6788 81.27 73.4884 80.635 73.0439C80.0001 72.5995 79.6192 71.8376 79.6192 71.0757V42.5042C79.6192 41.3614 80.4446 40.3455 81.5239 40.0915L93.5874 37.0439Z" fill="white"/>
</svg>
