<svg width="120" height="120" viewBox="0 0 120 120" fill="none" xmlns="http://www.w3.org/2000/svg">
<circle cx="60" cy="60" r="60" fill="#EDF0F4"/>
<path d="M93.6791 58.7832H93.6003L91.1068 46.7408C91.5974 46.5598 91.8884 46.0539 91.798 45.5388C91.7077 45.0237 91.2619 44.647 90.739 44.6438C90.5469 44.6439 90.3585 44.6967 90.1944 44.7966L80.3828 33.1937C80.8095 32.7867 80.8255 32.1109 80.4186 31.6842C80.0117 31.2575 79.3358 31.2414 78.9091 31.6484C78.8225 31.7303 78.7506 31.8264 78.6965 31.9326L68.8276 27.4615C68.8663 27.3517 68.8865 27.2363 68.8873 27.1199C68.8855 26.5572 68.4526 26.0898 67.8916 26.0449C67.3307 26.0001 66.829 26.3927 66.7377 26.948H60.7356C60.306 26.5877 59.6797 26.5877 59.25 26.948H53.236C53.1878 26.5558 52.9292 26.2212 52.5618 26.0758C52.1944 25.9304 51.7769 25.9973 51.4733 26.2503C51.1698 26.5033 51.0287 26.9019 51.1055 27.2895C51.1131 27.3481 51.1267 27.4057 51.1461 27.4615L41.2939 31.9326C41.0242 31.4083 40.3804 31.2019 39.8561 31.4716C39.3317 31.7414 39.1254 32.3851 39.3951 32.9095C39.4504 33.0149 39.5222 33.1108 39.6077 33.1937L29.7531 44.7632C29.589 44.6633 29.4006 44.6104 29.2085 44.6103C28.6856 44.6135 28.2398 44.9903 28.1494 45.5053C28.0591 46.0204 28.3501 46.5264 28.8407 46.7074L26.3926 58.7904H26.3137C25.5795 58.821 25 59.4252 25 60.1601C25 60.895 25.5795 61.4992 26.3137 61.5299H26.3926L28.855 73.5866C28.3644 73.7676 28.0734 74.2736 28.1638 74.7886C28.2541 75.3037 28.6999 75.6805 29.2228 75.6837C29.4146 75.6813 29.6024 75.6286 29.7674 75.5308L39.6101 87.1266C39.3032 87.4194 39.1987 87.8661 39.344 88.2646C39.4892 88.6631 39.8566 88.9378 40.2799 88.9645C40.7032 88.9912 41.1022 88.7648 41.2963 88.3877L51.1581 92.8612C51.1203 92.9712 51.1001 93.0864 51.0984 93.2027C51.1002 93.7654 51.5331 94.2328 52.094 94.2777C52.655 94.3226 53.1567 93.93 53.2479 93.3747H59.25C59.6804 93.733 60.3053 93.733 60.7356 93.3747H66.7377C66.829 93.93 67.3307 94.3226 67.8916 94.2777C68.4526 94.2328 68.8855 93.7654 68.8873 93.2027C68.8867 93.0863 68.8665 92.9709 68.8276 92.8612L78.6989 88.3781C78.8931 88.7552 79.292 88.9817 79.7153 88.955C80.1387 88.9283 80.506 88.6535 80.6513 88.255C80.7965 87.8565 80.692 87.4098 80.3852 87.117L90.2039 75.5786C90.3689 75.6764 90.5567 75.7291 90.7485 75.7314C91.2714 75.7282 91.7172 75.3515 91.8076 74.8364C91.8979 74.3213 91.6069 73.8154 91.1163 73.6344L93.6074 61.5156H93.6863C94.4205 61.4849 95 60.8807 95 60.1458C95 59.4109 94.4205 58.8067 93.6863 58.776L93.6791 58.7832Z" fill="#0432A9"/>
<path d="M90.653 46.8077L91.7564 55.6855L88.243 48.3148C88.7015 47.9721 88.8811 47.3693 88.6849 46.8316L89.8194 46.3062C90.0027 46.5953 90.3116 46.7812 90.653 46.8077Z" fill="#EDF0F4"/>
<path d="M85.8427 69.8631L85.6039 60.9926C85.9523 60.9659 86.2484 60.7277 86.349 60.3931H88.1212C88.1212 60.4361 88.1404 60.479 88.1523 60.5244C88.1642 60.5698 88.181 60.6224 88.1977 60.6701V60.6988C88.3352 61.0448 88.6103 61.3182 88.9572 61.4535L88.0353 67.7589L86.3634 70.809L85.8427 69.8631Z" fill="#EDF0F4"/>
<path d="M33.5984 70.804L31.9265 67.754L31.0142 61.4462C31.4651 61.2702 31.7864 60.865 31.8549 60.3857H33.6629C33.6874 60.4397 33.7161 60.4916 33.7489 60.541C33.876 60.7794 34.1095 60.9428 34.377 60.9805L34.1382 69.8582L33.5984 70.804Z" fill="#EDF0F4"/>
<path d="M34.1454 50.4427L34.3842 59.3205C34.1159 59.3563 33.8817 59.5202 33.7561 59.7599C33.7223 59.8087 33.6935 59.8607 33.6701 59.9152H31.8716C31.8045 59.4353 31.4828 59.0295 31.0309 58.8547L31.9528 52.5398L33.6247 49.4897L34.1454 50.4427Z" fill="#EDF0F4"/>
<path d="M86.3825 49.5042L88.0544 52.5542L88.9763 58.8596C88.6284 58.9934 88.3528 59.2673 88.2168 59.6143V59.643C88.1988 59.6906 88.1837 59.7393 88.1714 59.7887C88.1585 59.8318 88.1482 59.8757 88.1403 59.92H86.3825C86.2836 59.5842 85.9865 59.3452 85.6373 59.3206L85.8761 50.45L86.3825 49.5042Z" fill="#EDF0F4"/>
<path d="M86.552 49.2057L86.9533 48.5059C87.1057 48.5651 87.2675 48.5967 87.431 48.599H87.4716L87.9278 51.704L86.552 49.2057Z" fill="#EDF0F4"/>
<path d="M91.4674 59.9535H90.8249C90.7588 59.5526 90.517 59.2023 90.1657 58.9981C90.1387 58.9816 90.1108 58.9664 90.0821 58.9528C90.052 58.9357 90.0209 58.9206 89.989 58.9074C89.8202 58.8306 89.637 58.7907 89.4516 58.7903H89.3776L88.618 53.6099L91.7779 59.3803C91.6097 59.5282 91.4961 59.7284 91.4555 59.9487L91.4674 59.9535Z" fill="#EDF0F4"/>
<path d="M91.7803 60.9448L88.6276 66.7152L89.3871 61.5347H89.4611C89.6464 61.5332 89.8294 61.4934 89.9985 61.4177C90.0296 61.4177 90.0606 61.3867 90.0893 61.3723C90.1179 61.3586 90.1458 61.3435 90.1729 61.3269C90.5232 61.1218 90.7647 60.7719 90.8321 60.3716H91.4746C91.5113 60.5897 91.6177 60.79 91.7779 60.9424L91.7803 60.9448Z" fill="#EDF0F4"/>
<path d="M85.869 49.552L85.8857 48.9215C85.9398 48.9168 85.9933 48.9072 86.0457 48.8928L86.1436 49.072L85.869 49.552Z" fill="#EDF0F4"/>
<path d="M86.1078 47.2662V47.2853C86.0193 47.2519 85.9254 47.2349 85.8308 47.2351C85.7629 47.2351 85.6953 47.2448 85.6301 47.2638V47.2208L85.3722 46.6523L86.1532 46.927C86.1165 47.0359 86.094 47.1491 86.0863 47.2638L86.1078 47.2662Z" fill="#EDF0F4"/>
<path d="M85.5967 48.8928L85.5656 50.087L82.0618 56.1823L78.5938 52.2796C78.7153 52.1304 78.7819 51.9441 78.7825 51.7517C78.7827 51.6708 78.7706 51.5903 78.7467 51.5129L85.0927 48.5178C85.2019 48.695 85.3716 48.8265 85.5704 48.888L85.5967 48.8928Z" fill="#EDF0F4"/>
<path d="M74.1084 78.0696L74.5717 77.9072L74.1562 79.1014C74.1144 79.0938 74.072 79.0898 74.0296 79.0895C73.9742 79.0891 73.9189 79.0947 73.8648 79.1062C74.0896 78.8129 74.1767 78.4367 74.1036 78.0744L74.1084 78.0696Z" fill="#EDF0F4"/>
<path d="M73.9651 77.6685C73.8539 77.4619 73.6888 77.2894 73.4874 77.1693L76.8073 68.9054L77.156 68.8433C77.2279 69.0493 77.3757 69.2201 77.5692 69.3209L74.7318 77.3795L73.9651 77.6685Z" fill="#EDF0F4"/>
<path d="M73.1745 79.9447L71.2638 80.2958L72.0591 79.4216C72.4172 79.6584 72.8683 79.7057 73.2677 79.5482C73.2106 79.6585 73.1788 79.78 73.1745 79.9041L73.1602 79.9375L73.1745 79.9447Z" fill="#EDF0F4"/>
<path d="M60.8264 82.5097L70.2821 80.7686L64.7888 86.8327L60.6783 83.0113C60.7742 82.8704 60.8257 82.704 60.8264 82.5336C60.8181 82.5249 60.8109 82.5153 60.8049 82.5049L60.8264 82.5097Z" fill="#EDF0F4"/>
<path d="M60.7738 82.2328C60.727 82.0952 60.6446 81.9724 60.535 81.8769L62.589 78.5188H71.4955C71.5333 78.742 71.6279 78.9517 71.7701 79.1278L70.6189 80.4104L60.7738 82.2328Z" fill="#EDF0F4"/>
<path d="M59.3408 83.0018L55.2303 86.8232L49.737 80.759L59.1927 82.5002V82.5145C59.1842 82.6818 59.2249 82.8478 59.3097 82.9922L59.3408 83.0018Z" fill="#EDF0F4"/>
<path d="M59.2476 82.2328L49.4241 80.4199L48.2609 79.1374C48.4032 78.9612 48.4977 78.7515 48.5356 78.5283H57.442L59.465 81.8721C59.3557 81.9669 59.2734 82.0888 59.2262 82.2256L59.2476 82.2328Z" fill="#EDF0F4"/>
<path d="M46.8279 79.9017C46.8236 79.7776 46.7917 79.656 46.7347 79.5458C47.1341 79.7032 47.5852 79.656 47.9433 79.4192L48.7386 80.2934L46.8279 79.9423V79.9017Z" fill="#EDF0F4"/>
<path d="M46.1472 79.1014C46.0512 79.0799 45.9517 79.0799 45.8558 79.1014L45.4402 77.9072L45.9036 78.0696C45.8883 78.1484 45.8803 78.2283 45.8797 78.3085C45.8744 78.5898 45.958 78.8656 46.1185 79.0967L46.1472 79.1014Z" fill="#EDF0F4"/>
<path d="M46.0445 77.6685L45.2587 77.3938L42.4356 69.3114C42.6291 69.2106 42.7768 69.0397 42.8488 68.8337L43.1975 68.8958L46.5174 77.1598C46.3104 77.2807 46.1403 77.4557 46.0254 77.6661L46.0445 77.6685Z" fill="#EDF0F4"/>
<path d="M45.9012 42.2433L45.4378 42.4058L45.8534 41.2115C45.8956 41.2139 45.9378 41.2139 45.98 41.2115C46.0352 41.2095 46.0903 41.2039 46.1448 41.1948C45.9358 41.4968 45.8426 41.8639 45.8821 42.229L45.9012 42.2433Z" fill="#EDF0F4"/>
<path d="M46.0445 42.6448C46.157 42.8503 46.3217 43.0225 46.5222 43.144L43.2023 51.4079L42.8535 51.47C42.7831 51.2631 42.6349 51.0918 42.4403 50.9923L45.273 42.9099L46.0445 42.6448Z" fill="#EDF0F4"/>
<path d="M46.8446 40.3589L48.7553 40.0078L47.96 40.882C47.6028 40.6428 47.1505 40.5954 46.7514 40.7554C46.8079 40.6449 46.8397 40.5235 46.8446 40.3995L46.8589 40.3661L46.8446 40.3589Z" fill="#EDF0F4"/>
<path d="M59.1903 37.8033L49.7346 39.5444L55.2279 33.4802L59.3384 37.3017C59.2419 37.4423 59.1902 37.6088 59.1903 37.7794C59.1903 37.7794 59.1712 37.7961 59.1712 37.8009L59.1903 37.8033Z" fill="#EDF0F4"/>
<path d="M59.2429 38.0803C59.291 38.2173 59.3732 38.3398 59.4817 38.4362L57.4253 41.7919H48.5189C48.482 41.5684 48.3873 41.3585 48.2442 41.1829L49.4074 39.9003L59.2429 38.0803Z" fill="#EDF0F4"/>
<path d="M60.6759 37.3112L64.7864 33.4897L70.2798 39.5539L60.8264 37.8128V37.7985C60.8269 37.6227 60.7718 37.4513 60.6688 37.3088L60.6759 37.3112Z" fill="#EDF0F4"/>
<path d="M60.7691 38.0803L70.5926 39.8931L71.7558 41.1757C71.6116 41.3533 71.5168 41.5659 71.4811 41.7919H62.5747L60.5207 38.4338C60.6281 38.3393 60.7102 38.2194 60.7595 38.0851L60.7691 38.0803Z" fill="#EDF0F4"/>
<path d="M73.1888 40.4115C73.1938 40.5354 73.2256 40.6569 73.282 40.7674C72.883 40.6074 72.4307 40.6548 72.0735 40.8939L71.2781 40.0198L73.1888 40.3709V40.4115Z" fill="#EDF0F4"/>
<path d="M73.8696 41.2117C73.9241 41.2208 73.9791 41.2264 74.0344 41.2284C74.0765 41.2309 74.1188 41.2309 74.1609 41.2284L74.5765 42.4226L74.1132 42.2602C74.1869 41.8979 74.0997 41.5214 73.8743 41.2284L73.8696 41.2117Z" fill="#EDF0F4"/>
<path d="M73.9723 42.6447L74.758 42.9193L77.5812 51.0017C77.3866 51.1012 77.2384 51.2726 77.168 51.4794L76.8192 51.4173L73.485 43.1534C73.6867 43.0273 73.8515 42.8502 73.9627 42.6399L73.9723 42.6447Z" fill="#EDF0F4"/>
<path d="M80.5309 58.8454C80.2912 58.7565 80.0295 58.7457 79.7833 58.8143L78.4625 55.5302L78.1854 52.5662C78.27 52.5428 78.3506 52.5065 78.4243 52.4587L81.9185 56.4307L80.5309 58.8454Z" fill="#EDF0F4"/>
<path d="M82.229 56.7817L84.8085 59.7052L84.7273 59.8986H81.4193C81.365 59.568 81.1875 59.2701 80.9225 59.0651L82.229 56.7817Z" fill="#EDF0F4"/>
<path d="M79.0166 59.3445C78.9516 59.3239 78.8841 59.3127 78.816 59.3111L78.6082 57.0803L79.3749 58.9911C79.2308 59.0825 79.1066 59.2019 79.0094 59.3422L79.0166 59.3445Z" fill="#EDF0F4"/>
<path d="M79.3725 61.3198L78.6058 63.2305L78.8136 60.9997C78.8815 60.996 78.9488 60.9848 79.0142 60.9663C79.108 61.1051 79.2271 61.225 79.3653 61.3198H79.3725Z" fill="#EDF0F4"/>
<path d="M78.2619 56.206L78.5604 59.3444C78.295 59.419 78.0839 59.6203 77.9967 59.8818H72.083C72.054 59.7954 72.0104 59.7146 71.954 59.643L77.0366 53.168L78.2619 56.206Z" fill="#EDF0F4"/>
<path d="M59.059 59.1557C58.8611 59.349 58.7291 59.5997 58.6816 59.8722L49.4671 59.8842C49.3907 59.7263 49.2672 59.5961 49.1136 59.5116L52.4836 50.6601C52.6603 50.707 52.8475 50.6944 53.0163 50.6243L59.059 59.1557Z" fill="#EDF0F4"/>
<path d="M53.3769 50.3185C53.4579 50.2071 53.5104 50.0776 53.5298 49.9412H66.4702C66.4896 50.0776 66.5421 50.2071 66.6231 50.3185L60.5446 58.893C60.3738 58.8143 60.188 58.7735 60 58.7735H59.9833C59.7953 58.7735 59.6095 58.8143 59.4387 58.893L53.3769 50.3185Z" fill="#EDF0F4"/>
<path d="M49.4623 60.4336H58.6768C58.7248 60.706 58.8567 60.9565 59.0542 61.1501L53.0115 69.6935C52.8433 69.6209 52.6553 69.6083 52.4789 69.6577L49.1088 60.8205C49.2638 60.7312 49.3873 60.596 49.4623 60.4336V60.4336Z" fill="#EDF0F4"/>
<path d="M59.4411 61.4128C59.6126 61.4893 59.7979 61.53 59.9857 61.5323H60.0024C60.1901 61.53 60.3755 61.4893 60.5469 61.4128L66.6111 69.9753C66.5293 70.0863 66.4768 70.2161 66.4583 70.3527H53.5226C53.5041 70.2161 53.4516 70.0863 53.3698 69.9753L59.4411 61.4128Z" fill="#EDF0F4"/>
<path d="M60.9339 61.1501C61.1313 60.9565 61.2633 60.706 61.3112 60.4336H70.4852C70.5522 60.6193 70.6813 60.7763 70.8506 60.8778L67.5068 69.6601C67.3297 69.6095 67.1406 69.6222 66.9718 69.6959L60.9339 61.1501Z" fill="#EDF0F4"/>
<path d="M70.4875 59.8699L61.3041 59.858C61.2566 59.5855 61.1246 59.3348 60.9267 59.1415L66.967 50.5957C67.1402 50.6689 67.3332 50.6807 67.514 50.6291L70.8578 59.4114C70.6829 59.5144 70.5514 59.6773 70.4875 59.8699Z" fill="#EDF0F4"/>
<path d="M67.3014 48.9762C67.1984 48.9761 67.0962 48.9955 67.0005 49.0336L62.8374 42.2266H71.4716C71.5185 42.4978 71.6477 42.7479 71.8418 42.9431L67.5426 49.0097C67.4652 48.9867 67.3845 48.9762 67.3038 48.9786L67.3014 48.9762Z" fill="#EDF0F4"/>
<path d="M66.7783 49.1627C66.6112 49.2926 66.5002 49.4814 66.4678 49.6906H53.5226C53.4903 49.4814 53.3792 49.2926 53.2121 49.1627L57.4659 42.2363H62.5222L66.7783 49.1627Z" fill="#EDF0F4"/>
<path d="M52.9972 49.0362C52.8242 48.9662 52.6319 48.9603 52.455 49.0194L48.1678 42.9529C48.3626 42.7583 48.492 42.5078 48.538 42.2363H57.1721L52.9972 49.0362Z" fill="#EDF0F4"/>
<path d="M52.2544 50.5479L48.8843 59.4066C48.8264 59.393 48.767 59.3866 48.7076 59.3875C48.5524 59.3874 48.4003 59.4304 48.2681 59.5117L43.0781 52.8838L43.5916 51.6036L51.8913 50.0894C51.9522 50.2787 52.0772 50.4408 52.2448 50.5479H52.2544Z" fill="#EDF0F4"/>
<path d="M48.698 60.9183C48.7605 60.9174 48.8229 60.911 48.8843 60.8992L52.2567 69.7579C52.087 69.8626 51.96 70.0243 51.8985 70.2141L43.5987 68.6998L43.0852 67.4196L48.2633 60.7917C48.3946 60.8713 48.5445 60.9149 48.698 60.9183Z" fill="#EDF0F4"/>
<path d="M52.4454 71.2889C52.6227 71.3457 52.8141 71.3398 52.9876 71.2722L57.1506 78.0744H48.5165C48.4716 77.8026 48.342 77.5518 48.1463 77.3579L52.4454 71.2889Z" fill="#EDF0F4"/>
<path d="M53.2121 71.1433C53.3783 71.0127 53.4891 70.8242 53.5226 70.6155H66.4678C66.5013 70.8242 66.6122 71.0127 66.7783 71.1433L62.5246 78.0697H57.4635L53.2121 71.1433Z" fill="#EDF0F4"/>
<path d="M67.0028 71.2722C67.1763 71.3398 67.3677 71.3457 67.545 71.2889L71.8442 77.3555C71.6492 77.55 71.5198 77.8005 71.474 78.072H62.8398L67.0028 71.2722Z" fill="#EDF0F4"/>
<path d="M67.7528 69.7604L71.0966 60.9758C71.3318 61.0336 71.5805 60.9856 71.7773 60.8445L76.9267 67.4222L76.4108 68.7L68.1039 70.2142C68.0422 70.0239 67.9142 69.8621 67.7433 69.7581L67.7528 69.7604Z" fill="#EDF0F4"/>
<path d="M71.2901 59.3087C71.2248 59.3084 71.1598 59.3164 71.0966 59.3326L67.7528 50.548C67.922 50.4426 68.0488 50.2812 68.1111 50.0918L76.4108 51.6061L76.9243 52.8862L71.7677 59.4663C71.6252 59.3636 71.4538 59.3085 71.2781 59.3087H71.2901Z" fill="#EDF0F4"/>
<path d="M77.3495 52.3489L77.242 52.4851L76.9267 51.7017L77.1059 51.7351V51.7566C77.1063 51.9767 77.1919 52.1881 77.3447 52.3465L77.3495 52.3489Z" fill="#EDF0F4"/>
<path d="M77.3495 52.762L77.5525 52.5017C77.665 52.5602 77.7889 52.5936 77.9155 52.5996L78.109 54.6561L77.3495 52.762Z" fill="#EDF0F4"/>
<path d="M76.2914 51.3028L68.1541 49.8291C68.1535 49.6193 68.0742 49.4173 67.9319 49.2631L72.212 43.2061C72.4794 43.3372 72.7835 43.3734 73.0742 43.3088L76.2914 51.3028Z" fill="#EDF0F4"/>
<path d="M62.2594 41.7919H57.7453L59.7206 38.5747C59.9006 38.6517 60.1042 38.6517 60.2842 38.5747L62.2594 41.7919Z" fill="#EDF0F4"/>
<path d="M46.9258 43.3088C47.2165 43.3746 47.5209 43.3383 47.788 43.2061L52.0681 49.2631C51.9258 49.4173 51.8465 49.6193 51.8459 49.8291L43.7014 51.3028L46.9258 43.3088Z" fill="#EDF0F4"/>
<path d="M42.8894 51.7327L43.0685 51.6992L42.7532 52.4826L42.6458 52.3465C42.8005 52.1874 42.8864 51.9737 42.8846 51.7518C42.8871 51.7457 42.8887 51.7392 42.8894 51.7327Z" fill="#EDF0F4"/>
<path d="M42.4356 52.4968L42.641 52.7572L41.8791 54.6464L42.0725 52.59C42.1989 52.5857 42.3228 52.5539 42.4356 52.4968V52.4968Z" fill="#EDF0F4"/>
<path d="M42.9562 53.1609L48.0651 59.6622C48.01 59.7228 47.9641 59.7912 47.9289 59.8652H41.9436C41.8633 59.6255 41.6789 59.4349 41.442 59.3469L41.7382 56.1894L42.9562 53.1609Z" fill="#EDF0F4"/>
<path d="M41.5232 55.5254L40.2024 58.8094C39.9562 58.7408 39.6945 58.7516 39.4548 58.8405L38.0672 56.4258L41.5614 52.4539C41.6353 52.5012 41.7158 52.5374 41.8002 52.5613L41.5232 55.5254Z" fill="#EDF0F4"/>
<path d="M41.1697 59.3087H41.1363C41.0752 59.3067 41.0141 59.3132 40.9547 59.3278C40.8626 59.1948 40.7468 59.0799 40.6132 58.9886L41.3799 57.0779L41.1697 59.3087Z" fill="#EDF0F4"/>
<path d="M41.3775 63.2257L40.6108 61.315C40.7442 61.2226 40.8605 61.1079 40.9547 60.9758C41.0145 60.9881 41.0753 60.9945 41.1363 60.9949H41.1697L41.3775 63.2257Z" fill="#EDF0F4"/>
<path d="M39.0583 59.0556C38.7933 59.2607 38.6158 59.5585 38.5616 59.8891H35.2966C35.2751 59.8141 35.2429 59.7425 35.201 59.6766L37.7638 56.7627L39.0583 59.0556Z" fill="#EDF0F4"/>
<path d="M35.01 59.4949C34.9084 59.4107 34.7879 59.3525 34.6589 59.3253L34.4487 50.9873L37.6205 56.538L35.01 59.4949Z" fill="#EDF0F4"/>
<path d="M34.6589 60.9806C34.7872 60.9512 34.9072 60.8933 35.01 60.811L37.6205 63.7655L34.4487 69.3186L34.6589 60.9806Z" fill="#EDF0F4"/>
<path d="M35.1939 60.6127C35.2349 60.5463 35.267 60.4749 35.2894 60.4001L38.5592 60.4145C38.6146 60.7447 38.7919 61.0422 39.056 61.248L37.7567 63.5266L35.1939 60.6127Z" fill="#EDF0F4"/>
<path d="M39.4572 61.4629C39.6974 61.5494 39.9583 61.5602 40.2048 61.4939L41.5304 64.7804L41.8074 67.7444C41.7222 67.7663 41.6414 67.8026 41.5686 67.8519L38.0767 63.88L39.4572 61.4629Z" fill="#EDF0F4"/>
<path d="M41.731 64.0903L41.4348 60.9328C41.6708 60.8433 41.8547 60.6534 41.9364 60.4146H47.9289C47.9654 60.4878 48.0112 60.556 48.0651 60.6176L42.9658 67.1451L41.731 64.0903Z" fill="#EDF0F4"/>
<path d="M42.6434 67.9499L42.7508 67.8137L43.0661 68.5971L42.887 68.5637V68.5422C42.8859 68.3243 42.8003 68.1154 42.6481 67.9594L42.6434 67.9499Z" fill="#EDF0F4"/>
<path d="M42.6434 67.5368L42.4356 67.7972C42.3235 67.7375 42.1994 67.7041 42.0725 67.6993L41.8791 65.6428L42.6434 67.5368Z" fill="#EDF0F4"/>
<path d="M43.7014 68.9841L51.8412 70.453C51.8427 70.6627 51.9218 70.8643 52.0633 71.0191L47.7785 77.0976C47.5117 76.9641 47.2068 76.9278 46.9162 76.9949L43.7014 68.9841Z" fill="#EDF0F4"/>
<path d="M57.7358 78.5044H62.2594L60.2842 81.7216C60.1046 81.6429 59.9002 81.6429 59.7206 81.7216L57.7358 78.5044Z" fill="#EDF0F4"/>
<path d="M73.0694 76.9877C72.7788 76.9206 72.4739 76.957 72.2072 77.0904L67.9272 71.0334C68.0686 70.8786 68.1478 70.677 68.1493 70.4673L76.2866 68.9937L73.0694 76.9877Z" fill="#EDF0F4"/>
<path d="M77.0963 68.5637L76.9172 68.5971L77.2348 67.8257L77.3423 67.9618C77.1869 68.1205 77.1009 68.3344 77.1035 68.5565C77.1026 68.5661 77.1026 68.5757 77.1035 68.5852L77.0963 68.5637Z" fill="#EDF0F4"/>
<path d="M77.5477 67.7972L77.3447 67.5368L78.1066 65.6428L77.9131 67.6993C77.7836 67.7048 77.6574 67.7416 77.5453 67.8067L77.5477 67.7972Z" fill="#EDF0F4"/>
<path d="M77.027 67.1331L71.9469 60.6605C72.0023 60.5882 72.0458 60.5076 72.0758 60.4216H77.9824C78.071 60.6822 78.2815 60.883 78.5461 60.959L78.2618 64.095L77.027 67.1331Z" fill="#EDF0F4"/>
<path d="M78.4601 64.7685L79.7809 61.4844C80.0274 61.5507 80.2883 61.5399 80.5285 61.4534L81.9161 63.8681L78.4219 67.84C78.3493 67.7903 78.2684 67.7539 78.183 67.7325L78.4601 64.7685Z" fill="#EDF0F4"/>
<path d="M80.9249 61.2385C81.189 61.0326 81.3663 60.7352 81.4217 60.405L84.7249 60.3906L84.8061 60.5841L82.229 63.5266L80.9249 61.2385Z" fill="#EDF0F4"/>
<path d="M84.9852 60.7727C85.0808 60.8556 85.1933 60.9168 85.3148 60.9518L85.525 69.3113L82.3556 63.7654L84.9852 60.7727Z" fill="#EDF0F4"/>
<path d="M85.3148 59.3398C85.1925 59.3729 85.0796 59.4342 84.9852 59.5189L82.358 56.5358L85.5298 50.9851L85.3148 59.3398Z" fill="#EDF0F4"/>
<path d="M85.1883 47.5099L82.1168 45.5037L84.787 46.4423L84.8013 46.471L85.2384 47.4598C85.2241 47.4813 85.205 47.4956 85.1907 47.5147L85.1883 47.5099Z" fill="#EDF0F4"/>
<path d="M85.0282 47.763C84.964 47.9223 84.9515 48.0977 84.9924 48.2645L78.6488 51.2835C78.4743 51.0008 78.1444 50.8539 77.8176 50.9133L75.0733 43.0315L80.9632 45.0927L85.0282 47.763Z" fill="#EDF0F4"/>
<path d="M74.8942 42.5084L74.4165 41.1064C74.4976 41.0618 74.5716 41.0055 74.6362 40.9392L79.5086 44.1469L74.8942 42.5084Z" fill="#EDF0F4"/>
<path d="M74.2541 39.554C74.0334 39.4823 73.7924 39.5111 73.5949 39.6328L67.4399 32.0377C67.5111 31.9574 67.5677 31.8652 67.6071 31.7654L78.1162 33.2175C78.126 33.4357 78.2103 33.6439 78.355 33.8075L77.9896 34.3234L74.2541 39.554Z" fill="#EDF0F4"/>
<path d="M78.1687 32.8999L67.6597 31.4334C67.66 31.059 67.4333 30.7217 67.0864 30.5807L67.2226 30.0147L67.2751 29.8499L76.59 32.0257L78.1806 32.8784L78.1687 32.8999Z" fill="#EDF0F4"/>
<path d="M67.182 32.231L73.3584 39.8262C73.2934 39.9017 73.2424 39.9883 73.208 40.0818L70.927 39.6614L65.0515 33.2127L66.1693 32.1689C66.4587 32.3988 66.8589 32.4291 67.1796 32.2454L67.182 32.231Z" fill="#EDF0F4"/>
<path d="M66.7974 30.5234H66.7449C66.4635 30.5256 66.199 30.6579 66.0284 30.8817L61.7818 28.5745L66.967 29.7878L66.7974 30.5234Z" fill="#EDF0F4"/>
<path d="M64.8628 32.9908L63.5946 31.5959H65.8421C65.8623 31.7227 65.9087 31.8439 65.9782 31.9518L64.8628 32.9908Z" fill="#EDF0F4"/>
<path d="M64.5762 33.2605L60.4729 37.1082C60.194 36.8838 59.7964 36.8838 59.5175 37.1082L55.4071 33.2581L56.9118 31.5862H63.0739L64.5762 33.2605Z" fill="#EDF0F4"/>
<path d="M55.1181 32.9906L54.0051 31.9565C54.0746 31.8485 54.121 31.7274 54.1412 31.6006H56.3839L55.1181 32.9906Z" fill="#EDF0F4"/>
<path d="M53.2336 32.3625C53.4383 32.3607 53.6365 32.291 53.7973 32.1643L54.9151 33.208L49.0395 39.6568L46.7634 40.0771C46.7299 39.9832 46.6788 39.8964 46.6129 39.8216L52.7918 32.2383C52.9272 32.3161 53.0799 32.3588 53.236 32.3625H53.2336Z" fill="#EDF0F4"/>
<path d="M53.0091 29.7878L58.1991 28.5745L53.9549 30.8745C53.7843 30.6507 53.5198 30.5185 53.2384 30.5162H53.1835L53.0091 29.7878Z" fill="#EDF0F4"/>
<path d="M52.3093 31.4405L41.8002 32.907V32.8736L43.3909 32.0209L52.7058 29.8499L52.7464 30.0218L52.8825 30.5879C52.535 30.7303 52.309 31.0697 52.3117 31.4453L52.3093 31.4405Z" fill="#EDF0F4"/>
<path d="M41.8624 33.2295L52.3714 31.7773C52.4117 31.8767 52.4682 31.9687 52.5386 32.0496L46.3836 39.6424C46.1861 39.5207 45.9451 39.4919 45.7244 39.5636L42.0104 34.333L41.645 33.8171C41.784 33.6525 41.8616 33.4449 41.8647 33.2295H41.8624Z" fill="#EDF0F4"/>
<path d="M45.0867 42.5252L40.4651 44.1589L45.3542 40.9561C45.4188 41.0223 45.4929 41.0787 45.5739 41.1232L45.0867 42.5252Z" fill="#EDF0F4"/>
<path d="M44.9076 43.0364L42.1633 50.9182C41.8365 50.8595 41.5071 51.0062 41.3321 51.2884L34.9885 48.2694C35.0033 48.2068 35.0113 48.1427 35.0124 48.0783C35.0119 47.972 34.9917 47.8667 34.9527 47.7678L39.013 45.1047L44.9076 43.0364Z" fill="#EDF0F4"/>
<path d="M34.7926 47.5241L34.7425 47.4739L35.1796 46.4851L35.1939 46.4565L37.8641 45.5178L34.7926 47.5241Z" fill="#EDF0F4"/>
<path d="M34.8786 48.5369L41.2414 51.5224C41.2175 51.5998 41.2054 51.6803 41.2055 51.7613C41.2062 51.9536 41.2728 52.1399 41.3942 52.2891L37.9358 56.1966L34.432 50.1013L34.4009 48.9071C34.6014 48.8436 34.7715 48.7084 34.8786 48.5273V48.5369Z" fill="#EDF0F4"/>
<path d="M34.3627 47.2257V47.2687C34.2975 47.2497 34.23 47.24 34.1621 47.24C34.0675 47.2398 33.9736 47.2568 33.885 47.2902V47.2735C33.8845 47.1549 33.8685 47.0368 33.8373 46.9224L34.6183 46.6477L34.3627 47.2257Z" fill="#EDF0F4"/>
<path d="M34.1239 49.5592L33.8492 49.0815L33.9471 48.9023C33.9995 48.9167 34.0531 48.9263 34.1072 48.931L34.1239 49.5592Z" fill="#EDF0F4"/>
<path d="M30.5412 58.7784C29.8717 58.7814 29.3079 59.2798 29.2228 59.944H28.535C28.5003 59.719 28.3899 59.5126 28.2221 59.3588L31.382 53.5884L30.6224 58.7689C30.5971 58.7718 30.5714 58.7718 30.546 58.7689L30.5412 58.7784Z" fill="#EDF0F4"/>
<path d="M31.3748 66.7223L28.2197 60.9423C28.3866 60.7878 28.4968 60.5818 28.5326 60.3572H29.2204C29.3023 61.0264 29.8694 61.53 30.5436 61.5323H30.6177L31.3748 66.7223Z" fill="#EDF0F4"/>
<path d="M32.0674 51.7159L32.5236 48.611H32.5642C32.7278 48.6089 32.8896 48.5774 33.0419 48.5178L33.4432 49.2176L32.0674 51.7159Z" fill="#EDF0F4"/>
<path d="M31.4966 52.7453L27.9498 59.1941C27.9188 59.1797 27.8877 59.1702 27.8543 59.1582L28.0931 56.8893L32.1057 48.5298L31.4966 52.7453Z" fill="#EDF0F4"/>
<path d="M27.9546 61.1143L31.5014 67.563L32.1224 71.7857L28.1098 63.4262L27.871 61.1572C27.8945 61.1403 27.9202 61.1266 27.9474 61.1166L27.9546 61.1143Z" fill="#EDF0F4"/>
<path d="M32.0698 68.5947L33.4456 71.0954L33.0443 71.7952C32.8926 71.7334 32.7304 71.7018 32.5666 71.7021H32.526L32.0698 68.5947Z" fill="#EDF0F4"/>
<path d="M34.1286 70.7444L34.1119 71.3749C34.0575 71.3773 34.0037 71.3869 33.9519 71.4036L33.854 71.2245L34.1286 70.7444Z" fill="#EDF0F4"/>
<path d="M33.8898 73.0372V73.0205C33.979 73.0516 34.0725 73.0685 34.1669 73.0707C34.2349 73.0681 34.3023 73.0568 34.3675 73.0372V73.0802L34.6254 73.6487L33.8373 73.374C33.869 73.2644 33.8866 73.1513 33.8898 73.0372Z" fill="#EDF0F4"/>
<path d="M34.4009 71.4084L34.432 70.2141L37.9358 64.1189L41.3847 68.0216C41.2141 68.2354 41.1605 68.5198 41.2414 68.7811L34.8858 71.7833C34.7777 71.6062 34.6074 71.4758 34.4081 71.4179L34.4009 71.4084Z" fill="#EDF0F4"/>
<path d="M34.7926 72.7983L37.8641 74.8046L35.1987 73.866L35.1843 73.8373L34.7472 72.8413C34.764 72.8246 34.7926 72.7983 34.7926 72.7983Z" fill="#EDF0F4"/>
<path d="M34.9503 72.5453C34.9889 72.4463 35.0091 72.3411 35.01 72.2348C35.0092 72.1704 35.0012 72.1063 34.9861 72.0438L41.3345 69.02C41.5108 69.3006 41.8392 69.4468 42.1657 69.3902L44.91 77.272L39.0225 75.206L34.9503 72.5453Z" fill="#EDF0F4"/>
<path d="M45.0843 77.7999L45.562 79.2019C45.4799 79.2449 45.4056 79.3014 45.3423 79.3691L40.4675 76.1423L45.0843 77.7999Z" fill="#EDF0F4"/>
<path d="M45.7316 80.759C45.9525 80.8282 46.1924 80.7995 46.3908 80.6802L52.5457 88.2753C52.4744 88.3555 52.4178 88.4477 52.3786 88.5476L41.8695 87.0955C41.8618 86.8768 41.7773 86.6679 41.6307 86.5055L42.0009 85.9777L45.7316 80.759Z" fill="#EDF0F4"/>
<path d="M41.817 87.3916L52.326 88.8581C52.327 89.2321 52.5532 89.5687 52.8992 89.7108L52.7631 90.2768L52.7225 90.4488L43.4077 88.2729L41.817 87.4107V87.3916Z" fill="#EDF0F4"/>
<path d="M52.8037 88.0628L46.6177 80.4843C46.6826 80.4088 46.7336 80.3222 46.7682 80.2288L49.0491 80.6491L54.9246 87.0979L53.8068 88.1273C53.5182 87.8955 53.1167 87.8651 52.7965 88.0508L52.8037 88.0628Z" fill="#EDF0F4"/>
<path d="M53.1978 89.7848H53.2503C53.5312 89.7804 53.7949 89.6486 53.9669 89.4265L58.1991 91.7266L53.0067 90.5156L53.1978 89.7848Z" fill="#EDF0F4"/>
<path d="M55.1324 87.3176L56.4007 88.7125H54.1388C54.1194 88.5855 54.073 88.4641 54.0027 88.3566L55.1324 87.3176Z" fill="#EDF0F4"/>
<path d="M55.419 87.0476L59.5247 83.1975C59.8045 83.4193 60.2002 83.4193 60.4801 83.1975L64.5858 87.0476L63.0811 88.7195H56.9189L55.419 87.0476Z" fill="#EDF0F4"/>
<path d="M64.8772 87.3176L65.9878 88.3614C65.9175 88.4689 65.871 88.5902 65.8516 88.7172H63.597L64.8772 87.3176Z" fill="#EDF0F4"/>
<path d="M66.7592 87.9434C66.5542 87.943 66.3552 88.0129 66.1956 88.1416L65.0778 87.0979L70.9533 80.6491L73.2342 80.2288C73.2698 80.3218 73.3206 80.4081 73.3847 80.4843L67.2106 88.0723C67.0711 87.9873 66.9107 87.9427 66.7473 87.9434H66.7592Z" fill="#EDF0F4"/>
<path d="M66.9837 90.5181L61.7818 91.7314L66.0188 89.4314C66.1908 89.6535 66.4545 89.7853 66.7353 89.7897H66.7974L66.9837 90.5181Z" fill="#EDF0F4"/>
<path d="M67.6835 88.8654L78.1926 87.3989V87.4324L76.59 88.285L67.2751 90.4609L67.2345 90.2889L67.0984 89.7229C67.4464 89.5807 67.6732 89.2414 67.6716 88.8654H67.6835Z" fill="#EDF0F4"/>
<path d="M78.1329 87.0764L67.6238 88.5286C67.5855 88.4282 67.5288 88.3359 67.4566 88.2563L73.6116 80.6611C73.81 80.7804 74.0499 80.8091 74.2708 80.74L77.9943 85.9778L78.3598 86.4937C78.2147 86.6542 78.1303 86.8603 78.1209 87.0764H78.1329Z" fill="#EDF0F4"/>
<path d="M74.9085 77.7808L79.5205 76.1423L74.6315 79.3428C74.5681 79.2751 74.4938 79.2186 74.4117 79.1756L74.9085 77.7808Z" fill="#EDF0F4"/>
<path d="M75.0876 77.2696L77.8319 69.3878C78.1585 69.4451 78.4872 69.2987 78.6631 69.0176L85.0139 72.0389C84.9731 72.2058 84.9857 72.3812 85.0497 72.5405L80.9894 75.2036L75.0876 77.2696Z" fill="#EDF0F4"/>
<path d="M85.1883 72.7983L85.2384 72.8485L84.8013 73.8373L84.787 73.866L82.1168 74.8046L85.1883 72.7983Z" fill="#EDF0F4"/>
<path d="M85.1023 71.7857L78.7563 68.7811C78.837 68.516 78.7796 68.2282 78.6034 68.0144L82.0499 64.1069L85.5537 70.2141L85.5847 71.4083C85.3849 71.4691 85.2146 71.6018 85.1071 71.7809L85.1023 71.7857Z" fill="#EDF0F4"/>
<path d="M85.6206 73.0971V73.0374C85.6862 73.054 85.7535 73.0636 85.8212 73.066C85.9156 73.0639 86.0091 73.047 86.0982 73.0159V73.0326C86.1007 73.1481 86.1176 73.2628 86.1484 73.3741L85.3674 73.6488L85.6206 73.0971Z" fill="#EDF0F4"/>
<path d="M85.8594 70.7634L86.1341 71.2411L86.0361 71.4202C85.9843 71.4036 85.9305 71.3939 85.8761 71.3916L85.8594 70.7634Z" fill="#EDF0F4"/>
<path d="M87.9182 68.614L87.462 71.719H87.4214C87.2577 71.7189 87.0955 71.7505 86.9438 71.8121L86.5425 71.1123L87.9182 68.614Z" fill="#EDF0F4"/>
<path d="M88.4867 67.582L92.0335 61.1333C92.0645 61.1476 92.0956 61.1572 92.129 61.1691L91.8902 63.4381L87.8776 71.7976L88.4867 67.582Z" fill="#EDF0F4"/>
<path d="M92.0383 59.1844L88.4914 52.7357L87.8681 48.5154L91.8806 56.8748L92.1195 59.1438C92.0986 59.1673 92.0695 59.1819 92.0383 59.1844Z" fill="#EDF0F4"/>
<path d="M89.7931 45.0307L89.817 45.0522L89.8576 45.1C89.6739 45.3507 89.6109 45.6701 89.6857 45.9718L88.5177 46.4853C88.2697 46.1304 87.8639 45.9191 87.431 45.9192C87.3101 45.919 87.1899 45.9384 87.0751 45.9765L81.7776 36.2366L88.7494 43.5857L89.7931 45.0307Z" fill="#EDF0F4"/>
<path d="M84.7464 38.8926L81.1996 35.1666L80.5547 33.9724L84.7464 38.8926Z" fill="#EDF0F4"/>
<path d="M79.9337 33.5925L80.2251 34.149L79.8382 33.743C79.8739 33.6954 79.9058 33.6451 79.9337 33.5925V33.5925Z" fill="#EDF0F4"/>
<path d="M80.784 35.1857L86.6524 46.1725C86.5132 46.273 86.3948 46.3995 86.3037 46.545L85.623 46.3062L85.1453 46.1342L79.6519 33.9724L80.784 35.1857Z" fill="#EDF0F4"/>
<path d="M79.0668 34.1491C79.16 34.1472 79.2525 34.132 79.3414 34.1037L84.5649 45.936H84.5315L80.6718 44.5722L74.7843 40.7268C74.9274 40.4102 74.861 40.0381 74.6171 39.7906L78.6774 34.0583C78.7994 34.1157 78.932 34.1466 79.0668 34.1491Z" fill="#EDF0F4"/>
<path d="M78.4768 32.4772C78.4239 32.5186 78.3758 32.5659 78.3335 32.6182L77.7603 32.3101L78.4768 32.4772Z" fill="#EDF0F4"/>
<path d="M77.7197 31.9301L76.547 31.6555L73.8481 30.2009L77.7197 31.9301Z" fill="#EDF0F4"/>
<path d="M67.6764 28.178C68.0204 28.2332 68.3682 28.1045 68.5935 27.8389L69.7877 28.3739L75.3599 31.3666L67.3563 29.4917L67.6764 28.178Z" fill="#EDF0F4"/>
<path d="M66.764 27.3945C66.8262 27.6142 66.9556 27.8088 67.1342 27.951L67.2011 28.0107H67.2202C67.265 28.0385 67.3113 28.064 67.3587 28.0872L67.053 29.4151L62.312 28.3117L61.1775 28.0107V27.9749L66.764 27.3945Z" fill="#EDF0F4"/>
<path d="M63.6089 27.2895L61.1249 27.5045C61.1013 27.4314 61.0701 27.3609 61.0318 27.2943L63.6089 27.2895Z" fill="#EDF0F4"/>
<path d="M61.0079 28.5171L65.8779 31.1444C65.8611 31.1891 65.8491 31.2356 65.8421 31.2829H63.3199L60.9124 28.6556C60.947 28.6156 60.979 28.5733 61.0079 28.529V28.5171Z" fill="#EDF0F4"/>
<path d="M59.3527 28.8945C59.7418 29.148 60.2438 29.148 60.6329 28.8945L62.7992 31.2829H57.1864L59.3527 28.8945Z" fill="#EDF0F4"/>
<path d="M59.0733 28.6558L56.6658 31.2831H54.1388C54.132 31.2349 54.12 31.1877 54.103 31.1422L58.973 28.5149C59.0019 28.5578 59.033 28.5993 59.0661 28.6391L59.0733 28.6558Z" fill="#EDF0F4"/>
<path d="M58.9563 27.3038C58.918 27.3705 58.8868 27.4409 58.8631 27.514L56.3792 27.2991L58.9563 27.3038Z" fill="#EDF0F4"/>
<path d="M52.7679 28.0203H52.787L52.8539 27.9606C53.0324 27.8183 53.1619 27.6237 53.2241 27.4041L58.8058 27.9821V28.0179L57.6713 28.3188L52.9303 29.4199L52.6246 28.0919C52.6704 28.0696 52.7151 28.0449 52.7583 28.0179L52.7679 28.0203Z" fill="#EDF0F4"/>
<path d="M51.3945 27.8435C51.6209 28.1074 51.9686 28.2342 52.3117 28.1779L52.627 29.4915L44.6234 31.3616L50.1955 28.3737L51.3945 27.8435Z" fill="#EDF0F4"/>
<path d="M46.14 30.1914L43.4435 31.6436L42.2708 31.9182L46.14 30.1914Z" fill="#EDF0F4"/>
<path d="M42.2278 32.2932L41.6546 32.6013C41.6123 32.5491 41.5642 32.5018 41.5113 32.4604L42.2278 32.2932Z" fill="#EDF0F4"/>
<path d="M40.9213 34.1492C41.0574 34.1475 41.1916 34.1174 41.3154 34.0608L45.3757 39.793C45.1319 40.0405 45.0654 40.4126 45.2085 40.7293L39.3115 44.5674L35.4518 45.9312H35.4184L40.6443 34.1062C40.7332 34.1344 40.8257 34.1497 40.9189 34.1516L40.9213 34.1492Z" fill="#EDF0F4"/>
<path d="M40.0591 33.5901C40.0844 33.6441 40.1139 33.696 40.1475 33.7453L39.7605 34.149L40.0591 33.5901Z" fill="#EDF0F4"/>
<path d="M40.3385 33.9819L34.8452 46.1438L34.3675 46.3157L33.6868 46.5546C33.5957 46.409 33.4773 46.2825 33.3381 46.182L39.2064 35.1953L40.3385 33.9819Z" fill="#EDF0F4"/>
<path d="M39.4214 33.9819L38.7765 35.1761L35.2297 38.8997L39.4214 33.9819Z" fill="#EDF0F4"/>
<path d="M30.1066 45.0164L30.1304 44.9949L31.2219 43.5881L38.1937 36.2366L32.8986 45.9837C32.7838 45.9456 32.6637 45.9262 32.5427 45.9264C32.1073 45.9239 31.6984 46.1355 31.4488 46.4924L30.2546 45.9383C30.2732 45.86 30.2836 45.78 30.2857 45.6995C30.2857 45.4747 30.2147 45.2557 30.0827 45.0737L30.1066 45.0164Z" fill="#EDF0F4"/>
<path d="M29.2993 46.7647C29.6411 46.7376 29.95 46.5508 30.1328 46.2607L31.3127 46.8268C31.1165 47.3645 31.2961 47.9673 31.7546 48.31L28.2293 55.6854L29.2993 46.7647Z" fill="#EDF0F4"/>
<path d="M28.5087 49.8171L27.7922 56.6194L26.7914 58.7188L28.5087 49.8171Z" fill="#EDF0F4"/>
<path d="M27.6584 57.7944L27.5223 59.0818C27.4224 59.0809 27.323 59.0971 27.2285 59.1296C27.1817 59.0842 27.1314 59.0427 27.078 59.0054L27.6584 57.7944Z" fill="#EDF0F4"/>
<path d="M27.2285 61.1526C27.3236 61.1828 27.4226 61.1989 27.5223 61.2004L27.6584 62.4877L27.0756 61.2816C27.1278 61.2452 27.1781 61.2062 27.2261 61.1645L27.2285 61.1526Z" fill="#EDF0F4"/>
<path d="M26.7819 61.5657L27.7826 63.6651L28.4991 70.4673L26.7819 61.5657Z" fill="#EDF0F4"/>
<path d="M29.2993 73.5078L28.2269 64.6157L31.7402 71.9864C31.2818 72.3291 31.1022 72.9319 31.2984 73.4696L30.1304 74.0094C29.9485 73.7211 29.6395 73.5373 29.2993 73.515V73.5078Z" fill="#EDF0F4"/>
<path d="M30.1591 75.2825L30.1352 75.261L30.0946 75.2132C30.226 75.031 30.297 74.8121 30.2976 74.5874C30.2958 74.5069 30.2854 74.4269 30.2666 74.3486L31.4608 73.8184C31.7102 74.1716 32.1151 74.3825 32.5475 74.3844C32.6683 74.3823 32.7881 74.363 32.9034 74.3271L38.1985 84.0742L31.2267 76.7322L30.1591 75.2825Z" fill="#EDF0F4"/>
<path d="M35.2393 81.4062L38.7861 85.1322L39.4309 86.3264L35.2393 81.4062Z" fill="#EDF0F4"/>
<path d="M40.0471 86.7183L39.7486 86.157L40.1355 86.563C40.1005 86.6097 40.0709 86.6602 40.0471 86.7135V86.7183Z" fill="#EDF0F4"/>
<path d="M39.1969 85.1252L33.3285 74.1385C33.4667 74.0367 33.5849 73.9104 33.6772 73.7659L34.3579 74.0047L34.8356 74.1767L40.329 86.3385L39.1969 85.1252Z" fill="#EDF0F4"/>
<path d="M40.9118 86.1592C40.8183 86.1587 40.7254 86.174 40.6371 86.2045L35.4208 74.3723H35.4542L39.3139 75.7361L45.2014 79.5815C45.0582 79.8981 45.1247 80.2702 45.3685 80.5177L41.3082 86.2499C41.1871 86.1898 41.0542 86.1571 40.9189 86.1544L40.9118 86.1592Z" fill="#EDF0F4"/>
<path d="M41.5017 87.8455C41.5535 87.8028 41.6015 87.7557 41.645 87.7046L42.2182 88.0127L41.5017 87.8455Z" fill="#EDF0F4"/>
<path d="M42.2588 88.3923L43.4315 88.667L46.1305 90.1215L42.2588 88.3923Z" fill="#EDF0F4"/>
<path d="M52.3021 92.1326C51.9579 92.0755 51.6092 92.2045 51.385 92.4718L50.1908 91.9368L44.6257 88.9441L52.6293 90.819L52.3021 92.1326Z" fill="#EDF0F4"/>
<path d="M53.2145 92.9161C53.1535 92.6959 53.0238 92.5009 52.8443 92.3596L52.7774 92.2999H52.7583C52.7148 92.2698 52.6684 92.2442 52.6198 92.2235L52.9255 90.8955L57.6665 92.0061L58.801 92.3071V92.3429L53.2145 92.9161Z" fill="#EDF0F4"/>
<path d="M56.3696 93.0211L58.8536 92.8061C58.8777 92.8791 58.9089 92.9495 58.9467 93.0163L56.3696 93.0211Z" fill="#EDF0F4"/>
<path d="M58.961 91.7865L54.0911 89.1592C54.1075 89.1135 54.1195 89.0663 54.1269 89.0183H56.6467L59.0661 91.6671C59.0305 91.7043 58.9978 91.7443 58.9682 91.7865H58.961Z" fill="#EDF0F4"/>
<path d="M60.6162 91.4043C60.2277 91.149 59.7246 91.149 59.336 91.4043L57.1697 89.0159H62.7825L60.6162 91.4043Z" fill="#EDF0F4"/>
<path d="M60.8957 91.6574L63.3032 89.0134H65.8421C65.8495 89.0614 65.8615 89.1086 65.8779 89.1543L61.0079 91.7816C60.9828 91.7415 60.9548 91.7032 60.9243 91.667L60.8957 91.6574Z" fill="#EDF0F4"/>
<path d="M61.0127 93.0092C61.0505 92.9424 61.0817 92.872 61.1058 92.7991L63.5898 93.014L61.0127 93.0092Z" fill="#EDF0F4"/>
<path d="M67.2011 92.2927H67.182L67.1151 92.3524C66.9356 92.4937 66.8059 92.6887 66.7449 92.9089L61.1632 92.3309V92.2951L62.2977 91.9942L67.0363 90.8835L67.342 92.2115C67.2964 92.2338 67.2525 92.2593 67.2106 92.2879L67.2011 92.2927Z" fill="#EDF0F4"/>
<path d="M68.5744 92.4693C68.3502 92.2021 68.0014 92.0731 67.6573 92.1302L67.342 90.8166L75.3456 88.9417L69.783 91.9296L68.5744 92.4693Z" fill="#EDF0F4"/>
<path d="M73.8289 90.1215L76.5279 88.667L77.7006 88.3923L73.8289 90.1215Z" fill="#EDF0F4"/>
<path d="M77.7412 88.0103L78.3144 87.7021C78.3579 87.7532 78.4059 87.8004 78.4577 87.8431L77.7412 88.0103Z" fill="#EDF0F4"/>
<path d="M79.0476 86.1568C78.9113 86.1562 78.7766 86.1864 78.6536 86.2452L74.5932 80.513C74.8371 80.2654 74.9035 79.8934 74.7604 79.5767L80.6503 75.7314L84.5195 74.3748H84.5529L79.3366 86.1998C79.248 86.1705 79.1553 86.1552 79.062 86.1544L79.0476 86.1568Z" fill="#EDF0F4"/>
<path d="M79.9099 86.7158C79.8856 86.6613 79.856 86.6093 79.8215 86.5606L80.2084 86.1545L79.9099 86.7158Z" fill="#EDF0F4"/>
<path d="M79.6161 86.3265L85.1094 74.1647L85.5871 73.9927L86.2678 73.7539C86.3602 73.8985 86.4784 74.0248 86.6165 74.1265L80.7482 85.1132L79.6161 86.3265Z" fill="#EDF0F4"/>
<path d="M80.5332 86.3264L81.1781 85.1322L84.7249 81.4062L80.5332 86.3264Z" fill="#EDF0F4"/>
<path d="M89.7955 75.3205L89.7716 75.342L88.7231 76.7201L81.7776 84.0669L87.0727 74.3198C87.188 74.3556 87.3079 74.3749 87.4286 74.3771C87.8611 74.3752 88.2659 74.1643 88.5153 73.811L89.6857 74.3962C89.6113 74.6979 89.6742 75.0171 89.8576 75.268L89.7955 75.3205Z" fill="#EDF0F4"/>
<path d="M90.6339 73.5723C90.2913 73.5971 89.9814 73.7845 89.8003 74.0762L88.6634 73.4815C88.8596 72.9438 88.68 72.341 88.2216 71.9983L91.7349 64.6252L90.6339 73.5723Z" fill="#EDF0F4"/>
<path d="M91.4555 70.4888L92.172 63.6866L93.1727 61.5872L91.4555 70.4888Z" fill="#EDF0F4"/>
<path d="M92.4443 61.217C92.544 61.2155 92.643 61.1994 92.7381 61.1692C92.786 61.2132 92.8363 61.2546 92.8885 61.2934L92.3081 62.5067L92.4443 61.217Z" fill="#EDF0F4"/>
<path d="M92.3081 57.8088L92.8885 59.0222C92.8351 59.0595 92.7848 59.101 92.7381 59.1464C92.6436 59.1139 92.5442 59.0977 92.4443 59.0986L92.3081 57.8088Z" fill="#EDF0F4"/>
<path d="M92.1816 56.6264L91.465 49.8242L93.1919 58.7259L92.1816 56.6264Z" fill="#EDF0F4"/>
</svg>
