<svg width="120" height="120" viewBox="0 0 120 120" fill="none" xmlns="http://www.w3.org/2000/svg">
<circle opacity="0.98" cx="60" cy="60" r="60" fill="#0A142E"/>
<path fill-rule="evenodd" clip-rule="evenodd" d="M83.9726 27.0002V27L83.9728 27C84.7372 27.0001 85.3568 27.6159 85.3568 28.3754C85.3562 28.8667 85.092 29.3205 84.6635 29.5657L84.6646 29.5678L80.0035 32.1074L84.6644 34.647L84.6633 34.6491C85.0918 34.8943 85.356 35.3481 85.3566 35.8394C85.3566 36.5989 84.737 37.2147 83.9726 37.2148C83.7295 37.2143 83.491 37.1502 83.2808 37.0291L83.2797 37.0303C83.2797 37.0303 79.4969 34.8744 77.891 33.9931C76.5747 33.2707 76.4791 32.4013 76.4868 32.1076C76.4792 31.8139 76.5747 30.9445 77.891 30.2221C79.4969 29.3408 83.2797 27.1849 83.2797 27.1849L83.2808 27.186C83.491 27.0648 83.7295 27.0007 83.9726 27.0002ZM48.9135 29.1213C49.806 28.2345 51.0166 27.7363 52.2788 27.7363C54.9071 27.7364 57.0378 29.8535 57.0378 32.4651C57.0378 33.7193 56.5365 34.9221 55.644 35.8089C54.7515 36.6958 53.541 37.194 52.2788 37.194C51.0165 37.1941 49.806 36.6959 48.9134 35.809C48.0209 34.9221 47.5195 33.7193 47.5195 32.4651C47.5195 31.2109 48.021 30.0081 48.9135 29.1213ZM101.184 43.5C99.9784 43.5018 98.8444 44.0698 98.1258 45.0319L98.1192 45.027L90.5595 55.5887L90.5733 55.5931C90.0878 56.2399 89.8227 57.0237 89.8164 57.8305C89.8227 58.6373 90.0878 59.421 90.5733 60.0677L90.5595 60.0723L98.1192 70.6338L98.1258 70.6291C98.8444 71.5912 99.9784 72.1591 101.184 72.1608C102.196 72.1608 103.167 71.7614 103.882 71.0504C104.598 70.3395 105 69.3751 105 68.3696C104.998 67.5883 104.754 66.8266 104.3 66.1887L104.304 66.1856L98.3193 57.8305L104.304 49.4755L104.3 49.4722C104.754 48.8343 104.998 48.0726 105 47.2914C105 46.2859 104.598 45.3215 103.882 44.6105C103.167 43.8994 102.196 43.5 101.184 43.5V43.5ZM45.3955 79.9039C45.3956 78.801 46.2535 77.907 47.3117 77.907C47.7158 77.9079 48.1094 78.0418 48.4361 78.2897L48.6033 78.4C48.6033 78.4 56.9278 84.2161 67.3236 84.0382C77.7194 84.2161 86.0437 78.4 86.0437 78.4L86.2109 78.2897C86.5376 78.0418 86.9312 77.9081 87.3353 77.907C88.3935 77.907 89.2514 78.801 89.2515 79.9039C89.251 80.6651 88.8353 81.3598 88.1797 81.6953C77.0796 88.6131 67.3236 87.9852 67.3236 87.9852C67.3236 87.9852 57.5674 88.6131 46.4673 81.6953C45.8117 81.3598 45.3959 80.6651 45.3955 79.9039Z" fill="white"/>
</svg>
