<svg width="120" height="120" viewBox="0 0 120 120" fill="none" xmlns="http://www.w3.org/2000/svg">
<path fill-rule="evenodd" clip-rule="evenodd" d="M60 0C93.132 0 120 26.868 120 60C120 93.132 93.132 120 60 120C26.868 120 0 93.132 0 60C0 26.868 26.868 0 60 0Z" fill="#383B4A"/>
<path fill-rule="evenodd" clip-rule="evenodd" d="M93.6361 63.6601L91.1881 66.1081C63.3721 38.4121 32.5201 53.8081 25.1521 58.1401C25.4129 57.3248 25.8656 56.5841 26.4721 55.9801L56.2081 26.2441C57.2258 25.2243 58.6074 24.6512 60.0481 24.6512C61.4888 24.6512 62.8704 25.2243 63.8881 26.2441L93.6241 55.9801C94.6481 56.9948 95.2252 58.376 95.2274 59.8176C95.2297 61.2592 94.6569 62.6421 93.6361 63.6601Z" fill="white"/>
<path fill-rule="evenodd" clip-rule="evenodd" d="M70.6321 86.664L63.9001 93.396C62.8824 94.4157 61.5008 94.9888 60.0601 94.9888C58.6194 94.9888 57.2378 94.4157 56.2201 93.396L49.7881 86.964C60.1321 79.644 68.9761 85.428 70.6321 86.664Z" fill="white"/>
<path fill-rule="evenodd" clip-rule="evenodd" d="M89.6761 67.62L81.9961 75.3C59.1721 54.132 36.2761 67.764 32.8441 70.02L31.1521 68.328C31.1749 68.3158 31.1952 68.2995 31.2121 68.28C61.1161 44.304 87.1441 65.448 89.6761 67.62Z" fill="white"/>
<path fill-rule="evenodd" clip-rule="evenodd" d="M42.8519 80.04L41.0039 78.192C58.7519 62.016 78.2519 75.78 80.1359 77.172L72.2879 85.02C58.2359 71.496 45.2039 78.564 42.8519 80.04Z" fill="white"/>
</svg>
