<svg width="120" height="120" viewBox="0 0 120 120" fill="none" xmlns="http://www.w3.org/2000/svg">
<g clip-path="url(#clip0_107_17753)">
<circle cx="60" cy="60" r="60" fill="#EDF0F4"/>
<path fill-rule="evenodd" clip-rule="evenodd" d="M20.0292 56.1805C21.2704 13.2299 90.8084 2.92421 100 56.1805C95.3046 58.5388 93.2723 59.5067 93.2723 59.5067C93.2723 59.5067 95.6413 60.9128 99.9865 63.5763C96.3534 108.265 28.0138 115.847 20 63.6366C24.4364 60.8022 26.5636 59.5287 26.5636 59.5287C26.5636 59.5287 24.0431 58.2632 20.0292 56.1805ZM59.263 63.5619L65.7857 74.7757L71.3756 74.6606L62.6403 58.4129L70.5606 44.9111L65.7852 44.7969L59.7278 54.5226L53.6713 44.3388L48.5466 44.7969L57.049 58.5276L47.6152 74.4322L52.6234 74.7757L59.263 63.5619Z" fill="#B7B5B1"/>
<path fill-rule="evenodd" clip-rule="evenodd" d="M23.3602 54.1354C27.2626 19.6986 84.2353 6.92725 96.6666 54.1354C95.1558 54.9337 86.791 59.6092 86.791 59.6092C86.791 59.6092 90.4503 61.8752 96.6541 65.7637C93.2854 102.481 31.8139 111.203 23.3333 65.8189C30.0039 61.5819 33.0592 59.6289 33.0592 59.6289C33.0592 59.6289 31.2654 58.5831 23.3602 54.1354ZM59.2645 63.6165L65.7706 74.8004L71.3465 74.6856L62.6332 58.4809L70.5335 45.0149L65.7706 44.901L59.7287 54.6009L53.6877 44.444L48.5763 44.901L57.0564 58.5948L47.6467 74.4578L52.6423 74.8004L59.2645 63.6165Z" fill="#244B81"/>
</g>
<defs>
<clipPath id="clip0_107_17753">
<rect width="120" height="120" fill="white"/>
</clipPath>
</defs>
</svg>
