<svg width="120" height="120" viewBox="0 0 120 120" fill="none" xmlns="http://www.w3.org/2000/svg">
<circle cx="60" cy="60" r="60" fill="#EDF0F4"/>
<path fill-rule="evenodd" clip-rule="evenodd" d="M42.4975 30L25 60.3091L42.4975 90.6182H77.4992L78.0779 89.6317L95 60.3223L77.4992 30H42.4975ZM45.8356 34.0151H71.758L54.7142 39.4048C55.0256 39.9114 55.2481 40.4674 55.3719 41.049L74.9905 34.8635L78.9069 53.8968C79.4802 53.7322 80.0731 53.6459 80.6695 53.6403L77.3811 37.8856L89.8343 59.4344H87.3285C87.3612 59.727 87.3777 60.0212 87.3778 60.3157C87.3784 60.6102 87.3619 60.9044 87.3285 61.197H89.8343L76.9767 83.4758L80.5676 66.9911C79.9807 66.9768 79.3981 66.8862 78.8346 66.7215L74.5991 86.123L55.4048 79.7008C55.3022 80.2738 55.1137 80.8281 54.8458 81.345L70.4656 86.5801H45.8356L47.1509 84.3275C46.5987 84.1194 46.0767 83.8385 45.5988 83.4923L44.3065 85.7218L32.0309 64.4624L44.198 75.2022C44.5331 74.7137 44.9311 74.2715 45.3818 73.8869L30.0645 60.3617L45.9507 46.2644C45.5298 45.8478 45.1759 45.3686 44.9017 44.8438L31.9257 56.3532L44.3065 34.8964L46.1348 38.0829C46.5821 37.6882 47.0879 37.3653 47.6343 37.126L45.8356 34.0151ZM54.2404 45.7909C54.6171 45.3349 54.9149 44.8192 55.1217 44.265L75.559 56.0737C75.1825 56.5268 74.8694 57.029 74.6284 57.5666L54.2404 45.7909ZM48.5449 47.7211V72.4926C48.8141 72.4564 49.0855 72.4389 49.3571 72.44C49.6753 72.4362 49.9932 72.4593 50.3075 72.509V47.8461C50.1662 47.8542 50.0245 47.8542 49.8833 47.8461C49.4326 47.847 48.9835 47.7951 48.5449 47.6915V47.7211ZM54.2207 74.8307L74.635 63.0549V63.0418C74.8761 63.5783 75.1891 64.0795 75.5656 64.5314L55.1019 76.3696C54.8851 75.8162 54.5882 75.2977 54.2207 74.8307Z" fill="black"/>
<path fill-rule="evenodd" clip-rule="evenodd" d="M44.6976 40.1128C45.571 38.0147 47.6239 36.6508 49.8965 36.6588C52.9779 36.6732 55.4723 39.1676 55.4867 42.249C55.4947 44.5216 54.1308 46.5745 52.0327 47.4479C49.9346 48.3213 47.5169 47.8426 45.9099 46.2356C44.3029 44.6286 43.8242 42.2109 44.6976 40.1128ZM53.4513 40.7972C52.856 39.3591 51.4529 38.4213 49.8965 38.4213C48.8753 38.4169 47.8946 38.8204 47.1722 39.5422C46.4499 40.264 46.0455 41.2443 46.049 42.2655C46.0477 43.8219 46.9843 45.2258 48.4218 45.8224C49.8594 46.4189 51.5148 46.0906 52.6158 44.9905C53.7169 43.8904 54.0466 42.2353 53.4513 40.7972Z" fill="black"/>
<path fill-rule="evenodd" clip-rule="evenodd" d="M43.6623 76.2375C44.6182 73.9351 46.8677 72.436 49.3606 72.44C52.7538 72.4472 55.5027 75.1961 55.5099 78.5893C55.5139 81.0822 54.0147 83.3317 51.7123 84.2875C49.4099 85.2434 46.7583 84.7171 44.9956 82.9543C43.2328 81.1915 42.7065 78.54 43.6623 76.2375ZM49.3655 74.1861C51.147 74.1841 52.7546 75.255 53.439 76.9002C54.1239 78.5468 53.7488 80.444 52.4886 81.706C51.2285 82.968 49.3319 83.346 47.6842 82.6636C46.0365 81.9811 44.9627 80.3727 44.964 78.5893C44.9623 77.4204 45.4261 76.2989 46.2529 75.4727C47.0786 74.6476 48.1984 74.1848 49.3655 74.1861Z" fill="black"/>
<path fill-rule="evenodd" clip-rule="evenodd" d="M74.5444 57.7478C75.5807 55.2537 78.0178 53.6298 80.7187 53.6338H80.7088C84.3926 53.641 87.377 56.6255 87.3843 60.3092C87.3843 63.0101 85.7568 65.4448 83.2611 66.4775C80.7655 67.5101 77.8935 66.9372 75.9851 65.026C74.0767 63.1148 73.508 60.2419 74.5444 57.7478ZM85.6316 60.3092C85.6316 57.5959 83.432 55.3964 80.7187 55.3964C79.4141 55.3911 78.1614 55.907 77.239 56.8295C76.3165 57.752 75.8006 59.0047 75.8058 60.3092C75.8058 63.0225 78.0054 65.2221 80.7187 65.2221C83.432 65.2221 85.6316 63.0225 85.6316 60.3092Z" fill="black"/>
</svg>
