<svg width="120" height="120" viewBox="0 0 120 120" fill="none" xmlns="http://www.w3.org/2000/svg">
<path fill-rule="evenodd" clip-rule="evenodd" d="M60 0C93.132 0 120 26.868 120 60C120 93.132 93.132 120 60 120C26.868 120 0 93.132 0 60C0 26.868 26.868 0 60 0Z" fill="#006AE3"/>
<path d="M57.528 85.296V35.376H62.964V85.296H57.528Z" fill="white"/>
<path d="M85.2 52.0081L68.412 56.4601L64.668 39.0361L69.66 37.9081L71.628 46.1641C71.628 46.1641 76.164 38.7241 70.116 31.0201C66.552 27.0601 64.86 26.8921 60.864 26.2681C57.348 25.7641 49.176 26.9521 46.74 36.4921C45.708 42.6361 46.872 47.1841 54.792 53.1361L54.348 59.7601C54.348 59.7601 45.504 53.5321 43.224 49.1641C41.46 45.7081 38.436 38.8801 43.896 29.3761C46.836 24.6241 52.632 20.0641 62.844 20.5441C67.98 20.7601 80.52 27.0361 78.576 41.7001C78.24 44.4481 76.812 48.1081 76.812 48.1081L83.7 46.5721L85.2 52.0081Z" fill="white"/>
<path d="M75.612 91.0682C72.54 95.7362 66.624 100.14 56.436 99.3962C51.3 99.0482 38.94 92.4362 41.268 77.8322C41.676 75.0962 43.2 71.4842 43.2 71.4842L36.276 72.8282L34.92 67.3682L51.828 63.3602L55.116 80.8802L50.088 81.8762L48.336 73.5602C48.336 73.5602 43.608 80.8682 49.44 88.7402C52.896 92.7962 54.576 93.0002 58.572 93.7322C62.064 94.3322 70.272 93.3482 72.96 83.8802C74.148 77.7722 73.104 73.1882 65.352 67.0202L65.976 60.4082C65.976 60.4082 74.652 66.8642 76.812 71.2922C78.468 74.8082 81.312 81.7202 75.612 91.0682Z" fill="white"/>
</svg>
