<svg width="120" height="120" viewBox="0 0 120 120" fill="none" xmlns="http://www.w3.org/2000/svg">
<circle cx="60" cy="60" r="60" fill="#EDF0F4"/>
<path fill-rule="evenodd" clip-rule="evenodd" d="M20 60C20 82.0576 37.9424 100 60 100C82.0576 100 100 82.0576 100 60C100 37.9424 82.0576 20 60 20C37.9424 20 20 37.9424 20 60ZM26.4768 60C26.4768 41.5072 41.5072 26.4768 60 26.4768C78.4928 26.4768 93.5232 41.5072 93.5232 60C93.5232 78.4928 78.4928 93.5232 60 93.5232C41.5072 93.5232 26.4768 78.4928 26.4768 60Z" fill="#E6201A"/>
<path d="M78.6879 46.5922C77.2639 43.2898 74.1535 41.2162 70.5599 41.2162L49.3759 41.021H49.3119C45.8143 41.021 42.7359 42.9954 41.3439 46.2018C39.8879 49.4722 40.5023 53.165 42.9631 55.789L45.8783 58.9314L50.2847 54.1698L47.7247 51.3858C46.7199 50.285 47.1103 49.1522 47.2703 48.7938C47.4335 48.4066 48.0159 47.4658 49.3119 47.4658H49.3439L70.5247 47.661C71.9807 47.661 72.5983 48.7938 72.7583 49.1522C72.9535 49.5746 73.2767 50.6754 72.3711 51.645L61.8783 63.0466C61.2959 63.661 60.5823 63.7602 60.2271 63.7602C59.5455 63.7602 58.8991 63.469 58.4447 62.9506L56.6623 61.0402L52.2559 65.8018L53.6799 67.325C55.3631 69.1394 57.7599 70.2082 60.2239 70.2082C62.6527 70.2082 65.0175 69.1714 66.6367 67.389L77.1295 55.9874C79.4975 53.4562 80.0799 49.8306 78.6879 46.5922Z" fill="#E6201A"/>
<path d="M77.4558 63.6286L74.4766 60.3902L69.3918 65.8974L71.9518 68.6814C72.6334 69.427 72.4382 70.2366 72.243 70.6558C72.115 70.947 71.6286 71.8526 70.4606 71.8526L49.2798 72.0478C48.211 72.0478 47.7886 71.3342 47.6606 71.011C47.4974 70.6878 47.2382 69.8142 48.0158 68.9694L58.7038 57.4078C59.091 56.9854 59.5774 56.7614 60.1278 56.7614C60.419 56.7614 60.9694 56.8254 61.4238 57.3118L63.6254 59.7086L68.7102 54.2014L66.9278 52.259C65.1774 50.3806 62.7166 49.2798 60.1598 49.2798C57.5358 49.2798 55.043 50.3806 53.2606 52.323L42.5726 63.8846C39.9806 66.6686 39.3342 70.5566 40.8574 74.0222C42.3486 77.3918 45.587 79.4974 49.2798 79.4974L70.5278 79.3022C74.2846 79.2702 77.587 77.1006 79.0782 73.603C80.5982 70.1694 79.9838 66.3486 77.4558 63.6286Z" fill="#E6201A"/>
</svg>
