<svg width="120" height="120" viewBox="0 0 120 120" fill="none" xmlns="http://www.w3.org/2000/svg">
<g clip-path="url(#clip0_107_17686)">
<circle cx="60" cy="60" r="60" fill="#EDF0F4"/>
<path fill-rule="evenodd" clip-rule="evenodd" d="M44.4352 96.8568C49.3672 98.9408 54.6044 100 60.0044 100C65.4056 100 70.64 98.9408 75.5736 96.84C85.1608 92.7755 92.7926 85.1434 96.8568 75.556C98.9408 70.624 100 65.3868 100 59.9868C100.014 43.9071 90.3886 29.3855 75.5736 23.1348C70.64 21.0508 65.388 20 59.9956 20C43.9158 19.9859 29.3939 29.6112 23.1432 44.4264C21.0592 49.36 20 54.5944 20 59.9956C20 65.3968 21.0592 70.6328 23.152 75.5736C27.2163 85.1607 34.8481 92.7925 44.4352 96.8568ZM38.0004 37.9921C43.8788 32.1233 51.694 28.8833 60.004 28.8833L60.0032 28.8841C68.3132 28.8841 76.1268 32.1229 82.0068 37.9929C87.8756 43.8713 91.1156 51.6865 91.1156 59.9965C91.1156 68.3065 87.8768 76.1201 82.0068 82.0001C76.1284 87.8689 68.3132 91.1089 60.0032 91.1089C51.6932 91.1089 43.8796 87.8701 37.9996 82.0001C32.1304 76.1201 28.8916 68.3057 28.8916 59.9957C28.8916 51.6857 32.1204 43.8721 38.0004 37.9921Z" fill="black"/>
<path d="M57.6 69.9557H74.932V78.6653H64.26C64.4336 81.1573 64.5292 83.4653 64.7028 85.9505H55.7236V78.7505H45.0516C45.0516 75.9025 44.6956 73.0629 45.2252 70.3969C45.4944 68.9729 47.092 67.7313 48.0732 66.4893C51.4512 62.4861 54.8288 58.5789 58.2936 54.5757C59.6308 53.0649 60.9592 51.6409 62.4704 49.9561H45.8504V41.2485H55.7148V33.9629H64.3372V41.0745H75.0972C75.0972 44.0093 75.4532 46.8489 74.9236 49.5233C74.6544 50.9473 73.0568 52.1889 71.9888 53.4309C68.6108 57.4341 65.2332 61.3413 61.7684 65.3445C60.4484 66.9337 59.12 68.3489 57.6004 69.9553" fill="black"/>
</g>
<defs>
<clipPath id="clip0_107_17686">
<rect width="120" height="120" fill="white"/>
</clipPath>
</defs>
</svg>
