<svg width="120" height="120" viewBox="0 0 120 120" fill="none" xmlns="http://www.w3.org/2000/svg">
<circle cx="60" cy="60" r="60" fill="#E7EFF3"/>
<path d="M87.7875 53.0438L76.6201 58.0229L46.9947 73.1023L76.6201 87.346V63.8022L87.7875 58.7697V93.5521L76.6201 98.5311L33 77.6546V66.5584L63.1945 51.7457L33 37.2353V25.9791L44.3451 21L87.7875 41.9121V53.0438Z" fill="#49C1BF"/>
<path d="M33 25.9791L76.6201 46.8911L87.7875 41.9121L44.3451 21L33 25.9791Z" fill="#077A8F"/>
<path d="M76.6206 46.8438L87.7879 41.8647V52.9965L76.6206 57.9756V46.8438V46.8438Z" fill="#298E97"/>
<path d="M33 25.9893V37.2455L63.1945 51.7559L33 66.5686V77.6648L76.6201 98.5413V87.374L46.9947 73.1125L76.6201 58.0331V46.9013L33 25.9893Z" fill="#49C1BF"/>
<path d="M76.6206 98.4581L87.7879 93.4791V58.6968L76.6206 63.7292V98.4581Z" fill="#298E97"/>
</svg>
